<svg id="Layer_1" data-name="Layer 1" xmlns="http://www.w3.org/2000/svg" width="485.84" height="74.48" viewBox="0 0 485.84 74.48">
  <defs>
    <style>
      .cls-1 {
        fill: #1c1b29;
      }

      .cls-2 {
        fill: #fa4216;
      }
    </style>
  </defs>
  <title>acunetixlogo-freelogovectors.net</title>
  <path class="cls-1" d="M145.15,286.62l-3.58-8.3H115.48l-3.52,8.3H98l28.49-64.89h4.33l28.41,64.89Zm-8.14-19-8.53-21.53L120,267.63Zm25.49-4.93A23.75,23.75,0,0,1,169.9,245a24.88,24.88,0,0,1,18.16-7.25c9.42,0,16.3,4,20.79,11.81l-9,7c-3.21-4.63-7-6.95-11.51-6.95a12,12,0,0,0-9,3.74,12.73,12.73,0,0,0-3.52,9.35,12.88,12.88,0,0,0,3.52,9.41,11.93,11.93,0,0,0,9,3.74c4.41,0,8.3-2.32,11.51-6.88l9,7a23.3,23.3,0,0,1-8.53,8.74,23.93,23.93,0,0,1-12.18,3.14A24.4,24.4,0,0,1,170,280.49,23.23,23.23,0,0,1,162.5,262.7ZM218,265.61V238.85h13v27.81a8.81,8.81,0,0,0,8.22,9.19h.9a8.36,8.36,0,0,0,6.35-2.54,9.16,9.16,0,0,0,2.55-6.58V238.85h13v26.76c0,6.58-2.09,11.89-6.2,16a21.54,21.54,0,0,1-15.7,6.2c-6.43,0-11.74-2-15.85-6.13S218,272.19,218,265.61Zm100.4-8.6v29.61H305.51V258.73A9.45,9.45,0,0,0,303,252a9.5,9.5,0,0,0-12.93,0,9,9,0,0,0-2.54,6.73v27.89h-13V238.77h12v4.34c3.59-3.59,8.3-5.38,14-5.38s9.95,1.72,13.16,5.23,4.71,8.15,4.71,14Zm56.44,10.1H341.39a12,12,0,0,0,4.71,7,15.13,15.13,0,0,0,8.75,2.47,21.14,21.14,0,0,0,13.3-4.86l5.38,8.9a29.13,29.13,0,0,1-19.13,7.17,25.25,25.25,0,0,1-18.69-7.17,23,23,0,0,1-7.48-17.8,24.76,24.76,0,0,1,25-25c6.57,0,12,2.09,16.14,6.36A21.68,21.68,0,0,1,375.78,260,28.4,28.4,0,0,1,374.88,267.11ZM341.39,258h21.75a9.41,9.41,0,0,0-3.06-7,10.65,10.65,0,0,0-7.33-2.69A10.87,10.87,0,0,0,345.5,251,13.17,13.17,0,0,0,341.39,258Zm80.29-36.49a7.89,7.89,0,0,1,2.39-5.83,8.7,8.7,0,0,1,11.81,0,7.49,7.49,0,0,1,2.47,5.83,7.19,7.19,0,0,1-2.47,5.69,8.7,8.7,0,0,1-11.81,0A7.87,7.87,0,0,1,421.68,221.5Zm1.87,65.12V238.85h13v47.77Zm69.37,0H478.34L468.1,271.37l-10.32,15.25H443.21L460.7,262l-16.3-23.17H459l9.2,13.83,9-13.83H491.8L475.35,262Zm-89-59.28H391v12h-9.42v10.91h9.57v36.41h12.63V250.21h11.66V239.3H404Zm-331,26.91a33.4,33.4,0,0,0-33.42-33.42h-.74v21.08h.74a12.41,12.41,0,0,1,.06,24.82h-.8v21.08h.74a33.15,33.15,0,0,0,18.32-5.45h0l1.94,4.48H73l-.07-32.59Z" transform="translate(-7.08 -213.35)"/>
  <path class="cls-2" d="M32.72,287.14a1.76,1.76,0,0,1-1.79-1.79V266.51a1.8,1.8,0,1,1,3.59,0v18.84A1.82,1.82,0,0,1,32.72,287.14ZM9,268a1.83,1.83,0,0,1-1.87-1.79V242.29A1.82,1.82,0,0,1,9,240.57a1.92,1.92,0,0,1,1.72,1.72v23.84A1.83,1.83,0,0,1,9,268Zm7.92-20.93A1.84,1.84,0,0,1,15,245.28V231.15a1.84,1.84,0,1,1,3.67-.23v14.36A1.82,1.82,0,0,1,16.87,247.07Zm0,32.3a1.85,1.85,0,0,1-1.87-1.8v-23.4a1.84,1.84,0,0,1,3.67-.22v23.62A1.83,1.83,0,0,1,16.87,279.37Zm7.93,5.08a1.83,1.83,0,0,1-1.87-1.8V270.1a1.82,1.82,0,0,1,1.94-1.72,1.92,1.92,0,0,1,1.72,1.72v12.55A1.82,1.82,0,0,1,24.8,284.45Zm0-21.53a1.85,1.85,0,0,1-1.87-1.87V225.39a1.83,1.83,0,1,1,3.66-.22v35.88A1.83,1.83,0,0,1,24.8,262.92Zm7.92-19a1.78,1.78,0,0,1-1.79-1.87V223.15a1.8,1.8,0,1,1,3.59,0v18.91A1.84,1.84,0,0,1,32.72,243.93Z" transform="translate(-7.08 -213.35)"/>
</svg>
