
<svg xmlns="http://www.w3.org/2000/svg" xmlns:xlink="http://www.w3.org/1999/xlink" viewBox="0 0 65 41" fill="#fff" fill-rule="evenodd" stroke="#000" stroke-linecap="round" stroke-linejoin="round"><use xlink:href="#A" x=".5" y=".5"/><symbol id="A" overflow="visible"><path d="M8.702.227c-2.917.6-6.05 2.93-7.352 5.484S0 8.893 0 19.644c0 5.737.096 10.462.24 11.2.856 4.376 4.278 7.798 8.654 8.654 1.326.24 18.585.362 18.585.096 0-.193-1.47-5.978-1.543-6.05-.024-.048-3.086-.723-6.798-1.52-8.654-1.88-8.4-1.808-9.112-2.676l-.627-.747v-17.5l.627-.76c.723-.868.458-.795 9.112-2.676l6.798-1.52C26.01 6.095 27.48.309 27.48.127c0-.23-17.62-.12-18.778.12zM36.64.263c.024.434 1.374 5.737 1.52 5.882.048.072 3.35.82 7.304 1.663s7.473 1.7 7.786 1.88c.424.246.78.594 1.037 1.012.386.675.434 1.398.434 9.16s-.048 8.485-.434 9.16a3.17 3.17 0 0 1-1.037 1.012c-.313.17-3.8 1.012-7.786 1.88l-7.304 1.675c-.145.145-1.495 5.448-1.52 5.882 0 .265 1.736.313 9.353.24 10.5-.096 10.63-.12 13.306-1.928 1.922-1.323 3.374-3.222 4.146-5.424.554-1.615.554-1.76.554-12.487s0-10.872-.554-12.487a11.01 11.01 0 0 0-4.146-5.424C56.623.153 56.503.127 45.993.032c-7.617-.072-9.353-.036-9.353.24zM25.88 19.365a1.74 1.74 0 0 0-.048.795c.072.4.506.434 6.17.506l6.075.048v-1.687H32.06c-5.038 0-6.075.048-6.17.337z" stroke="none" fill="#f76700" fill-rule="nonzero"/></symbol></svg>