<svg height="64" viewBox="0 0 128 128" width="64" xmlns="http://www.w3.org/2000/svg" xmlns:xlink="http://www.w3.org/1999/xlink"><linearGradient id="a" gradientUnits="userSpaceOnUse" x1="0" x2="128" y1="128" y2="0"><stop offset="0" stop-color="#333"/><stop offset="1" stop-color="#5d5d5d"/></linearGradient><path d="m22.307999 8.588353c-.16864.021095-.441042.1229766-.724428.2173284-.142894.047569-.48372.1407941-1.050421.615764-.434039.3637812-1.026051 1.4627246-1.086642 1.9921776-.145071 1.267638.09284 2.049476.398435 3.296148.289233 1.179912.694881 2.476532 1.231528 3.984356 1.0733 3.015662 2.60105 6.661934 4.382791 10.576652 3.33769 7.333332 7.470601 15.503408 11.264859 21.732846a.82132362.82132362 0 0 1 .108664.579543c-1.213219 7.29882 1.0142 15.059608 1.0142 21.515518 0 3.696525-1.446299 9.694947-2.173285 15.068107-.07566.559145-.03897 1.104369-.108664 1.774849a.82132362.82132362 0 0 1 -.108665.289771c-1.179349 2.455103-1.5288 4.979813-.869313 7.497832 1.259983 4.810785 5.914073 8.718465 12.568829 11.083755 6.656195 2.3658 15.279283 3.21057 24.087239 1.88352 1.071377-.16142 2.036388-.36163 3.078819-.57955a.82132362.82132362 0 0 1 .905536.39844c.37728.64109.716925 1.21839 1.122863 1.81107 1.973411 2.88125 4.056773 5.41864 7.099397 6.66474 1.587301.65007 2.82133.46258 4.201684.18111 1.339983-.27324 2.655546-.70943 3.911912-1.30398 1.269058-.60054 2.413597-1.2994 3.441034-2.13706 1.090654-.8892 1.988165-1.56233 2.426835-3.33237.787989-3.17952-.3795-5.61878-1.847292-8.36715-.453432-.84903-.989663-1.64132-1.557521-2.46306a.82132362.82132362 0 0 1 .108664-1.05042c3.729363-3.751719 5.339565-8.036533 4.237905-12.242833-.02456-.09377-.129061-.318764-.25355-.688207a.82132362.82132362 0 0 1 -.07244-.325992c-.01584.147672-.01877.04636 0-.181107.110646-1.260251-.159285-2.303886-.579543-3.33237-.872819-2.136075-2.316724-4.121702-3.948134-6.193861-1.633934-2.075363-3.425545-4.25872-4.962333-6.266305-1.536788-2.007584-2.810754-3.785508-3.404813-5.252104-1.293726-3.193946-1.705956-7.301925-2.31817-11.55463-.300991-2.090823-.724565-4.208173-1.376414-6.302526a.82132362.82132362 0 0 1 .941757-1.050421c4.009603.685628 7.986799 1.229746 11.518409 1.629964 2.871862.325453 5.46352.560339 7.570271.615764 2.18835.05758 3.38847.25667 5.21588-.470879.25821-.102799.79209-.528624 1.19531-1.050421.40322-.521796.66245-1.126182.68821-1.593742.0682-1.237543-.23131-1.577496-.57954-2.100841-.61937-.930788-1.18735-1.415991-2.0284-2.100842-1.63058-1.327743-4.00691-2.887817-6.664741-4.491455-5.309046-3.203291-11.818198-6.591649-16.408299-8.222261-2.910765-1.03404-6.207491-1.452307-9.49001-1.376413-3.269716.07559-6.426192.561422-9.019131 1.593742-1.561605.621719-2.198301 1.536801-3.006377 2.644163-.191049.261807-.388221.59522-.579543.905535a.82132362.82132362 0 0 1 -.760649.398436c-1.102062-.0874-2.195589-.102533-3.223706 0-1.993463.198796-3.96244.874201-5.940311 1.774849a.82132362.82132362 0 0 1 -1.086645-.434657c-.686021-1.532321-1.489874-2.982517-2.463056-4.310348-2.945431-4.018796-8.105024-9.36545-12.931043-13.800358-2.41392-2.218288-4.730042-4.224313-6.66474-5.65054-.962128-.709264-1.856748-1.2525001-2.716606-1.702406-.481616-.2519967-.78861-.4437917-1.267749-.5795426-.477548-.1352988-.848657-.2924024-1.448857-.2173284zm5.722983 10.069552a.82132362.82132362 0 0 1 .579543.217329c.721137.626673 1.276193 1.017035 2.100842 1.774849 4.634365 4.258785 9.713154 9.637578 12.206615 13.039708.878183 1.198211 1.55493 2.794491 2.173285 4.310348a.82132362.82132362 0 0 1 -.25355.977978c-1.777473 1.358401-3.398901 2.756687-4.636341 4.382791a.82132362.82132362 0 0 1 -1.376413-.108665c-2.923722-5.181718-5.983769-10.599825-8.512032-16.154749-1.253105-2.753232-2.118876-5.055248-3.006377-7.316725a.82132362.82132362 0 0 1 .724428-1.122864zm45.457871 14.669672c2.678907-.06194 5.530178.336168 7.642718 1.086642 3.784063 1.344271 10.222886 4.592475 15.249214 7.606496a.82132362.82132362 0 0 1 -.5071 1.5213c-.418798-.04254-.753184-.0061-1.340192-.07244-5.21416-.590898-11.549318-1.707855-17.386277-2.897716a.82132362.82132362 0 0 1 -.362215-.181107c-2.169392-1.960506-5.003879-3.440386-8.041153-4.672562a.82132362.82132362 0 0 1 .108664-1.557521c1.364182-.356909 2.811702-.790905 4.636341-.833092zm-16.046085 5.469433c1.166313-.116298 2.576239.04796 4.165462.362214.536731.103321 1.085296.200407 1.666185.362214.266929.07038.506158.13114.796871.217328a.82132362.82132362 0 0 1 .03622 0c.270522.08518.594858.217553.905535.325993.01101.0038.0252-.0039.03622 0 .164773.05919.283645.130134.325993.144886a.82132362.82132362 0 0 1 .03622 0c1.009976.372757 1.984652.799835 2.933935 1.267749 1.083322.533992 2.158615 1.151974 3.042598 1.738628.41565.275846.784796.507758 1.195307.833092.241136.192704.361062.355491.325992.325993.227356.19257.458885.385967.688207.615764.154323.152277.373124.342995.579543.579543.01954.02238.01693.04909.03622.07244l.108664.07244a.82132362.82132362 0 0 1 .07244.07244c1.741695 2.224417 2.511494 5.47667 3.07882 9.417567.580843 4.03479.95467 8.561954 2.680385 12.822379 1.009686 2.492694 2.688658 4.906282 4.491455 7.208061a.82132362.82132362 0 0 1 -.869314 1.303971c-6.338221-1.874774-14.070429-2.435119-22.05884-1.231528-7.151844 1.077549-13.41037 3.392193-18.146926 6.41119a.82132362.82132362 0 0 1 -1.23152-.833085c.455869-2.681687.869313-5.38256.869313-7.787603 0-7.8345-1.763077-15.800241-.724428-21.660404.0024-.03656-.0092-.02713 0-.07244a.82132362.82132362 0 0 1 0-.03622c.114101-.549453.234139-.979419.362214-1.412635.147714-.499703.334191-.991854.5071-1.376414.195834-.43549.489206-.903495.833093-1.376413.01172-.02825.03807-.109511.144885-.25355.242478-.316825.450984-.447038.470879-.470879.298704-.357944.590151-.769557 1.05042-1.231528.58647-.588639 1.276688-1.232566 1.992178-1.81107.72346-.584945 1.506872-1.101883 2.281949-1.593742l1.159085-.724428a.82132362.82132362 0 0 1 .03622-.03622c2.179373-1.196498 4.411086-2.07517 6.121419-2.245727zm12.351501 17.639827c-2.525604 0-4.636337 2.41002-4.636341 5.614319 0 3.204299 2.123774 5.686761 4.636341 5.686761 2.512566 0 4.672562-2.488009 4.672562-5.686761 0-3.198753-2.146958-5.614317-4.672562-5.614319zm-13.945243 1.557521c-.273537-.009-.633709.02835-1.0142.108664-2.733943.577043-4.783798 3.77902-4.310348 7.280503.473579 3.502446 3.111401 5.681372 5.831648 5.107219 2.7282-.575829 4.783705-3.815917 4.310348-7.316725-.415071-3.069723-2.52378-5.103845-4.817448-5.179661zm33.178812 46.508292a.82132362.82132362 0 0 1 .688207.32599c.403523.52759.764516 1.09925 1.086642 1.70241.761225 1.42535 1.100089 2.96371 1.26775 3.69459.000132.00022.07235.18081.07244.1811.0032.014-.003.0593 0 .0725.01101.0531.03476.11069.03622.14488.0024.0567.0021.0403 0 .0725-.0029-.0371-.03625-.10884-.03622-.10861.000017.0001-.01545-.0465-.03622-.10861l-.760649.18099-.615764-.47087c-.01851.021-.02804.0254-.03622.0362l.651986.5071.615764.54332c-.146173.16796-.263212.23857-.325993.28977-.602119.4909-1.439876.94365-2.354392 1.37641-.93472.44235-1.90734.78414-2.680384.94176-.422705.0861-.783654.11862-1.0142.10861a.82132362.82132362 0 0 1 -.362214-.10861c-.47844-.27865-1.082759-.80605-1.883513-1.59374s-1.738817-1.80575-2.499278-2.89771a.82132362.82132362 0 0 1 .398436-1.23153c2.728648-.98118 5.19447-2.18289 7.389168-3.51348a.82132362.82132362 0 0 1 .398435-.14489z" fill="url(#a)"/></svg>