<?xml version="1.0" encoding="UTF-8"?>
<svg xmlns="http://www.w3.org/2000/svg" width="177" height="30" viewBox="0 0 177 30" fill="none">
  <path fill-rule="evenodd" clip-rule="evenodd" d="M79.6778 6.62055C79.6426 6.54313 79.5865 6.47713 79.5157 6.43005C79.4449 6.38298 79.3623 6.35672 79.2774 6.35427H79.0552C78.9687 6.34993 78.8831 6.37346 78.8111 6.4214C78.739 6.46934 78.6842 6.53914 78.6548 6.62055L71.1012 23.0189C71.0655 23.0855 71.0482 23.1604 71.0512 23.2358C71.0542 23.3113 71.0773 23.3845 71.1182 23.448C71.159 23.5116 71.2161 23.563 71.2835 23.597C71.3509 23.631 71.4262 23.6464 71.5015 23.6415H73.6337C73.7901 23.6519 73.9454 23.609 74.0744 23.52C74.2034 23.431 74.2986 23.301 74.3444 23.1511L75.5437 20.5304H82.8329L84.0321 23.1511C84.2103 23.5074 84.3885 23.6415 84.7429 23.6415H86.877C87.2314 23.6415 87.4517 23.3293 87.2754 23.0189L79.6778 6.62055ZM76.6548 17.8159L79.0552 12.4826H79.1433L81.5877 17.8159H76.6548ZM45.4316 6.43003C45.5024 6.47711 45.5585 6.54311 45.5937 6.62053L53.1837 23.0189C53.3599 23.3293 53.1396 23.6415 52.7852 23.6415H50.6511C50.2967 23.6415 50.1185 23.5074 49.9404 23.1511L48.7412 20.5304H41.4615L40.2604 23.1511C40.2145 23.301 40.1193 23.431 39.9903 23.52C39.8613 23.609 39.706 23.6518 39.5496 23.6415H37.4175C37.3421 23.6464 37.2668 23.631 37.1994 23.597C37.132 23.563 37.0749 23.5115 37.0341 23.448C36.9932 23.3845 36.9701 23.3112 36.9671 23.2358C36.9641 23.1603 36.9814 23.0855 37.0171 23.0189L44.5707 6.62053C44.6004 6.53929 44.6552 6.46966 44.7272 6.42176C44.7992 6.37387 44.8847 6.35021 44.9711 6.35424H45.1933C45.2783 6.35669 45.3608 6.38295 45.4316 6.43003ZM44.9711 12.4826L42.5707 17.8159H47.5094L45.0592 12.4826H44.9711ZM66.5227 6.62052H68.7449C68.8041 6.61685 68.8634 6.62584 68.9189 6.64691C68.9744 6.66797 69.0248 6.70062 69.0666 6.74267C69.1085 6.78473 69.1409 6.83522 69.1618 6.8908C69.1826 6.94637 69.1913 7.00574 69.1874 7.06496V23.4193C69.1869 23.537 69.1399 23.6497 69.0567 23.733C68.9734 23.8162 68.8607 23.8632 68.7429 23.8637H68.1682L57.992 12.7086H57.948V23.1511C57.9475 23.2688 57.9005 23.3816 57.8173 23.4648C57.734 23.548 57.6213 23.595 57.5035 23.5955H55.2813C55.166 23.5879 55.0573 23.5386 54.9756 23.4569C54.8938 23.3751 54.8445 23.2664 54.8369 23.1511V6.79868C54.8374 6.68096 54.8844 6.5682 54.9676 6.48496C55.0509 6.40172 55.1636 6.35474 55.2813 6.35423H55.902L66.0342 17.109H66.0801V7.06496C66.0801 6.94741 66.1267 6.83466 66.2096 6.75136C66.2926 6.66807 66.4051 6.62102 66.5227 6.62052ZM100.163 19.1684C100.278 19.1684 100.388 19.2099 100.475 19.2852L101.94 20.8408C102.02 20.9363 102.059 21.0588 102.051 21.1829C102.043 21.307 101.987 21.4232 101.896 21.5074C100.316 23.0441 98.1903 23.8915 95.9861 23.8637C94.8364 23.8637 93.698 23.6373 92.6358 23.1973C91.5736 22.7573 90.6085 22.1125 89.7955 21.2995C88.9826 20.4866 88.3377 19.5215 87.8977 18.4593C87.4578 17.3971 87.2313 16.2587 87.2313 15.109C87.2313 13.9593 87.4578 12.8209 87.8977 11.7587C88.3377 10.6965 88.9826 9.73139 89.7955 8.91844C90.6085 8.10549 91.5736 7.46062 92.6358 7.02065C93.698 6.58068 94.8364 6.35423 95.9861 6.35423C98.4305 6.35423 100.208 7.155 101.852 8.62051C101.902 8.65918 101.943 8.708 101.973 8.76375C102.002 8.81951 102.02 8.88091 102.024 8.94392C102.028 9.00693 102.019 9.07011 101.997 9.12928C101.975 9.18845 101.94 9.24226 101.896 9.28717L100.431 10.7987C100.39 10.8409 100.342 10.8746 100.289 10.8976C100.235 10.9206 100.177 10.9324 100.119 10.9324C100.061 10.9324 100.003 10.9206 99.9498 10.8976C99.8963 10.8746 99.848 10.8409 99.8079 10.7987C98.7734 9.89358 97.4487 9.38927 96.0742 9.37721C92.965 9.37721 90.6528 11.9998 90.6528 15.0649C90.6528 18.086 93.0091 20.6626 96.1202 20.6626C97.4884 20.6623 98.8116 20.1739 99.852 19.2852C99.9382 19.2099 100.049 19.1684 100.163 19.1684ZM111.984 6.35432C110.254 6.35396 108.563 6.86601 107.124 7.82582C105.685 8.78564 104.563 10.1502 103.899 11.7473C103.235 13.3445 103.058 15.1026 103.392 16.7997C103.726 18.4969 104.556 20.0571 105.776 21.2834C106.995 22.5097 108.551 23.3471 110.247 23.69C111.942 24.033 113.701 23.866 115.302 23.2102C116.902 22.5543 118.273 21.4391 119.24 20.0051C120.207 18.5712 120.728 16.8828 120.737 15.1531C120.748 13.9984 120.53 12.853 120.094 11.7834C119.659 10.7139 119.015 9.7415 118.201 8.92282C117.387 8.10414 116.418 7.45548 115.35 7.01455C114.283 6.57361 113.139 6.34919 111.984 6.35432ZM111.984 20.7087C110.523 20.6816 109.13 20.082 108.106 19.039C107.083 17.9959 106.509 16.5927 106.509 15.1311C106.509 13.6695 107.083 12.2663 108.106 11.2232C109.13 10.1802 110.523 9.58062 111.984 9.55354C112.725 9.5398 113.462 9.67392 114.15 9.94805C114.839 10.2222 115.466 10.6308 115.995 11.1501C116.524 11.6694 116.945 12.2889 117.231 12.9724C117.518 13.656 117.666 14.3898 117.666 15.1311C117.666 15.8724 117.518 16.6062 117.231 17.2898C116.945 17.9733 116.524 18.5928 115.995 19.1121C115.466 19.6314 114.839 20.04 114.15 20.3141C113.462 20.5883 112.725 20.7224 111.984 20.7087ZM135.091 6.62052H137.313C137.428 6.62904 137.536 6.67871 137.617 6.76038C137.698 6.84204 137.747 6.95021 137.754 7.06496V23.4193C137.754 23.537 137.707 23.6497 137.623 23.733C137.54 23.8162 137.427 23.8632 137.31 23.8637H136.735L126.559 12.7086H126.515V23.1511C126.514 23.2688 126.467 23.3816 126.384 23.4648C126.301 23.548 126.188 23.595 126.07 23.5955H123.848C123.733 23.5879 123.624 23.5386 123.542 23.4569C123.46 23.3751 123.411 23.2664 123.404 23.1511V6.79868C123.404 6.68096 123.451 6.5682 123.534 6.48496C123.618 6.40172 123.73 6.35474 123.848 6.35423H124.471L134.603 17.109H134.647V7.06496C134.647 6.94724 134.694 6.83449 134.778 6.75125C134.861 6.66801 134.974 6.62102 135.091 6.62052ZM147.045 6.62121H141.268C141.152 6.62885 141.043 6.67813 140.962 6.75988C140.88 6.84163 140.831 6.95029 140.823 7.06565V23.1575C140.824 23.2753 140.871 23.388 140.954 23.4712C141.037 23.5545 141.15 23.6015 141.268 23.602H147.045C149.308 23.602 151.478 22.7033 153.078 21.1035C154.678 19.5038 155.577 17.334 155.578 15.0714C155.578 10.443 151.756 6.62121 147.045 6.62121ZM146.779 20.6633H143.978V9.55223H146.743C149.898 9.55223 152.208 11.9526 152.208 15.1078C152.244 18.2648 149.934 20.6633 146.779 20.6633ZM164.331 6.70473L171.838 23.0629C171.87 23.1239 171.887 23.1918 171.887 23.2608C171.887 23.3297 171.871 23.3977 171.839 23.4588C171.807 23.52 171.761 23.5726 171.705 23.6121C171.648 23.6515 171.583 23.6767 171.514 23.6855H169.382C169.026 23.6855 168.85 23.5514 168.672 23.197L167.47 20.5744H160.191L158.992 23.197C158.945 23.3461 158.849 23.4753 158.72 23.5639C158.592 23.6524 158.437 23.6952 158.281 23.6855H156.147C156.072 23.6897 155.997 23.674 155.93 23.6398C155.863 23.6056 155.806 23.5542 155.765 23.4909C155.724 23.4276 155.701 23.3546 155.698 23.2794C155.695 23.2042 155.711 23.1295 155.746 23.0629L163.31 6.70473C163.339 6.62315 163.393 6.55317 163.466 6.50519C163.538 6.45721 163.623 6.4338 163.71 6.43845H163.932C164.017 6.44012 164.1 6.46609 164.17 6.51328C164.241 6.56047 164.297 6.62691 164.331 6.70473ZM163.754 12.4863L161.354 17.8158H166.283L163.842 12.4863H163.754ZM174.863 23.3727H174.997C175.02 23.3714 175.042 23.3616 175.058 23.3454C175.074 23.3292 175.084 23.3075 175.085 23.2846V22.8402H175.352L175.53 23.3287C175.53 23.3727 175.574 23.3727 175.618 23.3727H175.796C175.819 23.3714 175.841 23.3618 175.858 23.3456C175.874 23.3294 175.884 23.3077 175.886 23.2846C175.84 23.2166 175.807 23.1377 175.773 23.059L175.773 23.0588C175.74 22.9824 175.707 22.9062 175.664 22.8402C175.757 22.8096 175.837 22.7497 175.893 22.6696C175.949 22.5895 175.977 22.4934 175.974 22.3957C175.978 22.3307 175.967 22.2657 175.944 22.2049C175.92 22.1442 175.885 22.089 175.838 22.043C175.792 21.9969 175.737 21.9611 175.676 21.9377C175.616 21.9143 175.551 21.9039 175.486 21.9072H174.911C174.888 21.9086 174.866 21.9183 174.85 21.9345C174.834 21.9508 174.824 21.9724 174.823 21.9953V23.2846C174.821 23.3385 174.82 23.3595 174.829 23.3676C174.836 23.3727 174.846 23.3727 174.863 23.3727ZM175.085 22.1735H175.442C175.465 22.1714 175.49 22.1746 175.512 22.1829C175.534 22.1911 175.555 22.2042 175.572 22.2212C175.588 22.2382 175.601 22.2587 175.609 22.2813C175.617 22.3038 175.62 22.3278 175.618 22.3517C175.615 22.3976 175.595 22.4408 175.563 22.4736C175.531 22.5063 175.488 22.5262 175.442 22.5298H175.095L175.085 22.1735ZM175.855 23.9834C175.681 24.0541 175.495 24.0893 175.308 24.087C175.027 24.087 174.752 24.0037 174.518 23.8476C174.284 23.6915 174.102 23.4696 173.994 23.21C173.887 22.9504 173.859 22.6647 173.913 22.389C173.968 22.1133 174.103 21.86 174.302 21.6611C174.5 21.4623 174.753 21.3267 175.029 21.2717C175.305 21.2166 175.59 21.2445 175.85 21.3518C176.11 21.4591 176.332 21.641 176.489 21.8745C176.645 22.108 176.729 22.3826 176.729 22.6637C176.732 22.8511 176.697 23.0372 176.626 23.2109C176.556 23.3847 176.451 23.5425 176.319 23.6752C176.186 23.8078 176.028 23.9126 175.855 23.9834ZM175.946 21.6582C175.757 21.5319 175.535 21.4644 175.308 21.4644V21.4568C175.004 21.4637 174.714 21.588 174.5 21.8038C174.285 22.0195 174.163 22.3098 174.158 22.6139C174.158 22.8412 174.226 23.0634 174.352 23.2524C174.478 23.4415 174.658 23.5888 174.868 23.6758C175.078 23.7628 175.309 23.7855 175.532 23.7412C175.755 23.6968 175.96 23.5874 176.12 23.4266C176.281 23.2659 176.391 23.0611 176.435 22.8381C176.479 22.6151 176.456 22.384 176.369 22.174C176.282 21.964 176.135 21.7845 175.946 21.6582Z" fill="#0A1116"></path>
  <path fill-rule="evenodd" clip-rule="evenodd" d="M15.0652 0C14.4905 0 13.9158 0.0440611 13.3755 0.0881222C14.1794 0.634674 14.9373 1.24589 15.6418 1.9157L16.2165 2.45018L15.6418 3.02489C15.1348 3.49648 14.66 4.00143 14.2204 4.53638V4.58044C14.1414 4.66499 14.0672 4.75389 13.9981 4.84672C14.3526 4.81005 14.7089 4.79534 15.0652 4.80266C17.7518 4.83944 20.3159 5.9325 22.2027 7.84535C24.0896 9.7582 25.1474 12.337 25.1474 15.0239C25.1474 17.7107 24.0896 20.2895 22.2027 22.2024C20.3159 24.1152 17.7518 25.2083 15.0652 25.2451C13.1802 25.256 11.3308 24.7319 9.73187 23.7336C8.96493 23.8222 8.19357 23.867 7.42154 23.8677C7.06524 23.8753 6.70882 23.86 6.35449 23.8217C6.39564 25.0262 6.49987 26.2277 6.66675 27.4213C9.13978 29.113 12.0689 30.0123 15.0652 29.9999C17.035 29.9999 18.9855 29.6119 20.8054 28.858C22.6253 28.1042 24.2789 26.9993 25.6717 25.6065C27.0646 24.2136 28.1695 22.56 28.9233 20.7401C29.6771 18.9203 30.0651 16.9697 30.0651 14.9999C30.0651 13.0301 29.6771 11.0796 28.9233 9.2597C28.1695 7.43983 27.0646 5.78625 25.6717 4.39338C24.2789 3.0005 22.6253 1.89562 20.8054 1.1418C18.9855 0.387985 17.035 0 15.0652 0ZM6.93288 2.3996C7.95892 1.73362 9.06299 1.19638 10.2202 0.799994C9.84216 1.49263 9.50007 2.2043 9.19532 2.93217C8.45172 2.71247 7.69639 2.53467 6.93288 2.3996ZM6.08956 7.85357C6.68943 7.81353 7.25942 7.77549 7.86587 7.77549C7.23739 8.3766 6.69867 9.065 6.26626 9.81954C6.10482 9.1767 5.98579 8.52396 5.90994 7.86552L6.08956 7.85357ZM5.55555 22.9306V23.0187L5.42145 22.9785C4.278 22.8819 3.14679 22.6734 2.04407 22.3559L1.95595 22.3119L2.00001 22.2218C2.34109 21.1588 2.75655 20.1211 3.2433 19.1165L3.28928 19.0264L3.3774 19.0705C4.125 19.4973 4.89636 19.8811 5.68773 20.2199L5.77777 20.264V20.3521C5.6354 21.2043 5.56109 22.0666 5.55555 22.9306ZM5.55551 23.8172V23.7291H5.46548C4.49311 23.6278 3.52819 23.4647 2.5766 23.2406L2.31032 23.1965L2.44442 23.4187C3.3148 24.7268 4.37863 25.8953 5.59957 26.8842L5.77773 27.0624V26.7501C5.64197 25.7781 5.56775 24.7985 5.55551 23.8172ZM13.998 2.53203C13.6877 2.84429 13.3754 3.19869 13.0651 3.55501C13.0268 3.59907 12.7988 3.86535 12.5306 4.22359C11.9095 3.92841 11.2729 3.67432 10.642 3.42248L10.5325 3.37877C10.8834 2.51841 11.2991 1.68589 11.7758 0.888357C12.5449 1.39685 13.2867 1.9455 13.998 2.53203ZM2.88891 12.1322L2.93297 12.2203L3.0211 12.1763C3.72064 11.6765 4.44785 11.2167 5.19925 10.7989L5.28737 10.7548V10.6648C5.05704 9.80582 4.89371 8.93027 4.79886 8.04603V7.95599H4.71074C3.60528 8.15763 2.51946 8.45505 1.46555 8.84488L1.37743 8.88894L1.42149 8.97898C1.77306 10.0888 2.26627 11.1486 2.88891 12.1322ZM2.62255 13.6422L2.71067 13.5541L2.76431 13.6805C3.2475 14.3592 3.76676 15.0115 4.31986 15.6345L4.36392 15.6786L4.31986 15.7686C3.83222 16.4224 3.38441 17.105 2.97887 17.8127L2.93481 17.9008L2.84669 17.8567C1.97949 17.2858 1.14782 16.6627 0.356279 15.9908L0.266241 15.9008L0.356279 15.8203C1.05549 15.038 1.8131 14.3098 2.62255 13.6422ZM8.62071 23.0638H8.88699L8.66477 22.8856C7.85894 22.2353 7.16799 21.4543 6.62072 20.5753V20.5312L6.44447 20.4412V20.5753C6.33864 21.3565 6.27915 22.1433 6.26631 22.9316V23.0197H6.35443C6.53259 23.0197 6.71028 23.0307 6.88796 23.0417C7.06564 23.0528 7.24332 23.0638 7.42148 23.0638H8.62071ZM8.75477 4.26681C8.50063 4.97872 8.29267 5.70628 8.13216 6.44496C7.3602 6.44247 6.58876 6.48533 5.82183 6.57331C5.77077 5.59578 5.78549 4.61593 5.86589 3.64037C6.84234 3.78121 7.80768 3.99054 8.75477 4.26681ZM9.55359 6.39744C10.2184 5.99534 10.9178 5.65362 11.6436 5.37637C11.1261 5.11686 10.5909 4.89409 10.0421 4.70971C9.86585 5.24227 9.68769 5.82081 9.55359 6.39744ZM2.49042 18.5828H2.57662L2.53448 18.7591C2.1338 19.5692 1.77759 20.4006 1.46743 21.2495L1.37931 21.4717L1.29119 21.2495C0.676294 19.9283 0.271051 18.5193 0.0900442 17.0733L0.0459831 16.8051L0.268204 16.9832C0.979534 17.5561 1.72136 18.0901 2.49042 18.5828ZM4.48849 4.35484C3.59512 5.24507 2.81877 6.24545 2.17816 7.33184C2.9273 7.11128 3.72173 6.93601 4.51463 6.76108L4.51464 6.76108L4.53255 6.75713C4.48849 5.95445 4.48849 5.1556 4.48849 4.35484ZM4.93292 14.6201V14.8863L4.80648 14.6622C4.46939 14.2917 4.15875 13.8694 3.85366 13.4546L3.85356 13.4545C3.75643 13.3225 3.65987 13.1912 3.56319 13.0626L3.42909 12.9726L3.51913 12.9285C4.07084 12.5441 4.62254 12.2022 5.17425 11.8602L5.17427 11.8602L5.1743 11.8601L5.24326 11.8174L5.46548 11.6852L5.37736 11.9534C5.11456 12.8193 4.96517 13.7157 4.93292 14.6201ZM5.06514 16.4429L5.02108 16.1766L4.8889 16.3988C4.48852 16.9735 4.08814 17.598 3.73948 18.2206L3.6935 18.3088L3.78354 18.3528C4.38707 18.6993 5.03407 19.0023 5.68228 19.3059L5.68233 19.3059L5.73755 19.3318L5.95978 19.4199L5.87165 19.1977C5.4696 18.3238 5.19787 17.3956 5.06514 16.4429ZM2.22221 12.7905L2.13217 12.8346C1.40637 13.3765 0.750089 14.0057 0.17816 14.7081L0 14.8863V14.62C0.0336323 13.1858 0.272982 11.7639 0.710724 10.3978L0.800762 10.1315L0.888885 10.3537C1.27464 11.1594 1.70507 11.9428 2.17815 12.7005L2.22221 12.7905Z" fill="#43B049"></path>
</svg>
