<svg xmlns="http://www.w3.org/2000/svg" width="1em" height="1em" viewBox="0 0 32 32">
    <g fill="none">
        <path fill="url(#unjsJiti0)"
              d="m7.365 14.965l-.655-1.422l-1.602-6.23l-.408-.97l.588-1.446s.832.118 1.467.835c.773.875 2.033 3.493 2.033 3.493L8.523 7.16L9.96 3.432s.63-.067.797.105c.298.305.806 2.445.986 3.123c.18.677.43 1.602.745 2.007s.7.498.7.498l1.127-4.355l.27-3.95s.395-.003.947.112c.418.088.698.23.833.398c.135.167.14 2.83.14 2.83s2.383-2.03 2.46-2.008c.165.045.677.158.948.453c.27.292.044 1.377-.158 2.1c-.203.722-.902 3.07-.902 3.07l.632-.24l.14.135l1.177-1.808s.425-.002.77.168c.376.185.6.64.6.64l3.026-4.378s.23.205.432.408c.203.202.345.345.355.55c.01.202-.72 1.55-1.058 2.227c-.337.678-.902 2.033-.902 2.033l2.46-1.878s.815.115.84.385c.023.27-.41.77-.84 1.515s-1.15 2.19-1.4 2.686c-.25.495.09.52.09.52l2.947-1.863s.636.13.695.425c.068.337-.662 1.01-1.137 1.55c-.475.542-1.49 1.85-2.008 2.867a68 68 0 0 1-.864 1.653l-4.488 4.453l-11.94-.723z"/>
        <path fill="#fbde93"
              d="M22.293 10.05c-.3.07-1.248 1.71-2.133 4.205c-.532 1.5-.885 3.14-.865 3.925s1.205.545 1.205.545l.503-1.63s.562-1.912 1.227-3.34c.777-1.675 1.785-2.74 1.71-2.998c-.1-.344-1.225-.807-1.648-.707m2.977-4.265c-.42.245-1.367 1.83-1.65 2.435s-.293 1.742.017 1.89c.383.18.808-1.105 1.453-2.173c.645-1.067 1.407-2.275 1.407-2.275s-.744-.16-1.227.123m1.59 3.14c-.642.272-1.84 1.55-2.255 2.192a17.6 17.6 0 0 0-1.53 3.058c-.2.542-.363 1.287.262.945s1.428-1.952 2.456-3.4c1.19-1.68 2.335-2.818 2.335-2.818s-.745-.2-1.268.023M24.163 1.76c-.248-.03-.925 1.77-1.308 2.635s-.893 2.01-.893 2.01s-.294 2.277.128 2.317s1.25-2.737 1.867-4.01c.603-1.24 1.238-2.387 1.238-2.387s-.55-.505-1.032-.565m-4.45 4.51c-.223.235-.098 1.445-.098 1.445s.865.645 1.027.502c.163-.142.17-2.327.17-2.327s-.737-.003-1.1.38m-1.788 1.647c-.312.263-.1 1.493-.18 2.595c-.12 1.65-.603 5.03-.745 6.018s-.282 2.072-.282 2.072l1.55-.242s.602-4.607.845-6.38c.242-1.773.602-4.285.362-4.428c-.242-.137-1.168.043-1.55.365m-.187-5.877c-.395.075-1.23 2.16-1.23 2.16s-.05 1.505-.05 2.23s-.14 1.59.1 1.59s.704-1.388 1.187-2.595c.482-1.208 1.223-3.233 1.223-3.233s-.67-.257-1.23-.152m-4.543-.763c-.273.288.16 1.028.2 3.058c.04 2.032-.21 4.827-.21 4.827s.215-.015.35.403c.115.352.303 2.495.543 2.415c.242-.08.542-1.51.785-3.925c.242-2.415.14-4.285.06-5.05s-.34-2.15-.34-2.15s-.985 0-1.388.422M9.96 3.432s-1.162.083-1.482.708c-.323.625-.22.927-.16 1.53c.06.602.25 1.805.25 1.805s1.067 1.327 1.65 1.005c.582-.32-.258-5.048-.258-5.048M5.288 4.897s-.645-.12-1.028-.04c-.382.08-.362.443-.18.685c.18.243 1.013 1.748 1.013 1.748s.247.005.57.125s.875.42.852-.063c-.04-.842-1.227-2.455-1.227-2.455M7.105 14.4s-1.215-2.457-2.12-3.808s-1.852-2.395-1.852-2.615c0-.222.625-.442.985-.542s.987-.123.987-.123s1.488 2.515 2.093 3.885s1.167 2.966 1.027 3.16c-.127.176-1.03.058-1.12.043m.818-4.39c-.095.353.362 1.953.645 3.1a78 78 0 0 0 .625 2.355l.965 1.973l1.067-.383s-.562-1.088-.885-2.213c-.322-1.13-.74-4.635-1.17-5.092c-.3-.323-1.185.04-1.247.26m3.342-.403c-.253.165.14 2.838.342 3.946c.203 1.107.626 2.274.846 2.817c.222.543.865 1.912.865 1.912s.665.785.684.706s.303-1.068.303-1.068s-.887-2.618-1.03-3.745c-.14-1.128-.363-4.548-.582-4.668c-.22-.12-1.025-.16-1.428.1m4.487.06c-.302.28-.602 3.986-.725 5.353c-.122 1.367-.222 3.38-.222 3.38l1.348-.1s.502-4.97.582-5.615s.442-2.113.262-2.698c-.18-.58-.985-.56-1.245-.32"/>
        <path fill="#fd703f"
              d="M6.705 14.858c-.085.192 2.543 14.57 2.585 14.784c.043.216-.042.41.365.603c.41.192 1.05.295 1.46.34c.41.043 3.233.047 3.255-.295c.023-.345 8.46-12.635 8.46-12.635s1.555-2.608 1.448-2.823c-.108-.215-.528-.115-.985.198c-.458.315-.88 1.092-2.165 1.955c-1.393.935-3.238 1.133-5.093 1.11c-1.71-.022-3.742-.332-5.197-1.41c-1.28-.95-1.658-1.635-2.798-1.937c-1.005-.268-1.335.11-1.335.11"/>
        <path fill="#ff2a23"
              d="m8.693 15.798l2.385 14.792s2.842.41 5.057.453c2.217.042 4.86-.42 4.86-.42l1.92-6.49l1.63-8.563s-.403-.402-.855-.07c-.348.255-1.42 1.915-3.315 2.648c-2.137.825-5.99.884-8.395-.13c-2.205-.928-2.878-2.136-3.287-2.22"/>
        <path fill="#dc0d25"
              d="M22.378 30.168c-.486.29-1.616.485-1.616.485s1.12-5.445 1.743-8.288s1.52-7.65 1.52-7.65s.36-.057.73-.012c.42.052.67.175.755.307c.137.215-.69 4.23-1.5 8.15c-.74 3.6-1.375 6.855-1.633 7.008"/>
        <defs>
            <radialGradient id="unjsJiti0" cx="0" cy="0" r="1" gradientTransform="translate(16.147 -1.968)scale(20.782)"
                            gradientUnits="userSpaceOnUse">
                <stop offset=".447" stop-color="#fcc216"/>
                <stop offset=".59" stop-color="#fabb16"/>
                <stop offset=".794" stop-color="#f3a814"/>
                <stop offset=".921" stop-color="#ed9913"/>
            </radialGradient>
        </defs>
    </g>
</svg>