<svg xmlns="http://www.w3.org/2000/svg" width="70" height="70" fill="none" viewBox="0 0 70 70"><defs><linearGradient id="aqua_svg__a" x1="25.657" x2="16.44" y1="58.53" y2="25.272" gradientUnits="userSpaceOnUse"><stop stop-color="#087CFA"/><stop offset="1" stop-color="#6B57FF"/></linearGradient><linearGradient id="aqua_svg__b" x1="13.002" x2="47.315" y1="63.483" y2="14.124" gradientUnits="userSpaceOnUse"><stop stop-color="#087CFA"/><stop offset=".387" stop-color="#097FF6"/><stop offset=".96" stop-color="#3BEA62"/></linearGradient></defs><path fill="url(#aqua_svg__a)" d="M33.084 25.14 3.479 17.906 0 26.136l10.672 34.135L39.026 70l-5.942-44.86Z"/><path fill="url(#aqua_svg__b)" d="M70 20.024 62.885 6.092 26.58 0 10.672 60.27 39.026 70l1.52-2.493L70 20.024Z"/><path fill="#000" d="M56 14H14v42h42V14Z"/><path fill="#fff" d="M34.416 48.65h-15.75v2.683h15.75v-2.684ZM42.306 19.256h3.169l6.694 15.73h-3.593l-1.428-3.502h-6.604l-1.428 3.503h-3.504l6.694-15.731Zm3.615 9.193-2.075-5.065-2.075 5.065h4.15ZM32.884 35.456l-1.718-1.54c-1.317.849-2.9 1.34-4.641 1.34-4.82 0-8.278-3.593-8.278-8.033v-.045c0-4.44 3.503-8.077 8.322-8.077 4.82 0 8.278 3.592 8.278 8.032v.045c0 1.651-.513 3.19-1.383 4.485l1.607 1.361-2.187 2.432Zm-4.262-3.793-2.544-2.164 2.187-2.455 2.566 2.32a5.472 5.472 0 0 0 .424-2.141v-.045c0-2.678-1.963-4.909-4.73-4.909-2.767 0-4.686 2.187-4.686 4.864v.045c0 2.678 1.964 4.909 4.73 4.909.759 0 1.45-.134 2.053-.424Z"/></svg>