<svg xmlns="http://www.w3.org/2000/svg" xmlns:svg="http://www.w3.org/2000/svg" version="1.1" id="Layer_1" x="0px" y="0px" xml:space="preserve" viewBox="0 0 179.84 172.13"><defs id="defs12"/>
<style type="text/css" id="style1">
	.st0{fill:#6D28D9;}
</style>
<g id="g12" transform="translate(-457.5,-292.86667)">
	<path class="st0" d="m 559.7,387 c 0,-2.5 0,-2.5 -2.5,-2.7 -4.3,-0.4 -8.7,-1 -13,-1.3 -2.6,-0.2 -5.2,-1 -7.7,0.2 -3.3,1.6 -6.6,3.2 -9.9,4.7 -0.6,0.3 -1.1,0.7 -1.1,1.4 0,1.5 0,2.9 0.1,4.4 0,0.8 0.3,1.5 1.4,1.6 0.8,0.1 1.2,0.5 1.2,1.4 v 18.4 c 9.6,-3.4 19.4,-6.3 29.1,-9.4 2,-0.7 2.5,-1.2 2.5,-3.3 0,-5.2 0,-10.3 -0.1,-15.4 z m -24,11.6 c -0.1,1.1 -1.2,1.1 -1.9,1.1 -0.9,0 -0.5,-0.9 -0.5,-1.4 -0.1,-0.5 0,-1 0,-1.4 0,0 0,0 0,0 0,-0.6 0,-1.2 0,-1.7 0,-1 1.1,-1.9 2,-1.8 0.4,0 0.3,0.3 0.3,0.5 0.4,1.6 0.3,3.2 0.1,4.7 z m 13.5,-0.1 c -1,0.4 -2.2,0.1 -3.3,-0.1 -0.3,-0.1 -0.6,-0.2 -0.6,-0.5 -0.2,-1.4 -0.2,-2.8 0,-4.2 0,-0.3 0.3,-0.4 0.5,-0.5 0.1,0 0.3,0 0.4,0 2.8,-0.2 3.3,0.1 3.3,3.1 -0.2,0.7 0.4,1.9 -0.3,2.2 z m 4.5,0.6 c -0.2,-0.1 -0.5,-0.3 -0.5,-0.5 -0.2,-1.4 -0.2,-2.8 0,-4.2 0.1,-0.4 0.4,-0.7 0.9,-0.6 0.9,0.1 1.7,0.2 2.6,0.3 0.4,0.1 0.6,0.5 0.6,0.9 0,0.6 0,1.2 0,1.7 0,2.7 -1.1,3.5 -3.6,2.4 z" id="path1"/>
	<path class="st0" d="m 522.4,422.9 c 0,-1.8 1,-2.4 2.4,-2.9 5.2,-1.8 10.4,-3.7 15.7,-5.4 6.2,-2 12.4,-3.9 18.6,-5.9 2.7,-0.9 4.4,-2.7 5,-5.5 0.3,-1.7 1.4,-2.8 3.1,-3.4 13.3,-4.5 26.7,-8.4 40.6,-10.4 6.6,-1 13.2,-0.9 19.8,-0.5 2.5,0.2 4.9,0.4 7.3,1 2.7,0.7 2.8,0.9 2,3.5 -1.8,6.2 -4.6,11.9 -7.9,17.4 -3.3,5.4 -7,10.5 -9.9,16.1 -1.4,2.6 -2.6,5.3 -3.4,8.2 -0.2,0.7 -0.3,1.2 -1.1,0.6 -3.1,-2.3 -6.7,-2.9 -10.4,-3.2 -10.5,-0.8 -20.6,1.5 -30.7,4.4 -8,2.3 -15.9,5.1 -24.2,6.4 -5.8,0.9 -11.6,1.2 -17.4,-0.1 -1.1,-0.3 -1.9,-0.8 -2.5,-1.8 -3.2,-5.6 -5.7,-11.4 -6.8,-17.7 -0.1,-0.2 -0.2,-0.6 -0.2,-0.8 z" id="path2"/>
	<path class="st0" d="m 614.2,449.5 c -0.4,2.2 -0.9,4.4 -1.4,6.5 -0.1,0.3 -0.1,0.7 -0.1,1 -2.1,2.9 -5.7,5 -10,6 h -6.9 c -2.7,0 -5.3,-0.5 -7.8,-1.3 0,0 -0.1,0 -0.1,0 -2,-0.7 -4,-1.1 -6.1,-1.2 -5.3,-0.3 -10.5,0.8 -15.8,1.6 -5.3,0.8 -10.7,1.5 -16.1,1.3 -8.4,-0.3 -16.5,-2 -23.8,-6.3 -5,-3 -8.7,-7.2 -11.1,-12.5 -0.2,-0.5 -0.4,-1 -0.6,-1.5 0,-0.1 0,-0.3 0,-0.4 0.2,-0.2 0.4,-0.1 0.6,0.1 5.3,4.4 11.6,6.3 18.3,7.2 13.1,1.7 25.4,-1.5 37.5,-6 6.2,-2.3 12.4,-4.6 18.9,-5.7 5.4,-1 10.8,-1.3 16.2,-0.2 1.9,0.4 3.7,1 5.2,2.2 0.8,0.6 1.4,1.2 1.9,1.8 1.6,2 1.7,4.6 1.2,7.4 z" id="path3"/>
	<path class="st0" d="m 562.6,387.7 c 0,-2.6 0,-5.2 0,-7.9 0,-1.1 0.3,-1.8 1.5,-2 3.6,-0.8 7.2,-1.6 10.8,-2.5 1.1,-0.3 1.5,0.1 1.5,1.2 0,5 0,10 0,15 0,0.9 -0.3,1.4 -1.2,1.7 -3.7,1.2 -7.4,2.4 -11.1,3.7 -1.2,0.4 -1.6,0.1 -1.6,-1.2 0.1,-2.6 0.1,-5.3 0.1,-8 z" id="path4"/>
	<path class="st0" d="m 578.6,365 c 0,-1.8 0,-3.6 0,-5.4 0,-1.2 0.3,-1.8 1.7,-1.6 4.1,0.5 8.1,1.1 12.1,1.8 0.9,0.1 1.2,0.6 1.2,1.5 0,3.8 0,7.7 0,11.5 0,1.1 -0.5,1.4 -1.6,1.3 -3.9,-0.6 -7.8,-1.1 -11.7,-1.6 -1.3,-0.2 -1.8,-0.7 -1.8,-2.1 0.2,-1.8 0.1,-3.6 0.1,-5.4 z" id="path5"/>
	<path class="st0" d="m 578.6,383.6 c 0,-2.3 0,-4.7 0,-7 0,-0.9 0.4,-1.4 1.3,-1.3 4.2,0.5 8.5,1.1 12.7,1.6 0.9,0.1 1.2,0.5 1.2,1.4 0,2.9 0,5.8 0,8.7 0,0.8 -0.3,1.2 -1.1,1.4 -4.1,1.1 -8.3,2.2 -12.4,3.2 -1.5,0.4 -1.7,0.3 -1.7,-1.3 0,-2.1 0,-4.4 0,-6.7 z" id="path6"/>
	<path class="st0" d="m 562.6,368.5 c 0,-1.9 0,-3.8 0,-5.7 0,-0.9 0.3,-1.3 1.2,-1.6 3.5,-0.9 7,-1.9 10.5,-2.8 1.7,-0.4 1.8,-0.3 1.8,1.5 0,3.5 -0.1,7 0.2,10.5 0.1,1.3 -0.3,1.9 -1.7,2.2 -3.5,0.8 -6.9,1.7 -10.3,2.5 -1.6,0.4 -1.8,0.3 -1.8,-1.4 0.1,-1.7 0.1,-3.5 0.1,-5.2 z" id="path7"/>
	<path class="st0" d="m 596.1,367.7 c 0,-1.9 0,-3.9 0,-5.8 0,-0.9 0.3,-1.3 1.3,-1.2 3.6,0.5 7.1,1.2 10.6,2 0.7,0.2 1.1,0.6 1,1.3 -0.1,3.7 -0.2,7.5 -0.3,11.2 0,0.8 -0.5,1.1 -1.2,1 -3.5,-0.5 -7,-0.9 -10.5,-1.4 -0.9,-0.1 -0.9,-0.8 -0.9,-1.4 0,-1.9 0,-3.8 0,-5.7 z" id="path8"/>
	<path class="st0" d="m 552.4,374.6 c 0,1.7 0,3.4 0,5.1 0,0.9 -0.3,1.4 -1.3,1.3 -2.5,-0.2 -5,-0.4 -7.5,-0.6 -0.6,0 -0.8,-0.4 -0.9,-1 -0.4,-3.3 -0.2,-6.7 -0.2,-10 0,-0.9 0.6,-1.3 1.3,-1.5 2.5,-0.7 5.1,-0.6 7.6,0 0.8,0.2 0.9,0.9 0.9,1.6 0.1,1.7 0.1,3.4 0.1,5.1 z" id="path9"/>
	<path class="st0" d="m 596.4,382.7 c 0,-1.2 0,-2.4 0,-3.6 0,-1 0.4,-1.6 1.5,-1.4 3.4,0.5 6.8,1 10.2,1.4 0.7,0.1 0.9,0.4 1,1.1 0,0.1 0,0.2 0,0.3 0.3,4.8 0.3,4.7 -4.4,5.6 -2.3,0.4 -4.6,0.9 -6.8,1.4 -1.1,0.2 -1.4,-0.1 -1.4,-1.1 -0.1,-1.3 -0.1,-2.5 -0.1,-3.7 z" id="path10"/>
	<path class="st0" d="m 614.4,452.9 c -0.2,1.5 -0.9,2.9 -1.8,4.1 -2.1,2.9 -5.7,5 -10,6 -4.4,1 -9.6,0.8 -14.6,-1.3 0,0 0,0 -0.1,0 -12.3,-5 -20.3,-5 -21.5,-5 -1.2,0 15.5,-6.4 15.5,-6.4 l 7.7,-1.2 23.4,-7.2 c 0,0 0,0 0,0 0.2,0.2 2.8,2.6 1.4,11 z" id="path11"/>
	<path class="st0" d="m 580.2,346.3 c 0.7,0 1.2,-0.7 0.9,-1.3 -2,-5.3 -4.2,-10.5 -6.3,-15.8 -4.7,-11.5 -9.4,-23.1 -14,-34.7 -0.6,-1.4 -1.3,-1.9 -3.5,-1.5 -8.7,1.3 -17.6,0.7 -26.4,-0.1 -1.5,-0.1 -2.2,0.3 -2.7,1.4 -1.3,3.3 -2.7,6.6 -4.1,10 -5.7,14.2 -11.3,28.3 -17,42.5 -5.9,14.7 -11.9,29.3 -17.8,44 -6.2,15.4 -12,30.9 -18.5,46.1 -2.4,5.7 -8.7,19.2 -11.4,24.8 -0.6,1.2 -1.2,2.3 -1.9,3.3 h 31.8 c 0.1,-0.5 0.2,-0.9 0.4,-1.4 1.6,-4.6 4.6,-11.8 7.5,-18.5 v 0 L 513,405.8 c 0,-0.3 0.1,-0.7 0.3,-1.2 0.1,-0.3 0.2,-0.6 0.4,-1 2.4,-6 4.7,-11.9 7.1,-17.9 6.6,-16.8 13.1,-33.6 19.7,-50.3 1.1,-2.7 2.2,-5.4 3.3,-8.2 0.6,0.5 0.7,1.1 0.9,1.5 2.2,5.6 4.4,11.3 6.5,16.9 0.1,0.4 0.5,0.6 0.9,0.6 h 28.1 z" id="path12"/>
	<polygon class="st0" points="558.5,297.2 558.5,298.5 549.5,303.6 542.7,305.8 539.2,307.2 531,292.9 557.3,292.9 " id="polygon12"/>
</g>
</svg>