<svg height="256" preserveAspectRatio="xMidYMid" viewBox="0 0 256 256" width="256" xmlns="http://www.w3.org/2000/svg"><path d="m127.975926 0c-11.396494 27.9359185-18.270307 46.2092913-30.9588111 73.31478 7.7796421 8.2448675 17.3287851 17.8464276 32.8365621 28.690485-16.672381-6.8592918-28.044985-13.7458585-36.5439159-20.8920645-16.2388643 33.8785155-41.6804954 82.1369535-93.3097611 174.8867995 40.5788694-23.422481 72.0348875-37.862691 101.350386-43.372697-1.25882-5.413143-1.9745082-11.268513-1.9258985-17.377961l.0481474-1.299737c.6438921-25.992917 14.1679311-45.981474 30.1884521-44.624295 16.020529 1.35718 28.473109 23.541479 27.829227 49.534412-.1211 4.891046-.672893 9.596178-1.637013 13.960135 28.997215 5.671304 60.116877 20.074544 100.146699 43.180143-7.893101-14.529016-14.938375-27.625864-21.666353-40.099285-10.597663-8.21235-21.651547-18.900753-44.199361-30.471606 15.498072 4.026295 26.594495 8.671566 35.243935 13.863858-68.405249-127.3346716-73.94461-144.2548209-97.402295-199.292967z" fill="#1793d1"/></svg>