<svg xmlns="http://www.w3.org/2000/svg" width="2500" height="2500" viewBox="0 0 192.756 192.756"><g fill-rule="evenodd" clip-rule="evenodd"><path fill="#fff" d="M0 0h192.756v192.756H0V0z"/><path d="M96.383 152.801c-47.792 0-86.788-25.329-86.788-56.412 0-31.082 38.996-56.433 86.788-56.433s86.788 25.351 86.788 56.433c0 31.083-38.996 56.412-86.788 56.412zm-4.365-2.051c-7.121-.353-13.976-1.103-20.986-2.425-7.738-1.653-15.035-3.88-22.353-6.988-6.459-2.976-12.389-6.326-18.077-10.691-3.285-2.689-6.216-5.467-9.038-8.729-2.469-3.02-4.519-6.15-6.349-9.677-1.94-4.41-3.042-8.377-3.615-13.161l-.088-2.732c.132-3.792.683-7.099 1.697-10.715 1.234-3.637 2.799-6.833 4.827-10.074 2.933-4.321 6.261-7.958 10.074-11.396 4.453-3.704 9.017-6.724 13.998-9.546a119.78 119.78 0 0 1 13.58-5.973c7.693-2.536 15.475-4.41 23.521-5.578 5.71-.639 11.441-1.058 17.173-1.125 8.575.132 16.952.904 25.395 2.513a126.731 126.731 0 0 1 22.354 6.944 132.45 132.45 0 0 1 9.633 4.96c6.613 4.079 12.323 8.531 17.481 14.461a68.827 68.827 0 0 1 5.048 7.187c2.712 5.048 4.232 9.854 4.894 15.607.111 2.734 0 5.445-.309 8.179-.528 2.733-1.278 5.246-2.182 7.892-1.984 4.563-4.343 8.399-7.451 12.234-5.137 5.931-10.824 10.472-17.481 14.483-5.378 3.086-10.846 5.6-16.644 7.738-7.781 2.557-15.475 4.408-23.521 5.576-5.754.64-11.419 1.036-17.217 1.124l-4.364-.088zm-55.662-20.567c-4.497-3.24-8.906-6.877-12.433-11.264-1.234-1.521-2.425-3.33-3.505-4.982-2.711-4.475-4.387-9.281-5.07-14.506-.242-2.072-.198-4.541.11-6.613.375-2.469.816-4.982 1.698-7.319 1.212-2.91 2.601-5.886 4.387-8.487 2.491-3.571 5.666-7.01 8.884-9.898 4.894-3.924 10.118-7.562 15.74-10.295 5.952-3.086 12.697-5.423 19.134-7.032 10.097-2.91 20.612-3.77 31.083-4.034 5.335.155 10.912.375 16.269 1.125 7.274.75 14.483 2.601 21.471 4.828 6.041 1.764 12.301 4.806 17.812 7.958 9.082 5.688 17.635 12.764 22.44 22.794 1.653 3.858 3.197 8.509 3.197 12.808.088 1.874-.177 4.034-.31 5.908a186.194 186.194 0 0 1-.991 4.034c-1.741 6.282-5.688 12.124-10.053 16.688-9.347 9.722-21.691 15.938-34.257 19.884-5.004 1.322-10.052 2.821-15.188 3.571-3.615.683-7.341.97-10.956 1.234-8.223.661-16.489.44-24.646-.552-3.593-.264-7.362-1.102-10.89-1.741-9.149-2.138-18.12-5.048-26.409-9.567-2.579-1.345-5.048-2.999-7.517-4.542zm119.987-45.058h10.493v29.165l-10.493-.022V85.125zm-31.324-.86c4.408-1.234 9.611-.617 10.978-.132l-8.663-10.383h13.072l10.604 15.409c1.146 1.807 2.358 5.291 2.667 7.165.154.684.088 2.976.088 3.615 0 7.494-4.85 15.078-19.619 15.078s-21.097-7.914-21.097-15.563c-.001-6.151 4.408-12.875 11.97-15.189zm8.817 22.551c5.445 0 9.897-3.351 9.897-7.407s-4.452-7.473-9.897-7.473c-5.468 0-9.832 3.417-9.832 7.473 0 4.057 4.364 7.407 9.832 7.407zm-45.037-4.542c2.138 5.82 9.766 5.82 11.926 0v-18.56h10.272v18.561c0 16.887-32.471 16.887-32.471 0V83.714h10.272v18.56h.001zm-8.619 11.993H67.108l-3.02-6.15H42.484l-3.263 6.15h-13.27l21.272-36.902-3.438-3.792h13.8l22.595 40.694zM53.308 86.822L46.827 99.63h12.962l-6.481-12.808z" fill="#cc2229"/></g></svg>