<svg height="1406" viewBox="112.2 227.5 1689.9 616" width="2500" xmlns="http://www.w3.org/2000/svg"><path d="m383 250.6c-56.2 6-108.2 27.4-152 62.4-13 10.4-34 31.3-44.2 44.1-28.1 35.2-47.6 75.5-57.2 118.2-17.4 77.5-2.9 158.1 40.1 223.7 47.8 72.8 124.3 119.8 211.8 130.1 15.5 1.9 50.9 1.6 66.8-.5 49.9-6.5 94.9-24.2 135-53 5.4-3.9 10.4-7.5 11.1-8 1-.7 2.7.1 5.7 2.6 8 6.5 23.3 16.5 34.9 23 90.5 50.3 198.7 50 287.2-1 10.9-6.2 24.1-15 31.3-20.7 2.2-1.7 4.6-3.5 5.2-3.9.8-.4 5.9 2.6 13 7.7 14.1 10.1 21.7 14.8 36.6 22.7 30.2 15.9 67.6 27.3 102.7 31.2 16.1 1.7 50.5 1.5 66.3-.6 50.4-6.5 94.8-24 135-53 5.4-3.9 10.4-7.5 11.1-8 .9-.6 3.2.5 7.3 3.6 18.6 14.4 46.7 30.2 69.3 39.1 35.7 14 67.8 20 107 20 24.4 0 39.1-1.4 60.2-5.9 100.7-21.2 183.5-95.4 215.7-193.3 16.7-50.4 19.2-103.3 7.5-155.9-8.9-40-28.7-81.4-55.6-116-10.5-13.4-32.1-35.3-45.8-46.2-99.6-79.6-237.8-85.5-344-14.7-5.8 3.8-12.6 8.8-15.2 10.9-3 2.5-5.2 3.7-6 3.2-.7-.4-4-2.9-7.4-5.5-16.5-13-49.9-31.4-70.4-38.9-33.6-12.3-60.5-17.6-96-18.7-64.9-1.9-128.5 17.9-180.1 56.3l-9.9 7.4-9.4-6.9c-52.4-39-115.5-58.8-180.6-56.8-36.7 1.2-66 7.1-101.3 20.7-18 6.9-46.3 22.8-64.8 36.6l-8.7 6.4-9.8-7.3c-42.3-31.5-93.3-50.7-147.9-55.7-14.7-1.3-39.2-1.1-54.5.6zm58.7 60.9c35.5 4.7 69 17.1 98 36.4l12.2 8.1-8.8 12.1c-29.4 40.3-47.8 86.8-54.3 136.9-2 15.6-1.7 57.2.5 73 4.7 33.4 14.2 63.9 29.2 93.5 7.1 14.1 20.2 35 28.8 45.9l4.6 5.9-2.2 1.7c-7.4 5.8-23.2 15.2-36.2 21.6-22.3 10.8-45.7 18-71 21.6-11.6 1.7-47.4 1.7-59 0-67.4-9.6-126.3-46.6-162.8-102.2-7.8-11.9-19.1-34.3-23.8-47-4.2-11.6-9.4-32.1-11.5-46-2.8-17.7-2.5-52 .5-70 16.1-94.9 87.5-169.3 180.6-188.5 22.5-4.6 53.1-5.8 75.2-3zm376.8 1.9c21.8 4.2 37.3 9.1 57.1 18.1 9.4 4.3 31.6 17.5 36.9 21.9l3.8 3.2-6 8c-38.1 50-58.4 110.9-58.4 174.9-.1 42.7 7.9 80.7 25 119.3 7.9 17.9 23.2 43.5 34.8 58.4 2.5 3.1 4.2 6.1 3.9 6.6-.8 1.4-15.9 11.2-25.9 17-22.5 12.9-50.3 22.3-79 26.9-17 2.7-51.8 2.4-69.2-.5-26.7-4.5-51.3-13-74-25.5-10.5-5.7-28.7-17.7-28.3-18.6.2-.3 3.5-4.9 7.4-10.1 61.6-82.2 74.3-192 33.5-288.5-8.2-19.3-23.6-45.5-36.4-61.9-2.6-3.2-4.4-6.3-4.1-6.7 1.3-2.2 22.9-15.5 34.3-21.3 21.9-11 42.2-17.7 65.3-21.5 18-3 17.3-2.9 42.3-2.6 20 .2 24.8.6 37 2.9zm352.2-1.9c26.4 3.5 49.4 10.4 72.8 21.9 13.2 6.5 35.4 20 36.9 22.5.3.4-1.5 3.5-4.1 6.7-2.5 3.2-8.3 11.5-12.8 18.4-51.4 77.9-61.6 178.7-27 266 8.6 21.6 23.1 47.5 36.9 66 3.9 5.2 7.2 9.8 7.4 10.1.4.9-17.8 12.9-28.3 18.6-22.7 12.5-47.3 21-74 25.5-17.3 2.9-52.2 3.2-69 .5-23.1-3.7-42.1-9.3-62.7-18.7-11.9-5.4-33.8-18.1-40.3-23.3l-3-2.5 5.7-7.3c29.5-38.8 48.9-85.2 56.3-134.4 3.4-22.7 3.5-58.5.1-82.5-6.7-47.7-26.2-95.1-55-133.2l-6.9-9.2 3.9-3.3c5.3-4.4 27.2-17.4 36.8-21.8 23.6-10.7 47.9-17.6 72.4-20.5 12-1.4 41.4-1.1 53.9.5zm374.3 1.4c33.3 6.1 62.8 17.7 88.5 34.9 55.8 37.4 90.7 92.3 101.2 159.2 2.7 17.4 2.4 51.1-.5 68.5-14.2 82.9-66.7 148-144.2 178.9-26.1 10.3-51.7 15-82.5 15.1-22.3 0-31.6-1-50.5-5.2-30.8-6.8-64-21.9-86.7-39.3l-2.1-1.7 7.1-9.6c29.2-39 48.5-86.1 55.2-134.7 2.6-18.6 3-48.7 1.1-68-5.8-56.3-25.7-105.6-61.5-152.1l-2-2.5 4.7-3.5c28-20.8 66.4-36 104.7-41.4 15.2-2.1 52.5-1.4 67.5 1.4zm-939.9 100.4c8.2 12.4 18.5 32.5 23.3 45.2 10.7 28.8 15.3 57.5 14.3 89-1.1 34.7-9.4 67.1-24.8 97-8.3 16.1-21.4 35.9-23.1 34.9-.5-.3-4.5-6-8.9-12.7-19.9-30-32.8-65.6-37-102.6-1.7-15.2-.7-48.5 2-63.1 4-22.4 11.2-44.2 20.8-63.4 9.1-18.2 22.3-38.3 24.4-37.1.5.4 4.6 6.1 9 12.8zm363.7-1.3c20.2 30.3 32.1 62.2 37.3 100 1.9 14 1.7 44.9-.5 59.5-3.8 25.1-11.2 49-22.1 70.8-5.9 11.9-22 37.7-23.5 37.7-.4 0-4.6-5.9-9.4-13.2-46.2-70.1-50.9-158.1-12.5-232.9 5.6-10.8 20.4-33.9 21.8-33.9.5 0 4.5 5.4 8.9 12zm365.3.9c17.2 26.1 29.3 56.5 35 88.1 2.6 14.7 3.7 48 2 63-4.2 37.1-17 72.7-37 102.7-4.4 6.7-8.5 12.4-8.9 12.7-.5.3-2.9-2.3-5.4-5.7-19.8-27.5-33.6-60.8-39.9-96.2-2-11.2-2.3-16.4-2.3-37.5-.1-21.2.2-26.2 2.2-37.3 6.6-36.7 19.5-67.9 39.8-96.3 3.9-5.5 4.8-6.3 6.1-5.2.8.6 4.6 5.9 8.4 11.7z"/></svg>