<svg xmlns="http://www.w3.org/2000/svg" width="2500" height="2500" viewBox="0 0 192.756 192.756"><g fill-rule="evenodd" clip-rule="evenodd"><path fill="#fff" d="M0 0h192.756v192.756H0V0z"/><path d="M127.066 149.775c10.094 0 18.346-5.457 18.346-12.156 0-6.41-8.342-14.973-12.6-20.207h-11.18l7.275 8.096c-.621-.021-1.221-.045-1.842-.045-10.115 0-18.344 3.859-18.344 12.156.002 6.699 8.23 12.156 18.345 12.156zM76.914 126.15h9.383v13.043c0 6.654 10.891 6.654 10.891 0V126.15h9.162v13.932c0 13.707-29.436 13.598-29.436 0V126.15zM147.586 126.15h10.07v23.536h-10.07V126.15z"/><path d="M44.793 118.232h12.356l21.739 31.454H67.53l-3.083-4.858H43.773l-2.95 4.858H29.954l18.101-27.483-3.262-3.971zM153.529 42.436c17.146.244 30.945 14.418 30.723 31.565-.244 17.147-14.418 30.921-31.564 30.7a31 31 0 0 1-18.479-6.41c-5.367 4.125-12.111 6.564-19.387 6.455a30.809 30.809 0 0 1-18.478-6.434c-5.368 4.148-12.111 6.588-19.387 6.477a31.011 31.011 0 0 1-18.434-6.365 30.993 30.993 0 0 1-19.298 6.41C22.08 104.59 8.282 90.438 8.504 73.292c.244-17.147 14.418-30.944 31.565-30.723a31.088 31.088 0 0 1 18.411 6.367c5.368-4.082 12.067-6.5 19.299-6.389a30.875 30.875 0 0 1 18.5 6.433 30.814 30.814 0 0 1 19.388-6.478 30.9 30.9 0 0 1 18.477 6.411 30.984 30.984 0 0 1 19.385-6.477z"/><path d="M134.564 54.104l-.244-3.926a29.906 29.906 0 0 1 17.723-6.61c.244.355 1.266 2.417 1.443 2.417 14.795.688 26.617 9.561 27.217 27.972.465 15.195-12.777 27.395-27.973 27.196a27.632 27.632 0 0 1-18.543-7.52c-5.346 4.813-11.824 7.674-19.32 7.563-7.166-.088-13.664-2.928-18.5-7.497-5.168 4.836-12.222 7.653-19.365 7.542-6.876-.088-13.509-2.795-18.478-7.431-.776.732-1.708 1.486-2.75 2.241a27.319 27.319 0 0 1-16.503 5.234c-11.269-.156-20.918-7.099-25.043-16.88a14.074 14.074 0 0 1-2.839-.533 30.336 30.336 0 0 1-1.774-10.559c.222-16.06 13.109-29.059 28.969-29.613.444.643.91 1.442 1.309 2.418h.133a27.603 27.603 0 0 1 18.921 7.918l-.222-3.881c4.88-3.86 10.98-6.256 17.59-6.478.244.355.887 1.198 1.419 2.418 6.943.089 14.019 3.149 18.943 7.853l-.222-3.705a29.721 29.721 0 0 1 17.724-6.61c.443.644.887 1.442 1.309 2.418h.133c6.986.09 13.953 3.283 18.943 8.053z" fill="#fff"/><path d="M40.002 47.671c-14.352-.177-26.197 11.357-26.396 25.687-.155 12.511 8.584 23.091 20.318 25.732.399-.512.843-1.066 1.287-1.621a24.85 24.85 0 0 0 4.104.4c5.457.066 10.492-1.664 14.817-4.88l3.616.066a27.956 27.956 0 0 1-5.812-8.695 13.85 13.85 0 0 1-2.817-.51 29.47 29.47 0 0 1-1.775-10.581 29.775 29.775 0 0 1 6.455-18.167c1.531-.044 3.083-.066 3.97-.066a26.001 26.001 0 0 0-17.767-7.365z"/><path d="M52.624 92.545a30.778 30.778 0 0 1-6.388-19.276c.089-6.943 2.462-13.309 6.388-18.455a22.853 22.853 0 0 0-12.666-4.037c-12.622-.156-23.069 10.004-23.247 22.625-.155 12.644 10.004 23.047 22.625 23.225 5.747.066 10.493-2.241 13.288-4.082z" fill="#fff"/><path d="M58.546 55.812a26.493 26.493 0 0 0-7.209 17.523c-.133 4.592 1.642 11.868 5.146 15.927.665.776 1.197 1.642 2.107 2.44l.088-3.306c3.35-3.992 5.08-9.139 5.146-14.352.022-2.729-.377-5.346-1.176-7.786.488-1.287 1.397-1.974 1.397-1.974-.84-3.015-3.28-6.188-5.499-8.472zM96.323 55.812a25.844 25.844 0 0 0-7.098 17.479c-.089 7.076 2.684 13.553 7.231 18.322l.089-3.083c2.795-4.503 4.903-8.851 4.969-14.529a23.944 23.944 0 0 0-1.176-7.786c.488-1.287 1.42-1.974 1.42-1.974-.733-2.573-3.35-6.344-5.435-8.429z"/><path d="M58.524 86.711a22.695 22.695 0 0 1-4.082-13.332 22.78 22.78 0 0 1 4.06-12.71c2.617 3.793 4.148 8.407 4.081 13.353a22.761 22.761 0 0 1-4.059 12.689z" fill="#fff"/><path d="M129.529 55.013l3.904.022c-4.859-4.57-11.002-7.342-17.834-7.431a25.896 25.896 0 0 0-18.234 7.143c4.924 5.125 7.676 12.134 7.564 19.298-.09 6.832-2.818 13.62-7.453 18.566a25.914 25.914 0 0 0 12.045 6.41c.398-.531.842-1.086 1.285-1.641 1.332.244 2.707.377 4.104.398 5.902.09 10.869-2.062 15.084-4.901l3.328-.089a28.28 28.28 0 0 1-5.656-8.518 13.846 13.846 0 0 1-2.816-.533 29.79 29.79 0 0 1-1.775-10.559c.087-6.852 2.505-13.152 6.454-18.165z"/><path d="M114.934 96.538c-4.748-.067-9.139-1.553-12.777-4.082 3.883-5.124 6.232-11.468 6.322-18.367.111-7.209-2.285-13.886-6.367-19.232a22.729 22.729 0 0 1 13.443-4.148 22.874 22.874 0 0 1 12.732 4.082c-3.883 5.124-6.232 11.468-6.322 18.367a31.012 31.012 0 0 0 6.367 19.254c-2.795 1.841-7.588 4.215-13.398 4.126z" fill="#fff"/><path d="M177.508 64.152s-.932.688-1.418 1.974a24.341 24.341 0 0 1 1.197 7.786c-.199 13.309-11.201 24.001-24.512 23.824a22.907 22.907 0 0 1-4.104-.422c-.443.576-.887 1.131-1.287 1.641-4.613-1.041-8.738-3.304-12.066-6.388 4.746-4.769 7.432-11.912 7.52-18.566.09-7.143-2.684-14.174-7.607-19.343 4.768-4.48 11.201-7.209 18.232-7.12 11.557 0 21.982 9.272 24.045 16.614z"/><path d="M139.645 64.197s-.91.688-1.42 1.974c.82 2.462 1.219 5.08 1.197 7.786-.088 5.989-1.619 10.026-4.945 14.574l-.045 3.172c-4.637-4.792-7.453-11.313-7.365-18.478.09-6.765 2.773-12.888 7.076-17.479 2.218 2.262 4.679 5.478 5.502 8.451z"/><path d="M153.42 50.643c12.621.178 22.779 10.626 22.625 23.247-.178 12.622-10.625 22.758-23.246 22.604a22.829 22.829 0 0 1-12.756-4.082c3.904-5.102 6.234-11.468 6.344-18.367.09-7.209-2.307-13.908-6.389-19.254a22.774 22.774 0 0 1 13.422-4.148zM134.188 86.534a22.798 22.798 0 0 1-4.016-13.265 22.916 22.916 0 0 1 3.971-12.577c2.596 3.771 4.104 8.34 4.037 13.243a22.797 22.797 0 0 1-3.992 12.599zM96.323 86.556a22.851 22.851 0 0 1-3.993-13.221 22.924 22.924 0 0 1 3.971-12.577 22.998 22.998 0 0 1 3.971 13.221 22.914 22.914 0 0 1-3.949 12.577z" fill="#fff"/><path d="M77.712 47.649c-7.009-.089-13.376 2.617-18.1 7.098 4.901 5.235 7.719 11.823 7.63 19.343-.089 6.943-2.884 13.664-7.63 18.633 3.305 3.105 7.608 5.345 12.044 6.343.399-.531.821-1.086 1.287-1.641a24.85 24.85 0 0 0 4.104.398c4.88.066 11.224-1.574 14.951-4.946l3.505-.022a27.894 27.894 0 0 1-5.679-8.54 13.933 13.933 0 0 1-2.817-.51 29.933 29.933 0 0 1-1.774-10.581c.088-6.854 2.506-13.154 6.477-18.167l3.727-.088c-4.948-4.569-10.782-7.231-17.725-7.32z"/><path d="M77.069 96.582c-4.703-.066-9.05-1.508-12.666-4.015a30.883 30.883 0 0 0 6.388-18.433 31.021 31.021 0 0 0-6.433-19.32 22.814 22.814 0 0 1 13.309-4.06 22.862 22.862 0 0 1 12.777 4.104c-3.882 5.124-6.233 11.468-6.322 18.367a31.042 31.042 0 0 0 6.344 19.209c-2.772 1.864-7.586 4.238-13.397 4.148zM127.066 143.652c4.814 0 8.74-2.816 8.74-6.277s-3.926-6.277-8.74-6.277c-4.812 0-8.762 2.816-8.762 6.277s3.95 6.277 8.762 6.277zM60.388 138.418l-6.5-10.293-6.233 10.293h12.733z" fill="#fff"/></g></svg>