<svg fill="#FD4B2D" fill-rule="evenodd" viewBox="0 0 250 250" xmlns="http://www.w3.org/2000/svg"><path d="M27.059 162.102h6.313v25.359H27.06v-2.68a12.41 12.41 0 0 1-3.707 2.551 10.333 10.333 0 0 1-4.031.781c-3.246 0-6.055-1.27-8.426-3.809s-3.559-5.699-3.559-9.477c0-3.914 1.148-7.125 3.441-9.625s5.078-3.754 8.359-3.754a10.603 10.603 0 0 1 4.25.863 11.62 11.62 0 0 1 3.672 2.586zm-6.637 5.223a6.34 6.34 0 0 0-4.859 2.086c-1.293 1.391-1.937 3.172-1.937 5.348s.66 3.977 1.98 5.406a6.35 6.35 0 0 0 4.852 2.121 6.483 6.483 0 0 0 4.934-2.086c1.297-1.387 1.945-3.211 1.945-5.465 0-2.203-.652-3.992-1.957-5.359s-2.957-2.055-4.957-2.051zm22.148-5.223h6.383v12.215c0 2.375.16 4.027.477 4.953a4.343 4.343 0 0 0 1.566 2.156 4.46 4.46 0 0 0 2.672.77 4.64 4.64 0 0 0 2.676-.758 4.47 4.47 0 0 0 1.637-2.227c.262-.73.391-2.293.391-4.684v-12.426h6.309v10.746c0 4.43-.348 7.457-1.039 9.09a9.876 9.876 0 0 1-3.75 4.586c-1.648 1.066-3.746 1.598-6.289 1.598-2.758 0-4.992-.621-6.703-1.863s-2.902-2.977-3.59-5.199c-.492-1.535-.738-4.332-.738-8.391zm32.047-9.348h6.313v9.348h3.742v5.477H80.93v19.883h-6.312v-19.883h-3.234v-5.477h3.238zm16.297-.441h6.266v12.352a14.3 14.3 0 0 1 3.723-2.41 9.46 9.46 0 0 1 3.793-.805 8.526 8.526 0 0 1 6.313 2.609c1.465 1.508 2.195 3.723 2.195 6.645v16.758h-6.223v-11.117c0-2.937-.141-4.93-.418-5.969s-.75-1.816-1.422-2.328a3.95 3.95 0 0 0-2.484-.77 4.66 4.66 0 0 0-3.293 1.281c-.922.855-1.559 2.02-1.914 3.496-.184.762-.277 2.5-.281 5.223v10.184h-6.254zm56.438 24.32h-20.277c.289 1.801 1.074 3.234 2.344 4.301s2.895 1.594 4.871 1.594a8.35 8.35 0 0 0 6.078-2.492l5.32 2.52a12.64 12.64 0 0 1-4.766 4.203c-1.852.91-4.047 1.367-6.59 1.363-3.945 0-7.16-1.254-9.641-3.762s-3.723-5.652-3.723-9.43c0-3.859 1.238-7.07 3.711-9.637s5.574-3.844 9.305-3.832c3.965 0 7.188 1.277 9.668 3.832s3.723 5.934 3.723 10.137zm-6.312-5.023a6.38 6.38 0 0 0-2.465-3.445 7.11 7.11 0 0 0-4.273-1.332 7.506 7.506 0 0 0-4.633 1.496c-.832.617-1.605 1.711-2.316 3.281zm14.265-9.508h6.309v2.602c1.438-1.219 2.734-2.066 3.891-2.539a9.34 9.34 0 0 1 3.566-.723 8.59 8.59 0 0 1 6.352 2.645c1.461 1.492 2.195 3.699 2.195 6.621v16.758h-6.246v-11.102c0-3.027-.133-5.039-.402-6.031a4.135 4.135 0 0 0-1.41-2.27 3.91 3.91 0 0 0-2.477-.781 4.618 4.618 0 0 0-3.289 1.293c-.914.859-1.547 2.051-1.902 3.57-.184.793-.277 2.508-.277 5.145v10.176h-6.309zm32.015-9.348h6.313v9.348h3.75v5.477h-3.75v19.883h-6.312v-19.883h-3.234v-5.477h3.234zm18.743-1.094a3.84 3.84 0 0 1 2.844 1.207 4.05 4.05 0 0 1 1.199 2.938 4.004 4.004 0 0 1-1.176 2.895 3.792 3.792 0 0 1-2.812 1.207 3.86 3.86 0 0 1-2.875-1.227 4.11 4.11 0 0 1-1.195-2.969c0-2.238 1.793-4.055 4.012-4.059zm-3.161 10.442h6.313v25.359h-6.312zm14.938-9.789h6.313v20.242l9.289-10.453h7.926l-10.836 12.152 12.133 13.207h-7.828l-10.684-11.687v11.688h-6.312zM116.984 80.051h3.984v11.48h-3.984zm10.368-.485h3.984v8.98h-3.984zM69.25 92.68c-5.336.004-10.238 2.953-12.773 7.68h6.766c2.992-2.602 7.34-3.359 10.484 0h7.152c-2.793-3.805-6.992-7.68-11.629-7.68zm0 0"/><path d="M78.902 107.289c-9.32 19.648-25.664 2.895-15.672-6.93h-6.754c-5.305 9.316 2.023 21.879 12.773 21.594 8.309 0 15.172-12.437 15.172-14.637 0-.965-1.34-3.941-3.555-6.957h-7.152c2.371 2.168 4.438 5.332 5.188 6.93zm0 0"/><path d="M168.621 79.91v51.879c-.012 9.957-8.016 18.023-17.895 18.035h-7.59V132.16H106.87v17.664h-7.594c-9.879-.012-17.883-8.078-17.895-18.035v-16.312h57.504V84.273h-27.77v17.531H81.383V79.91c0-.691.039-1.383.121-2.07.094-.82.238-1.633.441-2.43.066-.258.141-.512.215-.762.016-.062.035-.129.063-.191l.117-.367c.043-.129.09-.242.133-.371a11.01 11.01 0 0 1 .156-.414c.051-.133.113-.266.168-.402a18.326 18.326 0 0 1 1.625-3.043l.02-.027a13.45 13.45 0 0 1 .5-.707l.445-.574a13.63 13.63 0 0 1 .535-.625c.18-.203.355-.398.539-.586l.02-.023c.094-.105.195-.203.305-.305a17.93 17.93 0 0 1 2.125-1.793 14.81 14.81 0 0 1 .629-.43c.219-.145.48-.305.719-.453.48-.277.957-.531 1.438-.762a8.95 8.95 0 0 1 .48-.215 16.52 16.52 0 0 1 2.094-.762c.273-.082.547-.156.828-.227.133-.031.266-.066.41-.094a17.896 17.896 0 0 1 2.422-.355l.352-.02h.176c.266-.016.543-.02.816-.02h51.453c.277 0 .551 0 .816.02h.176l.355.02a18.1 18.1 0 0 1 2.422.355c.141.027.277.063.406.094.285.07.555.145.832.227a16.52 16.52 0 0 1 2.094.762l.48.215c.492.23.957.48 1.434.762l.719.453a10.27 10.27 0 0 1 .629.43c.879.633 1.699 1.34 2.453 2.121.188.188.367.383.539.586l.539.625c.172.211.293.379.441.574l.5.707.023.027c.633.961 1.176 1.98 1.625 3.043.051.137.109.27.168.402s.098.27.152.414.094.242.133.371l.121.367a1.79 1.79 0 0 1 .059.191 17.75 17.75 0 0 1 .215.762 17.6 17.6 0 0 1 .441 2.43c.082.688.121 1.379.121 2.07zm0 0"/><path d="M165.582 69.859H84.434c3.32-4.984 8.883-7.977 14.84-7.98h51.469c5.957.004 11.52 2.996 14.84 7.98zm2.926 7.981H81.496a17.957 17.957 0 0 1 2.926-7.98h81.148a17.89 17.89 0 0 1 2.938 7.98zm.117 2.07v5.914h-29.738v-1.551h-27.77v1.551H81.379V79.91a17.47 17.47 0 0 1 .117-2.07h87.012a16.68 16.68 0 0 1 .117 2.07zm-87.246 5.914h29.746v7.984H81.379zm57.5 0h29.746v7.984h-29.746zm-57.5 7.989h29.746v7.977H81.379zm57.5 0h29.746v7.977h-29.746zm0 0"/></svg>