<svg height="2500" viewBox=".81 0 1024.001 1024" width="2498" xmlns="http://www.w3.org/2000/svg"><path d="m684.203 509.867v152.746l-2.134 4.182-2.218 2.261-2.134 4.267h-4.266l-4.352 2.218-8.747 2.091h-90.453v240.981l19.456-4.394 19.413-2.134 17.237-6.4 17.28-4.266 8.534-2.134 8.533-4.394 17.365-6.4 17.238-8.662 15.104-8.533 17.237-8.661 15.104-8.576 12.928-10.667 15.061-10.795 28.118-23.722 12.885-12.886 10.752-12.97 12.928-14.976 10.752-12.971 10.837-14.976 8.619-15.147 8.533-17.152 8.704-15.018 8.576-17.238 6.4-17.237 10.966-34.517 6.4-17.11 2.133-19.413 4.352-17.195 2.176-19.328 2.133-38.656-2.133-30.122-2.133-15.147v-15.104l-6.528-29.952-8.576-30.208-4.352-12.885-4.395-12.971-10.667-27.947-15.104-25.813-12.928-25.77-17.237-21.547-19.456-23.723-19.413-21.376-21.59-19.456-21.504-17.237-23.765-17.11-25.813-15.146-25.856-12.886v352.855l-2.134 4.266-2.218 2.134-2.134 4.266-4.266 2.134h-4.352l-8.747 2.176h-127.147l-2.048 2.09-2.176 2.219v-148.396l2.134-4.394 2.133-4.182 4.31-2.133h58.282l8.576-2.176 6.4-2.261 4.267-2.134 4.522-6.4v-326.997l43.008 12.885 21.59 6.486 19.328 6.4 21.589 8.533 19.37 10.923 19.414 8.49 17.237 10.88 19.414 12.928 17.28 10.667 17.237 12.928 15.104 14.976 17.152 15.147 15.19 14.976 27.989 30.293 13.013 17.067 12.928 17.28 10.667 19.285 10.837 17.237 21.59 38.656 8.575 19.456 6.528 21.504 12.928 40.918 6.4 21.461 4.352 21.632 2.219 21.333 4.267 23.723v70.912l-2.091 25.941-2.133 25.771-4.352 25.813-6.528 23.68-6.4 25.814-8.662 23.594-8.661 21.718-10.667 23.466-10.922 21.547-12.843 21.632-12.928 21.461-30.165 38.656-15.19 19.414-17.194 17.194-17.238 17.238-19.498 15.061-19.328 14.933-19.456 15.147-21.59 12.928-21.504 12.97-21.589 10.71-23.68 10.667-21.504 8.661-25.899 8.533-23.68 6.571-23.765 6.485-25.856 4.182-25.899 2.261-25.856 2.048-25.856 2.176-25.898-2.133-25.771-2.134-25.941-2.218-25.899-4.182-25.77-6.485-23.766-6.57-23.765-8.534-23.638-8.661-21.589-10.667-21.547-10.71-21.589-12.97-21.59-12.928-19.413-15.104-19.413-14.976-19.413-15.061-17.195-17.238-17.237-17.194-17.28-19.414-15.062-19.37-12.928-19.286-25.856-43.093-10.752-21.547-10.922-23.466-8.491-21.718-8.661-23.594-6.486-25.814-6.4-23.68-4.265-25.813-4.44-25.77-2.09-25.942v-49.45l2.09-21.462 2.134-23.68 4.352-21.376 4.352-21.632 4.266-21.461 12.971-40.96 8.619-21.462 8.533-19.456 8.704-19.285 10.752-19.37 10.752-17.238 12.928-19.285 13.013-17.323 12.886-17.067 13.013-15.104 15.019-15.146 15.104-14.976 15.061-15.147 34.56-25.77 17.195-12.8 17.28-12.929 19.413-10.88 19.328-8.49 19.456-10.88 19.499-8.576 19.328-6.4 21.504-6.486 21.674-6.485 21.504-6.4v326.997l2.134 4.267 2.133 2.133 6.485 2.134 6.4 2.261 6.528 2.133h58.198l4.309 2.176 4.267 4.182v152.789l-4.267-4.31h-127.19l-8.66-2.133h-4.267l-2.134-2.176-4.352-4.266-2.133-2.134v-4.266l-2.133-6.486v-346.368l-25.942 12.886-23.637 15.146-23.68 17.11-23.765 17.237-21.504 19.456-19.499 21.376-17.28 23.723-17.237 23.637-15.019 23.68-13.013 25.813-6.4 12.971-4.267 14.933-10.837 27.99-6.486 28.117-6.4 29.952-2.176 15.104v15.147l-2.176 30.122v19.286l2.134 19.37 2.176 17.238 2.176 19.285 4.266 19.413 4.31 17.11 6.4 17.237 2.218 8.661 4.395 8.619 6.4 17.237 6.528 17.238 17.195 32.17 21.589 27.947 10.752 15.147 10.752 14.933 12.97 13.013 12.929 12.886 25.856 23.722 15.146 10.795 15.019 10.667 30.165 17.194 17.28 8.576 15.019 8.662 17.323 6.4 17.322 6.485 19.371 4.352 17.237 6.4 17.238 2.09 19.456 4.395v-240.981h-90.624l-8.662-2.133-2.133-2.219h-4.267l-4.352-4.267-2.133-2.218v-4.139l-2.133-6.485v-146.347l2.133 2.261 2.133 2.091 6.486 4.395 6.4 2.09 6.528 2.134h122.88l4.309 2.133 4.267 4.267v146.345h32.426v-142.08l2.134-4.266 2.133-4.267 4.31-2.133h122.794l6.613-2.134 6.486-2.133 6.4-4.352 4.352-4.352zm-217.814-507.648 23.766-2.219h47.402l21.59 2.261v314.027l-2.134 2.048-2.176 4.437h-2.176l-2.09 2.048-6.486 2.134h-60.373l-6.4-2.134-2.261-2.048h-4.352v-4.48l-2.134-2.09-2.176-8.619v-305.323z" fill="#2f856d"/></svg>