<svg width="1e3mm" height="1e3mm" version="1.1" viewBox="0 0 1e3 1e3" xmlns="http://www.w3.org/2000/svg"><g transform="translate(-15 -58.5)"><g transform="matrix(5.5556 0 0 5.5556 -68.333 -266.5)"><circle cx="105" cy="148.5" r="89.5" fill="#fff" stroke-width=".20883"/><path d="m96.921 238.16c-20.693-1.7788-40.664-11.133-55.559-26.025-21.011-21.006-30.264-50.904-24.84-80.264 6.6902-36.214 35.634-65.15 71.857-71.839 39.891-7.3657 79.288 12.334 97.379 48.691 3.7852 7.607 6.5137 15.887 7.8921 23.949 5.0303 29.424-4.1556 58.637-24.987 79.463-18.89 18.885-44.926 28.33-71.743 26.025zm20.581-4.7056c14.358-2.2759 27.414-7.7214 38.876-16.215 4.7573-3.525 13.865-12.63 17.391-17.386 8.5498-11.533 13.955-24.534 16.263-39.114 0.88455-5.5891 0.88455-18.889 0-24.478-2.3075-14.58-7.7129-27.581-16.263-39.114-3.5259-4.7561-12.633-13.861-17.391-17.386-11.536-8.5476-24.54-13.952-39.123-16.259-5.5905-0.88433-18.894-0.88433-24.485 0-14.584 2.3069-27.588 7.711-39.123 16.259-4.7573 3.525-13.865 12.63-17.391 17.386-8.5498 11.533-13.955 24.534-16.263 39.114-0.88454 5.5892-0.88454 18.889 0 24.478 2.3075 14.58 7.7129 27.581 16.263 39.114 3.5259 4.7561 12.633 13.861 17.391 17.386 13.055 9.6736 26.479 14.783 44.329 16.874 2.7737 0.32489 16.171-0.12755 19.526-0.65944zm-42.394-35.76c-16.935-0.6268-24.988-1.2304-27.442-2.0568-2.7031-0.91032-5.5695-2.5859-7.8362-4.5807-2.2921-2.0171-5.0382-6.2637-5.8716-9.08-1.2955-4.3778-2.4656-20.849-2.4656-34.707 0-13.087 1.1552-30.143 2.3227-34.294 1.8996-6.7539 8.4925-13.03 15.298-14.563 1.2358-0.27839 5.6508-0.67774 9.8111-0.88744 4.1603-0.2097 8.7515-0.46089 10.203-0.5582 8.6153-0.57769 37.38-0.87629 52.025-0.54007 26.35 0.60494 38.116 1.3019 41.388 2.4518 6.0282 2.1182 11.22 7.3171 13.358 13.378 0.94192 2.669 2.0553 15.786 2.4794 29.21 0.32375 10.248-0.77248 31.952-1.9542 38.69-1.3023 7.4264-9.403 15.103-17.055 16.163-2.8284 0.3917-13.029 0.9365-26.738 1.428-11.152 0.39984-46.156 0.36739-57.523-0.0533zm64.038-10.683c2.154-1.1136 2.5228-3.9193 0.72622-5.5242l-1.0962-0.97921h-33.792c-22.504 0-34.018 0.12098-34.469 0.36217-1.0517 0.56268-1.8336 2.3679-1.5895 3.6692 0.2084 1.1106 1.2683 2.3732 2.3126 2.7548 0.29025 0.10608 15.457 0.20536 33.704 0.22064 28.94 0.0242 33.308-0.0401 34.204-0.50348zm17.531-14.427c0.58112-0.48887 1.1583-1.352 1.2827-1.918 0.2925-1.3314-0.62747-3.2972-1.7911-3.8273-0.64443-0.29355-14.408-0.40047-51.552-0.40047h-50.673l-1.0284 1.0281c-1.6252 1.6248-1.2376 4.4036 0.76942 5.5156 0.68669 0.38051 10.107 0.46821 51.388 0.47839l50.547 0.0125z" stroke-width=".35178"/></g></g></svg>
