<svg clip-rule="evenodd" fill-rule="evenodd" height="1412" stroke-linejoin="round" stroke-miterlimit="2" viewBox="122.474 47.25 2589.696 1440.933" width="2500" xmlns="http://www.w3.org/2000/svg"><path d="m1133.13 47.25c87.822 0 180.338 5.87 274.739 20.386 248.077 38.147 539.584 135.475 770.809 264.027 307.189 170.785 533.492 393.481 533.492 673.124 0 107.759-25.943 209.858-124.79 317.21-80.323 87.233-224.244 155.395-410.588 155.395-269.869 0-332.808-144.946-521.391-144.946-173.844 0-394.056 155.737-817.767 155.737-525 0-715.16-338.662-715.16-587.247 0-184.778 52.441-399.669 297.554-613.948 111.39-97.378 362.638-239.738 713.102-239.738z" fill="#572680"/><path d="m1133.74 730.548c41.844 0 71.645 31.214 79.979 72.44h-160.047c8.334-41.815 37.192-72.44 80.068-72.44m1.501-113.667c-134.653-.281-226.185 95.644-226.185 244.073 0 152.177 94.859 240.984 248.448 240.336 33.51-.141 114.727 0 191.82-59.778v-103.655c-63.106 47.705-104.892 54.478-159.34 54.478-79.243 0-129.774-31.214-139.669-102.477h306.371c8.984-187.222-98.237-272.977-221.445-272.977m391.589 76.858c43.965-53.006 86.663-75.091 142.79-75.091 68.613 0 159.811 40.932 159.811 177.862v292.707h-137.961v-270.916c0-65.962-29.477-92.759-68.436-92.759-33.045 0-58.692 17.668-92.817 71.447-3.585 5.733-3.333 8.374-3.387 11.78v280.448h-138.315v-457.318h138.315zm-948.677 293.885h114.727c28.976 0 55.921-10.307 55.921-47.705 0-35.926-26.945-47.705-55.921-47.705h-114.727zm.412-182.574h105.54c22.203 0 55.213-.884 55.213-35.632 0-31.508-31.155-36.809-55.213-36.809h-105.54zm314.322 148.12c0 76.534-52.903 118.077-105.791 132.435-12.602 3.421-32.531 6.02-59.918 6.02-5.856 0-281.097-.347-281.097-.347v-472.041s281.484.491 287.414.491c81.837 0 144.579 45.32 144.579 118.476 0 46.233-23.233 82.453-60.426 101.888 56.712 27.566 75.239 70.379 75.239 113.078m963.223-95.078c0 133.394 93.9 243.202 251.882 243.202 12.017 12.946 119.966 129.057 315.015 68.845 1.518-5.813 22.41-150.793 21.963-151.384-17.51 15.305-101.486 77.045-224.09 59.641.004-.026-.555-1.793-.589-1.833 52.552-16.169 139.29-85.34 139.29-218.471 0-103.979-64.815-243.567-251.589-243.567-186.775 0-251.882 139.857-251.882 243.567zm142.704 0c0-73.944 45.584-126.12 109.084-126.12 54.606 0 102.529 52.188 102.529 126.12 0 105.153-52.338 140.286-102.277 140.286-56.581 0-109.336-35.696-109.336-140.286z" fill="#fff" fill-rule="nonzero"/></svg>