<?xml version="1.0" encoding="utf-8"?>
<!-- Generator: Adobe Illustrator 22.1.0, SVG Export Plug-In . SVG Version: 6.00 Build 0)  -->
<svg version="1.1" id="Layer_1" xmlns="http://www.w3.org/2000/svg" xmlns:xlink="http://www.w3.org/1999/xlink" x="0px" y="0px"
	 viewBox="0 0 2287.8 654.7" style="enable-background:new 0 0 2287.8 654.7;" xml:space="preserve">
<style type="text/css">
	.st0{fill:none;}
</style>
<rect class="st0" width="2500" height="715"/>
<path d="M424.6,256.3c30.8-7.7,70.4-58.3,70.4-118.8C495,77,446.6,6.7,325.6,6.7H0v537.9h305.8c156.2,0,204.6-69.3,204.6-160.6
	S424.6,256.3,424.6,256.3z M151.8,136.9h139.7c31.9,0,43.3,24.2,43.3,38.5c0,14.3-3.7,41.8-44.4,41.8H151.8L151.8,136.9z
	 M281.6,425.7H148.5V317.9h132.2c29.7,0,63.7,12.1,63.7,51.7C344.3,409.2,325.6,425.7,281.6,425.7z M773.3,4.9
	c-64.2,0-116.6,28.4-155.1,60.1c-65.4,53.7-90.4,139.7-89.3,223.3c1.3,97.6,49,194.7,125.9,229.7c181.5,82.5,326.5,22.3,379.3-29.4
	V370.8c0,0-80.3,78.1-212.3,59.4c-132-18.7-129.8-103.4-130.9-114.4h350.9C1041.8,315.7,1073.6,4.9,773.3,4.9L773.3,4.9z
	 M694.2,214.6c-1.1-15.4,23.1-79.2,96.8-79.2c73.7,0,88,79.2,88,79.2H694.2z M1390.5,6.7c-65.1,2.1-114,36.4-155.1,87.3V22h-157.3
	v522.5h157.3V213.9c25.1-36,65.5-83.5,105.6-86.2c41.6-2.8,67.3,19.7,82.5,73.2v342.7h160.6V187C1574.2,62.7,1493.9,3.3,1390.5,6.7
	L1390.5,6.7z M2037.7,531.7c91.5-38.7,153.1-122.3,158-253.2C2201.5,124.8,2064.7,0,1903,0c-161.6,0-295.7,124.7-292.7,278.5
	c3.6,181,131.1,278.5,292.7,278.5c149,157.9,363.7,76.8,363.7,76.8l21-167.8C2175.3,550.2,2069.7,539.5,2037.7,531.7z M1777.1,291.9
	c0-83.8,55.6-151.7,124.2-151.7c68.6,0,121.2,67.9,121.2,151.7c0,83.7-52.6,151.7-121.2,151.7
	C1832.7,443.5,1777.1,375.6,1777.1,291.9L1777.1,291.9z"/>
</svg>
