<svg height="715" width="2500" xmlns="http://www.w3.org/2000/svg" viewBox="0 0 800 250.027"><g fill="#491770"><path d="M148.486 89.642c10.766-2.702 24.616-20.392 24.616-41.541 0-21.167-16.925-45.773-59.236-45.773H0v188.099h106.94c54.616 0 71.546-24.228 71.546-56.156s-30-44.629-30-44.629zM53.085 47.86h48.857c11.157 0 15.145 8.465 15.145 13.449 0 5.011-1.304 14.625-15.532 14.625h-48.47zm45.391 101.017H51.929v-37.696h46.223c10.387 0 22.261 4.237 22.261 18.078-.001 13.85-6.547 19.618-21.937 19.618zM270.424 1.7c-22.448 0-40.762 9.934-54.229 21.006-22.862 18.772-31.629 48.857-31.242 78.07.449 34.131 17.134 68.093 44.015 80.322 63.468 28.848 114.164 7.789 132.624-10.289v-41.158s-28.078 27.308-74.238 20.775c-46.165-6.542-45.391-36.165-45.769-40.014h122.708c.001 0 11.145-108.712-93.869-108.712zm-27.686 73.326c-.396-5.385 8.069-27.695 33.846-27.695 25.768 0 30.766 27.695 30.766 27.695zM486.232 2.328c-22.76.721-39.876 12.724-54.229 30.535V7.708h-55.017v182.719h55.017V74.786c8.781-12.595 22.911-29.204 36.917-30.156 14.536-.983 23.539 6.898 28.857 25.59v119.825h56.156V65.409c-3.458-43.477-31.532-64.243-67.701-63.081zM712.575 185.932c31.999-13.543 53.526-42.769 55.248-88.529C769.843 43.646 721.997 0 665.458 0c-56.525 0-103.42 43.61-102.365 97.403 1.25 63.277 45.84 97.398 102.365 97.398 52.106 55.226 127.19 26.859 127.19 26.859L800 162.977c-39.325 29.417-76.241 25.688-87.425 22.955zm-91.155-83.865c0-29.302 19.439-53.059 43.419-53.059 23.987 0 42.386 23.756 42.386 53.059 0 29.275-18.407 53.032-42.386 53.032s-43.419-23.757-43.419-53.032z"/></g></svg>