<svg xmlns="http://www.w3.org/2000/svg" width="2500" height="784" viewBox="0 0 140.53 44.046"><path d="M71.961 42.996c.795 1.498 3.107 1.073 3.437-.433.951 1.386 3.153.739 3.363-.719.921 1.004 2.748.602 3.162-.698.006-.019-.006.019 0 0C88.7 38.359 93.66 33.317 95.6 27.298a2.58 2.58 0 0 0 1.045-.801c2.096.493 4.438 1.479 5.301-.863 1.85.493 5.729 1.784 6.903-1.355 2.712.37 6.656.616 7.15-2.219 2.342 0 6.409-.37 6.409-3.082 2.343 0 6.41-1.603 5.917-3.452 2.096-.246 4.932-2.465 4.932-3.944 2.095-.616 4.438-2.219 3.944-4.314 1.232-.74 3.328-1.603 3.328-2.835s-.986-2.219-2.096-2.219-5.301.254-6.78.254c-1.478 0-19.353-.247-23.544 0-4.191.246-9.492.362-12.081.116-1.907-.184-8.404-.556-12.305.487-8.262-4.094-18.653-4.095-26.917 0-3.9-1.042-10.398-.67-12.306-.489-2.589.247-7.889.13-12.081-.116-4.191-.247-22.066 0-23.545 0s-5.67-.254-6.78-.254S0 3.199 0 4.431c0 1.233 2.096 2.096 3.329 2.835-.494 2.096 1.849 3.698 3.944 4.314 0 1.479 2.835 3.698 4.931 3.944-.493 1.85 3.575 3.452 5.917 3.452 0 2.711 4.068 3.082 6.41 3.082.493 2.835 4.438 2.589 7.15 2.219 1.174 3.14 5.054 1.849 6.903 1.355.863 2.343 3.205 1.356 5.301.863.286.372.646.63 1.045.801 1.94 6.02 6.901 11.062 13.677 13.849.005.019-.006-.019 0 0 .414 1.3 2.241 1.702 3.162.698.21 1.458 2.412 2.104 3.363.719.329 1.506 2.642 1.931 3.436.433.189 1.401 3.204 1.401 3.393.001z"/><path d="M48.939 26.99c.725 1.657 3.016 1.312 4.388.795 1.83 2.784 4.874 5.05 8.622 6.419l-2.977 5.046c-5.787-2.521-10.071-6.741-11.959-11.71a5.99 5.99 0 0 0 1.926-.55z" fill="#fff"/><path d="M58.541 40.56c-6.389-2.698-11.085-7.418-13.03-13.076.321.07.654.097.987.091 1.905 5.147 6.304 9.521 12.254 12.118a2.6 2.6 0 0 0-.211.867zM61.884 40.711a.085.085 0 0 1-.003.009c-.947 2.33-3.756.982-2.485-1.218l3.027-5.13c.555.188 1.124.356 1.706.506.012.079-2.212 5.727-2.245 5.833zM65.085 41.436c-.586 2.331-3.396 1.62-2.735-.562l2.406-5.846c.572.13 1.155.24 1.748.329.006.022-1.419 6.079-1.419 6.079zM68.384 41.804c-.209 2.508-3.288 2.073-2.736-.425 0 .002 1.375-5.935 1.38-5.948.578.073 1.164.129 1.759.163.021.054-.401 6.16-.403 6.21zM68.92 41.766c0 .001.328-6.071.333-6.086.576.024 1.427.041 2.02-.019.028.052.41 6.042.416 6.091.186 2.455-2.916 2.505-2.769.014zM2.028 3.687c.276-.211.87-.2 1.621-.242 3.821 0 12.697.247 14.423.247s13.93 1.356 15.84 1.973c.863.247 1.048 1.109 0 1.171-1.048.062-14.076.248-15.925.248-1.434 0-8.893-.025-13.204-.88-2.332-.463-3.584-1.885-2.755-2.517zM6.225 8.252c2.219.062 13.313.124 14.608.062 1.294-.062 11.341-.616 12.512-.678 2.533-.133 3.353.995.678 1.603-1.356.309-13.868 1.726-23.36 1.541-1.788.062-4.191-.863-4.808-1.726-.616-.863.062-.802.37-.802zM10.54 12.321c1.541 0 19.723-1.356 23.545-2.157 3.324-.506 2.574 1.202 1.232 1.479-1.128.233-14.608 2.835-21.449 2.958-2.281-.061-4.931-2.219-3.328-2.28zM15.162 16.142c2.158-.247 16.519-2.527 20.402-3.575 3.512-.91 2.803 1.424 1.541 1.788-1.124.324-13.363 3.303-16.149 3.452a14.781 14.781 0 0 1-3.528-.238c-3.936-.787-2.266-1.427-2.266-1.427zM20.956 19.347c1.541-.308 14.053-3.144 17.628-4.499 1.742-.607 2.266 1.104 1.171 1.602-.678.308-10.293 4.314-14.854 4.561-1.664 0-4.742-.896-3.945-1.664zM41.357 16.758c-1.417.678-10.046 4.315-13.375 5.055-.462.123-.95.327-.911.584.296 1.968 6.422.294 6.847.158 2.356-.755 7.159-2.518 9.196-4.503-.493-.246-1.633-1.047-1.757-1.294zM43.946 18.854c-.924.616-6.965 3.761-9.738 4.623-1.449.483.076 1.973 2.906 1.166 3.128-.485 7.695-4.186 8.435-4.864-.37-.185-1.171-.678-1.603-.925zM46.782 20.519c-1.117.764-3.267 2.192-4.632 3.103-.563.376-1.907 1.119-1.878 1.713.014.284.554.823 3.021-.073 1.534-.628 3.391-1.905 4.968-4.188-.308-.094-1.11-.371-1.479-.555zM49.555 21.443c-.578.578-1.325 1.368-2.056 2.096-.673.868-2.173 1.493-1.657 2.496.559 1.086 2.319-.477 2.953-1.075.896-.847 1.761-1.966 2.086-3.086-.432-.123-.925-.246-1.326-.431z" fill="#fff"/><path d="M28.106 3.199c1.603 0 7.026.37 8.999.37 5.668 0 13.338-1 18.61.083 3.277.673 3.747 1.622 3.747 2.642 0 1.327-1.109 2.124-1.895 2.7-.924.678-3.76 2.342-3.883 6.657-.739-.308-1.787-.493-1.047-2.034 1.291-2.583 4.194-5.729-.771-7.069-.783-.211-1.748-.349-2.927-.389-3.636-.123-8.909-.15-10.697-.458-1.787-.308-8.534-1.884-9.951-2.068-.617-.065-.617-.373-.185-.434z" fill="#fff"/><path d="M42.355 6.947c1.294 0 5.257-.027 6.586.036 3.676.175 6.301 1.966 3.646 5.327-.52.657-1.91 2.034-2.465 2.527-.493.37-1.418-.247-.617-1.171-1.048.616-2.342.493-1.726-.924-.925.74-2.465.801-1.541-1.109-.616.493-2.342.432-1.233-1.048-.924.308-1.972-.247-1.294-1.171-1.171.186-1.849-.678-.616-1.355-1.171.305-1.479-1.051-.74-1.112zM38.739 6.292c-.499-.032-2.664-.384-2.612.783.052 1.168 2.457.727 2.951.635.91-.169 1.637-.447 1.616-.824-.021-.387-.969-.532-1.955-.594zM38.827 8.293c-.526.04-2.417-.053-2.122 1.015.093.336.788 1.016 3.113.451 1.019-.248 1.547-.794 1.547-1.228 0-.379-1.37-.327-2.538-.238zM40.32 10.027c-.374.062-2.542.21-2.179 1.303.254.762.644.521 1.305.6.436.052 3.666-.858 3.161-1.894-.15-.308-1.1-.204-2.287-.009zM41.392 11.576c-2.15.873-2.122 1.464-2.024 1.783.097.32 1.083.715 3.123-.282 1.033-.505 1.046-1.079.792-1.485-.317-.509-1.119-.33-1.891-.016zM42.897 13.044c-2.238.78-2.11 1.492-1.933 1.91.195.462.902.954 2.77-.236 1.128-.718 1.862-1.32 1.661-1.798-.182-.434-1.249-.321-2.498.124zM43.773 15.286c-.587.356-.854.838-.484 1.387.662.984 2.614-.752 3.104-1.283.364-.394.597-.808.391-1.111-.213-.312-.875-.288-3.011 1.007zM47.307 15.453c-2.606 1.329-2.356 1.973-1.993 2.248.401.304 1.346.623 2.926-1.203.693-.8.312-1.676-.933-1.045zM48.608 16.847c-.55.615-1.839 1.542-.841 2.233.841.582 1.334-.057 1.748-.453 2.394-2.303 1.602-3.761-.907-1.78z" fill="#fff"/><path d="M56.472 4.775c1.83.915 2.587 1.887.708 3.215-.23.162.054.565.284.403 2.068-1.46 1.623-2.975-.771-4.059-.252-.126-.472.315-.221.441z"/><path d="M81.59 25.638c0-1.966-2.025-3.932-4.274-4.61-.601-.136-.506-.67-.038-.881.45-.204 3.075-2.034 3.038-4.339 0-2.237-2.626-5.627-10.276-5.627-4.5 0-8.25 1.017-10.5 2.916.524.407 1.125 1.017 1.125 1.695v12.407c-.075.746-.45 1.356-1.051 2.034 2.02 1.434 5.637 2.802 10.83 2.785 5.55-.136 11.146-1.77 11.146-6.38z" fill="#fff"/><ellipse cx="70.42" cy="16.214" rx="4.322" ry="3.452"/><ellipse cx="70.977" cy="25.57" rx="4.845" ry="3.644"/><path d="M51.644 19.617c.169-.841.44-1.658.802-2.443-.021-.031-.662-.851-2.241 1.431-.872 1.259.668 1.766 1.439 1.012zM51.593 23.493c-.65.755-1.263 1.389-1.668 1.895-.846 1.058 1.355 2.362 2.541.858a10.977 10.977 0 0 1-.873-2.753zM81.929 3.771a6.226 6.226 0 0 1 1.096-.488c-7.892-3.72-17.629-3.72-25.52 0 .41.142.778.304 1.095.488 7.308-3.183 16.085-3.155 23.329 0z" fill="#fff"/><path d="M85.562 13.558c-.886-3.082-3.098-4.336-3.956-4.936-1.725-1.205-1.631-2.986-.157-4.521-7.043-2.969-15.408-2.935-22.368 0 1.474 1.535 1.567 3.316-.157 4.521-.858.6-3.071 1.854-3.956 4.936 7.523-7.753 23.071-7.754 30.594 0zM91.591 26.99c-.726 1.657-3.017 1.312-4.388.795-1.83 2.784-4.874 5.05-8.623 6.419l2.978 5.046c5.787-2.521 10.07-6.741 11.96-11.71a5.981 5.981 0 0 1-1.927-.55z" fill="#fff"/><path d="M81.989 40.56c6.389-2.698 11.086-7.418 13.03-13.076a4.28 4.28 0 0 1-.987.091c-1.905 5.147-6.304 9.521-12.254 12.118a2.6 2.6 0 0 1 .211.867zM78.645 40.711l.004.009c.947 2.33 3.756.982 2.485-1.218l-3.027-5.13c-.555.188-1.123.356-1.706.506-.012.079 2.212 5.727 2.244 5.833zM75.444 41.436c.587 2.331 3.396 1.62 2.735-.562 0 0-2.28-5.543-2.406-5.846-.571.13-1.154.24-1.747.329-.006.022 1.418 6.079 1.418 6.079zM72.146 41.804c.209 2.508 3.287 2.073 2.735-.425.001.002-1.374-5.935-1.38-5.948-.578.073-1.165.129-1.759.163-.02.054.402 6.16.404 6.21zM138.502 3.687c-.276-.211-.87-.2-1.621-.242-3.821 0-12.697.247-14.423.247s-13.93 1.356-15.84 1.973c-.863.247-1.048 1.109 0 1.171 1.048.062 14.075.248 15.924.248 1.435 0 8.894-.025 13.204-.88 2.334-.463 3.586-1.885 2.756-2.517zM134.304 8.252c-2.219.062-13.312.124-14.607.062-1.294-.062-11.341-.616-12.512-.678-2.533-.133-3.354.995-.678 1.603 1.355.309 13.868 1.726 23.359 1.541 1.787.062 4.191-.863 4.808-1.726s-.061-.802-.37-.802zM129.99 12.321c-1.541 0-19.723-1.356-23.545-2.157-3.324-.506-2.574 1.202-1.232 1.479 1.128.233 14.607 2.835 21.449 2.958 2.28-.061 4.93-2.219 3.328-2.28zM125.368 16.142c-2.157-.247-16.519-2.527-20.401-3.575-3.512-.91-2.804 1.424-1.541 1.788 1.123.324 13.362 3.303 16.148 3.452a14.781 14.781 0 0 0 3.528-.238c3.936-.787 2.266-1.427 2.266-1.427zM119.574 19.347c-1.541-.308-14.053-3.144-17.628-4.499-1.741-.607-2.266 1.104-1.171 1.602.678.308 10.293 4.314 14.854 4.561 1.664 0 4.742-.896 3.945-1.664zM99.172 16.758c1.417.678 10.047 4.315 13.375 5.055.462.123.95.327.911.584-.296 1.968-6.422.294-6.847.158-2.355-.755-7.159-2.518-9.196-4.503.494-.246 1.634-1.047 1.757-1.294zM96.583 18.854c.924.616 6.965 3.761 9.738 4.623 1.449.483-.076 1.973-2.906 1.166-3.128-.485-7.695-4.186-8.435-4.864.371-.185 1.172-.678 1.603-.925zM93.749 20.519c1.116.764 3.267 2.192 4.632 3.103.563.376 1.907 1.119 1.878 1.713-.014.284-.554.823-3.021-.073-1.534-.628-3.391-1.905-4.968-4.188.307-.094 1.108-.371 1.479-.555zM90.974 21.443c.578.578 1.326 1.368 2.057 2.096.674.868 2.174 1.493 1.657 2.496-.559 1.086-2.319-.477-2.952-1.075-.896-.847-1.762-1.966-2.087-3.086.432-.123.925-.246 1.325-.431z" fill="#fff"/><path d="M112.424 3.199c-1.603 0-7.026.37-8.999.37-5.669 0-13.339-1-18.61.083-3.277.673-3.747 1.622-3.747 2.642 0 1.327 1.108 2.124 1.894 2.7.925.678 3.761 2.342 3.884 6.657.739-.308 1.787-.493 1.048-2.034-1.292-2.583-4.194-5.729.771-7.069.783-.211 1.748-.349 2.928-.389 3.636-.123 8.909-.15 10.696-.458s8.534-1.884 9.951-2.068c.616-.065.616-.373.184-.434z" fill="#fff"/><path d="M98.174 6.947c-1.294 0-5.257-.027-6.586.036-3.676.175-6.301 1.966-3.646 5.327.52.657 1.91 2.034 2.465 2.527.493.37 1.418-.247.616-1.171 1.049.616 2.343.493 1.727-.924.924.74 2.465.801 1.541-1.109.616.493 2.342.432 1.232-1.048.925.308 1.973-.247 1.294-1.171 1.172.186 1.85-.678.616-1.355 1.173.305 1.481-1.051.741-1.112zM101.791 6.292c.499-.032 2.664-.384 2.612.783-.052 1.168-2.457.727-2.951.635-.91-.169-1.637-.447-1.616-.824.021-.387.969-.532 1.955-.594zM101.704 8.293c.525.04 2.417-.053 2.121 1.015-.093.336-.787 1.016-3.112.451-1.02-.248-1.547-.794-1.547-1.228 0-.379 1.369-.327 2.538-.238zM100.209 10.027c.374.062 2.542.21 2.179 1.303-.254.762-.644.521-1.305.6-.436.052-3.666-.858-3.161-1.894.151-.308 1.101-.204 2.287-.009zM99.138 11.576c2.149.873 2.121 1.464 2.024 1.783-.098.32-1.083.715-3.123-.282-1.033-.505-1.047-1.079-.793-1.485.318-.509 1.12-.33 1.892-.016zM97.632 13.044c2.238.78 2.11 1.492 1.933 1.91-.195.462-.902.954-2.771-.236-1.128-.718-1.862-1.32-1.66-1.798.183-.434 1.249-.321 2.498.124zM96.756 15.286c.587.356.854.838.484 1.387-.661.984-2.614-.752-3.104-1.283-.363-.394-.597-.808-.391-1.111.213-.312.876-.288 3.011 1.007zM93.223 15.453c2.606 1.329 2.356 1.973 1.993 2.248-.401.304-1.346.623-2.926-1.203-.693-.8-.312-1.676.933-1.045zM91.921 16.847c.55.615 1.839 1.542.842 2.233-.842.582-1.335-.057-1.748-.453-2.394-2.303-1.602-3.761.906-1.78z" fill="#fff"/><path d="M84.058 4.775c-1.83.915-2.587 1.887-.707 3.215.229.162-.055.565-.285.403-2.067-1.46-1.622-2.975.772-4.059.251-.126.471.315.22.441z"/><path d="M88.886 19.617c-.17-.841-.44-1.658-.803-2.443.021-.031.662-.851 2.241 1.431.873 1.259-.667 1.766-1.438 1.012zM88.936 23.493c.65.755 1.264 1.389 1.669 1.895.846 1.058-1.355 2.362-2.541.858.411-.881.707-1.803.872-2.753z" fill="#fff"/></svg>