<svg xmlns="http://www.w3.org/2000/svg" width="2500" height="2500" viewBox="0 0 192.756 192.756"><path fill-rule="evenodd" clip-rule="evenodd" fill="#fff" d="M0 0h192.756v192.756H0V0z"/><path d="M189.871 75.416c.4-7.581-1.541-11.587-5.855-12.081a532.248 532.248 0 0 0-87.524-6.041h-.154c-28.815-.123-58.031 1.88-87.678 6.041-3.852.124-5.825 4.129-5.825 12.081v36.274c.986 3.205 3.051 5.115 6.164 5.701 28.722 8.537 57.814 14.576 87.339 18.121a653.534 653.534 0 0 0 87.678-17.783c2.957-1.201 4.93-3.205 5.855-6.039V75.416z" fill-rule="evenodd" clip-rule="evenodd" fill="#f2dda7"/><path d="M185.092 79.823c.4-6.441-1.447-9.862-5.547-10.293-27.674-3.76-55.35-5.486-83.055-5.116h-.154c-27.336-.123-55.072 1.602-83.21 5.115-3.667.093-5.516 3.544-5.516 10.294v30.849c.955 2.742 2.897 4.377 5.825 4.869 27.274 7.242 54.887 12.389 82.901 15.41a682.48 682.48 0 0 0 83.209-15.133c2.805-1.018 4.654-2.742 5.547-5.146V79.823z" fill-rule="evenodd" clip-rule="evenodd" fill="#576d5b"/><path d="M117.766 80.069a32.593 32.593 0 0 0-3.637-2.589 35.69 35.69 0 0 0-4.037-2.065 31.108 31.108 0 0 0-4.408-1.541c-1.57-.431-3.174-.771-4.838-.955a38.022 38.022 0 0 0-4.992-.339c-1.664 0-3.329.123-4.962.339-1.664.185-3.297.524-4.9.955-1.479.401-2.928.925-4.407 1.541a37.942 37.942 0 0 0-4.006 2.065 32.501 32.501 0 0 0-3.637 2.589c-1.079.924-2.065 1.911-2.897 3.051a31.117 31.117 0 0 0-4.038 7.18 21.118 21.118 0 0 0-1.479 7.797c0 2.713.493 5.301 1.51 7.828s2.342 4.932 4.006 7.119c.832 1.141 1.818 2.158 2.927 3.082a29.452 29.452 0 0 0 3.606 2.557 37.793 37.793 0 0 0 4.006 2.096 35.45 35.45 0 0 0 4.407 1.512c1.603.461 3.236.77 4.869.955 1.664.246 3.329.432 4.993.523a54.392 54.392 0 0 0 5.023-.523 28.464 28.464 0 0 0 4.807-.955c1.512-.4 2.99-.895 4.408-1.512a35.669 35.669 0 0 0 4.068-2.096 31.847 31.847 0 0 0 3.605-2.557c1.109-.924 2.096-1.941 2.928-3.082 1.695-2.188 3.02-4.592 4.006-7.119s1.51-5.115 1.51-7.828c0-2.681-.492-5.3-1.479-7.797-1.018-2.558-2.342-4.961-4.037-7.15-.83-1.139-1.816-2.156-2.925-3.081zm-8.475-3.328c1.324.555 2.588 1.233 3.789 1.941a29.74 29.74 0 0 1 3.422 2.435 16.415 16.415 0 0 1 2.773 2.897c1.572 2.096 2.836 4.314 3.791 6.749a20.051 20.051 0 0 1 1.387 7.366c0 2.527-.463 4.992-1.418 7.334a27.928 27.928 0 0 1-3.76 6.75 15.504 15.504 0 0 1-2.773 2.896 27.982 27.982 0 0 1-3.391 2.404c-1.232.74-2.496 1.418-3.82 1.973a32.27 32.27 0 0 1-4.191 1.447c-1.48.402-2.959.709-4.5.895a80.147 80.147 0 0 1-4.746.492 81.884 81.884 0 0 1-4.715-.492 32.937 32.937 0 0 1-4.561-.895c-1.387-.4-2.804-.863-4.16-1.447a27.436 27.436 0 0 1-3.791-1.973 25.968 25.968 0 0 1-3.39-2.404 15.472 15.472 0 0 1-2.773-2.896 29.052 29.052 0 0 1-3.76-6.75c-.955-2.342-1.448-4.807-1.417-7.334a18.837 18.837 0 0 1 1.387-7.366 28.719 28.719 0 0 1 3.791-6.78 17.225 17.225 0 0 1 2.743-2.867 30.028 30.028 0 0 1 3.421-2.435c1.202-.708 2.465-1.387 3.791-1.941a35.214 35.214 0 0 1 4.16-1.479c1.51-.4 3.051-.678 4.592-.894 1.572-.185 3.113-.308 4.685-.308 1.604 0 3.143.123 4.715.308 1.541.216 3.051.493 4.531.894 1.444.401 2.831.894 4.188 1.48z" fill-rule="evenodd" clip-rule="evenodd" fill="#d0d1d3"/><path d="M113.08 78.682c-1.201-.708-2.465-1.387-3.789-1.941a32.248 32.248 0 0 0-4.191-1.479c-1.48-.4-2.99-.678-4.531-.894-1.572-.185-3.111-.308-4.715-.308-1.572 0-3.113.123-4.685.308-1.541.216-3.082.493-4.592.894a35.394 35.394 0 0 0-4.16 1.479c-1.326.555-2.589 1.233-3.791 1.941a29.904 29.904 0 0 0-3.421 2.435 17.188 17.188 0 0 0-2.743 2.867 28.719 28.719 0 0 0-3.791 6.78 18.856 18.856 0 0 0-1.387 7.366c-.031 2.527.462 4.992 1.417 7.334a29.052 29.052 0 0 0 3.76 6.75 15.472 15.472 0 0 0 2.773 2.896 25.873 25.873 0 0 0 3.39 2.404 27.545 27.545 0 0 0 3.791 1.973c1.356.584 2.773 1.047 4.16 1.447 1.51.402 3.021.709 4.561.895 1.572.215 3.144.369 4.715.492a80.06 80.06 0 0 0 4.746-.492 31.266 31.266 0 0 0 4.5-.895 32.27 32.27 0 0 0 4.191-1.447c1.324-.555 2.588-1.232 3.82-1.973a28.172 28.172 0 0 0 3.391-2.404 15.44 15.44 0 0 0 2.773-2.896 27.928 27.928 0 0 0 3.76-6.75 19.303 19.303 0 0 0 1.418-7.334c0-2.558-.463-4.993-1.387-7.366-.955-2.435-2.219-4.653-3.791-6.749a16.488 16.488 0 0 0-2.773-2.897 29.335 29.335 0 0 0-3.419-2.436z" fill-rule="evenodd" clip-rule="evenodd" fill="#d0d1d3"/><path d="M113.08 78.682a29.74 29.74 0 0 1 3.422 2.435 16.415 16.415 0 0 1 2.773 2.897c1.572 2.096 2.836 4.314 3.791 6.749a20.051 20.051 0 0 1 1.387 7.366c0 2.527-.463 4.992-1.418 7.334a27.928 27.928 0 0 1-3.76 6.75 15.504 15.504 0 0 1-2.773 2.896 27.982 27.982 0 0 1-3.391 2.404c-1.232.74-2.496 1.418-3.82 1.973a32.27 32.27 0 0 1-4.191 1.447c-1.48.402-2.959.709-4.5.895a80.147 80.147 0 0 1-4.746.492 81.884 81.884 0 0 1-4.715-.492 32.937 32.937 0 0 1-4.561-.895c-1.387-.4-2.804-.863-4.16-1.447a27.436 27.436 0 0 1-3.791-1.973 25.968 25.968 0 0 1-3.39-2.404 15.472 15.472 0 0 1-2.773-2.896 29.052 29.052 0 0 1-3.76-6.75c-.955-2.342-1.448-4.807-1.417-7.334a18.837 18.837 0 0 1 1.387-7.366 28.719 28.719 0 0 1 3.791-6.78 17.225 17.225 0 0 1 2.743-2.867 30.028 30.028 0 0 1 3.421-2.435c1.202-.708 2.465-1.387 3.791-1.941a35.214 35.214 0 0 1 4.16-1.479c1.51-.4 3.051-.678 4.592-.894 1.572-.185 3.113-.308 4.685-.308 1.604 0 3.143.123 4.715.308 1.541.216 3.051.493 4.531.894 1.447.401 2.834.894 4.191 1.479 1.321.555 2.585 1.234 3.786 1.942zm4.686 1.387c1.109.924 2.096 1.941 2.928 3.082 1.695 2.188 3.02 4.592 4.037 7.15a21.118 21.118 0 0 1 1.479 7.797c0 2.713-.523 5.301-1.51 7.828s-2.311 4.932-4.006 7.119c-.832 1.141-1.818 2.158-2.928 3.082a32.028 32.028 0 0 1-3.605 2.557 35.995 35.995 0 0 1-4.068 2.096 30.872 30.872 0 0 1-4.408 1.512c-1.57.461-3.174.77-4.807.955a54.048 54.048 0 0 1-5.023.523 54.88 54.88 0 0 1-4.993-.523 29.804 29.804 0 0 1-4.869-.955 35.287 35.287 0 0 1-4.407-1.512 37.426 37.426 0 0 1-4.006-2.096 29.3 29.3 0 0 1-3.606-2.557c-1.109-.924-2.096-1.941-2.927-3.082-1.665-2.188-2.99-4.592-4.006-7.119a20.687 20.687 0 0 1-1.51-7.828c0-2.681.493-5.3 1.479-7.797a31.117 31.117 0 0 1 4.038-7.18c.832-1.141 1.818-2.127 2.897-3.051a32.501 32.501 0 0 1 3.637-2.589 37.942 37.942 0 0 1 4.006-2.065c1.479-.616 2.928-1.14 4.407-1.541 1.603-.431 3.236-.771 4.9-.955a37.931 37.931 0 0 1 4.962-.339c1.695 0 3.359.123 4.992.339 1.664.185 3.268.524 4.838.955 1.512.401 2.99.925 4.408 1.541a35.69 35.69 0 0 1 4.037 2.065 32.83 32.83 0 0 1 3.634 2.588z" fill="none" stroke="#808183" stroke-width=".38" stroke-linecap="round" stroke-linejoin="round" stroke-miterlimit="2.613"/><path fill-rule="evenodd" clip-rule="evenodd" d="M127.227 98.314h-.463l-.401 4.192h.432l.432-4.192zM126.363 94.184l.4 4.13h.463c-.092-1.387-.277-2.805-.432-4.223v-.03l-.431.123zM125.162 90.301v.061h.031l-.031-.061z"/><path fill-rule="evenodd" clip-rule="evenodd" d="M125.193 90.362l1.17 3.822.432-.123-1.141-3.914v-.031l-.461.246z"/><path d="M123.344 86.695l-.094-.092 1.912 3.759.492-.246c-.646-1.233-1.293-2.528-1.91-3.76l-.062-.031-.338.37zM68.425 86.603l-.031.092 2.527-3.39-.339-.37c-.863 1.171-1.756 2.281-2.62 3.421l.463.247z" fill-rule="evenodd" clip-rule="evenodd"/><path fill-rule="evenodd" clip-rule="evenodd" d="M66.576 90.301v.061l1.849-3.759-.462-.247-1.88 3.76v.031l.493.154z"/><path d="M65.375 94.091v.093l1.202-3.883-.493-.154c-.4 1.325-.801 2.619-1.202 3.914v.03h.493z" fill-rule="evenodd" clip-rule="evenodd"/><path fill-rule="evenodd" clip-rule="evenodd" d="M64.974 98.314l.401-4.223h-.494l-.401 4.223h.494zM64.974 98.314h-.494c.124 1.416.278 2.803.401 4.191v.061l.493-.123-.4-4.129zM125.562 98.314h-.462l-.401 3.883h.463l.4-3.883zM124.699 94.461l.4 3.853h.463c-.123-1.295-.277-2.651-.4-3.977l-.463.124zM123.559 90.763v.031h.062l-.062-.031z"/><path d="M123.621 90.794l1.078 3.667.463-.124c-.34-1.233-.74-2.465-1.109-3.698v-.031l-.432.186z" fill-rule="evenodd" clip-rule="evenodd"/><path fill-rule="evenodd" clip-rule="evenodd" d="M121.863 87.435l-.092-.031 1.788 3.39.494-.185-1.85-3.513-.34.339zM68.148 90.763v.031l1.757-3.391-.462-.247c-.616 1.171-1.171 2.312-1.757 3.483l.462.124z"/><path d="M67.039 94.43v.031l1.109-3.698-.462-.123c-.37 1.263-.77 2.558-1.109 3.79h.462z" fill-rule="evenodd" clip-rule="evenodd"/><path fill-rule="evenodd" clip-rule="evenodd" d="M66.607 98.314l.432-3.884h-.463l-.462 3.884h.493z"/><path d="M66.607 98.314h-.493c.185 1.324.339 2.65.462 3.975l.462-.123-.431-3.852z" fill-rule="evenodd" clip-rule="evenodd"/><path d="M56.869 75.724c-1.048 0-2.127 0-3.174-.031-1.048-.031-2.096-.093-3.144-.123l-4.715-.092h-6.934c-4.5.031-9 .092-13.468.215-1.048.031-2.096.031-3.113.031-.493 0-.956-.031-1.449-.062-.585-.062-1.202-.123-1.818-.215-.647-.062-1.294-.154-1.972-.247-.555-.03-1.11-.092-1.695-.154-.37-.031-.74 0-1.141.092a3.01 3.01 0 0 0-1.387.555c-.4.309-.647.709-.801 1.202-.124.493-.062.955.215 1.387a4.333 4.333 0 0 0 1.387 1.51c.678.463 1.356.863 2.034 1.264 0 .493.062.956.154 1.356.124.462.309.863.617 1.264.277.37.617.74 1.017 1.017.462.339.924.647 1.448.894.462.216.955.432 1.479.617.123.37.277.739.462 1.079.247.462.555.863.925 1.202.432.432.894.801 1.356 1.11a8.662 8.662 0 0 0 1.603.801c.493.215 1.017.37 1.541.524.092.462.215.832.431 1.202a4.09 4.09 0 0 0 1.079 1.109c.555.37 1.14.678 1.756.925.647.247 1.294.462 1.973.616.616.123 1.263.216 1.849.308.062.309.154.555.246.771.277.524.617.925 1.017 1.294.462.4.986.678 1.572.863.647.246 1.294.4 1.911.492.986.154 1.972.246 2.959.309.123.309.247.555.4.801.308.463.708.863 1.171 1.141.524.34 1.079.555 1.695.648a16.08 16.08 0 0 0 2.126.215c1.048 0 2.126-.031 3.174-.186.308.555.647.986 1.047 1.357.401.369.894.615 1.479.738.647.154 1.325.186 2.034.154a16.416 16.416 0 0 0 2.064-.246 13.951 13.951 0 0 0 1.633-.4c.124.246.278.461.432.678.277.338.585.586.956.771.4.184.832.275 1.232.275.493 0 .956-.061 1.417-.152a61.042 61.042 0 0 0 2.312-.494c.154.154.308.309.524.432.37.246.74.432 1.14.523a6.3 6.3 0 0 0 1.326.217 7.07 7.07 0 0 0 1.387-.123c.585-.125 1.14-.248 1.726-.432.277.338.586.615.956.832.37.215.77.369 1.171.432.494.061.986.061 1.449 0a6.642 6.642 0 0 0 1.356-.309c.37-.123.74-.246 1.079-.371.215-.801.4-1.602.555-2.402.123-.771.216-1.541.247-2.312.031-.801.062-1.664.062-2.496-.031-.955-.062-1.879-.062-2.835 0-1.14.031-2.281.062-3.42a16.83 16.83 0 0 1 .493-3.236 9.5 9.5 0 0 1 .986-2.312 7.694 7.694 0 0 1 1.326-1.664c.4-.432.801-.832 1.232-1.202.339-.246.678-.523.986-.801.215-.154.431-.37.617-.585.185-.216.369-.462.493-.739.154-.247.277-.493.308-.74 0-.369 0-.708-.092-1.047a2.402 2.402 0 0 0-.647-1.233 6.425 6.425 0 0 0-2.25-1.603 15.113 15.113 0 0 0-3.883-1.079 46.602 46.602 0 0 0-4.654-.339 65.157 65.157 0 0 0-4.222.031 97.88 97.88 0 0 0-2.928.154c-1.664.123-3.328.185-5.023.246-1.017.028-2.065.028-3.112.028z" fill-rule="evenodd" clip-rule="evenodd" fill="#d0d1d3"/><path d="M53.694 75.693c-1.048-.031-2.096-.093-3.144-.123l-4.715-.092h-6.934c-4.5.031-9 .092-13.468.215-1.048.031-2.096.031-3.113.031-.493 0-.956-.031-1.449-.062-.585-.062-1.202-.123-1.818-.215-.647-.062-1.294-.154-1.972-.247-.555-.03-1.11-.092-1.695-.154-.37-.031-.74 0-1.141.092a3.01 3.01 0 0 0-1.387.555c-.4.309-.647.709-.801 1.202-.124.493-.062.955.215 1.387a4.333 4.333 0 0 0 1.387 1.51c.678.463 1.356.863 2.034 1.264 0 .493.062.956.154 1.356.124.462.309.863.617 1.264.277.37.617.74 1.017 1.017.462.339.924.647 1.448.894.462.216.955.432 1.479.617.123.37.277.739.462 1.079.247.462.555.863.925 1.202.432.432.894.801 1.356 1.11a8.662 8.662 0 0 0 1.603.801c.493.215 1.017.37 1.541.524.092.462.215.832.431 1.202a4.09 4.09 0 0 0 1.079 1.109c.555.37 1.14.678 1.756.925.647.247 1.294.462 1.973.616.616.123 1.263.216 1.849.308.062.309.154.555.246.771.277.524.617.925 1.017 1.294.462.4.986.678 1.572.863.647.246 1.294.4 1.911.492.986.154 1.972.246 2.959.309.123.309.247.555.4.801.308.463.708.863 1.171 1.141.524.34 1.079.555 1.695.648a16.08 16.08 0 0 0 2.126.215c1.048 0 2.126-.031 3.174-.186.308.555.647.986 1.047 1.357.401.369.894.615 1.479.738.647.154 1.325.186 2.034.154a16.416 16.416 0 0 0 2.064-.246 13.951 13.951 0 0 0 1.633-.4c.124.246.278.461.432.678.277.338.585.586.956.771.4.184.832.275 1.232.275.493 0 .956-.061 1.417-.152a61.042 61.042 0 0 0 2.312-.494c.154.154.308.309.524.432.37.246.74.432 1.14.523a6.3 6.3 0 0 0 1.326.217 7.07 7.07 0 0 0 1.387-.123c.585-.125 1.14-.248 1.726-.432.277.338.586.615.956.832.37.215.77.369 1.171.432.494.061.986.061 1.449 0a6.642 6.642 0 0 0 1.356-.309c.37-.123.74-.246 1.079-.371.215-.801.4-1.602.555-2.402.123-.771.216-1.541.247-2.312.031-.801.062-1.664.062-2.496-.031-.955-.062-1.879-.062-2.835 0-1.14.031-2.281.062-3.42a16.83 16.83 0 0 1 .493-3.236 9.5 9.5 0 0 1 .986-2.312 7.694 7.694 0 0 1 1.326-1.664c.4-.432.801-.832 1.232-1.202.339-.246.678-.523.986-.801.215-.154.431-.37.617-.585.185-.216.369-.462.493-.739.154-.247.277-.493.308-.74 0-.369 0-.708-.092-1.047a2.402 2.402 0 0 0-.647-1.233 6.425 6.425 0 0 0-2.25-1.603 15.113 15.113 0 0 0-3.883-1.079 46.602 46.602 0 0 0-4.654-.339 65.157 65.157 0 0 0-4.222.031 97.88 97.88 0 0 0-2.928.154c-1.664.123-3.328.185-5.023.246-1.017.031-2.065.031-3.112.031-1.047-.003-2.126-.003-3.174-.034z" fill="none" stroke="#808183" stroke-width=".38" stroke-linecap="round" stroke-linejoin="round" stroke-miterlimit="2.613"/><path d="M146.889 75.478c-1.541.031-3.082.062-4.654.092-1.047.03-2.064.092-3.111.123-1.08.031-2.189.031-3.268.031-1.047 0-2.064 0-3.113-.031-1.633-.062-3.297-.123-4.992-.246a83.437 83.437 0 0 0-2.896-.154 66.727 66.727 0 0 0-4.314-.031 46.662 46.662 0 0 0-4.623.339c-1.355.186-2.65.555-3.914 1.079-.832.37-1.57.894-2.188 1.603a3.352 3.352 0 0 0-.617 1.233 2.965 2.965 0 0 0-.092 1.047c.031.247.092.493.246.74.123.277.309.523.523.739.186.216.402.432.617.617.523.431 1.018.863 1.572 1.325.492.4.955.894 1.387 1.417a8.605 8.605 0 0 1 1.141 2.003c.369.894.615 1.818.738 2.743.186 1.14.277 2.312.277 3.451a52.38 52.38 0 0 1-.092 3.144v2.619c.031.801.092 1.604.154 2.404.092.801.215 1.572.4 2.342.123.4.215.801.369 1.201a9.98 9.98 0 0 0 1.635.525c.523.092.986.154 1.479.184.432.031.895-.029 1.326-.184a3.361 3.361 0 0 0 1.109-.617c.184-.123.338-.309.461-.492.555.184 1.078.338 1.635.432.461.092.924.123 1.355.123a6.27 6.27 0 0 0 1.324-.217 3.496 3.496 0 0 0 1.203-.523c.215-.123.4-.277.555-.432.738.186 1.479.34 2.279.494a8.08 8.08 0 0 0 1.48.152c.4 0 .801-.092 1.139-.275.402-.186.74-.463.986-.803.186-.186.34-.4.463-.646.555.154 1.078.309 1.633.4.68.123 1.357.215 2.066.246.678.031 1.355 0 2.002-.154a3.098 3.098 0 0 0 1.449-.738 4.3 4.3 0 0 0 1.078-1.357c1.078.154 2.127.217 3.205.217a15.392 15.392 0 0 0 2.035-.246c.615-.094 1.201-.34 1.756-.68.463-.246.863-.646 1.201-1.109.186-.246.309-.492.4-.801a43.167 43.167 0 0 0 1.912-.154 22.248 22.248 0 0 0 1.973-.369 5.828 5.828 0 0 0 1.848-.678c.494-.217.895-.586 1.234-1.018.307-.432.553-.956.707-1.51a34.018 34.018 0 0 0 1.881-.308c.678-.154 1.355-.37 2.004-.616a9.069 9.069 0 0 0 1.693-.925c.463-.308.832-.678 1.08-1.109.215-.37.369-.739.432-1.202a13.443 13.443 0 0 0 1.57-.524 8.843 8.843 0 0 0 1.604-.833 6.997 6.997 0 0 0 1.293-1.079c.402-.338.74-.77.957-1.232.215-.339.369-.678.461-1.048a7.608 7.608 0 0 0 2.219-.986 6.83 6.83 0 0 0 1.264-.986c.371-.339.648-.709.832-1.171.217-.4.371-.832.432-1.263.031-.247.031-.493.031-.74.678-.4 1.355-.801 1.973-1.264a4.742 4.742 0 0 0 1.418-1.51c.246-.432.309-.894.186-1.387-.125-.493-.402-.863-.803-1.171a2.473 2.473 0 0 0-1.355-.585 3.512 3.512 0 0 0-1.141-.092c-.586.062-1.141.124-1.727.154-.646.093-1.324.185-1.971.247-.617.092-1.234.153-1.85.215a19.02 19.02 0 0 1-1.355.062c-1.08 0-2.127 0-3.176-.031a656.557 656.557 0 0 0-13.498-.215l-6.932-.001z" fill-rule="evenodd" clip-rule="evenodd" fill="#d0d1d3"/><path d="M146.889 75.478h6.934c4.5.031 8.969.092 13.498.215 1.049.031 2.096.031 3.176.031.461 0 .924-.031 1.355-.062.615-.062 1.232-.123 1.85-.215a42.94 42.94 0 0 0 1.971-.247c.586-.03 1.141-.092 1.727-.154.4-.031.771 0 1.141.092.555.062.986.277 1.355.585.4.309.678.678.803 1.171.123.493.061.955-.186 1.387a4.753 4.753 0 0 1-1.418 1.51c-.617.463-1.295.863-1.973 1.264 0 .247 0 .493-.031.74a3.797 3.797 0 0 1-.432 1.263 3.117 3.117 0 0 1-.832 1.171 6.83 6.83 0 0 1-1.264.986 7.582 7.582 0 0 1-2.219.986c-.092.37-.246.709-.461 1.048a3.693 3.693 0 0 1-.957 1.232c-.4.432-.83.771-1.293 1.079a8.81 8.81 0 0 1-1.604.833c-.523.215-1.016.37-1.57.524a3.137 3.137 0 0 1-.432 1.202c-.248.432-.617.801-1.08 1.109a9.069 9.069 0 0 1-1.693.925c-.648.247-1.326.462-2.004.616-.617.123-1.232.216-1.881.308a4.882 4.882 0 0 1-.707 1.51c-.34.432-.74.801-1.234 1.018a5.82 5.82 0 0 1-1.848.678c-.648.154-1.326.277-1.973.369-.648.062-1.295.123-1.912.154a2.42 2.42 0 0 1-.4.801c-.338.463-.738.863-1.201 1.109-.555.34-1.141.586-1.756.68-.68.123-1.357.215-2.035.246-1.078 0-2.127-.062-3.205-.217a4.288 4.288 0 0 1-1.078 1.357c-.4.369-.895.615-1.449.738-.646.154-1.324.186-2.002.154a15.222 15.222 0 0 1-2.066-.246c-.555-.092-1.078-.246-1.633-.4a2.443 2.443 0 0 1-.463.646c-.246.34-.584.617-.986.803a2.4 2.4 0 0 1-1.139.275c-.494 0-.986-.061-1.48-.152a41.529 41.529 0 0 1-2.279-.494c-.154.154-.34.309-.555.432a3.477 3.477 0 0 1-1.203.523 6.28 6.28 0 0 1-1.324.217 6.94 6.94 0 0 1-1.355-.123 10.907 10.907 0 0 1-1.635-.432 1.774 1.774 0 0 1-.461.492c-.371.309-.74.494-1.109.617a3.296 3.296 0 0 1-1.326.184 12.648 12.648 0 0 1-1.479-.184 10.109 10.109 0 0 1-1.635-.525c-.154-.4-.246-.801-.369-1.201a19.051 19.051 0 0 1-.4-2.342 62.66 62.66 0 0 1-.154-2.404v-2.619c.062-1.048.092-2.096.092-3.144a21.7 21.7 0 0 0-.277-3.451 10.984 10.984 0 0 0-.738-2.743 8.59 8.59 0 0 0-1.141-2.003c-.432-.524-.895-1.017-1.387-1.417-.555-.462-1.049-.894-1.572-1.325a5.892 5.892 0 0 1-.617-.617 2.497 2.497 0 0 1-.523-.739 1.756 1.756 0 0 1-.246-.74c-.031-.369 0-.708.092-1.047.125-.462.34-.894.617-1.233a6.2 6.2 0 0 1 2.188-1.603 15.72 15.72 0 0 1 3.914-1.079 46.662 46.662 0 0 1 4.623-.339c1.449-.03 2.865-.03 4.314.031.986.031 1.941.092 2.896.154 1.695.123 3.359.185 4.992.246 1.049.031 2.066.031 3.113.031 1.078 0 2.188 0 3.268-.031 1.047-.031 2.064-.093 3.111-.123l4.652-.091z" fill="none" stroke="#808183" stroke-width=".38" stroke-linecap="round" stroke-linejoin="round" stroke-miterlimit="2.613"/><path d="M117.703 81.641a2.61 2.61 0 0 0-.709.708c-.246.37-.369.74-.4 1.141 0 .616.123 1.233.371 1.818.215.493.461.956.801 1.387.34.431.678.863 1.078 1.263.432.462.895.863 1.355 1.264.277.247.586.462.895.647l.369-.124.277-.308c0-.154-.031-.308-.031-.462a5.243 5.243 0 0 0-.246-.647c.494.154.986.247 1.48.308.184.031.338 0 .523-.062l.215-.493-.184-.801c.463.185.955.37 1.447.524l.494-.185.246-.585-.369-1.14c.4.093.801.154 1.201.185a.98.98 0 0 0 .523-.062l.217-.524-.463-.832c.432 0 .832-.062 1.203-.154.184-.031.338-.092.492-.215l.123-.432-.246-.585c.246 0 .523-.031.738-.092.186-.031.371-.093.525-.154l.246-.432-.154-.462-.617-.463h.74c.123-.123.246-.215.34-.369.123-.124.215-.278.277-.432l-.123-.401-.337-.154c-.74 0-1.51-.031-2.281-.031h-2.156c-.678-.03-1.387 0-2.096.031-.586 0-1.141.03-1.727.062l-1.109.185c-.709.154-1.387.339-2.033.586-.34.122-.618.276-.895.492zM132.619 80.223l-.309.37a.6.6 0 0 0 .279.277c.461.246.955.462 1.479.555a6.651 6.651 0 0 0 2.064.123 6.058 6.058 0 0 0 1.633-.432v-.555l-.461-.555-.986-.185c-.648.031-1.326.062-1.973.123-.554.095-1.14.187-1.726.279zM133.297 81.918c-.338-.031-.678 0-1.016.031-.246.031-.494.062-.74.123l-.062.185a.609.609 0 0 0 .154.277 2.7 2.7 0 0 0 .986.678 4.941 4.941 0 0 0 1.85.555c.555.092 1.078.092 1.572-.031.338-.062.586-.185.801-.4a.78.78 0 0 0 .246-.678c-.061-.062-.123-.154-.184-.185-.248-.154-.525-.277-.803-.401-.154 0-.277-.031-.4-.031a414.2 414.2 0 0 0-1.109-.092c-.432 0-.863-.031-1.295-.031zM126.672 87.805v.493c.186.185.338.339.492.463.525.462 1.08.832 1.664 1.109.74.431 1.48.739 2.25 1.017l.709-.278c.123-.215.186-.4.186-.616.062-.216.062-.432.062-.678l-.434-.524a2.967 2.967 0 0 1-.646-.277 66.76 66.76 0 0 0-1.324-.555 7.95 7.95 0 0 0-1.141-.308 5.399 5.399 0 0 0-1.018-.092c-.215 0-.432.03-.678.062l-.122.184zM125.654 89.253a.337.337 0 0 0-.246 0c-.062-.031-.123 0-.186.031a.835.835 0 0 0-.184.154l-.062.616c.154.185.309.401.463.586.432.431.893.801 1.355 1.14.246.216.494.37.771.493.246.186.555.216.832.186.307 0 .584-.031.832-.155l.215-.77a4.43 4.43 0 0 0-.678-.647 15.266 15.266 0 0 0-2.773-1.572c-.031 0-.123 0-.186-.031-.059-.031-.121-.062-.153-.031zM132.373 86.294a6.5 6.5 0 0 0-1.664-.678c-.154-.031-.34-.062-.523-.092-.217 0-.4.062-.555.185-.217.154-.4.34-.555.555.184.339.432.586.678.771.646.493 1.355.801 2.127.986a9.733 9.733 0 0 0 1.91.186l.123-.493-.186-.493a4.998 4.998 0 0 0-.432-.37 11.41 11.41 0 0 0-.923-.557zM133.02 84.168a39.114 39.114 0 0 0-2.002-.154c-.309 0-.617.062-.955.123-.032.123-.063.216-.063.278v.247c.217.216.494.431.74.585a9.42 9.42 0 0 0 2.033.832 3.164 3.164 0 0 0 1.695.093c.34-.062.678-.216.986-.432 0-.154-.031-.277-.031-.4 0-.124-.031-.216-.092-.37-.092-.062-.217-.154-.309-.185-.277-.154-.555-.278-.801-.401-.399-.062-.801-.124-1.201-.216zM133.668 90.147c-.186 0-.4.062-.617.154a4.087 4.087 0 0 1-.154.586c-.029.185 0 .37.094.555.092.247.277.401.523.524.492.277 1.018.523 1.572.739 1.139.462 2.279.894 3.451 1.325 1.418.524 2.865 1.048 4.283 1.479 1.51.493 3.051.863 4.592 1.233 1.295.277 2.559.492 3.883.646.371.031.74.031 1.109 0a4.401 4.401 0 0 0 1.08-.215c.277-.062.584-.123.861-.246.277-.062.525-.186.771-.309.215-.123.463-.217.678-.371a.803.803 0 0 0 .309-.184v-.124c0-.062 0-.093-.031-.154-.031-.093-.061-.154-.092-.247a328.651 328.651 0 0 0-6.996-1.664 352.913 352.913 0 0 1-5.393-1.264 156.41 156.41 0 0 1-5.055-1.387 591.436 591.436 0 0 0-3.729-1.017c-.369-.059-.739-.121-1.139-.059zM143.066 81.579c-.646-.031-1.293-.031-1.941-.031a9.31 9.31 0 0 0-1.572.123 6.804 6.804 0 0 0-.984.278l-.154.308a.842.842 0 0 0 .277.37c.246.216.555.37.861.462.557.185 1.08.339 1.635.401 1.264.185 2.496.339 3.76.493 1.91.215 3.822.37 5.732.523 2.279.185 4.561.309 6.871.432 2.404.124 4.84.216 7.244.277 1.387.031 2.773 0 4.16-.031a7.94 7.94 0 0 0 1.416-.216c.432-.092.895-.246 1.357-.4.4-.154.77-.339 1.17-.555.309-.154.586-.37.832-.586.217-.216.402-.493.555-.801.031-.062.031-.123.031-.247l-.184-.123h-.557c-2.248 0-4.529.031-6.84.062h-4.531c-2.033 0-4.068-.031-6.102-.062a44.67 44.67 0 0 1-2.004-.062c-1.17-.062-2.342-.124-3.543-.154-1.326-.092-2.65-.185-4.008-.246a132.099 132.099 0 0 1-3.481-.215zM140.879 80.47c1.141.092 2.25.124 3.391.124 1.57.031 3.174.092 4.775.123 1.635.031 3.236.062 4.84.062 2.496.031 4.961.031 7.457 0 1.449 0 2.959-.03 4.438-.092a70.898 70.898 0 0 0 5.146-.462 26.879 26.879 0 0 0 4.439-.832 7.655 7.655 0 0 0 2.527-1.202c.277-.154.492-.37.707-.709l-.123-.585a2.416 2.416 0 0 0-.492-.216 6.28 6.28 0 0 0-.74-.154l-.832-.092-3.391.092c-1.355.031-2.742.031-4.129.031l-4.129.092c-1.203.031-2.373.031-3.545.031l-2.127.092c-.832.031-1.693.124-2.557.185-1.449.123-2.898.277-4.377.432-1.664.185-3.328.4-5.023.616-1.418.216-2.865.432-4.344.647-.863.154-1.758.369-2.621.616a5.993 5.993 0 0 0-.895.431v.37l.248.277c.433.092.894.123 1.357.123zM139.4 84.507a6.372 6.372 0 0 0-1.326.031 7.985 7.985 0 0 1-.4.093c-.062.216-.123.462-.092.709 0 .185.061.308.184.4.309.216.648.37.986.462.832.215 1.635.401 2.436.555 1.633.308 3.236.585 4.838.863 2.096.339 4.16.647 6.256.956 2.158.339 4.346.585 6.504.801 1.879.185 3.76.216 5.607.062a7.133 7.133 0 0 0 3.021-.832c.615-.309 1.17-.678 1.664-1.202l-.617-.308a205.465 205.465 0 0 1-6.07-.37c-2.312-.185-4.686-.401-7.027-.585-2.465-.216-4.9-.462-7.334-.678-1.973-.216-3.945-.462-5.918-.678a39.546 39.546 0 0 0-2.712-.279zM135.578 88.39c.092.309.246.524.463.678.432.277.893.462 1.355.616 1.172.339 2.342.647 3.482.925 1.604.37 3.236.709 4.869 1.079 1.695.37 3.391.708 5.055 1.078 1.324.247 2.65.493 3.945.709.709.092 1.387.154 2.064.154.586.031 1.17 0 1.725-.092.555-.03 1.109-.123 1.664-.185.863-.124 1.666-.339 2.436-.709.246-.123.463-.277.678-.462v-.215l-.123-.216c-.031 0-.092 0-.154-.031h-.123c-1.818-.308-3.668-.585-5.547-.894a138.146 138.146 0 0 1-5.918-.955 198.638 198.638 0 0 1-6.133-1.109c-1.695-.278-3.359-.616-5.084-.956-.926-.185-1.85-.37-2.773-.524-.463-.031-.895-.031-1.326.093-.215.03-.432.154-.646.308-.001.276.029.492.091.708zM147.443 100.07c.369-.062.74-.186 1.047-.34l.186-.369-.092-.338c-.34-.186-.678-.309-1.049-.463a148.05 148.05 0 0 1-4.869-1.664c-1.324-.463-2.65-.987-3.975-1.51-1.232-.463-2.467-.986-3.76-1.479a47.538 47.538 0 0 1-3.391-1.51l-.246.247c-.123.123-.246.247-.371.339-.215.154-.4.247-.584.37-.277.215-.586.4-.895.585a28.436 28.436 0 0 0 2.188 1.572 22.03 22.03 0 0 0 4.314 2.219c.957.369 1.881.709 2.805 1.047.771.248 1.48.494 2.219.709a8.64 8.64 0 0 0 1.264.309c.432.123.895.186 1.326.246.463.094.924.123 1.387.154.432.031.893.062 1.355.062.401-.031.772-.063 1.141-.186zM138.691 102.043c.277 0 .555-.062.832-.123a5.295 5.295 0 0 0 1.078-.4l.123-.432-.123-.371c-.154-.061-.309-.152-.492-.246-.771-.309-1.572-.615-2.373-.955-.955-.4-1.912-.832-2.867-1.264-.955-.463-1.879-.924-2.805-1.387a464.177 464.177 0 0 1-3.666-1.911 2.057 2.057 0 0 1-.371.185c-.123.093-.246.154-.4.247-.123.062-.246.154-.369.185-.248.185-.494.308-.74.462.277.186.523.432.771.617.369.307.709.584 1.078.832a28.352 28.352 0 0 0 2.711 1.879c.432.277.895.523 1.295.771.646.369 1.295.678 1.941.955a8.925 8.925 0 0 0 1.727.586 7.004 7.004 0 0 0 1.479.277c.4.062.8.093 1.171.093zM126.24 91.965c-.186-.123-.369-.216-.555-.339a8.441 8.441 0 0 0-1.51-.708c-.371-.154-.771-.216-1.172-.247l-.154.555c.094.216.186.4.34.555.277.37.586.708.955 1.017.432.37.895.709 1.387.986.277-.031.555-.092.801-.154.217-.062.402-.154.586-.277l.092-.586-.77-.802zM122.85 92.52a7.963 7.963 0 0 0-1.016-.617c-.4-.185-.803-.339-1.203-.523l-.492.246-.123.555c.277.493.555.956.863 1.356.246.401.555.771.861 1.141.217.185.432.37.678.462.279.124.525.154.771.093.369-.124.74-.309 1.109-.555a2.104 2.104 0 0 0-.154-.524c-.369-.617-.769-1.172-1.294-1.634zM123.93 97.389c-.217.062-.432.154-.68.217.309.369.586.738.895 1.078.555.646 1.201 1.232 1.85 1.787.555.523 1.141.955 1.756 1.326.555.338 1.141.615 1.727.832.461.184.955.338 1.447.4.494.092.986.123 1.512.123l.338-.277v-.432c-.061-.154-.184-.277-.309-.4a6.025 6.025 0 0 0-.832-.678 95.589 95.589 0 0 0-1.879-1.295c-.523-.369-1.078-.74-1.633-1.109s-1.141-.74-1.727-1.109c-.432-.309-.895-.617-1.355-.955a.765.765 0 0 1-.34.186 1.323 1.323 0 0 1-.369.123c-.124.06-.278.122-.401.183zM122.727 102.289c.371.34.74.646 1.141.895.277.246.586.4.895.461.4.094.832.125 1.232.125.092-.186.154-.34.184-.494.031-.186.062-.4.062-.586a2.8 2.8 0 0 0-.338-.492c-.557-.523-1.08-1.08-1.635-1.633a67.892 67.892 0 0 1-2.527-2.559c-.092.061-.215.092-.369.123-.062.061-.154.092-.277.123-.092.031-.215.092-.309.123-.123.031-.215.062-.369.062-.062.061-.154.092-.277.123.215.463.463.893.678 1.324.246.463.523.863.832 1.232.368.433.707.804 1.077 1.173zM119.953 93.537a12.82 12.82 0 0 0-1.109-.832l-.523.124-.215.493c.121.401.246.833.4 1.171.152.371.307.679.492.956.123.246.277.4.463.493.246.154.492.247.738.247.217 0 .432-.062.586-.186s.246-.277.246-.462c0-.308-.092-.617-.246-.924-.215-.402-.492-.741-.832-1.08zM119.922 101.148c-.4-.4-.77-.863-1.139-1.293l-1.295 2.773c.246.4.555.77.863 1.078.4.338.832.586 1.324.709.277.092.555.092.832-.031.246-.092.463-.277.586-.463.186-.215.34-.461.4-.77a14.367 14.367 0 0 1-.615-.863c-.339-.399-.648-.768-.956-1.14zM16.404 76.433c-.247.031-.524.062-.833.092-.246.031-.523.093-.801.154-.154.062-.309.124-.524.216l-.092.585c.185.339.401.555.678.709a7.948 7.948 0 0 0 2.527 1.202c1.449.4 2.897.678 4.407.832 1.695.216 3.42.37 5.146.462 1.51.062 3.02.092 4.53.092 2.465.031 4.931.031 7.427 0a244 244 0 0 0 4.869-.062c1.603-.031 3.205-.092 4.808-.123 1.11 0 2.219-.031 3.359-.124a6.89 6.89 0 0 0 1.356-.124l.216-.277c0-.092-.031-.216-.062-.37-.062-.092-.123-.215-.216-.338-.185-.093-.37-.154-.555-.216-.862-.185-1.756-.339-2.619-.493-1.479-.216-2.928-.432-4.438-.647a234.159 234.159 0 0 0-4.961-.616c-1.479-.154-2.928-.309-4.407-.432-.801-.062-1.664-.154-2.496-.185l-2.188-.092c-1.171 0-2.342 0-3.514-.031-1.387-.031-2.774-.062-4.191-.092-1.356 0-2.711 0-4.068-.031l-3.358-.091zM19.116 82.257h-.555l-.154.123c0 .124 0 .185.031.247.185.308.4.585.647.801a4.907 4.907 0 0 0 2.003 1.202c.432.124.894.247 1.356.339.432.123.863.185 1.326.216 1.417.031 2.835.062 4.222.031 2.404-.062 4.808-.154 7.211-.277 2.312-.123 4.592-.247 6.873-.432 1.911-.154 3.821-.308 5.763-.523 1.232-.154 2.465-.309 3.698-.493a7.293 7.293 0 0 0 1.664-.401c.37-.093.647-.247.894-.462a.838.838 0 0 0 .278-.37l-.154-.308a5.452 5.452 0 0 0-1.018-.278 9.034 9.034 0 0 0-1.571-.123c-.647 0-1.294 0-1.972.031-1.171.092-2.342.154-3.514.216-1.325.062-2.65.154-3.975.246-1.171.031-2.343.093-3.514.154-.647.031-1.325.062-1.972.062-2.034.031-4.068.062-6.102.062h-4.592a487.934 487.934 0 0 0-6.873-.063zM24.325 87.096l-.616.308c.123.216.277.37.431.524.802.585 1.634.986 2.558 1.202a18.3 18.3 0 0 0 4.315.4 133.96 133.96 0 0 0 6.163-.524c2.188-.277 4.346-.555 6.503-.894 1.911-.277 3.821-.616 5.732-.986 1.263-.215 2.496-.462 3.729-.709.493-.092.986-.215 1.418-.4.277-.123.524-.247.739-.401v-.647l-.247-.339c-.124-.031-.216-.062-.37-.093a6.024 6.024 0 0 0-1.294-.031 38.22 38.22 0 0 0-2.712.278c-2.003.215-3.945.462-5.917.678-2.435.216-4.9.462-7.365.678-2.342.185-4.715.4-7.058.585-2.003.155-4.006.278-6.009.371zM55.451 80.007l-.493.555.092.555.524.462c.708.062 1.417.062 2.096 0a7.783 7.783 0 0 0 1.88-.339c.247-.062.462-.154.678-.278l.216-.369c-.37-.185-.708-.339-1.079-.432a7.304 7.304 0 0 0-2.003-.277c-.338-.031-.647-.062-.955-.062l-.956.185zM56.684 82.072a3.415 3.415 0 0 0-.801.462.508.508 0 0 0-.154.37c.031.185.093.339.247.431.185.216.432.339.709.4a4.296 4.296 0 0 0 1.664.031c.617-.062 1.202-.247 1.757-.493.4-.216.74-.432 1.047-.74a.588.588 0 0 0 .154-.277l-.123-.185c-.216-.062-.432-.092-.647-.123-.369-.031-.739-.062-1.14-.031-.4 0-.832.031-1.233.031-.37.031-.709.062-1.048.092-.124.002-.279.032-.432.032zM52.523 87.805c-1.695.339-3.39.678-5.085.956-2.064.4-4.099.77-6.194 1.109-2.743.524-5.547.955-8.321 1.356a91.456 91.456 0 0 1-3.082.493h-.123c-.031.031-.092.031-.154.031l-.154.216.031.215c.216.185.462.339.678.462.37.185.709.308 1.048.4.462.124.924.216 1.356.277.555.093 1.109.186 1.664.216.586.092 1.171.124 1.757.092.678 0 1.325-.062 2.003-.154 1.325-.216 2.65-.462 3.976-.709 1.726-.37 3.39-.708 5.055-1.078 1.664-.37 3.297-.709 4.931-1.079a68.846 68.846 0 0 0 3.421-.925c.462-.154.924-.338 1.356-.616.247-.154.431-.37.524-.678a.721.721 0 0 0-.093-.616.644.644 0 0 0-.524-.4c-.4-.124-.863-.124-1.294-.093-.926.155-1.82.34-2.776.525zM57.269 85.339c.154.246.247.523.37.801.462.092.955.123 1.448.123a6.245 6.245 0 0 0 1.972-.524c.524-.216.986-.493 1.449-.801l.277-.277c0-.092-.031-.154-.031-.247a1.448 1.448 0 0 1-.092-.277c-.338-.062-.647-.123-.955-.123-.678.03-1.325.092-2.003.154-.4.092-.801.153-1.202.215-.216.123-.462.277-.709.432-.185.154-.37.339-.524.524zM71.045 80.377a33.224 33.224 0 0 0-1.756-.062c-.709-.031-1.387-.062-2.096-.031h-2.096c-.77 0-1.541.031-2.311.031l-.37.154-.123.401.154.493.493.308h.709l-.617.463-.124.462.216.432c.185.062.37.123.524.154.276.062.523.092.77.092l-.277.585.123.432a.723.723 0 0 0 .432.215c.431.093.863.154 1.263.154l-.4.832.124.524c.185.062.37.093.524.062.431-.03.832-.092 1.232-.185l-.339 1.14.154.585c.185.062.37.062.555.031a6.514 6.514 0 0 0 1.479-.37l-.216.801.247.493c.185.062.37.092.555.062a7.91 7.91 0 0 0 1.479-.308l-.37.647.062.462.216.308.462.124c.277-.186.555-.401.832-.617.462-.4.925-.863 1.356-1.325.37-.37.74-.802 1.079-1.233.339-.432.585-.894.801-1.387.216-.585.339-1.202.309-1.818 0-.401-.123-.801-.37-1.171a2.452 2.452 0 0 0-.616-.647 4.704 4.704 0 0 0-.924-.523c-.678-.247-1.356-.462-2.065-.586-.372-.061-.71-.122-1.08-.184zM63.463 85.894a.516.516 0 0 0-.216-.309 5.016 5.016 0 0 0-.709-.062 14.37 14.37 0 0 1-.523.092c-.339.124-.709.278-1.079.432a8.229 8.229 0 0 0-1.017.555c-.308.185-.555.4-.771.647-.123.154-.246.308-.308.462l.154.493c.647 0 1.294-.062 1.911-.186.771-.185 1.51-.432 2.219-.801a3.15 3.15 0 0 0 .493-.401 7.022 7.022 0 0 0-.154-.922zM59.55 90.362a.556.556 0 0 0-.462-.215c-.401-.062-.771 0-1.14.062-1.233.339-2.497.678-3.729 1.017a138.21 138.21 0 0 1-5.085 1.387c-1.756.431-3.575.863-5.393 1.264a283.47 283.47 0 0 0-6.965 1.664c0 .092-.062.154-.092.247-.031.062-.062.092-.093.154v.124c.154.092.309.154.432.246.216.092.4.186.617.309.246.123.493.246.739.309.339.123.616.215.925.277a6.545 6.545 0 0 0 2.188.184 42.649 42.649 0 0 0 3.883-.646c1.541-.37 3.051-.74 4.53-1.233 1.479-.432 2.928-.956 4.346-1.479 1.14-.432 2.28-.863 3.421-1.325.554-.216 1.047-.462 1.572-.708.216-.154.4-.308.555-.555.062-.185.092-.37.062-.555-.034-.22-.157-.373-.311-.528zM61.122 88.791l-.401.524.277 1.294.709.278c.77-.278 1.51-.586 2.188-.956.647-.339 1.202-.709 1.633-1.232a2.44 2.44 0 0 0 .555-.894 2.778 2.778 0 0 0-.524-.247c-.216-.031-.432-.062-.709-.031-.37.061-.739.123-1.109.247-.432.123-.863.277-1.294.432-.432.215-.894.4-1.325.585zM67.716 89.438c-.062-.062-.092-.092-.154-.123a.35.35 0 0 0-.247-.093h-.154a.947.947 0 0 0-.246.062c-.031.031-.124.031-.186.031-.616.339-1.202.678-1.756 1.017-.555.37-1.079.771-1.603 1.202l.154.77.37.309c.339-.062.647-.092.955-.154.247-.093.462-.155.678-.309.4-.247.771-.524 1.079-.863.4-.37.771-.801 1.109-1.233v-.616h.001zM71.876 93.537c.309-.4.586-.863.833-1.356l-.124-.555-.462-.246c-.4.185-.801.338-1.171.523-.339.185-.678.4-1.048.617a7.65 7.65 0 0 0-.863 1.109c-.215.309-.4.678-.524 1.048.309.246.647.431.986.555.277.062.555.031.801-.093.246-.092.462-.277.678-.462.34-.37.618-.739.894-1.14zM73.942 92.705a7.414 7.414 0 0 0-1.109.832c-.37.309-.647.709-.894 1.141a1.382 1.382 0 0 0-.185.863c.031.185.093.339.247.462a.76.76 0 0 0 .493.186c.278 0 .524-.093.771-.247.216-.093.37-.247.524-.493.185-.277.339-.585.462-.894.185-.4.308-.832.401-1.233l-.216-.493-.494-.124zM73.972 99.855a23.524 23.524 0 0 1-1.633 1.91c-.247.338-.524.678-.802.986-.092.154-.185.277-.277.4.031.154.062.309.123.432.031.154.062.277.124.4.246.154.493.309.771.4.277.123.585.123.862.031.463-.123.832-.371 1.202-.709a6.39 6.39 0 0 0 .925-1.078l-1.295-2.772zM72.617 98.561c-.062-.031-.154-.062-.277-.123-.093 0-.216-.031-.339-.062s-.247-.092-.37-.123c-.062-.031-.185-.062-.277-.123a.937.937 0 0 1-.308-.123 108.262 108.262 0 0 1-4.161 4.191 26.83 26.83 0 0 1-.4.492c0 .186.031.4.092.586 0 .154.062.309.154.494.186.029.339.061.524.061.246.031.523.031.801 0 .309-.186.617-.4.863-.646.4-.248.74-.555 1.079-.895.401-.369.74-.74 1.079-1.172.339-.369.647-.77.924-1.232.215-.433.431-.863.616-1.325zM68.641 92.797c.37-.309.678-.647.956-1.017.123-.154.215-.339.277-.555l-.185-.555c-.4.031-.771.093-1.141.247a9.014 9.014 0 0 0-1.448.708c-.185.124-.339.216-.524.339l-.832.801.031.586c.216.123.432.215.647.277.246.062.523.124.832.154.462-.276.925-.615 1.387-.985zM68.055 97.051a.846.846 0 0 1-.339-.154 35.18 35.18 0 0 1-2.188 1.51c-.585.369-1.171.77-1.756 1.17-.493.34-.986.68-1.51 1.018-.37.246-.74.494-1.11.771-.308.215-.585.432-.801.678-.154.123-.247.246-.37.4l-.031.432a6.28 6.28 0 0 0 1.263.215 6.152 6.152 0 0 0 1.325-.215 8.357 8.357 0 0 0 1.572-.648c.585-.275 1.171-.646 1.726-1.016a14.436 14.436 0 0 0 1.818-1.572 19.591 19.591 0 0 0 1.849-2.033c-.215-.062-.432-.154-.616-.217-.154-.061-.278-.123-.432-.184-.153-.032-.276-.063-.4-.155zM65.498 96.65c.247-.186.524-.432.739-.617a4.82 4.82 0 0 0-.678-.401c-.154-.092-.308-.185-.462-.246-.154-.093-.277-.154-.431-.247l-.37-.185c-.432.216-.863.462-1.264.709-1.233.647-2.465 1.294-3.667 1.911-.986.463-1.941.955-2.928 1.387a134.585 134.585 0 0 1-3.698 1.633c-.277.123-.524.277-.708.494l.185.432c.339.184.678.307 1.048.4.247.061.524.123.801.123.4 0 .832-.031 1.232-.092a6.367 6.367 0 0 0 1.479-.277c.555-.125 1.109-.34 1.665-.586a23.137 23.137 0 0 0 2.003-.926 20.75 20.75 0 0 0 1.942-1.232c.431-.338.894-.646 1.355-.955a26.965 26.965 0 0 0 1.757-1.325zM63.309 93.938c-.338-.185-.647-.37-.955-.585-.185-.124-.339-.216-.524-.37-.154-.092-.277-.216-.4-.339-.062-.092-.124-.185-.216-.247a28.307 28.307 0 0 1-3.42 1.541c-1.233.493-2.497.986-3.698 1.449a92.358 92.358 0 0 1-4.037 1.51c-1.14.4-2.312.77-3.452 1.17-.678.217-1.325.494-1.973.771-.215.154-.431.309-.585.523l.185.369c.339.154.709.277 1.079.34.339.123.709.154 1.079.186.432 0 .894-.031 1.356-.062s.956-.061 1.449-.154c.432-.061.894-.123 1.355-.246a8.893 8.893 0 0 0 1.295-.309c.771-.215 1.479-.461 2.219-.709a50.186 50.186 0 0 0 2.743-1.078 50.926 50.926 0 0 0 2.896-1.387 18.137 18.137 0 0 0 2.589-1.603 5.933 5.933 0 0 0 1.015-.77z" fill-rule="evenodd" clip-rule="evenodd" fill="#808183"/><path d="M102.881 82.874a26.77 26.77 0 0 0-7.027-.832 27.071 27.071 0 0 0-7.026.832 24.796 24.796 0 0 0-6.102 2.342 19.713 19.713 0 0 0-4.715 3.544 14.83 14.83 0 0 0-3.082 4.499 13.14 13.14 0 0 0 0 10.139 15.117 15.117 0 0 0 3.051 4.469c1.387 1.418 2.989 2.59 4.746 3.545.4.215.832.461 1.264.646h3.235a19.057 19.057 0 0 1-3.544-1.572 17.491 17.491 0 0 1-4.407-3.297 13.978 13.978 0 0 1-2.804-4.129 11.879 11.879 0 0 1-.986-4.717c0-1.633.339-3.205.986-4.715a14.182 14.182 0 0 1 2.835-4.191 19.185 19.185 0 0 1 4.376-3.297 25.341 25.341 0 0 1 5.671-2.188 27.693 27.693 0 0 1 6.564-.771c2.22 0 4.407.246 6.534.771a24.5 24.5 0 0 1 5.701 2.188 19.186 19.186 0 0 1 4.375 3.297c1.203 1.232 2.127 2.65 2.836 4.191.646 1.51.986 3.082.986 4.715 0 1.635-.34 3.205-.986 4.717-.709 1.541-1.633 2.928-2.836 4.129a16.809 16.809 0 0 1-4.375 3.297 19.95 19.95 0 0 1-3.545 1.572h3.113c.432-.186.863-.432 1.295-.646a19.71 19.71 0 0 0 4.715-3.545 15.055 15.055 0 0 0 3.02-4.469 12.118 12.118 0 0 0 1.078-5.055c0-1.756-.338-3.451-1.078-5.084-.74-1.664-1.725-3.174-3.02-4.499a19.707 19.707 0 0 0-4.715-3.544 25.452 25.452 0 0 0-6.133-2.342z" fill-rule="evenodd" clip-rule="evenodd" fill="#d0d1d3"/><path d="M102.449 83.953a27.258 27.258 0 0 0-6.534-.771c-2.219 0-4.407.246-6.564.771a25.341 25.341 0 0 0-5.671 2.188 19.214 19.214 0 0 0-4.376 3.297 14.169 14.169 0 0 0-2.835 4.191 11.87 11.87 0 0 0-.986 4.715c0 1.635.339 3.205.986 4.717a13.978 13.978 0 0 0 2.804 4.129 17.515 17.515 0 0 0 4.407 3.297 19.057 19.057 0 0 0 3.544 1.572h17.381a19.95 19.95 0 0 0 3.545-1.572 16.787 16.787 0 0 0 4.375-3.297c1.203-1.201 2.127-2.588 2.836-4.129.646-1.512.986-3.082.986-4.717 0-1.633-.34-3.205-.986-4.715-.709-1.541-1.633-2.958-2.836-4.191a19.157 19.157 0 0 0-4.375-3.297 24.456 24.456 0 0 0-5.701-2.188z" fill-rule="evenodd" clip-rule="evenodd" fill="#f2dda7"/><path d="M87.224 112.059a19.057 19.057 0 0 1-3.544-1.572 17.491 17.491 0 0 1-4.407-3.297 13.978 13.978 0 0 1-2.804-4.129 11.879 11.879 0 0 1-.986-4.717c0-1.633.339-3.205.986-4.715a14.182 14.182 0 0 1 2.835-4.191 19.185 19.185 0 0 1 4.376-3.297 25.341 25.341 0 0 1 5.671-2.188 27.693 27.693 0 0 1 6.564-.771c2.22 0 4.407.246 6.534.771a24.5 24.5 0 0 1 5.701 2.188 19.186 19.186 0 0 1 4.375 3.297c1.203 1.232 2.127 2.65 2.836 4.191.646 1.51.986 3.082.986 4.715 0 1.635-.34 3.205-.986 4.717-.709 1.541-1.633 2.928-2.836 4.129a16.809 16.809 0 0 1-4.375 3.297 19.95 19.95 0 0 1-3.545 1.572" fill="none" stroke="#808183" stroke-width=".38" stroke-linecap="round" stroke-linejoin="round" stroke-miterlimit="2.613"/><path d="M83.989 112.059c-.432-.186-.863-.432-1.264-.646-1.757-.955-3.359-2.127-4.746-3.545a15.136 15.136 0 0 1-3.051-4.469 13.118 13.118 0 0 1 0-10.139 14.794 14.794 0 0 1 3.082-4.499 19.687 19.687 0 0 1 4.715-3.544 24.796 24.796 0 0 1 6.102-2.342 27.071 27.071 0 0 1 7.026-.832 26.77 26.77 0 0 1 7.027.832 25.536 25.536 0 0 1 6.133 2.342 19.733 19.733 0 0 1 4.715 3.544c1.295 1.325 2.279 2.835 3.02 4.499.74 1.633 1.078 3.329 1.078 5.084 0 1.727-.338 3.422-1.078 5.055a15.036 15.036 0 0 1-3.02 4.469 19.71 19.71 0 0 1-4.715 3.545c-.432.215-.863.461-1.295.646" fill="none" stroke="#808183" stroke-width=".759" stroke-linecap="round" stroke-linejoin="round" stroke-miterlimit="2.613"/><path d="M103.867 111.104a4.183 4.183 0 0 0-1.08-.062h-.615c-1.203.031-2.404.062-3.605.062h-.217a108.004 108.004 0 0 1-3.174-.123c-1.479-.094-2.927-.154-4.407-.217-1.109-.061-2.249-.061-3.39-.092v.031c-.031.029-.062.029-.093.061h-.092c-.37.371-.431.771-.123 1.203.092.123.185.154.308.184h.216v.031c0 .154.062.246.154.34.215.215.462.307.771.246a.238.238 0 0 1 .123.123c.123.092.277.186.431.246 1.048.555 2.157.832 3.39.863 2.096.031 4.191 0 6.287-.092.494-.031.955-.092 1.449-.154a24.142 24.142 0 0 0 3.914-.895c.709-.246.863-.678.523-1.324-.061-.154-.186-.217-.34-.217h-.184v-.029a.474.474 0 0 0-.246-.185z" fill-rule="evenodd" clip-rule="evenodd" fill="#f2dda7"/><path d="M106.609 112.891l-3.143 1.018 2.619 7.457s.029.031.061.186c.062.123.186.34.369.555.402.463.895.709 1.449.709.555-.031 1.018-.309 1.387-.771.4-.523.586-1.109.555-1.818 0-.461-.123-.893-.309-1.262a.592.592 0 0 0-.152-.279l-2.836-5.795z" fill-rule="evenodd" clip-rule="evenodd" fill="#808183"/><path d="M101.246 114.432h-.77l1.725 8.168v-.031c.094.432.277.77.557 1.078.4.492.861.709 1.416.709.557 0 1.049-.277 1.418-.771a2.766 2.766 0 0 0 .523-1.787c0-.154 0-.277-.029-.369v-.062l-2.619-7.457-2.221.522zm.926 7.951c.029.031.029.092.029.186-.029-.154-.029-.277-.061-.432.001.092.032.154.032.246zM97.518 114.895c-.031 0 .186 2.68.678 8.105-.029-.248-.029-.34 0-.279 0 .154.031.279.031.432v.217c.061.492.277.924.586 1.324.4.494.893.709 1.447.68.555 0 1.018-.277 1.387-.771.371-.492.555-1.078.525-1.787 0-.062 0-.154.029-.215l-1.725-8.168-.924.031c-.679.153-1.357.307-2.034.431z" fill-rule="evenodd" clip-rule="evenodd" fill="#808183"/><path d="M98.195 123.152V123l-.709-8.105c-.801 0-1.633-.094-2.403-.154-.185-.031-.37-.062-.585-.094h-.123c-.062 0-.185-.029-.309-.029l-1.294.029-4.222-.801-2.188 7.797c-.062.123-.062.248-.093.34s0 .184 0 .309c0 .678.216 1.293.616 1.756s.894.709 1.418.709c.585-.031 1.048-.277 1.417-.771.247-.338.431-.738.524-1.201l-.031.062.062-.68c0 .125 0 .248-.031.34l1.264-7.828-1.264 7.828v.277c-.031.092-.031.186-.031.277.031.709.247 1.295.647 1.787.37.494.894.709 1.449.678.555 0 1.017-.275 1.387-.77.277-.34.462-.771.524-1.264v-.062l.031-.338-.031-.277v.154l.246-8.045-.246 8.045a.522.522 0 0 1 0 .309l.031-.186-.031.338v.062c.062.586.246 1.109.616 1.541.4.463.863.709 1.448.678.555 0 1.018-.277 1.387-.738.34-.463.523-.957.555-1.543l-.031-.152v-.126z" fill-rule="evenodd" clip-rule="evenodd" fill="#808183"/><path d="M88.549 113.846l-2.866-.924-3.082 6.902c-.154.4-.246.832-.215 1.326 0 .678.215 1.264.616 1.756.4.494.894.709 1.448.709.555-.031 1.017-.277 1.387-.77.154-.217.277-.432.37-.648.031-.061.031-.123.062-.215 0-.217.031-.463.093-.646.062-.154.031 0-.062.461l.062-.154 2.187-7.797z" fill-rule="evenodd" clip-rule="evenodd" fill="#808183"/><path d="M90.245 122.783zm7.95.494c0 .029 0 .061.031.092v.061m-4.006.062v-.062" fill="none" stroke="#000" stroke-width=".38" stroke-linecap="round" stroke-linejoin="round" stroke-miterlimit="2.613"/><path d="M97.486 114.895l.709 8.105v.277m4.006-.677c-.029.061-.029.152-.029.215.029.709-.154 1.295-.525 1.787-.369.494-.832.771-1.387.771-.555.029-1.047-.186-1.447-.68-.309-.4-.525-.832-.586-1.324m3.974-.769v-.031c.094.432.277.77.557 1.078.4.492.861.709 1.416.709.557 0 1.049-.277 1.418-.771a2.766 2.766 0 0 0 .523-1.787c0-.154 0-.277-.029-.369v-.062m-7.891 1.91v-.125m7.891-1.787l-2.619-7.457m2.619 7.457s.029.031.061.186c.062.123.186.34.369.555.402.463.895.709 1.449.709.555-.031 1.018-.309 1.387-.771.4-.523.586-1.109.555-1.818 0-.461-.123-.893-.309-1.262a.592.592 0 0 0-.152-.279l-2.836-5.793m-16.365 9.891c-.031.092-.031.186-.031.277.031.709.247 1.295.647 1.787.37.494.894.709 1.449.678.555 0 1.017-.275 1.387-.77.277-.34.462-.771.524-1.264m-.001-.061v.062c.062.586.246 1.109.616 1.541.4.463.863.709 1.448.678.555 0 1.018-.277 1.387-.738.34-.463.523-.957.555-1.543l-.031-.152m-7.981-.432l.031-.34 1.264-7.828m2.711 8.752l.031-.338-.031-.123.246-8.045m6.011-.492l1.725 8.168m-16.518-9.678l-3.082 6.902c-.154.4-.246.832-.215 1.326 0 .678.215 1.264.616 1.756.4.494.894.709 1.448.709.555-.031 1.017-.277 1.387-.77.154-.217.277-.432.37-.648.031-.061.031-.123.062-.215m-.001 0c.031-.092.031-.217.093-.34l2.188-7.797m1.695 8.938a3.027 3.027 0 0 1-.524 1.201c-.37.494-.832.74-1.417.771-.524 0-1.018-.246-1.418-.709s-.616-1.078-.616-1.756c0-.125-.031-.217 0-.309" fill="none" stroke="#d0d1d3" stroke-width=".38" stroke-linecap="round" stroke-linejoin="round" stroke-miterlimit="2.613"/><path d="M85.868 113.107c.647.246 1.264.43 1.911.615.031.031.092.031.154.062.277.061.555.154.832.215 1.695.432 3.421.74 5.178 1.018.647.092 1.294.186 1.941.277.647-.092 1.295-.186 1.942-.277 1.727-.277 3.42-.586 5.115-1.018a19.902 19.902 0 0 0 3.574-1.141" fill="none" stroke="#d0d1d3" stroke-width=".759" stroke-linecap="round" stroke-linejoin="round" stroke-miterlimit="2.613"/><path d="M105.346 111.721c-1.201.461-2.158.801-2.867.955a58.623 58.623 0 0 1-6.563 1.201 59.222 59.222 0 0 1-6.595-1.201c-.709-.154-1.664-.463-2.835-.926l-2.496.309c.339.154.678.309.986.463.924.369 1.849.709 2.773.986.062 0 .092 0 .154.029.308.062.555.154.863.217 1.695.4 3.39.74 5.146 1.018 1.356.277 2.65.277 3.915 0a70.212 70.212 0 0 0 5.084-1.018c1.666-.4 3.268-.955 4.809-1.695l-2.374-.338z" fill-rule="evenodd" clip-rule="evenodd" fill="#d0d1d3"/><path d="M98.658 114.771h.924l-.029-.186h-.062c-.278.061-.555.124-.833.186z" fill-rule="evenodd" clip-rule="evenodd" fill="#808183"/><path d="M105.346 111.721c-1.201.461-2.158.801-2.867.955a58.623 58.623 0 0 1-6.563 1.201 59.222 59.222 0 0 1-6.595-1.201c-.709-.154-1.664-.463-2.835-.926" fill="none" stroke="#808183" stroke-width=".38" stroke-linecap="round" stroke-linejoin="round" stroke-miterlimit="2.613"/><path d="M83.989 112.059c.339.154.678.309.986.463.924.369 1.849.709 2.773.986.062 0 .092 0 .154.029.308.062.555.154.863.217 1.695.4 3.39.74 5.146 1.018 1.356.277 2.65.277 3.915 0a70.212 70.212 0 0 0 5.084-1.018c1.666-.4 3.268-.955 4.809-1.695" fill="none" stroke="#808183" stroke-width=".759" stroke-linecap="round" stroke-linejoin="round" stroke-miterlimit="2.613"/><path d="M104.236 89.068a6.606 6.606 0 0 0-1.881-1.387c-.861-.462-1.818-.832-2.803-1.017a28.096 28.096 0 0 0-3.915-.462c-.863-.031-1.727 0-2.559.092-.77.062-1.571.185-2.342.37-.74.154-1.418.37-2.127.616-.616.247-1.201.524-1.756.894a10.44 10.44 0 0 0-1.542 1.048c.185.216.37.462.585.709.154.216.309.462.401.709.062.154.093.308.124.462v13.5c-.093.307-.185.615-.277.861-.154.34-.309.617-.462.895a3.996 3.996 0 0 1-.308.463c.462.338.986.615 1.479.924.555.309 1.14.586 1.756.801.709.277 1.418.494 2.157.678.863.186 1.757.34 2.62.432 1.048.094 2.064.123 3.082.094a21.217 21.217 0 0 0 3.144-.34c.986-.154 1.91-.432 2.836-.801a7.237 7.237 0 0 0 2.219-1.355 4.825 4.825 0 0 0 1.479-1.85c.4-.801.648-1.604.74-2.496 0-.432-.031-.832-.186-1.232-.154-.432-.369-.834-.586-1.234-.123-.184-.246-.4-.4-.584a3.88 3.88 0 0 0-.523-.494c-.338-.277-.74-.555-1.141-.832-.4-.215-.801-.432-1.201-.646-.123-.031-.217-.094-.309-.154l-.123-.186V97.3c.123-.246.277-.432.492-.555.248-.123.463-.277.68-.494a5.63 5.63 0 0 0 1.541-1.972c.184-.431.369-.894.492-1.325.092-.247.154-.493.186-.771a8.975 8.975 0 0 0-.494-1.448 5.288 5.288 0 0 0-1.078-1.667zm-5.332 4.684a3.125 3.125 0 0 1-1.109 1.634c-.586.4-1.202.77-1.88.986a5.583 5.583 0 0 1-1.788-.986 3.363 3.363 0 0 1-1.14-1.634 3.775 3.775 0 0 1 0-2.188c.215-.709.616-1.264 1.171-1.726.493-.4 1.078-.585 1.756-.585s1.294.185 1.819.585c.584.462.986 1.017 1.17 1.726a3.75 3.75 0 0 1 .001 2.188zm-.492 6.133c.615.494 1.047 1.08 1.293 1.789a3.962 3.962 0 0 1 0 2.248 3.607 3.607 0 0 1-1.293 1.789 9.205 9.205 0 0 1-2.035 1.078 7.836 7.836 0 0 1-2.065-1.109c-.616-.432-1.017-1.018-1.233-1.758-.246-.77-.246-1.51 0-2.248a3.366 3.366 0 0 1 1.233-1.758c.617-.432 1.294-.678 2.065-.678.74 0 1.418.215 2.035.647z" fill-rule="evenodd" clip-rule="evenodd" fill="#576d5b"/></svg>