<svg xmlns="http://www.w3.org/2000/svg" width="2500" height="2500" viewBox="0 0 192.756 192.756"><g fill-rule="evenodd" clip-rule="evenodd"><path fill="#fff" d="M0 0h192.756v192.756H0V0z"/><path d="M160.373 160.373c17.697-17.652 26.539-38.998 26.508-63.994.031-24.996-8.811-46.344-26.508-63.996-17.652-17.698-39-26.54-63.995-26.508-24.996-.032-46.344 8.811-63.995 26.508-17.698 17.652-26.541 39-26.509 63.996-.032 24.996 8.811 46.342 26.509 63.994 17.651 17.697 38.999 26.541 63.995 26.508 24.995.033 46.343-8.811 63.995-26.508 0 0-17.652 17.697 0 0z"/><path d="M7.158 96.379c0-49.276 39.944-89.221 89.22-89.221 49.276 0 89.22 39.944 89.22 89.221 0 49.275-39.943 89.221-89.22 89.221-49.276 0-89.22-39.946-89.22-89.221z" fill="#fff"/><path d="M12.024 96.379c0-46.588 37.766-84.354 84.354-84.354 46.587 0 84.354 37.766 84.354 84.354s-37.768 84.354-84.354 84.354c-46.588-.001-84.354-37.766-84.354-84.354z"/><path d="M45.446 96.379c0-28.129 22.802-50.932 50.932-50.932 28.13 0 50.933 22.803 50.933 50.932s-22.803 50.932-50.933 50.932c-28.129 0-50.932-22.803-50.932-50.932z" fill="#fff"/><path d="M96.685 51.71c-24.54 0-44.435 19.999-44.435 44.669h44.435V51.71zM97.201 141.184c24.668 0 44.668-19.998 44.668-44.668l-.002-.137H96.918v44.805h.283z" fill="#33348e"/><path fill="#fff" d="M151.547 39.001l-3.358-4.794-14.019 17.697 3.275 4.678 12.707-3.713-8.066 10.341 3.291 4.701 21.689-6.745-3.357-4.794-13.783 4.677 8.976-11.541-2.566-3.666-14.047 4.301 9.258-11.142zM83.274 41.597h5.595l1.808-12.453 5.021 12.453h2.238l5.193-12.453 1.637 12.453h5.623l-3.272-21.636h-5.594l-4.648 11.564-4.391-11.564h-5.538l-3.672 21.636zM55.771 59.918c3.413-4.874 5.529-10.499 1.816-13.1-2.468-1.728-5.322-1.304-8.322 2.28.733-2.698-.015-4.38-1.613-5.5-3.385-2.37-6.833-.047-10.147 4.687l-6.926 9.891 17.723 12.409 7.469-10.667z"/><path d="M45.815 58.527l.495-.706c1.583-2.261 3.771-5.835 5.91-4.338 1.951 1.366-.543 4.778-1.979 6.827l-.618.883-3.808-2.666zM38.952 53.721l.346-.495c1.311-1.872 2.914-3.96 4.536-2.825 1.504 1.054.38 3.109-.906 4.946l-.544.777-3.432-2.403z"/></g></svg>