<svg xmlns="http://www.w3.org/2000/svg" width="2500" height="2500" viewBox="0 0 439.543 439.543"><path d="M219.772 0c121.046 0 219.771 98.725 219.771 219.771 0 121.047-98.725 219.771-219.771 219.771S0 340.818 0 219.771C0 98.725 98.726 0 219.772 0z" fill-rule="evenodd" clip-rule="evenodd"/><path d="M92.087 153.86l-51.859-44.604 19.419-22.578c3.952-4.594 7.651-7.821 11.075-9.701 3.446-1.883 6.932-2.664 10.467-2.353 3.521.301 6.491 1.466 8.882 3.522 2.209 1.9 3.695 4.397 4.446 7.48.765 3.069.526 6.545-.687 10.398 4.049-2.852 8.017-4.289 11.912-4.349 3.908-.05 7.371 1.223 10.39 3.819a17.765 17.765 0 0 1 5.233 7.618c1.064 2.986 1.404 5.839 1.034 8.566-.37 2.727-1.417 5.653-3.102 8.784-1.686 3.132-4.178 6.617-7.479 10.455L92.087 153.86zm-23.21-33.828l11.19-13.01c3.024-3.517 4.999-6.228 5.926-8.111 1.214-2.463 1.671-4.728 1.343-6.789-.329-2.06-1.392-3.876-3.204-5.435-1.714-1.475-3.645-2.307-5.769-2.476-2.146-.165-4.221.438-6.221 1.788-2.012 1.364-4.88 4.208-8.604 8.537l-10.335 12.017 15.674 13.479zm23.943 20.593l12.877-14.971c2.216-2.577 3.686-4.457 4.42-5.63 1.288-2.083 2.13-4.016 2.526-5.818.409-1.794.311-3.633-.258-5.511-.593-1.875-1.693-3.527-3.347-4.95-1.931-1.662-4.104-2.532-6.529-2.618-2.412-.077-4.788.657-7.127 2.205-2.313 1.542-5.133 4.234-8.422 8.058l-11.961 13.907 17.821 15.328zM178.311 77.237v-58.66h15.465l18.357 41.533c1.698 3.866 2.945 6.761 3.704 8.687.885-2.131 2.258-5.273 4.136-9.41l18.573-40.81h13.821v58.66h-9.9v-49.1l-22.548 49.1h-9.268l-22.44-49.934v49.934h-9.9zM318.596 111.49l35.893-48.668 4.898 6.045-24.308 30.931a207.258 207.258 0 0 1-7.785 9.418c5.783-2.797 9.116-4.398 10.036-4.801l37.566-16.409 5.764 7.113-17.85 25.027c-4.413 6.22-8.847 11.721-13.285 16.503 3.323-1.765 7.231-3.695 11.686-5.795l34.874-16.701 4.806 5.93-55.367 24.636-4.604-5.683 27.037-37.454c2.263-3.139 3.663-5.046 4.202-5.723-2.466 1.223-4.596 2.228-6.396 3.017l-42.294 18.626-4.873-6.012z" fill="#fff"/><path d="M349.594 221.948c0 70.306-57.34 127.646-127.646 127.646V221.948h127.646z" fill-rule="evenodd" clip-rule="evenodd" fill="#00acec"/><path d="M349.594 217.595c0-70.305-57.34-127.646-127.646-127.646v127.646h127.646z" fill-rule="evenodd" clip-rule="evenodd" fill="#fff"/><path d="M89.95 217.595c0-70.305 57.34-127.646 127.646-127.646v127.646H89.95z" fill-rule="evenodd" clip-rule="evenodd" fill="#00acec"/><path d="M89.95 221.948c0 70.306 57.34 127.646 127.646 127.646V221.948H89.95z" fill-rule="evenodd" clip-rule="evenodd" fill="#fff"/></svg>