<svg viewBox="0 0 395.56 395.56" xmlns="http://www.w3.org/2000/svg" width="2500" height="2500"><circle cx="197.78" cy="197.78" fill="#707171" r="197.78"/><circle cx="197.78" cy="197.78" fill="#fff" r="177.3"/><g fill="#231f20" font-family="Helvetica-Bold, Helvetica" font-size="58.55" font-weight="700"><text transform="rotate(-28.37 280.905 -154.5)">B</text><text transform="rotate(-1.25 4067.458 -7820.9)">M</text><text transform="rotate(28 -59.368 543.162)">W</text></g><path d="M104.35 197.79h-6.26a99.69 99.69 0 0 0 99.72 99.69v-6.26a93.43 93.43 0 0 1-93.46-93.43zM197.81 98.1v6.26a93.43 93.43 0 0 1 93.43 93.43h6.26a99.69 99.69 0 0 0-99.69-99.69z" fill="#707171"/><path d="M104.35 197.79a93.43 93.43 0 0 0 93.46 93.43v-93.43z" fill="#fff"/><path d="M197.81 98.1a99.69 99.69 0 0 0-99.69 99.69h99.69zM291.21 197.79h-93.4v99.69a99.69 99.69 0 0 0 99.69-99.69z" fill="#0767b1"/><path d="M291.21 197.79a93.43 93.43 0 0 0-93.4-93.43v93.43z" fill="#fff"/></svg>