<svg height="2500" viewBox="0 0 1013.718 1013.696" width="2500" xmlns="http://www.w3.org/2000/svg" xmlns:xlink="http://www.w3.org/1999/xlink"><linearGradient id="e" gradientUnits="userSpaceOnUse" x1="-74.197" x2="1001.25" y1="-54.648" y2="984.588"><stop offset="0" stop-color="#dff4ff"/><stop offset=".098" stop-color="#d6eaf5"/><stop offset=".268" stop-color="#bfd0d9"/><stop offset=".488" stop-color="#98a5ac"/><stop offset=".747" stop-color="#646b6e"/><stop offset="1" stop-color="#2b2b2b"/></linearGradient><radialGradient id="f" cx="-6.317" cy="33.522" gradientUnits="userSpaceOnUse" r="720.108"><stop offset="0" stop-color="#fff"/><stop offset=".306" stop-color="#a8a8a8"/><stop offset=".646" stop-color="#4f4f4f"/><stop offset=".885" stop-color="#161616"/><stop offset="1"/></radialGradient><linearGradient id="g" gradientTransform="rotate(180 465.488 584.653)" gradientUnits="userSpaceOnUse" x1="54.041" x2="738.989" y1="304.847" y2="966.733"><stop offset="0" stop-color="#dff4ff"/><stop offset=".086" stop-color="#d6eaf5"/><stop offset=".233" stop-color="#bed0d9"/><stop offset=".424" stop-color="#96a4ac"/><stop offset=".652" stop-color="#5f686d"/><stop offset=".907" stop-color="#1a1d1e"/><stop offset="1"/></linearGradient><linearGradient id="a"><stop offset="0" stop-color="#fff"/><stop offset=".31" stop-color="#fdfdfd"/><stop offset=".451" stop-color="#f6f6f6"/><stop offset=".557" stop-color="#e9e9e9"/><stop offset=".646" stop-color="#d7d7d7"/><stop offset=".724" stop-color="#bfbfbf"/><stop offset=".794" stop-color="#a2a2a2"/><stop offset=".859" stop-color="gray"/><stop offset=".92" stop-color="#575757"/><stop offset=".975" stop-color="#2b2b2b"/><stop offset="1" stop-color="#141414"/></linearGradient><radialGradient id="h" cx="-135.647" cy="-39.812" gradientUnits="userSpaceOnUse" r="1730.313" xlink:href="#a"/><radialGradient id="i" cx="-135.723" cy="-39.812" gradientUnits="userSpaceOnUse" r="1730.461" xlink:href="#a"/><radialGradient id="j" cx="-135.817" cy="-40.32" gradientUnits="userSpaceOnUse" r="1731.787" xlink:href="#a"/><linearGradient id="b"><stop offset="0" stop-color="#e6e6e6"/><stop offset=".104" stop-color="#d6d6d6"/><stop offset=".307" stop-color="#adadad"/><stop offset=".588" stop-color="#6c6c6c"/><stop offset=".933" stop-color="#121212"/><stop offset="1"/></linearGradient><radialGradient id="k" cx="174.253" cy="200.075" gradientUnits="userSpaceOnUse" r="466.718" xlink:href="#b"/><radialGradient id="l" cx="301.906" cy="262.848" gradientUnits="userSpaceOnUse" r="678.742"><stop offset="0" stop-color="#fff"/><stop offset=".344" stop-color="#fdfdfd"/><stop offset=".481" stop-color="#f6f6f6"/><stop offset=".582" stop-color="#eaeaea"/><stop offset=".665" stop-color="#d8d8d8"/><stop offset=".737" stop-color="#c2c2c2"/><stop offset=".802" stop-color="#a6a6a6"/><stop offset=".86" stop-color="#848484"/><stop offset=".913" stop-color="#5f5f5f"/><stop offset=".949" stop-color="#404040"/><stop offset=".957" stop-color="#404040"/><stop offset="1" stop-color="#404040"/><stop offset="1"/></radialGradient><linearGradient id="c"><stop offset=".169" stop-color="#fff"/><stop offset=".196" stop-color="#e0eff7"/><stop offset=".241" stop-color="#b2d9ec"/><stop offset=".287" stop-color="#8bc5e2"/><stop offset=".335" stop-color="#6bb5da"/><stop offset=".384" stop-color="#52a9d4"/><stop offset=".436" stop-color="#41a0cf"/><stop offset=".491" stop-color="#369bcd"/><stop offset=".556" stop-color="#39c"/><stop offset=".606" stop-color="#3396c8"/><stop offset=".655" stop-color="#328ebc"/><stop offset=".705" stop-color="#3180a8"/><stop offset=".754" stop-color="#2f6d8c"/><stop offset=".803" stop-color="#2d5468"/><stop offset=".851" stop-color="#2a373d"/><stop offset=".871" stop-color="#292929"/></linearGradient><radialGradient id="m" cx="102.618" cy="5.56" gradientUnits="userSpaceOnUse" r="1202.06" xlink:href="#c"/><radialGradient id="n" cx="102.618" cy="5.551" gradientUnits="userSpaceOnUse" r="1202.037" xlink:href="#c"/><radialGradient id="o" cx="180.627" cy="205.954" gradientUnits="userSpaceOnUse" r="457.773" xlink:href="#b"/><linearGradient id="d"><stop offset="0" stop-color="#f0f4ff"/><stop offset=".109" stop-color="#ebeff9"/><stop offset=".247" stop-color="#dce0ea"/><stop offset=".403" stop-color="#c4c7cf"/><stop offset=".57" stop-color="#a2a4ab"/><stop offset=".747" stop-color="#76777c"/><stop offset=".929" stop-color="#414243"/><stop offset="1" stop-color="#2b2b2b"/></linearGradient><linearGradient id="p" gradientUnits="userSpaceOnUse" x1="446.835" x2="893.254" xlink:href="#d" y1="91.655" y2="523.042"/><linearGradient id="q" gradientUnits="userSpaceOnUse" x1="84.488" x2="530.914" xlink:href="#d" y1="455.87" y2="887.265"/><linearGradient id="r" gradientUnits="userSpaceOnUse" x1="300.459" x2="531.948" y1="302.041" y2="525.736"><stop offset="0" stop-color="#c2d7e8"/><stop offset=".134" stop-color="#bacfe1"/><stop offset=".343" stop-color="#a4bacd"/><stop offset=".6" stop-color="#8098ac"/><stop offset=".894" stop-color="#4e697f"/><stop offset="1" stop-color="#3a566d"/></linearGradient><linearGradient id="s" gradientUnits="userSpaceOnUse" x1="184.524" x2="626.457" y1="356.854" y2="783.908"><stop offset="0" stop-color="#f0f4ff"/><stop offset=".097" stop-color="#e8ebf6"/><stop offset=".257" stop-color="#d1d4dd"/><stop offset=".459" stop-color="#abaeb5"/><stop offset=".695" stop-color="#78797d"/><stop offset=".958" stop-color="#363637"/><stop offset="1" stop-color="#2b2b2b"/></linearGradient><linearGradient id="t" gradientUnits="userSpaceOnUse" x1="510.257" x2="665.275" y1="515.267" y2="665.066"><stop offset="0" stop-color="#d9def0"/><stop offset=".123" stop-color="#d4daec"/><stop offset=".263" stop-color="#c7cfe2"/><stop offset=".411" stop-color="#b0bcd1"/><stop offset=".566" stop-color="#90a1b8"/><stop offset=".725" stop-color="#677f99"/><stop offset=".885" stop-color="#355674"/><stop offset=".972" stop-color="#173d5d"/></linearGradient><linearGradient id="u" gradientUnits="userSpaceOnUse" x1="351.678" x2="793.132" xlink:href="#d" y1="194.776" y2="621.366"/><path d="M506.86 0C226.94 0 0 226.918 0 506.848c0 279.926 226.94 506.848 506.86 506.848 279.94 0 506.857-226.922 506.857-506.848C1013.718 226.918 786.801 0 506.86 0zm0 988.352c-265.939 0-481.495-215.574-481.495-481.504 0-265.927 215.556-481.512 481.495-481.512 265.937 0 481.511 215.584 481.511 481.512 0 265.93-215.574 481.504-481.511 481.504z" fill="url(#e)"/><path d="M992.003 506.848c0 267.914-217.227 485.133-485.143 485.133-267.919 0-485.123-217.219-485.123-485.133 0-267.929 217.204-485.133 485.123-485.133 267.916 0 485.143 217.204 485.143 485.133z" fill="#333"/><path d="M988.371 506.848c0 265.93-215.574 481.504-481.511 481.504-265.939 0-481.495-215.574-481.495-481.504 0-265.927 215.556-481.512 481.495-481.512 265.937 0 481.511 215.585 481.511 481.512z" fill="url(#f)"/><path d="M829.676 506.848c0 178.28-144.53 322.803-322.815 322.803-178.289 0-322.819-144.522-322.819-322.803 0-178.289 144.53-322.816 322.819-322.816 178.285 0 322.815 144.528 322.815 322.816z" fill="url(#g)"/><path d="M519.79 175.308l33.534-88.877v88.877h25.468V48.021h-38.274l-34.814 91.136h.331l-34.812-91.136h-38.276v127.287h25.469V86.431l33.533 88.877zM869.313 232.384l-43.515 63.447 68.348-33.615 18.538 22.231-107.569 54.012-21.736-26.315 41.698-62.869-.247-.31-69.357 29.686-21.984-26.138 72.532-96.044 18.542 22.243-45.417 61.159 70.287-31.349z"/><path d="M281.427 208.068c-10.251-9.951-26.069-12.951-40.939-3.733 2.847-7.363 1.691-14.858.186-19.015-6.414-11.662-8.662-13.137-13.899-17.561-17.097-14.324-35.082-2.093-47.93 13.219l-62.116 74.028 97.651 81.925 65.5-78.047c14.971-17.838 17.282-35.523 1.547-50.816zm-126.321 35.7l37.311-44.464c4.33-5.146 14.106-4.94 20.375.341 6.908 5.795 6.928 14.002 2.289 19.54l-36.896 43.95zm102.934 7.393l-38.896 46.353-24.355-20.47 39.185-46.711c4.434-5.281 14.313-6.817 20.974-1.229 7.505 6.312 8.247 15.912 3.092 22.057z" fill="#333"/><path d="M520.06 170.39l33.532-88.875v88.875h25.471V43.103h-38.279l-34.811 91.133h.33l-34.812-91.133h-38.279V170.39h25.471V81.515l33.535 88.875z" fill="url(#h)"/><path d="M869.563 223.844l-43.496 63.449 68.346-33.626 18.521 22.242-107.554 54.012-21.735-26.325 41.7-62.861-.245-.319-69.38 29.698-21.961-26.151 72.532-96.033 18.539 22.234-45.411 61.158 70.261-31.337z" fill="url(#i)"/><path d="M276.868 205.563c-10.23-9.951-26.069-12.953-40.916-3.743 2.824-7.364 1.67-14.86.166-18.996-6.415-11.682-8.642-13.137-13.923-17.57-17.096-14.333-35.059-2.095-47.887 13.231l-62.139 74.016 97.653 81.926 65.499-78.059c14.953-17.839 17.282-35.512 1.547-50.805zm-126.317 35.698l37.307-44.453c4.312-5.155 14.086-4.949 20.376.319 6.909 5.806 6.93 14.023 2.268 19.54l-36.873 43.959zm102.952 7.393l-38.896 46.352-24.398-20.47 39.207-46.721c4.433-5.269 14.291-6.806 20.953-1.216 7.547 6.32 8.29 15.9 3.134 22.055z" fill="url(#j)"/><path d="M194.788 506.852c0-172.358 139.724-312.082 312.073-312.082 172.367 0 312.072 139.724 312.072 312.082 0 172.351-139.705 312.071-312.072 312.071-172.35 0-312.073-139.72-312.073-312.071z" fill="url(#k)"/><path d="M203.759 506.852c0-167.399 135.702-303.112 303.102-303.112s303.12 135.712 303.12 303.112c0 167.401-135.721 303.113-303.12 303.113S203.759 674.253 203.759 506.852z" fill="url(#l)"/><path d="M203.284 506.852H506.86V203.277c-167.669 0-303.576 135.908-303.576 303.575z" fill="url(#m)"/><path d="M506.86 506.852v303.579c167.667 0 303.576-135.933 303.576-303.579z" fill="url(#n)"/><path d="M812.95 501.458H512.242V200.75h-10.766v300.708H200.768v10.767h300.708v300.717h10.766V512.225H812.95z" fill="url(#o)"/><path d="M512.242 209.267c160.141 2.848 289.366 132.062 292.232 292.191h5.36c-2.863-163.099-134.482-294.736-297.593-297.583v5.392z" fill="url(#p)"/><path d="M208.729 501.418c2.845-160.347 132.256-289.747 292.604-292.604v-5.383c-163.336 2.856-295.12 134.669-297.987 297.986h5.383z" fill="#c2d7e8"/><path d="M501.476 804.433c-160.139-2.844-289.364-132.069-292.211-292.208h-5.381c2.866 163.108 134.484 294.75 297.593 297.594v-5.386z" fill="url(#q)"/><path d="M804.475 512.225c-2.866 160.139-132.092 289.364-292.232 292.208v5.386c163.11-2.844 294.747-134.485 297.593-297.594z" fill="#12404f"/><path d="M495.724 203.432v292.119h-292.11v5.764h297.862V203.432z" fill="url(#r)"/><path d="M495.229 806.995V518.391h-289.2V512.7H500.92V806.995z" fill="url(#s)"/><path d="M518.409 806.995V518.391h288.602V512.7H512.737V806.995z" fill="url(#t)"/><path d="M518.409 206.011v288.602h288.602v5.682H512.737V206.011z" fill="url(#u)"/></svg>