<svg xmlns="http://www.w3.org/2000/svg" width="2500" height="2500" viewBox="0 0 192.756 192.756"><g fill-rule="evenodd" clip-rule="evenodd"><path fill="#fff" d="M0 0h192.756v192.756H0V0z"/><path d="M96.395 2.835c-51.55 0-93.56 42.009-93.56 93.56 0 51.518 42.01 93.527 93.56 93.527 51.518 0 93.527-42.01 93.527-93.527 0-51.551-42.01-93.56-93.527-93.56z"/><path d="M96.395 46.998c-27.233 0-49.397 22.164-49.397 49.397 0 27.167 22.164 49.364 49.397 49.364 27.166 0 49.363-22.197 49.363-49.364 0-27.233-22.197-49.397-49.363-49.397z"/><path d="M96.395 5.552c-50.06 0-90.843 40.783-90.843 90.843 0 50.027 40.783 90.811 90.843 90.811 50.027 0 90.811-40.783 90.811-90.811-.001-50.06-40.784-90.843-90.811-90.843z" fill="#fff"/><path d="M96.395 7.904c-48.801 0-88.491 39.689-88.491 88.49 0 48.735 39.69 88.458 88.491 88.458 48.734 0 88.457-39.723 88.457-88.458 0-48.8-39.723-88.49-88.457-88.49z"/><path d="M96.395 41.498c-30.281 0-54.897 24.616-54.897 54.896 0 30.215 24.616 54.863 54.897 54.863 30.215 0 54.863-24.648 54.863-54.863 0-30.28-24.649-54.896-54.863-54.896z" fill="#fff"/><path d="M96.395 44.248c28.691 0 52.113 23.39 52.113 52.147 0 28.691-23.422 52.114-52.113 52.114-28.757 0-52.147-23.423-52.147-52.114 0-28.757 23.39-52.147 52.147-52.147z"/><path d="M143.174 28.941l5.037 4.241-6.693 11.728 10.602-8.514 4.439 3.777-6.659 11.761 10.436-8.581 5.135 4.307-17.758 12.954-5.234-4.406 6.029-10.966-9.84 7.819-5.234-4.439 9.74-19.681zm-49.695-14.08l3.611 13.385 3.844-13.385h8.48v21.27h-6.361c0-4.638-.064-9.011.432-13.616l-3.844 13.616h-4.87l-3.843-13.616c.331 4.472.232 9.11.232 13.616h-6.162v-21.27h8.481zM31.691 44.479l7.885-6.626c4.274-3.578 7.984-3.678 10.171-1.126 1.259 1.523 1.093 3.312.629 5.234 1.889-1.259 5.234.364 6.428 1.723 1.656 1.955 1.259 4.638-.033 6.825-.563.994-2.154 2.617-3.346 3.611l-8.018 6.758-13.716-16.399zm8.614-.728l2.319 2.75 2.286-1.888c.861-.729 1.193-2.021.497-2.882-.828-1.027-2.386-.232-3.114.365l-1.988 1.655zm4.771 5.665l2.551 3.081 2.452-2.054c1.392-1.159 1.59-2.484.96-3.313-1.226-1.59-3.412.066-4.406.928l-1.557 1.358z" fill="#fff"/><path d="M97.256 45.771h-.829c-27.895 0-50.623 22.728-50.623 50.623 0 .299.033.597.033.895h51.418V45.771h.001z" fill="#736fb0"/><path d="M147.018 95.103v1.259c0 27.83-22.793 50.623-50.623 50.623-.431 0-.895-.033-1.325-.033V95.103h51.948z" fill="#736fb0"/></g></svg>