<svg xmlns="http://www.w3.org/2000/svg" width="2500" height="2500" viewBox="0 0 192.756 192.756"><g fill-rule="evenodd" clip-rule="evenodd"><path d="M0 0h192.756v192.756H0V0z"/><path d="M186.887 2.835v187.087H5.87V2.835h181.017z"/><path d="M94.347 6.09c-37.821 0-68.48 30.947-68.48 69.122s30.659 69.124 68.48 69.124c37.817 0 68.478-30.948 68.478-69.124-.001-38.175-30.661-69.122-68.478-69.122z" fill="#fff"/><path d="M94.347 9.618c-35.89 0-64.984 29.368-64.984 65.594 0 36.227 29.094 65.594 64.984 65.594 35.888 0 64.983-29.367 64.983-65.594 0-36.226-29.096-65.594-64.983-65.594z"/><path d="M94.347 134.61c-32.5 0-58.847-26.594-58.847-59.398s26.348-59.398 58.847-59.398 58.845 26.594 58.845 59.398-26.346 59.398-58.845 59.398z" fill="#fff"/><path d="M135.586 105.74a3.085 3.085 0 0 0-2.266-.939c-.844 0-1.58.29-2.207.87-.666.62-1 1.399-1 2.336 0 .902.309 1.662.926 2.28.619.617 1.379.927 2.281.927.873 0 1.621-.302 2.244-.905.641-.624.961-1.391.961-2.302 0-.885-.312-1.641-.939-2.267z"/><path d="M135.191 106.149c.512.524.77 1.144.77 1.857 0 .734-.258 1.363-.775 1.889a2.533 2.533 0 0 1-1.865.783c-.732 0-1.355-.26-1.871-.779a2.573 2.573 0 0 1-.779-1.893c0-.717.256-1.336.766-1.857a2.534 2.534 0 0 1 1.885-.801c.725.001 1.35.267 1.869.801zM49.8 157.713v1.212c1.787 0 5.361.191 5.361 3.766v11.87c0 3.319.255 7.403 13.02 7.403 5.744 0 8.168-1.531 9.062-2.936v2.553h11.871v-1.212c-2.425 0-5.361-.83-5.361-4.404v-18.252H72.009v1.212c1.468.064 5.361.064 5.361 4.148v10.275c-.511 3.957-1.085 6.828-8.744 6.828-7.658 0-7.084-3.956-7.084-5.871v-16.593H49.8v.001zM39.972 168.945c-.766 0-.735-.639 0-.639 2.297-.256 7.02-.511 7.02-5.616s-5.872-4.978-10.85-4.978H11.763v1.212c2.936 0 5.361.064 5.361 4.659v11.871c0 2.169-.128 4.914-5.361 4.914v1.212h25.911c6.765 0 10.85-1.914 10.85-7.021 0-5.104-5.616-5.487-8.552-5.614zM91.64 158.925v-1.212h14.805v1.212c-2.426 0-4.213.447-4.213 3.894v13.785c0 2.808 1.66 3.638 5.361 3.766v1.212H90.747v-1.212c1.787 0 5.105-.702 5.105-3.766v-13.785c0-1.66-.893-3.894-4.212-3.894zM134.936 164.86h4.85v-6.765c-3.127-.639-11.232-1.276-14.424-1.276s-16.338-.639-16.338 12.636c0 13.275 12.381 12.637 16.211 12.637s15.316-1.021 15.316-9.317h-5.553c-.062 3.701-.766 7.595-9.955 7.595s-9.637-5.681-9.637-10.786.254-10.978 9.955-10.978 9.575 3.51 9.575 6.254zM143.359 157.713v1.212c2.041 0 4.723-.063 4.723 3.894v11.87c0 4.212-1.404 5.681-5.361 5.681v1.212h17.104v-1.212c-2.17 0-5.359-1.724-5.359-3.766v-4.531l2.68-1.979 12.764 11.487h10.467v-1.212c-1.277 0-2.361-.192-4.021-1.596-1.658-1.404-14.613-12.062-14.613-12.062 4.402-3.382 8.998-7.786 15.826-7.786v-1.212h-15.572v1.212c4.34 0 4.213 1.659 2.553 3.255l-10.082 7.531v-7.148c0-2.425.893-3.638 4.721-3.638v-1.212h-15.83z" fill="#fff"/><path d="M105.834 36.281v8.808H80.178v8.807H54.523v32.165c0 16.337 6.637 25.273 15.189 39.058 6.598-10.636 12.052-18.387 14.202-28.875 2.758 6.562 6.824 12.605 11.453 20.067 6.597-10.635 12.052-18.387 14.201-28.875 2.76 6.563 6.824 12.605 11.453 20.067 8.553-13.784 15.189-22.719 15.189-39.057V36.28h-30.376v.001z"/><path d="M80.178 88.231c0 9.062-5.233 19.912-10.466 28.081-5.233-8.169-10.467-19.019-10.467-28.081V58.618h20.933v29.613zM105.834 79.424c0 9.062-5.234 19.912-10.466 28.08-5.233-8.168-10.466-19.018-10.466-28.08V49.811h20.933l-.001 29.613zM131.488 70.617c0 9.062-5.232 19.912-10.467 28.081-5.232-8.169-10.467-19.019-10.467-28.081V41.004h20.934v29.613z" fill="#fff"/><path d="M60.394 74.254V87.72c0 8.297 4.787 19.402 9.318 26.293 2.28-3.468 4.624-8.003 6.391-12.709l-15.709-27.05zM111.705 56.64v13.466c0 8.297 4.785 19.402 9.316 26.294 2.281-3.469 4.627-8.003 6.393-12.71l-15.709-27.05zM86.05 65.447v13.466c0 8.297 4.786 19.401 9.317 26.294 2.279-3.469 4.625-8.003 6.392-12.709L86.05 65.447zM78.658 91.998L60.394 60.533v-.766H79.03V87.72c0 1.362-.137 2.797-.372 4.278zM129.969 74.383l-18.264-31.464v-.766h18.635v27.953c0 1.361-.137 2.796-.371 4.277zM104.312 83.19L86.05 51.726v-.766h18.633v27.953c.001 1.361-.134 2.797-.371 4.277zM132.846 108.533h.195l.205.014a.996.996 0 0 1 .316.056c.129.05.215.137.262.262.029.075.049.22.057.435.01.215.027.379.057.492h.889l-.031-.101a.422.422 0 0 1-.023-.104.607.607 0 0 1-.008-.104v-.318c0-.362-.104-.628-.312-.796-.113-.09-.281-.158-.506-.205.244-.025.449-.105.617-.239.166-.133.25-.35.25-.647 0-.392-.158-.675-.475-.849a1.72 1.72 0 0 0-.701-.183 31.742 31.742 0 0 0-.732-.007l-.99-.002v3.555h.932v-1.259h-.002zM23.506 162.562c.127-1.914.766-3.19 4.084-3.19h5.361c5.233 0 7.021 1.021 7.021 3.829 0 3.446-2.298 4.978-6.382 4.978H23.506v-5.617zM32.952 179.922h-5.361c-3.319 0-3.957-1.276-4.084-3.191v-6.893H33.59c4.084 0 8.042.639 8.042 5.233-.001 2.809-3.447 4.851-8.68 4.851z"/><path d="M133.715 107.764c-.121.087-.291.13-.508.13h-.361v-1.031h.227c.23 0 .412.025.539.074.191.075.287.21.287.404s-.061.335-.184.423z" fill="#fff"/></g></svg>