<svg height="2500" viewBox="2.526 2.263 356.19704047 468.42834211" width="2083" xmlns="http://www.w3.org/2000/svg"><g fill-rule="evenodd"><path d="m88.285 219.744c-1.184 2.029-2.37 3.21-3.893.336-7.704-14.958-16.933-30.089-16.933-46.064v-29.5c0-3.55 2.032-.676 3.133 1.184l27.766 49.531c.847 1.69.847 3.972.17 5.665-2.707 6.759-5.501 11.07-10.243 18.848zm-18.37-110.981h33.016c1.525 0 2.71 1.182 2.71 2.873v58.745c0 3.635-1.185 5.326-3.556 1.014l-32.423-58.829c-1.525-2.62-1.355-3.803.252-3.803z" fill="#ed1c24"/><path d="m143.483 200.894c-1.184 2.029-2.37 3.21-3.894.168-7.703-14.79-17.014-29.837-17.014-45.812v-29.752c0-3.297 2.03-.508 3.214 1.352l27.768 49.531c.846 1.521.846 4.058.169 5.749-2.708 6.509-5.585 11.073-10.243 18.764zm-18.37-110.981h32.932c1.523 0 2.709 1.184 2.709 2.873v58.747c0 3.717-1.186 5.24-3.555.844l-32.424-58.576c-1.525-2.874-1.354-3.888.339-3.888z" fill="#d1d3d4"/><path d="m198.09 182.13c-1.185 2.029-2.54 3.041-4.063.168-7.705-14.96-16.764-29.92-16.764-45.811v-29.753c0-3.381 1.864-.508 3.049 1.353l27.682 49.362c.847 1.691.847 3.972.17 5.83-2.623 6.594-5.503 11.076-10.074 18.85zm-18.287-111.151h32.764c1.523 0 2.707 1.352 2.707 3.043v58.745c0 3.72-1.184 5.156-3.553.846l-32.425-58.658c-1.524-2.792-1.185-3.976.507-3.976z" fill="#485e88"/><path d="m176.247 66.923c-1.525 0-2.71 1.183-2.71 2.537v69.31c-.167 14.79 11.091 33.132 18.54 48.008.678 1.184 2.285 2.873 3.64 2.873 1.523 0 2.032 0 4.234-3.213 10.413-13.86 19.133-35.922 19.133-47.668v-69.31c0-1.354-1.1-2.537-2.623-2.537zm-54.687 19.018c-1.357 0-2.457 1.015-2.457 2.451l-.169 69.226c0 14.792 11.26 33.05 18.626 48.008.678 1.184 2.37 2.873 3.724 2.873 1.356 0 2.032 0 4.148-3.041 10.497-14.114 19.217-36.094 19.217-47.84v-69.226c0-1.436-1.184-2.45-2.708-2.45zm-55.114 18.764c-1.354 0-2.54 1.015-2.54 2.537l-.171 69.307c0 14.795 11.26 32.966 18.625 47.84.678 1.185 2.371 2.874 3.726 2.874s2.032 0 4.233-3.041c10.413-14.03 19.132-36.092 19.132-47.673v-69.307c0-1.522-1.186-2.537-2.623-2.537zm105.738 62.97c-3.978 22.144-20.147 43.615-31.24 60.098-7.28-12.425-17.356-27.05-23.703-42.264-3.726 22.484-20.233 44.293-31.494 61.112-11.429-19.692-30.055-44.713-30.055-70.24v-80.213h55.114v-18.848h54.52v-18.764h62.224v80.214c0 25.694-19.385 51.221-32.171 70.237-6.854-12.087-16.76-26.373-23.195-41.331zm-29.04-153.155c70.605 0 128.258 57.644 128.258 128.138s-57.653 128.14-128.258 128.14c-70.69 0-128.343-57.646-128.343-128.14.002-70.495 57.652-128.138 128.343-128.138zm0-12.257c77.293 0 140.535 63.14 140.535 140.393 0 77.423-63.242 140.393-140.535 140.393-77.546 0-140.618-62.97-140.618-140.393 0-77.252 63.072-140.393 140.618-140.393z" fill="#0095da"/><path d="m212.821 347.544h5.335c-1.78 7.18-11.09 9.466-22.69 9.466-17.78 0-35.726-1.269-36.065-20.709 0-7.945 5.758-18.596 25.736-18.424h33.02v9.55h-4.065c0-5.748-9.481-7.525-18.624-7.525-13.97 0-23.028 5.748-23.283 16.655-.423 17.916 14.732 18.508 23.283 18.764 9.986.252 14.39-2.029 17.353-7.777zm-82.036-27.642.255-2.025h25.229v2.025c-3.553 0-8.04.256-8.04 4.484v26.71c0 4.647 6.94 4.227 8.04 3.971v1.945h-25.482v-1.689c2.455 0 7.704-.256 7.704-4.82v-26.117c-.002-4.484-3.98-4.484-7.706-4.484zm128.258-2.027h18.032v2.025c-5.334 0-7.026.508-12.106 2.961l-13.63 10.73 20.402 18.937c2.964 1.94 6.266 2.789 10.242 2.789v1.689h-14.9l-21.758-18.932c-.339-.509-2.792 2.197-5.249 4.223v8.794c0 4.648 7.536 4.48 8.466 4.228v1.689h-25.989v-1.689c2.537 0 7.788-.256 7.788-4.82v-26.117c0-4.484-3.978-4.484-7.788-4.484l.252-2.025h25.234v2.025c-3.471 0-7.958.256-7.958 4.484v14.706l20.912-16.483c1.862-1.52-.51-2.617-1.948-2.533v-2.197zm-148.745 31.19c-4.996 8.197-13.461 7.945-22.183 7.945-6.012 0-16.51-1.689-16.51-9.89v-21.215c0 .42 1.019-6.005-5.416-6.005v-2.025h15.407v29.413c0 10.99 28.7 10.734 28.7-5.24v-15.891c0-4.228-2.796-6.257-6.774-6.257v-2.025h23.281v2.025c-3.555 0-6.773 2.705-6.773 4.736v26.457c0 1.941 2.962 4.48 6.773 4.48v1.689h-16.507v-8.198h.002zm-85.76-10.483v13.95c0 1.012 1.355 2.79 2.878 2.79h21.251c4.994 0 7.788-3.975 7.788-8.202 0-4.058-1.525-8.538-8.465-8.538zm2.878-18.68c-1.184 0-2.878 2.029-2.878 2.961v13.438h20.656c7.45 0 11.259-2.197 11.514-8.454.17-6.168-6.265-7.945-9.99-7.945zm-20.403 37.108v-1.689c5.756 0 8.21-3.806 8.21-8.538v-19.356c0-4.564-1.947-7.525-8.21-7.525v-2.025h39.197c14.223 0 19.388 3.546 19.388 9.55 0 9.975-14.223 9.13-14.223 9.975 9.058 0 14.816 1.18 14.816 10.394s-9.738 9.214-19.05 9.214z" fill="#ed1c24"/></g><path d="m297.526 351.689a5.48 5.471 0 1 1 -10.96 0 5.48 5.471 0 1 1 10.96 0z"/><path d="m296.613 351.689a4.566 4.56 0 1 1 -9.133 0 4.566 4.56 0 1 1 9.133 0z" fill="#fff"/><path d="m289.655 351.767v-2.941l1.299.005c1.293.005 1.388.008 1.715.048.496.062.794.19 1.062.46.135.136.227.267.308.44.11.233.15.404.15.65 0 .418-.15.788-.442 1.099-.304.321-.645.482-1.163.545l-.068.009.132.065c.23.115.33.196.557.459.216.25.428.554.779 1.117l.405.65.191.304.021.032h-1.163l-.078-.14a241.44 241.44 0 0 0 -.22-.39c-.41-.73-.473-.836-.645-1.094-.272-.408-.499-.649-.71-.755-.183-.092-.358-.117-.831-.117h-.351v2.496h-.948z"/><path d="m292.224 351.38c.251-.033.382-.068.536-.141a.571.571 0 0 0 .177-.133.764.764 0 0 0 .243-.56.787.787 0 0 0 -.442-.767 1.226 1.226 0 0 0 -.44-.124c-.11-.015-.29-.02-.916-.023l-.78-.005v1.782l.745-.006c.584-.004.774-.009.877-.023z" fill="#fff"/><path d="m224.12 203.692a5.48 5.471 0 1 1 -10.96 0 5.48 5.471 0 1 1 10.96 0z"/><path d="m223.207 203.692a4.566 4.56 0 1 1 -9.133 0 4.566 4.56 0 1 1 9.133 0z" fill="#fff"/><path d="m216.25 203.77v-2.94l1.298.004c1.293.005 1.389.008 1.715.049.497.061.794.19 1.062.46.135.136.227.266.309.438.11.234.15.405.149.651 0 .418-.15.789-.442 1.099-.303.322-.645.482-1.163.546l-.068.008.132.066c.231.114.33.196.557.458.216.25.428.554.78 1.117l.404.65.192.305.02.031h-1.162l-.079-.14a241.44 241.44 0 0 0 -.22-.39c-.41-.729-.473-.836-.645-1.094-.272-.408-.498-.648-.71-.755-.183-.092-.358-.116-.831-.117h-.351v2.496h-.948v-2.941z"/><path d="m218.818 203.384c.251-.034.383-.069.536-.142a.571.571 0 0 0 .177-.133.764.764 0 0 0 .243-.56.787.787 0 0 0 -.442-.767 1.226 1.226 0 0 0 -.44-.123c-.11-.015-.29-.02-.916-.024l-.78-.005v1.781l.746-.004c.583-.004.773-.01.876-.023z" fill="#fff"/></svg>