<svg xmlns="http://www.w3.org/2000/svg" width="2500" height="2500" viewBox="0 0 192.756 192.756"><g fill-rule="evenodd" clip-rule="evenodd"><path fill="#fff" d="M0 0h192.756v192.756H0V0z"/><path d="M69.672 115.887c-.577.99-1.155 1.566-1.897.164-3.753-7.299-8.249-14.682-8.249-22.477V79.179c0-1.732.99-.33 1.526.577l13.527 24.169c.413.824.413 1.938.083 2.764-1.319 3.299-2.68 5.403-4.99 9.198zm-8.95-54.154h16.085c.743 0 1.32.577 1.32 1.402v28.664c0 1.774-.577 2.6-1.732.496L60.599 63.589c-.743-1.279-.66-1.856.123-1.856z" fill="#cc2229"/><path d="M96.563 106.689c-.577.99-1.155 1.566-1.897.082-3.753-7.217-8.289-14.559-8.289-22.354V69.9c0-1.609.989-.248 1.567.659l13.529 24.169c.412.742.412 1.981.082 2.805-1.321 3.176-2.723 5.403-4.992 9.156zm-8.949-54.153h16.044c.742 0 1.318.578 1.318 1.402v28.666c0 1.813-.576 2.556-1.73.412L87.449 54.433c-.743-1.403-.66-1.897.165-1.897z" fill="#d0d1d3"/><path d="M123.166 97.533c-.578.99-1.236 1.484-1.98.082-3.752-7.3-8.166-14.6-8.166-22.354V60.743c0-1.649.908-.248 1.484.66L127.99 85.49c.414.825.414 1.938.084 2.846-1.279 3.216-2.681 5.403-4.908 9.197zm-8.908-54.236h15.961c.742 0 1.32.66 1.32 1.485v28.664c0 1.815-.578 2.517-1.732.413L114.01 45.235c-.742-1.36-.576-1.938.248-1.938z" fill="#505e86"/><path d="M112.525 41.317c-.742 0-1.32.577-1.32 1.238v33.82c-.082 7.217 5.402 16.168 9.033 23.426.33.578 1.113 1.402 1.773 1.402.742 0 .99 0 2.062-1.566 5.072-6.764 9.32-17.529 9.32-23.262v-33.82c0-.661-.537-1.238-1.279-1.238h-19.589zm-26.644 9.28c-.66 0-1.196.495-1.196 1.196l-.082 33.779c0 7.218 5.485 16.127 9.074 23.426.33.578 1.155 1.402 1.814 1.402.661 0 .99 0 2.021-1.484 5.115-6.887 9.363-17.611 9.363-23.344V51.793c0-.701-.578-1.196-1.32-1.196H85.881zm-26.849 9.156c-.66 0-1.238.495-1.238 1.237l-.083 33.82c0 7.219 5.486 16.086 9.074 23.344.33.578 1.155 1.404 1.815 1.404.66 0 .99 0 2.062-1.486 5.073-6.846 9.321-17.611 9.321-23.262V60.99c0-.743-.578-1.237-1.278-1.237H59.032zm51.513 30.727c-1.938 10.807-9.816 21.281-15.219 29.324-3.547-6.062-8.456-13.197-11.548-20.623-1.815 10.971-9.857 21.613-15.343 29.82-5.568-9.609-14.642-21.818-14.642-34.274v-39.14h26.85V46.39h26.562v-9.155h30.314v39.14c0 12.538-9.445 24.994-15.674 34.273-3.339-5.898-8.165-12.869-11.3-20.168zM96.398 15.746c34.398 0 62.484 28.128 62.484 62.526s-28.086 62.527-62.484 62.527c-34.439 0-62.526-28.129-62.526-62.527.001-34.397 28.087-62.526 62.526-62.526zm0-5.98c37.656 0 68.465 30.809 68.465 68.506 0 37.779-30.809 68.507-68.465 68.507-37.779 0-68.506-30.729-68.506-68.507 0-37.697 30.727-68.506 68.506-68.506z" fill="#0094d6"/><path d="M130.344 178.248h2.598c-.867 3.506-5.404 4.619-11.055 4.619-8.66 0-17.404-.619-17.57-10.105 0-3.877 2.805-9.072 12.539-8.99h16.086v4.66h-1.98c0-2.805-4.619-3.672-9.074-3.672-6.805 0-11.219 2.807-11.342 8.127-.205 8.742 7.178 9.031 11.342 9.156 4.866.123 7.012-.99 8.456-3.795zM90.377 164.76l.124-.988h12.291v.988c-1.732 0-3.918.125-3.918 2.188v13.033c0 2.268 3.383 2.062 3.918 1.938v.949H90.377v-.824c1.196 0 3.753-.125 3.753-2.352v-12.744c0-2.188-1.938-2.188-3.753-2.188zm62.484-.989h8.785v.988c-2.6 0-3.424.248-5.898 1.445l-6.639 5.238 9.938 9.238c1.445.947 3.053 1.361 4.992 1.361v.824h-7.26l-10.6-9.238c-.164-.248-1.359 1.072-2.557 2.062v4.289c0 2.268 3.67 2.186 4.125 2.062v.824h-12.662v-.824c1.236 0 3.793-.125 3.793-2.352v-12.744c0-2.188-1.938-2.188-3.793-2.188l.123-.988H147.5v.988c-1.691 0-3.877.125-3.877 2.188v7.176l10.188-8.043c.908-.742-.248-1.277-.949-1.236v-1.07h-.001zM80.396 178.99c-2.434 4-6.558 3.877-10.806 3.877-2.929 0-8.043-.824-8.043-4.824v-10.354c0 .205.496-2.93-2.639-2.93v-.988h7.506v14.352c0 5.363 13.982 5.238 13.982-2.557v-7.754c0-2.061-1.361-3.053-3.3-3.053v-.988h11.342v.988c-1.732 0-3.299 1.32-3.299 2.311v12.91c0 .947 1.443 2.186 3.299 2.186v.824h-8.042v-4zm-41.78-5.115v6.807c0 .494.659 1.361 1.402 1.361h10.353c2.433 0 3.794-1.939 3.794-4 0-1.98-.742-4.168-4.124-4.168H38.616zm1.402-9.115c-.577 0-1.402.992-1.402 1.445v6.557h10.063c3.629 0 5.485-1.072 5.609-4.123.082-3.012-3.052-3.879-4.867-3.879h-9.403zm-9.94 18.107v-.824c2.804 0 4-1.857 4-4.166v-9.445c0-2.227-.949-3.672-4-3.672v-.988h19.096c6.929 0 9.445 1.732 9.445 4.66 0 4.867-6.929 4.455-6.929 4.867 4.413 0 7.218.576 7.218 5.072s-4.743 4.496-9.28 4.496h-19.55z" fill="#cc2229"/></g></svg>