<svg xmlns="http://www.w3.org/2000/svg" width="2500" height="2500" viewBox="0 0 192.756 192.756"><g fill-rule="evenodd" clip-rule="evenodd"><path fill="#fff" d="M0 0h192.756v192.756H0V0z"/><path d="M181.289 84.438a2.972 2.972 0 1 0 0 5.943 2.966 2.966 0 0 0 2.963-2.979 2.963 2.963 0 0 0-2.963-2.964z"/><path d="M181.289 90.024a2.612 2.612 0 0 1-2.615-2.622 2.608 2.608 0 0 1 2.615-2.605 2.606 2.606 0 0 1 2.605 2.605 2.609 2.609 0 0 1-2.605 2.622z" fill="#fff"/><path d="M39.354 95.787c-1.012-.177-.775-.655-.104-.724 4.034-.414 6.621-2.069 6.621-5.172s-.828-5.068-9.414-5.068H11.756v1.702c3.91.207 5.255 1.19 5.255 3.103v12.578c0 1.914-1.034 3.258-5.255 3.568v1.703h24.701c4.449 0 10.862-1.035 10.862-6.104s-3.828-4.861-7.965-5.586z"/><path d="M33.943 86.59c3.349.08 5.1.198 5.1 3.507 0 3.311-2.482 4.345-5.792 4.655-3.189.299-6.285.309-9.931-.061v-5.977c.019-2.538 3.629-2.291 10.623-2.124zM34.159 105.566h-6.184c-4.758 0-4.655-1.758-4.655-3.678v-5.1c3.415-.262 6.056-.072 10.034-.072 4.137 0 7.137.725 7.137 4.242s-3.045 4.608-6.332 4.608z" fill="#fff"/><path d="M82.385 101.844V84.822H70.593v1.702c3 .414 5.482.207 5.482 4.655v7.763c0 5.172-1.517 6.477-8.999 7.039-5.054.381-6.931-1.66-6.931-7.039 0-5.378-.104-8.533.621-14.119H48.663v1.702c4.862.311 5.379 1.345 5.379 4.034s-.236 6.874-.207 8.735c.081 5.16.667 8.699 12.414 8.699 6.827 0 8.275-1.758 8.896-2.275s1.034-.723 1.034 0v1.76H87.04v-1.703c-2.69-.312-4.655.102-4.655-3.931zM89.212 86.524c3 .311 4.654.552 4.654 4.069v11.112c0 3.518-1.655 3.758-4.654 4.068v1.703h15.516v-1.703c-3-.311-4.656-.551-4.656-4.068V90.593c0-3.517 1.656-3.758 4.656-4.069v-1.702H89.212v1.702zM124.795 106.855c-7.965 0-10.447-2.896-10.447-9.828 0-7.24 1.139-11.378 9.311-11.378 8.275 0 9.412 2.276 10.033 6.103h4.654l-.207-6.206c-5.48-1.138-11.17-1.552-14.377-1.552s-16.137 0-16.137 11.792c0 4.083 1.027 6.928 3.104 8.792 3.758 3.381 11.273 3.725 13.447 3.725 6.412 0 14.273-1.965 14.688-8.566h-4.965c-.001 3.187-1.448 7.118-9.104 7.118zM160.4 94.31c-.486-.385-.229-.902.539-1.483l4.238-3.039c4.012-2.875 8.016-3.043 10.201-3.264v-1.702h-15.207v1.702c4.459-.01 3.578 2.09 2.129 3.264l-9.654 6.827v-6.263c0-3.517 1.859-3.517 4.939-3.827v-1.702h-15.93v1.702c3.08.311 4.861.311 4.861 3.827v11.594c0 3.518-2.074 3.518-5.338 3.828v1.703h16.885v-1.703c-3.266-.311-5.418-.311-5.418-3.828v-3.158c1.863-1.449 2.154-1.049 2.664-1.139.92-.16 11.844 9.828 11.844 9.828H177.5v-1.703c-5.336-.323-15.34-10.178-17.1-11.464zM182.812 86.625c0-.28-.123-.576-.373-.715-.248-.148-.529-.164-.809-.164h-1.447v3.322h.404v-1.533h.748l.947 1.533h.482l-1.002-1.533c.592-.016 1.05-.257 1.05-.91z"/><path d="M181.211 87.216h-.623v-1.174h.949c.412 0 .863.062.863.575 0 .677-.722.599-1.189.599z" fill="#fff"/></g></svg>