<svg xmlns="http://www.w3.org/2000/svg" width="2500" height="2500" viewBox="0 0 192.756 192.756"><g fill-rule="evenodd" clip-rule="evenodd"><path fill="#fff" d="M0 0h192.756v192.756H0V0z"/><path d="M7.625 7.625h177.506v177.506H7.625V7.625zm6.105 6.105v165.295h165.295V13.73H13.73zm82.648 13.278c30.507 0 55.265 24.756 55.265 55.264 0 30.507-24.758 55.263-55.265 55.263s-55.264-24.756-55.264-55.263c0-30.507 24.757-55.264 55.264-55.264zm0 5.846c-27.289 0-49.394 22.129-49.394 49.418 0 27.288 22.105 49.394 49.394 49.394 27.288 0 49.394-22.105 49.394-49.394-.001-27.289-22.106-49.418-49.394-49.418zm29.087 76.943a1.904 1.904 0 1 1 0-3.809 1.904 1.904 0 1 1 0 3.809zm0-.213c.924 0 1.682-.756 1.682-1.703 0-.924-.758-1.68-1.682-1.68-.922 0-1.68.756-1.68 1.68 0 .947.758 1.703 1.68 1.703zm.308-1.609l.639.994h-.309l-.615-.994h-.473v.994h-.26v-2.152h.922c.189 0 .379.023.521.117.166.072.26.26.26.449.001.428-.306.568-.685.592zm-.757-.213h.402c.309 0 .758.049.758-.379 0-.33-.285-.377-.545-.377h-.615v.756zm-16.354-15.478c-2.793 13.041-11.432 24.378-11.929 25.134h.024c-.237-.543-5.87-7.928-9.585-17.537-2.793 13.064-11.432 24.4-11.929 25.158h.023c-.354-.828-12.804-16.852-12.804-32.85V64.545h21.514v-7.598h21.491v-7.621h25.561v27.621c0 15.999-12.189 31.951-12.781 32.85h.025c-.239-.543-5.895-7.904-9.61-17.513zM66.51 68.616v23.999c0 12.094 8.236 23.147 8.756 23.999.497-.852 8.71-11.904 8.71-23.999V68.616H66.51zm21.514-7.621v23.999c0 12.118 8.236 23.17 8.733 23.999.497-.828 8.71-11.881 8.71-23.999V60.995H88.024zm21.49-7.62v23.999c0 12.142 8.236 23.17 8.732 23.998.521-.828 8.734-11.856 8.734-23.998V53.375h-17.466zm.898.898h15.668v19.242c0 4.189-.141 6.698-.283 8.118l-15.385-27.36zm0 11.313l13.35 23.479c-1.775 4.757-3.811 8-5.49 10.699-3.74-5.586-7.859-14.225-7.859-21.988l-.001-12.19zm-21.49-3.691h15.644v19.242c0 4.189-.141 6.698-.283 8.118l-15.361-27.36zm0 11.289l13.326 23.478c-1.775 4.758-3.811 8.023-5.491 10.721-3.692-5.609-7.834-14.223-7.834-21.986l-.001-12.213zm-21.513-3.669h15.667v19.242c0 4.189-.142 6.698-.284 8.094L67.409 69.515zm0 11.29l13.348 23.478c-1.775 4.758-3.81 8.023-5.491 10.721-3.715-5.609-7.857-14.248-7.857-21.987V80.805zm-40.638 66.482c10.343.166 14.438.119 22.295 0 4.852-.07 7.242.875 7.242 4.33 0 3.48-2.77 4.451-5.728 4.758-.71.07-.545.402-.024.449 4.189.332 6.911.781 6.911 4.664 0 3.881-3.101 5.988-9.373 5.916-8.757-.094-12.07-.117-21.49-.023v-1.254c3.029 0 4.757-.828 4.757-4.189v-9.68c0-2.486-.521-3.693-4.592-3.693v-1.278h.002zm9.965 8.639c4.521.07 6.603.189 9.419.023 2.675-.143 4.166-1.443 4.166-3.881 0-2.414-2.035-3.266-4.402-3.266-2.414 0-3.55-.049-6.011-.049s-3.03.947-3.101 2.131c-.071 1.161-.071 2.319-.071 5.042zm.023 1.988s-.071 2.105-.023 4.615c.023 2.508 1.041 3.076 3.171 3.172 2.343.117 4.402.164 7.124 0 2.06-.096 4.497-1.373 4.497-4.262 0-2.863-2.177-3.383-4.852-3.525-2.769-.166-6.958-.119-9.917 0zm21.68-10.627h10.438c-.332 7.076-.521 10.391-.521 13.727 0 3.314 1.467 5.064 5.846 5.064 4.354 0 7.219-1.607 7.432-5.064.213-3.785.213-6.627.213-9.041 0-2.438-1.941-3.289-4.592-3.289v-1.396H87.55c-.095 6.438-.332 10.721-.332 14.152 0 3.457.26 4.379 4.166 4.379v1.562h-9.396v-2.674c-2.106 2.461-4.663 3.029-8.544 3.029-3.881 0-10.556-.498-10.532-6.107.047-5.584.189-7.904.189-10.082 0-2.154-1.42-2.934-4.663-2.934v-1.326h.001zm48.352 20.094H92.804v-1.586c3.195 0 4.26-1.018 4.26-3.289v-10.697c0-2.416-1.444-3.195-4.094-3.195v-1.326h13.657v1.326c-2.652 0-4.119.779-4.119 3.195v10.697c0 2.271 1.09 3.289 4.283 3.289v1.586zm1.918-10.012c0-6.793 3.289-10.627 14.201-10.627 6.791 0 9.869.781 12.023 1.23v5.562h-4.072c0-3.432-2.248-5.23-7.951-5.23-5.705 0-8.26 1.893-8.26 9.111s2.721 8.805 8.26 8.805c5.537 0 8.094-1.846 8.094-6.035h4.496c0 4.355-3.811 7.504-12.59 7.504-8.781 0-14.201-2.201-14.201-10.32zm29.016-10.082h13.562v1.326c-2.936 0-4.07.662-4.07 3.004v5.871c2.248-1.682 6.271-4.545 7.857-5.705 1.561-1.158 2.65-3.266-1.492-3.266v-1.23h12.947v1.277c-6.32.9-9.184 3.67-12.852 6.51 4.379 3.645 7.951 6.816 10.059 8.59 2.082 1.752 3.479 2.414 4.709 2.414v1.303h-8.898s-8-7.266-8.805-8.07c-.828-.781-1.396-1.254-2.508-.426-.568.402-.971.709-.971.709v3.172c0 2.391 2.318 3.289 4.639 3.289v1.326h-14.77v-1.373c2.463 0 4.758-.402 4.758-3.172v-11.219c0-2.555-1.42-3.004-4.166-3.004v-1.326h.001zm34.933 20.141a1.909 1.909 0 0 1-1.916-1.916c0-1.041.852-1.918 1.916-1.918 1.041 0 1.895.877 1.895 1.918a1.905 1.905 0 0 1-1.895 1.916zm0-.237c.924 0 1.682-.734 1.682-1.68 0-.924-.758-1.682-1.682-1.682-.945 0-1.68.758-1.68 1.682.001.946.735 1.68 1.68 1.68zm.309-1.586l.639.971h-.309l-.615-.971h-.473v.971h-.26v-2.131h.922c.189 0 .355 0 .521.096.166.094.236.283.236.473.001.425-.282.568-.661.591zm-.758-.212h.402c.283 0 .758.047.758-.379 0-.33-.285-.379-.545-.379h-.615v.758z"/></g></svg>