<svg height="2500" viewBox="-101.982 -101.457 1000 1042.057" width="2399" xmlns="http://www.w3.org/2000/svg"><g stroke-width="3.532"><path d="m673.923 45.339c2.42-5.96-2.508-11.809-2.508-11.809s-38.708-65.851-175.663-80.46c-73.329-7.815-173.158 7.021-243.13 44.755-126.782 68.313-145.766 180.848-145.766 180.848-.714 2.755-1.929 11.144.922 14.723 2.903 3.641 7.128 3.574 12.37 1.805 44.745-15.115 178.107-59.341 262.266-81.676 119.77-31.753 218.158-51.075 281.31-61.835 4.482-.76 8.506-2.229 10.198-6.351" fill="#ffbb36"/><path d="m810.683 575.71c-71.686 160.993-209.217 273.033-389.46 275.587-131.254 1.862-247.085-43.106-330.739-121.539l-50.594 21.647.084-78.335c-55.123-74.353-87.084-168.403-87.084-275.244 0-273.648 209.595-489.357 501.908-489.357 47.712 0 90.835 7.425 123.347 14.79-50.092-16.03-99.867-24.716-155.273-24.716-313.72 0-524.843 254.382-524.854 516.719 0 285.88 224.268 525.338 518.637 525.338 281.161 0 432.853-198.228 481.363-317.443z" fill="#0066b3"/><path d="m737.912 519.15c41.255-4.68 69.797-21.262 85.463-36.642 14.278-14.027 17.609-33.342 17.63-47.69.576-21.082 0-87.608 0-87.608l-109.175 23.621s-.01 8.23-.042 25.504c.201 16.871 8.333 26.055 26.016 22.802 5.542-.908 14.073-3.628 14.073-3.628l.148 20.848c-.095-.597 1.615 11.625-25.899 17.065-36.006 5.652-52.368-16.503-52.795-55.653.71-41.957 24.433-66.154 53.212-72.781 32.378-7.425 50.704.29 61.474 1.932 36.161 5.415 46.416-48.8 13.522-61.517-24.317-9.795-55.865-11.565-85.94-5.56-40.156 8.008-119.126 41.62-119.345 150.83.215 86.78 64.194 115.061 121.66 108.477m-354.894 93.011s33.497-11.49 36.394-12.508c26.924-9.29 36.733-25.3 36.613-53.007-.34-30.086-.389-88.752-.389-88.752l77.89 89.748c12.653 13.066 28.51 14.182 43.028 9.922 15.009-4.394 27.507-18.117 27.885-37.471.123-64.81-.032-222.983-.032-222.983s-20.128 4.27-36.836 9.008c-19.223 5.447-34.013 17.704-34.013 50.061 0 11.456-.043 77.193-.043 77.193s-43.837-54.978-72.502-83.654c-15.327-15.31-40.686-6.17-40.686-6.17l-37.373 11.31zm-23.583-251.506s-23.458 6.88-42.548 13.772c-24.786 8.962-39.075 23.304-39.075 60.825 0 34.462-.06 213.826-.06 213.826s21.714-7.425 41.958-15.062c28.782-10.851 39.64-25.656 39.64-55.879 0-25.974.085-217.482.085-217.482m-116.41 50.88c-21.53-9.781-40.011 1.127-47.86 13.183l-66.18 112.56-.116-90.744-78.017 32.318-.244 256.614 54.957-23.038s10.788-3.059 17.299-13.289c5.983-9.424 5.76-25.232 5.76-25.232l.068-81.372 61.421 65.176c13.487 14.006 38.267 21.198 60.132 3.536 19.771-15.966 16.709-43.187 5.68-55.377l-55.953-56.324s49.242-77.607 57.292-90.574c10.686-17.224 5.31-38.556-14.239-47.437" fill="#ec1d23"/><path d="m212.472 713.17c-2.904 6.69 3.72 13.328 3.72 13.328 28.396 35.63 154.478 80.81 291.33 47.733 208.994-50.545 253.153-198.4 258.155-219.277 1.028-4.257 1.84-11.102-2.109-15.21-3.313-3.43-8.022-3.466-14.557-1.954-145.157 34.123-386.706 107.855-525.967 167.524-5.994 2.568-8.707 3.511-10.572 7.856" fill="#ffbb36"/><g fill="#ec1d23"><path d="m88.524 376.865c-.191-14.144-11.187-21.862-30.188-12.325l-.04 45.47s6.144-2.72 10.651-4.819c11.11-5.154 19.838-14.423 19.577-28.326m-30.563-41.1a108.9 108.9 0 0 0 8.711-3.818c10.294-5.013 17.62-14.31 17.705-26.348.106-13.71-11.184-17.253-26.394-9.39zm80.437 34.604c.618 35.885-25.232 54.978-58.907 68.93l-68.98 29.306-.16-186.882s43.46-17.718 57.639-22.876c40.304-14.666 64.003 3.013 64.003 29.937 0 17.966-7.69 33.237-24.38 46.656 16.436 2.741 30.47 16.242 30.785 34.929zm130.945-157.736c0-15.74-10.826-19.926-23.921-16.157-10.587 3.03-22.918 7.845-22.918 7.845l-.085 116.184c-.127 11.572-1.918 26.059-16.175 29.648-10.943 2.759-16.118-4.543-16.129-16.094l-.155-95.096c0-15.821-11.007-20.558-24.06-16.227-14.673 4.9-23.49 8.428-23.49 8.428s.17 82.273-.031 115.174c-.188 38.566 26.404 57.822 66.935 45.85 35.755-10.572 59.63-30.58 60.082-81.944zm383.364 48.016c10.3-2.222 16.726-9.506 16.726-22.092 0-11.339.043-19.961.043-19.961l-55.954 12.225.103-32.918s27.425-5.814 35.041-7.475c9.57-2.098 14.582-7.315 14.582-18.252 0-10.201-.064-19.029-.064-19.029l-49.577 10.52-.01-26.1s25.772-5.38 39.661-8.299c10.82-2.274 14.391-9.685 14.391-19.883 0-6.641.106-19.785.106-19.785-24.73 4.366-71.74 13.758-101.055 20.473l-.399 170.36s55.745-13.13 86.406-19.784m-323.331-6.881c.04-.032 27.68-14.31 27.377-36.96-.272-19.368-18.111-15.129-27.366-11.734zm.071 26.28s-.092 32.626-.138 45.791c-.113 12.342-8.54 21.255-19.209 25.331-8.919 3.06-27.874 9.583-27.874 9.583l.074-175.429s39.14-13.635 62.156-18.983c35.766-8.319 61.203 7.955 60.743 36.846-.222 27.507-15.567 44.198-29.35 55.625l30.29 29.082c9.308 9.018 9.958 25.32-.512 35.172-6.207 5.832-22.809 11.876-35.808-1.353zm396.017-120.634c.057 0 27.305-10.378 26.995-32.226-.283-18.478-18.478-15.133-27.066-13.215l.071 45.44m-45.727 96.128.074-168.213s49.115-8.682 61.8-10.314c35.21-4.522 58.835 15.02 58.351 42.78-.187 24.413-15.525 39.104-28.56 47.918 0 0 23.95 26.984 30.369 34.122 8.622 9.623 8.237 26.073-4.518 34.13-12.537 7.906-24.956 3.77-32.166-4.192l-39.538-46.37s.127 28.52.095 40.972c-.116 12.395-7.287 21.431-20.145 24.091z"/><path d="m555.287 184.939-69.673 15.822s-.084 7.361-.095 19.378c.095 9.011 6.415 14.861 15.507 12.989 5.733-1.19 10.322-2.254 10.322-2.254l.106 19.35c.074 7.655-11.413 12.668-23.342 12.392-16.716-.434-25.985-13.423-26.225-38.139.52-32.498 15.808-51.576 36.631-56.903 10.4-2.678 19.863-1.374 27.214-.42 17.951 2.9 28.287-5.755 28.655-20.59.374-15.89-13.72-25.717-43.972-24.668-65.596 2.265-99.136 49.394-99.136 105.64 0 57.603 37.63 83.047 83.562 74.746 25.956-5.235 38.867-13.664 47.814-21.51 8.944-7.845 12.632-19.58 12.632-29.6z"/></g><path d="m280.788-3.465c-76.836 33.918-128.713 114.655-131.564 148.83-1.123 13.586 16.889 15.536 18.584 1.11 16.214-62.34 65.837-121.115 112.98-149.94m254.615 57.928c41.443-10.166 64.202-11.7 64.612-30.213.72-31-87.724-66.946-168.708-60.435 82.514 5.514 132.01 37.28 132.281 59.418.156 14.002-11.978 26.359-28.185 31.23m25.681 685.2c62.184-24.458 121.942-71.178 155.002-141.158 9.54-20.223-18.048-30.555-25.836-6.807-19.35 49.754-59.119 108.172-129.166 147.965" fill="#fff"/></g></svg>