<svg height="2500" viewBox=".18 .17 725.62 799.7" width="2268" xmlns="http://www.w3.org/2000/svg"><path d="m671.07 755.91c-60.54 34.19-164.41 43.96-308.08 43.96s-247.54-9.77-308.08-43.96c-36.34-20.47-54.73-48.37-54.73-68.38 0-11.4 6.06-17.91 19.56-17.91h686.49c13.51 0 19.56 6.51 19.56 17.91.01 20.01-18.38 47.91-54.72 68.38zm35.16-530.34h-686.49c-13.5 0-19.56-6.98-19.56-19.54 0-74.44 112.01-205.86 362.81-205.86 248.48 0 362.81 131.42 362.81 205.86 0 12.56-6.06 19.54-19.57 19.54z" fill="#ff8732"/><path d="m.18 380.72v-102.58c0-14.42 8.85-25.13 27.24-25.13h27.72c29.34 0 48.2 14.9 48.2 42.8 0 11.87-4.42 20.01-8.84 25.13-1.16 1.4-1.87 1.86-1.87 3.02 0 .94 1.17 1.86 2.33 2.8 2.79 2.32 15.13 11.85 15.13 32.56 0 25.81-18.85 46.52-49.83 46.52h-32.84c-18.39 0-27.24-10.7-27.24-25.12zm40.99-71.88c0 3.04 1.86 5.36 5.82 5.36h3.02c10.02 0 13.05-7.91 13.05-13.49 0-6.06-3.04-13.03-13.05-13.03h-3.02c-3.96 0-5.82 2.33-5.82 5.35zm0 56.76c0 3.03 1.86 5.35 5.82 5.35h4.19c11.17 0 14.43-8.6 14.43-14.65 0-6.75-3.25-14.19-14.43-14.19h-4.19c-3.96 0-5.82 2.33-5.82 5.35zm137.38 41.4c37.73 0 57.76-22.57 57.76-50.94v-78.38c0-13.96-8.15-25.13-23.06-25.13-14.9 0-23.05 11.17-23.05 25.13v75.82c0 5.58-3.26 12.1-11.65 12.1-8.38 0-11.18-6.52-11.18-12.1v-75.82c0-13.96-8.38-25.13-23.29-25.13s-23.06 11.17-23.06 25.13v78.38c.02 28.39 19.81 50.94 57.53 50.94zm140.66-13.7c-6.29-8.15-11.87-24.21-13.97-36.06-.47-2.8-1.39-4.42-4.19-4.42-2.32 0-3.72 1.4-3.72 4.42v24.65c0 13.95-8.15 25.12-23.06 25.12s-23.05-11.17-23.05-25.12v-103.75c0-14.43 8.84-25.13 27.24-25.13h26.33c29.57 0 54.03 16.75 54.03 46.3 0 19.53-8.39 31.86-15.61 37.44-2.1 1.63-2.56 3.26-1.86 5.12 3.02 8.14 9.08 15.82 15.83 24.65 4.19 5.35 7.45 11.16 7.45 19.08 0 11.86-10.49 21.4-22.59 21.4-7.46 0-14.91-3.26-22.83-13.7zm-2.57-88.64c0-6.05-3.02-13.03-12.8-13.03h-3.26c-3.97 0-5.83 2.34-5.83 5.36v15.8c0 3.03 1.86 5.35 5.83 5.35h3.26c9.78 0 12.8-7.67 12.8-13.48zm120.17 102.58c36.57 0 59.62-23.27 59.62-57.22 0-21.63-13.05-36.52-39.12-36.52h-7.45c-13.75 0-24.45 6.52-24.45 21.17 0 13.03 11.4 19.31 20.03 19.31 4.42 0 7.22 1.4 7.22 4.65 0 4.19-4.89 6.98-10.49 6.98-17.46 0-29.34-12.33-29.34-35.36 0-25.59 16.31-34.89 28.88-34.89 15.37 0 17.93 7.92 28.64 7.92 12.35 0 20.73-10.24 20.73-20.93 0-7.92-3.5-13.96-8.84-18.15-9.79-7.22-23.52-12.56-44.01-12.56-36.1 0-71.27 23.73-71.27 78.62-.01 52.55 35.15 76.98 69.85 76.98zm141.82-1.4c13.04 0 23.29-7.68 23.29-21.63 0-13.73-10.25-21.41-23.29-21.41h-20.96c-3.96 0-5.82-2.32-5.82-5.35v-4.42c0-3.02 1.86-5.35 5.82-5.35h16.07c11.19 0 20.03-6.74 20.03-18.61 0-11.86-8.84-18.61-20.03-18.61h-16.07c-3.96 0-5.82-2.33-5.82-5.36v-3.72c0-3.02 1.86-5.35 5.82-5.35h20.96c13.04 0 23.29-7.68 23.29-21.63 0-13.73-10.25-21.41-23.29-21.41h-44.01c-18.39 0-27.24 10.7-27.24 25.13v102.57c0 14.42 8.85 25.13 27.24 25.13h44.01zm33.76-23.94v-103.75c0-14.43 8.85-25.12 27.24-25.12h26.32c29.57 0 54.03 16.75 54.03 46.29 0 19.54-8.39 31.87-15.61 37.45-2.1 1.62-2.56 3.25-1.86 5.11 3.02 8.14 7.91 14.66 15.83 24.66 4.19 5.34 7.45 11.15 7.45 19.07 0 11.87-10.49 21.4-22.59 21.4-7.45 0-14.9-3.25-22.82-13.73-6.29-8.15-11.87-24.2-13.97-36.06-.46-2.79-1.39-4.41-4.19-4.41-2.32 0-3.72 1.39-3.72 4.41v24.66c0 13.95-8.15 25.12-23.06 25.12-14.9 0-23.05-11.16-23.05-25.1zm43.55-69.1c0 3.03 1.86 5.36 5.82 5.36h3.26c9.79 0 12.81-7.68 12.81-13.5 0-6.05-3.02-13.03-12.81-13.03h-3.26c-3.96 0-5.82 2.34-5.82 5.36zm-509.52 219.82c-2.1-3.26-2.33-5.36-2.33-6.28 0-2.56 1.4-4.42 4.19-6.98 6.52-6.05 22.59-21.17 31.44-34.89 6.74-10.47 9.54-20 9.54-27.9 0-20.24-18.39-36.06-38.42-36.06-12.81 0-24.92 7.21-33.06 20.47-10.95 17.67-24 38.14-32.37 46.29-2.1 2.1-3.26 2.56-4.88 2.56-2.8 0-3.96-1.86-3.96-4.88v-23.27c0-22.79-13.51-41.17-37.97-41.17-24.68 0-37.96 18.37-37.96 41.17v143.29c0 22.79 13.27 41.18 37.96 41.18 24.46 0 37.97-18.37 37.97-41.18v-33.02c0-2.8 1.16-4.88 3.96-4.88 3.72 0 4.66 3.72 5.58 5.58 5.36 12.79 20.96 40 35.4 56.05 9.79 10.7 21.89 17.45 34.7 17.45 21.66 0 39.83-18.85 39.83-39.08 0-12.56-5.37-21.87-15.61-33.03-13.05-14.21-28.42-32.82-34.01-41.42zm106.19-112.13c-26.08 0-40.29 19.54-40.29 43.96v137.71c0 24.43 14.21 43.97 40.29 43.97 26.07 0 40.28-19.54 40.28-43.97v-137.71c0-24.41-14.19-43.96-40.28-43.96zm223.32 0c-23.99 0-37.03 17.91-37.03 40.48v50.24c0 4.18-1.4 6.05-3.96 6.05-1.86 0-3.26-1.16-4.89-4.41l-32.36-62.81c-12.34-23.97-25.15-29.55-39.82-29.55-24.46 0-37.96 18.38-37.96 41.41v143.76c0 22.57 13.04 40.48 37.02 40.48 23.99 0 37.03-17.91 37.03-40.48v-50.24c0-4.18 1.39-6.05 3.96-6.05 1.86 0 3.26 1.16 4.88 4.42l32.37 62.8c12.34 23.97 25.61 29.55 39.82 29.55 24.45 0 37.96-18.37 37.96-41.4v-143.77c0-22.57-13.03-40.48-37.02-40.48zm190.72 89.56h-11.41c-20.5 0-36.33 9.54-36.33 30.47 0 19.07 17.23 28.14 30.04 28.14 6.29 0 10.71 1.86 10.71 6.74 0 6.06-7.45 10-15.37 10-26.31 0-44.25-17.91-44.25-51.17 0-36.99 24.46-50.48 43.31-50.48 23.06 0 26.78 11.63 42.85 11.63 18.63 0 31.2-15.11 31.2-30.46 0-11.4-5.12-20.24-13.27-26.29-14.2-10.47-35.62-18.15-65.9-18.15-54.26 0-107.12 34.19-107.12 113.75 0 76.06 52.85 111.65 105.02 111.65 54.72 0 89.42-33.73 89.42-83.04.01-31.16-19.54-52.79-58.9-52.79z" fill="#d62300"/></svg>