<svg height="1512" width="2500" xmlns="http://www.w3.org/2000/svg" viewBox="5 5 833.387 500"><g fill="#e50012"><path d="M716.09 198.749c14.932 14.932 23.282 35.163 23.282 56.251s-8.35 41.319-23.282 56.198c-14.88 14.932-35.11 23.282-56.198 23.282H601.66v-38h58.874a41.685 41.685 0 0 0 30.936-11.294 41.75 41.75 0 0 0 13.005-30.24 41.66 41.66 0 0 0-13.005-30.24c-8.35-7.867-19.536-11.988-30.936-11.346h-66.1v121.12H556.81V175.467h103.083a79.526 79.526 0 0 1 56.198 23.282zM362.472 175.467v53.254c0 1.445.267 2.836.802 4.175s1.339 2.515 2.302 3.532c1.017 1.017 2.248 1.82 3.532 2.408a11.14 11.14 0 0 0 4.175.803h27.724v34.308h-34.521a42.023 42.023 0 0 1-16.003-3.158 42.468 42.468 0 0 1-13.541-8.992c-3.854-3.853-6.958-8.456-9.045-13.54-2.088-5.032-3.212-10.491-3.212-15.95v-56.84zM529.995 175.467v56.84c0 5.459-1.07 10.865-3.158 15.95-2.087 5.03-5.192 9.633-9.045 13.487s-8.457 6.958-13.488 9.045-10.49 3.158-15.95 3.158h-42.12v60.533h-37.627v-94.84h72.79c1.445 0 2.89-.268 4.228-.804 1.285-.535 2.516-1.391 3.533-2.408s1.82-2.194 2.355-3.532c.588-1.339.856-2.73.856-4.175v-53.254z"/><g fill-rule="evenodd"><path d="M301.885 224.44q0 4.12-.696 8.134-.642 4.015-1.98 7.868-1.338 3.907-3.265 7.493-1.98 3.586-4.496 6.797c5.674 7.28 9.206 15.95 10.17 25.102.963 9.206-.643 18.412-4.71 26.707-4.015 8.296-10.277 15.254-18.09 20.178-7.761 4.87-16.807 7.493-26.012 7.547h-88.418V296.64l86.758-.428c3.426 0 6.69-1.338 9.1-3.747s3.746-5.727 3.746-9.098c0-3.426-1.338-6.69-3.747-9.153-2.408-2.408-5.673-3.746-9.099-4.12h-94.358v64.386h-37.733V175.467h133.75c6.477 0 12.9 1.284 18.894 3.746s11.4 6.048 16.003 10.651a48.321 48.321 0 0 1 10.704 16.003 49.295 49.295 0 0 1 3.747 18.84m-51.007 14.558c3.426 0 6.69-1.338 9.1-3.747s3.746-5.727 3.746-9.152c0-3.372-1.338-6.69-3.747-9.099s-5.673-3.746-9.099-4.175h-94.358v26.333h93.556z"/><path d="M421.667 505C191.256 505 5 393.247 5 255S191.256 5 421.667 5c230.464 0 416.72 111.753 416.72 250S652.13 505 421.667 505zm390.28-249.679c0-117.052-174.427-211.678-390.28-211.678-215.8 0-390.227 94.626-390.227 211.678S205.867 467 421.667 467c215.853 0 390.28-94.627 390.28-211.679z"/></g></g></svg>