<svg height="481" width="2500" xmlns="http://www.w3.org/2000/svg" viewBox="0 -0.05200000000000002 930.32 179.403"><path d="M264.85 26.459C250.634 5.032 226.302.83 209.804.467 195.33.156 132.451.052 95.824.052 23.708 0 64.953.052 0 .052V34.5c77.094 0 168.663-.155 208.715.416 7.16.103 14.215.83 19.87 5.81 5.24 4.67 7.108 11.985 4.773 18.314-3.787 10.272-14.215 12.814-24.591 12.97-15.876.26-59.507.363-92.088.363-79.896.156-45.343.104-116.679.104v34.345c77.042 0 168.767-.156 208.715.415 12.451.156 25.629 4.513 25.629 18.366 0 13.852-13.178 18.417-25.629 18.625-39.844.622-131.62.467-208.715.467v34.396c77.354 0 178.572.26 209.804-.467 16.498-.363 40.83-4.565 55.046-25.992 13.333-20.13 10.064-46.329-7.42-63.086 17.484-16.81 20.753-42.957 7.42-63.087zm629.569-5.707c-23.554-16.861-49.08-19.3-69.831-19.766C804.147.519 773.382.31 746.144.208c-66.407-.26-26.459-.156-89.753-.156v34.552c67.29 0 114.5-.57 166.485.934 15.252.415 31.647 2.023 46.38 12.296 13.957 9.701 22.257 25.162 22.257 41.815 0 16.654-8.041 32.166-21.997 41.816-14.734 10.22-31.128 11.829-46.381 12.244-51.984 1.452-99.195.882-166.484.882l-.208 34.5c67.704 0 116.368.26 168.197-.934 20.7-.467 46.277-2.853 69.83-19.766 22.31-16.031 35.85-41.193 35.85-68.845-.052-27.653-13.593-52.815-35.901-68.794zM378.208 77.354c-18.054-.363-23.76-6.226-23.916-24.228-.104-16.602-.052-36.265-.052-53.126H314.5c0 17.017-.312 51.57.362 68.223 1.297 32.425 11.933 42.49 45.033 43.631 22.93.778 41.193.519 72.892.467V77.613c-25.474.052-35.798.104-54.579-.26zM575.302 53.8c-.104 17.484-5.81 23.242-23.917 23.554-8.612.155-31.284.26-49.909.311h-.155c-19.04 0-39.378-.052-51.31-.052v101.478h46.744v-66.77h4.721v.052c24.332 0 54.682-.104 66.2-.467 35.123-1.09 45.81-10.999 47.107-43.683.156-4.358.26-9.91.363-15.98V.053h-39.74c-.052 17.276 0 36.68-.104 53.748z" fill="#e91b21"/></svg>