<svg height="1547" width="2500" xmlns="http://www.w3.org/2000/svg" viewBox="1 1 529.031 326.568"><path d="M265.727 1C119.733 1 1 74.141 1 164.496c0 89.66 118.733 163.072 264.727 163.072 146.808 0 264.304-73.412 264.304-163.072C530.031 74.14 412.535 1 265.727 1zm0 31.344c136.524 0 246.938 58.672 246.938 132.152 0 72.802-110.414 131.728-246.938 131.728-135.608 0-246.09-58.926-246.09-131.728 0-73.48 110.482-132.152 246.09-132.152zM76.394 103.502v121.563h31.344v-51.25h52.946v21.6h-46.169v29.65h59.299l17.79-12.283V172.12l-8.048-7.624 8.048-7.2v-34.733l-16.096-19.06zm127.917 0v59.723l13.13 12.707 29.226-.423v-28.802l-5.506-5.083v-38.12h-36.85zm89.795 0v38.121l-5.506 5.083h-35.156v78.36h36.427v-49.558l27.531.423 13.13-12.283v-60.146h-36.426zm49.134 0v121.563h33.038V134h36.002l9.742 11.013v49.98h-38.967v30.073h71.582v-99.96l-18.213-21.603zm-235.502 29.65h52.522v21.602h-52.522z" fill="#d9261c" fill-rule="evenodd"/></svg>