<svg width="256" height="256" viewBox="0 0 256 256" fill="none" xmlns="http://www.w3.org/2000/svg">
<path d="M256 0H0V256H256V0Z" fill="#3A6187"/>
<path d="M193.546 71.7527C196.291 72.4234 199.782 70.5905 201.656 74.1745C201.656 118.35 201.667 162.525 201.631 206.706C201.631 209.383 202.204 212.184 200.653 214.693C198.938 215.942 196.941 215.691 195.021 215.691C161.777 215.712 128.527 215.712 95.2832 215.691C93.5475 215.691 91.7709 215.886 90.1171 215.087C87.6032 213.116 87.8336 210.223 87.8234 207.561C87.6493 165.474 87.639 123.388 87.8285 81.3015C87.8387 78.8234 87.6698 76.161 89.769 74.2001C90.2912 73.9646 90.7827 73.6471 91.3971 73.642C119.788 73.4986 148.173 73.6266 169.636 73.5806C150.083 73.5806 123.602 73.5857 97.1213 73.5652C94.9914 73.5652 92.8358 73.8263 90.7162 73.2887C90.2195 72.6026 90.2042 71.9166 90.6701 71.21C92.3494 69.1159 94.7917 69.1262 97.0803 69.121C125.993 69.0442 154.911 68.5886 183.823 69.3412C187.244 69.4282 190.894 68.5783 193.551 71.7476L193.546 71.7527Z" fill="#FDBC46"/>
<path d="M193.546 71.7527C190.377 71.7425 187.208 71.7374 184.038 71.7271C180.424 68.7831 181.453 64.6308 181.32 60.8522C181.023 52.5988 179.917 51.3086 171.74 51.2932C140.974 51.2369 110.213 51.2471 79.447 51.283C78.6688 51.283 77.8906 51.283 77.1123 51.3342C70.9632 51.713 66.9133 54.6314 66.2374 59.1626C65.5821 63.571 68.2291 66.8682 74.2656 69.0494C75.5456 69.5102 76.9024 69.7815 77.8291 70.9079C79.401 72.874 79.4317 75.1575 79.4266 77.5486C79.3242 117.31 79.5904 157.078 79.2115 196.839C79.1296 205.559 79.7491 212.691 89.8458 214.846C90.5882 215.241 90.8493 215.84 90.6291 216.649C85.5757 216.679 80.5018 217.048 75.479 216.679C62.4128 215.722 53.3299 206.373 53.2838 193.337C53.1302 148.952 53.1507 104.562 53.2736 60.1764C53.2992 49.8852 59.6992 42.369 69.4682 40.1674C110.019 40.3466 150.569 40.1572 191.119 40.2647C193.91 41.7854 193.352 44.4887 193.382 46.9207C193.475 55.1946 193.5 63.4737 193.546 71.7476V71.7527Z" fill="#C58C56"/>
<path d="M200.494 214.524C200.494 170.39 200.479 126.255 200.499 82.1207C200.499 79.4327 200.018 76.6423 201.651 74.1745C203.341 75.9767 202.701 78.2244 202.706 80.2878C202.742 123.004 202.742 165.715 202.706 208.431C202.706 210.489 203.346 212.747 201.615 214.529C201.242 215.077 200.868 215.072 200.494 214.529V214.524Z" fill="#FEBE42"/>
<path d="M191.114 40.2698C188.826 41.7802 186.235 41.4014 183.731 41.4014C148.091 41.4167 112.456 41.4167 76.8154 41.4014C74.3117 41.4014 71.7158 41.77 69.463 40.1726C71.6186 38.954 73.9942 39.2049 76.3136 39.1998C112.522 39.1844 148.726 39.1793 184.934 39.2049C187.034 39.2049 189.256 38.7492 191.109 40.2647L191.114 40.2698Z" fill="#C98D54"/>
<path d="M200.494 214.524C200.868 214.524 201.242 214.524 201.615 214.524C200.468 216.976 198.211 216.756 196.096 216.751C160.942 216.726 125.783 216.685 90.6291 216.649C90.5984 216.362 90.5472 216.075 90.4806 215.789C90.2042 215.481 90.1325 215.195 90.2605 214.923C90.3834 214.662 90.496 214.534 90.5984 214.534L200.494 214.519V214.524Z" fill="#FEBE42"/>
<path d="M76.7232 72.1418C75.177 71.9985 73.6051 71.9831 72.0845 71.6913C66.647 70.6519 62.7866 66.0798 62.6125 60.6167C62.4435 55.3943 65.7357 50.6634 70.8557 49.1838C72.6835 48.6564 74.6854 48.554 76.6106 48.5489C110.469 48.513 144.328 48.595 178.181 48.4362C182.62 48.4158 184.504 49.4193 184.156 54.2218C183.736 60.033 184.044 65.8903 184.033 71.7322C155.796 71.7988 127.56 71.8602 99.328 71.9422C96.4096 71.9524 93.4963 72.0906 90.5779 72.1674C85.9546 75.8231 81.3363 74.8759 76.7232 72.147V72.1418Z" fill="#F9F6EC"/>
<path d="M76.7232 72.1418L90.5779 72.1623C90.5933 72.4542 90.6138 72.746 90.6342 73.0378C91.3613 73.4372 91.351 73.8212 90.6035 74.1796C90.6035 121.284 90.6035 168.388 90.5984 215.492C90.5626 215.911 90.5216 216.331 90.4806 216.751C74.7008 216.541 76.6515 218.84 76.6362 202.589C76.5952 159.105 76.6822 115.621 76.7181 72.1367L76.7232 72.1418Z" fill="#F0A54C"/>
<path d="M141.855 179.426C131.359 179.426 120.868 179.462 110.372 179.39C108.544 179.38 105.815 179.815 105.687 177.23C105.554 174.552 108.262 174.818 110.1 174.813C131.282 174.762 152.463 174.762 173.645 174.808C175.473 174.808 178.294 174.404 178.319 176.964C178.35 180.03 175.288 179.37 173.332 179.39C162.842 179.483 152.346 179.437 141.85 179.431L141.855 179.426Z" fill="#F0A64C"/>
<path d="M141.875 188.811C148.669 188.811 155.464 188.77 162.258 188.847C164.091 188.868 166.712 188.571 166.656 191.289C166.61 193.563 164.193 193.404 162.514 193.409C148.925 193.46 135.337 193.47 121.748 193.409C119.921 193.404 117.202 193.675 117.366 190.972C117.524 188.397 120.243 188.857 122.071 188.832C128.671 188.745 135.27 188.796 141.87 188.801L141.875 188.811Z" fill="#F0A64C"/>
<path d="M90.6086 74.1642C90.6035 73.7854 90.6086 73.4065 90.6394 73.0276C120.95 73.0276 151.255 73.0276 181.56 73.0276C181.56 73.4065 181.56 73.7854 181.56 74.1642H90.6086Z" fill="#FEBB40"/>
</svg>
