<svg xmlns="http://www.w3.org/2000/svg" width="2500" height="2500" viewBox="0 0 192.756 192.756"><g fill-rule="evenodd" clip-rule="evenodd"><path fill="#fff" d="M0 0h192.756v192.756H0V0z"/><path d="M110.719 107.008c0-7.67 6.02-13.914 13.869-13.914 7.805 0 14.137 6.244 14.137 13.914 0 7.715-6.332 13.914-14.137 13.914-7.85 0-13.869-6.199-13.869-13.914zm13.601 10.435c.445 1.605 2.141 2.588 3.789 2.141a3.042 3.042 0 0 0 2.143-3.746l-5.219-19.398a3.054 3.054 0 0 0-3.746-2.141c-1.65.446-2.631 2.141-2.186 3.747l5.219 19.397zM93.147 96.707c0-2.23-2.051-3.792-4.593-3.792a7.564 7.564 0 0 0-3.479.893l-7.269 4.014h5.664v22.252h9.677l.045-21.049c0-1.293 1.07-2.408 2.408-2.408 1.293 0 2.363 1.115 2.363 2.408v21.049h9.455V96.93c0-2.23-2.051-4.014-4.594-4.014-1.293 0-2.809.536-3.434.937l-6.243 2.854zM152.861 96.707c0-2.23-2.096-3.792-4.639-3.792-1.293 0-2.541.402-3.479.893l-7.268 4.014h5.707v22.252h9.678V99.025c0-1.293 1.07-2.408 2.408-2.408s2.408 1.115 2.408 2.408l-.045 21.049h9.498V96.93c0-2.23-2.096-4.014-4.637-4.014-1.248 0-2.811.536-3.434.937l-6.197 2.854zM34.682 103.529l12.442-7.135c-3.3-5.619-10.257-9.455-18.24-9.455-11.238 0-20.38 7.582-20.38 16.947 0 9.32 9.142 16.902 20.38 16.902 7.18 0 13.513-3.078 17.125-7.76l-.134-1.428c-2.498 3.656-6.734 6.021-11.55 6.021-7.67 0-13.87-6.021-13.87-13.514 0-7.447 6.199-13.513 13.87-13.513 2.319 0 5.218.223 7.135 2.409l-6.778 10.526zM57.783 111.512c0-2.764 2.229-4.994 4.95-4.994a4.987 4.987 0 0 1 4.995 4.994c0 2.721-2.23 4.951-4.995 4.951-2.721 0-4.95-2.231-4.95-4.951zm21.673 8.562l-5.619-22.252c-.847-3.033-3.389-4.951-7.001-4.951-1.605 0-2.765.49-4.236 1.115l-10.48 3.836 12.621.043 2.23 8.385c-1.784-1.695-4.593-2.854-8.072-3.211-6.021-.58-10.971 3.836-10.971 8.562s4.995 9.543 10.971 8.562c5.842-.98 9.008-3.479 9.855-7.09l1.873 7h8.829v.001z" fill="#c9322d"/><path d="M156.117 73.472c-1.65 2.453-1.25 3.835-.938 4.192 1.16 1.07 5.799-2.943 5.799-2.943 1.381-2.809 3.299-4.371 4.459-4.727s.98 1.115.98 1.115c.357-.223.49.58.357.892-.135.312-1.115 2.274-1.338 3.3-.223 1.026-.09 2.676-.09 2.676-.713-.179-.98-2.096-.98-2.096-.135.179-1.785 2.274-3.121 2.453-1.383.179-1.16-2.051-1.16-2.051-1.65 1.338-6.734 4.995-6.422.803.312-4.192 3.121-6.065 4.104-6.199.668-.089 1.248.58 1.248 1.249s-.49.803-.49.803c.045-.448-.625-2.188-2.408.533zm9.811-2.453s-1.783.714-2.943 2.364-2.006 3.568-1.561 3.791c.445.223 2.006-1.248 2.943-2.631.936-1.383 1.918-3.078 1.561-3.524zM169.584 70.261c.135-.669.535-1.516.09-1.516-.268-.045-1.338 1.471-1.695 3.791-.312 2.229-.223 3.567.715 3.39.268-.09.4-1.606.668-2.631.268-1.026 1.07-3.122 2.275-2.631.623.223.045 4.771.268 5.218s.355.045.535-.357c.178-.401.803-3.835.311-5.04-.355-1.025-.98-1.605-1.693-1.293s-1.605 1.828-1.605 1.828.086-.357.131-.759zM175.693 72.491s-.445.356-.4.758c.09.401.803.713 1.07.134.268-.624.268-1.07 0-1.159-.222-.09-.67.267-.67.267zM179.352 71.109s-.402 1.382.668 1.07c1.025-.268.09-.803-.045-.937-.133-.133-.491-.267-.623-.133zM183.186 70.44s-.758.49-.355.847c.445.357 1.025.446 1.203.312.223-.134.312-.758.09-.892-.224-.178-.626-.357-.938-.267zM137.967 68.21c-.18.089-.357.223-.447.401-.223.49-2.541 4.638-3.344 5.574-.758.892-1.605 2.409-1.65 2.631l-.09.268-.178-.223c0-.045-.625-.893-.803-3.568-.133-2.498.045-3.88.09-3.969l-.045.089c0-.089 0-.401-.135-.535l-.178-.045c-.535-.044-.625.625-.625.803-.045.401-.268 3.032-.045 4.816.18 1.784.537 3.479 1.562 3.702l.088.044v.134c-.043.134-.623 3.434-.936 4.237l-.312.803c-.178.401-.357.847-.357.981 0 .268.357.625.535.669.09 0 .447-.044.67-.134.09-.312.758-2.185 1.248-4.415l.58-2.319.178-.892c.045-.312.535-1.07.982-1.784l.133-.134c.357-.58 3.346-5.485 3.568-6.556 0 0 .045-.089.045-.223a.48.48 0 0 0-.135-.312c-.177-.088-.311-.043-.399-.043zM137.119 75.3c-.625.045-.982.803-.938.937 0 .045.135.134.312.179l.223.089-.223.134c-.4.268-1.115 2.274-1.025 4.014.045.892.49 1.65 1.16 2.007.535.268 1.158.179 1.693-.223 1.518-1.026 2.32-2.988 1.918-4.727-.444-1.875-2.407-2.499-3.12-2.41zm.178 1.562l-.088-.045-.045-.045c-.045-.134-.09-.356 0-.49.045-.045.088-.089.223-.089.58.089 1.025.356 1.293.758.535.758.4 1.873.223 2.497-.312 1.293-1.383 2.364-1.738 2.319-.402-.045-.535-.58-.535-1.873v-.179c0-1.025.713-2.497.758-2.631s-.091-.222-.091-.222zM147.375 74.007c-.223.044-.445.223-.623.58-.045.044-2.631 5.753-3.523 5.619-.936-.134-.98-1.382-.178-3.344 0 0 .936-1.562 1.07-1.65.088-.089.133-.401.043-.535-.088-.134-.088-.268-.311-.401-.225-.089-.803.356-1.561 1.962-.58 1.204-.938 2.631-.938 3.568 0 .357.045.625.178.803.223.357.58.803 1.115.847.447.045.98-.089 1.516-.669 1.338-1.516 1.695-2.363 1.695-2.408l.402-.803-.045.937c.045 1.249.223 3.3.668 3.478l.223.09c0-.045.045-.134.045-.134v-.312c-.045-.179-.045-.491-.045-.892 0-.713.045-1.65.402-3.032l.4-1.561c.135-.625.268-1.026.268-1.338a.747.747 0 0 0-.133-.446c-.176-.18-.4-.359-.668-.359z" fill="#0c0e0f"/></g></svg>