<svg xmlns="http://www.w3.org/2000/svg" width="2500" height="532" viewBox="0 0 36 7.657"><path d="M5.556 4.09l2.538-1.636C7.885 1.812 6.291.825 5.829.72 2.557-.223-.41 1.663.047 4.63c.36 2.496 4.326 3.924 6.642 2.399.264-.208 1.054-.763 1.234-1.123 0-.083-.111-.305-.153-.361-1.082 1.123-1.664 1.609-3.245 1.123-1.626-.501-2.394-2.131-1.664-3.798.514-1.151 1.91-2.086 3.291-1.604.184.064.45.259.592.369-.125.208-1.304 2.122-1.331 2.33 0 .028.143.125.143.125zM12.623 1.758c-.818-.347-2.87.693-3.508 1.026h2.357s.374 1.303.402 1.484c-.943-.541-2.274-.998-3.245.18-.79.971-.374 2.648.999 2.939 1.275.277 1.913-.083 2.814-.971l.305.971h2.163l-.6-2.274c-.437-1.039-.564-2.869-1.687-3.355zm-.93 4.856c-.555.208-1.068.056-1.346-.43a1.094 1.094 0 0 1 .736-1.636c.43-.069 1.026.222 1.179.693.179.513-.153 1.152-.569 1.373zM19.071 1.689c-.291.069-1.345.818-1.553.638-.153-.083-.375-.485-.485-.568-.666-.43-2.039.416-2.704.818-.027 0-.056.083-.056.111h1.123v4.7h2.132l.003-4.437c0-.25.235-.319.513-.277.389.069.333.277.333.513l.01 4.201h2.174l-.006-4.728c-.056-.804-.666-1.179-1.484-.971zM23.687 1.567c-1.636.152-2.856 1.885-2.634 3.313.264 1.969 2.121 3.037 4.035 2.427 1.872-.583 2.357-3.245 1.262-4.548-.722-.887-1.637-1.276-2.663-1.192zm1.177 5.463c-.333.167-.651-.055-.804-.305-.139-.201-.762-2.259-.823-2.529-.097-.361-.771-1.991.115-2.199.292-.125.541.138.569.222.167.36.512 1.747.637 2.08.028.125.555 2.011.555 2.122.001.082.015.485-.249.609zM34.821 0a1.178 1.178 0 1 0 0 2.358 1.179 1.179 0 1 0 0-2.358zm0 2.191c-.555 0-1.013-.458-1.013-1.012S34.266.167 34.821.167s1.012.458 1.012 1.012-.457 1.012-1.012 1.012z"/><path d="M35.197 1.216a.338.338 0 0 0 .089-.096c.042-.061.083-.127.049-.33-.027-.25-.277-.319-.277-.319h-.832v1.414h.222v-.582h.471c.083 0 .194.125.208.18.014.042.083.402.083.402h.222s-.027-.449-.112-.556c-.043-.053-.107-.122-.123-.113zm-.183-.123h-.568V.636h.499s.181.056.181.222c-.001.18-.098.235-.112.235zM31.55 1.703c-.292.069-1.345.818-1.553.638-.152-.083-.374-.485-.485-.569-.665-.43-2.038.416-2.703.818-.028 0-.056.083-.056.111h1.123v4.7h2.132l.003-4.437c0-.25.236-.319.513-.277.388.069.333.277.333.513l.01 4.201h2.173l-.006-4.728c-.055-.803-.666-1.178-1.484-.97z"/></svg>