<svg xmlns="http://www.w3.org/2000/svg" width="2500" height="529" viewBox="0 0 557.731 118.053"><g fill="#00acec"><path d="M232.896 58.459v-.006c-1.218-4.505-2.368-8.509-3.405-11.521-4.007-11.538-8.168-24.247-20.513-24.358 0 0-7.093-1.225-14.512-.131 0 0-23.443 4.508-36.968 14.426 11.721 0 27.049-1.802 32.459 1.804 7.02 4.68 10.047 9.222 10.047 19.157 0 .216-.007.424-.021.628-.131 1.898-.826 3.259-1.261 5.142h-3.846c-3.687-2.885-6.788-3.836-11.539-5.128a.19.19 0 0 0-.065-.012v-.006c-8.145-2.21-13.667-2.684-21.667.002h-.015c-.016.004-.032.011-.048.016-10.977 3.695-19.646 10.79-22.281 20.914-.641 2.462-.924 5.109-.796 7.932.625 13.625 10.131 21.984 23.077 26.281 8.067 2.678 13.447 1.601 21.795 0 12.739-2.443 17.789-9.937 29.486-15.385 0 5.93.161 15.385.161 15.385h34.455v-8.975c-2.687-3.004-5.881-13.57-9.024-25.238-1.899-7.051-3.781-14.503-5.519-20.927zm-26.481 28.858c-.745 8.321-8.319 13.834-16.667 13.461-8.302-.371-15.389-6.434-15.385-14.743a13.981 13.981 0 0 1 1.649-6.642c2.461-4.591 7.416-7.655 13.095-8.103 6.3-.494 12.5 2.93 15.497 8.095 1.365 2.35 2.066 5.063 1.811 7.932zM452.039 58.459c-2.914-13.063-8.771-22.172-21.267-28.194-5.61-2.564-8.146-5.757-14.104-7.692-9.985-3.244-16.856-2.988-26.924 0-18.183 5.398-28.979 17.737-32.838 35.886v.004a64.984 64.984 0 0 0-.494 2.571c-1.102 6.406-1.119 10.264 0 16.667.101.572.204 1.13.312 1.684 1.721 8.747 4.445 14.202 10.479 21.311 13.079 15.411 29.898 20.54 49.465 15.467 19.304-5.007 31.645-17.523 35.577-36.777h.001c.112-.557.22-1.118.319-1.684 1.123-6.402 1.199-10.278 0-16.667a76.508 76.508 0 0 0-.526-2.576zm-35.435 52.156c-12.396 4.306-16.244-13.596-22.062-31.233-.272-.828-.553-1.658-.836-2.482-.702-2.054-3.611-9.786-5.843-18.439h-.001c-3.209-12.438-5.018-26.764 3.14-28.803 11.532-2.884 16.728 14.053 20.832 28.803 1.03 3.688 1.99 7.25 2.966 10.324 1.255 3.473 2.54 7.061 3.702 10.609h.002c4.685 14.314 7.382 27.996-1.9 31.221zM337.709 22.574c-5.31-1.435-8.65-.729-14.101 0-10.446 1.396-14.424 10.256-25 10.256-6.251 0-6.364-8.078-12.181-10.256-6.086-2.28-16.666 0-16.666 0-9.35 4.853-16.186 8.173-25.64 14.101 7.051 0 17.949-1.424 17.949 6.463v70.461h32.05V48.215c0-5.129 4.488-8.975 9.616-8.975s9.614 3.846 9.614 8.975v65.384h32.052V30.266c-.761-3.367-3.4-6.533-7.693-7.692zM550.041 22.574c-5.312-1.435-8.654-.729-14.104 0-10.447 1.396-14.425 10.256-25 10.256-6.25 0-6.364-8.078-12.18-10.256-6.087-2.28-16.666 0-16.666 0-9.35 4.853-16.187 8.173-25.643 14.101 7.052 0 17.95-1.424 17.95 6.463v70.461h32.051V48.215c0-5.129 4.487-8.975 9.614-8.975 5.129 0 9.616 3.846 9.616 8.975v65.384h32.051V30.266c-.759-3.367-3.398-6.533-7.689-7.692zM134.621 30.005c-5.439-7.193-9.267-10.874-16.667-16.025-11.815-8.224-20.38-10.679-34.615-12.82-10.384-1.562-16.534-1.53-26.923 0-10.33 1.519-16.549 2.56-25.642 7.692C11.02 20 .326 35.53.005 58.21c-.002.081-.002.162-.003.245v.003c-.074 7.703 1.471 14.683 4.3 20.926h.003c8.611 18.978 29.115 31.1 52.11 35.875 11.261 2.339 18.139 1.86 29.486 0 12.015-1.97 19.188-3.763 29.487-10.256 7.34-4.629 11.178-8.024 16.667-14.743l-3.845-4.487c-5.046 5.96-8.612 8.933-15.385 12.819-9.888 5.677-16.826 8.412-28.205 7.693-17.473-1.104-31.502-11.919-38.141-26.901h-.002c-2.688-6.069-4.164-12.823-4.164-19.894 0-.348.004-.694.011-1.032v-.009c.554-26.763 22.452-48.317 49.348-48.317 10.096 0 17.788 2.244 23.718 10.256-9.455 11.698-20.513 33.334-20.513 33.334l39.744-23.717z"/></g></svg>