<svg height="512" width="512" xmlns="http://www.w3.org/2000/svg"><g><path d="m.78125257 256.03194c17.29416643 17.29417 34.58833143 34.58833 51.88249743 51.8825 0-12.8179 0-25.63581 0-38.45371h155.04715c4.392-4.38147 8.784-8.76295 13.176-13.14441-5.25093-5.0067-9.69416-11.00099-15.76697-15.13503-50.82925 0-101.65852 0-152.487777 0 0-12.33342 0-24.66683 0-37.00025-17.283633 17.28364-34.567267 34.56727-51.85090043 51.8509z" fill="#932279"/><path d="m460.89875 238.36915c-1.73596 6.19237-10.12418 4.07827-14.88225 3.88644-46.65948.43749-93.43076.0668-140.1333.18959-4.40254 4.392-8.80507 8.784-13.2076 13.176 5.31261 4.90456 9.68566 10.99921 15.76697 15.10343h152.51937v37.00025c17.2731-17.28363 34.54621-34.56727 51.81931-51.8509-17.29417-17.29417-34.58833-34.58833-51.8825-51.8825z" fill="#262577"/><path d="m204.83556 51.85125h38.45371v155.01555c4.392 4.40254 8.78401 8.80507 13.17601 13.2076 4.74171-5.67432 12.34132-9.85926 15.07183-16.77808 0-50.50276 0-101.0055 0-151.508264h37.00025c-17.2731-17.273101-34.54621-34.546203-51.8193-51.81930343-17.29417 17.29416643-34.58833 34.58833143-51.8825 51.88249743z" fill="#efa724"/><g fill="#9ccd2a"><path d="m242.02539 306.74535v153.3725c-12.33342 0-24.66683 0-37.00025 0 17.28363 17.28363 34.56727 34.56726 51.8509 51.8509 17.29417-17.3047 34.58833-34.6094 51.8825-51.9141-12.8179 0-25.63581 0-38.45372 0 0-51.67185 0-103.34369 0-155.01555-4.41306-4.4236-8.82613-8.8472-13.2392-13.27079-5.0134 4.99234-10.02682 9.98469-15.04023 14.97704z"/><path d="m69.820995 186.86581c-.05266 12.38608-.105324 24.77216-.157986 37.15824h119.121201c-26.01498-26.01498-52.02994-52.02995-78.04492-78.04493-13.639434 13.6289-27.278865 27.25779-40.918295 40.88669z"/><path d="m188.24706 70.209186-40.91829 40.886694 78.07652 78.04493v-119.089609z"/></g><path d="m145.9069 402.80064c13.63943 13.63943 27.27886 27.27887 40.91829 40.91829 12.38608.0527 24.77216.10533 37.15823.15799 0-39.70707 0-79.41414 0-119.1212-26.0255 26.01497-52.05102 52.02994-78.07652 78.04492z" fill="#262577"/><path d="m70.168564 325.29287c13.628898 13.6289 27.257795 27.25779 40.886696 40.88669 26.0255-26.01498 52.05102-52.02995 78.07652-78.04493-39.70706 0-79.41414 0-119.121202 0 .05266 12.38608.105324 24.77216.157986 37.15824z" fill="#262577"/><path d="m288.59957 187.52935c26.0255-26.0255 52.05102-52.05102 78.07652-78.07652-13.63943-13.628899-27.27886-27.257796-40.91829-40.886695-12.38608-.05266-24.77216-.105324-37.15823-.157985z" fill="#932279"/><path d="m323.45121 224.15043h119.1212c-.0527-12.38607-.10533-24.77215-.15798-37.15823-13.62891-13.63943-27.2578-27.27886-40.8867-40.91829-26.0255 26.0255-52.05102 52.05102-78.07652 78.07652z" fill="#932279"/><path d="m403.17078 365.38963c13.6289-13.6289 27.25779-27.25779 40.8867-40.88669.0527-12.38608.10532-24.77216.15798-37.15823-39.70706 0-79.41414 0-119.1212 0 26.0255 26.01498 52.05102 52.02994 78.07652 78.04492z" fill="#efa724"/><path d="m288.47318 441.31755c12.38607-.0527 24.77215-.10533 37.15823-.15798 13.63943-13.63943 27.27886-27.27887 40.91829-40.9183-26.0255-26.01497-52.05102-52.02994-78.07652-78.04492z" fill="#efa724"/><path d="m69.852592 162.47282c13.627952-13.61924 27.293917-27.20097 40.855098-40.88669 34.04134 34.11464 102.31153 102.24833 102.31153 102.24833l12.48087-.18958-.11262-11.46114s-70.67189-69.42569-103.3996-101.87779c13.90679-13.793007 27.74713-27.653224 41.58183-41.518635-31.23903 0-62.47808 0-93.717108 0z" fill="#9ccd2a"/><path d="m288.44409 287.48989.12472 10.07698 104.3329 103.7803-41.58183 41.51864h93.68551v-93.71711l-40.8235 40.9183-103.72574-102.60189z" fill="#efa724"/><path d="m388.73089 106.19832-6.69859 12.1965-92.57961 92.99037.15798 12.48087 10.42288.001 102.94765-103.48202 41.48704 41.55023v-93.685506h-93.68551z" fill="#932279"/><path d="m212.00882 288.35497-99.7994 102.41932-41.756482-41.05684v93.68551h93.653912l-40.8551-40.8235 100.41737-101.7812-.12639-12.65764z" fill="#262577"/></g></svg>