<svg height="144" preserveAspectRatio="xMidYMid" viewBox="0 0 512 144" width="512" xmlns="http://www.w3.org/2000/svg"><path d="m511.220522 84.5458713c0 6.0232359-1.907274 11.0973256-5.722822 15.2222691-3.815548 4.1249436-8.66308 6.1869166-14.542597 6.1869166l-46.44329-.097809v-12.3738328h38.280234c2.56499 0 4.722776-.6227836 6.473357-1.8663548 2.002089-1.4401871 3.003134-3.4043508 3.003134-5.8924912 0-5.8266199-3.941302-8.7399298-11.82191-8.7399298h-19.32825c-5.566128 0-10.445598-1.8004835-14.636413-5.4014503-4.190815-3.6009669-6.285723-8.1840156-6.285723-13.7491462 0-6.1539805 2.033029-11.1292632 6.098089-14.926846 4.127938-3.8624562 9.539369-5.7946823 16.232297-5.7946823h44.378323v11.7849825h-39.124585c-1.751578 0-3.534097.7854659-5.347555 2.3573957-1.751579 1.5050604-2.627868 3.3055438-2.627868 5.4004522 0 2.3573957.844351 4.3544952 2.533053 5.9912983 1.751579 1.5709317 3.847485 2.3563976 6.286721 2.3563976h21.298402c6.630051 0 11.82191 1.8004835 15.574581 5.4014503 3.815548 3.5350955 5.722822 8.249887 5.722822 14.1413801zm-91.801699-13.5515321c0-6.7438285-1.533006-12.1123431-4.59802-16.1065419-3.440281-4.4513061-8.537325-6.6779571-15.29313-6.6779571-6.630051 0-11.634277 2.3903313-15.011681 7.168998-2.814503 3.9941988-4.221754 9.1990331-4.221754 15.615501 0 7.3975516 1.125801 12.8648733 3.377403 16.3999688 3.127891 4.9104093 8.913591 7.365614 17.3571 7.365614 7.131072 0 12.1343-2.3903314 15.01168-7.168998 2.251602-3.7317115 3.378402-9.2639065 3.378402-16.5965848zm16.700382.3922339c0 13.3559142-3.534098 22.9152437-10.602293 28.6759919-5.75476 4.64892-14.13639 6.97338-25.144889 6.97338-12.197177 0-21.203586-2.684756-27.021224-8.0532705-6.37954-5.8924913-9.570308-15.3530137-9.570308-28.3815673 0-10.6711579 2.846441-18.9859181 8.538324-24.9442807 6.191906-6.4813411 15.449824-9.7220117 27.771758-9.7220117 13.573489 0 23.142799 3.1099259 28.709926 9.3287797 4.87947 5.5002574 7.318706 14.2072515 7.318706 26.1229786zm-76.56446-5.7936842h-12.666262v23.0779259c0 2.0949084.687657 3.8305185 2.063969 5.2048343 1.563946 1.3753139 3.627914 2.0619727 6.191907 2.0619727h3.847485v9.9196262h-12.103361c-3.627914 0-6.724865-1.375314-9.288857-4.124944-1.501068-1.636803-2.471174-3.4372865-2.90832-5.4014502-.438144-1.9641637-.656717-4.2886238-.656717-6.9723821v-23.7655828h-8.256874v-10.6062846h8.256874v-17.8740897h12.853894v17.8740897h12.666262zm-37.456842 40.2643591h-13.041529v-33.488593c0-.8513373-.187633-1.6038675-.5629-2.2585887-.375267-.7205926-.907228-1.4072515-1.594885-2.0619727-1.250558-1.1128265-2.689747-1.6697388-4.315571-1.6697388h-12.760078v39.4788932h-13.041529v-50.8706437h24.957256c4.440327 0 7.662035.2614893 9.663126.7854659 3.127891.7854659 5.630004 2.521076 7.50634 5.2048343 2.126846 3.1428616 3.18977 6.5801481 3.18977 10.3118596zm-53.502503.294425h-22.893287c-5.567127 0-10.414659-2.488141-14.542596-7.4634235-4.066059-5.041154-6.099088-10.8358362-6.099088-17.3830487 0-7.1360624 2.220663-13.2900429 6.661988-18.4619415 4.503205-5.23777 9.507431-7.856655 15.01168-7.856655h21.767486v10.5074776h-15.950846c-2.001092 0-3.721731.196616-5.159922.5898479-1.376312.3273606-2.657809 1.0150176-3.846488 2.0619727-2.189723 1.9641638-3.283586 4.6159844-3.283586 7.954464h28.147025v10.6062846h-28.053208c0 1.5719298.155695 2.9133099.469083 4.0261364.375267 1.0479532 1.093864 2.1278441 2.157786 3.2416686 1.062924 1.0469552 2.314479 1.7675478 3.75267 2.1597817 1.501069.3273606 3.315525.491041 5.441373.491041h16.41993zm-48.284694-.294425h-28.991377c-2.940257 0-5.848577-.426168-8.725957-1.276507-5.566128-1.767548-9.976514-5.8276182-13.229161-12.1782147-2.93926-5.7607485-4.409388-12.4716413-4.409388-20.1316803 0-7.3985497 1.313434-13.9457622 3.940304-19.6416374 2.87738-6.2847252 6.974378-10.573349 12.290994-12.8648733 4.128936-1.7675478 8.35069-2.6508226 12.666261-2.6508226h26.27069v13.1592982h-27.302674c-4.441326 0-7.662035 2.520078-9.664125 7.561232-1.562947 3.9283275-2.345419 9.0682885-2.345419 15.418885 0 5.3685146 1.001045 9.9186277 3.002136 13.6503392 2.31448 4.3864327 5.567127 6.5801481 9.757942 6.5801481l26.739774-.098807z"/><path d="m60.671501 66.7356569 5.1908616 5.1619181-5.1908616 5.1609201h-36.5396336v17.1964133l-22.28347754-22.3573334 22.28347754-21.9820662v16.8201481z" fill="#932279"/><path d="m77.2171852 60.671501-5.1609201 5.1908616-5.1609201-5.1908616v-36.5396336h-17.1974113l22.3583314-22.28347754 21.9810682 22.28347754h-16.8201481z" fill="#efa724"/><path d="m83.2823392 77.2171852-5.1918597-5.1609201 5.1918597-5.1609201h36.5386358v-17.1974113l22.284475 22.3583314-22.284475 21.9810682v-16.8201481z" fill="#262577"/><path d="m66.7356569 83.2823392 5.1609201-5.1918597 5.1619181 5.1918597v36.5396338h17.1964133l-22.3583314 22.283477-21.9800702-22.283477h16.8191501z" fill="#9ccd2a"/><path d="m22.822425 22.822425h44.3972865v44.3982846h-44.3972865z" fill="#9ccd2a"/><path d="m21.2365224 21.2365224h47.5690916v47.5690916h-47.5690916zm3.170807 44.3982846h41.2264796v-41.2264795h-41.2264796z" fill="#fff"/><path d="m76.7331306 22.822425h44.3972864v44.3982846h-44.3972864z" fill="#932279"/><path d="m75.1482261 21.2365224h47.5690919v47.5690916h-47.5690919zm3.170807 44.3982846h41.2264799v-41.2264795h-41.2264799z" fill="#fff"/><path d="m76.7331306 76.7331306h44.3972864v44.3982844h-44.3972864z" fill="#efa724"/><path d="m75.1482261 75.1482261h47.5690919v47.5700899h-47.5690919zm3.170807 44.3972869h41.2264799v-41.2264799h-41.2264799z" fill="#fff"/><path d="m22.822425 76.7331306h44.3972865v44.3982844h-44.3972865z" fill="#262577"/><g fill="#fff"><path d="m21.2365224 75.1482261h47.5690916v47.5700899h-47.5690916zm3.170807 44.3972869h41.2264796v-41.2264799h-41.2264796z"/><path d="m33.8558752 105.613723-33.6373021-33.6373019 33.6363041-33.6363041 33.6373021 33.6363041zm-29.15206233-33.6373019 29.15206233 29.1520619 29.1510644-29.1520619-29.1520624-29.1510644z"/><path d="m71.9764211 67.4921793-33.6363041-33.6363041 33.6363041-33.6373021 33.6363039 33.6373021zm-29.1510644-33.6363041 29.1510644 29.1510644 29.1520619-29.1510644-29.1520619-29.15206233z"/><path d="m110.097965 105.613723-33.6363042-33.6373019 33.6363042-33.6363041 33.636304 33.6363041zm-29.1520625-33.6373019 29.1520625 29.1520619 29.151064-29.1520619-29.151064-29.1510644z"/><path d="m71.9764211 143.734269-33.6363041-33.636304 33.6363041-33.6363042 33.6363039 33.6363042zm-29.1510644-33.636304 29.1510644 29.151064 29.1520619-29.151064-29.1520619-29.1510644z"/></g></svg>