<svg xmlns="http://www.w3.org/2000/svg" width="2500" height="2500" viewBox="0 0 192.756 192.756"><g fill-rule="evenodd" clip-rule="evenodd"><path fill="#fff" d="M0 0h192.756v192.756H0V0z"/><path d="M126.768 79.256V65.048H66.904v14.208h-42.29l-16.11 32.605h58.4v15.848h59.864v-15.848h41.556l15.928-32.605h-57.484z"/><path fill="#fff" d="M126.244 81.871h52.541l-3.113 2.004h-50.893l1.465-2.004zM149.502 91.117V88.02H161.4v3.097h-4.027v10.928h-4.027V91.117h-3.844zM145.777 93.849v2.368h-4.576v2.914h5.125v2.914h-8.969V88.02h8.969v3.097h-5.125v2.732h4.576zM134.025 99.131v2.914h-8.42V88.02h3.844v11.111h4.576zM122.551 67.368l-1.83 2.003h-47.05l-1.83-2.003h50.71zM124.479 68.524V80l-2.379 2.549V71.256l2.379-2.732zM104.059 102.045h-3.844l-2.746-3.643h-1.465v3.643H92.16V88.02h5.858c3.844 0 5.676 1.275 5.676 4.736 0 1.822-.916 2.915-2.746 4.008l3.111 5.281zM84.282 82.057v-2.004h25.263v2.004H84.282zM85.869 88.02h3.478l-4.577 14.025h-4.942L75.983 88.02h3.845l2.929 8.197 3.112-8.197zM84.282 109.277h25.263v1.823H84.282v-1.823zM106.334 95.114c0-4.189 3.479-7.468 7.689-7.468s7.689 3.279 7.689 7.468c0 4.007-3.479 7.65-7.689 7.65s-7.689-3.461-7.689-7.65zM72.085 93.849v2.368h-4.211v2.914h5.309v2.914H64.03V88.02h9.153v3.097h-5.309v2.732h4.211zM69.168 68.524l2.38 2.732v11.293L69.168 80V68.524zM67.799 81.871l1.831 2.004H28.073l-1.098-2.004h40.824zM50.614 96.581v5.464h-4.028V88.02h4.028v5.1h4.211v-5.1h4.027v14.025h-4.027v-5.464h-4.211zM38.081 99.486c.915 0 2.563-.365 4.027-1.094v2.914c-1.464.912-2.929 1.457-4.577 1.457-3.662 0-6.774-2.914-6.774-7.468s3.295-7.65 7.14-7.65c1.647 0 2.746.364 4.21 1.093v2.914c-1.464-.729-2.929-1.093-3.845-1.093-2.014 0-3.844 1.639-3.844 4.372.001 2.551 1.283 4.555 3.663 4.555zM24.83 83.444l1.099 2.003-9.703 20.037-3.478 2.004L24.83 83.444zM13.772 109.242l4.943-2.914h52.724l-3.112 2.914H13.772zM69.168 111.328l2.38-2.551v12.387l-2.38 2.369v-12.205zM70.556 125.051l2.929-2.914h46.683l2.562 2.914H70.556zM124.479 123.533l-2.379-2.369v-12.387l2.379 2.551v12.205zM124.928 109.242l-2.746-2.914h42.107l1.647 2.914h-41.008zM168.064 107.488l-1.464-2.732 9.703-19.309 3.478-2.003-11.717 24.044z"/><path d="M97.838 91.271h-1.832v3.097h1.648c1.098 0 1.83-.911 1.83-1.64s-.548-1.457-1.646-1.457zM118.229 95.112c0-2.368-1.832-4.189-4.027-4.189-2.197 0-4.211 1.821-4.211 4.189 0 2.369 2.014 4.189 4.211 4.189 2.194 0 4.027-1.821 4.027-4.189z"/></g></svg>