<svg xmlns="http://www.w3.org/2000/svg" width="2500" height="2500" viewBox="0 0 192.756 192.756"><g fill-rule="evenodd" clip-rule="evenodd"><path fill="#fff" d="M0 0h192.756v192.756H0V0z"/><path d="M8.504 112.338h58.888v15.594h58.889v-15.594h43.295l14.676-31.921h-57.971V64.824H67.392v15.593H23.364l-14.86 31.921z"/><path fill="#fff" d="M128.826 90.493v11.8h11.063v-2.027h-7.744v-9.773h-3.319zM143.021 90.493v11.8h11.063v-2.027h-7.742v-2.952h6.822v-2.027h-6.822v-2.766h7.742v-2.028h-11.063zM156.85 90.493v2.028h4.978v9.772h3.318v-9.772h4.979v-2.028H156.85zM62.082 90.493v11.8h11.062v-2.027H65.4v-2.952h6.822v-2.027H65.4v-2.766h7.744v-2.028H62.082zM43.644 90.493v11.8h3.318v-4.979h6.454v4.979h3.318v-11.8h-3.318v4.794h-6.454v-4.794h-3.318zM75.679 90.493h3.134l4.426 9.265 4.332-9.265h3.181l-5.531 11.8H81.21l-5.531-11.8zM36.923 98.682c-.77 1.436-2.24 2.404-3.928 2.404-2.484 0-4.498-2.102-4.498-4.693s2.014-4.693 4.498-4.693c1.767 0 3.296 1.062 4.031 2.609l3.574.011c-1.065-2.584-4.067-4.445-7.604-4.445-4.428 0-8.018 2.918-8.018 6.518 0 3.6 3.59 6.52 8.018 6.52 3.44 0 6.375-1.762 7.513-4.236l-3.586.005zM96.006 102.293h-3.319v-11.8h9.311c1.752 0 4.057.323 4.057 3.134 0 1.521-1.291 2.95-2.213 3.135.785.414 2.443 1.521 2.443 3.549v1.982h-3.18v-1.982c.092-1.061-1.014-2.443-2.396-2.443h-4.703v4.425zM117.439 102.912c-4.428 0-8.018-2.92-8.018-6.52 0-3.6 3.59-6.519 8.018-6.519s8.02 2.918 8.02 6.519c0 3.6-3.592 6.52-8.02 6.52z"/><path d="M96.006 95.839h4.656c.969 0 1.936-.507 1.936-1.844 0-1.106-1.383-1.475-2.027-1.475h-4.564v3.319h-.001zM121.938 96.393c0-2.592-2.014-4.693-4.498-4.693-2.482 0-4.498 2.101-4.498 4.693 0 2.592 2.016 4.693 4.498 4.693 2.484 0 4.498-2.102 4.498-4.693z"/></g></svg>