<svg xmlns="http://www.w3.org/2000/svg" viewBox="0 0 800 800" fill-rule="evenodd"
    xmlns:v="https://vecta.io/nano">
    <path d="M0 400v400h400 400V400 0H400 0v400" fill="#23A8E0"/>
    <path d="M496.416 180.858c-22.608 6.688-43.732 19.214-63.546 37.682l-6.584 6.136 2.12 7.388c8.08 28.164 6.628 58.136-7.74 159.732-3.992 28.24-4.97 31.924-11.02 41.564-49.85 79.438-135.554 136.74-185.036 123.718-49.09-12.918-62.512-70.656-33.108-142.42 20.53-50.11 58.7-78.732 80.318-60.226 12.618 10.798 6.932 42.254-14.336 79.322l-2.11 3.678 3.272 3.55c10.822 11.74 33.026 12.186 53.824 1.08 56.022-29.916 40.088-118.196-24.728-137.002-66.622-19.332-139.998 22.278-179.826 101.972-26.242 52.508-30.514 119.076-10.232 159.434 35.786 71.208 145.458 72.566 236.824 2.932 9.366-7.138 16.04-12.892 44.008-37.938 18.38-16.462 16.674-17.312 14.892 7.416-3.45 47.926 3.546 68.584 25.73 75.966 17.174 5.716 44.776.868 54.974-9.654l2.522-2.602 7.314-40.94c12.914-72.288 14.864-81.846 25.046-122.784 7.614-30.604 7.304-29.944 16.926-36.032 37.126-23.486 73.534-18.73 76.914 10.048 1.214 10.342-2.56 35.924-9.106 61.732l-10.79 42.578c-10.508 41.498-10.342 57.33.816 78.318 14.2 26.708 55.542 29.55 94.692 6.508 15.004-8.83 21.608-17.924 28.976-39.904 8.888-26.512 10.008-47.758 2.234-42.39-9.252 6.388-23.284 8.996-30.07 5.588-6.096-3.062-7.66-8.516-5.802-20.23 2.664-16.802 4.536-22.608 23.278-72.266 19.83-52.544 21.828-69.908 10.758-93.532-11.066-23.614-28.55-34.472-57.82-35.91-49.104-2.414-98.112 15.33-116.902 42.322-2.508 3.6-4.636 6.468-4.732 6.37s2.976-11.41 6.83-25.142c23.672-84.368 26.85-105.466 18.528-123.014-8.81-18.578-35.768-29.42-57.308-23.048" fill="#fbfbfb"/>
</svg>