<svg xmlns="http://www.w3.org/2000/svg" viewBox="0 0 56 49" fill="none" class="w-12"><path d="M11.2063 39.2059C9.39358 41.513 5.60332 41.1834 3.95538 38.7115C1.64826 35.086 0.329911 31.131 0.000322687 26.8463C-0.329265 23.5504 0.00032265 20.2546 0.824293 17.1235C1.48347 14.8164 3.13141 13.498 5.27373 13.9924C7.41605 14.4868 8.56961 16.4643 7.91043 18.9362C7.08646 22.5617 6.92167 26.1872 8.07523 30.1422C12.8543 23.88 17.3037 18.1122 21.7531 12.1797C24.225 8.88378 26.697 5.5879 29.1689 2.45681C30.652 0.479286 33.2887 0.644081 34.9367 1.79764C36.7494 3.11599 37.4086 5.09352 35.9254 6.90625L11.2063 39.2059Z" fill="#14BFDB"></path><path d="M17.1387 42.8316L44.0001 8.38965" stroke="#29ACED" stroke-width="6.59176" stroke-miterlimit="10" stroke-linecap="round"></path><path d="M28.3447 44.9737L48.944 18.9363" stroke="#8611ED" stroke-width="6.59176" stroke-miterlimit="10" stroke-linecap="round"></path><path d="M41.5283 44.3145L51.9103 30.4718" stroke="#B80FEF" stroke-width="6.59176" stroke-miterlimit="10" stroke-linecap="round"></path></svg>