<svg height="2500" viewBox="14 0 197 224.7" width="2500" xmlns="http://www.w3.org/2000/svg"><path d="M14 2.7c0 1.5 3.8 45.5 8.5 97.8 4.6 52.2 8.6 96.5 8.7 98.4l.3 3.4L72 213.5l40.4 11.2 8.1-2.2c4.4-1.2 22.5-6.2 40.3-11.1 27.6-7.6 32.3-9.2 32.7-10.9C194 198.1 211 5.4 211 2.2V0H14zm160.7 42.5c-.4 2.4-3 30.8-5.8 63.3-2.9 32.4-5.3 59.2-5.5 59.4-.4.5-49.5 14.1-50.9 14.1-1 0-27.8-7.3-46.1-12.5l-5.1-1.5-1.2-13.2c-.6-7.3-1.4-16.1-1.8-19.6l-.6-6.2h12.5c14.1 0 13.7-.2 13.8 8.5 0 2.2.3 5.6.6 7.6l.6 3.6 13.7 3.6 13.6 3.6 13.5-3.6c7.4-2 13.6-3.7 13.6-3.7.1-.1.7-6 1.3-13.1.6-7.2 1.3-14.2 1.6-15.8l.5-2.7H57.2l-.5-2.3c-.3-1.2-.9-7-1.3-13L54.7 91h90.1l.6-6.8c.4-3.7 1-9.4 1.3-12.6.4-4.1.3-5.7-.5-5.2-.6.3-21.9.3-47.5-.1l-46.5-.6-.6-7.1c-.4-3.9-.9-9.5-1.2-12.4l-.6-5.2h125.4z"/></svg>