<svg xmlns="http://www.w3.org/2000/svg" width="70" height="70" fill="none" viewBox="0 0 70 70"><defs><linearGradient id="datagrip_svg__a" x1="64.084" x2="66.131" y1="26.335" y2="44.156" gradientUnits="userSpaceOnUse"><stop offset=".16" stop-color="#21D789"/><stop offset=".54" stop-color="#419FBC"/><stop offset="1" stop-color="#6B57FF"/></linearGradient><linearGradient id="datagrip_svg__b" x1="45.467" x2="50.644" y1="18.684" y2="5.439" gradientUnits="userSpaceOnUse"><stop offset="0" stop-color="#6B57FF"/><stop offset=".952" stop-color="#21D789"/></linearGradient><linearGradient id="datagrip_svg__c" x1="16.86" x2="21.888" y1="35.34" y2="57.248" gradientUnits="userSpaceOnUse"><stop offset="0" stop-color="#6B57FF"/><stop offset=".022" stop-color="#685CFB"/><stop offset=".281" stop-color="#4A91CA"/><stop offset=".506" stop-color="#34B7A7"/><stop offset=".685" stop-color="#26CE91"/><stop offset=".797" stop-color="#21D789"/></linearGradient><linearGradient id="datagrip_svg__d" x1="4.36" x2="65.7" y1="35.008" y2="68.875" gradientUnits="userSpaceOnUse"><stop offset=".075" stop-color="#21D789"/><stop offset=".887" stop-color="#6B57FF"/></linearGradient><linearGradient id="datagrip_svg__e" x1="4.735" x2="66.381" y1="26.84" y2="26.84" gradientUnits="userSpaceOnUse"><stop offset=".309" stop-color="#21D789"/><stop offset=".487" stop-color="#59A3B2"/><stop offset=".767" stop-color="#B74AF7"/><stop offset="1" stop-color="#FF45ED"/></linearGradient></defs><path fill="url(#datagrip_svg__a)" d="M65.552 10.865 70 39.52l-8.24 4.812L56.5 26.5l9.052-15.635Z"/><path fill="url(#datagrip_svg__b)" d="M65.552 10.865 40.47 0l-7 5.833L45 17l20.552-6.135Z"/><path fill="url(#datagrip_svg__c)" d="M47.323 70 11 30.5.583 62.49 47.323 70Z"/><path fill="url(#datagrip_svg__d)" d="M54.5 45 0 32.302 47.323 70 54.5 45Z"/><path fill="url(#datagrip_svg__e)" d="M0 .51v31.792l60.74 20.854 4.812-42.291L0 .51Z"/><path fill="#000" d="M56 14H14v42h42V14Z"/><path fill="#FFF" d="M34.417 48.65h-15.75v2.683h15.75V48.65ZM35.8 27.224c0-4.543 3.52-8.254 8.318-8.254 2.88 0 4.543.768 6.206 2.175l-2.175 2.688c-1.216-1.024-2.303-1.6-4.159-1.6-2.56 0-4.543 2.24-4.543 4.927v.064c0 2.88 1.984 4.99 4.799 4.99 1.28 0 2.367-.32 3.263-.959v-2.24H43.99v-3.007h6.846v6.847c-1.535 1.407-3.775 2.495-6.654 2.495-4.99 0-8.382-3.455-8.382-8.126ZM18.5 19.133h6.183c5.017 0 8.4 3.355 8.4 7.75s-3.383 7.865-8.4 7.865l-6.183.115v-15.73Zm3.5 3.123v9.485h2.683c2.8 0 4.784-1.851 4.784-4.627s-1.867-4.742-4.784-4.742L22 22.256Z"/></svg>