<svg xmlns="http://www.w3.org/2000/svg" width="70" height="70" fill="none" viewBox="0 0 70 70"><defs><linearGradient id="datalore_svg__a" x1="21.41" x2="63.882" y1="17.36" y2="25.844" gradientUnits="userSpaceOnUse"><stop offset=".242" stop-color="#3BEA62"/><stop offset=".857" stop-color="#FCF84A"/></linearGradient><linearGradient id="datalore_svg__b" x1="16.862" x2="57.518" y1="4.912" y2="66.891" gradientUnits="userSpaceOnUse"><stop offset=".018" stop-color="#3BEA62"/><stop offset=".786" stop-color="#087CFA"/></linearGradient><linearGradient id="datalore_svg__c" x1="16.295" x2="67.926" y1="39.35" y2="58.041" gradientUnits="userSpaceOnUse"><stop offset=".121" stop-color="#1FAEB5"/><stop offset=".975" stop-color="#087CFA"/></linearGradient><linearGradient id="datalore_svg__d" x1="1.435" x2="68.11" y1="42.252" y2="12.633" gradientUnits="userSpaceOnUse"><stop offset=".121" stop-color="#1FAEB5"/><stop offset=".856" stop-color="#FCF84A"/></linearGradient></defs><path fill="url(#datalore_svg__a)" d="M64.977 8.3c-.803-.437-1.896-.8-2.771-.946-.584 0-37.842-7.13-39.81-7.275-.948-.072-1.97 0-2.917.146C2.2 2.77-2.176 23.795 12.115 32.597c3.354 2.037 7.364 2.764 11.228 1.891 6.781-1.455 37.259-8.948 39.227-9.384 8.458-1.819 10.281-12.658 2.407-16.804Z"/><path fill="url(#datalore_svg__b)" d="M65.341 40.671C63.883 38.998 37.49 9.1 31.874 4.226c-1.093-.946-2.406-1.819-3.864-2.62A13.9 13.9 0 0 0 19.48.153C3.875 2.552-1.229 19.939 8.47 29.759c1.02 1.092 30.04 33.245 30.33 33.609 1.313 1.6 2.917 3.128 4.959 4.365 3.354 2.11 7.437 2.764 11.374 1.891 14.291-3.2 18.885-19.277 10.208-28.953Z"/><path fill="url(#datalore_svg__c)" d="M59.8 36.452c-.583-.29-1.167-.582-1.823-.8-.51-.146-39.737-12.512-40.612-12.73a11.48 11.48 0 0 0-4.448-.219c-14 2.037-17.572 19.132-5.979 26.334C9.636 50.71 45.436 68.606 46.384 68.97a15.326 15.326 0 0 0 8.676.582c16.77-3.637 20.197-25.024 4.74-33.099Z"/><path fill="url(#datalore_svg__d)" d="M64.977 8.3c-1.313-.728-2.844-.946-4.375-.728-.802.146-1.531.291-2.26.582C54.915 9.536 10 23.285 8.76 23.867c-10.427 4.51-12.103 18.768-1.823 25.17a12.25 12.25 0 0 0 9.187 1.528c1.24-.291 2.48-.655 3.5-1.164 5.541-2.619 44.987-24.88 45.79-25.316 5.905-3.419 6.415-12.148-.438-15.785Z"/><path fill="#000" d="M56 14H14v42h42V14Z"/><path fill="#FFF" d="M34.417 48.65h-15.75v2.683h15.75V48.65Z"/><g fill="#FFF"><path d="M36 19.13h3.458v12.725h6.847v2.905H36V19.13ZM18.67 19.13h6.086c4.91 0 8.3 3.389 8.3 7.746v.069c0 4.426-3.39 7.815-8.3 7.815H18.67V19.13Zm3.458 3.112v9.406h2.628c2.836 0 4.703-1.867 4.703-4.634v-.069c0-2.766-1.867-4.703-4.703-4.703h-2.628Z"/></g></svg>