<svg width="32" height="32" viewBox="0 0 32 32" fill="none" xmlns="http://www.w3.org/2000/svg">
<g clip-path="url(#clip0_1_2445)">
<path d="M12.5381 28.7972C12.5381 30.2972 14.2891 30.2982 14.75 29.4999C15.0387 28.9999 15.25 28.4999 15.25 26.9999C15.25 25.4999 14.5261 24.2384 13.8299 22.8794C13.6507 22.5296 13.4581 22.1537 13.2532 21.7309C12.9019 21.0056 12.4717 20.3367 11.8471 19.8035C11.7513 19.7217 11.7234 19.5023 11.7406 19.3555C11.8088 18.7759 11.8829 18.1969 11.9571 17.6179C12.0797 16.6609 12.2022 15.7039 12.2977 14.7442C12.3648 14.0718 12.3636 13.378 12.2789 12.7082C12.0958 11.2586 11.2823 10.1946 10.0338 9.47786C9.67046 9.26926 9.56333 9.03637 9.6087 8.64632C9.73507 7.56183 10.1638 6.58265 10.7086 5.66605C11.2089 4.82425 11.7759 4.02144 12.3419 3.2201C12.4144 3.11747 12.4869 3.01486 12.5592 2.9122C12.6517 2.78077 12.8808 2.68113 13.0493 2.67687C15.1032 2.62543 17.1576 2.59121 19.2119 2.56589C19.3531 2.56407 19.5396 2.62989 19.6305 2.73115C20.9121 4.1585 22.0571 5.678 22.7445 7.49459C22.7915 7.61894 22.8305 7.74673 22.8664 7.87492C23.1244 8.79206 23.1201 8.79508 22.3851 9.31247L22.3518 9.33589C20.9676 10.3108 20.4615 11.705 20.523 13.3373C20.5935 15.2138 21.0156 17.0328 21.4967 18.8385C21.5946 19.2054 21.658 19.4768 21.3052 19.8152C20.5988 20.4924 20.3049 21.4218 20.1644 22.3672C20.0181 23.352 19.8998 24.3409 19.7814 25.3299C19.7157 25.8788 19.7124 26.3421 19.5795 26.9759C19.0705 29.4029 17.75 31.9999 15.75 31.9999H12.5381C11.25 31.9999 10.25 30.7972 10.25 28.7972H12.5381Z" fill="#155DFC"/>
<path d="M11.5607 1.64008C10.8347 2.775 10.091 3.85078 9.44034 4.98022C8.85324 5.9991 8.46218 7.10566 8.27283 8.28027C8.02494 9.8182 8.4235 11.1797 9.51913 12.2444C10.4211 13.1209 10.6538 14.1118 10.538 15.2919C10.2857 17.8647 9.77936 20.385 9.05131 22.863C9.04422 22.8869 9.02214 22.9064 8.97435 22.9744C8.53792 22.8381 8.07901 22.7111 7.63165 22.5524C1.38253 20.3344 -3.18062 16.2382 -6.04606 10.2575C-6.29374 9.74063 -6.51975 9.21246 -6.73158 8.68004C-6.77189 8.57878 -6.74374 8.38234 -6.66961 8.31328C-4.28698 6.09307 -1.91002 3.86617 0.50117 1.67735C2.16142 0.170403 4.14529 -0.303895 6.31143 0.184986C7.98444 0.562481 9.62828 1.06959 11.2841 1.52262C11.3961 1.5532 11.5 1.61376 11.5607 1.64008Z" fill="#155DFC"/>
<path d="M24.2396 22.3314C23.8972 21.1864 23.5199 20.1003 23.2528 18.9878C22.9016 17.5244 22.6171 16.0438 22.3435 14.5632C22.1887 13.7264 22.3499 12.9544 22.9725 12.3027C24.5667 10.6339 24.5983 8.69929 23.8328 6.67592C23.1867 4.96849 22.1482 3.49759 20.9256 2.15226C20.7824 1.9947 20.6423 1.8341 20.4795 1.65123C20.5718 1.6006 20.6427 1.54693 20.7227 1.52C22.532 0.910212 24.3624 0.387106 26.2602 0.122211C28.1952 -0.147949 29.8448 0.454544 31.2612 1.74398C32.5042 2.87545 33.7011 4.05816 34.9529 5.17971C35.9556 6.07788 37.0032 6.92664 38.0476 7.77681C38.2361 7.93012 38.2841 8.05386 38.2282 8.27602C37.2646 12.1148 35.328 15.3721 32.3643 17.9969C30.0282 20.0657 27.3376 21.4946 24.2396 22.3316V22.3314Z" fill="#155DFC"/>
</g>
<defs>
<clipPath id="clip0_1_2445">
<rect width="32" height="32" rx="6" fill="white"/>
</clipPath>
</defs>
</svg>
