<svg height="512" viewBox="0 0 512 512" width="512" xmlns="http://www.w3.org/2000/svg"><path d="m343.58938 14.867426c-36.82754-13.4223699-74.48697-17.0859299-111.07453-13.6623399-42.41086 3.42358-63.08035 16.4939999-61.8325 14.1582799-69.41558 24.749-127.98448 77.99054-155.14918 152.653484-48.33014 132.99187 20.15755 280.04603 152.89345 328.45616 132.81589 48.41013 279.71007-20.15755 328.04021-153.14942s-20.15755-280.046034-152.89345-328.456164zm-166.39582 457.528504c-13.83832-5.08738-27.16471-11.58259-39.83517-19.24566 61.91249 4.75142 142.6547-9.50285 197.0641-60.48867 0 0 103.8274-82.90194 28.74851-219.06143 0 0 12.07853 54.90534-3.3276 99.98787 0 0-14.75021 61.41655-80.15027 79.15841-96.32432 26.3328-206.135-41.16301-252.04943-73.83105-3.42358-33.57993-.41595-68.24772 11.91855-102.14761 18.25379-50.15391 52.56963-89.317164 94.48454-115.569984-10.49472 73.239124-2.15973 140.734934 9.66283 168.987504 15.99806 37.9154 43.73869 82.15003 97.90812 87.82934 54.24942 5.66332 84.06981-45.00254 84.06981-45.00254 27.83662-42.25087 32.1561-102.89951 31.74015-104.40333-.41595-1.42383-7.4231-5.42334-7.4231-5.42334-18.66974 75.65482-49.498 100.97975-49.498 100.97975-48.6661 46.90631-83.15791 14.33426-83.15791 14.33426-37.00351-39.73918-11.08666-104.40334-11.08666-104.40334 14.49424-43.99466 56.74512-108.402844 104.65931-141.230864 7.99903 1.99975 15.99806 3.2476 23.9171 6.07926 27.9966 10.25476 53.73748 25.91686 75.73481 46.07441-35.00375 12.83044-91.4929 39.835174-91.4929 39.835174-89.57314 37.73942-95.6524 94.82049-95.6524 94.82049-9.32687 58.82487 37.41946 33.91589 37.41946 33.91589 47.99418-23.42116 71.65531-96.32432 71.65531-96.32432-15.00618-2.91164-26.82875 1.6638-26.82875 1.6638-19.16567 47.41825-58.32892 66.8239-58.32892 66.8239-15.42213 8.15901-19.0057-6.25524-19.0057-6.25524-2.57568-10.83069 11.16665-12.67047 11.16665-12.67047 21.32541-8.255 35.00375-30.66828 38.07538-39.83517 3.07163-9.16688 8.75094-9.91879 8.75094-9.91879 18.1578-5.66332 36.90752-9.50285 55.91322-11.42262 36.2516-4.41546 91.73287 12.91044 91.73287 12.91044 12.49449 5.00739 24.41304 8.75094 35.00375 11.74257 20.41353 50.82584 23.58114 108.73881 3.42359 164.23608-43.49872 119.64949-175.6427 181.402-295.21219 137.82329z" fill="#31bff7" stroke-width="15.9981"/></svg>