<svg
   viewBox="0 0 12.7 12.7"
   version="1.1"
   id="svg5"
   xmlns="http://www.w3.org/2000/svg"
   xmlns:svg="http://www.w3.org/2000/svg">
  <defs
     id="defs2">
    <clipPath
       id="clip0">
      <path
         fill="#fff"
         d="M0 0h71v55H0z"
         id="path1075" />
    </clipPath>
  </defs>
  <g
     id="layer1"
     transform="translate(0,-0.00134087)">
    <circle
       style="fill:#5865f2;stroke:none;stroke-width:36.2019;stroke-linecap:round;stroke-linejoin:round;paint-order:stroke fill markers;fill-opacity:1"
       id="path930"
       cx="6.3499999"
       cy="6.3513408"
       r="6.3499999" />
    <g
       style="fill:#ffffff;fill-opacity:1"
       id="g1088"
       transform="matrix(0.1206651,0,0,0.1206651,2.0664388,3.0366854)">
      <path
         d="M 60.105,4.898 A 58.55,58.55 0 0 0 45.653,0.415 0.22,0.22 0 0 0 45.42,0.525 40.784,40.784 0 0 0 43.62,4.222 C 38.164,3.405 32.734,3.405 27.39,4.222 26.905,3.058 26.189,1.635 25.562,0.525 A 0.228,0.228 0 0 0 25.329,0.415 58.386,58.386 0 0 0 10.878,4.898 0.207,0.207 0 0 0 10.783,4.98 C 1.578,18.73 -0.944,32.144 0.293,45.39 a 0.244,0.244 0 0 0 0.093,0.167 c 6.073,4.46 11.955,7.167 17.729,8.962 a 0.23,0.23 0 0 0 0.249,-0.082 42.08,42.08 0 0 0 3.627,-5.9 0.225,0.225 0 0 0 -0.123,-0.312 38.772,38.772 0 0 1 -5.539,-2.64 0.228,0.228 0 0 1 -0.022,-0.378 c 0.372,-0.279 0.744,-0.569 1.1,-0.862 a 0.22,0.22 0 0 1 0.23,-0.03 c 11.619,5.304 24.198,5.304 35.68,0 a 0.219,0.219 0 0 1 0.233,0.027 c 0.356,0.293 0.728,0.586 1.103,0.865 a 0.228,0.228 0 0 1 -0.02,0.378 36.384,36.384 0 0 1 -5.54,2.637 0.227,0.227 0 0 0 -0.121,0.315 47.249,47.249 0 0 0 3.624,5.897 0.225,0.225 0 0 0 0.249,0.084 c 5.801,-1.794 11.684,-4.502 17.757,-8.961 a 0.228,0.228 0 0 0 0.092,-0.164 C 72.174,30.078 68.214,16.775 60.197,4.981 A 0.18,0.18 0 0 0 60.104,4.897 Z m -36.38,32.427 c -3.497,0 -6.38,-3.211 -6.38,-7.156 0,-3.944 2.827,-7.156 6.38,-7.156 3.583,0 6.438,3.24 6.382,7.156 0,3.945 -2.827,7.156 -6.381,7.156 z m 23.593,0 c -3.498,0 -6.38,-3.211 -6.38,-7.156 0,-3.944 2.826,-7.156 6.38,-7.156 3.582,0 6.437,3.24 6.38,7.156 0,3.945 -2.798,7.156 -6.38,7.156 z"
         fill="#5865f2"
         id="path1071"
         style="fill:#ffffff;fill-opacity:1" />
    </g>
  </g>
</svg>
