<svg xmlns="http://www.w3.org/2000/svg" width="70" height="70" fill="none" viewBox="0 0 70 70"><defs><linearGradient id="dotcover_svg__a" x1="37.049" x2="23.558" y1="55.637" y2="5.422" gradientUnits="userSpaceOnUse"><stop offset=".048" stop-color="#6B57FF"/><stop offset=".12" stop-color="#7556FE"/><stop offset=".241" stop-color="#8F53FB"/><stop offset=".395" stop-color="#BA4DF5"/><stop offset=".576" stop-color="#F446EE"/><stop offset=".608" stop-color="#FF45ED"/><stop offset=".69" stop-color="#FF3BBE"/><stop offset=".771" stop-color="#FF318C"/><stop offset=".995" stop-color="#FC801D"/></linearGradient><linearGradient id="dotcover_svg__b" x1="67.819" x2="41.488" y1="48.799" y2="40.13" gradientUnits="userSpaceOnUse"><stop offset=".027" stop-color="#6B57FF"/><stop offset=".388" stop-color="#FF45ED"/><stop offset=".487" stop-color="#FF4DD1"/><stop offset=".702" stop-color="#FE6189"/><stop offset="1" stop-color="#FC801D"/></linearGradient></defs><path fill="url(#dotcover_svg__a)" d="M42.798 0 .003 4.816 0 26.828l10.733 35.725 53.819-13.64L42.798 0Z"/><path fill="url(#dotcover_svg__b)" d="m65.943 22.209-16.859-8.075L25.42 56.726l6.43 8.727L48.24 70l15.78-9.955L70 41.31 65.943 22.21Z"/><path fill="#000" d="M56 14H14v42h42V14Z"/><path fill="#FFF" d="M34.417 48.65h-15.75v2.683h15.75V48.65ZM19 19h6.148c4.955 0 8.379 3.4 8.379 7.838v.045c0 4.437-3.424 7.883-8.379 7.883H19V19Zm3.468 3.13v9.505h2.68c2.838 0 4.753-1.915 4.753-4.707v-.045a4.528 4.528 0 0 0-4.752-4.752h-2.68ZM35.185 27.003v-.046a8.053 8.053 0 0 1 8.263-8.194c2.987 0 4.776.996 6.247 2.444l-2.218 2.559c-1.223-1.11-2.467-1.789-4.052-1.789-2.671 0-4.596 2.22-4.596 4.935v.046c0 2.716 1.879 4.98 4.596 4.98 1.81 0 2.92-.725 4.165-1.856l2.219 2.241a8.103 8.103 0 0 1-6.498 2.83 7.997 7.997 0 0 1-8.126-8.15"/></svg>