<svg xmlns="http://www.w3.org/2000/svg" width="70" height="70" fill="none" viewBox="0 0 70 70"><defs><linearGradient id="dotmemory_svg__a" x1="18.757" x2="30.724" y1="19.283" y2="69.379" gradientUnits="userSpaceOnUse"><stop offset="0" stop-color="#6B57FF"/><stop offset=".13" stop-color="#9A51F9"/><stop offset=".268" stop-color="#C64CF4"/><stop offset=".392" stop-color="#E548F0"/><stop offset=".497" stop-color="#F846EE"/><stop offset=".57" stop-color="#FF45ED"/><stop offset=".633" stop-color="#FF57C9"/><stop offset=".814" stop-color="#FE8A65"/><stop offset=".941" stop-color="#FDAA26"/><stop offset="1" stop-color="#FDB60D"/></linearGradient><linearGradient id="dotmemory_svg__b" x1="51.758" x2="39.877" y1="35.768" y2="1.731" gradientUnits="userSpaceOnUse"><stop offset="0" stop-color="#6B57FF"/><stop offset=".138" stop-color="#8953FB"/><stop offset=".437" stop-color="#D64AF2"/><stop offset=".588" stop-color="#FF45ED"/><stop offset=".968" stop-color="#FDB60D"/></linearGradient><linearGradient id="dotmemory_svg__c" x1="26.353" x2="36.21" y1="53.604" y2="30.222" gradientUnits="userSpaceOnUse"><stop offset=".118" stop-color="#FF45ED"/><stop offset=".197" stop-color="#DF49F1"/><stop offset=".304" stop-color="#BC4DF5"/><stop offset=".416" stop-color="#9E51F9"/><stop offset=".535" stop-color="#8854FC"/><stop offset=".663" stop-color="#7855FD"/><stop offset=".807" stop-color="#6E57FF"/><stop offset="1" stop-color="#6B57FF"/></linearGradient></defs><path fill="url(#dotmemory_svg__a)" d="M7.975 65.148 0 37.65l49.553 13.658L44.266 70l-36.29-4.852Z"/><path fill="url(#dotmemory_svg__b)" d="M23.477.09 42.12 5.422 63.173 0l4.176 28.878-47.394-15.753L23.477.09Z"/><path fill="url(#dotmemory_svg__c)" d="m70 46.114-2.65-17.236-42.88-14.252L.09 19.858 0 37.651l49.553 13.658L70 46.114Z"/><path fill="#000" d="M56 14H14v42h42V14Z"/><path fill="#FFF" d="M34.417 48.65h-15.75v2.683h15.75V48.65ZM19 19h6.13c4.941 0 8.355 3.391 8.355 7.815v.045c0 4.424-3.414 7.86-8.354 7.86H19V19Zm3.458 3.122v9.476h2.673c2.83 0 4.738-1.909 4.738-4.693v-.045a4.516 4.516 0 0 0-4.738-4.738h-2.673ZM34.693 19.01h3.728l4.134 6.647 4.131-6.647h3.728v15.72h-3.438l.001-10.261-4.422 6.714h-.093l-4.377-6.648-.001 10.195h-3.392V19.01Z"/></svg>