<svg xmlns="http://www.w3.org/2000/svg" width="70" height="70" fill="none" viewBox="0 0 70 70"><defs><linearGradient id="dotpeek_svg__a" x1="7.045" x2="40.658" y1="35.829" y2="70.142" gradientUnits="userSpaceOnUse"><stop offset=".097" stop-color="#FF45ED"/><stop offset=".113" stop-color="#F846EE"/><stop offset=".284" stop-color="#AC4FF7"/><stop offset=".406" stop-color="#7D55FD"/><stop offset=".466" stop-color="#6B57FF"/><stop offset=".48" stop-color="#655DFE"/><stop offset=".572" stop-color="#4482FA"/><stop offset=".664" stop-color="#299EF6"/><stop offset=".756" stop-color="#16B3F4"/><stop offset=".847" stop-color="#0BBFF2"/><stop offset=".935" stop-color="#07C3F2"/></linearGradient><linearGradient id="dotpeek_svg__b" x1="9.563" x2="34.109" y1="55.827" y2="35.372" gradientUnits="userSpaceOnUse"><stop offset=".043" stop-color="#FF45ED"/><stop offset=".046" stop-color="#FE45ED"/><stop offset=".201" stop-color="#D14BF3"/><stop offset=".357" stop-color="#AC4FF7"/><stop offset=".512" stop-color="#9053FB"/><stop offset=".666" stop-color="#7B55FD"/><stop offset=".818" stop-color="#6F57FF"/><stop offset=".968" stop-color="#6B57FF"/></linearGradient><linearGradient id="dotpeek_svg__c" x1="39.855" x2="56.355" y1="16.927" y2="50.653" gradientUnits="userSpaceOnUse"><stop offset=".199" stop-color="#FF45ED"/><stop offset=".286" stop-color="#F646EE"/><stop offset=".429" stop-color="#DD49F1"/><stop offset=".609" stop-color="#B64EF6"/><stop offset=".818" stop-color="#7F55FD"/><stop offset=".887" stop-color="#6B57FF"/></linearGradient><linearGradient id="dotpeek_svg__d" x1="19.875" x2="61.328" y1="18.305" y2="8.256" gradientUnits="userSpaceOnUse"><stop offset=".097" stop-color="#FF45ED"/><stop offset=".17" stop-color="#F64AED"/><stop offset=".29" stop-color="#DD56EE"/><stop offset=".441" stop-color="#B56AEE"/><stop offset=".618" stop-color="#7E87F0"/><stop offset=".814" stop-color="#38AAF1"/><stop offset=".941" stop-color="#07C3F2"/></linearGradient></defs><path fill="url(#dotpeek_svg__a)" d="M47.696 50.342 0 40.808 14.085 70l35.187-6.134-1.576-13.524Z"/><path fill="url(#dotpeek_svg__b)" d="M70 31.33 50.68 11.409.004 22.09 0 40.808l62.61 12.515L70 31.33Z"/><path fill="url(#dotpeek_svg__c)" d="M70 31.33 39.617 0l-23.81 7.21 7.797 23.71L62.61 53.324 70 31.33Z"/><path fill="url(#dotpeek_svg__d)" d="M64.536 19.575 61.78 0H39.617l-23.81 7.21 7.797 23.71 40.932-11.345Z"/><path fill="#000" d="M56 14H14v42h42V14Z"/><path fill="#FFF" d="M34.417 48.65h-15.75v2.683h15.75V48.65ZM19 19h6.132c4.942 0 8.356 3.392 8.356 7.817v.045c0 4.425-3.414 7.861-8.356 7.861H19V19Zm3.46 3.122v9.48h2.672c2.83 0 4.74-1.91 4.74-4.695v-.045a4.516 4.516 0 0 0-4.74-4.74H22.46ZM36.027 19h6.443c3.761 0 6.037 2.23 6.037 5.451v.045c0 3.65-2.839 5.542-6.375 5.542h-2.636v4.73h-3.47V19Zm6.217 7.952c1.735 0 2.748-1.036 2.748-2.388v-.045c0-1.554-1.08-2.388-2.816-2.388h-2.68v4.82h2.748Z"/></svg>