<svg xmlns="http://www.w3.org/2000/svg" width="70" height="70" fill="none" viewBox="0 0 70 70"><defs><linearGradient id="dottrace_svg__a" x1="-1.332" x2="67.042" y1="43.737" y2="26.097" gradientUnits="userSpaceOnUse"><stop offset=".123" stop-color="#6B57FF"/><stop offset=".538" stop-color="#FF45ED"/><stop offset=".854" stop-color="#DD1265"/></linearGradient><linearGradient id="dottrace_svg__b" x1="45.915" x2="67.658" y1="38.91" y2="9.099" gradientUnits="userSpaceOnUse"><stop offset=".192" stop-color="#DD1265"/><stop offset=".295" stop-color="#DE146A"/><stop offset=".411" stop-color="#E21977"/><stop offset=".533" stop-color="#E7218E"/><stop offset=".659" stop-color="#EF2DAD"/><stop offset=".788" stop-color="#F93CD5"/><stop offset=".853" stop-color="#FF45ED"/></linearGradient></defs><path fill="url(#dottrace_svg__a)" d="M67.306 16.027 43.746 0 0 31.07 11.085 70l47.816-9.696 8.405-44.277Z"/><path fill="url(#dottrace_svg__b)" d="M67.307 16.027 43.747 0 37.95 15.72v32.05H70l-2.693-31.743Z"/><path fill="#000" d="M56 14H14v42h42V14Z"/><path fill="#FFF" d="M34.417 48.65h-15.75v2.683h15.75V48.65ZM19 19.002h6.134c4.943 0 8.358 3.392 8.358 7.818v.045c0 4.427-3.415 7.864-8.358 7.864H19V19.002Zm3.46 3.123v9.481h2.674c2.83 0 4.74-1.91 4.74-4.696v-.045a4.519 4.519 0 0 0-4.74-4.74H22.46ZM39.983 22.174h-4.79V18.98h13.044v3.194h-4.79v12.55h-3.465v-12.55Z"/></svg>