<svg viewBox="0 0 32 32" xmlns="http://www.w3.org/2000/svg"><rect fill="#f08705" height="28" rx="1.12" width="28" x="2" y="2"/><path d="m16.861 9.168 3.02-3.187 10.119 10.113v12.786a1.119 1.119 0 0 1 -1.12 1.12h-17.564l-5.385-5.407z" fill="#df6c0c" fill-rule="evenodd"/><path d="m25.24 17.96h-3.294l-3.071-5.32h.2a1.119 1.119 0 0 0 1.12-1.12v-4.76a1.119 1.119 0 0 0 -1.12-1.12h-6.155a1.119 1.119 0 0 0 -1.12 1.12v4.76a1.119 1.119 0 0 0 1.12 1.12h.205l-3.071 5.32h-3.294a1.119 1.119 0 0 0 -1.12 1.12v4.76a1.119 1.119 0 0 0 1.12 1.12h6.16a1.119 1.119 0 0 0 1.12-1.12v-4.76a1.119 1.119 0 0 0 -1.12-1.12h-.927l3.072-5.32h1.87l3.071 5.32h-.926a1.119 1.119 0 0 0 -1.12 1.12v4.76a1.119 1.119 0 0 0 1.12 1.12h6.16a1.119 1.119 0 0 0 1.12-1.12v-4.76a1.119 1.119 0 0 0 -1.12-1.12z" fill="#fff"/></svg>