<svg xmlns="http://www.w3.org/2000/svg" viewBox="0 0 48 48"><g fill-rule="evenodd" clip-rule="evenodd"><path fill="#0dbd8b" d="M24 48c13.255 0 24-10.745 24-24S37.255 0 24 0 0 10.745 0 24s10.745 24 24 24z"/><path fill="#fff" d="M19.612 11.183c0-.97.787-1.754 1.758-1.754 6.58 0 11.913 5.322 11.913 11.888 0 .97-.787 1.755-1.757 1.755a1.757 1.757 0 0 1-1.758-1.755c0-4.628-3.76-8.38-8.398-8.38a1.756 1.756 0 0 1-1.758-1.754z"/><path fill="#fff" d="M36.814 19.563c.97 0 1.757.786 1.757 1.754 0 6.566-5.333 11.89-11.913 11.89-.97 0-1.758-.786-1.758-1.755 0-.969.787-1.754 1.758-1.754 4.638 0 8.398-3.752 8.398-8.38 0-.97.787-1.755 1.758-1.755z"/><path fill="#fff" d="M28.416 36.817c0 .97-.787 1.754-1.758 1.754-6.58 0-11.914-5.322-11.914-11.888 0-.97.787-1.754 1.758-1.754.97 0 1.758.785 1.758 1.754 0 4.628 3.76 8.38 8.398 8.38.97 0 1.758.786 1.758 1.754z"/><path fill="#fff" d="M11.186 28.437c-.97 0-1.757-.786-1.757-1.754 0-6.566 5.333-11.89 11.913-11.89.97 0 1.758.786 1.758 1.755 0 .969-.787 1.754-1.758 1.754-4.638 0-8.398 3.752-8.398 8.38 0 .97-.787 1.755-1.758 1.755z"/></g></svg>