<svg height="615" width="2500" xmlns="http://www.w3.org/2000/svg" viewBox="1 1 298 71.749"><g fill="#003f98"><path d="M207.281 60.68c-12.828 0-17.771-11.808-17.771-23.808s4.943-23.8 17.771-23.8c12.815 0 17.772 11.8 17.772 23.8S220.096 60.68 207.28 60.68m0-59.68c-20.2 0-31.863 15.136-31.863 35.872 0 20.744 11.663 35.877 31.863 35.877 20.19 0 31.85-15.133 31.85-35.877 0-20.736-11.66-35.871-31.85-35.871M1 3.013h50.615v12.073H15.08v15.018H49.15v11.768H15.08V58.67h36.536v12.068H1zM84.472 38.351H71.726v-23.28h12.746c8.86 0 14.752 3.856 14.752 11.643 0 7.785-5.892 11.637-14.752 11.637m-26.82 32.384h14.074v-20.32h12.746c17.251 0 28.828-8.473 28.828-23.701 0-15.23-11.577-23.7-28.828-23.7h-26.82zM258.905 3.013H244.45v67.724h13.803V43.305c0-7.509-.268-14.169-.523-20.058 1.627 3.39 6.57 13.577 8.85 17.403l17.965 30.087H299V3.013h-13.803v26.746c0 7.501.276 14.86.523 20.736-1.627-3.39-6.557-13.571-8.87-17.393zM129.289 48.33c0 9.102 7.572 12.639 15.624 12.639 5.257 0 13.793-1.524 13.793-8.515 0-7.383-10.429-8.778-20.492-11.456-10.552-2.794-20.715-6.752-20.715-19.301C117.5 7.707 130.732 1 143.092 1c14.27 0 27.396 6.229 27.396 22.034h-14.082c-.478-8.236-6.801-10.35-13.987-10.35-4.793 0-10.83 2.014-10.83 7.77 0 5.266 3.445 6.078 20.583 10.491 4.989 1.246 20.618 4.263 20.618 19.777 0 12.557-9.869 21.937-28.465 21.937-15.128 0-29.307-7.467-29.12-24.329z"/></g></svg>