<svg xmlns="http://www.w3.org/2000/svg" width="2500" height="606" viewBox="0 0 239.782 58.15"><path d="M39.84 2.469v8.64H10.56v12.72H36v8.64H10.56v15.6h29.28v8.64H0V2.469zM117.6 16.389c-.616-4.105-2.728-7.355-10.8-7.44-5.462-.227-9.153 1.71-9.84 5.76-.895 3.703 1.718 6.173 4.56 7.2 1.083.368 8.46 2.382 10.56 2.64 2.895.623 9.454 1.872 13.44 5.28 7.703 7.027 5.362 18.898-2.88 24.24-4.602 2.971-9.068 4.039-17.04 4.08-2.799.046-9.425-1.345-13.44-4.32-4.693-3.318-7.35-7.746-7.44-13.2H94.8c.328 2.204 1.265 4.055 3.12 6 2.977 3.192 7.163 3.128 10.8 2.88 3.708.027 6.836-1.562 8.16-2.88 3.54-3.256 2.468-6.538-.24-9.36-3.644-3.677-14.059-4.164-20.88-6.48-5.886-2.018-10.463-6.805-9.84-15.12.468-8.913 9.127-15.248 21.36-15.12 2.829-.118 11.844.263 17.04 6.96 2.81 3.513 3.389 6.562 3.36 8.88H117.6z"/><path d="M156.72 58.149c-6.725.024-13.262-2.52-17.76-7.2-4.978-5.163-8.403-13.243-8.4-21.36-.003-8.043 3.422-16.123 8.4-21.36 4.498-4.606 11.035-7.15 17.76-7.2 6.938.05 13.475 2.594 18 7.2 4.95 5.237 8.214 13.317 8.16 21.36.054 8.117-3.21 16.197-8.16 21.36-4.525 4.68-11.062 7.224-18 7.2zM196.32 2.469l22.8 36.48V2.469h10.56v54.24h-11.04l-23.28-37.68v37.68H184.8V2.469zM53.76 37.509h13.2c6.308.48 12.65-2.963 15.84-10.08 1.75-4.063 2.01-11.733-.48-16.08-4.695-8.218-11.66-8.901-15.6-8.88H43.44v54.24h10.32v-19.2z"/><path d="M156.72 49.749c4.626-.091 6.914-2.146 9.6-4.8 3.631-3.149 5.638-9.52 5.76-15.36-.122-5.766-1.966-12.787-5.52-16.08-2.763-2.51-4.889-4.313-9.84-4.32-4.474.091-7.026 1.81-9.84 4.32-3.504 3.293-5.185 10.314-5.28 16.08.095 5.84 1.614 12.211 5.04 15.36 2.891 2.654 5.769 4.768 10.08 4.8zM53.76 11.109H66c4.185.033 6.135 2.15 7.2 4.56.958 2.456.513 6.113-.24 7.68-.642 1.738-2.45 5.342-6.96 5.28H53.76v-17.52z" fill="#fff"/><path d="M236.002 7.58c2.091 0 3.78-1.7 3.78-3.8 0-2.08-1.689-3.78-3.78-3.78-2.1 0-3.8 1.7-3.8 3.78 0 2.1 1.7 3.8 3.8 3.8zm0-.5c-1.85 0-3.2-1.44-3.2-3.3 0-1.84 1.351-3.28 3.2-3.28 1.841 0 3.181 1.44 3.181 3.28 0 1.86-1.34 3.3-3.181 3.3zm.61-3.13c.75-.02 1.33-.33 1.33-1.16 0-.699-.381-1.12-1.5-1.12h-1.85v4.229h.52V3.95h.949l1.211 1.949h.619l-1.279-1.949zm-1.5-.41v-1.5h1.21c.521 0 1.06.08 1.06.74 0 .859-.88.76-1.479.76h-.791z"/></svg>