<svg xmlns="http://www.w3.org/2000/svg" width="2500" height="2500" viewBox="0 0 192.756 192.756"><g fill-rule="evenodd" clip-rule="evenodd"><path fill="#fff" d="M0 0h192.756v192.756H0V0z"/><path fill="#2f489a" d="M21.334 101.332h18.029v-6.359H21.334V87h19.644v-6.876H13.153v37.204h28.242v-6.879H21.334v-9.117zM60.305 80.234H43.526v37.205h8.18V104.1h8.599c9.274 0 12.87-5.889 12.87-11.934s-3.595-11.932-12.87-11.932zm-2.242 17.508h-6.357V86.591h6.357c3.804 0 7.191.835 7.191 5.575 0 4.744-3.387 5.576-7.191 5.576zM94.185 95.836c-9.327-2.397-11.099-2.763-11.099-5.627 0-3.127 3.022-4.222 5.628-4.222 3.907 0 7.085 1.146 7.346 5.627h7.922c0-8.597-7.139-11.983-14.905-11.983-6.72 0-13.912 3.647-13.912 11.252 0 6.983 5.576 9.12 11.099 10.579 5.471 1.459 11.046 2.137 11.046 6.15 0 3.801-4.377 4.637-7.242 4.637-4.377 0-8.234-1.928-8.234-6.879h-7.919c-.104 9.172 7.608 13.236 15.84 13.236 10.11 0 15.477-5.105 15.477-11.932 0-8.44-8.338-10.16-11.047-10.838zM124.674 79.466c-11.516 0-18.291 8.599-18.291 19.647 0 10.732 6.775 19.332 18.291 19.332 11.514 0 18.289-8.6 18.289-19.332 0-11.048-6.775-19.647-18.289-19.647zm0 32.1c-7.348 0-10.109-6.256-10.109-12.453 0-6.514 2.762-12.768 10.109-12.768 7.346 0 10.109 6.253 10.109 12.768 0 6.198-2.763 12.453-10.109 12.453zM176.537 80.271h-7.66v24.961h-.102l-15.531-24.961h-8.127v37.206h7.658V92.569h.106l15.476 24.908h8.18V80.271zM185.828 79.58a4.098 4.098 0 0 1-4.094-4.093c0-2.245 1.846-4.093 4.094-4.093s4.094 1.848 4.094 4.093a4.099 4.099 0 0 1-4.094 4.093zm3.484-4.094a3.492 3.492 0 0 0-3.484-3.482 3.492 3.492 0 0 0-3.482 3.482 3.492 3.492 0 0 0 3.482 3.485 3.493 3.493 0 0 0 3.484-3.485zm-1.775 2.057h-.871l-.68-1.743h-.924v1.743h-.785v-4.32h1.447c.818 0 1.758.139 1.758 1.392 0 .768-.469.926-.748 1.064l.803 1.864-1.533-2.438c.365 0 .662-.175.662-.56 0-.381-.264-.574-.732-.574h-.871v1.134h.941l1.533 2.438z"/></g></svg>