<?xml version="1.0" encoding="UTF-8"?>
<svg width="1652px" height="355px" viewBox="0 0 1652 355" version="1.1" xmlns="http://www.w3.org/2000/svg" xmlns:xlink="http://www.w3.org/1999/xlink">
    <title>Group 10</title>
    <defs>
        <linearGradient x1="50%" y1="-53.318164%" x2="50%" y2="109.654497%" id="linearGradient-1">
            <stop stop-color="#65D09B" offset="0%"></stop>
            <stop stop-color="#4DB38E" offset="100%"></stop>
        </linearGradient>
        <rect id="path-2" x="42" y="167" width="168" height="27" rx="13.5"></rect>
        <filter x="-9.5%" y="-29.6%" width="119.0%" height="218.5%" filterUnits="objectBoundingBox" id="filter-3">
            <feOffset dx="0" dy="8" in="SourceAlpha" result="shadowOffsetOuter1"></feOffset>
            <feGaussianBlur stdDeviation="4" in="shadowOffsetOuter1" result="shadowBlurOuter1"></feGaussianBlur>
            <feColorMatrix values="0 0 0 0 0   0 0 0 0 0   0 0 0 0 0  0 0 0 0.0568181818 0" type="matrix" in="shadowBlurOuter1"></feColorMatrix>
        </filter>
        <rect id="path-4" x="41" y="110" width="142" height="25" rx="12.5"></rect>
        <filter x="-11.3%" y="-32.0%" width="122.5%" height="228.0%" filterUnits="objectBoundingBox" id="filter-5">
            <feOffset dx="0" dy="8" in="SourceAlpha" result="shadowOffsetOuter1"></feOffset>
            <feGaussianBlur stdDeviation="4" in="shadowOffsetOuter1" result="shadowBlurOuter1"></feGaussianBlur>
            <feColorMatrix values="0 0 0 0 0   0 0 0 0 0   0 0 0 0 0  0 0 0 0.0568181818 0" type="matrix" in="shadowBlurOuter1"></feColorMatrix>
        </filter>
        <rect id="path-6" x="41" y="226" width="105" height="25" rx="12.5"></rect>
        <filter x="-15.2%" y="-32.0%" width="130.5%" height="228.0%" filterUnits="objectBoundingBox" id="filter-7">
            <feOffset dx="0" dy="8" in="SourceAlpha" result="shadowOffsetOuter1"></feOffset>
            <feGaussianBlur stdDeviation="4" in="shadowOffsetOuter1" result="shadowBlurOuter1"></feGaussianBlur>
            <feColorMatrix values="0 0 0 0 0   0 0 0 0 0   0 0 0 0 0  0 0 0 0.0568181818 0" type="matrix" in="shadowBlurOuter1"></feColorMatrix>
        </filter>
    </defs>
    <g id="Page-1" stroke="none" stroke-width="1" fill="none" fill-rule="evenodd">
        <g id="Group-5-Copy-2" transform="translate(-415.000000, -351.000000)">
            <g id="Group-10" transform="translate(415.000000, 351.000000)">
                <g id="Group-9" transform="translate(0.000000, 15.000000)">
                    <rect id="Rectangle-Copy-54" fill="url(#linearGradient-1)" x="0" y="0" width="340" height="340" rx="70"></rect>
                    <path d="M237.612214,138.157654 C234.725783,135.28192 230.051254,135.279644 227.164823,138.157654 C224.278392,141.035663 224.278392,145.698831 227.164823,148.57684 C234.93988,156.329214 239.222735,166.601382 239.222735,177.499403 C239.222735,188.397423 234.93988,198.669591 227.164823,206.424696 C224.278392,209.30043 224.278392,213.965873 227.164823,216.841607 C228.608267,218.280384 230.497251,219 232.388518,219 C234.277503,219 236.16877,218.280384 237.612214,216.841607 C248.18012,206.304532 254,192.334147 254,177.499403 C254,162.665114 248.18012,148.694728 237.612214,138.157654 Z" id="Path-Copy-26" fill-opacity="0.200482" fill="#000000" fill-rule="nonzero" opacity="0.754065225"></path>
                    <path d="M267.333026,113.158661 C264.51049,110.280446 259.939438,110.280446 257.116902,113.158661 C254.294366,116.039154 254.294366,120.709078 257.116902,123.586837 C285.703837,152.763042 285.703837,200.237641 257.116902,229.413847 C254.294366,232.292061 254.294366,236.96153 257.116902,239.839744 C258.528393,241.280219 260.375562,242 262.224964,242 C264.074365,242 265.921535,241.279763 267.333026,239.837011 C301.555658,204.912576 301.555658,148.084007 267.333026,113.158661 Z" id="Path-Copy-27" fill-opacity="0.250565" fill="#131514" fill-rule="nonzero" opacity="0.754065225"></path>
                    <g id="Rectangle-Copy-55">
                        <use fill="black" fill-opacity="1" filter="url(#filter-3)" xlink:href="#path-2"></use>
                        <use fill="#FFFFFF" fill-rule="evenodd" xlink:href="#path-2"></use>
                    </g>
                    <g id="Rectangle-Copy-56">
                        <use fill="black" fill-opacity="1" filter="url(#filter-5)" xlink:href="#path-4"></use>
                        <use fill="#FFFFFF" fill-rule="evenodd" xlink:href="#path-4"></use>
                    </g>
                    <g id="Rectangle-Copy-57">
                        <use fill="black" fill-opacity="1" filter="url(#filter-7)" xlink:href="#path-6"></use>
                        <use fill="#FFFFFF" fill-rule="evenodd" xlink:href="#path-6"></use>
                    </g>
                </g>
                <path d="M509.975,299.13 C521.971667,299.13 532.69,297.065 542.13,292.935 C551.57,288.805 559.338333,283.6425 565.435,277.4475 C571.531667,271.2525 575.956667,264.811667 578.71,258.125 L542.425,246.915 C535.345,259.895 524.626667,266.385 510.27,266.385 C502.01,266.385 494.979167,264.664167 489.1775,261.2225 C483.375833,257.780833 479.049167,253.601667 476.1975,248.685 C473.345833,243.768333 471.92,239.048333 471.92,234.525 L581.955,233.345 C582.151667,231.181667 582.25,227.936667 582.25,223.61 C582.25,205.91 578.8575,191.258333 572.0725,179.655 C565.2875,168.051667 556.388333,159.595 545.375,154.285 C534.361667,148.975 522.365,146.32 509.385,146.32 C495.618333,146.32 482.884167,149.1225 471.1825,154.7275 C459.480833,160.3325 449.991667,168.936667 442.715,180.54 C435.438333,192.143333 431.8,206.303333 431.8,223.02 C431.8,236.983333 435.045,249.766667 441.535,261.37 C448.025,272.973333 457.219167,282.1675 469.1175,288.9525 C481.015833,295.7375 494.635,299.13 509.975,299.13 Z M471.92,205.32 C472.706667,197.453333 476.295833,190.963333 482.6875,185.85 C489.079167,180.736667 496.011667,177.983333 503.485,177.59 C510.761667,177.196667 517.300833,178.278333 523.1025,180.835 C528.904167,183.391667 533.378333,186.8825 536.525,191.3075 C539.671667,195.7325 541.245,200.305 541.245,205.025 L471.92,205.32 Z M669.955,299.13 C673.888333,299.13 677.674167,298.736667 681.3125,297.95 C684.950833,297.163333 688.589167,296.081667 692.2275,294.705 C695.865833,293.328333 698.176667,292.443333 699.16,292.05 L699.16,292.05 L688.245,258.42 C684.508333,260.78 680.083333,261.96 674.97,261.96 C669.463333,261.96 665.333333,260.288333 662.58,256.945 C660.613333,254.585 659.335,251.684167 658.745,248.2425 C658.155,244.800833 657.86,237.966667 657.86,227.74 L657.86,227.74 L657.86,184.67 L692.67,184.67 L692.67,150.745 L658.155,150.745 L658.155,107.085 L620.69,107.085 L620.69,141.01 C620.69,144.55 619.903333,147.0575 618.33,148.5325 C616.756667,150.0075 613.806667,150.745 609.48,150.745 L609.48,150.745 L593.55,150.745 L593.55,184.67 L618.92,184.67 L618.92,252.225 C618.92,262.058333 621.919167,271.498333 627.9175,280.545 C633.915833,289.591667 643.011667,295.295 655.205,297.655 C659.925,298.638333 664.841667,299.13 669.955,299.13 Z M764.445,296.475 L764.445,213.875 C764.445,202.665 767.395,194.5525 773.295,189.5375 C779.195,184.5225 785.586667,182.015 792.47,182.015 C799.55,182.015 805.745,184.325833 811.055,188.9475 C816.365,193.569167 819.02,201.878333 819.02,213.875 L819.02,213.875 L819.02,296.475 L861.5,296.475 L861.5,208.565 C861.5,192.438333 857.5175,178.130833 849.5525,165.6425 C841.5875,153.154167 826.985,146.91 805.745,146.91 C799.255,146.91 793.109167,147.9425 787.3075,150.0075 C781.505833,152.0725 776.638333,154.530833 772.705,157.3825 C768.771667,160.234167 766.313333,162.741667 765.33,164.905 L765.33,164.905 L765.33,81.42 L722.26,81.125 L722.555,296.475 L764.445,296.475 Z M959.825,299.13 C971.821667,299.13 982.54,297.065 991.98,292.935 C1001.42,288.805 1009.18833,283.6425 1015.285,277.4475 C1021.38167,271.2525 1025.80667,264.811667 1028.56,258.125 L992.275,246.915 C985.195,259.895 974.476667,266.385 960.12,266.385 C951.86,266.385 944.829167,264.664167 939.0275,261.2225 C933.225833,257.780833 928.899167,253.601667 926.0475,248.685 C923.195833,243.768333 921.77,239.048333 921.77,234.525 L1031.805,233.345 C1032.00167,231.181667 1032.1,227.936667 1032.1,223.61 C1032.1,205.91 1028.7075,191.258333 1021.9225,179.655 C1015.1375,168.051667 1006.23833,159.595 995.225,154.285 C984.211667,148.975 972.215,146.32 959.235,146.32 C945.468333,146.32 932.734167,149.1225 921.0325,154.7275 C909.330833,160.3325 899.841667,168.936667 892.565,180.54 C885.288333,192.143333 881.65,206.303333 881.65,223.02 C881.65,236.983333 884.895,249.766667 891.385,261.37 C897.875,272.973333 907.069167,282.1675 918.9675,288.9525 C930.865833,295.7375 944.485,299.13 959.825,299.13 Z M921.77,205.32 C922.556667,197.453333 926.145833,190.963333 932.5375,185.85 C938.929167,180.736667 945.861667,177.983333 953.335,177.59 C960.611667,177.196667 967.150833,178.278333 972.9525,180.835 C978.754167,183.391667 983.228333,186.8825 986.375,191.3075 C989.521667,195.7325 991.095,200.305 991.095,205.025 L921.77,205.32 Z M1093.55,296.18 L1093.55,251.93 C1093.55,238.556667 1093.845,228.4775 1094.435,221.6925 C1095.025,214.9075 1096.10667,209.499167 1097.68,205.4675 C1099.25333,201.435833 1101.81,197.453333 1105.35,193.52 C1111.25,186.833333 1119.41167,183.49 1129.835,183.49 C1136.325,183.49 1142.32333,184.768333 1147.83,187.325 L1158.45,152.22 C1152.55,148.68 1144.78167,146.91 1135.145,146.91 C1129.245,146.91 1124.13167,147.696667 1119.805,149.27 C1112.725,151.826667 1107.16917,154.973333 1103.1375,158.71 C1099.10583,162.446667 1095.91,167.265 1093.55,173.165 L1093.55,151.63 L1055.2,151.63 L1055.2,295.885 L1093.55,296.18 Z M1164.44,353.41 L1203.085,353.115 L1202.79,283.495 C1213.80333,294.705 1227.47167,300.31 1243.795,300.31 C1254.415,300.31 1265.08417,297.704167 1275.8025,292.4925 C1286.52083,287.280833 1295.51833,278.824167 1302.795,267.1225 C1310.07167,255.420833 1313.71,240.523333 1313.71,222.43 C1313.71,206.696667 1310.3175,192.979167 1303.5325,181.2775 C1296.7475,169.575833 1288.09417,160.676667 1277.5725,154.58 C1267.05083,148.483333 1256.48,145.435 1245.86,145.435 C1226.19333,145.435 1211.64,152.22 1202.2,165.79 L1202.2,165.79 L1200.725,150.45 L1163.85,150.155 L1164.44,353.41 Z M1239.075,264.91 C1227.47167,264.91 1218.425,261.025833 1211.935,253.2575 C1205.445,245.489167 1202.2,235.508333 1202.2,223.315 C1202.2,212.695 1205.05167,203.156667 1210.755,194.7 C1216.45833,186.243333 1225.8,182.015 1238.78,182.015 C1245.66333,182.015 1251.85833,183.883333 1257.365,187.62 C1262.87167,191.356667 1267.19833,196.371667 1270.345,202.665 C1273.49167,208.958333 1275.065,215.743333 1275.065,223.02 C1275.065,230.886667 1273.4425,238.015833 1270.1975,244.4075 C1266.9525,250.799167 1262.57667,255.814167 1257.07,259.4525 C1251.56333,263.090833 1245.565,264.91 1239.075,264.91 Z M1386.075,300.9 C1395.71167,300.9 1403.9225,298.785833 1410.7075,294.5575 C1417.4925,290.329167 1422.95,285.363333 1427.08,279.66 L1427.08,279.66 L1428.26,296.475 L1466.905,296.475 L1466.02,199.715 C1466.02,188.898333 1462.87333,179.163333 1456.58,170.51 C1450.28667,161.856667 1440.65,155.071667 1427.67,150.155 C1419.41,147.205 1410.855,145.73 1402.005,145.73 C1389.025,145.73 1377.52,148.483333 1367.49,153.99 C1357.85333,159.496667 1350.57667,165.740833 1345.66,172.7225 C1340.74333,179.704167 1337.695,186.735 1336.515,193.815 L1336.515,193.815 L1371.03,201.19 C1372.40667,193.52 1375.455,187.669167 1380.175,183.6375 C1384.895,179.605833 1390.795,177.59 1397.875,177.59 C1400.62833,177.59 1403.97167,178.081667 1407.905,179.065 C1413.60833,180.638333 1417.68917,182.949167 1420.1475,185.9975 C1422.60583,189.045833 1423.835,192.34 1423.835,195.88 C1423.835,197.65 1423.54,199.370833 1422.95,201.0425 C1422.36,202.714167 1421.67167,203.845 1420.885,204.435 C1419.50833,205.615 1416.70583,206.598333 1412.4775,207.385 C1408.24917,208.171667 1402.3,209.056667 1394.63,210.04 L1394.63,210.04 L1385.19,211.22 C1369.26,213.186667 1356.7225,217.808333 1347.5775,225.085 C1338.4325,232.361667 1333.86,242.686667 1333.86,256.06 C1333.86,258.616667 1333.95833,260.583333 1334.155,261.96 C1335.72833,274.153333 1340.94,283.691667 1349.79,290.575 C1358.64,297.458333 1370.735,300.9 1386.075,300.9 Z M1393.155,271.105 C1386.86167,271.105 1381.89583,269.63 1378.2575,266.68 C1374.61917,263.73 1372.8,259.501667 1372.8,253.995 C1372.8,249.668333 1373.93083,246.423333 1376.1925,244.26 C1378.45417,242.096667 1381.5025,240.72 1385.3375,240.13 C1389.1725,239.54 1394.82667,239.048333 1402.3,238.655 C1404.26667,238.458333 1407.85583,238.2125 1413.0675,237.9175 C1418.27917,237.6225 1423.14667,237.081667 1427.67,236.295 C1427.86667,237.278333 1427.965,238.753333 1427.965,240.72 C1427.965,247.8 1425.80167,253.995 1421.475,259.305 C1417.14833,264.615 1410.95333,268.155 1402.89,269.925 C1398.17,270.711667 1394.925,271.105 1393.155,271.105 Z M1557.855,301.195 C1577.52167,301.195 1592.075,294.41 1601.515,280.84 L1601.515,280.84 L1602.99,296.18 L1639.865,296.475 L1639.275,81.125 L1600.63,81.42 L1600.925,163.135 C1589.91167,151.925 1576.24333,146.32 1559.92,146.32 C1549.3,146.32 1538.63083,148.925833 1527.9125,154.1375 C1517.19417,159.349167 1508.19667,167.805833 1500.92,179.5075 C1493.64333,191.209167 1490.005,206.106667 1490.005,224.2 C1490.005,239.933333 1493.3975,253.650833 1500.1825,265.3525 C1506.9675,277.054167 1515.62083,285.953333 1526.1425,292.05 C1536.66417,298.146667 1547.235,301.195 1557.855,301.195 Z M1564.935,264.615 C1558.05167,264.615 1551.85667,262.746667 1546.35,259.01 C1540.84333,255.273333 1536.51667,250.258333 1533.37,243.965 C1530.22333,237.671667 1528.65,230.886667 1528.65,223.61 C1528.65,215.743333 1530.2725,208.614167 1533.5175,202.2225 C1536.7625,195.830833 1541.13833,190.815833 1546.645,187.1775 C1552.15167,183.539167 1558.15,181.72 1564.64,181.72 C1576.24333,181.72 1585.29,185.604167 1591.78,193.3725 C1598.27,201.140833 1601.515,211.121667 1601.515,223.315 C1601.515,233.935 1598.66333,243.473333 1592.96,251.93 C1587.25667,260.386667 1577.915,264.615 1564.935,264.615 Z" id="etherpad" fill="#44B392" fill-rule="nonzero"></path>
            </g>
        </g>
    </g>
</svg>