<svg xmlns="http://www.w3.org/2000/svg" width="2500" height="2460" viewBox="22.246 22.237 283.01 278.511"><linearGradient id="a" gradientUnits="userSpaceOnUse" x1="-2229.396" y1="695.345" x2="-1904.405" y2="370.354" gradientTransform="matrix(1 0 0 -1 2229.395 695.343)"><stop offset=".355" stop-color="#e64415"/><stop offset=".431" stop-color="#e74b14"/><stop offset=".541" stop-color="#e95e0f"/><stop offset=".672" stop-color="#ed7a01"/><stop offset=".818" stop-color="#f49e00"/><stop offset=".976" stop-color="#fdc600"/><stop offset="1" stop-color="#fc0"/></linearGradient><path d="M163.75 300.748c-78.026 0-141.504-62.47-141.504-139.257 0-76.785 63.479-139.254 141.504-139.254 78.026 0 141.506 62.469 141.506 139.254.001 76.787-63.48 139.257-141.506 139.257z" fill="#fff"/><path d="M292.5 161.492a124.35 124.35 0 0 0-6.412-39.505c-19.477-46.363-65.932-78.995-120.149-78.995C94.176 42.992 36 100.151 36 170.659c0 3.021.115 6.015.325 8.983 8.96 61.264 62.592 108.35 127.425 108.35 71.106 0 128.75-56.636 128.75-126.5z" fill="#eb6a0a" stroke="#eb6a0a"/><path d="M188.25 107.882s-11.5-6.25-24 5.5c0 0-10.5 9.75-20.25 10.75 0 0 1-1.5 1-5.75 0 0-16 17.5-39.75-7.25 0 0 7 4.25 20-13.25 0 0 14.25-19.5 26.5-13.25 0 0-1.25-3.5-3-4.5 0 0 32.5-7 39.5 27.75z" fill="#4c8a24"/><linearGradient id="b" gradientUnits="userSpaceOnUse" x1="-2123.845" y1="587.472" x2="-2041.709" y2="587.472" gradientTransform="matrix(1 0 0 -1 2229.395 695.343)"><stop offset=".066" stop-color="#4c8a24"/><stop offset=".399" stop-color="#3a6f24"/><stop offset=".709" stop-color="#2f5c22"/><stop offset=".888" stop-color="#2b5521"/></linearGradient><path d="M164.25 113.382c10.874-10.221 20.986-6.822 23.437-5.765-5.834-8.43-23.497-28.701-46.187-5.485-15.963 16.335-29.852 12.41-35.949 9.307C129.135 135.73 145 118.382 145 118.382c0 4.25-1 5.75-1 5.75 9.75-1 20.25-10.75 20.25-10.75z" fill="url(#b)"/><path d="M277.707 144.17c3.904-12.585 1.916-28.809-11.681-34.693-3.334-1.443-6.835-2.178-10.408-2.178-4.649 0-9 1.273-12.495 3.045-.213-3.426-1.872-6.519-4.929-9.193-2.118-1.853-4.893-2.792-8.246-2.792-2.486 0-5.31.52-8.426 1.547-.018-.021-.031-.043-.048-.064l-.101-.137-.107-.131c-1.443-1.746-9.068-10.45-17.476-10.45-3.092 0-5.923 1.169-8.188 3.383-5.596 5.461-4.336 13.21-2.446 18.706a45.389 45.389 0 0 1-3.281.767c-2.509.479-6.748 2.855-7.444 7.191a7.356 7.356 0 0 0-.069 1.678 30.357 30.357 0 0 0-2.691-.134c-2.79 0-5.66.402-8.527 1.192-7.369 2.036-11.813 7.044-14.338 11.211-1.475-.713-3.124-1.219-4.838-1.219a8.17 8.17 0 0 0-4.735 1.478c-3.949 2.779-3.673 6.809-2.545 10.088-1.705-2.088-3.648-3.812-5.859-5.16-5.332-3.254-10.935-4.901-16.656-4.901-6.434 0-12.294 2.146-16.954 5.275 1.509-2.63 2.603-5.31 3.056-7.958.734-4.296-.196-8.325-2.688-11.649-2.705-3.607-7.47-5.513-13.783-5.513-7.364 0-16.044 2.55-22.655 6.654-.584.362-1.194.732-1.827 1.115-5.993 3.638-14.203 8.621-21.072 18.984-4.274 6.453-5.33 12.75-4.337 25.89.142 3.341 2.663 47.427 36.493 71.188 3.047 2.141 7.104 4.596 11.475 4.596 3.33 0 11.088-1.581 11.228-16.222a93.785 93.785 0 0 0-.331-8.729c1.875 2.502 4.08 4.611 6.55 6.134 3.776 2.327 7.771 3.509 11.873 3.509 11.788 0 20.391-9.443 20.737-17.918.093-2.251-.11-4.21-.544-5.917 3.432 1.146 6.989 1.663 10.522 1.956.534.045 1.026.064 1.479.064 5.023 0 7.022-2.603 7.769-4.152.924-1.924.798-3.891.286-5.599 1.979 1.089 4.197 1.657 6.637 1.657.754 0 1.536-.057 2.317-.17 4.996-.725 8.877-3.199 11.224-7.158 1.115-1.88 1.804-3.98 2.164-6.169a15.637 15.637 0 0 0 1.969 3.302c2.588 3.296 6.258 5.04 10.614 5.04 1.569 0 3.233-.234 4.95-.692 8.575-2.296 13.356-9.495 15.239-18.175a5.976 5.976 0 0 0 3.987 1.505c3.083 0 5.406-2.203 7.354-4.278.327-.353 4.026-4.431 6.919-11.613.849 1.328 1.769 2.399 2.661 3.115 3.38 2.706 7.575 4.256 11.511 4.256 4.582 0 8.475-2.139 10.615-5.77 2.82 2.563 6.528 4.329 11.109 5.276.77.159 1.513.238 2.215.238 2.823 0 5.173-1.302 6.439-3.57 1.723-3.077.771-6.712-.688-9.088-.279-.442-1.108-1.792 1.021-8.648z" fill="#fff"/><path d="M101.167 165.882c-4.488-4.143-14.567 1.276-19.634 4.469a258.025 258.025 0 0 0-5.282-10.469s35.696-23.82 25.25-37.75c-4.5-6-20-3.583-29.667 2.417-5.9 3.663-14.394 8.112-21.333 18.583-3.179 4.797-4.5 9.583-3.5 22.75 0 0 1.583 44.333 34.333 67.333 3.25 2.282 14.5 10 14.667-7.5.104-10.764-1.779-22.852-6.957-37.407 7.609-6.446 16.812-18.099 12.123-22.426z" fill="#0b2d63"/><path d="M119.167 168.215s-1.727-15.499-13.333-11.223c-6.333 2.333-7.091-1.884-5.5-5.5 3.667-8.333 19.167-19 35.833-8.833 7.42 4.526 11.833 14.667 12.5 34.89.367 11.137 4.333 16.166 4.333 16.166s5.333 6.667-2.667 6c-8-.666-16.924-2.361-23-14.166-4.833-9.39-13-5.723-14.667-1.89-1.337 3.076-2.833 12 7.333 12.556 10.518.575 15.188 3.728 14.833 12.334-.333 8.11-12.477 17.896-24.833 10.277-12.166-7.5-19.499-36.611 9.168-50.611zM158.833 140.882s-5.416-5.621-8.667-3.333c-3 2.111.834 7.111 2 9.611s1.5 8.39 1.5 19.056c0 10.667 2.5 27 14 25.334 11.5-1.667 10.167-14.834 7.5-22-2.666-7.167-11.671-20.104-5.332-29.723 4.833-7.333 13.846-3.754 16.332 1.89 3.501 7.944 1.721 18.249-.332 26.611-2.167 8.833.333 20.833 12.166 17.666 11.834-3.167 13.563-18.77 11.834-29.833-1.833-11.723-14.928-35.518-37.334-29.333-10.667 2.942-13.667 14.054-13.667 14.054z" fill="#0b2d63"/><path d="M234.834 104.991c-3.586-3.137-10.855-.777-15.24 1.107a99.965 99.965 0 0 0-2.26-3.274s-11.167-13.5-18.167-6.667c-3.264 3.187-3.667 8.667.833 18.224 0 0-4.499 1.719-9.166 2.609-1.546.295-6.5 3.333-.5 6.667 6.996 3.887 12.333 4.333 16.833 4.667 0 0 12 16.5 10.167 34.667-.916 9.078 2.333 6.167 4.833 3.5 0 0 15.231-16.331 6.062-43.214 1.938-1.033 4.253-2.549 6.104-4.619 2.835-3.167 6.449-8.463.501-13.667zM253.001 130.991s-.167-8.167-9.167-7.333c-7.615.705-4.615-3.713-3.167-5.333 2.834-3.167 12.645-8.794 23.334-4.167 11.167 4.833 11.833 18.833 8.833 28.5-2.457 7.916-1.771 10.767-.5 12.833 1.333 2.167 1.545 5.605-2.584 4.751-3.625-.75-11.393-2.688-13.249-12.917-1.626-8.958-5.001-10.583-8.626-9.333-3.013 1.039-5.431 7.191.25 9.125 6.124 2.084 7.25 5.75 5.376 9.708-2.487 5.255-9.834 4.667-14.834.667-2.708-2.167-7.833-13-.166-21.167 6.373-6.788 12.834-5.667 14.5-5.334z" fill="#0b2d63"/><ellipse cx="163.75" cy="161.492" rx="128.75" ry="126.5" fill="none" stroke="#eb6a0a"/><path d="M283.52 145.331c3.058 0 5.433 2.375 5.433 5.334 0 3.025-2.375 5.367-5.465 5.367-3.057 0-5.497-2.342-5.497-5.367 0-2.96 2.44-5.334 5.497-5.334h.032zm-.065 1.074c-2.342 0-4.099 1.918-4.099 4.261 0 2.375 1.757 4.262 4.163 4.262 2.342.032 4.065-1.887 4.065-4.262 0-2.342-1.725-4.261-4.099-4.261h-.03zm-.813 7.025h-1.235v-5.303a10.406 10.406 0 0 1 2.049-.194c1.009 0 1.463.163 1.854.423.293.228.521.65.521 1.139 0 .618-.455 1.073-1.104 1.269v.064c.521.163.812.585.976 1.301.162.813.261 1.139.392 1.302h-1.334c-.162-.195-.261-.651-.423-1.27-.099-.585-.423-.846-1.105-.846h-.586v2.115h-.005zm.034-2.992h.585c.684 0 1.235-.229 1.235-.781 0-.487-.356-.812-1.139-.812-.325 0-.553.032-.684.064v1.529h.003z" fill="#fff"/><path d="M163.75 34.992C92.644 34.992 35 91.628 35 161.492c0 6.164.458 12.222 1.325 18.149-.21-2.97-.325-5.962-.325-8.982 0-70.508 58.176-127.667 129.938-127.667 54.219 0 100.674 32.632 120.149 78.995-16.888-50.516-65.273-86.995-122.337-86.995z" fill="#e64415"/></svg>