<?xml version="1.0" encoding="utf-8"?>
<!-- Generator: Adobe Illustrator 22.1.0, SVG Export Plug-In . SVG Version: 6.00 Build 0)  -->
<svg version="1.1" id="Laag_1" xmlns="http://www.w3.org/2000/svg" xmlns:xlink="http://www.w3.org/1999/xlink" x="0px" y="0px"
	 viewBox="0 0 1464.2 1070.9" style="enable-background:new 0 0 1464.2 1070.9;" xml:space="preserve">
<style type="text/css">
	.st0{fill:#F4991D;}
	.st1{fill:#2F358C;}
	.st2{fill:#75B947;}
	.st3{fill:#609744;}
	.st4{fill:#FFFFFF;}
	.st5{fill:#CDCBE6;}
	.st6{fill:#C6C3E1;}
</style>
<circle class="st0" cx="630.3" cy="535.5" r="535.5"/>
<path class="st1" d="M0,297.6l294.1-30.7c0,0-105.3-85.1-116.7-124.6c0,0-4.4-21.9,30.7-33.4s184.3-70.2,184.3-70.2
	s215.1-66.7,316,194.9l179.9-28.1v28.1l316-8.8l11.4,109.7h79l94.8,327.4L977,982.3c0,0-94.8,81.6-302.8,86l-603-239.6L0,297.6z"/>
<path class="st2" d="M214.2,144c0,0,120.3-45.6,129.9-55.3c10.5-10.5,153.6-64.1,252.8,21.9c0,0,70.2,68.5,92.2,151l42.1,86
	l21.9,40.4c0,0,6.1,14.9,0,17.6s-50.9-68.5-50.9-68.5l-20.2-29c0,0-17.6-22.8-68.5-12.3c-50.9,10.5-129,19.3-185.2,9.7
	C373.1,294.9,243.1,184.3,214.2,144L214.2,144z"/>
<path class="st3" d="M442.4,304.6c-56.2-9.7-186.1-120.3-215.1-160.6c0,0,120.3-45.6,129.9-55.3c5.3-5.3,51.8-24.6,109.7-26.3
	c-63.2-1.8-116.7,20.2-122.9,26.3C333.6,99.2,214.2,144,214.2,144c29,41.3,158.9,151.9,215.1,160.6c19.3,3.5,40.4,4.4,62.3,4.4
	C474,308.1,457.3,307.2,442.4,304.6L442.4,304.6z"/>
<path class="st3" d="M319.5,174.7c0,0,55.3-27.2,85.1,0c58.8,53.5,186.1,81.6,210.7,76.4c0,0-127.3,29-164.1,8.8
	C402.9,233.5,373.9,197.5,319.5,174.7z"/>
<path class="st4" d="M44.8,337.1l68.5,469.6l100.9-7l-15.8-201.9l100.9-8.8l-13.2-87.8l-100.9,13.2l-8.8-85.1l122.9-21.9
	l-17.6-112.4L44.8,337.1z M569.7,376.6L618,760.2l93.9-10.5l-13.2-193.1l153.6,177.3l72.9-8.8l-57.1-465.2l-103.6,11.4l21.9,194.9
	L666.2,356.4L569.7,376.6z"/>
<path class="st5" d="M666.2,365.2l120.3,109.7l-0.9-9.7L666.2,356.4l-96.6,20.2l0.9,7.9L666.2,365.2z M868.1,268.6l56.2,456.5h0.9
	l-57.1-465.2l-103.6,11.4l1.8,8.8L868.1,268.6z M698.7,565.3l13.2,184.3l-12.3-184.3H698.7z"/>
<path class="st4" d="M894.5,277.4L907.6,381l61.4,1.8l28.1,323l116.7-2.6l-11.4-329.2l81.6-6.1l-15.8-112.4L894.5,277.4z"/>
<path class="st5" d="M905,287.9l83.4-11.4l179.9-21.1l-273.9,21.9L907.6,381h8.8L905,287.9z M979.6,393.3l-9.7-0.9l27.2,313.4
	l9.7-0.9L979.6,393.3z"/>
<path class="st4" d="M448.6,352l-99.2,11.4l-42.1,428.4l79-4.4l20.2-114.1l57.1-7L510,771.6l83.4-11.4L448.6,352z M404.7,600.4
	l11.4-74.6h17.6l26.3,68.5L404.7,600.4z"/>
<path class="st5" d="M352,366.9l97.4-14l-0.9-0.9l-98.3,11.4l-42.1,427.5l17.6-0.9L352,366.9z M525.8,768.9l-49.2-103.6l-11.4,1.8
	L510,771.6l83.4-11.4v-2.6L525.8,768.9z"/>
<path class="st4" d="M1276.3,381l-131.7,20.2l4.4,292.3l70.2-7l4.4-74.6l39.5-4.4l30.7,61.4l74.6-2.6L1276.3,381z M1244.7,549.5
	c-24.6,1.8-30.7-12.3-35.1-26.3l57.1-6.1C1266.7,517,1269.3,547.7,1244.7,549.5z"/>
<path class="st6" d="M1162.2,407.3l118.5-13.2l-4.4-14l-131.7,20.2l4.4,291.4h6.1L1162.2,407.3z M1278.9,529.3l-14,0.9
	c-1.8,8.8-7,18.4-21.1,19.3c-7,0.9-13.2-0.9-17.6-2.6c4.4,7.9,12.3,14,29,14C1279.8,560,1278.9,529.3,1278.9,529.3z M1271.9,618
	l-2.6,0.9l24.6,49.2h0.9L1271.9,618z"/>
<path class="st5" d="M66.7,496l49.2,310.7l20.2-1.8L79,504.7L66.7,496z"/>
<path class="st1" d="M1419.4,627.6l-7.9,1.8l-0.9-2.6l18.4-3.5l0.9,2.6l-7.9,1.8l3.5,22.8l-3.5,0.9L1419.4,627.6z M1458.9,632.9
	c-0.9-3.5-1.8-7.9-2.6-10.5c0,3.5-0.9,6.1-1.8,10.5l-2.6,13.2h-2.6l-6.1-11.4c-1.8-3.5-3.5-6.1-4.4-9.7c0.9,3.5,0.9,7,1.8,11.4
	l0.9,10.5l-3.5,0.9l-2.6-25.5l4.4-0.9l6.1,11.4c1.8,2.6,2.6,5.3,4.4,7.9c0-2.6,0.9-5.3,0.9-8.8l2.6-13.2l4.4-0.9l6.1,24.6l-3.5,0.9
	L1458.9,632.9z"/>
</svg>
