<svg xmlns="http://www.w3.org/2000/svg" width="2500" height="1350" viewBox="0 0 52.801 28.519"><path d="M23.58 6.739c1.749-.014 3.176-1.441 3.18-3.18C26.756 1.777 25.329.35 23.58.378a3.125 3.125 0 0 0-3.18 3.181c-.019 1.738 1.408 3.166 3.18 3.18zM19.98 13.458c1.761-.018 3.188-1.445 3.18-3.18a3.222 3.222 0 0 0-3.18-3.24 3.223 3.223 0 0 0-3.18 3.24c-.007 1.736 1.42 3.163 3.18 3.18zM27.24 13.458c1.77-.018 3.196-1.445 3.18-3.18a3.211 3.211 0 0 0-3.18-3.24 3.234 3.234 0 0 0-3.18 3.24c.001 1.736 1.428 3.163 3.18 3.18zM27.6 5.359c.292-2.281 2.5-4.306 4.32-4.92 1.861-.674 4.805-.766 7.38 1.14 1.38 1.039 2.944 2.511 4.32 2.58-1.192 2.782-4.228 3.702-6.06 3.78-1.848.106-3.412-.722-4.86-1.8-1.495-1.13-3.795-1.314-5.1-.78zM43.02 14.958h-3.36v-3.42c.054-.688-.268-1.285-1.2-1.26h-3.12v4.68H33.6v2.58h1.74v10.74h4.32v-10.74h2.4l.96-2.58zM9.96 14.958H4.98v-1.859c.005-1.236.649-1.558 1.5-1.561H12l1.2-3.3H2.52a2.475 2.475 0 0 0-2.52 2.4v17.64h4.98v-10.32h3.84l1.14-3zM17.34 14.958h-5.82l-.96 2.58h3.78c.627-.018 1.133.213 1.14.96v1.86c-.824-.752-1.859-1.062-3.06-1.08a4.666 4.666 0 0 0-4.62 4.62c.018 2.566 1.646 4.635 4.62 4.62.799-.004 2.501-.556 3-2.101.053.854 1.065 1.866 2.34 1.86h2.04v-10.74c-.003-1.442-1.153-2.592-2.46-2.579z"/><path d="M15.48 26.179c-.329.588-3.135.22-3.3-2.28-.065-1.824 1.034-2.168 1.44-2.22.565-.11 1.853.396 1.86 1.62v2.88z" fill="#fff"/><path d="M50.34 14.958h-5.82l-.96 2.58h3.78c.654-.018 1.161.213 1.14.96v1.86c-.797-.752-1.831-1.062-3-1.08-2.566.018-4.635 2.085-4.62 4.62-.015 2.566 1.614 4.635 4.62 4.62.766-.004 2.468-.556 3-2.101.021.854 1.032 1.866 2.34 1.86h1.98v-10.74c.024-1.442-1.126-2.592-2.46-2.579z"/><path d="M48.48 26.179c-.302.588-3.107.22-3.3-2.28-.038-1.824 1.062-2.168 1.5-2.22.532-.11 1.82.396 1.8 1.62v2.88z" fill="#fff"/><path d="M29.34 14.779c-1.309-.018-2.689.396-3.72 1.02v-.84h-4.38v13.32h4.38v-9.18c-.028-1.026.754-1.348 1.2-1.32.386-.027 1.257.248 1.26 1.5v6.72c-.003 1.229.548 2.286 2.22 2.28h2.4v-10.74c-.024-1.674-1.265-2.824-3.36-2.76z"/></svg>