<svg xmlns="http://www.w3.org/2000/svg" width="2500" height="2500" viewBox="0 0 192.744 192.744"><g fill-rule="evenodd" clip-rule="evenodd"><path fill="#fff" d="M0 0h192.744v192.744H0V0z"/><path d="M152.096 47.907c-.986-.218-1.879.926-2.816 1.389-4.26.345-9.297.114-12.264 3.51-2.332.101-4.064 2.329-6.154 3.498-5.711 1.641-10.117 6.562-14.508 9.998-6.227 8.354-14.984 17.278-19.346 27.046-.377 2.023-2.718 2.011-4.195 2.11-.712-.409-1.138-1.636-2.129-1.112-4.897-3.208-5.805-10.737-12.434-10.859-7.384-5.38-11.648-13.596-9.943-22.159-.459-5.104 5.985-6.853 7.277-11.392 3.171-2.896 7.865-6.067 12.663-4.337-.666 1.13-2.021 3.048-1.186 4.418.251.325.69.067 1.091.097 3.179-2.783 5.213-8.171 9.704-8.417 2.309-3.01 6.561-.899 9.232-2.736 1.766.795 3.547 1.816 5.639 1.503 2.615 2.392 5.256.102 8.16 1.675-5.936 4.225-14.324 9.3-19.402 16.948-.641 2.327-3.775 4.936-5.296 6.921-.015.629-.711 1.304-.044 1.887 9.28-7.932 16.452-20.06 28.442-22.524 4.125-3.132 10.141-3.653 15.133-4.104-.91.062-.787 1.024-.68 1.758 5.027-1.595 10.365 2.21 15.758 2.645-1.728-.226-1.234 2.024-2.702 2.237z" fill="#e09142"/><path d="M161.85 62.201c-3.475 3.488-9.67 4.706-12.643 9.7-4.957 5.187-10.135 11.358-16.752 13.917-9.066 3.522-18.186 3.682-27.934 6.396l-.426-.371c5.719-10.831 15.822-21.786 26.066-28.128l2.576-.745c-1.105.532-.137 1.379-.264 2.016 3.303-.108 7.348-.211 10.064-3.077 4.734-1.747 10.652.536 14.391-3.255 2.957 1.513 7.053-.362 10.439-.077-1.346 2.03-4.935 1.246-5.517 3.624z" fill="#6cb35e"/><path d="M15.277 82.67C8.75 82.633 2.929 87.219 2.934 93.744l-.142 58.597 18.642-.023.045-35.259 13.128.054 4.179-11.046-17.271-.062.021-8.25c-.011-2.104 1.757-3.19 3.353-3.177l21.419-.019 4.48-11.784-35.511-.105zM93.4 106.582c9.635-6.23 25.288-2.593 25.325 6.886l-.1 38.133-12.635.013c-2.484-.096-4.342-2.187-4.246-4.67l.178-29.826c.002-4.019-8.558-3.942-8.56-.169l-.067 34.563-16.237-.057-.031-47.296 16.356.061.017 2.362zM127.18 92.492l-.078 11.803-6.189-.025-.012 9.202 6.08.021-.127 38.174 15.814.006.127-38.12 9.33.023 3.279-9.201-12.453-.038.145-18.3c-3.92 3.467-15.916 6.455-15.916 6.455z" fill="#2b55a2"/><path d="M179.178 104.432c6.098.28 10.939 5.507 10.701 11.717l-.086 35.646-8.607-.018c-4.297-.024-6.559-2.041-6.537-6.058-3.402 4.851-10.039 7.707-14.197 7.388-19.158-1.477-17.492-29.397-.611-33.236 3.684-.838 9.424.417 14.887 3.84l-.004-5.973c.023-2.957-.963-4.123-3.568-4.135l-14.875-.038 3.5-9.231 19.397.098zm-4.498 30.976c.004-3.775-2.951-7.72-7.301-6.79-8.254 1.763-6.416 18.115 7.266 16.124l.035-9.334zM62.199 106.134c5.978.274 10.724 5.399 10.491 11.487l-.202 34.946-8.322-.017c-4.212-.024-6.43-2.001-6.409-5.938-3.334 4.755-9.841 7.555-13.918 7.241-18.783-1.447-17.148-28.821-.598-32.585 3.61-.82 9.237.409 14.594 3.766l-.003-5.856c.021-2.899-.945-4.042-3.5-4.053l-14.582-.038 3.431-9.051 19.018.098zm-4.408 30.368c.001-3.7-2.895-7.567-7.16-6.656-8.09 1.728-6.289 17.76 7.125 15.809l.035-9.153z" fill="#2b55a2"/></g></svg>