<svg xmlns="http://www.w3.org/2000/svg" width="2500" height="2500" viewBox="0 0 192.756 192.756"><g fill-rule="evenodd" clip-rule="evenodd"><path fill="#fff" d="M0 0h192.756v192.756H0V0z"/><path d="M74.981 58.373c0-6.237 5.056-11.293 11.293-11.293 6.237 0 11.292 5.057 11.292 11.293s-5.055 11.293-11.292 11.293c-6.237.001-11.293-5.056-11.293-11.293zm-1.419 35.086c6.237 0 11.293-5.056 11.293-11.293 0-6.237-5.057-11.293-11.293-11.293-6.236 0-11.293 5.056-11.293 11.293.001 6.237 5.057 11.293 11.293 11.293zm25.749 0c6.238 0 11.295-5.056 11.295-11.293 0-6.237-5.057-11.293-11.295-11.293-6.236 0-11.292 5.056-11.292 11.293 0 6.237 5.056 11.293 11.292 11.293zm19.23-25.959c5.215 3.911 10.756 6.844 17.275 6.519 6.52-.326 17.273-3.585 21.512-13.363-4.889-.326-10.43-5.541-15.32-9.127-9.125-6.844-19.555-6.519-26.072-4.236-6.52 2.281-14.342 9.452-15.32 17.6 4.562-1.957 12.71-1.305 17.925 2.607zm36.668 31.289h-11.896V86.73c.164-2.445-.977-4.563-4.236-4.563h-11.082V98.79h-6.193v9.127h6.193v38.133h15.318v-38.133h8.475l3.421-9.128zm-117.173 0H20.435V92.27c0-4.4 2.281-5.541 5.215-5.541h19.719l4.237-11.734H11.634c-5.215 0-8.8 4.237-8.8 8.475v62.579h17.601v-36.668h13.526l4.075-10.592zm26.074 0H43.576l-3.422 9.127h13.363c2.282 0 4.075.814 4.075 3.422v6.559c-2.894-2.59-6.559-3.691-10.756-3.691-9.038 0-16.363 7.324-16.363 16.363 0 9.037 5.771 16.363 16.363 16.363 2.77-.066 8.8-2.021 10.593-7.4.163 2.934 3.748 6.518 8.311 6.518h7.171v-38.133c0-5.054-4.075-9.128-8.801-9.128zm-6.518 39.766c-1.141 2.117-11.082.812-11.734-7.986-.163-6.52 3.733-7.738 5.215-7.986 1.956-.324 6.519 1.467 6.519 5.867v10.105zm123.529-39.766h-20.533l-3.424 9.127h13.363c2.283 0 4.076.814 4.076 3.422v6.559c-2.895-2.59-6.561-3.691-10.758-3.691-9.035 0-16.363 7.324-16.363 16.363 0 9.037 5.771 16.363 16.363 16.363 2.771-.066 8.801-2.021 10.594-7.4.164 2.934 3.748 6.518 8.311 6.518h7.172v-38.133c0-5.054-4.074-9.128-8.801-9.128zm-6.517 39.766c-1.141 2.117-11.082.812-11.734-7.986-.162-6.52 3.732-7.738 5.215-7.986 1.955-.324 6.52 1.467 6.52 5.867v10.105h-.001zm-67.959-40.418c-4.562 0-9.451 1.467-13.2 3.748v-3.096h-15.32v47.26h15.319v-32.594c0-3.584 2.771-4.725 4.401-4.725 1.312 0 4.398.979 4.398 5.377v23.795c0 4.398 1.957 8.146 7.822 8.146h8.475v-37.971c.001-6.028-4.397-10.102-11.895-9.94z" fill="#dba33a"/></g></svg>