<svg style="width:200px;height:200px;" aria-labelledby="logoTitle" role="img" version="1.1" viewBox="0 0 200 200" xmlns="http://www.w3.org/2000/svg"><title id="logoTitle">Feather Wiki logo</title><g fill-rule="evenodd"><path d="m101 199c11.7-8.2 21-26.9 21.8-40.3l-9.56-14.4 9.64 10.1c-0.0398-4.3-0.382-8.9-0.758-13.9l-6.23-7.67 5.94 3.34c-0.217-3.06-0.424-6.22-0.542-9.56-0.434-12.3-2.08-31.5-4.66-50.3l-7.96-16.3 7.33 12c-0.718-4.92-1.49-9.76-2.33-14.4l-7.35-8.79 6.99 6.9c-0.766-4.1-1.59-7.99-2.44-11.6l-7.22-4.78 9.61 2.74c-1.2-4.22-8.25-5.35-10.4-6.9 0 0 9.39 0.879 8.42 0.0779-2.65-2.2-6.28-2.65-7.68-3.28-2.68-1.2-1.71-1.06-1.71-1.06 0.881 0.175 4.23-2.15 6.54-2.1 1.66 0.035-1.35-0.0997-3.25 0.0897-7.29 2.03-3.99 0.489-4.57 0.927-0.913 0.688 5.52-2.85 6.66-2.92 1.61-0.0891-1.57-0.753-2.74-0.218-3.22 1.51-6.52 2.74-10 0.677-2.53-1.48-4.93 0.0453-3.98 0.627 0.906 0.95-0.213-0.158-0.155-0.226 0.748-0.864 3.1 0.414 3.14 1.57 0.0583 1.65-5.07 0.83-4.32 2.32 0.155 0.307-2.15-0.763 0.928-0.401 1.09 0.173 1.52 0.483 2.24-0.608 0 0-0.901 1.69-0.451 1.54 5.88-1.97-3.49 2.03-4.93 5.74l6.88-1.21-5.06 5.93c-0.371 1.48-0.733 3.02-1.09 4.6l6.87-3.89-7.12 5.05c-0.445 2.02-0.884 4.1-1.31 6.24l9.21-6.46-9.55 8.26c-0.663 3.47-1.29 7.09-1.89 10.8l10-11.1-10.5 14.4c-3.4 22.1-5.48 46.4-5.28 61.3l6.59-4.23c-6.51 3.85-6.55 6.9-6.26 13.4l6.71-6.09-6.64 7.59c0.394 8.03 0.991 15.5 2.08 21.8l9.15-7.74-7.03 16.6c3.37 7.22 11.6 25.1 18.4 25.9z" color="#000000" fill="#19457c" stroke-width=".511"></path><path d="m101 199c-0.505-6e-3 -1.46-41.2-2.14-92-0.675-50.8-0.814-92-0.309-92 0.505 0.0063 1.46 41.2 2.14 92 0.675 50.8 0.814 92 0.309 92z" fill="#f0e2e2" stroke="#000" stroke-linecap="round" stroke-width=".156"></path><path d="m99.7 13.2c-1.08 2.22-2.19 1.19-2.76-0.281l1.48 14.8z" stroke-width=".511"></path><path d="m189 0.128c9.42 13.4 12.1 37.1 7.69 51.9l-15.9 11.8 14.3-7.12c-1.72 4.61-3.88 9.42-6.22 14.6l-9.7 5.82 7.69-1.28c-9.06 21.4-19.4 44.2-28.9 62.3l-14.9 14.5 12.5-10c-2.69 5.01-5.41 9.92-8.12 14.6l-11.3 6.59 10.2-4.69c-2.42 4.11-4.82 7.98-7.15 11.5l-9.63 2.32 11.4 0.802c-2.93 4.08-11 2.54-13.9 3.36 0 0 10.4 2.72 9.09 3.2-3.71 1.33-7.79 0.4-9.54 0.529-0.976 1.62 3.73 4.13 3.96 5.28 1.8 0.609-1.49-0.42-3.46-1.36 0 0-3.11 0.529 1.47 2.95 1.7 0.725-1.98 0.199-3.03-0.833-2.87-2.88-5.94-5.49-10.5-4.64-3.3 0.608-5.29-1.97-4.04-2.23 1.35-0.669-0.291 0.0874-0.255 0.182 0.468 1.22 3.5 0.763 3.99-0.467 0 0-0.621-1.2-0.723-1.86-0.094-0.605-0.311-2.17 0.115-1.83 5.56 4.42-2.96-3.55-3.07-8.1l6.93 3.98-3.13-8.35c0.178-1.74 0.39-3.54 0.622-5.38l5.88 6.86-5.69-8.21c0.307-2.34 0.646-4.75 1.03-7.23l7.39 10.5-7.06-12.6c0.639-3.99 1.37-8.13 2.17-12.3l6.44 15.9-5.72-19.6c4.95-25.1 12.2-52 18.2-68l5.44 7.11-4.97-8.32c1.12-2.87 2.39-5.97 3.45-8.51l4.84 9.17-4.18-10.8c3.55-8.48 7.09-16.2 10.7-22.7l6.83 11.9-1.09-20.6c6.45-6.46 22.3-22.5 29.9-20.7z" color="#000000" fill="#1f5598" stroke-width=".585"></path><path d="m189 0.153c-0.546-0.19-17.7 43.8-38.2 98.2-20.5 54.4-36.8 98.7-36.2 98.9 0.546 0.19 17.7-43.8 38.2-98.2 20.5-54.4 36.8-98.7 36.2-98.9z" fill="#f0e2e2" stroke="#000" stroke-linecap="round" stroke-width=".178"></path><path d="m116 200c-0.297-2.82-1.89-2.13-3.08-0.776l7.36-15.4z" stroke-width=".585"></path><path d="m11 0.128c-5.11 1.9-9.62 28.2-9.86 38-0.111 4.6 0.724 9.16 2.17 13.9l15.9 11.8-14.3-7.12c1.72 4.61 3.88 9.42 6.22 14.6l9.7 5.82-7.69-1.28c9.06 21.4 19.4 44.2 28.9 62.3l14.9 14.5-12.5-10c2.69 5.01 5.41 9.92 8.12 14.6l11.3 6.59-10.2-4.69c2.42 4.11 4.82 7.98 7.15 11.5l9.63 2.32-11.4 0.802c2.93 4.08 11 2.54 13.9 3.36 0 0-10.4 2.72-9.09 3.2 3.71 1.33 7.79 0.4 9.54 0.529 3.35 0.246 2.26 0.474 2.26 0.474-1.02 0.155-3.72 3.96-6.22 4.81-1.8 0.609 1.49-0.42 3.46-1.36 7.05-5.03 4.1-2.08 4.56-2.78 0.714-1.1-4.83 5.22-6.03 5.73-1.7 0.725 1.98 0.199 3.03-0.833 2.87-2.88 5.94-5.49 10.5-4.64 0.0042-1.58-0.704-3.16 1.02-4.37 1.22-0.859 1.88-2.63 1.46-2.29-5.56 4.42 1.39-3.09 1.5-7.64l-6.93 3.98 3.13-8.35c-0.178-1.74-0.39-3.54-0.622-5.38l-5.88 6.86 5.69-8.21c-0.307-2.34-0.646-4.75-1.03-7.23l-7.39 10.5 7.06-12.6c-0.639-3.99-1.37-8.13-2.17-12.3l-6.44 15.9 5.72-19.6c-4.95-25.1-12.2-52-18.2-68l-5.44 7.11 4.97-8.32c-1.12-2.87-2.39-5.97-3.45-8.51l-4.84 9.17 4.18-10.8c-3.55-8.48-7.09-16.2-10.7-22.7l-6.83 11.9 1.09-20.6c-6.45-6.46-22.3-22.5-29.9-20.7z" color="#000000" fill="#1f5598" fill-opacity=".993" stroke-width=".585"></path><path d="m10.9 0.153c0.546-0.19 17.7 43.8 38.2 98.2 20.5 54.4 36.8 98.7 36.2 98.9-0.546 0.19-17.7-43.8-38.2-98.2-20.5-54.4-36.8-98.7-36.2-98.9z" fill="#f0e2e2" stroke="#000" stroke-linecap="round" stroke-width=".178"></path><path d="m84.6 200c0.297-2.82 1.89-2.13 3.08-0.776l-7.36-15.4z" stroke-width=".585"></path></g></svg>