<svg clip-rule="evenodd" fill-rule="evenodd" height="255.84" image-rendering="optimizeQuality" shape-rendering="geometricPrecision" text-rendering="geometricPrecision" viewBox="0 0 110 67.691" width="110mm" xmlns="http://www.w3.org/2000/svg"><g fill="#a70230" fill-rule="nonzero"><path d="M0 0l2.192 67.691h10.654l-.233-28.07h8.934v-8.75h-8.934l.033-22.026H24.31L24.247 0zM28.459 0l1.348 67.691h11.002l.223-67.69zM80.036 0v8.538h8.69l-.25 59.153H99.12l2.261-59.162H110L109.934 0zM57.623 31.329l.12-22.992h6.144c2.785 5.12 4.574 11.892 5.977 22.992zm-9.815 36.36H57.993l.114-27.99H70.31c.959 4.94 1.194 20.19 1.251 27.99h9.88C82.376 33.132 79.48 13.6 71.479 0H46.876z"/></g></svg>