<svg xmlns="http://www.w3.org/2000/svg" width="2500" height="1899" viewBox="0 0 398.611 302.779"><radialGradient id="a" cx="-683.04" cy="1396.288" r="401.819" gradientTransform="matrix(1 0 0 -1 1045.93 1422.955)" gradientUnits="userSpaceOnUse"><stop offset="0" stop-color="#cc2229"/><stop offset="1" stop-color="#5d1518"/></radialGradient><path fill="url(#a)" d="M0 0h398.611v302.779H0z"/><circle cx="199.529" cy="153.397" r="71.536"/><circle cx="199.529" cy="153.397" r="69.027" fill="#bbbcbf"/><path d="M144.013 118.63c0 .058-7.658 1.222-7.651 1.258.038.19-.396 39.397 6.598 37.426 4.604-2.168 2.127-27.714 2.127-24.278 0 4.79.466 12.646 2.303 24.981 2.07 13.898 1.198 15.631 2.165 18.623-2.247-2.183-5.742-3.164-5.742-3.164l4.956 16.75 3.649-1.103.101-.113c.098-.001 3.604.261 6.014 4.669 13.941 25.514 50.644 15.703 41.036 16.256l15.124-1.819c-44.293 7.577-52.604-12.845-54.83-16.923-1.842-3.37-6.254-3.161-7.323-3.183a.895.895 0 0 0-.604.216c-.127.039-1.839.557-2.497.754-.231-.779 9.171.537 8.379-2.141 1.923 1.868-4.783-3.023-4.783-3.023l.004-.004a.6.6 0 0 0 .119.092l3.347-.562-2.824-.29c-.175-.214.755-1.322-2.564-23.607-1.825-12.245-1.457-21.777-1.457-26.521 0-4.596-.3-4.921-.292-4.954l-2.699-1.763-.518-.105c-.744-.15-1.481-.389-1.8-.566.166-.246.262-.575.262-1.118 0-.524-.057-1.209-.129-2.094-.098-1.182-.049-5.417-.212-4.003-8.602 74.642 3.304-8.354 1.842-6.759l.836-.948c4.051-4.676 18.203-15.597 54.719-16.451 38.615-.904 38.791 13.2 38.922 13.406l10.004 4.955c-.133-.212-13.125-21.776-52.341-20.858-36.954.865-47.923 13.524-52.053 18.29l-.817.928c-1.696 1.852-3.646 1.868-3.646 4.596 0 1.457-1.633 3.398-1.534 4.603.062.74 3.417 3.871 3.417 4.401 0 .262-.016.457-.057.543-.266.151.449-6.568.449-6.397zm105.599-3.59c-.842.362-.715 1.729-.54 3.619.13 1.409.278 3.007.001 4.121l.965.243c.318-1.28.16-2.968.023-4.457-.088-.947-.222-2.38-.021-2.634.023.033.304 10.667 2.492 13.202 3.484 4.034 1.748 1.713 1.748 8.743 0 3.465 2.592 7.504 2.488 8.918-1.289-1.635-1.658-5.841-1.986-9.613-.383-4.392-.712-8.184-2.274-9.444-.435-.351-2.052-.339-1.493-.414 9.688-1.3-3.741-10.264-2.814-4.13.315 2.096-.71-4.704-2.198-7.019-4.559-7.094-14-15.381-46.81-16.52-30.076-1.045-44.982 11.3-48.813 15.065l.498-.858-4.289-2.52-1.98 12.302 1.559 2.092s3.91-9.187 3.972-9.329c.526-.622 14.778-16.942 49.021-15.754 36.5 1.267 43.165 11.636 46.01 16.062 1.371 2.135 1.732 4.521 2.052 6.625.418 2.772.813 5.39 3.928 4.972a.915.915 0 0 1 .74.203c1.231.994 1.574 4.938 1.905 8.751.439 5.045.854 9.81 3.174 10.978l.646.325.069-.726c.087-.926 2.085-22.735-4.09-29.885-2.432-2.811-3.327-3.201-3.983-2.918zm13.203 18.078a41.066 41.066 0 0 0-2.799-8.421c.703 1.616 1.821 4.498 2.799 8.421zm-2.798-8.421a34.108 34.108 0 0 0-.438-.974c.16.326.289.649.438.974zm-3.112-7.221c8.16 7.869 6.695 28.172 6.695 28.172l-3.97-4.611v19.673l-2.747 5.532c-4.887 26.128-16.488 49.182-61.983 47.952-45.494-1.229-52.517-25.514-56.792-48.566s1.832-48.259 1.832-48.259c-13.436 39.959 2.443 70.083 2.443 70.083s7.633 28.277 54.653 27.972c47.021-.307 54.35-26.435 54.35-26.435l.854 6.595s10.923-9.991 14.28-30.894c1.704-10.584-4.873-42.642-9.615-47.214zm2.674 6.247c-.158-.332-.254-.515-.254-.515.088.172.17.344.254.515z"/><radialGradient id="b" cx="-846.236" cy="1269.791" r="67.763" gradientTransform="matrix(1 0 0 -1 1045.93 1422.955)" gradientUnits="userSpaceOnUse"><stop offset=".635"/><stop offset=".786" stop-color="#636466"/><stop offset="1" stop-color="#fff"/></radialGradient><path d="M262.63 142.66c.024.242.054.472.078.716.786 7.812 1.146 5.721-.078-.716zm-116.842-32.782s6.217-5.733 10.656-9.958c0 0-5.92 3.32-10.656 9.958zm-1.654 76.096c3.521 7.102 6.983 11.723 6.983 11.723s-3.3-4.981-6.983-11.723zm115.318-68.249l-1.156-3.372 10.332 3.673-9.997-5.124 10.151-6.024-11.156 4.574 1.785-11.156-3.622 10.776-2.625-.742c-5.505-8.186-13.07-12.282-22.589-16.848-17.692-8.489-41.273-6.238-41.273-6.238s27.84.354 49.136 12.977c4.397 2.607 8.063 6.223 11.108 10.31l-4.598.253 5.268.672c.498.7.978 1.412 1.438 2.134l-6.114 3.532 6.597-2.769a63.762 63.762 0 0 1 1.933 3.354l-2.608 8.167 3.084-7.269c4.569 8.839 6.978 18.228 8.086 24.055-1.278-12.196-3.512-20.89-6.663-27.411l.229-.541s11.543 15.089 9.472 39.835c-2.07 24.746-7.991 33.498-13.912 39.533l-.296-3.02s-8.583 25.652-51.207 25.049c-42.624-.604-45.881-14.484-45.881-14.484l-2.368-1.209s-10.062-7.846-16.279-28.668c-6.216-20.823-.296-37.723-.296-37.723s-3.257 13.882-.889 28.065c1.228 7.35 5.631 16.639 9.593 23.887-2.908-5.863-5.856-13.418-6.929-21.473-2.368-17.805-1.775-29.876 1.184-38.929 2.96-9.053 4.735-12.979 4.735-12.979s-12.431 14.486-12.728 45.269c-.296 30.781 25.751 51.904 37.295 56.433 11.544 4.526 47.952 10.562 69.855-4.828 21.904-15.391 20.425-19.313 27.527-33.498 7.107-14.183 4.146-42.852-5.622-58.243zm-5.185-5.645l-.068-.116.221.028-.153.088zm1.018 1.817c-.125-.236-.249-.478-.376-.708l.695-.292-.319 1zm-104.168-1.303c1.775-3.018 10.951-8.449 10.951-8.449s-5.032 3.019-10.656 9.657c-5.625 6.639 2.072-.604 12.433-7.545 10.359-6.94 24.862-6.337 24.862-6.337s-4.734-3.621-22.792 2.113l17.464-7.545s-26.639 5.732-34.335 16.598c-7.696 10.864.296 4.527 2.073 1.508zm89.103-.954c3.266 3.392 5.616 6.387 5.616 6.387s-.961-3.051-5.616-6.387zm-101.24 44.411c3.256 31.988 16.872 45.569 16.872 45.569s10.358 10.26 42.624 11.77c32.263 1.508 42.624-11.166 43.512-13.279.889-2.11-4.145 1.207-5.624.604-1.479-.604 4.736-11.771 4.736-11.771-3.256 12.072 1.775-1.811 5.03-.301 3.257 1.508-6.512 5.433-3.255 8.449 3.256 3.018 10.062-18.408 14.503-28.064 4.441-9.656 2.961-19.615 2.664-25.953-.295-6.338-1.774-9.054-1.774-9.054l-.89 15.09s.594 2.111-4.145-8.451l-3.848-10.26c-2.664 47.078-13.32 64.884-13.32 64.884s-3.849 11.768-34.928 12.07c-31.079.301-35.521-7.849-35.521-7.849-10.062-13.276-15.983-41.646-14.503-60.354 1.479-18.71 0-23.841 13.319-29.575 13.319-5.732 33.446-6.337 33.446-6.337 24.177-.68 36.33 4.098 42.336 8.4a76.995 76.995 0 0 0-2.376-2.364c-4.439-4.225-45.584-12.977-67.19-4.527-21.608 8.45-23.088 16.598-21.607 41.344 1.48 24.746 9.176 45.268 14.503 53.113 5.329 7.846 24.272 10.261 24.272 10.261-25.752-.604-28.712-14.183-30.191-16.599-1.479-2.414-5.921-7.243-6.809-3.319-.888 3.923-8.847-20.065-7.366-21.272 1.479-1.209 10.622 12.221 10.622 12.221s-3.256-6.641-6.512-25.35c-3.256-18.71 1.775-28.065-1.48-28.669s4.049 27.608-5.275 28.863c-2.657.357-.451-24.952.732-30.082 1.185-5.131 2.473-6.628 2.473-6.628s-8.285 5.432-5.03 37.42z" fill="url(#b)"/><path d="M241.914 112.988c-7.441-8.236-20.736-9.764-41.187-9.617-20.92.149-35.348 1.896-42.615 10.129-7.172 8.123-7.154 22.152-4.801 42.155 4.984 42.369 11.545 49.225 46.8 48.896 16.723-.155 27.807-1.655 34.971-8.86 6.654-6.693 10.232-18.363 12.763-41.623 2.347-21.598.572-33.883-5.931-41.08z" fill="#601823"/><radialGradient id="c" cx="-836.317" cy="1284.403" r="33.255" gradientTransform="matrix(1 0 0 -1 1045.93 1422.955)" gradientUnits="userSpaceOnUse"><stop offset="0" stop-color="#cc2229"/><stop offset="1" stop-color="#822124"/></radialGradient><path d="M226.854 199.923a26.702 26.702 0 0 0 1.577-.719l.7-92.237a43.673 43.673 0 0 0-2.002-.501l-.275 93.457zm-11.987-95.06c-.101 13.97-.48 62.854-1.131 97.927a71.096 71.096 0 0 0 4.317-.531c-.627-35.949-.91-85.189-.974-97.24-.723-.06-1.462-.11-2.212-.156zm3.232.246l1.063 96.965a49.233 49.233 0 0 0 1.488-.284c-.365-35.633-.516-84.02-.551-96.483a87.426 87.426 0 0 0-2-.198zm6.185 95.744a29.45 29.45 0 0 0 1.569-.535l.277-94.071a56.338 56.338 0 0 0-2.008-.37c.027 14.467.119 68.897.162 94.976zm-23.536-96.296c-.318.003-.624.009-.939.012l1.083 98.786c.504-.006 1-.014 1.49-.021-.382-35.365-.541-85.156-.578-98.778-.355.001-.698-.001-1.056.001zm2.069-.003l.625 98.76c.515-.01 1.022-.021 1.525-.035-.121-35.357-.145-85.104-.146-98.722-.658-.005-1.332-.004-2.004-.003zm26.687 94.08c.522-.295 1.03-.607 1.521-.941l1.1-89.773a35.014 35.014 0 0 0-1.979-.668c-.069 14.489-.292 57.782-.642 91.382zm6.933-88.714l.891 81.222a29.79 29.79 0 0 0 1.491-2.595c-.24-29.409-.36-62.614-.405-77.3a21.49 21.49 0 0 0-1.977-1.327zm6.107 68.479a103.463 103.463 0 0 0 1.699-7.662l.154-51.997a21.391 21.391 0 0 0-1.96-3.383l.107 63.042zm-30.691-73.689c-.064 13.79-.312 63.073-.709 98.287.508-.034 1.011-.071 1.504-.111l1.199-98.083c-.655-.035-1.321-.065-1.994-.093zm33.537 16.48l-.128 43.398c.486-3.295.936-6.86 1.355-10.735.204-1.873.365-3.649.508-5.383l.14-18.218c-.352-3.472-.975-6.471-1.875-9.062zm-4.291-7.521a18.829 18.829 0 0 0-1.652-1.592l.469 74.138a49.302 49.302 0 0 0 1.586-4.262c-.055-25.859-.073-53.325-.08-67.892-.11-.127-.211-.267-.323-.392zm-69.152 85.971c.501.256 1.018.496 1.549.721l.713-93.767c-.677.144-1.345.288-1.988.449l-.274 92.597zm34.044 3.609c.524-.018 1.041-.036 1.551-.057l.291-98.604c-.653-.012-1.336-.016-2.008-.022l.166 98.683zm2.551-.102c.524-.025 1.043-.053 1.553-.082l.748-98.396c-.658-.022-1.333-.039-2.01-.055l-.291 98.533zm12.571-97.714l.608 96.12a38.49 38.49 0 0 0 1.533-.396c-.111-35.19-.133-82.455-.137-95.455-.648-.1-1.327-.184-2.004-.269zm-64.586 64.084a129.72 129.72 0 0 0 1.493 7.451l.767-62.623a18.495 18.495 0 0 0-1.913 2.664c-.075 13.899-.192 33.334-.347 52.508zm-2.731-21.174c.203 2.237.45 4.598.745 7.105.302 2.562.611 4.981.934 7.281l.332-43.643c-.858 1.927-1.502 4.138-1.943 6.704l-.068 22.553zm6.081-35.125c-.136 16.636-.386 43.555-.746 68.021 1.113 3.834 2.392 7.021 3.903 9.665-.435-28.074-.682-61.658-.792-79.63a18.725 18.725 0 0 0-2.365 1.944zm73.272-4.896c-.111 15.182-.443 56.015-.988 88.549a21.957 21.957 0 0 0 4.02-4.088c-.469-31.704-.705-69.238-.783-83.414a26.428 26.428 0 0 0-2.249-1.047zm-69.844 2.255l.901 82.193c.483.705.987 1.365 1.518 1.981-.289-29.708-.437-66.982-.495-85.23-.672.33-1.312.683-1.924 1.056zm2.959-1.525l.55 86.874c.496.494 1.01.959 1.545 1.394-.098-30.782-.126-70.804-.135-89.054-.678.245-1.33.508-1.96.786zm30.297-4.439c-.113 15.492-.504 64.388-1.159 98.759 1.412.011 2.877.007 4.396-.006-.644-35.346-.938-85.121-1.01-98.784-.748.008-1.498.017-2.227.031zm-15.027.853l1.066 97.184c.488.064.984.127 1.493.182-.372-33.874-.536-81.491-.583-97.57-.675.06-1.324.133-1.976.204zm-12.144 92.631c.502.355 1.021.689 1.56 1l.271-91.777c-.68.186-1.344.381-1.982.592.032 20.151.112 67.254.151 90.185zm24.158-93.41c-.073 15.566-.325 64.335-.721 98.65.493.01.993.02 1.5.023l1.208-98.724c-.666.017-1.337.031-1.987.051zm-18.313 1.703c-.088 17.871-.328 62.125-.692 94.378.487.182.983.352 1.495.508l1.167-95.238c-.675.108-1.325.228-1.97.352zm3.009-.505c-.133 17.679-.514 63.074-1.131 95.699a41.03 41.03 0 0 0 4.394.908c-.616-33.632-.915-80.589-1.006-96.915a89.5 89.5 0 0 0-2.257.308zm11.995 97.376c.506.021 1.022.036 1.543.051l.75-98.589c-.676.024-1.343.05-2.002.079l-.291 98.459zm-2.544-.128c.506.031 1.022.06 1.545.083l.291-98.37c-.68.033-1.339.075-2.001.115l.165 98.172zm-3.165-97.955l.619 97.759c.5.047 1.008.088 1.523.127-.12-34.054-.146-82.16-.15-98.043-.679.045-1.333.103-1.992.157z" fill="url(#c)"/><radialGradient id="d" cx="-844.038" cy="1281.502" r="66.068" gradientTransform="matrix(1 0 0 -1 1045.93 1422.955)" gradientUnits="userSpaceOnUse"><stop offset="0" stop-color="#fff"/><stop offset="1" stop-color="#636466"/></radialGradient><path d="M181.763 182.483h9.178v-56.65h-9.178v56.65zm-19.939 0h9.178v-25.637h6.646v-7.278h-6.646V133.11h7.596v-7.278h-16.773v56.651zm55.7-56.65v7.278h5.699v49.373h9.178v-49.373h6.326v-7.278h-21.203zm-5.38 0h-17.405v56.65h9.178v-25.637h7.193s.379 1.812.397 4.434c.021 2.621 0 21.203 0 21.203h8.125V161.28s0-9.735-1.872-18.928c-1.873-9.193-5.616-16.519-5.616-16.519zm-1.688 23.736h-6.539v-16.458h1.818s2.604 3.396 3.693 8.844c1.091 5.447 1.028 7.614 1.028 7.614z" fill="url(#d)"/><path d="M181.263 125.333v57.65h10.178v-57.65h-10.178zm9.178 1v55.65h-8.178v-55.65h8.178zM161.324 125.333v57.65h10.178v-25.637h6.646v-8.278h-6.646V133.61h7.596v-8.278h-17.774zm16.773 1v6.278h-7.596v17.458h6.646v6.278h-6.646v25.637h-8.178v-55.65l15.774-.001zM217.024 125.333v8.278h5.699v49.373h10.178v-49.373h6.326v-8.278h-22.203zm21.204 1v6.278h-6.326v49.373h-8.178v-49.373h-5.699v-6.278h20.203z"/><path d="M194.239 125.333v57.65h10.178v-25.637h6.273c.106.654.305 2.086.317 3.938v21.697l9.125.002V161.28c0-.098-.021-9.893-1.883-19.027-1.864-9.153-5.624-16.574-5.662-16.647l-.139-.272-18.209-.001zm17.594 1c.622 1.273 3.777 7.969 5.438 16.119 1.841 9.035 1.862 18.73 1.862 18.828v20.703h-7.125v-20.707c-.021-2.641-.394-4.454-.408-4.53l-.084-.397h-8.101v25.635h-8.178v-55.649c.928-.002 16.012-.002 16.596-.002z"/><path d="M203.417 132.611v17.458h7.525l.014-.486c.003-.091.051-2.285-1.037-7.727-1.101-5.498-3.678-8.906-3.785-9.049l-.15-.196h-2.567zm2.062 1c.538.773 2.548 3.886 3.46 8.441.787 3.937.965 6.127 1.005 7.017h-5.526v-15.458h1.061z"/></svg>