<svg _ngcontent-ohe-c47="" width="119" height="34" viewBox="0 0 119 34" fill="none" xmlns="http://www.w3.org/2000/svg" class="logo-variant-dark"><path _ngcontent-ohe-c47="" fill-rule="evenodd" clip-rule="evenodd" d="M34.899 16.8932C34.899 26.2175 27.3957 33.7764 18.1398 33.7764C14.4012 33.7764 10.9486 32.5433 8.16079 30.4584C8.63795 30.7281 9.13036 30.9728 9.63624 31.1912C11.5536 32.0239 13.6195 32.4539 15.7075 32.4548C19.5964 32.4533 23.3414 30.9734 26.194 28.3107C29.0467 25.6481 30.7966 21.9991 31.0942 18.093C31.1361 17.7249 31.1591 17.355 31.1632 16.9846C31.1632 16.5138 31.1242 15.9666 31.0768 15.4704C31.0724 15.4231 31.071 15.375 31.0695 15.3269C31.0678 15.2714 31.066 15.2158 31.0599 15.1614L31.0465 15.1749C30.9779 14.5278 30.9042 14.0279 30.9042 14.0279H18.742L17.7972 15.8088L15.6255 19.9414H24.8149C24.4749 20.9656 23.9668 21.9252 23.3118 22.7802C22.4187 23.9579 21.268 24.9122 19.9491 25.5689C18.6302 26.2256 17.1787 26.567 15.7075 26.5665C14.5811 26.5643 13.4639 26.3616 12.4075 25.9678C10.5608 25.2878 8.96591 24.0527 7.83876 22.4296C6.71158 20.8066 6.10651 18.874 6.10535 16.8931C6.10535 15.6228 6.35368 14.3649 6.83622 13.1913C7.31877 12.0177 8.02605 10.9513 8.9177 10.053C9.80933 9.15473 10.8679 8.44217 12.0329 7.95603C13.1979 7.46989 14.4465 7.21967 15.7075 7.21964C17.7426 7.21659 19.7256 7.86786 21.3678 9.07867L22.6285 6.70266L24.1297 3.84575C21.6248 2.20037 18.6979 1.32659 15.7075 1.33142C13.0642 1.33227 10.4869 2.01613 8.21098 3.2905C10.99 1.22851 14.4236 0.0100555 18.1398 0.0100555C27.3957 0.0100555 34.899 7.5689 34.899 16.8932Z" fill="#FF5700"></path><path _ngcontent-ohe-c47="" d="M57.8913 20.6204C57.2931 21.3446 56.5404 21.9231 55.6888 22.3128C54.9279 22.6497 54.1045 22.8204 53.2733 22.8136C52.211 22.8326 51.1621 22.573 50.2296 22.0602C50.1959 22.0413 50.1673 22.0172 50.1342 21.9977C49.2991 21.5127 48.611 20.8078 48.1435 19.9588C47.6346 19.0193 47.3768 17.9628 47.3957 16.8927C47.3771 15.8226 47.6349 14.7661 48.1435 13.8266C48.611 12.9777 49.2988 12.2729 50.1339 11.7879C50.1671 11.7683 50.1959 11.7442 50.2296 11.7252C51.1624 11.2128 52.211 10.9532 53.2733 10.9718C54.1051 10.9649 54.9288 11.1339 55.6917 11.4681L57.4214 8.19072C57.4071 8.18427 57.3943 8.17589 57.3798 8.1695C56.0143 7.5903 54.5447 7.30253 53.0635 7.32433C51.428 7.3073 49.8103 7.66861 48.3352 8.38044C48.2116 8.44085 48.0812 8.48713 47.9599 8.55288C46.4824 9.33813 45.2476 10.518 44.3916 11.9632C43.5156 13.4542 43.066 15.1602 43.0928 16.8926C43.066 18.6253 43.5156 20.3316 44.3916 21.823C45.2479 23.2677 46.4824 24.4472 47.9599 25.2324C48.0815 25.2982 48.2116 25.3446 48.3355 25.4052C49.8019 26.1155 51.4103 26.4771 53.0373 26.4619C54.5229 26.4829 55.9969 26.1948 57.367 25.6157C57.3847 25.6079 57.4007 25.5976 57.4185 25.5897C58.6629 25.0475 59.7604 24.2137 60.6201 23.1577L57.8913 20.6204Z" fill="#27333F"></path><path _ngcontent-ohe-c47="" d="M66.8256 25.2191C65.338 24.4325 64.0944 23.2483 63.2312 21.7964C62.3574 20.3138 61.9079 18.6167 61.9323 16.8927C61.9079 15.1688 62.3574 13.4717 63.2312 11.9891C64.0947 10.5376 65.3385 9.35349 66.8256 8.56636C68.4139 7.72419 70.187 7.29716 71.9819 7.32445C73.7724 7.29611 75.5414 7.72328 77.1248 8.56636C78.608 9.35862 79.8504 10.5416 80.7192 11.9891C81.6008 13.4689 82.0553 15.167 82.0311 16.8927C82.0553 18.6184 81.6008 20.3166 80.7192 21.7964C79.851 23.2443 78.6086 24.4274 77.1248 25.2191C75.5417 26.0629 73.7727 26.4904 71.9819 26.462C70.1867 26.4894 68.4139 26.062 66.8256 25.2191ZM74.9205 22.0602C75.7875 21.5659 76.5007 20.8383 76.9805 19.9588C77.489 19.0193 77.7468 17.9628 77.7282 16.8927C77.7468 15.8227 77.489 14.7662 76.9805 13.8266C76.5007 12.9471 75.7875 12.2195 74.9205 11.7252C74.0241 11.2175 73.0101 10.9576 71.9819 10.9718C70.9534 10.9574 69.9394 11.2174 69.043 11.7252C68.1759 12.2194 67.4628 12.947 66.983 13.8266C66.4744 14.7661 66.2166 15.8227 66.2353 16.8927C66.2163 17.9628 66.4741 19.0194 66.983 19.9588C67.4628 20.8384 68.1759 21.5661 69.043 22.0602C69.9394 22.5685 70.9534 22.8285 71.9819 22.8136C73.0101 22.8284 74.0241 22.5684 74.9205 22.0602Z" fill="#27333F"></path><path _ngcontent-ohe-c47="" d="M96.9355 26.1445L93.3932 20.9903H89.4836V26.1445H85.2328V7.64083H93.1831C94.6376 7.60671 96.0824 7.88604 97.4208 8.46017C98.5489 8.94775 99.511 9.75654 100.189 10.7872C100.854 11.8545 101.192 13.0956 101.16 14.3553C101.193 15.613 100.85 16.8517 100.176 17.9109C99.4878 18.9328 98.5157 19.7278 97.3816 20.1968L101.501 26.1445H96.9355ZM95.8593 11.9632C95.0146 11.3522 93.9847 11.0577 92.9471 11.1305H89.4836V17.5801H92.9471C93.9867 17.6531 95.0181 17.3534 95.8593 16.734C96.1945 16.4402 96.4586 16.0731 96.6315 15.6609C96.8043 15.2486 96.8814 14.8021 96.8567 14.3553C96.884 13.9062 96.8081 13.4568 96.6353 13.0419C96.4621 12.6271 96.1968 12.258 95.8593 11.9632Z" fill="#27333F"></path><path _ngcontent-ohe-c47="" d="M118.74 22.7084V26.1445H104.518V7.64085H118.398V11.0779H108.742V15.0953H117.27V18.4262H108.742V22.7084L118.74 22.7084Z" fill="#27333F"></path></svg>