<svg xml:space="preserve" id="svg37" x="0" y="0" version="1.1" viewBox="0 0 337.624 310.966" xmlns="http://www.w3.org/2000/svg"><style id="style2" type="text/css">.st3{fill:#e24329}.st4{fill:#fca326}.st5{fill:#fc6d26}</style><g id="logo_art" transform="translate(-124.226 -124.017)"><g id="g13"><path id="path50_2_" d="m293.026 434.983 62.199-191.322H230.918Z" class="st3"/><path id="path66_6_" d="m143.798 243.662-18.941 58.126c-1.714 5.278.137 11.104 4.661 14.394l163.509 118.801z" class="st4"/><path id="path74_2_" d="M143.798 243.662h87.12l-37.494-115.224c-1.919-5.895-10.282-5.895-12.27 0z" class="st3"/><path id="path82_6_" d="m442.346 243.662 18.873 58.126c1.714 5.278-.137 11.104-4.661 14.394L293.026 434.983Z" class="st4"/><path id="path86_2_" d="M442.346 243.662h-87.12l37.425-115.224c1.919-5.895 10.282-5.895 12.27 0z" class="st3"/><path id="polygon9" d="m442.346 243.662-149.32 191.321 62.199-191.321z" class="st5"/><path id="polygon11" d="m230.918 243.662 62.108 191.321-149.228-191.321z" class="st5"/></g></g></svg>