<svg xmlns="http://www.w3.org/2000/svg" width="2500" height="2500" viewBox="0 0 192.756 192.756"><g fill-rule="evenodd" clip-rule="evenodd"><path fill="#fff" d="M0 0h192.756v192.756H0V0z"/><path d="M28.949 78.99c9.008 0 16.685 4.998 19.397 11.899H26.395l-9.303 19.638c-5.191-3.158-8.587-8.326-8.587-14.149-.001-9.577 9.183-17.388 20.444-17.388z" fill="#33348e"/><path d="M49.211 94.062c.12.758.183 1.531.183 2.315 0 9.577-9.184 17.388-20.445 17.388-1.546 0-3.052-.148-4.501-.428l5.313-12.137c1.122-2.561-.436-5.059-3.168-7.139h22.618v.001z" fill="#cc2229"/><path d="M93.515 85.386h-20.25c-5.333 0-12.045 5.4-13.273 10.53l-.848 3.544c-1.768 7.383 2.848 12.148 7.52 12.148H82.56c2.531 0 5.281-3.088 5.889-5.568l2.533-10.328-13.976.102-1.966 3.646h6.378c1.051 0 .524 2.133.18 3.139l-1.144 3.34c-.375 1.098-1.38 2.432-2.525 2.432h-7.594c-3.192 0-3.719-5.9-2.885-9.012l.95-3.544c.984-3.674 5.319-7.087 9.088-7.087h15.187l.84-3.342zm90.737 0h-15.699c-5.332 0-12.045 5.4-13.273 10.53l-.848 3.544c-1.768 7.383 2.848 12.148 7.52 12.148h15.896l.855-3.215h-13.152v-.027c-3.098-.088-3.631-5.811-2.836-8.92h18.023l.795-3.162H163.56l.127-.47c.984-3.674 5.318-7.087 9.088-7.087h10.637c.279-1.113.561-2.227.84-3.341zm-29.15 0h-15.699c-5.334 0-12.047 5.4-13.273 10.53l-.85 3.544c-1.768 7.383 2.85 12.148 7.521 12.148h15.896l.854-3.215h-13.152v-.027c-3.096-.088-3.629-5.811-2.836-8.92h18.023l.795-3.162H134.41l.125-.47c.984-3.674 5.32-7.087 9.088-7.087h10.637c.281-1.113.56-2.227.842-3.341zm-57.487 0l-6.479 26.122 8.403.102 5.467-22.983h10.43c1.404 0 2.172 2.365 1.924 3.746-.283 1.574-1.945 3.999-4.455 3.999h-7.67l8.277 15.137h9.416l-6.682-11.947c4.352-.629 8.77-3.92 9.012-8.507.115-2.216-2.164-5.667-6-5.667H97.615v-.002z" fill="#33348e"/></g></svg>