<svg clip-rule="evenodd" fill-rule="evenodd" height="414.11" stroke-linejoin="round" stroke-miterlimit="2" viewBox="0 0 1650 414.11" width="1650" xmlns="http://www.w3.org/2000/svg" xmlns:xlink="http://www.w3.org/1999/xlink"><linearGradient id="a" gradientTransform="matrix(200 -420 420 200 660 1340)" gradientUnits="userSpaceOnUse" x2="1"><stop offset="0" stop-color="#fdd49a"/><stop offset="1" stop-color="#dca055"/></linearGradient><g fill-rule="nonzero" transform="translate(-49.999 -265.89)"><path d="m0 50.919v-50.919h5.941v23.084h29.023v-23.084h5.94v50.919h-5.94v-22.404h-29.023v22.404z" transform="matrix(3.285 0 0 3.285 570.76 387.65)"/><path d="m0-.068v2.274h-28.786c.566 3.01 2.02 5.482 4.362 7.418 2.342 1.934 5.165 2.902 8.469 2.902 1.834 0 3.768-.357 5.806-1.069 2.036-.713 3.891-1.862 5.566-3.446l3.293 4.209c-2.467 2.06-4.928 3.474-7.383 4.243-2.456.77-4.826 1.155-7.112 1.155 0 0-6.925-.764-9.776-2.291-2.852-1.528-5.087-3.638-6.704-6.331-1.619-2.693-2.428-5.759-2.428-9.199 0-3.35.759-6.343 2.275-8.979s3.598-4.713 6.246-6.23c2.648-1.515 5.646-2.274 8.995-2.274 3.35 0 6.314.759 8.894 2.274 2.58 1.517 4.605 3.599 6.076 6.247 1.471 2.647 2.207 5.68 2.207 9.097m-28.854-2.478h23.015c-.498-2.965-1.777-5.38-3.836-7.247-2.059-1.868-4.571-2.801-7.535-2.801-3.01 0-5.579.945-7.706 2.834-2.127 1.89-3.44 4.295-3.938 7.214" transform="matrix(3.285 0 0 3.285 846.97 499.27)"/><path d="m0-19.01c2.489 0 4.797.453 6.925 1.358 2.127.906 3.949 2.161 5.465 3.767v-21.419h5.601v50.919h-5.057l-.306-4.719c-1.517 1.675-3.361 2.993-5.533 3.955-2.173.962-4.538 1.443-7.095 1.443-3.281 0-6.218-.764-8.809-2.292s-4.629-3.621-6.11-6.28c-1.483-2.658-2.224-5.685-2.224-9.081 0-3.394.741-6.42 2.224-9.08 1.481-2.659 3.519-4.752 6.11-6.28s5.528-2.291 8.809-2.291m-11.372 17.651c0 2.399.515 4.549 1.545 6.45 1.029 1.901 2.438 3.395 4.226 4.481 1.787 1.087 3.824 1.63 6.11 1.63s4.323-.543 6.11-1.63c1.788-1.086 3.197-2.58 4.227-4.481 1.029-1.901 1.544-4.051 1.544-6.45 0-2.42-.515-4.576-1.544-6.466-1.03-1.889-2.439-3.377-4.227-4.464-1.787-1.086-3.824-1.629-6.11-1.629s-4.323.543-6.11 1.629c-1.788 1.087-3.197 2.575-4.226 4.464-1.03 1.89-1.545 4.046-1.545 6.466" transform="matrix(3.285 0 0 3.285 923.35 503.62)"/><path d="m0 18.332c-3.281 0-6.218-.763-8.809-2.291s-4.629-3.621-6.11-6.28c-1.483-2.659-2.224-5.686-2.224-9.081s.741-6.421 2.224-9.08c1.481-2.659 3.519-4.752 6.11-6.28s5.528-2.292 8.809-2.292c2.557 0 4.922.481 7.094 1.443 2.173.962 4.017 2.28 5.533 3.955l.306-4.719h5.058v30.619c0 4.187-.758 7.853-2.274 10.999-1.517 3.145-3.751 5.595-6.704 7.349-2.954 1.753-6.592 2.63-10.914 2.63-2.377 0-4.606-.344-6.688-1.035s-3.96-1.657-5.634-2.902l2.783-4.684c1.267 1.108 2.716 1.973 4.346 2.596 1.629.622 3.394.933 5.295.933 4.82 0 8.389-1.386 10.71-4.157 2.319-2.773 3.479-6.467 3.479-11.084v-1.764c-1.516 1.607-3.338 2.862-5.465 3.767-2.128.905-4.436 1.358-6.925 1.358m-11.372-17.652c0 2.399.514 4.549 1.545 6.45 1.029 1.901 2.438 3.394 4.226 4.481 1.787 1.086 3.824 1.629 6.11 1.629 2.285 0 4.323-.543 6.11-1.629 1.788-1.087 3.197-2.58 4.226-4.481 1.03-1.901 1.545-4.051 1.545-6.45 0-2.421-.515-4.577-1.545-6.467-1.029-1.888-2.438-3.377-4.226-4.463-1.787-1.087-3.825-1.63-6.11-1.63-2.286 0-4.323.543-6.11 1.63-1.788 1.086-3.197 2.575-4.226 4.463-1.031 1.89-1.545 4.046-1.545 6.467" transform="matrix(3.285 0 0 3.285 1066.6 496.92)"/><path d="m0-.068v2.274h-28.786c.566 3.01 2.02 5.482 4.362 7.418 2.342 1.934 5.165 2.902 8.469 2.902 1.834 0 3.769-.357 5.806-1.069 2.036-.713 3.891-1.862 5.566-3.446l3.293 4.209c-2.467 2.06-4.928 3.474-7.383 4.243-2.456.77-4.826 1.155-7.112 1.155-3.666 0-6.925-.764-9.776-2.291-2.851-1.528-5.087-3.638-6.704-6.331-1.619-2.693-2.428-5.759-2.428-9.199 0-3.35.759-6.343 2.275-8.979s3.598-4.713 6.246-6.23c2.648-1.515 5.646-2.274 8.995-2.274 3.35 0 6.314.759 8.894 2.274 2.58 1.517 4.605 3.599 6.076 6.247 1.471 2.647 2.207 5.68 2.207 9.097m-28.854-2.478h23.015c-.498-2.965-1.777-5.38-3.836-7.247-2.059-1.868-4.571-2.801-7.535-2.801-3.01 0-5.579.945-7.706 2.834-2.127 1.89-3.44 4.295-3.938 7.214" transform="matrix(3.285 0 0 3.285 1267.6 499.27)"/><path d="m0 50.919h-13.85v-50.919h13.85c10.003 0 17.686 2.213 23.049 6.637s8.045 10.676 8.045 18.755c0 8.101-2.682 14.382-8.045 18.839-5.363 4.459-13.046 6.688-23.049 6.688m0-5.431c8.056 0 14.235-1.754 18.535-5.262 4.299-3.507 6.449-8.453 6.449-14.834 0-6.359-2.15-11.275-6.449-14.75-4.3-3.473-10.479-5.21-18.535-5.21h-7.909v40.056z" transform="matrix(3.285 0 0 3.285 1341 387.87)"/><path d="m0-.001c0-3.394.764-6.421 2.291-9.08 1.528-2.659 3.621-4.752 6.281-6.28 2.659-1.528 5.685-2.291 9.08-2.291 3.394 0 6.421.763 9.08 2.291s4.752 3.621 6.28 6.28 2.291 5.686 2.291 9.08c0 3.395-.763 6.422-2.291 9.081s-3.621 4.752-6.28 6.28-5.686 2.291-9.08 2.291c-3.395 0-6.421-.763-9.08-2.291-2.66-1.528-4.753-3.621-6.281-6.28-1.527-2.659-2.291-5.686-2.291-9.081m5.771 0c0 2.399.514 4.549 1.545 6.45 1.029 1.901 2.438 3.394 4.226 4.481 1.787 1.086 3.824 1.629 6.11 1.629 2.285 0 4.323-.543 6.11-1.629 1.788-1.087 3.197-2.58 4.227-4.481 1.029-1.901 1.544-4.051 1.544-6.45 0-2.421-.515-4.577-1.544-6.466-1.03-1.889-2.439-3.377-4.227-4.464-1.787-1.087-3.825-1.629-6.11-1.629-2.286 0-4.323.542-6.11 1.629-1.788 1.087-3.197 2.575-4.226 4.464-1.031 1.889-1.545 4.045-1.545 6.466" transform="matrix(3.285 0 0 3.285 1464.4 499.16)"/><path d="m0 25.256c-1.584 1.584-3.451 2.817-5.601 3.7s-4.503 1.324-7.06 1.324c-3.395 0-6.422-.764-9.081-2.292-2.659-1.527-4.752-3.62-6.28-6.28-1.527-2.658-2.291-5.685-2.291-9.08s.764-6.421 2.291-9.08c1.528-2.66 3.621-4.753 6.28-6.28 2.659-1.528 5.686-2.292 9.081-2.292 2.557 0 4.91.441 7.06 1.324s4.017 2.105 5.601 3.666l-3.904 3.904c-1.064-1.2-2.342-2.133-3.835-2.801-1.494-.667-3.135-1.001-4.922-1.001-2.286 0-4.323.543-6.111 1.63-1.788 1.086-3.197 2.574-4.226 4.463-1.03 1.89-1.544 4.046-1.544 6.467 0 2.399.514 4.549 1.544 6.45 1.029 1.9 2.438 3.394 4.226 4.48 1.788 1.087 3.825 1.63 6.111 1.63 1.787 0 3.428-.34 4.922-1.019 1.493-.679 2.771-1.606 3.835-2.783z" transform="matrix(3.285 0 0 3.285 1700 457.68)"/><g transform="matrix(.27874 0 0 .27874 10.207 226.1)"><path d="m1553.7 961.08 75.25-75.258-75.25-75.246 56.61-90.096-90.1-56.616 35.15-100.45-100.44-35.142 11.91-105.75-105.74-11.912-11.92-105.75-105.74 11.912-35.15-100.44-100.43 35.145-56.63-90.1-90.107 56.617-75.242-75.246-75.242 75.25-90.104-56.612-56.612 90.096-100.44-35.15-35.142 100.44-105.75-11.916-11.912 105.74-105.74 11.913 11.917 105.74-100.45 35.15 35.145 100.44-90.1 56.612 56.621 90.117-75.258 75.25 75.25 75.258-56.613 90.107 90.1 56.61-35.145 100.44 100.45 35.15-11.913 105.73 105.74 11.92 11.912 105.74 105.75-11.91 35.142 100.43 100.44-35.13 56.617 90.1 90.096-56.62 75.25 74.55 75.25-74.53 90.099 56.61 56.61-90.11 100.45 35.15 35.14-100.44 105.75 11.91 11.91-105.75 105.75-11.91-11.92-105.74 100.45-35.15-35.15-100.45 90.1-56.61z" fill="#b51f08"/><path d="m1401.3 1004.8c0-145.44-117.9-263.34-263.34-263.34-72.24 0-137.68 29.112-185.25 76.225l-.033-.034-67.096 67.1-54.862-54.862c-48.267-55.067-119.07-89.879-198.04-89.879-145.44 0-263.34 117.9-263.34 263.34 0 76 32.23 144.43 83.721 192.49l432.78 432.55 423.22-423.49c52.88-49.77 92.25-120 92.25-200.1" fill="#fdd49a"/><path d="m885.58 884.73-54.862-54.862c-48.267-55.067-119.07-89.879-198.04-89.879-145.44 0-263.34 117.9-263.34 263.34 0 76 32.23 144.43 83.721 192.49l432.78 432.55" fill="url(#a)"/></g></g><g stroke-width=".27874"><path d="m207.13 414.11-.0708-207.29" fill="none"/><g fill-rule="nonzero"><path d="m228.08 393.26c-5.3739-5.3937-12.799-8.7275-20.996-8.7275-8.1998 0-15.622 3.3338-20.998 8.7275.0859 11.523 9.4517 20.839 20.996 20.839 11.544 0 20.911-9.3184 20.998-20.839" fill="#010007"/><path d="m182.56 266.33c0 8.8641-7.1824 16.047-16.048 16.047-8.8604 0-16.044-7.1832-16.044-16.047 0-8.8641 7.1835-16.047 16.044-16.047 8.8652 0 16.048 7.1832 16.048 16.047" fill="#010007"/><path d="m177.06 263.93c0 2.4585-1.9919 4.4432-4.446 4.4432-2.4552 0-4.4482-1.9847-4.4482-4.4432 0-2.4557 1.993-4.4488 4.4482-4.4488 2.4541 0 4.446 1.993 4.446 4.4488" fill="#fffffa"/><path d="m263.94 266.33c0 8.8641-7.1832 16.047-16.047 16.047-8.8613 0-16.046-7.1832-16.046-16.047 0-8.8641 7.1852-16.047 16.046-16.047 8.8641 0 16.047 7.1832 16.047 16.047" fill="#010007"/><path d="m258.44 263.93c0 2.4585-1.993 4.4432-4.446 4.4432-2.4557 0-4.4488-1.9847-4.4488-4.4432 0-2.4557 1.993-4.4488 4.4488-4.4488 2.453 0 4.446 1.993 4.446 4.4488" fill="#fffffa"/></g></g></svg>