<svg height="448" viewBox="0 0 286.901 51.199" width="2500" xmlns="http://www.w3.org/2000/svg"><path d="m3.084 17.464-3.084 32.818h16.697l1.878-19.928h15.634l-1.882 19.928h16.694l4.744-50.281h-16.698l-1.642 17.464h-15.08v-.001z" fill="#008f78"/><path d="m19.99 15.369 1.449-15.369h-16.698l-1.451 15.369z" fill="#f08b00"/><path d="m57.326 11.935-3.446 38.347h15.029l3.443-38.347zm15.402-2.146.923-9.789h-15.028l-.923 9.789zm21.446 10.774c1.218 0 2.39.35 3.239 1.057.925.628 1.521 1.546 1.486 2.749h13.663c.501-9.369-9.535-11.554-18.04-11.554-7.889 0-18.817 2.396-19.69 11.625-.59 6.268 3.721 9.647 15.01 11.475 6.875 1.125 8.106 1.763 7.909 3.873-.201 2.115-3.378 2.823-5.351 2.823-1.824 0-3.223-.424-3.92-1.058-1.056-.914-1.563-1.974-1.517-3.237h-14.346c-.663 9.432 9.178 12.883 18.439 12.883 9.565 0 20.297-2.74 21.249-12.883.565-5.991-3.574-8.735-8.444-10.214-4.866-1.552-10.525-1.83-12.937-2.826-.805-.341-1.671-.835-1.569-1.893.223-2.396 2.693-2.82 4.819-2.82m34.14 7.324c1.058-3.948 3.842-6.129 8.316-6.129 3.877 0 6.352 2.751 6.028 6.129zm7.797-15.071c-12.449 0-21.615 8.661-22.613 19.296-1.148 12.187 7.689 19.087 20.28 19.087 8.96 0 17.58-3.663 21.362-11.552h-14.045c-1.381 1.761-4.115 2.604-6.546 2.604-4.704 0-7.005-2.952-6.993-7.108h28.838c1.346-14.227-4.649-22.327-20.283-22.327m52.369 0c-5.993 0-10.199 1.899-13.352 5.564h-.151l.433-4.646h-14.493l-3.447 36.548h15.03l1.82-19.294c.548-5.85 4.074-7.049 6.656-7.049 4.4 0 4.652 2.96 4.26 7.187l-1.812 19.156h15.03l2.358-25.068c.793-8.385-5.283-12.398-12.332-12.398m34.862 7.747c1.209 0 2.394.35 3.239 1.057.925.628 1.524 1.546 1.483 2.749h13.666c.5-9.369-9.546-11.554-18.041-11.554-7.889 0-18.822 2.396-19.69 11.625-.589 6.268 3.721 9.647 15.009 11.475 6.879 1.125 8.107 1.763 7.908 3.873-.201 2.115-3.377 2.823-5.351 2.823-1.822 0-3.222-.424-3.925-1.058-1.049-.914-1.557-1.974-1.514-3.237h-14.346c-.659 9.432 9.188 12.883 18.442 12.883 9.566 0 20.295-2.74 21.253-12.883.561-5.991-3.579-8.735-8.447-10.214-4.866-1.552-10.53-1.83-12.937-2.826-.806-.341-1.674-.835-1.572-1.893.223-2.396 2.694-2.82 4.823-2.82m34.14 7.324c1.05-3.948 3.844-6.129 8.316-6.129 3.873 0 6.348 2.751 6.025 6.129zm7.795-15.071c-12.447 0-21.61 8.661-22.609 19.296-1.15 12.187 7.684 19.087 20.283 19.087 8.957 0 17.572-3.663 21.349-11.552h-14.034c-1.387 1.761-4.114 2.604-6.546 2.604-4.708 0-7.011-2.952-6.993-7.108h28.832c1.342-14.227-4.644-22.327-20.282-22.327" fill="#008f78"/></svg>