<svg height="700" viewBox="19.28 182.32 962.18 163.03" width="1000pt" xmlns="http://www.w3.org/2000/svg"><path d="m19.28 342.25c4.1-53.27 7.86-106.57 12.13-159.82 12.52.17 25.04 0 37.56.08 3.41.02 7.32 1.23 8.93 4.52 1.43 2.41 1.14 5.33 1.04 8.01-1.09 14.4-2.22 28.8-3.25 43.2 23.16.01 46.32.01 69.48 0 1.54-18.59 2.71-37.22 4.32-55.8 16.12.21 32.25-.12 48.37.16-4.15 53.19-8.03 106.4-12.06 159.61-16.12.09-32.24.01-48.36.04 1.65-23.6 3.54-47.18 5.26-70.77-23.19.09-46.39-.1-69.58.09-1.61 23.57-3.59 47.11-5.19 70.68-16.22 0-32.43-.01-48.65 0zm194.76-129.46c.79-10.12 1.3-20.27 2.34-30.36 12.85.19 25.7-.04 38.54.11 4.16-.18 8.01 3.03 7.97 7.31-.03 7.64-.96 15.26-1.42 22.89-15.81.04-31.62-.04-47.43.05zm76.33 18.53c13.91-6.39 29.48-7.47 44.56-8.05 20.74-.21 41.49 1.75 61.86 5.66-.6 8.03-1.54 16.03-2.16 24.06-18.03-3.29-36.29-6.04-54.67-5.58-5.02.18-10.15.21-15.01 1.66-1.56.57-3.53 1.17-4.02 2.96-.97 2.5 1.3 4.58 3.09 5.93 4.53 3.14 9.78 4.98 14.79 7.19 16.23 7.34 33.43 13.32 47.77 24.16 4.51 3.6 8.51 8.16 10.3 13.74 2.8 8.77.37 19.09-6.36 25.46-6.92 6.66-16.38 9.71-25.58 11.65-14.46 2.88-29.31 3.2-44 2.55-17.34-.63-34.69-1.57-51.89-3.92.33-8.82.89-17.74 1.53-26.46 1.99.91 4.18 1.22 6.33 1.56 17.27 2.65 34.68 4.92 52.19 4.85 4.71-.27 9.58-.09 14.08-1.7 2.34-.74 3.99-3.56 2.69-5.84-1.79-2.66-4.9-3.95-7.67-5.3-12.15-5.24-24.54-9.89-36.6-15.34-8.96-4.12-18.08-8.87-24.52-16.56-5.53-6.52-7.52-15.79-5.02-23.99 2.54-8.82 10.19-15.09 18.31-18.69zm457.11-6.61c27.22-3.23 54.83-.73 81.69 4.23-.7 8.04-1.53 16.08-2.23 24.12-20.3-3.91-41.03-6.72-61.74-5.34-3.88.42-8.18.64-11.33 3.23-1.65 1.86-.55 4.6 1.19 5.97 3.39 2.88 7.61 4.52 11.63 6.33 13.6 5.88 27.37 11.43 40.46 18.41 6.89 3.84 13.87 8.16 18.59 14.64 6.78 8.94 5.93 22.55-1.55 30.82-6.09 6.75-14.94 10.15-23.57 12.3-19.2 4.55-39.11 3.79-58.66 2.83-13.56-.63-27.11-1.69-40.58-3.4.31-8.69.96-17.36 1.51-26.03 21.48 3.45 43.24 6.8 65.07 5.61 3.48-.45 8.07-.3 10.27-3.54 1.86-3.78-2.35-6.45-5.26-7.8-15.38-7.15-31.59-12.45-46.68-20.24-7.98-4.31-15.97-9.75-20.26-18.01-5-9.84-2.74-22.82 5.51-30.23 9.79-8.87 23.18-12.16 35.94-13.9zm-288.67 1.53c19.41-4.34 40.59-3.92 58.66 5.11 11.76 5.68 21.78 15.5 26.24 27.93 4.08 10.88 3.9 22.81 2.17 34.15-32.25.18-64.5.01-96.75.08.56 9.3 7.38 17.04 15.58 20.82 10.93 5.1 23.36 5.81 35.24 5.16 14.13-.6 28.17-2.64 42-5.55-1.3 8.09-2.42 16.2-3.77 24.28-21.49 5.83-44.01 7.13-66.16 5.84-17.9-1.66-37-4.79-51.1-16.88-11.11-9.27-16.56-23.89-16.45-38.14-.46-15.72 6.53-31 17.17-42.32 9.79-10.6 23.2-17.37 37.17-20.48m6.76 24.28c-7.8 4.07-12.75 12.12-14.5 20.57 18.92.35 37.85.07 56.78.14.2-8.49-3.87-17.51-11.76-21.34-9.5-4.54-21.18-4.15-30.52.63zm403.98-16.05c14.33-8.15 31.1-10.99 47.41-10.92 18.52.44 37.82 6.9 50.38 21.02 11.59 13.04 14.12 31.95 10.74 48.56-1.15.78-2.75.22-4.04.4-30.83-.07-61.67-.01-92.5-.02.39 8.98 6.86 16.55 14.69 20.38 11 5.43 23.66 6.29 35.73 5.61 14.25-.61 28.42-2.6 42.35-5.6-1.27 8.05-2.53 16.1-3.65 24.18-15.11 4.49-30.95 5.91-46.65 6.41-15.11.39-30.32-.83-45.01-4.49-12.53-3.3-24.87-9.62-32.69-20.25-9.01-12.15-11.14-28.32-8.37-42.92 3.84-17.76 15.8-33.49 31.61-42.36m30.81 14.89c-9.05 3.64-15.23 12.43-16.88 21.88 18.95.01 37.91.01 56.87 0-.08-8.14-3.58-16.69-10.93-20.81-8.83-4.78-19.85-4.76-29.06-1.07zm-338.54-18.99c23.65-2.72 47.4-4.92 71.21-5.39 11.65.24 23.44.29 34.87 2.85 7.49 1.65 14.99 5.25 19.41 11.77 5.21 7.69 6.09 17.42 5.44 26.45-1.62 25.57-3.04 51.16-4.79 76.72-14.73-.03-29.46-.04-44.18.01 1.42-25.91 3.21-51.8 4.72-77.7.15-4.38-.66-9.48-4.43-12.23-4.39-3.02-9.97-3.15-15.1-3.13-8.1.01-16.19.8-24.21 1.88-1.78 30.33-3.74 60.65-5.34 90.98-14.82.4-29.65.05-44.47.18 2.08-37.48 4.54-74.93 6.87-112.39zm-357.64 111.86c2.91-38.75 5.72-77.5 8.68-116.25 15.81.05 31.62 0 47.44.03-2.82 38.72-5.75 77.43-8.57 116.16-15.85.17-31.7.05-47.55.06z" fill="#00999c"/></svg>