<svg xmlns="http://www.w3.org/2000/svg" width="48" height="48" viewBox="0 0 12.7 12.7"><g style="display:inline"><path d="M4.763 295.677h5.556v-4.498h1.058v-.529l-5.027-5.027-5.027 5.027v.53H2.38v4.497h.794" style="fill:none;fill-rule:evenodd;stroke:#000;stroke-width:.5291667;stroke-linecap:round;stroke-linejoin:round;stroke-miterlimit:4;stroke-dasharray:none;stroke-opacity:1" transform="translate(0 -284.3)"/></g><g style="display:inline"><path style="opacity:1;fill:none;fill-opacity:1;stroke:#000;stroke-width:1.99999988;stroke-linecap:round;stroke-linejoin:round;stroke-miterlimit:4;stroke-dasharray:none;stroke-dashoffset:0;stroke-opacity:1;paint-order:markers fill stroke" d="M31.304 20.472a6 6 0 0 0-7.335 2.218 6 6 0 0 0-5-2.69 6 6 0 0 0 0 12 6 6 0 0 0 5-2.69 6 6 0 0 0 5 2.69 6 6 0 0 0 5.528-8.335" transform="scale(.26458)"/></g></svg>