<svg xmlns="http://www.w3.org/2000/svg" width="2500" height="1100" viewBox="0 0 46.044 20.257"><g fill="#397db7"><path d="M28.379 14.793h5.426c1.267 0 2.76.509 2.76 2.522 0 2.187-1.364 2.754-2.76 2.754h-5.426v-1.056h1.036V15.85h-1.036v-1.057zm3.144 4.219h1.475c.869 0 1.346-.669 1.346-1.581 0-.79-.416-1.581-1.33-1.581h-1.49v3.162M13.982 14.616c.992 0 4.085.127 4.085 2.816 0 2.69-3.079 2.824-4.085 2.824-1.007 0-4.1-.12-4.1-2.824.001-2.665 3.108-2.816 4.1-2.816zm-1.764 2.817c0 1.303.798 1.766 1.764 1.766.981 0 1.764-.478 1.764-1.766 0-1.304-.798-1.766-1.764-1.766-.982 0-1.764.493-1.764 1.766M0 19.015h1.039v-3.161H0V14.79h4.174v1.064H3.137v1.043h3.182v-1.043H5.283V14.79h4.17v1.064H8.414v3.161h1.039v1.056h-4.17v-1.056h1.036v-1.076H3.137v1.076h1.037v1.056H0v-1.056M21.801 20.068h-3.306v-1.05h1.026l.001-3.169h-1.027v-1.057h4.165l2.95 3.958v-2.901h-1.031v-1.057h3.327l-.001 1.057h-1.026v4.219h-3.141l-2.957-3.965v2.915h1.02v1.05M46.044 19.018v1.051h-4.511v-1.051h1.049l-.403-.75h-2.781l-.398.75h1.04v1.051h-3.43v-1.051h1.035l1.809-3.168h-1.256v-1.057h4.366l2.454 4.226h1.026zm-4.395-1.738l-.863-1.618-.862 1.618h1.725M22.379 7.596c-.15 0-.301.008-.42.024-.565.076-.777.223-.976.598-.129.242-.388.975-.595 1.909a42.292 42.292 0 0 1-1.215-.06c-.141-1.312-.466-6.773-.475-8.647.229-.015.472-.035.74-.046.162.866.702 3.884 1.144 4.833.196.423.538.567.957.599a16.25 16.25 0 0 0 1.681 0c.418-.032.76-.176.956-.599.441-.949.981-3.966 1.144-4.833.268.012.512.031.74.046-.009 1.875-.333 7.335-.476 8.647-.362.024-.78.044-1.215.06-.207-.935-.466-1.667-.595-1.909-.198-.375-.41-.522-.976-.598a3.291 3.291 0 0 0-.419-.024"/><path d="M22.379 11.546c-1.127 0-3.703-.069-4.551-.228-.901-.169-1.509-.686-1.807-1.536-.255-.725-.443-2.071-.559-4.001-.072-1.209-.071-2.295.003-3.225.128-1.583.859-2.214 2.388-2.387C18.875.055 21.159 0 22.379 0s3.504.055 4.524.17c1.529.173 2.261.804 2.388 2.387.075.93.076 2.016.004 3.225-.115 1.93-.303 3.276-.558 4.001-.299.85-.906 1.366-1.809 1.536-.845.158-3.422.227-4.549.227zm4.421-.916a1.695 1.695 0 0 0 1.277-1.08c.16-.457.381-1.488.52-3.812.071-1.177.07-2.229-.003-3.127-.086-1.074-.628-1.618-1.769-1.747C25.831.752 23.584.7 22.379.7s-3.452.052-4.447.165c-1.14.129-1.682.673-1.769 1.747-.072.898-.072 1.95-.002 3.127.139 2.324.36 3.354.52 3.812.154.438.584.949 1.276 1.08.713.133 3.056.216 4.422.216s3.708-.083 4.421-.217"/></g></svg>