<svg xmlns="http://www.w3.org/2000/svg" width="2500" height="2500" viewBox="0 0 192.756 192.756"><g fill-rule="evenodd" clip-rule="evenodd"><path fill="#fff" d="M0 0h192.756v192.756H0V0z"/><path d="M61.711 107.064c-11.23 0-16.256-4.338-16.256-10.764 0-6.227 5.025-10.608 16.256-10.608 11.186 0 16.212 4.359 16.212 10.608 0 6.427-5.004 10.764-16.212 10.764zm73.535-.789l-19.926-.016.008-2.613s2.02-.238 2.842-.346c.82-.109 1.143-.807 1.139-1.58-.002-.773.01-9.693.01-10.598-.002-.905-.416-1.428-1.301-1.555-.887-.127-2.719-.311-2.719-.311v-2.795h19.947c9.051 0 12.965 4.403 12.965 9.652 0 5.826-3.914 10.162-12.965 10.162zm-56.436.071v-2.717s2.382-.264 2.755-.328c.899-.158 1.223-.754 1.222-1.693V91.229c0-1.011-.445-1.572-1.41-1.68-.311-.034-2.568-.295-2.568-.295v-2.797s13.832-.011 14.043-.01c.752.003 1.267.363 1.664.871.079.102 10.487 13.857 10.487 13.857s.004-8.895 0-9.833c-.002-.938-.33-1.635-1.283-1.752-.297-.037-2.693-.318-2.693-.318v-2.815h12.729v2.791s-2.232.241-2.697.314c-1.094.17-1.275.911-1.281 1.699-.004.79 0 15.086 0 15.086l-9.982-.002c-.662 0-1.32-.301-1.678-.76-.236-.303-10.556-13.957-10.556-13.957s-.005 9.207 0 10.119.449 1.475 1.258 1.572c.808.098 2.72.311 2.72.311v2.717H78.81v-.001zm-70.299-.004l-.007-2.654s1.628-.191 2.635-.314c1.007-.125 1.35-.771 1.351-1.908V91.372c.002-1.014-.251-1.721-1.321-1.883-.373-.057-2.656-.31-2.656-.31l-.001-2.727h15.912l-.015 2.711s-2.373.268-2.687.313c-.813.113-1.27.639-1.276 1.778v3.153h12.265v-3.083c.001-.987-.292-1.729-1.215-1.852s-2.77-.333-2.77-.333l.006-2.688h15.912l-.013 2.713s-1.9.223-2.74.327c-.839.104-1.228.751-1.226 1.816.001.187-.005 9.213 0 10.354.006 1.143.643 1.568 1.167 1.637s2.818.324 2.818.324l-.006 2.719H28.733l.014-2.727s2.423-.27 2.732-.33c1.086-.219 1.236-.957 1.232-1.861s0-3.039 0-3.039H20.446s-.009 1.846 0 3.186.639 1.719 1.248 1.805c.77.1 2.728.316 2.728.316l.002 2.65H8.511v.001zm130.559-9.963c0-5.003-2.023-6.117-6.871-6.117h-5.092v12.169h5.092c4.848.001 6.871-1.003 6.871-6.052zm-70.287-.012c0-5.159-2.579-6.855-7.094-6.855s-7.094 1.696-7.094 6.855c0 5.227 2.58 6.891 7.094 6.891s7.094-1.664 7.094-6.891zm90.592 9.983h-12.73v-2.715l2.705-.359c.949-.123 1.328-.879 1.436-1.049.109-.17 6.209-10.052 6.74-10.937s-.029-1.561-.725-1.685c-.486-.087-3.523-.399-3.523-.399l-.002-2.75h15.533c.973.027 1.572 1.12 1.572 1.12l8.924 13.651c.721 1.102 1.271 1.908 2.156 2.039.883.129 2.779.35 2.779.35l.012 2.73h-17.199l.016-2.697s1.133-.15 2.168-.285c1.037-.135 1.908-.584 1.049-1.846-.859-1.26-.838-1.248-.838-1.248l-12.191.027s-.379.57-.971 1.486c-.59.914.033 1.492.908 1.6l2.182.271v2.696h-.001zm.102-9.647l7.678.039-3.883-6.14-3.795 6.101z" fill="#cc2229"/></g></svg>