<svg height="1582" viewBox="0 0 82.12 51.96" width="2500" xmlns="http://www.w3.org/2000/svg"><g fill="#e52323"><path d="m9.47 43.59 1.25.15c.57.06.63.54.63.84v1.46h-5.76v-1.46c0-.3.06-.78.63-.84l1.25-.15v-1.25h-7.47v1.25l1.25.15c.57.06.63.54.63.84v4.84c0 .3-.06.78-.63.84l-1.25.15v1.25h7.46v-1.25l-1.25-.15c-.57-.06-.63-.54-.63-.84v-1.46h5.73v1.46c0 .3-.06.78-.63.84l-1.25.15v1.25h7.46v-1.25l-1.25-.15c-.57-.06-.63-.54-.63-.84v-4.84c0-.3.06-.78.63-.84l1.25-.15v-1.25h-7.46v1.25h.03zm49.71-1.25h-9.2v1.25l1.1.12c.39.06.66.21.66.75v4.93c0 .3-.06.78-.63.84l-1.25.15v1.25h9.32c3.34 0 6.09-1.34 6.09-4.66s-2.75-4.63-6.09-4.63m-.69 7.52h-3.14v-5.73h3.14c1.85 0 2.48.87 2.48 2.87s-.63 2.87-2.48 2.87"/><path d="m80.92 50.25c-.6-.06-.78-.45-.96-.72l-4.3-6.57c-.3-.48-.54-.63-.99-.63h-7.05v1.25l1.7.18c.24.03.57.36.3.78l-3.19 5.17c-.12.21-.3.45-.66.51l-1.25.15v1.25h5.94v-1.25l-1.02-.09c-.45-.06-.69-.36-.45-.72l.48-.78h5.73l.42.63c.39.57-.09.81-.51.84l-1.05.12v1.25h8.06v-1.25l-1.22-.12zm-10.45-3.11 1.76-2.87 1.88 2.87zm-27.15-3.55 1.25.15c.57.06.63.54.63.84v4.66l-4.93-6.51c-.21-.3-.42-.39-.96-.39h-6.39v1.25l1.25.15c.57.06.63.54.63.84v4.84c0 .3-.06.78-.63.84l-1.25.15v1.25h5.97v-1.25l-1.25-.15c-.57-.06-.63-.54-.63-.84v-4.66l4.93 6.48c.24.3.42.39.96.39h4.54v-7.08c0-.3.06-.78.63-.84l1.25-.15v-1.25h-5.94zm-18.42-1.58c-6.06 0-7.61 2.66-7.61 4.96s1.55 4.99 7.61 4.99 7.61-2.66 7.61-4.96-1.55-4.99-7.61-4.99m0 8.18c-2.36 0-3.31-.99-3.31-3.19s.99-3.19 3.31-3.19 3.31.99 3.31 3.19-.96 3.19-3.31 3.19m26.49-47.11c-1.02 4.57-1.43 6.69-2.27 9.97-.81 3.17-1.43 6.12-2.51 7.55-1.07 1.46-2.54 1.76-3.52 1.88-.51.06-.9.09-2 .09s-1.49-.03-2-.09c-.99-.12-2.45-.42-3.52-1.88-1.07-1.43-1.7-4.39-2.48-7.55-.84-3.31-1.25-5.4-2.27-9.97 0 0-1.02.03-1.46.06-.63.03-1.1.09-1.61.15 0 0 .6 9.41.87 13.41.27 4.18.78 11.26 1.22 16.6 0 0 .87.15 2.3.21 1.49.09 2.18.09 2.18.09.63-2.36 1.37-5.61 2.24-7.02.72-1.13 1.79-1.25 2.42-1.34.96-.12 1.79-.15 2.15-.15.39 0 1.19 0 2.15.15.63.09 1.7.21 2.42 1.34.87 1.4 1.64 4.66 2.24 7.02 0 0 .66 0 2.15-.09 1.43-.09 2.3-.21 2.3-.21.45-5.34.96-12.39 1.22-16.6.27-3.97.87-13.41.87-13.41-.51-.06-1.02-.12-1.61-.15-.45-.03-1.46-.06-1.46-.06"/><path d="m63.24 8.63c-.6-5.97-4.6-7.23-8.09-7.82-1.76-.3-4.9-.54-6.9-.63-1.76-.12-5.88-.18-7.14-.18s-5.37.06-7.14.18c-2 .09-5.14.33-6.9.63-3.49.6-7.49 1.85-8.09 7.82-.18 1.64-.21 3.76-.18 6.03.06 3.79.39 6.33.57 8.12.12 1.22.63 4.87 1.28 6.75.9 2.6 1.7 3.34 2.66 4.12 1.73 1.4 4.6 1.85 5.2 1.97 3.22.57 9.73.69 12.63.69s9.41-.09 12.63-.69c.6-.12 3.46-.54 5.2-1.97.96-.78 1.76-1.52 2.66-4.12.66-1.88 1.16-5.55 1.28-6.75.18-1.76.51-4.33.57-8.12-.03-2.3-.09-4.42-.24-6.03m-2.21 10.03c-.36 4.78-.78 7.64-1.37 9.7-.54 1.82-1.19 3.02-2.15 3.88-1.61 1.46-3.82 1.76-5.14 1.97-2.81.42-7.55.57-11.26.57s-8.45-.15-11.26-.57c-1.31-.21-3.52-.51-5.14-1.97-.96-.87-1.61-2.09-2.15-3.88-.6-2.06-1.05-4.93-1.37-9.7-.21-2.87-.18-7.52.15-10.03.45-3.76 2.3-5.64 6.27-6.33 1.85-.33 4.36-.57 6.72-.69 1.91-.12 5.02-.18 6.78-.18 1.73-.03 4.87.06 6.75.18 2.36.12 4.87.36 6.72.69 3.97.72 5.82 2.6 6.3 6.33.33 2.48.36 7.14.15 10.03"/></g></svg>