<svg xmlns="http://www.w3.org/2000/svg" width="2500" height="1511" viewBox="0 0 36.179 21.871"><path d="M27.932 2.152c1.822.997 3.884 2.75 3.669 5.087-.25 2.166-2.269 3.678-4.073 4.589-5.268 2.518-12.666 2.595-18.105.395-1.838-.765-3.901-2.08-4.674-4.056-.592-1.624.129-3.316 1.341-4.442C8.625 1.422 11.856.632 15.181.176c3.609-.438 7.407-.051 10.638 1.057.722.267 1.434.559 2.113.919zM33.905 16.641v5.23h-1.137v-1.504h-2.594v1.504h-1.137V17.77c0-.725.293-1.13 1.137-1.13h3.731z" fill="#397db7"/><path d="M32.768 17.601h-2.135c-.359.021-.458.11-.458.546v1.199h2.594v-1.745z" fill="#fff"/><path d="M27.9 17.77v2.83c0 .901-.506 1.271-1.137 1.271h-3.586v-5.23h3.586c.969-.001 1.137.614 1.137 1.129z" fill="#397db7"/><path d="M26.75 18.084c0-.286-.174-.484-.48-.484h-1.955v3.269h1.955c.446-.023.48-.29.48-.502v-2.283z" fill="#fff"/><path fill="#397db7" d="M0 16.64h1.137v2.061h2.544V16.64h1.137v5.23H3.681v-2.135H1.137v2.135H0zM6.767 16.64l1.425 2.137L9.6 16.64h1.381L8.76 19.983v1.887H7.623v-1.887L5.386 16.64zM17.363 16.64h3.664c.522 0 1.028.073 1.013 1.13v4.101h-1.137v-3.725c0-.451-.054-.546-.407-.546H18.5v4.271h-1.137V16.64zM35.042 16.641h1.137v5.23h-1.137zM11.549 21.87h3.664c.729 0 1.028-.211 1.013-1.262V16.64h-1.137v3.733c0 .448-.054.502-.408.502h-1.996V16.64h-1.137v5.23z"/><path d="M20.912 8.494c.207 1.065-.352 1.95-.816 2.81-.516.799-1.366 1.486-2.389 1.384a24.285 24.285 0 0 1-6.616-1.014.413.413 0 0 1-.241-.172c-.043-.12.018-.232.104-.309 1.899-1.538 4.159-2.251 6.393-2.999.833-.241 1.719-.499 2.655-.378.386.051.773.317.91.678zM28.74 3.94c1.065.876 2.028 2.071 1.701 3.514-.533 2.131-2.853 3.266-4.7 3.987-1.005.335-2.019.679-3.119.782-.069-.008-.181.009-.198-.094l.026-.12c1.563-1.762 2.749-3.738 3.789-5.74.481-.902.928-1.83 1.34-2.741a.457.457 0 0 1 .189-.129c.388.034.663.334.972.541zM13.746 1.671l-.035.129c-2.26 2.569-3.746 5.551-5.155 8.515-.275.258-.542-.086-.791-.197-1.254-.825-2.388-2.157-2.061-3.738.524-2.062 2.646-3.163 4.417-3.91a16.557 16.557 0 0 1 3.291-.894c.119.001.274-.016.334.095zM24.959 2.084c.129.068.284.094.361.223.069.146-.069.241-.146.335-1.779 1.392-3.815 2.165-5.895 2.844-1.057.257-2.123.722-3.3.464a1.096 1.096 0 0 1-.679-.516c-.292-.808.103-1.65.447-2.354.456-.885 1.263-1.925 2.38-1.942 2.407-.016 4.676.344 6.832.946z" fill="#fff"/></svg>