<svg xmlns="http://www.w3.org/2000/svg" width="2500" height="2500" viewBox="0 0 192.756 192.756"><g fill-rule="evenodd" clip-rule="evenodd"><path fill="#fff" d="M0 0h192.756v192.756H0V0z"/><path d="M2.919 109.426v-26.72h7.17v10.211h11.437V82.706h7.169v26.72h-7.169V98.618H10.089v10.808h-7.17zM30.722 82.706l11.352 16.083v10.637h7.169V98.789l11.266-16.083H52.23l-6.571 9.53-6.658-9.53h-8.279zM62.536 82.706v26.72h18.436c2.816 0 7.254-1.106 7.169-6.808V82.706h-7.169v18.04c0 2.042-1.109 2.808-3.158 2.808h-8.108V82.706h-7.17zM92.558 109.426v-26.72h18.436c2.816 0 7.254 1.106 7.168 6.808v19.912h-7.168v-18.04c0-2.042-1.109-2.808-3.158-2.808h-8.109v20.848h-7.169zM190.006 109.426v-26.72h-7.17v26.72h7.17zM141.188 82.706H122.58v26.72h18.607c3.5 0 7.17-1.957 7.17-6.808V88.833c0-2.723-.597-6.127-7.169-6.127zm0 18.295c0 .937-.256 2.213-2.049 2.298h-9.389V88.833h9.561c1.193 0 1.877.851 1.877 1.957v10.211zM159.432 82.706c-4.695 0-6.828 2.212-6.828 6.127v20.593h7.17v-6.468h11.266v6.468h7.17v-26.72h-18.778zm11.607 14.783h-11.266v-6.212c0-1.787.682-2.383 2.219-2.468h9.047v8.68z"/></g></svg>