<svg height="367" viewBox=".265 .265 48.6 6.685" width="2500" xmlns="http://www.w3.org/2000/svg"><path d="m18.931 1.209v1.828h-2.071v-1.827h-1.142v4.798h1.142v-1.93h2.072v1.93h1.143v-4.799zm5.328 0-1.195 1.9-1.193-1.9h-1.348l1.972 3.136v1.662h1.141v-1.662l1.972-3.136zm5.021 0v3.516c0 .134-.1.241-.242.241h-1.83v-3.756h-1.142v4.798h3.374c.3 0 .542-.09.718-.265.175-.176.264-.417.264-.716v-3.818zm5.575 0h-3.375v4.798h1.14v-3.76h1.834c.147 0 .24.116.24.24v3.52h1.142v-3.817c0-.3-.09-.542-.263-.717-.178-.176-.418-.264-.718-.264m5.414 0h-3.375v4.798h3.375c.3 0 .54-.09.715-.265.177-.176.265-.417.265-.716v-2.836c0-.3-.088-.542-.265-.717-.175-.176-.416-.264-.715-.264m-.161 1.287v2.222a.24.24 0 0 1 -.243.248h-1.831v-2.718h1.823c.15 0 .25.104.25.248m3.132-1.287c-.3 0-.542.088-.717.264-.176.177-.263.418-.263.717v3.817h1.138v-1.484h2.074v1.484h1.141v-4.798zm2.232 1.039v1.236h-2.074v-.994c0-.118.092-.243.244-.243zm2.252 3.759h1.142v-4.798h-1.142zm-40.932.943c3.605 0 6.528-1.497 6.528-3.342 0-1.847-2.923-3.343-6.528-3.343-3.604 0-6.526 1.495-6.526 3.343 0 1.845 2.922 3.341 6.526 3.341m1.23-1.64c-.11.253-.297.792-.727 1.007a1.11 1.11 0 0 1 -.436.1h-.066c-1.204 0-2.326-.168-3.264-.453l-.036-.014c-.087-.029-.131-.069-.131-.119 0-.042.023-.075.054-.106l.059-.052c.218-.18.87-.653 2.099-1.125.431-.164.971-.369 1.536-.489.331-.069 1.56-.257.911 1.252m3.298-3.37c.023-.04.054-.074.11-.077.03-.003.072.004.135.044.766.471 1.221 1.061 1.221 1.7 0 1.151-1.481 2.142-3.6 2.575-.136.027-.227.026-.257-.008-.022-.02-.028-.058 0-.104a.443.443 0 0 1 .056-.078c1.154-1.36 2.033-3.367 2.282-3.945.02-.04.038-.08.053-.107m-5.736-.042c.11-.252.297-.791.727-1.005.13-.065.292-.096.435-.1h.065c1.206 0 2.326.166 3.266.453.007.003.029.01.036.014.086.029.13.069.13.118 0 .043-.023.075-.053.105-.014.014-.033.03-.06.052-.216.182-.869.654-2.098 1.125-.433.165-.972.37-1.535.489-.332.07-1.562.258-.913-1.251m-1.182-.868c.136-.026.226-.026.259.008.02.022.025.058-.001.103a.484.484 0 0 1 -.057.078c-1.154 1.361-2.033 3.367-2.284 3.947-.018.04-.037.08-.053.106-.022.04-.053.075-.108.078-.03.003-.073-.006-.137-.045-.766-.47-1.219-1.06-1.219-1.699 0-1.152 1.48-2.143 3.6-2.575" fill="#002e6b"/></svg>