<?xml version="1.0" standalone="no"?><!DOCTYPE svg PUBLIC "-//W3C//DTD SVG 1.1//EN" "http://www.w3.org/Graphics/SVG/1.1/DTD/svg11.dtd"><svg t="1626616227481" class="icon" viewBox="0 0 1024 1024" version="1.1" xmlns="http://www.w3.org/2000/svg" p-id="2469" xmlns:xlink="http://www.w3.org/1999/xlink" width="200" height="200"><defs><style type="text/css"></style></defs><path d="M512 64a448 448 0 1 0 0 896A448 448 0 0 0 512 64z m0 820.032A372.032 372.032 0 0 1 512 139.968a372.032 372.032 0 0 1 0 744.064z" fill="#07c160" p-id="2470"></path><path d="M382.208 731.264V320H320v411.264h62.208z m144.576 0V571.136h106.56c98.496 0 148.032-42.048 148.032-126.144C781.376 361.472 732.416 320 634.496 320H464v411.264h62.784z m102.528-213.696H526.784v-144h102.528c30.528 0 52.992 5.76 67.392 17.28 14.4 10.368 21.888 28.8 21.888 54.144 0 25.344-7.488 43.776-21.312 55.296-14.4 11.52-36.864 17.28-67.968 17.28z" fill="#07c160" p-id="2471"></path></svg>