<svg xmlns="http://www.w3.org/2000/svg" width="2500" height="2500" viewBox="0 0 47.552 47.551"><g fill="#80AA21"><path d="M23.776 0C10.645 0 0 10.645 0 23.776s10.645 23.775 23.776 23.775 23.776-10.645 23.776-23.775C47.552 10.645 36.907 0 23.776 0zM13.02 25.118c3.045.016 7.516-.986 11.28 0 .048 3.094-.263 5.828-1.611 7.521-3.641-.419-5.71.735-9.132.537-.576-2.676-.037-4.576-.537-8.058zm4.834 16.652c10.196.385 12.735-8.659 10.743-18.801-7.821-2.378-18.161 2.385-24.171 0 1.191-3.781 7.6-2.148 11.817-2.148h13.966c.919.113 1.392-.918 1.61 0 3.346.414 8.514-.992 10.205 1.074-.945 4.905-6.354 1.354-9.667 1.074-.704 6.768 1.466 17.393-5.372 20.412-3.332.883-8.734 1.573-9.131-1.611zM13.02 11.69c-.538-4.915 4.232-1.191 7.52-2.148 1.328-.463-.155-3.738 1.075-4.298h1.611c.742.693.532 2.331.539 3.761 3.162.64 6.821-1.037 8.594 0-.05 3.352-5.974.827-8.594 1.611 1.905 3.464 5.843 4.898 8.056 8.056-.892.898-3.152.433-4.834.538-.871-2.529-2.471-4.336-3.761-6.445-2.266 2.486-7.09 10.07-10.743 5.907 2.08-2.931 8.241-1.787 8.057-6.981-1.865-1.48-5.314.037-7.52-.001z"/><path d="M21.614 29.954c.821-4.675-3.283-3.596-5.909-2.688v2.688c.967 1.498 4.942 1.498 5.909 0z"/></g></svg>