<svg width="82px" height="26px" viewBox="0 0 82 26" version="1.1" xmlns="http://www.w3.org/2000/svg"><title>iQIYI</title><g id="画板" stroke="none" stroke-width="1" fill="none" fill-rule="evenodd"><g id="logo-顶导"><rect id="矩形" fill="#D8D8D8" opacity="0" x="0" y="0" width="82" height="26"/><path d="M40.730699,25.553536 C40.730699,25.6709712 40.8335468,25.7660629 40.9604205,25.7660629 L46.4314792,25.7660629 C46.5583529,25.7660629 46.6612007,25.6709712 46.6612007,25.553536 L46.6612007,0.922970695 C46.6612007,0.805535552 46.5583529,0.710337902 46.4314792,0.710337902 L40.9604205,0.710337902 C40.8335468,0.710337902 40.730699,0.805535552 40.730699,0.922970695 L40.730699,25.553536 Z M0.508790868,25.553536 C0.508790868,25.6709712 0.611638638,25.7660629 0.738512321,25.7660629 L6.20957109,25.7660629 C6.33644478,25.7660629 6.43929255,25.6709712 6.43929255,25.553536 L6.43929255,10.0477555 C6.43929255,9.93032033 6.33644478,9.83522857 6.20957109,9.83522857 L0.738512321,9.83522857 C0.611638638,9.83522857 0.508790868,9.93032033 0.508790868,10.0477555 L0.508790868,25.553536 Z M24.3947744,20.3676149 C20.4314471,21.0880038 16.6121699,18.3688878 15.8809602,14.3064155 C15.1497505,10.2438372 17.7792181,6.35269945 21.7425454,5.63231056 C25.7058728,4.91202756 29.52515,7.63103764 30.2563597,11.6936159 C30.9875694,15.7560882 28.3581018,19.647226 24.3947744,20.3676149 Z M37.1201838,21.5332831 L34.4135803,19.3501966 C34.3577306,19.3051922 34.3213756,19.2433508 34.3074659,19.176956 C34.2934508,19.1104553 34.3017755,19.0394012 34.3353908,18.9758655 C35.6298395,16.5317532 36.1463967,13.6516801 35.6185642,10.7189783 C34.3684791,3.7734679 27.7362732,-0.835729119 20.8051133,0.424077827 C13.8739534,1.68377888 9.26867052,8.33554261 10.5187557,15.281053 C11.7688408,22.2264576 18.4010467,26.8356546 25.3322066,25.5759535 C27.259127,25.2256601 29.0057477,24.458043 30.4972511,23.3837603 C30.6074752,23.3044465 30.7560565,23.3068821 30.8617495,23.3921258 L33.7649861,25.7338397 C33.863408,25.8132594 34.0091441,25.7951517 34.0903897,25.6933887 L37.15127,21.8613391 C37.2325155,21.7595761 37.2186057,21.6127027 37.1201838,21.5332831 Z M81.7702785,0.710390848 L76.2992198,0.710390848 C76.1723461,0.710390848 76.0694983,0.805588498 76.0694983,0.922917749 L76.0694983,25.553589 C76.0694983,25.6709182 76.1723461,25.7661159 76.2992198,25.7661159 L81.7702785,25.7661159 C81.8971522,25.7661159 82,25.6709182 82,25.553589 L82,0.922917749 C82,0.805588498 81.8971522,0.710390848 81.7702785,0.710390848 Z M3.47406278,0.219238745 C1.55536177,0.219238745 0,1.78221685 0,3.71031342 C0,5.63840998 1.55536177,7.20138809 3.47406278,7.20138809 C5.3927638,7.20138809 6.94812556,5.63840998 6.94812556,3.71031342 C6.94812556,1.78221685 5.3927638,0.219238745 3.47406278,0.219238745 Z M73.1731639,0.710390848 L67.3432971,0.710390848 C67.242873,0.710390848 67.1504575,0.761642976 67.1032487,0.843815808 L61.6862482,10.5227377 C61.6862482,10.5227377 61.656639,10.5774628 61.6129513,10.5921373 L61.5934113,10.5956979 C61.5528675,10.594586 61.5209779,10.5541019 61.507567,10.5339293 L61.5006797,10.5227377 L61.5006797,10.5227377 L56.0836792,0.843815808 C56.0364704,0.761642976 55.9440549,0.710390848 55.8435255,0.710390848 L50.013764,0.710390848 C49.8578063,0.710390848 49.6786657,0.871877407 49.8068039,1.11288948 L58.4715178,15.7632678 C58.5544494,15.9047406 58.5981807,16.0659095 58.5981807,16.2301492 L58.5981807,25.51102 C58.5981807,25.6518575 58.7117769,25.7661159 58.8520335,25.7661159 L64.3348945,25.7661159 C64.4750456,25.7661159 64.5887472,25.6518575 64.5887472,25.51102 L64.5887472,16.2301492 C64.5887472,16.0659095 64.6324786,15.9047406 64.7154101,15.7632678 L73.380124,1.11288948 C73.5081568,0.871877407 73.3290162,0.710390848 73.1731639,0.710390848 Z" id="形状" fill="#00DC5A"/></g></g></svg>