<svg height="2114" viewBox="-2.584 -4.06 1225.085 1034.06645326" width="2500" xmlns="http://www.w3.org/2000/svg"><g fill="#42bc56"><path d="m4.983 875.693s-7.567-46.073-2.646-55.853c4.368-8.735 72.524-12.918 102.85-9.473 9.903 1.107 15.255 12.302 18.453 22.698 9.596 30.756 32.233 45.212 63.297 49.948a2834.623 2834.623 0 0 0 335.428 29.957 2857.506 2857.506 0 0 0 513.2-31.31c29.771-4.429 51.978-14.825 60.282-46.996 4.736-18.454 19.745-28.234 39.245-28.542s40.783 0 61.512.493 25.836 7.873 25.897 27.188c0 4.49-3.137 23.129-3.137 23.129s0 1.722-5.352 25.528c-13.901 52.47-47.856 83.288-100.327 96.636-86.732 22.021-175.372 29.956-264.012 36.477a3219.815 3219.815 0 0 1 -597.533-12.303 1175.444 1175.444 0 0 1 -141.91-24.359c-54.253-12.979-93.252-45.211-105.062-103.218m1213.336-662.367c0 10.58-75.968 11.687-95.16 7.32-16.793-3.753-21.776-17.1-28.542-30.142a72.462 72.462 0 0 0 -57.084-41.151c-237.746-32.664-475.923-45.397-715.083-14.825q-65.388 8.304-131.022 14.455c-31.126 2.769-52.655 9.535-66.126 45.458-8.243 22.022-24.605 30.203-47.796 31.433s-48.164 4.675-71.108-14.148c-5.044-16.116-3.875-34.016-3.875-49.763 3.874-57.084 36.906-96.883 95.466-112.568 62.497-16.609 126.593-24.605 190.69-32.418 174.694-21.037 345.207-19.56 525.069-10.703 94.853 4.675 175.865 9.596 283.512 34.078 83.411 19.008 120.995 42.136 120.995 173.097m2.153 110.169q-.369 198.255 0 396.51c0 11.195 1.723 22.513-1.66 33.586-6.705 23.62-26.143 22.452-44.659 22.698-70.309.984-73.446-2.03-73.446-71.109v-387.529c0-53.27 6.151-59.175 60.652-59.114 24.605 0 57.083 1.538 58.375 24.975m-331 144.677c14.272-45.642 26.513-84.58 38.57-123.517s21.037-45.642 61.512-46.012c77.875-.8 79.29 1.046 53.516 72.831-23.867 65.388-46.442 131.084-71.785 195.856s-17.04 131.207-18.454 197.394c-.923 42.136-9.658 52.286-51.67 54.5a118.78 118.78 0 0 1 -21.284-1.783c-50.44-6.52-51.425-7.628-47.365-56.777 8.058-97.62-20.914-187.859-54.438-277.36-18.454-49.763-35.616-100.142-53.64-150.152-8.304-23.006.8-33.278 23.683-33.463 93.13-.738 85.01-11.503 111.953 74.8 8.98 28.972 18.146 57.883 29.403 93.683zm-212.71 92.823c0 71.662-.86 143.324.43 214.986.493 27.312-9.78 38.876-36.907 40.598-81.934 5.352-85.748 2.338-85.748-79.043v-390.052c0-41.644 6.151-47.61 47.672-48.656 72.892-1.784 75.291.738 74.553 74.553-.492 62.436 0 124.87 0 187.306z"/><path d="m494.315 782.194c-35.985-14.64-20.607-36.354-8.796-60.59a85.687 85.687 0 0 0 7.135-29.28c6.705-119.765 4.306-237.254-.676-356.773-1.538-36.6-21.96-61.512-55.915-73.507-60.406-21.591-121.98-25.405-183.8-6.152-54.685 16.978-72.83 41.521-73.261 98.79-.431 51.24 0 102.541 0 165.407 2.83 53.823-4.183 119.457 3.875 184.907 4.736 38.753 25.958 61.512 62.435 70.432 30.756 7.689 61.882 14.64 93.93 13.963a43.92 43.92 0 0 1 39.306 19.069c26.943 36.17 67.664 37.646 104.264 28.173 26.205-7.136 29.157-47.304 11.503-54.439zm-125.732-264.689h-.676v156.796c0 23.436-4.122 45.396-33.217 45.027-26.081-.307-33.401-20.114-33.463-43.059v-319.865c0-23.129 9.412-36.908 34.386-37.277 26.389 0 32.909 16.363 32.97 38.2zm-337.58-254.231h54.623q31.002 0 31.002 31.002v58.745q0 31.002-31.002 31.002h-54.624q-31.002 0-31.002-31.002v-58.745q0-31.002 31.002-31.002zm50.132 513.138h-48.287a32.417 32.417 0 0 1 -32.294-32.294v-298.336a32.417 32.417 0 0 1 32.294-32.294h48.287c32.294 0 32.294 9.226 32.294 32.294l1.784 298.705a33.647 33.647 0 0 1 -34.078 31.925z"/></g></svg>