<svg xmlns="http://www.w3.org/2000/svg" viewBox="0 0.19999980926513672 101.19999694824219 24.788551330566406"><g xmlns="http://www.w3.org/2000/svg"><g><g><g><rect x="0" y="0.2" class="st0" width="4" height="4"/><rect x="0" y="8.2" class="st0" width="4" height="16.4"/><path class="st0" d="M16,12.4c0-4.5,3.7-8.2,8.2-8.2c4.5,0,8.2,3.7,8.2,8.2h4c0-6.7-5.5-12.2-12.2-12.2        C17.4,0.2,12,5.7,12,12.4c0,6.7,5.5,12.2,12.2,12.2h0v-4l0,0C19.7,20.6,16,16.9,16,12.4z"/><path class="st0" d="M56.6,0.2c-6.7,0-12.2,5.5-12.2,12.2c0,6.7,5.5,12.2,12.2,12.2c6.7,0,12.2-5.5,12.2-12.2        C68.8,5.7,63.3,0.2,56.6,0.2L56.6,0.2z M56.6,20.6L56.6,20.6c-4.5,0-8.2-3.7-8.2-8.2c0-4.5,3.7-8.2,8.2-8.2        c4.5,0,8.2,3.7,8.2,8.2C64.8,16.9,61.1,20.6,56.6,20.6z"/><path class="st0" d="M89,0.2c-6.7,0-12.2,5.5-12.2,12.2c0,6.7,5.5,12.2,12.2,12.2c6.7,0,12.2-5.5,12.2-12.2        C101.2,5.7,95.7,0.2,89,0.2L89,0.2z M89,20.6L89,20.6c-4.5,0-8.2-3.7-8.2-8.2c0-4.5,3.7-8.2,8.2-8.2c4.5,0,8.2,3.7,8.2,8.2        C97.2,16.9,93.5,20.6,89,20.6z"/><rect x="28.3" y="11.5" transform="matrix(0.7089 -0.7053 0.7053 0.7089 -4.2712 26.8007)" class="st0" width="4" height="14.1"/></g></g></g></g></svg>