<?xml version="1.0" encoding="iso-8859-1"?>
<!-- Generator: Adobe Illustrator 19.0.0, SVG Export Plug-In . SVG Version: 6.00 Build 0)  -->
<svg version="1.1" id="Capa_1" xmlns="http://www.w3.org/2000/svg" xmlns:xlink="http://www.w3.org/1999/xlink" x="0px" y="0px"
     viewBox="0 0 512.009 512.009" style="enable-background:new 0 0 512.009 512.009;" xml:space="preserve">
<path style="fill:#455A64;" d="M511.92,341.343c-0.074,21.476-10.883,41.493-28.8,53.333H28.72
	c-29.455-19.538-37.495-59.255-17.957-88.711c11.823-17.824,31.768-28.564,53.157-28.623h384
	C483.222,277.448,511.814,306.04,511.92,341.343z"/>
  <path style="fill:#607D8B;" d="M511.92,448.009c-0.105,35.302-28.698,63.895-64,64h-384c-35.346-0.098-63.921-28.831-63.823-64.177
	c0.059-21.389,10.799-41.334,28.623-53.157h454.4C501.037,406.517,511.846,426.533,511.92,448.009z"/>
  <path style="fill:#FFC107;" d="M75.013,469.343c-5.891,0-10.667-4.776-10.667-10.667c-0.001-5.809,4.646-10.551,10.453-10.667h0.213
	c5.891,0,10.667,4.776,10.667,10.667S80.904,469.343,75.013,469.343z"/>
  <path style="fill:#4CAF50;" d="M447.92,469.343c-11.782,0-21.333-9.551-21.333-21.333c0-11.782,9.551-21.333,21.333-21.333
	s21.333,9.551,21.333,21.333C469.253,459.792,459.702,469.343,447.92,469.343z"/>
  <g>
	<path style="fill:#FFC107;" d="M117.68,469.343c-5.891,0-10.667-4.776-10.667-10.667c-0.001-5.809,4.646-10.551,10.453-10.667
		h0.213c5.891,0,10.667,4.776,10.667,10.667S123.571,469.343,117.68,469.343L117.68,469.343z"/>
    <path style="fill:#FFC107;" d="M75.013,362.676c-5.891,0-10.667-4.776-10.667-10.667c-0.001-5.809,4.646-10.551,10.453-10.667
		h0.213c5.891,0,10.667,4.776,10.667,10.667C85.68,357.901,80.904,362.676,75.013,362.676z"/>
</g>
  <path style="fill:#4CAF50;" d="M447.92,362.676c-11.782,0-21.333-9.551-21.333-21.333s9.551-21.333,21.333-21.333
	s21.333,9.551,21.333,21.333S459.702,362.676,447.92,362.676z"/>
  <path style="fill:#FFC107;" d="M117.68,362.676c-5.891,0-10.667-4.776-10.667-10.667c-0.001-5.809,4.646-10.551,10.453-10.667h0.213
	c5.891,0,10.667,4.776,10.667,10.667C128.346,357.901,123.571,362.676,117.68,362.676L117.68,362.676z"/>
  <path style="fill:#409EFF;" d="M367.258,78.239c-21.384-47.857-69.034-78.55-121.451-78.229
	c-67.861-0.81-125.027,50.505-131.52,118.059c-34.577,4.507-60.584,33.742-61.035,68.608c0.585,38.815,32.48,69.832,71.296,69.333
	h242.517c49.797,0.665,90.736-39.101,91.52-88.896C457.791,117.403,416.972,77.681,367.258,78.239z"/>
  <g>
</g>
  <g>
</g>
  <g>
</g>
  <g>
</g>
  <g>
</g>
  <g>
</g>
  <g>
</g>
  <g>
</g>
  <g>
</g>
  <g>
</g>
  <g>
</g>
  <g>
</g>
  <g>
</g>
  <g>
</g>
  <g>
</g>
</svg>
