<svg xmlns="http://www.w3.org/2000/svg" width="2500" height="1190" viewBox="11.238 10.874 994.856 473.585"><path d="M11.238 484.459h994.856V10.874H11.238v473.585z" fill="#ab182f"/><path d="M795.783 316.001c17.622-.053 39.723-4.964 57.164-10.76l-10.426 44.805c-21.877 4.347-46.445 8.06-75.301 8.177-90.18.395-128.986-45.934-129.114-94.015-.208-64.371 68.983-128.613 180.429-127.063 23.641.32 46.157 4.555 61.312 9.498l-14.739 52.843h-7.474c-9.216-12.05-23.215-21.185-50.835-21.185-56.481 0-91.427 30.912-91.319 72.121.107 37.299 32.281 65.713 80.303 65.579M469.93 139.183l-3.521 14.005s21.371 2.338 14.813 23.646L432.63 353.459l97.146.165 3.654-15.182s-18.164-4.4-13.444-21.147c.378-1.545 14.26-52.428 14.26-52.428l44.538-.074c22.171.117 29.506 11.612 29.506 11.612l12.913-52.449H546.17l11.16-41.198 65.186-.075c11.996 0 20.396 8.044 20.396 13.909h7.378l14.377-57.408-194.737-.001zm-73.671 182.744c-5.737-6.158-55.741-84.097-55.741-84.097l91.421-73.16c15.395-12.854 26.331-11.49 26.331-11.49l3.58-14.095-113.715.091-3.494 14.005c7.729.522 18.527 7.431 9.685 15.618-1.098 1.028-91.341 69.938-91.341 69.938l19.417-70.353c4.017-13.589 18.612-15.203 18.612-15.203l3.558-14.053-108.567.054-3.484 14.037c5.173 1.3 19.987 4.149 14.83 23.641-36.229 130.983-32.03 117.949-34.476 125.14-9.913 37.826-25.862 35.904-31.658 36.298l-3.744 15.161H251l3.83-15.348s-18.043-3.623-14.585-16.593c3.409-12.849 17.664-64.402 17.664-64.402 19.646 31.609 24.253 35.498 47.937 68.114 23.699 32.617 49.061 28.303 116.196 28.324l3.729-15.097c-14.329.069-23.763-10.377-29.511-16.524" fill="#fff"/></svg>