<svg xmlns="http://www.w3.org/2000/svg" width="2480" height="2500" viewBox="4.705 2.509 292.876 295.295"><path d="M151.146 4.931c-3.52 0-10.387.368-10.667.385 1.331.355-102.726 53.74-102.726 53.18-.032.181-.081.331-.176.449-20.628 25.234-32.872 57.29-32.872 92.426 0 28.958 8.437 55.93 22.944 78.656.098-.053 36.938 35.63 36.487 39.123 24.333 18 54.419 28.653 87.006 28.653 11.381 0 22.438-1.344 33.08-3.795a118.666 118.666 0 0 1-.529-3.446l-1.922-13.5c-.58-3.693-3.604-28.793-3.604-28.793l-.011-.074 3.22-1.236s4.231.175 4.127.188c0 0 4.291 25.244 5.037 29.623l.808 4.636c.311 1.866.574 3.718.959 5.636.271 1.595.51 3.124.746 4.646 3.471-1.043 6.891-2.2 10.246-3.482-.51-2.869-1.064-5.826-1.111-6.264l-1.729-10.27c-2.284-10.595-3.739-18.454-4.808-23.682-.151-.751-.436-2.086-.436-2.086l3.305-1.322 4.36.34s5.562 24.34 6.951 31.699l1.586 8.193c2.983-1.35 5.937-2.775 8.806-4.318l-.918-4.204c-.098-.407-.203-.896-.328-1.44-1.869-8.222-6.828-31.125-6.828-31.125l3.978-1.562 3.886.547h.018s4.992 21.114 8.23 33.131c5.562-3.452 10.891-7.243 15.915-11.387 0 0 46.373-69.416 46.705-69.187 4.347-13.857 6.701-28.604 6.701-43.899C297.58 70.496 232.018 4.931 151.146 4.931z" fill="#a3080c"/><path d="M187.834 77.833s-18.29-34.49-25.751-39.667c-7.452-5.177-19.735-8.409-28.25-7.333-10.781 1.361-35.439 14.41-37.078 14.841.012.126-9.187 11.473-11.589 23.159-.534 2.597-10 44-10 44l18 52 64.146 30.604 23.521-25.604s3.001-25.333 9.334-44.333 4.333-29.333 4.333-29.333l-6.666-18.334z" fill="#fff1e2"/><path d="M114.01 210.609zM109.271 111.341c-1.018.58-1.771.716-2.241.966-.471.257-1.214.809-1.03 1.796.194.992.466 1.314.561 2.079.09.757-.274 2.129-1.154 3.687-.866 1.562-2.252 2.69-3.039 3.147-.774.463-1.249.588-1.689.82-.1.046-.19.285-.28.765l-.009.009a.756.756 0 0 1 .204-.118c.169-.072.517-.081.83-.139.303-.056.526-.127.637-.142.118-.014.82-.113.938-.139.118-.023 2.245-.468 3.563-1.075 1.311-.61 3.613-1.72 4.932-3.314.969-1.167 2.136-3.292 2.25-5.401.027-.436.022-.707.022-.707s.005 0 .005-.005c.015 0 .028-.004.042-.004a.93.93 0 0 1-.563-.208c-.353-.276-.638-.48-1.72-1.636-.696-.746-.648-1.293-.271-1.918-.009.014-.025.028-.035.042-.322.3-.948.916-1.953 1.495M163.049 104.448s-.594.051-.798.141c-.162.067-.468.181-.677.461-.209.285-.256.783.181 1.318.444.533 1.058 1.529 1.007 2.382-.033.375.021 1.601-.375 2.484-.445 1.001-.959 1.988-1.312 2.433-.204.262-1.146 1.304-1.284 2.042-.037.155 0 .327.073.489 0 0 .011-.009.011.004-.005.005 0 .014-.005.023a.473.473 0 0 1 .088-.167c.234-.264.714-.531 1.548-.788 1.106-.35 1.892-.767 2.503-1.233-.074.086-.093.186-.14.285.063-.153.135-.304.272-.424.328-.283 4.668-3.196 4.779-7.899.042-1.766-2.249-1.999-3.203-2.031-.709-.03-2.045.62-2.609.483-.01-.004-.026-.019-.047-.023.01 0 .01.004.01.004-.001.011-.018.011-.022.016M116.833 136.916s17.25 5.334 25.5-4.25c8.25-9.583 22.5 5.084 23.416 9.417.918 4.333-21.416 16.333-28.166 16.583s-33.5-3.333-33.5-6.083 12.75-15.667 12.75-15.667zM187.625 68.375c-2.743-29.092-16.129-43.673-25.75-50.75-10.111-6.662-34.164-12.53-45.5-12C103 6.25 72.112 20.839 70.917 21.917c-1.139 1.039-21.854 35.677-19.292 41.865 2.562 6.188 6.192 35.413 7.375 37.76.36.703 6.269 19.743 10.167 19.042 3.929-.707 7.592-18.072 7.417-19.417-.5-3.833-7.457-21.106-6.917-23.542.547-2.429 19.128-31.52 20.458-32.542.938-.714 32.811-4.678 32.996-4.37-.004-.009-.004-.019-.017-.028l-.004-.005c2.228-1.942 7.395-7.061 12.012-6.877 4.613.19 17.802 1.838 25.253 7.021 7.462 5.177 9.766 10.245 10.398 11.663-.004 0-.014.007-.019.007.25.037 10.629 23.631 13.671 23.715 2.03.055 3.544-4.337 3.21-7.834zM174.713 87.718c-1.107.129-4.134.405-4.468.447-.595.077-.579.413-.542.665.031.26.125 1.256.16 1.685.037.426.482.676.939.639.459-.032 3.354-.294 3.785-.361.422-.069.84-.426.834-.767-.009-.343-.004-1.249-.009-1.615-.01-.369-.282-.74-.699-.693M54.274 226.835c.575.125 1.188.265 1.78.403-1.323-.307-2.762-.621-3.587-.825-.408-.103-1.05-.162-1.793-.147-1.24.027-2.771.271-4.007.892-1.563.776-11.493 5.812-15.655 7.914a147.622 147.622 0 0 0 15.908 19.141c.364-1.501 6.873-8.331 7.789-12.334 1.254-5.486-1.867-12.727-.435-15.044M220.016 242.717l-7.848 1.012s5.645 26.063 7.156 32.564l.91 4.204c2.73-1.47 5.4-3.022 8.022-4.653-3.243-12.017-8.235-33.127-8.235-33.127h-.005z" fill="#fff"/><g fill="none"><path d="M172.609 223.619l-.789-2.248h-.902v3.15h.574v-2.535l.876 2.535h.505l.867-2.535v2.535h.578v-3.15h-.903zM167.706 221.898h1.028v2.623h.621v-2.623h1.03v-.527h-2.679z"/></g><path d="M265.486 138.438c-3.963 2.994-6.157 7.038-6.145 11.085.018 5.999 4.87 11.776 16.112 11.739a45.938 45.938 0 0 0 7.487-.681 45.762 45.762 0 0 0 1.9-.349l1.307-5.584c-2.178.728-4.93 1.33-7.137 1.34-5.986.019-10-3.531-10.01-8.187-.01-2.48 1.01-4.66 2.854-6.254 1.976-1.708 4.887-2.741 8.527-2.741 2.883 0 4.569.797 5.719 1.935.231.223.444.457.631.702h.938l1.835-6.59c-1.892-.624-4.694-1.149-7.651-1.182-6.884-.091-12.478 1.829-16.367 4.767M256.111 139.354c.808 0 1.479.294 1.929.679.386.327.616.716.616 1.052h.923l1.788-7.156h-24.295l-.354 1.4-.084.34s2.659.299 1.844 2.957l-6.064 22.034 10.314.02h1.81l.459-1.892s-2.269-.547-1.675-2.642c.027-.131.882-3.265 1.392-5.146.228-.812.39-1.396.39-1.396l5.553-.004c.908 0 1.604.167 2.142.375 1.112.426 1.539 1.072 1.539 1.072l1.61-6.548h-9.359l1.012-3.74.379-1.395 8.131-.01zM226.592 156.727c-.72-.77-6.962-10.493-6.962-10.493l11.039-8.835.366-.294a7.621 7.621 0 0 1 1.365-.917c1.174-.603 1.93-.517 1.93-.517l.443-1.761-14.189.021-.354 1.395-.084.345c.965.067 2.311.929 1.211 1.956-.145.123-11.404 8.727-11.404 8.727l.088-.304 2.341-8.481c.495-1.694 2.315-1.898 2.315-1.898l.445-1.745-13.547.004-.348 1.396-.09.345c.648.167 2.498.526 1.857 2.957-4.521 16.338-4.004 14.721-4.31 15.611-1.013 3.873-2.53 4.406-3.442 4.505-.199.019-.371.019-.496.026l-.187.731-.287 1.158H208.46l.474-1.918s-2.248-.445-1.82-2.067a1051 1051 0 0 1 1.287-4.708c.486-1.771.916-3.323.916-3.323 2.457 3.939 3.023 4.425 5.988 8.495 2.729 3.765 5.646 3.589 12.688 3.54.573-.004 1.168-.009 1.808-.009l.469-1.882c-1.784.011-2.965-1.292-3.678-2.06M293.398 134.391a1.739 1.739 0 0 0-1.27-.517c-.49 0-.908.172-1.261.517a1.726 1.726 0 0 0-.521 1.263c0 .498.176.92.521 1.271.344.346.771.526 1.261.526.501 0 .918-.181 1.27-.526.35-.352.524-.774.524-1.271a1.691 1.691 0 0 0-.524-1.263m-.173 2.359a1.485 1.485 0 0 1-1.095.457c-.426 0-.788-.153-1.084-.457a1.501 1.501 0 0 1-.45-1.096c0-.422.153-.788.45-1.087a1.47 1.47 0 0 1 1.084-.456 1.5 1.5 0 0 1 1.095.456c.297.299.444.665.444 1.087 0 .43-.148.797-.444 1.096" fill="#fff"/><path d="M292.941 135.231c0-.246-.106-.412-.303-.498a1.745 1.745 0 0 0-.537-.065h-.687v1.963h.339v-.776h.271c.189 0 .314.023.396.065.116.076.181.225.177.452v.151l.014.067v.023s0 .009.011.019h.319l-.006-.028c-.019-.014-.019-.046-.027-.1v-.29c0-.1-.036-.209-.109-.309-.064-.101-.188-.167-.334-.19a.662.662 0 0 0 .282-.095.442.442 0 0 0 .194-.389m-.546.344a.921.921 0 0 1-.318.037h-.319v-.707h.292c.193-.004.338.022.426.072.084.046.131.146.131.29a.32.32 0 0 1-.212.308M273.5 189.501c-18.667-5.667-57-4.333-57-4.333l31.333 73.833s2.901-1.455 3.265-.661c16.998-15.892 30.197-35.764 38.112-58.146-.624-.48 2.957-5.026-15.71-10.693z" fill="#fff"/><path fill="none" d="M174.318 221.751v-.38h-.31z"/><path fill="none" d="M174.318 221.751v-.38h-.31z"/><path d="M209.842 276.622c-1.398-7.358-6.966-31.699-6.966-31.699s7.392-1.942 9.124-6.173c1.732-4.229-2.189-10.745-2.375-13.312-.801-7.666-3.812-39.063-8.75-45.563-2.875-3.785-16.096-11.253-17.125-11.208-4.75.208-14.25 20.896-22.188 22.771-5.291 1.25-9.029-3.897-8.172-3.509-.016-.011-.033-.02-.043-.028 0 0 .01-.592-.875-3.373-.886-2.791-2.74-5.719-3.083-6.381-.333-.664-1.339-2.109-1.374-2.275-.028-.163-.394-1.094-.653-2.79-.493-3.272-.267-5.464-.248-5.663.01-.2.101-.793.128-.913.021-.126-.028-.339-.179-.376-.158-.027-.58-.13-1.021.324-.92.928-.962 1.104-.979 1.261-.032.147.063.427.035.751-.1 1.029-.28 1.816-.741 2.567-.459.76-.758 1.021-1.408.959-.661-.06-1.211-.584-1.291-1.941-.086-1.356-.353-1.821-.625-2.141-.271-.334-.889-.487-1.1-.474-.208 0-.382.186-1.812.537-1.418.36-3.672.481-4.004.495-.339.021-1.576.146-1.585.148.259.968-5.198-.521-6.116.216-1.875 1.5-2.751 11.24-3.667 16.291l-.002.016L92 188.25l-10.75 25s3.25 49.5 3.25 50.25 68-14.75 68-14.75l25.654-.555s.007.019.012.067c.182 1.479 3.025 25.104 3.604 28.804l1.924 13.49c.158 1.146.334 2.305.527 3.447 2.977-.688 5.924-1.45 8.83-2.32-.236-1.521-.48-3.056-.746-4.641-.382-1.923-.646-3.771-.955-5.641l-.814-4.635c-.742-4.375-5.042-29.613-5.042-29.613l4.507-2.846 5.217 1.594c.139.641.277 1.334.436 2.086 1.07 5.236 2.529 13.088 4.807 23.673l1.729 10.278c.047.437.604 3.394 1.117 6.267a150.949 150.949 0 0 0 8.11-3.394l-1.575-8.189z" fill="#fff"/><g fill="#f5d4b7"><path d="M158.875 89.083c-5.667.833-13.917 5.458-13.542 8.833.231 2.092 12.05 2.412 17.375 2.792s6.204-4.739 5.918-7.521-3.787-4.98-9.751-4.104zM197.547 179.938c-2.812-.293-1.506 4.268-1.539 4.729v.009a221.787 221.787 0 0 1 3.518 15.567c.012.478.047.897.106 1.237.403 2.111 1.237 8.938 2.841 24.356.371 5.136.695 10.492.909 14.997.146-.01 9.618.539 9.618.539s-.375-13.25-3.312-29.875c-2.939-16.623-7.344-31.059-12.141-31.559zM172.007 138.188c.427-2.345-.062-3.504-.829-4.875-.756-1.367-2.216-2.646-4.104-3.886-1.824-1.214-5.949-4.854-6.35-5.198-.39-.336-2.316-2.157-2.762-2.519-.464-.357-1.363-1.105-3.337-2.106-4.783-2.412-8.629-.607-8.778-.524-.146.082-.856.656-1.536 1.302-.67.635-.167 1.863.09 2.311 0 0 25.384 18.607 25.435 19.041l.019.014s1.799-1.644 2.152-3.56M161.505 115.271c-.834.257-1.313.523-1.548.788-.046.053-.064.111-.083.167-.021.044-.021.09-.021.134v.102c.01.044.027.081.037.121.022.046.047.095.074.141.02.03.037.063.062.095.037.058.09.113.141.171.021.028.047.051.074.077a3.548 3.548 0 0 0 .274.25c.09.077.182.148.273.225.02.009.027.019.047.033.111.081.223.155.334.231.004.005.01.005.014.009.125.081.246.158.361.234.125.074.301.113.516.118a3.48 3.48 0 0 0 .724-.067c.89-.176 2.028-.625 2.993-1.087 0 .005-.01 0-.02.005-.056.019-1.82-2.894-1.752-2.98-.609.466-1.388.883-2.5 1.233M127.421 132.678c.07.028.132.069.204.097-.009-.009-.015-.014-.02-.023-.361-.375-.389-.459-.515-.969-.137-.531-.484-1.182-.63-1.55-.157-.371-.855-1.629-1.124-2.444-.268-.816-.389-1.314-.443-2.132-.208-.617-.366-1.845-.271-2.955.081-.982.299-2.113.922-5.292.422-2.088-.239-4.493-.262-6.72-.02-1.717-.189-5.937-.143-10.184v-.014c-.294.1-38.097-8.01-37.831-8.05.005 0 .015-.005.023-.005.299-3.13.118-7.341-.051-10.534.979-9.591 2.453-20.693 5.842-28.094 2.619-5.691 2.269-3.816 3.563-6.498.072-.144.167-.313.182-.512.014-.134-.096-.887-.118-1.126v-.009c-.077.023-9.29-2.557-20.753 23.752C71.198 80.438 77.583 108 77.583 108l9.979 3.313 6.5-3.531 15.375-3.156 6.281 3.063s-1.935 5.881-1.95 5.881c0 .004-.005.004-.005.004s.005.276-.027.707c-.108 2.113-1.276 4.238-2.25 5.406-1.313 1.59-3.614 2.7-4.924 3.313-1.32.603-3.445 1.052-3.57 1.073-.113.027-.82.123-.935.141-.114.009-.332.081-.635.141-.315.054-.66.063-.832.135a.602.602 0 0 0-.204.123.482.482 0 0 0-.18.309.735.735 0 0 0-.005.276c.063.312.402.749.442.825.142.271.957 1.045 2.292.746a41.822 41.822 0 0 0 4.063-1.124c1.182-.385 2.749-1.063 2.988-1.272.243-.202.893-.698.997-.755 0-.005.004-.005.004-.005.135-.123.263-.239.39-.348.054-.046.108-.104.163-.146l.036-.031c.207 2.477-2.764 9.914-2.764 9.914s-6.922 2.463-6.483 2.137c0 0-.008 0-.008.004-.562.276-1.391.575-2.229-.081 0 0-.815-.952-1.813-2.215a60.083 60.083 0 0 1-1.855-2.458 15.837 15.837 0 0 1-.945-1.476c-.431-.734-.603-1.205-.679-1.499-.009-.023-.02-.049-.02-.067-.186-.489-.341-1.281-.341-1.281-1.249-.155-2.563-.44-3.776-.883.009.004.009.016.019.025.101.09-8.573 1.982-8.573 1.982l8.975 36.563s16.75 26.333 27.25 21.25c1.565-.758 4.29-6.095 3.167-7.917-1.154-1.867-18.917-31.333-18.917-31.333s24.598-13.181 24.837-13.075zM161.469 232.059c3.28 2.179 4.422 2.688 8.008 4.188 1.142.538 4.152-.074 5.44-2.002-.022.01-.046.037-.063.052-.01.004-.01.004-.02.004-.084.051-17.861-13.897-20.178-14.723-.825-.292-5.365 1.374-4.781 2.213.523.755 2.719 3.042 2.77 3.13 3.099 2.41 6.998 5.626 8.824 7.138M123.667 206.333l-29.729-17.021s.867 8.433.862 8.564l.009.011c2.169 1.94 5.566 4.265 6.103 4.63.198.131 1.58 1.043 1.875 1.373.365.396 4.033 3.006 4.313 3.2.268.183 4.229 2.368 6.629 3.646.086-.048-1.67 1.391-1.643 1.345-.844.056-1.456.443-2.387.741-4.167 2.341-1.694 7.211-1.301 10.604.797 2.859 1.804 7.823 5.511 8.286 2.822.339 9.282-1.427 12.697-2.127.484-.855 5.435-1.163 5.374-1.094.874-.262 2.046-.674 2.401-.607.213.037-.774 1.085-1.346 2.155-.575 1.08-4.129 11.572-7.438 17.161-1.11 2.289-.584 1.344-1.26 3.008v.005l6.705 1.535 10.833-27.501-18.208-17.914zM89.943 227.711c1.154 2.141 4.479 6.632 4.642 6.887.162.25.878 1.021 1.722 1.965.846.94 1.571 1.763 1.775 2.002.204.232 1.789 1.877 2.198 2.254.408.375.881 1.141 1.224 1.459 1.173 1.054 5.492 4.808 5.909 5.117.417.318 2.477 1.699 2.848 1.75 3.71.471 5.531-1.562 5.907-2.164.38-.588.452-.842.218-1.724-.005.063-14.322-10.694-23.822-31.382-.368-.801-3.663-4.791-6.688-2.375-2.484 1.984-.688 6.738-.688 6.738v.027c.943 1.948 3.768 7.62 4.755 9.446M61.833 229.75c.958-3.584-6.987-2.785-7.56-2.915-2.477 4.009-5.106 17.625-6.445 24.002-.232.718-.544 1.872-.911 3.364a147.56 147.56 0 0 0 5.604 5.418c1.383-5.381 9.058-28.916 9.312-29.869z"/></g><g><path d="M292.611 136.589c0 .009.006.019.006.023 0 0 0 .009.005.019-.005-.009-.005-.019-.005-.019a.054.054 0 0 1-.006-.023" fill="#a3080c"/><path d="M274.557 187.911c-4.431-.981-14.922-3.087-29.066-4.386-14.135-1.287-25.706-2.392-27.297-2.563-1.455-.146-1.982-1.479-3.305-2.144-4.791-2.402-13.848-4.633-19.523-6.631-1.403-.485-2.326-1.729-4.264-4.092-1.178-1.44-1.976-2.091-2.983-3.004a56.333 56.333 0 0 0-2.271-1.933c-.344-.278-.584-1.075-.287-2.623.297-1.554 1.225-7.614 1.148-14.67-.02-1.894.814-3.107 1.701-3.55.477-.241 3.582-1.622 3.373-4.674-.219-3.089-1.174-7.398 1.312-13.463 2.404-5.876 5.407-16.364 5.77-23.283.386-7.35-1.461-12.091-4.36-14.658-1.131-.992-2.466-2.491-1.376-5.691 1.163-3.443 3.275-12.846 1.2-19.066-.466-1.381-.992-1.39-1.31-1.557-.317-.162-1.824-1.316-2.391-3.854-.761-3.346-3.207-15.238-12.43-27.327-4.887-6.418-10.104-10.235-12.188-11.773-1.429-.929-3.936-2.676-6.935-4.271-4.291-2.269-7.697-4-14.548-6.217a98.19 98.19 0 0 0-4.053-1.17h-.022s-5.837-1.562-12.149-2.299c-1.078-.1-2.553-.236-4.227-.35-6.498-.38-8.87.019-12.249.359-.361.035-.729.09-1.092.139-.674.09-1.371.194-2.1.308-10.04 1.719-20.254 6.428-25.222 8.797-2.805 1.332-5.286 2.718-7.568 4.018-.063.04-.144.086-.186.111a69.62 69.62 0 0 1-2.407 1.365c-1.404.792-2.746 1.534-4.046 2.169-4.021 1.956-7.558 2.957-10.144 3.854-.47.176-.863.325-1.168.429-1.864.726-3.052 1.476-3.27 2.713-.398 2.22 2.215 4.28 1.282 7.821-2.297 8.708-12.126 17.066-13.702 18.03-4.565 2.786-4.28 4.725-4.456 5.717 0 .922.189 1.946.714 3.052 1.521 3.223 4.335 5.985 5.712 8.898 1.381 2.915 2.168 8.024 1.135 13.996-.986 5.775-1.295 7.056-1.808 8.115-.51 1.063-1.539 3.128-.12 5.584 1.425 2.463 4.428 4.976 6.312 6.421 1.002.774 1.521 1.476.778 2.871-1.224 2.283-.911 7.666.248 10.678 1.75 4.595 3.805 8.975 5.712 11.79 1.909 2.813 5.315 7.601 7.318 9.333 1.995 1.743 2.269 4.764 2.23 6.639-.042 1.865-.304 7.153 5.13 10.462 2.678 1.646 2.918 1.232 3.9 2.039.982.793 1.444 1.205 2.123 3.346.679 2.133 3.768 9.612 8.021 14.877 1.241 1.529 1.93 2.613 2.078 2.864.15.25.381.528-.157 1.788-.535 1.261-2.682 8.439-4.395 15.859-.313 1.36-.773 3.149-2.48 3.989-1.71.824-5.529 2.935-6.919 3.702-1.398.77-2.089 1.188-3.698 3.188-.716.891-1.237 1.412-1.689 1.955-.26.314-.375.516-1.735 1.225-1.178.611-18.66 6.763-37.198 18.104a46.89 46.89 0 0 1-1.314.76 141.141 141.141 0 0 0 3.365 5.043c4.162-2.104 14.091-7.137 15.652-7.915 1.232-.621 2.765-.862 4.004-.893.746-.014 1.386.048 1.793.148.832.204 2.264.521 3.594.823.123.027.246.058.373.084.082.02.163.037.248.062.549.136 1.057.256 1.467.366.023.009.042.009.065.02.199.057.38.105.519.147 1.181.389 1.809 2.604 1.17 4.62a503.955 503.955 0 0 0-1.931 6.808c-.338 1.215-.707 2.552-1.096 3.97a1018.368 1018.368 0 0 0-4.353 16.309c3.7 3.373 7.582 6.548 11.616 9.531.452-3.493.927-7.131 1.295-9.777.964-6.904 6.479-32.479 8.036-38.294 1.133-4.231 1.722-6.159 3.211-6.826.447-.194.955-.491 1.249-.635.294-.136.938-.292.739.829-.228 1.33-1.376 6.757-3.065 24.367-1.173 12.217-1.201 23.037-.779 29.545.182 2.771.229 6.688 4.469 4.989 4.954-1.979 21.842-8.034 30.864-10.814 14.527-4.481 41.755-10.466 67.998-14.339l7.338-1.043s4.297 25.242 5.037 29.617l.814 4.631-.807-4.631c-.746-4.375-5.037-29.617-5.037-29.617 1.027-.142 2.062-.273 3.082-.403 2.35-.297 4.557-.574 6.632-.845l7.665-.981c3.587-.459 6.664-.853 9.271-1.194 0 0 4.955 22.902 6.817 31.129.13.541.241 1.029.334 1.438l.917 4.204h.014l-.912-4.204c-1.512-6.507-7.154-32.564-7.154-32.564l7.848-1.012c2.32-.296 5.277-.667 6.158-.709 1.844-.076 2.648-1.12 1.241-1.543-1.017-.297-3.364-.531-4.552-.561l-1.771-.023c-1.816-.031-2.335-.39-2.734-3.066-1.131-7.853-5.504-27.314-8.646-37.575-3.04-9.899-3.791-12.749-4.522-14.929-.641-1.877.6-1.992 1.195-1.966 2.215.106 5.283 1.257 6.163 3.151 1.946 4.222 15.267 39.107 20.614 52.113 3.373 8.193 7.304 18.057 11.016 26.843 2.379-1.955 4.672-4.015 6.92-6.117-6.91-15.19-22.291-49.604-30.402-67.021a26.169 26.169 0 0 1-.885-2.238 1.653 1.653 0 0 1-.098-.533c.01-1.111 1.479-1.266 2.206-1.195 2.862.287 28.872 2.002 35.974 2.68 4.686.443 9.36 1.158 12.483 1.716.724.134 1.36.255 1.899.36a24.82 24.82 0 0 1 1.492.328c2.316.604 6.403 2.221 10.188 4.25 1.564.834 3.346 2.049 5.255 3.514a159.046 159.046 0 0 0 1.669-4.922 46.916 46.916 0 0 0-4.395-2.717c-4.32-2.304-7.966-3.769-11.919-4.649M62.776 101.66c-.707.304-1.346.385-1.835-.579-1.186-2.345-2.087-6.521-2.431-9.234-.354-2.711-.896-10.803-.725-15.224.189-4.424-.675-6.896-2.256-9.012-1.585-2.113-2.604-3.58-2.993-4.292-.489-.888-.162-1.495.773-2.173.454-.318 1.381-.127 2.098-.276 1.418-.285 6.153-2.002 9.681-4.769 3.52-2.767 9.13-8.119 12.937-10.179 3.795-2.06 5.48-2.999 9.922-3.532.788-.092 1.97.329.636 1.344-1.333 1.015-5.608 2.53-10.593 10.052-3.061 4.602-3.56 7.26-4.529 9.325-.974 2.064-1.905 2.648-3.446 4.319-.75.797-2.278 2.472-2.829 4.901-.535 2.431-2.748 10.995-1.448 23.948.153 1.508.774 3.515-.64 4.245-.873.453-1.622.837-2.322 1.136m6.104 17.453c-.753-.535-3.831-4.702-5.33-9.333-.165-.489-.345-1.733.466-2.088.665-.285 1.548-.797 2.007-1.015.465-.234 1.624-.538 1.784 1.133.162 1.675.308 3.649 2.217 8.59.346.883.417 1.159.507 1.513.247 1.026-.954 1.696-1.651 1.2m6.27-15.736c-.204.035-2.316.29-3.455.503-.707.13-1.435.394-1.516-.287a22.315 22.315 0 0 0-.389-2.072c-.061-.287.077-.559.419-.64.839-.194 4.081-.739 4.394-.755.313-.004.63.102.766.751.123.651.279 1.344.316 1.626.038.29.119.774-.535.874m1.152-10.578c-.195-.987-.468-2.677-.38-3.729.03-.419.157-1.467.66-2.032.711-.806 1.656-1.539 2.269-2.035 1.115-.913.883-3.276.964-4.632.246-3.939-.104-16.378 7.968-28.279.312-.452.628-.869.94-1.263.095-.118.19-.227.285-.343.231-.273.463-.536.702-.779a14.911 14.911 0 0 1 1.168-1.105c.042-.033.079-.07.118-.104.327-.264.655-.503.981-.73.118-.077.236-.153.354-.222.225-.148.452-.281.679-.41.129-.07.257-.142.389-.209.248-.127.503-.246.755-.359.096-.04.19-.086.285-.13.327-.137.663-.259.996-.373.143-.049.281-.09.422-.134.224-.07.447-.137.67-.199.076-.019.146-.046.223-.065v.009c1.643-.438 3.328-.684 5.03-.973 4.805-.816 10.406-.053 13.287.864 2.29.725 3.45 1.281 4.216.558.77-.72 2.775-2.994 3.626-3.8.117-.114.209-.239.272-.362.026-.042.04-.085.059-.127.031-.081.058-.167.071-.252.005-.046.015-.095.015-.146 0-.081-.01-.162-.023-.248-.009-.042-.009-.09-.03-.132a1.17 1.17 0 0 0-.154-.341c-.187-.311-.484-.588-.852-.809-.934-.549-10.312-7.431-22.954-7.739-12.353-.309-22.379 4.062-25.038 4.977-.538.181-.814.276-1.13.28-.313.009-1.391-.359-.992-1.138.438-.832 1.534-2.113 2.673-3.151 1.195-1.077 7.04-6.579 12.813-9.127 1.068-.468 1.328-.663 2.012-.929.874-.331 1.391-2.301-.54-2.306-1.979-.014-2.767.208-3.812.371-1.047.174-1.622-.294-.961-1.191.653-.894 1.944-1.886 4.274-3.151 5.059-2.757 14.313-5.663 18.688-6.62 5.705-1.249 6.402-1.33 10.188-1.562 3.541-.204 6.373.046 7.713.1 11.343.431 24.406 4.185 34.52 10.844 9.615 7.075 23.455 18.862 26.197 47.959.329 3.492.098 5.471-.037 6.345-.119.874-1.111 2.481-1.982.656-2.869-6.013-7.305-13.882-12.31-21.341-.297-.443-.599-.656-.844-.688a.451.451 0 0 0-.278.033c-.021.014-.037.037-.061.053a.53.53 0 0 0-.135.146c-.02.044-.043.09-.057.137a.948.948 0 0 0-.046.204c-.01.062-.021.121-.021.186 0 .148.01.311.053.489.125.528 1.719 8.418 1.777 9.517.069 1.096-.467 3.786 3.619 8.75 1.67 2.037 3.151 3.777 3.912 6.782.75 2.994 1.006 4.275 1.01 4.593.012.313.371 1.205-1.074 1.214-1.438.004-6.924-.394-9.272-.341-2.351.056-18.569 1.647-24.603 2.929-6.035 1.284-9.282 2.804-12.381 6.06-.746.783-1.789 1.513-2.026 1.58-.224.063-1.011.046-2.549-.058-1.532-.1-4.188.276-5.584.906-1.404.628-2.405 1.212-4.096.523-2.417-.978-6.563-5.443-17.328-4.917-6.48.317-9.8.494-14.297 1.159-.262.042-.533.081-.802.123-.171.028-.348.055-.523.085-.095.014-.194.028-.294.046-1.831.299-3.899.684-6.452 1.182-.354.067-.702.139-1.068.208-.994.199-1.682-.247-1.867-1.287m99.126-2.776c0 .343-.418.698-.845.77-.422.067-3.317.332-3.78.366-.455.032-.9-.218-.938-.646-.037-.422-.131-1.423-.157-1.685-.047-.246-.058-.589.532-.665.344-.042 3.363-.313 4.479-.445.416-.049.689.327.699.692 0 .366 0 1.273.01 1.613m-13.547 3.251c-.896-.63-2.471-1.622-3.425-1.97-.658-.236-.429-1.059.51-1.19 3.263-.476 5.356-.476 6.979.538 1.187.735 1.975 2.162 1.611 3.42-.427 1.444-.992 1.131-1.701 1.119-.709-.014-3.089-1.284-3.974-1.917m1.887 6.366c-.574.387-2.451.042-3.133-.225-1.4-.549-2.393-.929-4.339-2.164-1.271-.806-3.479-1.205-5.413-.621-1.274.385-2.298.707-3.42 1.14-1.124.431-1.354-.593-1.06-1.031.29-.438 2.069-2.521 4.429-3.406.496-.19 1.506-.294 2.002-.304 1.521-.044 3.406.698 4.834 1.74 1.439 1.05 3.727 2.762 5.229 3.404.703.303 2.232.526.871 1.467m-46.915 50.653c-5.692 1.993-7.288-.009-7.795-.603-.505-.593.118-1.172.721-1.453 1.354-.63 3.166-2.002 4.081-2.896.92-.892 2.707-3.997 3.997-5.088.612-.521 3.918-1.645 6.405-.459 2.957 1.409 7.561 1.555 10.388 1.187 2.825-.38 3.902-2.445 4.515-3.664.611-1.23 2.11-1.68 2.898-2.004 2.169-.887 5.04-3.863 5.334-4.166.294-.313 1.189-.753 2.612.081 2.59 1.522 3.907 3.536 6.311 6.268 2.406 2.734 5.252 3.161 6.086 3.214.834.053 1.354 1.02 1.392 1.286.046.266-.649 1.191-1.168 1.58-.521.389-.808 1.078-5.413 1.187-23.108.571-33.506 3.13-40.364 5.53m31.342 2.781c-1.371.709-5.449 2.246-7.479 2.637-2.037.391-8.5 1.701-9.591 1.789-1.358.105-3.261-.302-4.913-1.432-.332-.229-.783-1.117.422-1.295 2.236-.332 5.846-2.011 18.978-2.68 1.411-.072 2.074-.102 2.412-.109s1.552.381.171 1.09m-30.424 29.155c-4.586.756-16.795-2.826-24.733-22.416-2.046-5.039.198-10.053 2.167-11.066 1.168-.593 1.8-.834 2.198-.934.432-.109 2.51-.38 2.746 1.958.187 1.891 3.858 17.417 8.794 22.551 1.217 1.272 2.179 1.194 2.493-.12.27-1.205.802-2.79.957-3.395.109-.436 1.3-1.752 1.975-.074 1.452 3.562 3.204 8.224 4.355 10.091 1.126 1.821.764 3.121-.952 3.405m.905-51.222c.431.598.698 1.685.665 2.165-.044.554-1.938 1.559-3.907-.651-1.97-2.215-1.585-5.276-.77-6.576 1.3-2.074 3.854-1.041 3.607-.301-.853 2.562-.033 4.761.405 5.363m-14.635-28.687c-1.473-.048-3.058-.229-5.747.767-3.01 1.112-4.945 2.563-6.345 3.422-1.438.897-2.962 1.282-3.472 1.319-.507.044-2.355-.199-1.082-1.537.338-.366 1.149-.642 2.38-1.539.88-.648 1.532-1.11 2.533-1.953 1.784-1.52 5.42-3.717 7.005-3.912 1.163-.139 3.219.081 4.442 1.082 1.273 1.045 1.762 2.398.286 2.351m-25.327 2.61c.155-.964 1.209-3.506 3.43-4.243.299-.09 1.406-.45 2.331-.688a48.489 48.489 0 0 1 2.862-.625c1.607-.28 1.946.943.934 1.74-.663.528-1.722 1.216-2.658 1.974-1.423 1.164-2.79 2.458-3.847 3.337-1.287 1.072-3.372.484-3.052-1.495m7.545 27.681a.066.066 0 0 1-.009-.009l-.023-.035a22.377 22.377 0 0 1-1.117-1.745c-.073-.132-.146-.268-.222-.399-.346-.642-.67-1.291-.925-1.974-.498-1.323.336-1.518.892-1.23.555.297 2.179 1.244 3.914 1.61 1.06.218 1.689-.29 1.938-1.054.037-.114.085-.255.137-.408.03-.067.053-.139.076-.213.014-.044.027-.09.044-.139.022-.083.042-.164.06-.25.015-.044.02-.09.028-.134.021-.088.03-.174.04-.264.004-.044.004-.086.009-.135 0-.088-.009-.174-.019-.264-.005-.039-.01-.081-.02-.118a1.335 1.335 0 0 0-.1-.275c-.018-.028-.026-.058-.04-.081a1.273 1.273 0 0 0-.241-.29 1.657 1.657 0 0 0-.498-.299c-1.511-.607-5.795-1.96-9.012-7.943a1.437 1.437 0 0 1 .288-1.819c.314-.25 1.434-.964 1.97-1.295.542-.332 1.276-.294 2.041.234.735.526 2.332 1.689 3.613 1.576 1.19-.116 1.309-.604 1.521-.913.839-1.224 3.112-5.67 9.069-5.742 2.458-.032 4.76.195 5.584.144.815-.053 3.722-.315 5.434-1.48 1.686-1.159 2.405-.325 1.431.943-.145.19-.276.357-.399.524-.048.06-.085.113-.129.169a7.175 7.175 0 0 0-.346.503c-.371.628-.417 1.172.275 1.918 1.087 1.156 1.37 1.363 1.723 1.636a.92.92 0 0 0 .564.204c.09 0 .19-.019.29-.046.042-.014.083-.014.132-.032a1.98 1.98 0 0 0 .484-.306c.621-.549 1.038-.876 1.58-1.576.403-.517.744.004.644.813-.079.63.204 4.674-4.203 9.646-.144.167-.479.443-.896.797a9.557 9.557 0 0 0-.303.257c-.054.046-.109.1-.163.146-.138.12-.275.248-.417.38-.113.104-.228.229-.343.343-.118.118-.231.227-.351.354-.072.077-.144.167-.218.253-.148.167-.299.336-.447.521-.046.062-.09.127-.132.186a9.433 9.433 0 0 0-.476.669 8.734 8.734 0 0 0-.513.938c-1.226 2.616-1.067 3.479-1.2 4.433-.12.945-.854 1.321-1.68 1.703-.498.229-1.818.992-3.281 2.099l.008-.007c-.438.329-.884.695-1.326 1.073-.085.077-.167.148-.246.225-.442.389-.878.802-1.281 1.232a8.426 8.426 0 0 1-.818.751c-.095.074-.183.132-.277.199a7.535 7.535 0 0 1-.593.389 3.592 3.592 0 0 1-.319.165c-.2.1-.399.181-.604.252-.108.037-.213.082-.321.109-.054.014-.104.037-.153.053-.127.028-.255.032-.382.051-.158.028-.315.058-.476.067-.176.009-.355 0-.537-.009-.155-.017-.313-.017-.464-.035-.186-.028-.37-.086-.552-.137-.154-.04-.308-.072-.465-.127-.174-.067-.346-.163-.521-.248-.167-.081-.327-.146-.489-.246-.015-.012-.032-.016-.046-.025a9.036 9.036 0 0 1-.894-.649 43.113 43.113 0 0 1-2.524-2.35 1 1 0 0 1-.067-.077 28.226 28.226 0 0 1-1.281-1.386c-.035-.045-1.013-1.222-1.43-1.801m52.966 92.912c-.271 1.408-1.42 6.152-5.638 15.918-.285.658-.562 1.293-.832 1.906-.065.144-.132.28-.195.426-.104.234-.213.473-.316.693-.01.02-.015.037-.023.057-.153.34-.308.658-.466.975 0 0-.009.009-.009.02-.02.037-.042.078-.067.119-.056.111-.114.219-.169.324-.076.141-.148.292-.229.428 0 .015-.005.02-.009.026a.845.845 0 0 0-.056.093l-.181.315c-.01.019-.023.036-.033.056v.01c-.054.078-.101.157-.148.231-.014.026-.027.056-.042.078-.009.01-.016.021-.03.036-.063.105-.132.205-.198.314-.015.016-.028.027-.037.042-.076.111-.153.22-.228.324-.004 0-.016.021-.029.026-.064.09-.133.178-.199.261-.02.021-.032.037-.046.047-.076.103-.157.183-.228.271-.011 0-.021.014-.029.025-.042.042-.091.084-.133.13h-.004a.45.45 0 0 1-.077.074c-.014.015-.036.026-.051.047-.081.073-.158.146-.239.199-.009.009-.014.014-.027.021a1.91 1.91 0 0 1-.224.155.43.43 0 0 1-.058.037l-.037.021c-.016.014-.03.021-.044.021-.056.037-.114.069-.172.104 0 0-.009 0-.019.004-.074.041-.155.068-.241.098-.02.01-.04.02-.063.027-.09.026-.176.052-.271.074-.876.188-1.813.323-2.361.418-.081.008-.642.102-.688.118-.229.033-.476.07-.741.116v-.005c-6.331 1.065-23.552 4.031-31.54 5.646-5.299 1.058-4.778-1.611-6.108-6.429-.559-2.024-2.527-19.94-1.504-31.186.343-3.734.507-4.828 1.177-5.24.669-.413 1.694-1.08 2.002-1.168.3-.079 1.213-.32 1.639.448.417.761 8.151 16.451 13.206 22.135 4.485 5.064 7.638 8.738 11.419 11.206.25.167.465.27.66.334.019.009.042.021.064.026.09.027.171.041.248.052.076.01.146.005.213 0 .02-.005.037-.005.057-.011a.581.581 0 0 0 .301-.166l.033-.037a.767.767 0 0 0 .149-.318c.005-.02.005-.042.005-.062.104-.584-.174-1.469-.729-2.069-.834-.899-4.289-4.454-8.84-10.929-5.887-8.355-9.876-20.688-10.949-24.638-.702-2.586-1.096-6.664-1.031-9.918h-.009c.005-.144.009-.269.017-.407l.015-.311a16.63 16.63 0 0 1 .113-1.527c.015-.12.032-.228.046-.344l.087-.552c.019-.104.039-.199.063-.292.051-.25.109-.481.181-.683.916-2.617 1.681-2.336 2.491-1.459.812.885 8.12 7.518 20.169 12.916 2.559 1.146 4.085 1.672 4.434 2.049.345.365.896 1.141-.199 1.398-1.082.256-4.296.37-7.661 1.7-.195.079-.375.158-.54.231-1.177.527-1.729 1.058-1.979 1.627a1.897 1.897 0 0 0-.113.344c-.021.078-.04.171-.049.255-.015.129-.02.259-.015.389 0 .085-.005.173.004.261.01.166.028.334.046.511.04.297.081.603.111.938.178 1.826.494 3.129.726 5.571.227 2.451.086 4.666 1.281 5.7 1.191 1.02 2.817 1.626 7.16.783 4.12-.804 5.492-1.154 5.98-1.168.479-.016 1.636-.209.929 1.14-.067.13-.155.287-.259.478-.95 1.691-3.251 5.502-4.035 8.041-.869 2.799-1.045 3.573-1.121 4.051-.07.481.262 1.408 1.117.371.853-1.039 2.542-4.908 6.785-9.834a81.588 81.588 0 0 1 1.581-1.771c.004 0 .009-.01.019-.021.384-.412.741-.787 1.082-1.131.095-.098.185-.186.276-.271l.814-.788a20.232 20.232 0 0 1 1.851-1.543c.048-.027.09-.058.134-.088.183-.136.364-.257.531-.357.046-.026.095-.06.141-.093.167-.104.325-.188.471-.27.023-.02.059-.037.085-.051.02-.006.033-.02.046-.027.172-.078.315-.162.461-.229 1.185-.58 1.507.23 1.148 2.107m7.024 21.56c-.68.157-3.617.603-4.071.61-.447.011-.827-.407-.637-.729.189-.314 2.211-2.945 3.322-7.525.188-.746.654-1.266.957-.193.234.783 1.141 4.676 1.35 6.141.031.256.188 1.436-.921 1.696m1.232-37.345c-1.93.724-4.076-1.445-5.813-2.604-3.904-2.669-7.496-5.241-10.443-8.842-4.514-5.511-4.092-9.353-2.781-16.472.911-5.058-.741-9.812-1.101-10.482-.357-.672.046-1.354 1.114-.854 1.067.502 2.088 2.059 3.184 3.394 1.087 1.335 1.328.386 1.418-.521.208-2.094-.264-3.771-.525-4.744h-.006a1.805 1.805 0 0 1-.036-.157c-.153-.58-.693-1.873-1.829-2.108-1.522-.32-3.018-.455-3.83-1.039-.378-.271-.808-.828-.382-1.235.775-.751 1.901-1.747 2.971-2.113 1.455-.5 2.854-1.261 4.697-1.251 12.438.079 15.792-2.799 20.547-4.771.932-.392 1.49-.565 2.289-.315.803.241 2.977 1.058 3.525 2.024.551.97.648 5.011 1.711 7.926 1.047 2.924 2.83-.106 3.222-1.357.375-1.257.522-4.245.542-5.001s.24-3.944 1.24-5.019c1.988-2.123 2.457-4.635 2.697-5.617.213-.881.381-3.344-.056-6.843-.047-.431-.11-.883-.187-1.346-.672-4.22-1.521-4.577-2.666-5.344-1.147-.765-2.35-.433-5.271-2.435-2.613-1.798-4.986-4.94-6.966-6.857-1.972-1.914-5.088-3.839-8.376-4.178a5.975 5.975 0 0 0-.557-.023h-.037c-.146.009-.284.02-.402.044-.023.004-.037.014-.063.02a1.431 1.431 0 0 0-.28.079.26.26 0 0 1-.069.04c-.063.037-.125.072-.176.113-.023.023-.042.046-.067.072a.592.592 0 0 0-.1.123c-.023.032-.037.072-.057.109-.014.04-.035.072-.044.109a1.018 1.018 0 0 0-.037.176c0 .023-.004.042-.004.067-.005.081-.005.165.004.25h-.004c.067.813.653 1.805.802 2.213.208.554.734 2.248-.199 3.235-.94.987-6.436 5.904-11.583 5.781-2.326-.053-4.267-.531-5.896-1.226a.11.11 0 0 1 .02.025c-.069-.03-.127-.067-.199-.1a13.498 13.498 0 0 1-1.11-.552c-.056-.032-.123-.06-.186-.095a13.578 13.578 0 0 1-1.102-.711l-.304-.228a12.178 12.178 0 0 1-.746-.612c-.069-.063-.149-.125-.218-.186-.28-.267-.54-.528-.783-.788-.06-.072-.113-.139-.174-.204-.187-.215-.356-.429-.521-.637-.051-.067-.1-.127-.146-.195a12.61 12.61 0 0 1-.502-.753c-.02-.03-.03-.053-.049-.081-.127-.22-.236-.429-.332-.619-.023-.051-.048-.097-.072-.151a5.425 5.425 0 0 1-.231-.57c-.751-2.259 1.114-7.598 1.048-11.421-.023-1.675-.369-4.889-.626-7.119-.256-2.231.92-5.234 1.467-5.962a2.41 2.41 0 0 1 .521-.463c.054-.04.114-.072.171-.109.199-.13.427-.253.685-.366l.114-.058c.252-.104.521-.213.814-.308v.014c.48-.165.997-.318 1.563-.445 1.833-.408 3.976.499 4.527 2.012 1.916 5.278 4.039 6.393 4.75 6.738.722.352 1.856-.693 2.301-1.078.447-.373 1.524-1.789 1.046-2.41-.737-.943-1.141-1.522-1.354-2.111-.361-.996.941-1.017 1.249-.878 3.923 1.662 5.802 2.011 9.6 1.884 3.792-.118 9.688-2.616 10.418-2.63.595-.014 1.771.352 2.212.964.073.104.172.252.265.398.381.565.891 1.323 1.344 1.481.021.004.033.014.051.019.562.139 1.9.037 2.609.067.959.033 2.623-.299 2.576 1.462-.105 4.702-3.822 7.635-4.16 7.92-.131.118-.205.269-.271.422-.02.042-.055.086-.062.132a.906.906 0 0 0-.01.48c.088.28.49 1.295.662 1.571.061.1.135.195.23.285.022.023.062.042.088.067.074.056.147.109.231.146.042.023.099.028.147.044a.881.881 0 0 0 .256.032c.056 0 .125-.019.181-.032.14-.03.269-.058.417-.148 3.15-1.884 4.432-4.111 5.803-6.91 1.367-2.786 2.086-11.987 2.164-13.496.078-1.52.557-2.454 1.303-3.065.74-.614 4.42-2.971 4.939-3.091.528-.123 1.131-.174 1.725 1.198.604 1.381 1.918 9.864 2.168 11.168.283 1.386 1.002 1.221 1.363.955.787-.575 1.357-1.282 2.059-2.486.724-1.205.193-2.867-.51-3.641-.694-.778-1.795-2.021-1.326-3.255 1.066-2.804 3.306-2.663 3.906-2.563.59.1 2.859 1.122 3.27 7.232.593 9.051-3.098 18.41-3.979 20.783-1.945 5.276-2.354 8.868-2.654 10.578-.293 1.703-1.586 1.395-1.896 1.119-.314-.275-.719-1.594-.918-1.789-.203-.195-.714-.095-1.048 1.358-.333 1.45-1.444 3.464-2.097 4.56-.436.711-.354 1.731-.25 2.523.195 1.539.996 7.427.752 14.121-.444 11.91-4.426 19.412-7.396 23.339-6.988 9.241-13.541 13.103-14.328 13.651-1.012.705-2.703.595-3.269.408-.575-.162-1.08-.757-2.155-1.523-.088-.069-.176-.106-.25-.146-.854-.395-.982.808-.974 1.121.01.334.526 1.571.819 2.771.558 2.262-.699 4.995-1.992 7.153-1.845 3.051-3.904 6.405-3.474 10.09-.004.328-.004.567-.28.673m59.218 3.523c1.053 6.054 2.238 13.431 3.576 22.474.07.478.121.886.158 1.266.01.047.02.1.02.145.037.356.057.683.057.949 0 .028-.005.053-.005.074 0 .12 0 .25-.01.354a3.529 3.529 0 0 1-.052.277c0 .036-.01.073-.01.106a1.658 1.658 0 0 1-.193.477c-.01.021-.027.037-.047.064a1.31 1.31 0 0 1-.266.27l-.098.074a1.958 1.958 0 0 1-.438.204c-.041.019-.102.025-.156.046-.131.042-.272.079-.428.121-.097.021-.193.037-.291.063l-.652.129c-.428.088-1.053.178-1.487.213-.751.074-1.627.148-2.581.232-9.223.844-27.273 2.674-41.732 4.495-.272.026-.551.056-.848.103-1.127.158-1.779-.021-1.869-1.127-.068-1.015-1.761-11.053-6.871-19.604a39.695 39.695 0 0 0-1.488-2.32c-.583-.84.283-1.479 1.107-1.188 2.316.813 8.73 3.749 17.879 10.297 2.336 1.669 2.943 2.188 3.467 2.633.07.061.178.12.273.167.037.019.079.027.125.046.062.023.145.047.223.065.043.009.084.019.125.021.088.011.176.015.256.011h.099a.773.773 0 0 0 .292-.1c.213-.134.311-.394.145-.843-.569-1.604-3.629-4.755-11.457-12.019-1.117-1.032-1.135-1.469.022-1.59 1.153-.109 4.292.032 5.96-.037 1.674-.072 5.408-.177 4.676-5.064-.561-3.786-1-7.702-1.07-8.874-.062-1.168-.268-3.353-3.002-3.661-2.717-.312-7.271.319-11.357 1.751-1.127.392-1.525-.129-.691-.89.83-.756 8.004-5.424 14.117-12.443 6.721-7.729 9.676-13.416 11.354-18.588.304-.918.691-.605 1.066-.396.371.22 2.893 2.258 3.787 7.271.875 5.023 2.613 11.994-.449 30.3-1.684 10.028-3.74 15.951-4.219 17.365-.48 1.399.344 2.188 1.27.933 2.16-2.949 5.017-11.123 7.427-20.521 2.373-9.273 3.233-17.224 3.597-22.319v-.005c.037-.468.069-.908.092-1.33l.016-.171c.02-.412.041-.809.068-1.163 0-.218.027-.39.064-.547.01-.047.027-.084.042-.125.022-.07.042-.147.067-.204 0-.01.012-.01.012-.02a1.26 1.26 0 0 1 .15-.219c.017-.019.028-.037.043-.047.045-.041.088-.06.129-.082.033-.015.064-.037.095-.048.026-.004.046-.004.073-.009.052-.01.103-.02.148-.02.018 0 .036 0 .059.01h.07c.018 0 .027.015.036.015.187.032.356.106.487.162.479.187 2.591.797 3.691 5.867.047.204.094.426.148.646.01.074.025.157.046.231.052.204.099.408.147.631l.011.037c.913 3.989 2.567 10.886 4.995 24.979"/><path d="M167.706 221.898h1.028v2.623h.621v-2.623h1.025v-.527h-2.674zM172.609 223.623l-.793-2.252h-.894v3.15h.575v-2.535l.876 2.535h.505l.862-2.535v2.535h.574v-3.15h-.894z"/></g></svg>