<?xml version="1.0" encoding="utf-8"?>
<!-- Generator: Adobe Illustrator 22.1.0, SVG Export Plug-In . SVG Version: 6.00 Build 0)  -->
<svg version="1.1" id="Layer_1" xmlns="http://www.w3.org/2000/svg" xmlns:xlink="http://www.w3.org/1999/xlink" x="0px" y="0px"
	 viewBox="0 0 378 467.2" style="enable-background:new 0 0 378 467.2;" xml:space="preserve">
<style type="text/css">
	.st0{fill:#242220;}
	.st1{fill:#EDEDEC;}
	.st2{fill:#D5D5D4;}
	.st3{fill:#F6F6F5;}
	.st4{fill:#9B2D35;}
	.st5{fill:#333130;}
	.st6{fill:#292624;}
	.st7{fill:#FDF1D6;}
	.st8{fill:#FEFEFE;}
	.st9{fill:#DFC091;}
	.st10{fill:#DFC092;}
	.st11{fill:#422425;}
	.st12{fill:#432627;}
	.st13{fill:#432526;}
	.st14{fill:#3C2424;}
	.st15{fill:#482426;}
	.st16{fill:#FBFBFB;}
	.st17{fill:#262422;}
	.st18{fill:#282625;}
	.st19{fill:#2B2927;}
	.st20{fill:#EDECEC;}
</style>
<g>
	<path class="st0" d="M217.9,351.5c-2.2,0-4.4,0-6.6,0c-2.5-0.2-5,0.7-7.6,0.6c-4.3-0.2-8.5,0.2-12.8,0.3
		c-5.5,0.1-11.1,0.4-16.6,0.7c-6.8,0.4-13.6,0.8-20.4,1.4c-12.8,1-25.6,2.1-38.3,4.1c-15.7,2.4-31.2,5.8-46.7,9.3
		c-1.4,0.3-2.8,0.8-4.2,0.7c-1.9-0.1-3.1-1.1-3.6-2.9c-0.6-2.3-0.1-4.6,0.1-6.8c0.9-10.6,2.6-21.1,4.8-31.5
		c2.9-13.5,6.1-26.8,10.1-40c0-0.2,0.1-0.3,0.1-0.5c0.2-1,0-1.2-0.9-1c-1.6,0.4-3,1.3-3.8,2.9c-0.9,1.7-1.7,3.5-2.5,5.3
		c-3.1,7.5-5.8,15.1-8.5,22.7c-2.8,7.7-5.5,15.4-8.1,23.2c-2.1,6.3-3.7,12.8-5.4,19.2c-0.8,3-1.7,6.1-2.4,9.2
		c-0.3,1.4-0.3,1.4,1.1,1.6c7.7,1,15.3,2,23,3c9.6,1.2,19.3,2.5,28.9,3.7c12.3,1.6,24.5,3.2,36.8,4.7c7.6,1,15.1,2,22.7,2.9
		c0.6,0.1,1.3,0,1.9,0.6c-0.2,0.4-0.5,0.3-0.8,0.3c-9.1,0-18.2,0-27.4,0c-0.1,0-0.2,0-0.4,0c-2.8,0-5.7-0.1-8.5,0
		c-5,0.2-9.9-0.8-14.9-1.4c-4.6-0.5-9.2-1.2-13.7-1.8c-4.6-0.6-9.2-1.2-13.7-1.8c-4.5-0.6-9.1-1.2-13.6-1.8c-4.5-0.6-9-1.2-13.5-1.8
		c-4.6-0.6-9.2-1.2-13.9-1.8c-4.5-0.6-9.1-1.2-13.6-1.8c-4.5-0.6-9-1.2-13.5-1.8c-2.6-0.3-5.3-0.6-7.9-1c-1.5-0.2-1.9-0.9-1.9-2.6
		c0-15.2,0-30.3-0.1-45.5c-0.3-85.5-0.5-171-0.8-256.5c0-13-0.1-26.1-0.1-39.1c0-0.4,0-0.9,0-1.3c-0.2-3.6,0-7.3-0.1-10.9
		c0-0.7,0-1.4,0-2c0-3.4,0-6.9,0-10.3c0-0.8,0.1-1.5,1.1-1.8c0.9,0,1.8,0,2.6,0C8.2,0.5,12.1,1,16.1,1.5c12.6,1.7,25.2,3.3,37.8,5
		c16.3,2.1,32.5,4.2,48.8,6.4c3.1,0.4,5.8-0.1,8.7-1.3c12.4-5.2,25.3-8.8,38.7-10.3c10.9-1.3,21.8-0.6,32.5,2
		c13.5,3.2,26.1,8.5,37.7,16.1c4.6,3,9,6.3,13,10c0.7,0.7,1.6,0.9,2.5,1c14,1.8,28.1,3.7,42.1,5.5c15.3,2,30.6,4,45.9,6
		c14.1,1.8,28.1,3.7,42.2,5.5c3.3,0.4,6.7,0.9,10,1.3c1,0.1,1.8,0.4,2,1.5c0,0.6,0,1.1,0,1.7c-1,2.8-1.6,5.7-2.4,8.5
		c-6.9,26.1-13.7,52.2-20.6,78.3c-6.8,26.1-13.7,52.1-20.5,78.2c-6.8,25.8-13.5,51.5-20.3,77.3s-13.5,51.5-20.3,77.3
		c-2.9,11.3-5.9,22.5-8.9,33.7c-0.4,1.4-1.1,1.9-2.5,1.8c-2.4-0.3-4.9-0.7-7.4-1c0.5-1.9,1-3.8,1.5-5.7c0.3-0.3,0.7-0.3,1.1-0.3
		c1.7,0.1,2.1-0.2,2.5-1.8c0.8-3.2,1.7-6.3,2.5-9.5c2.1-8.1,4.3-16.2,6.4-24.2c0.2-0.8,0.2-1.6,0-2.4c-3.7-13.9-7.2-27.8-10.6-41.7
		c-2.7-11.2-5.5-22.5-8.2-33.7c-1.1-4.6-2.3-9.1-3.5-13.7c-0.5-2.2-1.7-3.7-3.6-4.8c-1.2-0.7-2.5-1.3-3.9-1.6
		c-1.8-0.4-2.4,0.2-2.2,2c0.5,3.1,1,6.2,1.5,9.2c1.5,8.7,2.9,17.3,3.9,26.1c0.7,6,1.3,12,1.8,18c0.5,5.1,0.8,10.2,1.1,15.3
		c0.2,2.4,0.1,4.9,0.3,7.3c0.2,2.2,0.7,3,2.9,3.4c2.3,0.4,4.5,0.7,6.7,1.4c0.6,0.2,1.2,0.3,1.7,0.6c0.6,0.3,1.1,0.6,1,1.3
		c-0.1,0.7-0.6,1-1.2,1.1c-1.2,0.3-2.5,0.3-3.7,0.1c-1.7-0.2-3.4-0.2-5.1-0.2c-0.5,0-1,0-1.5-0.3c-3.6,0-7.3,0-10.9,0
		c-0.1,0.1-0.3,0.2-0.4,0.3c-4.3,0.1-8.5,0.4-12.8-0.3c-0.2,0-0.3-0.1-0.5-0.1c-3.2,0-6.4-0.2-9.6,0.1c-4.3,0.4-8.5,0.1-12.8,0.2
		C218.9,351.8,218.4,351.8,217.9,351.5z"/>
	<path class="st1" d="M0.3,12.1c0,4.3,0,8.6,0,13H0.2H0.1c0-4.3,0-8.6,0-13C0.2,12,0.3,12,0.3,12.1z"/>
	<path class="st2" d="M0.3,12.1H0.2H0.1c0-3.5,0-7,0-10.6c0.1-0.1,0.1-0.1,0.2,0C0.3,5,0.3,8.6,0.3,12.1z"/>
	<path class="st3" d="M0.3,1.5L0.3,1.5H0.1C0,0.6-0.1-0.3,1.3,0.1C0.9,0.5,0.4,0.9,0.3,1.5z"/>
	<path class="st4" d="M130.3,385.1c2,0,4-0.1,6-0.1c7,0,14,0,21,0c0.4,0,0.8,0,1.2,0c0-0.1,0-0.1,0-0.2c-4.6-0.6-9.3-1.2-13.9-1.8
		c-4-0.5-8-1.1-11.9-1.6c-4-0.5-8.1-1-12.1-1.5c-4.6-0.6-9.2-1.2-13.8-1.8c-4.1-0.5-8.1-1-12.2-1.5c-3.4-0.4-6.7-0.9-10.1-1.3
		s-6.9-0.9-10.3-1.3c-3.9-0.5-7.9-1-11.8-1.5c-3.4-0.4-6.8-0.9-10.2-1.3c-2.6-0.3-5.3-0.7-7.9-1c-0.8-0.1-0.5-0.5-0.4-0.9
		c1.2-4.6,2.4-9.2,3.6-13.8c1.9-7.2,4-14.4,6.4-21.4c4.7-13.4,9.4-26.9,14.7-40.1c0.9-2.3,1.8-4.6,3.4-6.6c1-1.3,2.6-1.7,4.1-2
		c0.9-0.2,0.7,0.7,0.5,1.3c-0.5,1.8-1.1,3.5-1.6,5.3c-3.3,11-5.9,22.2-8.4,33.4c-1.6,7.2-2.8,14.5-3.9,21.8
		c-0.7,5.2-1.2,10.4-1.6,15.6c-0.1,1.1,0,2.2,0.3,3.2c0.4,1.9,2.2,2.8,4.6,2.3c6.1-1.3,12.1-2.7,18.2-4c9.2-2,18.4-3.9,27.7-5.4
		c6.2-1.1,12.5-1.8,18.8-2.5c5.9-0.6,11.7-1.2,17.6-1.7c5.4-0.4,10.7-0.8,16.1-1.2c4.2-0.3,8.4-0.5,12.7-0.7
		c6.5-0.3,12.9-0.6,19.4-0.8c3-0.1,5.9-0.1,8.9-0.2c2,0,4-0.5,6-0.2c-1,0-1.9,0.1-2.9,0.1c-0.6,0-0.8,0.2-0.8,0.8c0,0.7,0,1.4,0,2
		c-0.1,12.2-0.2,24.4-0.3,36.7c-0.5,0.5-1.2,0.3-1.8,0.2c-2.4-4.2-6-6.1-10.8-6.1c-20.5,0.1-41.1,0.1-61.6,0.1
		C132.1,385.2,131.2,385.4,130.3,385.1z"/>
	<path class="st0" d="M65.2,428.6c1.8-1.4,3.5-2.7,5.1-4c7.9-6.1,15.9-12.2,23.8-18.2c1-0.8,2.1-1.5,1.8-3c-0.3-1.5-1.6-2.1-2.9-2.4
		c-1.2-0.2-1.3-0.7-0.9-1.7s0.3-2.4,1-3s2.1-0.2,3.1-0.2c10.8,0,21.6,0,32.4-0.1c1,0,1.2,0.2,1,1.2c-0.4,2.1-0.9,3.6-3.6,3.9
		c-2.5,0.2-4.5,2.1-6.5,3.7c-9.4,7.5-18.7,15-28.1,22.5c-0.8,0.6-0.9,1-0.3,2c5.2,8,10.4,16,15.8,23.9c1.9,2.9,4.2,5.3,7.4,6.8
		c1,0.5,2,0.7,3.1,0.8c0.6,0,0.7,0.3,0.5,0.8v0.1c-0.3,1.3-0.3,3-1.2,3.8c-0.9,0.8-2.6,0.3-3.9,0.3c-5.9-0.1-11.8,0.2-17.7-0.3
		c-6.3-0.6-11.5-3-15.3-8.2c-5.3-7.2-10.9-14.3-15.5-22c-0.1-0.2-0.3-0.5-0.6-0.9c-0.6,2.3-1.1,4.3-1.7,6.4
		c-1.3,4.7-2.6,9.4-3.9,14.2c-0.6,2.3,0.3,4,2.9,5.2c1.8,0.8,1.8,0.8,1.3,2.7c-0.7,2.8-0.7,2.8-3.6,2.8c-10.9,0-21.8,0-32.6,0
		c-1.2,0-1.4-0.3-1-1.3c0.1-0.2,0.1-0.4,0.1-0.6c0.3-1.9,0.8-3.1,3.2-3.5c3.1-0.4,4.7-3.1,5.9-5.8c2.1-4.6,3.1-9.6,4.4-14.4
		c2.9-10.4,5.7-20.8,8.6-31.3c0.2-0.6,0.3-1.2,0.4-1.7c0.5-3.2-0.8-5.2-4.1-6.2c-0.8-0.2-1.1-0.4-0.8-1.3c0.4-1.1,0.3-2.6,1-3.4
		c0.8-0.7,2.3-0.2,3.5-0.2c10.1,0,20.2,0,30.3-0.1c1.2,0,1.4,0.3,1,1.3c0,0.1,0,0.2,0,0.2c-0.3,1.8-0.8,3.3-3.1,3.8
		c-2.2,0.5-3.4,2.5-4,4.7c-2,7.3-4,14.5-6,21.7C65.3,428.1,65.2,428.2,65.2,428.6z"/>
	<path class="st0" d="M157.2,423.7c8.1,0,16.1,0,24.3,0c-1.4,5.7-2.8,11.2-4.2,16.9c-3.1-3.3-7-3.7-11.1-3.7c-4,0-8,0-12,0
		c-0.6,0-1,0.1-1.2,0.8c-1.4,5.4-2.9,10.7-4.3,16.1c-0.8,3.2,0.3,5.4,3.4,6.7c0.8,0.3,0.9,0.7,0.7,1.4c-0.3,1-0.5,2-0.7,3
		c-0.1,0.7-0.4,0.9-1.1,0.9c-9.9,0-19.7-0.1-29.6,0c-0.8,0-1-0.1-0.8-1c2.3-8.3,4.6-16.7,6.9-25c2.9-10.5,5.8-21,8.7-31.5
		c1.1-4-0.2-6.2-4.1-7.3c-0.6-0.2-0.6-0.4-0.5-0.9c0.7-3.8,0.7-3.8,4.6-3.8c15.6,0,31.1,0,46.7,0c4,0,7.9,0,11.9,0
		c0.8,0,1.1,0.1,0.9,1.1c-1.4,5.6-2.8,11.1-4.2,16.7c-0.1,0.5-0.2,1.1-1,0.9c-0.6-0.2-1.4,0.5-1.8-0.7c-0.7-2.2-2.6-3.1-4.7-3.6
		c-0.8-0.2-1.7-0.2-2.5-0.2c-6.5,0-13,0-19.4,0c-0.6,0-1,0-1.2,0.8c-1,4-2.1,8-3.2,12C157.3,423.2,157.3,423.4,157.2,423.7z"/>
	<path class="st0" d="M256.8,450.1c-1,4.1-2.1,7.9-2.7,11.8c-0.4,2.3-1.4,2.9-3.5,3.3c-8.9,1.5-17.8,2.4-26.9,1.9
		c-8.2-0.5-16.1-2.2-23.2-6.7c-12.3-7.8-16.8-22.1-11-35.6c3.6-8.4,9.7-14.7,17.3-19.5c8.2-5.2,17.3-8,26.9-9.2
		c10.1-1.3,20-0.8,29.8,1.8c2,0.6,2,0.5,1.5,2.6c-1.3,4.7-2.6,9.4-3.9,14.1c-0.3,1.1-2.3,1.7-3,0.8c-3.7-4.6-8.6-6.3-14.2-6.5
		c-7.6-0.3-14.8,0.8-21.4,4.9c-7.9,4.9-11.7,13.5-9.9,22.4c1.3,6.5,5.3,11,11,14c6.5,3.3,13.4,3.8,20.4,2.8
		C248.3,452.5,252.4,451.4,256.8,450.1z"/>
	<path class="st4" d="M266.4,351.7c3-0.2,5.9,0.1,8.9,0.2c0.6,0,1.1,0,1.7-0.2c0.4-0.2,0.9-0.3,0.9-0.8s-0.4-0.8-0.8-0.9
		c-1.6-0.7-3.3-1.1-5.1-1.4c-1.3-0.3-2.7-0.4-4-0.7c-1.8-0.3-2.5-1.1-2.6-2.9c-0.2-3.7-0.3-7.3-0.5-11c-0.3-4.8-0.6-9.5-1.1-14.3
		c-0.4-3.6-0.6-7.2-1-10.8c-0.4-3.8-0.9-7.5-1.3-11.3c-0.7-5.9-1.8-11.8-2.7-17.7c-0.6-3.7-1.2-7.4-1.8-11.1
		c-0.3-1.9-0.1-2.6,1.1-2.9c0.5-0.1,0.9,0,1.3,0.1c2.9,0.8,5.7,1.9,7.2,4.7c0.9,1.7,1.1,3.6,1.6,5.4c2.6,10.5,5.2,21,7.8,31.5
		c3.4,13.8,6.7,27.6,10.3,41.3c1.2,4.5,2.3,8.9,3.5,13.4c0.1,0.5,0.1,1,0,1.5c-3,11.4-6,22.9-9,34.3c-0.5,2-1,2.3-3.1,2
		c-0.3,0-0.6,0-1,0c0.3-3.1-0.3-6-2.3-8.4c-0.8-0.9-1.6-1.8-2.7-2.4c-0.8-0.4-1.1-1-1.2-1.9c-0.7-6.9-1.5-13.7-2.3-20.6
		C267.4,361.8,266.9,356.8,266.4,351.7z"/>
	<path class="st4" d="M217.9,351.5c8.1,0,16.2-0.1,24.3,0c4.4,0.1,8.7,0.1,13.1,0.2c0.3,0.4,0,0.8,0.2,1.2c0,0.5,0,0.9,0.1,1.4
		c0.2,0.5,0,1,0.2,1.5c0,0.5,0,0.9,0.1,1.4c0.1,0.4,0.1,0.8-0.1,1.2c-0.2,0.5-0.1,0.9,0.3,1.2c0,0.1,0,0.3,0,0.4
		c0.2,0.6,0,1.2,0.2,1.7c0,0.4,0,0.9,0.1,1.3c0.2,0.5,0,1,0.2,1.5c0,0.4,0,0.9,0.1,1.3c0.2,0.5,0,1,0.2,1.5c0,0.5,0,0.9,0.1,1.4
		c0.1,0.4,0.1,0.8-0.1,1.2c-0.2,0.5-0.1,0.9,0.3,1.3c0,0.1,0,0.3,0,0.4c0.1,0.4,0.1,0.8,0,1.2c-0.2,0.4-0.1,0.8,0.2,1.1
		c0,0.2,0,0.4,0,0.6c0.1,0.4,0.1,0.8,0,1.2c-0.2,0.4-0.1,0.8,0.2,1.1c0,0.2,0,0.4,0,0.6c0.1,0.4,0.1,0.8-0.1,1.2
		c-0.2,0.5-0.1,0.9,0.3,1.2c0,0.1,0,0.3,0,0.4c0.1,0.4,0.1,0.8-0.1,1.2c-0.2,0.5-0.1,0.9,0.3,1.2c0,0.1,0,0.3,0,0.4c0.2,1,0,1.7-1,2
		c-0.9,0.1-1.7-0.1-2.6-0.3c-0.4-0.2-0.9,0-1.3-0.2c-0.4,0-0.8,0-1.1-0.1c-0.6-0.2-1.2,0.1-1.8-0.2c-0.4,0-0.7,0-1.1,0
		c-0.4-0.4-0.9-0.3-1.4-0.2c-0.8,0.1-1.8,0.7-2.4-0.5c0-0.4,0-0.9-0.1-1.3c-0.2-0.5,0-1-0.2-1.5c0-0.4,0-0.9-0.1-1.3
		c-0.2-0.5,0-1-0.2-1.5c0-0.4,0-0.8-0.1-1.1c-0.2-0.4-0.1-0.8,0-1.2c0.2-0.4,0.1-0.8-0.2-1.1c0-0.2,0-0.4,0-0.6
		c-0.1-0.4-0.1-0.8,0.1-1.2c0.2-0.5,0.1-0.9-0.3-1.2c0-0.1,0-0.3,0-0.4c-0.2-0.5,0-1-0.2-1.5c0-0.4,0-0.8-0.1-1.1
		c-0.2-0.5,0-1-0.2-1.5c0-0.4,0-0.9-0.1-1.3c-0.1-0.3-0.1-0.7,0.1-1c0.3-0.5,0.1-0.9-0.3-1.3c0-0.1,0-0.3,0-0.4
		c-0.4-0.6,0.6-1.4-0.2-2c0-0.2,0-0.4,0-0.6c-0.2-0.5,0-1-0.2-1.5c0-0.4,0-0.7-0.1-1.1c-0.2-0.5,0-1-0.2-1.5c0-0.4,0-0.8-0.1-1.1
		c-0.2-0.5,0-1-0.2-1.5c0-0.1,0-0.2,0-0.2c-0.2-1.7-0.2-1.7-1.9-1.7c-2.7,0-5.4,0-8,0c-0.8,0-1,0.2-1,1c0.6,9.4,1.3,18.7,1.9,28.1
		c0.1,1.2,0.1,2.3,0.3,3.5c0.1,0.6,0,0.8-0.7,0.9c-4.4,0.5-8.9,1.3-13.2,2.6c-0.8,0.2-0.7-0.2-0.8-0.7c-0.2-6.2-0.5-12.5-0.7-18.7
		c-0.2-5.3-0.4-10.6-0.5-15.8C218,352.1,217.9,351.8,217.9,351.5z"/>
	<path class="st5" d="M267.2,398.9c0-1.9,1.3-3.3,3.2-3.3c1.9,0,3.4,1.4,3.4,3.3c0,1.8-1.5,3.3-3.3,3.3
		C268.6,402.1,267.2,400.7,267.2,398.9z"/>
	<path class="st6" d="M205.5,391.3c0.5-0.4,1.2-0.1,1.8-0.2c0.4,0.3,1.3,0,1.3,0.4c0.1,0.6-0.8,0.6-1.2,0.9
		c-0.4,0.2-0.8,0.4-1.2,0.6C205.9,392.4,205.7,391.8,205.5,391.3z"/>
	<path class="st4" d="M245.2,383.8c0.7,0.8,1.6,0.7,2.3,0.2c0.8-0.5,1.2-0.4,1.5,0.5c-1,0-2.1,0-3.1,0
		C245.4,384.5,245.1,384.4,245.2,383.8z"/>
	<path class="st4" d="M256.9,385.3c0.4-0.7,1.1-1.1,1-2c0.1,0.3,0.2,0.7,0.2,1C258.2,385.7,258.2,385.7,256.9,385.3z"/>
	<path class="st4" d="M257.6,380c-0.8-0.2-1.1-0.7-0.5-1.4c0.3-0.4,0.3-0.7,0.3-1.1C257.7,378.3,257.6,379.2,257.6,380z"/>
	<path class="st4" d="M256,359.6c-0.8-0.2-1.1-0.7-0.5-1.4c0.3-0.3,0.2-0.7,0.3-1.1C256,357.9,256,358.8,256,359.6z"/>
	<path class="st4" d="M244.2,371.6c0.8,0.2,1.1,0.7,0.5,1.4c-0.3,0.3-0.2,0.7-0.3,1.1C244.1,373.3,244.2,372.4,244.2,371.6z"/>
	<path class="st4" d="M256.9,371.4c-0.8-0.2-1.1-0.7-0.5-1.4c0.3-0.3,0.2-0.7,0.3-1.1C257,369.7,256.9,370.5,256.9,371.4z"/>
	<path class="st4" d="M257.9,382.9c-0.8-0.2-1.1-0.7-0.5-1.4c0.3-0.4,0.3-0.7,0.3-1.1C257.9,381.2,257.9,382.1,257.9,382.9z"/>
	<path class="st4" d="M243.5,363.4c0.8,0.2,1.2,0.7,0.5,1.4c-0.2,0.3-0.3,0.5-0.3,0.9C243.4,365,243.5,364.2,243.5,363.4z"/>
	<path class="st4" d="M257.4,376.9c-0.6-0.1-0.9-0.4-0.5-1c0.3-0.4,0.3-0.8,0.3-1.2C257.5,375.4,257.4,376.1,257.4,376.9z"/>
	<path class="st4" d="M257.2,374c-0.6-0.1-0.9-0.4-0.5-1c0.3-0.4,0.3-0.8,0.3-1.2C257.2,372.5,257.2,373.3,257.2,374z"/>
	<path class="st4" d="M244.5,374.7c0.6,0.1,0.9,0.4,0.5,1c-0.3,0.4-0.3,0.8-0.3,1.2C244.4,376.2,244.5,375.5,244.5,374.7z"/>
	<path class="st4" d="M243.3,361c0.7,0.1,0.9,0.5,0.5,1c-0.2,0.3-0.3,0.6-0.3,1C243.2,362.4,243.3,361.7,243.3,361z"/>
	<path class="st4" d="M256.2,361.8c-0.4-0.5-0.1-1.2-0.2-1.7C256.2,360.6,256.2,361.2,256.2,361.8z"/>
	<path class="st4" d="M250.1,384.6c0.6,0,1.2-0.2,1.8,0.2C251.3,384.8,250.7,384.8,250.1,384.6z"/>
	<path class="st4" d="M243,358.9c0.4,0.5,0.1,1,0.2,1.5C243,359.9,243,359.4,243,358.9z"/>
	<path class="st4" d="M256.4,364.6c-0.4-0.5-0.1-1-0.2-1.5C256.5,363.6,256.4,364.1,256.4,364.6z"/>
	<path class="st4" d="M256.6,367.5c-0.4-0.5-0.1-1-0.2-1.5C256.7,366.5,256.7,367,256.6,367.5z"/>
	<path class="st4" d="M243.8,367c0.4,0.5,0.1,1,0.2,1.5C243.7,368.1,243.7,367.6,243.8,367z"/>
	<path class="st4" d="M244,369.7c0.4,0.5,0.1,1,0.2,1.5C244,370.7,244,370.2,244,369.7z"/>
	<path class="st4" d="M255.7,355.8c-0.4-0.5-0.1-1-0.2-1.5C255.7,354.7,255.7,355.2,255.7,355.8z"/>
	<path class="st4" d="M244.7,378.1c0.4,0.5,0.1,1,0.2,1.5C244.7,379.1,244.7,378.6,244.7,378.1z"/>
	<path class="st4" d="M242.8,356.2c0.4,0.5,0.1,1,0.2,1.5C242.8,357.3,242.8,356.8,242.8,356.2z"/>
	<path class="st4" d="M245,381c0.4,0.5,0.1,1,0.2,1.5C244.9,382,244.9,381.5,245,381z"/>
	<path class="st4" d="M242.6,353.6c0.4,0.5,0.1,1,0.2,1.5C242.5,354.6,242.5,354.1,242.6,353.6z"/>
	<path class="st4" d="M253,384.8c0.4,0,0.9-0.2,1.3,0.2C253.8,385,253.4,385,253,384.8z"/>
	<path class="st4" d="M255.4,352.9c-0.3-0.4-0.1-0.8-0.2-1.2c0.1,0,0.1,0,0.2,0C255.4,352.1,255.4,352.5,255.4,352.9z"/>
	<path class="st4" d="M244.4,249c-1.2-1-2.1-2.3-2.9-3.6c-2-3.4-4.5-6.4-7.2-9.3c-0.9-1-0.9-2.1-0.5-3.2c1.3-4.4,2.5-8.8,3.3-13.3
		c0.5-2.7,0.9-5.3,1.3-8c0.4-2.3,1.6-3.8,3.9-4.6c3.2-1.1,4.6-3.2,4.6-6.5c-0.1-7.4,2.4-14,5.9-20.4c5-9.1,8.9-18.7,10.8-28.9
		c0.9-4.7,1-9.4-0.4-14.1c-0.6-2.2-1.6-4.2-3.1-5.9c-2.1-2.4-2.3-4.9-1-7.8c2.8-5.8,4.6-12,5.5-18.4c0.4-2.8,0.3-5.7-0.2-8.5
		c-0.1-0.6-0.4-1.3-0.9-1.6c-2.1-1.4-2.9-3.6-3.1-5.9c-0.9-10.7-3.2-21-7.5-30.9c-3.2-7.6-7.4-14.6-12.7-20.9
		c-0.2-0.2-0.4-0.4-0.3-0.8c3.9,0.5,7.7,1,11.6,1.5c4.1,0.5,8.1,1.1,12.2,1.6c4,0.5,8,1,12,1.5c4.1,0.5,8.1,1.1,12.2,1.6
		c5.3,0.7,10.7,1.4,16,2.1c4.6,0.6,9.2,1.2,13.8,1.7c5.3,0.7,10.7,1.4,16,2.1c4.7,0.6,9.3,1.2,14,1.8c4.6,0.6,9.2,1.2,13.9,1.8
		c2.6,0.3,5.2,0.7,7.8,1c1.4,0.2,2.1,1.1,1.7,2.5c-1.9,7.3-3.8,14.5-5.7,21.7c-2.5,9.4-5,18.8-7.5,28.2
		c-4.3,16.3-8.6,32.6-12.9,48.9c-4.7,17.9-9.4,35.8-14.1,53.7c-4.1,15.4-8.1,30.8-12.2,46.3c-1.7,6.4-3.4,12.8-5.1,19.2
		c-0.3,1.1-0.8,1.1-1.7,0.9c-4.4-1-8.8-2-13.2-3.1c-7.6-1.8-15.1-3.5-22.7-5.3c-0.9-0.2-1.8-0.5-2.3-1.2c-1.8-2.4-4.3-3.7-6.9-5.1
		c-6.6-3.5-13.5-6.3-20.1-9.6c-0.5-0.3-1-0.6-1.5-0.9C244.7,249.3,244.5,249.2,244.4,249z"/>
	<path class="st4" d="M91.1,249.4c-2.3,4.7-4.1,9.6-6,14.5c-0.9,2.4-2.4,4.1-4.9,4.9c-2.6,0.9-5.1,2-7.8,2.8c-3,1-5.7,2.6-7.9,4.9
		c-2,2.1-4.4,3.3-7.2,3.9c-9.9,2.4-19.7,5.2-29.4,8.5c-7.2,2.5-14.3,5.1-21.2,8.2c-0.1,0.1-0.2,0.1-0.2,0c0-33.4,0.1-66.9-0.1-100.3
		c-0.3-50.5,0-101-0.3-151.5C6,33.2,6.1,21.2,6,9.1C6,7,6.6,6.4,8.6,6.6C12,7,15.5,7.5,18.9,7.9c4.1,0.5,8.1,1,12.2,1.6
		c4,0.5,8,1,12,1.5c4.1,0.5,8.1,1.1,12.2,1.6c4.6,0.6,9.2,1.2,13.9,1.8c4.1,0.5,8.1,1,12.2,1.6c3.9,0.5,7.9,1,12.1,1.6
		c-1.3,0.6-2.4,0.8-3.5,1c-2.9,0.7-5.9,1.3-8.9,2s-4.1,2.8-3.3,6.2c0.7,2.8,1,5.5-0.1,8.2c-0.7,1.8-1.9,3.4-3.1,4.9
		c-4.9,5.8-10.1,11.2-16.5,15.4c-1.5,1-3.1,1.7-4.8,2.5C49,59.9,47.5,63.4,49,68c1,3.1,2.5,5.9,4.1,8.7c2.6,4.6,3.4,9.5,3,14.8
		c-0.6,6.6-2.8,12.7-5,18.8c-0.3,0.7-0.7,1.5-1.1,2.1c-2,3-1.8,6,0,9c1.8,3.1,4.2,5.7,6.6,8.3c1.5,1.6,1.6,2.3,0.5,4.1
		c-1.4,2.4-1.8,5-2,7.7c-0.3,3.6,0.4,7,1.3,10.5c2.4,9.4,6.5,18,11.7,26.1c0.7,1,1.5,2,2.2,3c1.6,2.6,1.6,5.4,1.2,8.2
		c-0.5,3.7-0.7,7.3,1.1,10.8c1.5,2.9,3.7,5.2,6.5,6.7c3.1,1.7,4.4,4.3,5.1,7.6c1.6,7.5,4.3,14.7,8.2,21.4c0.7,1.1,1.2,2.3,1.9,3.5
		c0.6,1,0.5,1.8,0,2.8c-1.2,2.3-2.3,4.6-3.2,7C91.2,249.1,91.3,249.3,91.1,249.4z"/>
	<path class="st7" d="M132.6,57c9.4-1.2,18.5-0.3,27.1,4c0.4,0.2,0.7,0.3,1.1,0.5c1.4,0.7,2.6,0.6,3.8-0.5c1.4-1.3,3-2.5,4.6-3.7
		c0.9-0.7,1.1-1.5,0.7-2.5c0.8-0.9,1.9-1.4,2.9-2.1c2.2-1.5,4.5-2.8,6.9-3.9c3.5-1.6,7-1.9,10.7-1c7.2,1.8,14.2,4,20.9,7.2
		c4.4,2.1,8.5,4.8,12,8.3c4.1,4.2,7.7,8.9,9.8,14.5c0.3,0.7,0.8,1.4,0.3,2.1c-0.8,0.3-0.8,1-0.8,1.7c0.2,4,0.4,8,0.6,12
		c0.1,0.9,0,1.7-0.1,2.5c-0.4,3.9,1,7.3,2.8,10.5c1.4,2.5,3.1,4.8,4,7.6c1.1,3.5,1.3,7,1.4,10.6c0,0.9-0.6,1.3-1.8,1.1
		c-2.7-0.5-5.4-0.9-8.1-1.5c-3.7-0.8-7.5-1-11.3-1.1c-8.5-0.3-16.9-0.5-25.4-0.2c-5.6,0.2-11.1,0.8-16.2,3.4c-1.8,0.9-3.4,2.1-5,3.3
		c-1.4,1.1-2.9,1.4-4.7,1c-3.5-0.8-7-0.8-10.5,0.4c-1.9,0.6-3.6,0.2-5.2-1c-2.3-1.7-4.5-3.6-7-5c-4.4-2.5-9.2-3.8-14.2-4.3
		c-7-0.7-14-1.2-21-1.2c-0.4-0.4-0.2-0.9-0.1-1.4c0.7-3.8,1.2-7.6,1.5-11.5c0.2-2.8,1.1-5.5,1.8-8.2c1.1-4.4,2.4-8.9,3.8-13.2
		c2.5-7.6,5.5-15,10.2-21.6c0.5-0.7,1-1.4,1.6-2.1C131.1,60.4,132.3,59,132.6,57z"/>
	<path class="st7" d="M215.4,249.5c-5.4,5.5-11.2,10.4-17.9,14.3c-1.6,1-3.3,1.8-5,2.7c-2.3,1.1-4.7,0.7-6.4-1.1
		c-0.6-0.6-1.1-1.1-1.7-1.7c-0.5-0.7-0.3-1.5-0.4-2.2c-0.6-4.7-2.2-9.1-4.1-13.3c-1-2.3-1.3-4.6-1.2-7c0.1-2.4,0.2-4.8,0.8-7.1
		c0.1-0.3,0.3-0.8,0-1c-0.4-0.3-0.7,0.1-1.1,0.3c-0.7,0.5-1.1,1.1-1.3,1.9c-0.3,1.5-0.8,2.8-1.8,4c-0.6,0.7-1.4,1.1-2.3,0.8
		c-0.9-0.3-1.4-1-1.5-2c-0.1-0.8,0-1.5-0.1-2.3c-0.1-1.8-0.9-2.6-2.7-2.2c-2.8,0.6-5.6,0.1-8.5,0.1c-0.3,0-0.5-0.1-0.8-0.3
		c-0.4-2.3-1.7-3.6-4-4.1c-1.1-0.2-2.2-0.7-3.1-1.4c-1.1-0.9-1.1-1.6,0-2.4c3.5-2.4,7.3-3.2,11.5-2.7c7,0.8,14,1.2,20.9-0.7
		c2.8-0.8,5.6-1.6,8.5-2.5c0.9-0.3,1.6-0.1,2.4,0.3c0.3,0.2,0.6,0.3,1,0.5c2.7,1.2,4,3.2,3.8,6.3c-0.2,2.7,0,5.4,0.7,8.1
		c0.5,1.9,1.5,2.1,2.9,0.8c1.7-1.6,2.2-3.8,2.7-6c0.5-2.4,0.8-4.8,1.7-7.1c0.4-1.2,1.1-2.3,2-3.2c3.2-2.9,4.6-6.7,5.2-10.9
		c0.1-1.1,0.2-2.3,0.3-3.5c0.1-0.3,0.1-0.6,0.1-0.9c-0.1-0.9,0.3-1.5,1-2.2c3.1-2.8,3.8-6.9,1.9-10.6c-0.7-1.3-1.5-2.5-2.6-3.6
		c-4.7-4.5-8.9-9.3-13.2-14.2c-3.2-3.6-7.2-6-12.3-6.3c-2.1-0.1-4,0.4-5.6,1.7c-0.5,0.4-0.8,0.9-0.8,1.5c0,0.8,0,1.6,0.1,2.4
		c0.2,1.6,1,3,0.8,4.7c-0.1,0.9-0.3,1.8-1.1,2.3c-3.8,2.8-7.9,5-12.7,5.8c-4.5,0.8-8.6-0.6-12.5-2.8c-0.3-0.2-0.5-0.5-0.6-0.9
		c-0.9-3.4-2.3-6.7-2.1-10.3c0.1-1.8,0.4-3.6,0.9-5.3c0.2-0.6,0.3-1.2,0.6-1.7c1.6-3.7,1.8-7.6,2-11.6s0.8-7.9,1.3-11.9
		c0.1-1.1,0-2.3,0.7-3.2c1.8-0.4,3.6-0.6,5.4,0.2c1.6,0.7,2.6,1.9,3,3.6c0.6,2.7,1.4,5.3,3.1,7.5c2.3,2.9,2.7,2.9,5.7,0.7
		c1.8-1.3,1.9-2.1,0.8-4.1c-0.1-0.2-0.3-0.5-0.4-0.7c-0.3-0.7-0.8-1.5-0.1-2.1c0.6-0.5,1.4-0.2,2.1,0.2c1.6,0.9,3.3,1.8,5,2.5
		c4.9,1.8,10,2.1,15.2,1.1c2-0.4,3.9-0.7,5.9-1.1c2.1-0.3,3.5,0.4,4.5,2.3c0.4,0.8,0.8,1.5,1.4,2.2c-2.1,1.1-2.1,1.1-1.2,3.5
		c0.8,2.2,0.3,4.3-0.8,6.3c-0.9,1.4-1.9,2.8-3.1,3.9c-0.5,0.5-1,1-0.9,1.7c0.1,1.7,1.3,2.9,3,3c1.6,0,3.1-0.5,4.7-0.6
		c6-2.7,9.5-7.4,11.5-13.4c1.5-4.6,2.5-9.4,3.6-14.2c0.3-1.5,1.2-2.6,2.5-3.3c2-1.1,4.1-2.1,6.3-2.9c1.5-0.6,2.2-0.2,2.8,1.4
		c0.5,1.3,0.5,2.7,0.6,4.1c0.2,3.9,0.4,7.9,0.5,11.9c0,0.4,0,0.9,0.2,1.3c0.2,0.6,0.7,0.7,1.2,0.6c2.9-0.7,5.1-5,3.8-7.7
		c-0.3-0.6-0.7-1.2-1.1-1.9c-1.3-2.3-0.6-4.6,1.9-5.9c2.3-1.2,4.5-0.5,5.7,1.8c1.1,2.2,1.2,4.6,1.1,7c-0.2,7.4-2.4,14.2-5.2,20.9
		c-1.7,4.1-4,7.9-5.8,11.9c-1.5,3.2-2.7,6.5-3.7,9.9c-0.2,0.6-0.4,1.1-0.7,1.6c-0.3,0.6-0.9,0.9-1.5,0.8s-1.1-0.5-1.3-1.1
		c-0.1-0.3-0.2-0.7-0.3-1c-0.1-0.4-0.1-1-0.6-1c-0.4,0-0.7,0.5-0.9,0.9c-1,2.5-2.5,4.7-4.2,6.8c-0.7,0.9-0.8,2.1-0.8,3.2
		c0,4.8-0.2,9.5-0.8,14.2c-1.3,11.3-4.4,22.1-11.1,31.5c-0.9,1.2-1.9,2.4-2.8,3.6C215.8,249.2,215.6,249.3,215.4,249.5z"/>
	<path class="st8" d="M233.4,80c-0.6-3-2.1-5.6-3.7-8.1c-1.8-2.9-4-5.6-6.4-8c-2.8-2.8-5.9-5.2-9.4-7.1c-7.4-4-15.4-6.5-23.5-8.6
		c-5.3-1.4-9.8,0.3-14.2,2.8c-2.2,1.2-4,2.8-6.3,3.9c-2.4-2.6-5.2-4.7-8.2-6.6c-7-4.7-14.6-8-23-9.3c-7.4-1.2-14.8-1.1-22.2-0.2
		c-4.4,0.5-8.7,1.4-13.1,2.4c-0.5,0.1-1,0.2-1.5,0.2c-0.6,0-1.2-0.3-1.5-0.8c-0.4-0.6,0.1-1,0.4-1.4c1.2-1.4,2.6-2.5,4.1-3.5
		c6.7-4.7,13.7-8.7,21.7-10.9c0.2-0.1,0.5-0.1,0.7-0.2c0.8-0.4,1.1-1,1.1-1.8c-0.1-0.9-0.8-1.2-1.5-1.3c-1.6-0.3-3.2-0.3-4.8-0.3
		c-0.8,0-1.8,0.3-2.1-0.6c-0.3-1,0.7-1.5,1.3-1.9c2.8-2,6-3.1,9.3-4c10.7-3,21.5-5.1,32.6-4.9c13.1,0.2,25.7,3.2,37.7,8.5
		c8.2,3.6,16,8,22.7,13.9c13.3,11.8,22.3,26.3,26,43.8c2.2,10.4,2.7,20.9,1.9,31.5c-0.1,1.6-0.4,3.1-0.8,4.6c-0.1,0.3-0.2,0.7-0.4,1
		c-0.3,0.6-0.7,1.4-1.5,1.3c-0.8,0-1-0.8-1.2-1.5c-1.6-4.8-3.4-9.6-5.3-14.2c-2.3-5.7-4.8-11.4-7.6-16.9
		C234.4,80.9,234.1,80.3,233.4,80z"/>
	<path class="st8" d="M228.1,249.2c0.3-0.6,0.7-1.2,1-1.8c0.5-0.9,1-0.9,1.7-0.2c0.6,0.6,1,1.3,1.5,2c0.1,0.1,0.1,0.2,0.2,0.2
		c1.6,3.3,2,6.8,2.2,10.5c0.7,12.6-1.9,24.6-5.4,36.5c-2.6,8.9-5.7,17.7-9.8,26c-0.4,0.8-1,1.8-0.1,2.3s1.5-0.5,2-1.1
		c2.3-2.8,4-5.9,5.6-9c7.6-14.8,13.3-30.2,16.8-46.5c0.8-0.4,0.7,0.3,0.8,0.7c0.2,1.2,0.3,2.5,0.5,3.7c1.5,11.4,1.4,22.9,1.2,34.3
		c-0.1,5.8-0.3,11.6-0.5,17.4c-0.1,4.2-0.5,8.4-0.8,12.5c-0.2,2.5-0.4,5-0.6,7.5c-0.1,1.7-0.3,1.9-2,1.7c-14-0.5-28-0.9-42.1-1.2
		c-5.2-0.1-10.3-0.1-15.5-0.2c-2.1,0-2.3-0.3-2.4-2.4c-0.3-9.1-2-17.9-5.2-26.4c-0.1-0.2-0.1-0.4-0.2-0.6c0.5-0.2,0.8,0.3,1.1,0.5
		c2.3,2.2,4.5,4.5,6.6,6.9c3.2,3.6,7,6.6,11,9.3c3.1,2.1,6.1,2.3,9.2,0.2c0.2-0.1,0.4-0.2,0.6-0.3c0.5-0.4,0.5-0.8,0.3-1.4
		c-0.5-1.5-1.3-2.8-2.2-4.1c-3.4-4.9-7.2-9.4-10.9-14c-0.3-0.3-0.6-0.7-0.8-1c-0.2-0.4-0.8-0.8-0.4-1.3c0.3-0.4,0.9-0.4,1.3-0.3
		c2.6,0.3,5.2,0.7,7.7,0.9c0.9,0.1,1.8,0.2,2.6,0.1c2.9-0.1,4.8-1.8,5-4.8c0.2-4.3,0.2-8.6,0.2-12.9c0-0.7,0.1-1.4,0-2.2
		c0-2.4-1.1-3.8-3.5-4.4c-3-0.7-6-0.8-9.1-0.6c-2.2,0.1-4.5,0.4-6.7,0.8c-0.6,0.1-1.5,0.5-1.7-0.2c-0.3-0.8,0.7-1.1,1.2-1.4
		c2.1-1.2,4.3-2.4,6.4-3.7c11.2-6.6,20.9-15,28.6-25.5c1.5-2,2.9-4.1,4-6.4C228,249.5,227.9,249.3,228.1,249.2z"/>
	<path class="st8" d="M132.6,344.4c-10.6,0.4-21.2,0.8-31.7,1.3c-3.6,0.2-7.2,0.4-10.8,0.6c-1.3,0.1-2.6,0.1-3.8,0.1
		c-2.6-0.1-3.9-1.2-4.3-3.7c-0.8-4.5-1-9.1-0.8-13.7c0.3-8.3,0.8-16.5,1.9-24.7c0.4-3.4,0.9-6.8,1.7-10.2c0.2-0.6,0.5-0.6,0.7-0.1
		c0.4,0.8,0.7,1.7,1,2.6c1,3.2,2.1,6.4,3.3,9.5c2.2,5.7,5.2,11.1,8.7,16.1c1.5,2.2,3.2,4.2,4.6,6.5c0.9,1.5,2.2,2.7,3.4,4
		c2,2.3,3.9,4.7,6.4,6.5c2.7,2,7.3,1.5,9.5-1.1c0.5-0.6,0.6-1.3,0.8-2c0.1-1.3-0.5-2.4-1.2-3.4c-5-7.2-9.5-14.7-12.8-22.8
		c-3.6-9.1-5.8-18.5-7.3-28.1c-0.8-4.9-0.5-9.9,0.2-14.8c0.6-0.1,0.9,0.4,1.2,0.7c4,4.1,8.2,7.9,12.2,12c2.8,2.8,6.2,4.9,9.3,7.3
		c0.4,0.3,1,0.4,0.8,1.1c-0.9,0.3-1.7,0.8-2.4,1.5c-0.7,0.4-1.4,0.5-2.2,0.6c-2.9,0.7-4.8,2.6-4.9,5.6c-0.2,5.3,0.2,10.5,1.6,15.7
		c0.1,0.3,0.2,0.5,0.3,0.8c1.2,3.4,3.8,4.7,7.3,4.8c3.4,0,6.8-0.3,10.2-0.6c1.2-0.1,2.3-0.1,3.5-0.3c0.4-0.1,0.8,0,1.1,0.3
		c-2.5,3.4-4.9,6.9-6.4,10.9c-0.2,0.6-0.5,1.3-0.7,1.9c-0.2,0.5-0.3,1,0.2,1.3s0.8-0.1,1.1-0.4c0.4-0.4,0.8-0.9,1.2-1.4
		c3.6-4.7,7.6-9.1,12.2-12.8c0.8-0.6,1.7-0.7,2.6-0.7c0.8,0,1.1,0.5,0.6,1.1c-3.8,4.6-5.9,10.1-9,15.1c-2.1,3.4-4.3,6.8-6.6,10.1
		c-0.5,0.7-0.9,1.3-1.3,2C133.6,344,133.2,344.3,132.6,344.4z"/>
	<path class="st8" d="M159.4,233.4c1.6,0,3.1-0.1,4.7,0.2c1.5,0.2,3.1-0.1,4.6-0.4c1.8-0.3,2.9,0.5,3,2.3c0,0.8,0,1.6,0,2.4
		c0,0.9,0.4,1.6,1.2,1.9c0.8,0.3,1.6,0,2.1-0.8c0.9-1.2,1.5-2.5,1.7-4c0.1-0.9,1.5-2.4,2.4-2.6c0.7-0.1,1.1,0.1,0.8,0.9
		c-0.9,2.5-0.8,5.1-1,7.7c-0.3,3.4,1,6.5,2.3,9.6c1.8,4.1,3.1,8.4,3.1,13c-1,0.1-1.5,0.7-1.4,1.9c0.1,0.8,0.3,1.7,0.4,2.5
		c0.7,3.5-0.8,6.2-2.6,8.9c-1.6,2.4-3.6,4.5-5.1,6.9s-2.7,5-2.8,7.9c0,0.8-0.5,1.1-1.2,1.1c-1.1,0-2-0.4-2.7-1.1
		c-6.4-5.8-13-11.2-17.5-18.8c-2.9-4.9-3.7-10.1-2.2-15.5c0.7-2.7,1.5-5.4,2.2-8.1c-0.1-0.1-0.1-0.1-0.1-0.2l0.1-0.1
		c1.2-4.2,1.1-8.3,0.2-12.5c-0.1-0.6-0.7-1.4,0.2-1.8c0.7-0.4,1.4,0.2,1.9,0.7c1.3,1.3,2,2.9,3,4.4c0.4,0.6,0.7,1.5,1.5,1.4
		c0.7-0.2,0.7-1.1,0.9-1.8C159.8,237.5,159.5,235.4,159.4,233.4z"/>
	<path class="st8" d="M10.2,365.7c-0.3,0-0.6,0-0.8-0.1c-2.2-0.2-2.6-0.7-2.6-2.9c0-18.8-0.1-37.5-0.1-56.3c0.1-0.3,0.4-0.2,0.6-0.3
		c4.6-1.6,9.1-3.1,13.7-4.7c2.5-0.9,5.1-1.7,7.5-2.7c4.1-1.6,8.1-1.5,12.1,0.4c0.3,0.4,0,0.7-0.2,1c-3.2,5-5.2,10.5-7.3,16
		c-1.8,4.5-3.4,9.2-4.9,13.8c-0.3,1-0.7,1.9-1.2,2.9c-3.2,6.4-6.4,12.7-9.5,19.1c-2,4.2-4.1,8.3-6.1,12.5
		C10.9,364.8,10.8,365.4,10.2,365.7z"/>
	<path class="st8" d="M295.2,341.7c-2.4-8.2-4.8-16.1-7.2-24c-3.7-12.3-7.5-24.6-11.2-36.9c-0.3-1-0.5-2-0.7-3
		c-0.2-1.3,0.3-2,1.6-2.1c1.7-0.1,3.3,0.4,4.9,0.8c9.1,1.9,18.2,3.8,27.3,5.6c1,0.2,1,0.5,0.8,1.3c-4.9,18.6-9.8,37.2-14.8,55.8
		C295.7,339.9,295.5,340.7,295.2,341.7z"/>
	<path class="st8" d="M71.4,113.4c0.2-7.6,0.9-15.2,2-22.8c0.6-3.9,0.2-7.7-1.8-11.3c-1.1-1.9-2.1-3.9-3-5.8
		c-0.8-1.7,0.3-3.4,2.1-3.3c6.4,0.2,12-2.2,17.4-5.3c5.4-3.1,10.4-7,15.9-9.7c5.1-2.5,10.4-4.4,16.1-4.4c0.6,0,1.3,0,1.9,0.2
		c0.8,0.3,0.9,0.9,0.2,1.4c-0.4,0.3-0.8,0.5-1.2,0.7c-9.6,4-16.5,10.9-21.5,19.8c-2,3.5-4.2,6.7-7.6,9.1c-3.8,2.6-5.2,6.6-6.5,10.7
		c-3.2,9.8-4.7,19.9-4.8,30.2c0,0.7,0,1.4-0.2,2.1c-0.1,0.3-0.2,0.6-0.4,0.9c-0.6,0.9-4.9,2.4-5.9,2.1c-0.8-0.3-1-0.9-1.2-1.6
		c-0.6-2-1-4.1-1.2-6.2C71.5,118,71.3,115.7,71.4,113.4z"/>
	<path class="st8" d="M200.8,205.2c-6.4-0.5-12.8-1.2-19.2-1.7c-13.7-0.9-27.3-1.1-40.8,1.6c-2.2,0.4-4.4,0.6-6.7,0.2
		c-1.3-0.3-2.4-0.9-3.2-1.9c-0.9-1.1-0.7-1.7,0.6-2.3c1-0.5,2.1-0.9,3.1-1.3c2.1-1,3.9-2.3,5.4-4c0.7-0.8,1.4-1.5,2.1-2.3
		c2.8-3,7.2-3.7,10.8-1.7c4.3,2.5,9,3.5,14,3.7c2.8,0.1,5.1-0.9,6.7-3.2c1.2-1.7,2.8-2.7,4.7-3.1c3-0.7,5.4-2.5,7.8-4.3
		c1.6-1.2,2.7-1.2,4.3,0c1.7,1.3,3.1,3,4.3,4.8c1.3,1.9,2.5,3.8,3.8,5.7c1.7,2.4,4.1,4,6.9,4.8c0.3,0.1,0.5,0.1,0.8,0.3
		c1.3,0.7,1.5,1.9,0.4,3C205,205.1,202.9,205.3,200.8,205.2z"/>
	<path class="st7" d="M109.6,165.7c-1.6-1.2-3.5-2.1-5-3.4c-3.1-2.7-5.2-5.9-6.6-9.7c-0.4-1.2-0.1-2.1,1-2.7h0.1
		c2.4-1.7,4.6-1.9,6.7,0.6c0.6,0.7,1.4,1.2,2.3,1.4c1.4,0.4,2.5,0.3,3.4-0.9c1.6-2,3.4-3.7,5.7-4.9c3.1-1.6,6.4-1.5,9.7-1
		c3.2,0.5,6.4,1.4,9.7,0.9c1.2-0.2,2.3-0.4,3.5-0.8c0.5-0.2,0.9-0.4,1.4-0.6c0.5-0.1,1-0.3,1.4,0.3c0.3,0.5,0,0.9-0.3,1.3
		c-0.8,0.9-1.6,1.8-2.3,2.7c-1.5,1.1-3.3,1.6-5.1,2.1c-1.8,0.5-2.4,1.2-2,3c0.4,2.1,0,3.9-1.1,5.7c-1.7,2.8-4.1,4.7-7.2,5.8
		c-0.6,0.2-1.2,0.3-1.3,1c-0.6,1.4,0.2,2.8,1.9,3c1.3,0.2,2.6-0.1,3.9-0.3c2.2-0.3,4.5-0.7,6.6-1.5c0.3-0.1,0.7-0.3,1,0
		c-2.8,2.5-4.8,5.5-5.6,9.2c-0.2,1-0.8,1.6-1.7,1.9c-2.3,0.8-4.4,1.9-6.5,2.9c-1.4,0.4-2.3,0.1-3.1-1.1c-1.8-2.9-3.6-5.8-4.9-8.9
		c-0.4-0.9-0.7-1.8-0.8-2.8c-0.1-0.9-0.5-1.4-1.4-1.7C111.9,167,110.6,166.6,109.6,165.7z"/>
	<path class="st9" d="M10.2,365.7c4.4-8.9,8.7-17.8,13.2-26.6c3-5.8,5.3-11.9,7.5-18c2.1-6,4.3-11.9,7.2-17.6
		c0.7-1.5,1.6-2.8,2.4-4.3c2,0.6,4,1.4,6,2.3c1.3,0.6,2,2.6,1.6,4.5c-0.4,2.1-1.5,4-2.3,6c-7.3,17-14.6,34-20.9,51.5
		c-0.4,1.1-0.9,2.1-1.4,3.2c-0.2,0.5-0.4,0.8-1,0.7C18.4,366.8,14.3,366.4,10.2,365.7z"/>
	<path class="st9" d="M132.6,57c0.4,2.1-1.2,3.4-2.3,4.7c-3.2,3.8-5.7,8-7.7,12.5c-4.2,9.5-6.8,19.4-9.3,29.4
		c-0.5,1.9-0.6,3.9-0.7,5.9c-0.3,3.5-0.8,6.9-1.5,10.3c-4.3,0.2-8.6,0.5-12.9,0.7c-1.3,0.1-2.4-0.6-2.4-1.8
		c-0.1-2.1-0.3-4.2,0.3-6.3c0.3-1.2,0.9-2.3,2.1-2.8c3.6-1.6,4.3-4.7,4.8-8.2c1.7-11.4,5-22.2,11.8-31.8c2.5-3.6,5.2-7,8.9-9.5
		C126.3,58.3,129.3,57.2,132.6,57z"/>
	<path class="st9" d="M133.3,249c-6.2-1.7-11-5.5-15-10.3c-6.4-7.8-10.2-16.9-12.2-26.6c-0.9-4.4,0.4-8.7,3.7-12
		c1.6-1.6,3.7-2,5.8-2c1.6,0,2.5,1.3,2.6,3.2c0.5,9.2,2,18.2,5,27c0.8,2.2,1.7,4.3,3.2,6.1c1.3,1.7,2.4,1.5,3.2-0.4
		c0.6-1.3,1.1-2.6,1.7-3.8c0.3-0.8,0.8-1.4,1.8-1.4s1.1,0.9,1.3,1.6c1.1,4.3,2.1,8.6,3.5,12.9c0.3,0.9,0.7,1.9,1,2.8
		c0.4,1.1,0.2,2.1-0.7,2.9c-0.2,0.4-0.7,0.2-1,0.4c-0.8,0-1.5,0-2.3,0C134.4,249.2,133.7,249.5,133.3,249z"/>
	<path class="st9" d="M242.3,346c1.6-0.2,1.6-0.2,1.7-1.8c0.4-5.1,0.8-10.3,1.1-15.4c0.1-1.5,0.2-3,0.3-4.5
		c0.1-5.1,0.1-10.2,0.3-15.3c0.3-6.8,0.2-13.6,0.2-20.4c-0.1-4.8-0.6-9.6-1.1-14.4c-0.2-1.8-0.4-3.6-0.5-5.4c0-0.2,0.2-0.7-0.4-0.6
		c0.3-1.6,0.6-3.2,0.9-4.8c0.3-1.6,1.1-1.9,2.5-1c2.3,1.4,3,3.7,3.5,6.1c0.6,3,0.7,6.1,1,9.1c0.3,3.7,0.6,7.5,0.9,11.2
		c0.2,3.1,0.4,6.2,0.5,9.3c0.6,11.7,0.9,23.4,1.1,35.1c0.1,3.2,0.1,6.4,0.1,9.6c-0.1,2.3-0.6,3.3-3.3,3.4
		C248.1,346.4,245.2,346.1,242.3,346z"/>
	<path class="st9" d="M122.9,336.1c0.4,1.6-0.7,2.5-1.8,3.3c-2.9,2-7,1.6-9.6-0.7c-2.5-2.3-4.8-4.8-6.9-7.5
		c-5.4-6.8-10.4-13.9-14-21.8c-1.9-4.1-3.2-8.5-4.7-12.8c-0.3-0.8-0.6-1.6-0.9-2.5c-0.2-0.6-0.3-0.2-0.5-0.1
		c0.3-2.1,0.9-4.1,1.5-6.1c0.5-1.7,3.5-3.5,5.2-3.2c0.9,0.1,1.2,0.8,1.5,1.5c2.7,7.5,5.6,15,8.7,22.4c2.9,6.8,7,12.8,11.3,18.8
		c2.1,3,4.4,5.9,7.2,8.3c0.3,0.3,0.6,0.5,0.9,0.8C122,337.3,122.3,337.2,122.9,336.1z"/>
	<path class="st9" d="M125.4,288c-1.2-1.4-2.8-2.3-4.3-3.3c-3.5-2.5-6.6-5.4-9.6-8.4c-3.1-3.2-6.4-6.2-9.6-9.3
		c0.2-2.7,0.8-5.3,2.5-7.6c0.8-1.1,1.6-1.1,2.4-0.1c8.1,9.8,18.1,17.3,28.9,23.7c0.8,0.4,1.5,0.9,2.2,1.4c0.5,0.4,1,1,0.8,1.6
		c-0.2,0.7-0.9,0.6-1.5,0.7c-2.4,0.2-4.8,0-7.2,0.3C128.5,287.3,127,287.7,125.4,288z"/>
	<path class="st9" d="M184.4,172.9c-0.3-0.6-0.4-1.3-0.4-1.9c-0.1-1.7,1.8-3.5,4-3.8c5-0.8,9.2,1.1,13,4.1c3.1,2.5,5.3,5.9,8,8.8
		c2.6,2.8,5.4,5.3,7.9,8.1c2.4,2.7,3.7,5.7,2.8,9.4c-0.4,1.8-1.3,3.3-2.7,4.4c-0.8,0.7-1.3,1.4-1.1,2.4c0,0.2-0.1,0.4-0.2,0.5
		c-0.2-2.4,0.1-4.9-0.3-7.3c-0.3-2.3-1.3-4.1-3.4-5c-4.8-2.1-8.1-5.7-10.9-9.9c-2.3-3.3-4.5-6.6-7.8-8.9c-2-1.4-4.1-2.5-6.6-3
		C184.9,170.6,184.5,171,184.4,172.9z"/>
	<path class="st9" d="M139.8,316.4c-3.7,0.3-7.5,0.6-11.2,0.9c-2.1,0.2-4.2,0.2-6.2-0.2c-2.9-0.6-4.3-2.8-5.1-5.3
		c-0.9-2.8-1.2-5.7-1.4-8.6c-0.1-2.1-0.4-4.2-0.3-6.3c0.1-4.6,2.9-7.3,7.5-7.3c-0.4,1.1-0.5,2.2-0.5,3.4c0,4.2,0.1,8.4-0.2,12.6
		c-0.3,4.2,2.5,5.6,5.6,6.1c4.1,0.6,8.2-0.2,12.3-0.3c0.2,0,0.4-0.1,0.6-0.1c0.8,0,1.7-0.1,2.1,0.6s-0.3,1.2-0.7,1.8
		C141.4,314.5,140.8,315.6,139.8,316.4z"/>
	<path class="st9" d="M109.6,165.7c1.5,0.6,2.9,1.3,4.5,1.7c0.6,0.2,0.7,0.7,0.7,1.1c0.2,2.9,1.8,5.2,3.1,7.7
		c0.7,1.3,1.7,2.5,2.3,3.9c0.7,1.4,1.7,1.7,3.1,1.7c-1.7,1.2-3.4,2.5-5.2,3.6c-2.8,1.8-6.3,1.7-8.6-0.6c-4.6-4.5-8.3-9.6-9.9-16
		c-0.2-0.6-0.3-1.2,0.3-1.6c0.6-0.4,1.1,0,1.6,0.3c1.2,0.9,2.4,1.7,3.8,2.3c1.1,0.5,2.2,0.9,3.2,0
		C109.6,168.9,110.1,166.9,109.6,165.7z"/>
	<path class="st9" d="M132.6,344.4c0.2-0.2,0.5-0.3,0.6-0.5c4.7-7.2,9.5-14.5,13.5-22.1c1.1-2,2.1-4.1,3.8-5.7
		c0.1-0.1,0.1-0.3,0.3-0.5c-1.2-0.2-2.3,0.2-3.3,0.4c2.7-2.3,5.5-4.5,8.8-5.8c0.6-0.2,1.3-0.7,1.9-0.1s0.4,1.4,0.2,2
		c-0.5,1.8-1.2,3.5-2,5.2c-3.8,8.1-8.2,15.9-13.3,23.3c-0.6,1-1.4,1.8-2.3,2.5s-1.9,1.1-3.1,1.1
		C136.1,344.3,134.4,344.6,132.6,344.4z"/>
	<path class="st9" d="M205.6,331.8c-1.5,2-6.1,2.8-8.4,1.3c-4.6-2.9-9-6-12.6-10.2c-2.2-2.5-4.6-4.9-6.9-7.3
		c-0.2-0.2-0.4-0.3-0.7-0.5c-0.7-1.4-1.4-2.8-2.1-4.3c-0.2-0.4-0.3-0.9,0-1.3c0.4-0.5,1-0.5,1.5-0.3c0.6,0.3,1.2,0.6,1.8,1
		c6.3,3.8,12.1,8.5,17.6,13.4c2.7,2.4,5.3,4.7,7.7,7.4C204.1,331.6,204.8,331.8,205.6,331.8z"/>
	<path class="st9" d="M161.7,137.9c-0.3,2.4-0.6,4.7-0.8,7.1c-0.3,2.7-0.7,5.4-0.8,8.1c-0.2,4-0.5,8-2,11.8c-1.9,4.6-1.8,9.3-0.1,14
		c0.5,1.3,0.7,2.6,1.1,3.9c-3.9-2.3-6.6-5.5-7.8-9.9c-0.4-1.5,0.1-3.1,0.6-4.7c0.8-3,1.9-5.9,2.6-8.9c0.4-1.8,0.6-3.6,0.6-5.4
		c0.1-2.9,0-5.8,0.5-8.7c0.4-2,1.3-3.8,2.5-5.5C158.8,138.4,160.2,138.1,161.7,137.9z"/>
	<path class="st8" d="M123.5,166.4c-0.4-0.7,0.2-0.8,0.7-1c4.1-1.2,7-3.9,8.6-7.8c0.4-1,0.4-2.1,0.2-3.2c-0.4-2.3,0.1-3.2,2.3-3.8
		c1.5-0.4,2.9-0.7,4.2-1.6c0.2-0.1,0.5-0.5,0.8-0.1c0.1,2.2,1.7,3.5,3.1,4.9c0.7,0.4,0.3,1,0.2,1.5c-1,3.6-3,6.5-6.3,8.4
		c-3.9,2.2-8.1,3.1-12.6,3C124.3,166.7,123.9,166.8,123.5,166.4z"/>
	<path class="st8" d="M167.9,212.3c5.2,0.1,10.3,0.4,15.4,0.9c0.6,0.1,1.4,0,1.4,0.8c0.1,0.7-0.8,0.8-1.3,0.9
		c-4.7,1.5-9.5,2.2-14.5,2.4c-2.8,0.1-5.6,0.3-8.4,0.4s-5.2-0.9-7.4-2.7c-0.4-0.3-0.7-0.7-0.6-1.2c0.1-0.6,0.7-0.6,1.2-0.7
		C158.4,212.7,163.1,212.2,167.9,212.3z"/>
	<path class="st9" d="M123.5,166.4c4.7,0.1,9.3-0.6,13.5-2.9c3.6-2,5.7-5.1,6.5-9.1c0-0.2,0-0.4,0-0.6c1.5,0,2.5-1,3.6-1.9
		c0.3-0.2,0.6-0.7,1-0.5s0.3,0.7,0.3,1.2c-0.9,5.7-4.1,10.1-8.6,13.5c-0.9,0.6-1.8,1.2-2.7,1.8c-3.1,1.1-6.4,1.6-9.7,2.1
		c-2.1,0.3-3.5-0.2-4.3-1.8C122.7,167.4,122.7,166.8,123.5,166.4z"/>
	<path class="st9" d="M126.4,130.8c2.5,0.3,4.9,0.9,6.5,3.1c0.2,0.3,0.4,0.5,0.5,0.8c0.2,0.5,0.4,1.1,0,1.6
		c-0.4,0.4-0.9,0.3-1.5,0.2c-1.2-0.3-2.5-0.4-3.8-0.4c-3.6,0-6.9,1.2-10.2,2.6c-2,0.9-4,2-6.2,2.4c-1,0.2-2.1,0.4-3.1-0.1
		c-1.1-0.5-1.2-1.2-0.3-2c0.3-0.2,0.6-0.4,0.9-0.5c2.6-1,4.9-2.5,7.2-3.9c2.7-1.6,5.6-2.9,8.6-3.6
		C125.6,130.9,126,130.9,126.4,130.8z"/>
	<path class="st9" d="M199.4,137.3c-2,0-3.9,0.5-5.8,0.9c-0.3,0.1-0.6,0.1-0.9,0.1c-0.5,0-0.9-0.1-1.1-0.5c-0.3-0.5-0.1-0.9,0.2-1.2
		c3.5-3.3,8-5.5,12.8-2.8c1.1,0.6,2.1,1.4,3.1,2.2c2.5,2.2,4.7,4.8,7.8,6.3c0.9,0.4,0.8,1,0,1.5c-0.9,0.6-1.8,0.2-2.7-0.1
		c-2.7-0.8-4.9-2.4-7-4.2C203.9,138,201.8,137.3,199.4,137.3z"/>
	<path class="st8" d="M207,165.7c-0.6-0.8,0.1-1.2,0.5-1.6c1.3-1.2,2.5-2.6,3.4-4.1c1.2-2.2,1.7-4.4,0.5-6.8c-1-2-0.5-2.8,1.8-2.8
		c1.5,0.5,3.1,0.5,4.6,0.7c2.3,0.3,2.8,1.1,2.2,3.3c-0.9,3.7-3.1,6.4-6.1,8.6c-0.5,0.4-0.9,0.7-1.4,1.1
		C210.9,165.2,209,165.5,207,165.7z"/>
	<path class="st8" d="M81.2,139.4c-0.1,4.1,1,8,1.8,11.9c0.2,0.9,0.1,1.7-0.8,2.1c-0.9,0.4-1.6-0.1-2.1-0.9
		c-2.5-4.1-4.2-8.5-5.1-13.2c-0.4-1.9,0.1-2.5,1.9-3.1c0.8-0.3,1.6-0.6,2.4-0.8c1.2-0.2,1.8,0.3,1.9,1.5
		C81.3,137.8,81.2,138.6,81.2,139.4z"/>
	<path class="st9" d="M99.2,138.6c-2,0-3-1.4-2.4-3.2c1.2-3.2,3.5-5.2,7-5.5c1.9-0.2,3.7-0.4,5.6-0.6c0.5-0.1,1,0,1.4,0.2
		c1,0.3,1.2,1.2,0.5,2c-0.3,0.3-0.6,0.5-0.9,0.7c-3.2,1.7-6.2,3.7-9.1,5.7C100.6,138.3,100,138.7,99.2,138.6z"/>
	<path class="st9" d="M141,176.1c0.1-2,0.5-3.6,1.5-5c1.1-1.4,3-1.8,4.5-0.9c0.6,0.4,0.8,0.8,0.5,1.6c-1.1,2.5-1.2,5-0.1,7.5
		c0.2,0.4,0.3,0.8,0.3,1.3c0.2,1.8-0.9,2.7-2.6,2c-2.2-0.8-3.2-2.6-3.8-4.7C141.1,177.2,140.9,176.5,141,176.1z"/>
	<path class="st9" d="M211.4,129.7c2.3,0.2,4.4,0.2,6.4,1c2.3,0.9,4,2.8,3.9,4.8c-0.1,2.2-1.1,3.7-3.7,2.3c-1.7-0.9-3.2-2.1-4.7-3.4
		c-1.2-1-2.3-2.1-3.7-2.9c-0.4-0.2-0.8-0.5-0.7-1c0.1-0.5,0.5-0.7,1-0.8C210.5,129.7,211.1,129.7,211.4,129.7z"/>
	<path class="st8" d="M160.9,344.2c-0.9,0-1.8,0.1-2.6,0c-1-0.1-1.3-0.7-0.6-1.4c2.4-2.8,4.2-5.9,5.6-9.3c0.1-0.3,0.2-0.5,0.4-0.7
		c0.1-0.2,0.3-0.4,0.6-0.4c0.3,0,0.4,0.3,0.4,0.5c0.1,1,0.3,2,0.4,3c0.2,1.9,0.3,3.8,0.4,5.7c0.1,1.9-0.5,2.5-2.4,2.6
		C162.2,344.2,161.6,344.2,160.9,344.2L160.9,344.2z"/>
	<path class="st8" d="M89.1,132.8c-0.9,0-1.8,0-2.6,0c-0.8,0-1.2-0.2-1.2-1.1c0-0.4,0-0.7,0-1.1c-0.4-2.6,0.2-2.3,2.2-2.4
		c1.4,0,2.7-0.1,4.1-0.2c0.8-0.1,1.3,0.3,1.4,1.1c0,0.1,0,0.2,0,0.2c0.2,3.7,0.4,3.2-2.8,3.2c-0.4,0-0.7,0-1.1,0
		C89.1,132.7,89.1,132.7,89.1,132.8z"/>
	<path class="st8" d="M229.4,129.4c0.9,0,1.8,0,2.7,0c0.3,0,0.7-0.1,0.9,0.2c0.7,1,0.1,2,0,3c-0.1,0.7-0.7,0.9-1.3,0.9
		c-1.7,0-3.4,0-5-0.1c-0.9-0.1-1.4-0.6-1.4-1.6c0-2.7,0-2.7,2.7-2.7c0.5,0,1,0,1.4,0C229.4,129.3,229.4,129.4,229.4,129.4z"/>
	<path class="st10" d="M207,165.7c1.8-0.8,3.8-0.9,5.6-1.7c-0.3,1.2,0.1,2.2,0.5,3.2c0.3,0.8,1,0.9,1.8,0.8c-1.7,0.6-3.4,1-5.2,0.9
		c-1,0-2.7-1.5-2.9-2.5C206.7,166.2,206.9,166,207,165.7z"/>
	<path class="st11" d="M133.3,249c0.5,0.2,1.1,0,1.5,0.4c-4.2,0-8.3,0-12.5,0c-10.4,0-20.9,0-31.3,0c0.1-0.2,0.1-0.3,0.2-0.5
		c0.3,0.4,0.7,0.3,1.1,0.3c13.3,0,26.6,0,39.9,0C132.6,249.2,133,249.3,133.3,249z"/>
	<path class="st11" d="M137.1,249.4c0.3-0.1,0.7-0.3,1-0.4c0.4,0.4,0.8,0.2,1.3,0.2c4.1,0,8.1,0,12.2,0c0,0.1,0,0.2-0.1,0.2
		C146.7,249.4,141.9,249.4,137.1,249.4z"/>
	<path class="st12" d="M228.1,249.2c0,0.2-0.1,0.4-0.2,0.5c-0.3-0.3-0.7-0.2-1-0.2c-3.8,0-7.6,0-11.4,0c0.1-0.2,0.3-0.3,0.4-0.5
		c0.4,0.4,0.8,0.2,1.2,0.2C220.8,249.2,224.5,249.2,228.1,249.2z"/>
	<path class="st13" d="M232.4,249.4c-0.1-0.1-0.1-0.2-0.2-0.2c3.7,0,7.3,0,11,0c0.4,0,0.8,0.1,1.1-0.2c0.2,0.1,0.4,0.2,0.5,0.5
		C240.8,249.4,236.6,249.4,232.4,249.4z"/>
	<path class="st14" d="M7.2,306.1c-0.2,0.1-0.4,0.2-0.6,0.3c0-3.1,0-6.2,0-9.2c0.1,0,0.1,0,0.2,0c0,2.6,0,5.2,0,7.7
		C6.9,305.4,6.7,305.8,7.2,306.1z"/>
	<path class="st15" d="M41.7,369.8c0.3-0.2,0.6-0.2,0.9-0.1C42.3,370.1,42,369.8,41.7,369.8z"/>
	<path class="st16" d="M273.3,398.8c0,1.6-1.2,2.8-2.7,2.9c-1.6,0-2.8-1.2-2.8-2.7c0-1.6,1.2-3,2.8-2.9
		C272,395.9,273.2,397.2,273.3,398.8z"/>
	<path class="st17" d="M204.1,315.9c0.4-1,0.6-1.6,0.8-2.3c0.2-0.6,0.4-0.9,1.1-0.8c0.8,0.1,0.4,0.6,0.5,1c0,1,0,1.9,0,2.9
		c0,0.3,0,0.6-0.4,0.6s-0.4-0.3-0.4-0.6c0-0.8,0-1.5,0-2.5c-0.6,0.9-0.7,1.8-1,2.5c-0.1,0.3-0.2,0.5-0.5,0.5c-0.4,0-0.5-0.2-0.5-0.5
		c-0.3-0.8-0.6-1.6-1.1-2.4c0,0.8,0,1.5,0,2.3c0,0.3,0,0.6-0.4,0.6s-0.4-0.3-0.4-0.6c0-1,0-2.1,0-3.1c0-0.3-0.2-0.8,0.5-0.7
		c0.4,0,0.9-0.1,1,0.5C203.4,314.1,203.7,314.9,204.1,315.9z"/>
	<path class="st18" d="M199.2,312.8c0.4,0,0.9,0,1.3,0c0.2,0,0.5,0,0.5,0.3s-0.2,0.5-0.4,0.4c-1.2-0.2-1,0.6-1,1.3
		c0,0.4,0.1,0.8,0,1.2c-0.1,0.4,0.4,1.2-0.5,1.2c-0.8,0-0.3-0.7-0.4-1.1s0-0.8,0-1.2c0-0.7,0.2-1.6-1.1-1.4c-0.2,0-0.4-0.1-0.4-0.3
		c0-0.3,0.2-0.4,0.4-0.4C198.1,312.8,198.7,312.8,199.2,312.8z"/>
	<path class="st19" d="M271.7,400.6c-0.5-0.2-0.4-0.6-0.4-0.9c-0.2-0.5-0.6-0.6-1-0.6c-0.6,0-0.5,0.4-0.5,0.7c0,0.3,0.1,0.6-0.3,0.6
		s-0.3-0.4-0.3-0.6c0-0.5,0-1,0-1.4c0-1.4,0.9-2,2.2-1.4c0.3,0.1,0.4,0.3,0.5,0.6c0.3,0.6-0.7,0.9-0.3,1.4
		C271.9,399.6,272,400.1,271.7,400.6z"/>
	<path class="st20" d="M270.5,397.5c0.4,0,0.8,0.2,0.7,0.7c-0.1,0.5-0.6,0.6-1,0.6c-0.6,0-0.5-0.4-0.5-0.7
		C269.7,397.4,270.1,397.4,270.5,397.5z"/>
</g>
</svg>
