<svg xmlns="http://www.w3.org/2000/svg" width="2500" height="2500" viewBox="0 0 192.756 192.756"><g fill-rule="evenodd" clip-rule="evenodd"><path fill="#fff" d="M0 0h192.756v192.756H0V0z"/><path d="M155.893 102.957h3.223l1.906-4.002c.855-1.789 2.549-3.227 4.15-3.047l-1.523 3.047c-.729 1.479-1.225 2.951-.328 3.689 1.111.869 2.639.803 6.094-1.318.354 4.131 5.807-.023 7.781-1.707l-.547-.959c-1.668 1.266-3.867 2.348-3.643 1.664l3.658-7.405h-3.311l-2.756 5.538c-.512 1.018-3.186 2.299-4.354 2.383-.516.041-.25-.51-.141-.754l2.039-4.178c2.012-4.125-2.43-3.487-4.691-1.814l.584-1.159h-3.258l-1.861 3.704c-1.031 1.722-5.857 4.767-5.514 3.706l3.668-7.41h-3.309l-2.758 5.541c-.756 1.205-4.607 2.725-4.221 1.85l2.25-4.75c.85-1.81.559-2.315-1.006-2.934-1.041-.064-2.818.61-3.381 1.106l3.965-7.754h-3.133l-4.164 8.33c-1.703 1.688-3.012 2.315-4.633 2.463l1.84-3.851h-2.924c-.043.274-.527.551-1.074.242-2.924-1.638-6.27 1.999-7.912 4.801-.906.816-3.564 3.225-4.707 2.811-2.012-1.057 2.873-5.518 4.039-5.518l1.096-2.253c-2.43.541-4.66-.444-6.703-.065-.912.154-1.934.89-2.861 1.954-.662-1.433-1.252-2.141-2.877-2.104-1.98-.11-4.039 1.41-5.223 2.841-.137.163-.537.484-.631-.326-.309-2.654-2.121-2.943-4.238-2.153l3.504-7.179h-3.242l-5.801 11.599c-1.633 1.203-3.055 2.271-4.875 3.273-.49.186-.297-.449-.183-.693l1.96-4.169c2.107-4.486-1.996-3.542-4.941-1.468.016-2.739-3.586-1.655-4.764-.728-.636.503-1.084.747-.703 0l.442-.86h-3.31l-.422 1.132c-.954 2.56-2.956 3.951-6.15 6.009-.136-.561.302-1.291 1.251-3.156l1.944-3.99h-3.268l-.198.352c-.829 1.456-.698-1.022-3.904-.252-2.653.626-4.216 3.494-5.577 5.351-1.548 2.201-4.624 3.6-5.812 1.338 3.033-6.013 4.847-9.346 7.406-14.355 5.363-9.755 13.578-1.391 2.971 1.971 3.153 2.702 8.83-.63 8.913-3.37-.125-6.218-6.494-5.174-9.168-4.401-7.74 2.253-10.242 12.706-13.301 17.528-6.88-2.12-11.555 2.09-11.175 4.225.484 2.109 7.547 3.23 12.316.076 2.006 1.566 3.164 2.898 7.271-.213.589-.4.787.299 1.058.771 1.22 2.135 3.606.885 5.061-.189.406 2.168 1.928 1.637 5.207-.83l2.685-1.949-2.007 3.977h3.325l2.012-4c.943-1.885 2.376-3.444 3.977-3.075l-3.507 7.075h3.33l1.929-4c.855-1.789 2.591-3.228 4.248-3.048l-1.532 3.048c-.74 1.48-1.23 2.951-.292 3.689 1.162.875 2.413.479 3.591-.217l3.352-2.037c.02 3.684 4.238 2.82 5.52 2.072 2.887-1.676 4.488-4.84 4.66-5.252.145-.25.322-.178.244.084-.547 1.66-.625 2.795 0 4.393.387.982 2.258 2.242 5.098.588 2.648-1.541 3.836-4.588 3.898-6.021.709-1.486 3.033-1.428 4.098-.792-2.324 1.48-6.125 7.662-1.695 7.662 2.268 0 3.451-1.27 5.078-2.248.771-.518 1.162-.787 1.291.381.256 2.367 2.779 2.016 4.516 1.369l-1.445 2.906c-1.037 2.078-3.383 2.094-5.445 1.057.969 3.758 6.279 3.791 8.057-.008l2.592-5.441c1.047-2.184 3.121-2.859 5.207-3.795l-2.811 5.617h1.84c1.396 0 2.283-1.744 2.758-2.756 1.559-3.316 4.561-5.038 3.877-3.71l-1.865 3.866c-.291.723-1.078 2.994 1.762 2.77 1.443-.07 3.326-.902 4.326-1.584.359 3.826 5.994-.277 7.771-1.787l-1.564 3.185z" fill="#6b7379"/><path d="M14.271 83.451c-.678 11.131 1.964 24.989 14.507 30.325 11.182-5.59 15.033-18.509 14.438-30.325-10.866-7.953-24.065-3.556-28.945 0z"/><path d="M14.858 83.862l.002-.097.083-.057c2.866-1.957 8.287-4.121 14.364-4.121 4.314 0 8.953 1.094 13.23 4.123l.077.055.005.094c.035.631.04 1.274.04 1.92 0 10.901-3.91 22.104-13.815 27.262l-.087.043-.087-.039c-10.735-4.783-13.883-16.148-13.883-26.424-.001-.935.029-1.85.071-2.759z" fill="#fff"/><path d="M15.234 84.218a50.203 50.203 0 0 0-.055 2.402c0 10.137 3.11 21.09 13.352 25.932l.212.1.204-.115c9.426-5.27 13.317-16.029 13.317-26.758v-.256c0-.441-.002-.88-.022-1.314l-.012-.229-.187-.13c-4.125-2.839-8.579-3.868-12.739-3.868-5.798 0-10.987 2.011-13.858 3.871l-.199.127-.013.238z" fill="#c1352c"/><path d="M32.25 83.654c-.254.301-.162.494-1.08.804 1.286-.038 4.507.691 3.726 2.539-.482 1.749 1.486 1.727.919 6.854-.259 2.336 1.797 1.739 2.129 1.763-.456 1.244-1.469 1.06-2.428.939.793 1.281-.002 1.111.57 3.609.134.672.17 1.109.161 1.508-.516.059-.982.123-1.166.023-.098-1.953.151-3.268-.615-3.809-.502-.324-1.675.941-1.77 2.621-.015.277-.072.479-.277.684-.58.008-1.502.449-2.271.09-.287-.607-.744-1.553-.826-1.932-.039-.021-.212.568-.312.865-.207.605-.23.934-.443 1.207-.492.244-1.163-.23-1.426-.088l-.141.511c-.07.578-.085 1.533-.351 1.719-.253.164-1.46.168-1.553-.086.107-1.012 1.285-2.939 1.606-4.355.101-.209-.728-.713-.887-1.512-.735.477-.962 2.74-1.768 3.645-.882.779-.605.729-.719 1.477-.097.639-.232 1.072-.374 1.209-.408.402-1.47.17-1.609-.238.131-.24.714-1.164.918-1.479.562-.875.694-1.252.711-1.348l.173-.367c.126-.314.629-2.215.729-3.227.352-2.779 1.172-8.096 4.075-9.789 3.394-1.976 4.32-.103 5.498-.348 1.667-.344.532-1.813-1.291-1.892-2.056-.106-4.656-.076-4.748-.921-.034-.31.138-.75.508-.882 1.199-.424 3.106-.542 4.332.206z"/><path d="M31.315 84.82h-1.052c3.36.394 4.115.569 4.233 1.833 0 .298-.208.831-.502.831-2.854-.037-2.375-1.645-5.985.418-2.773 1.71-3.752 7.689-4.048 10.515l.06.299c.059-.15.236-1.934.413-2.01l.236-1.189c.236-.297.401-.229.755.143.93-.217.867-.762 1.162-.836.354-.074.364.39.755.43.177.149 1.28-.499 1.917-.39.413 0 .545.504.25.653s-.413.67-.59.893c-.633.961.271 1.783.904 3.389.409.996.623 1.428.539.5.171-.078.342.072.488-.006-.315-.277-.289-.439-.466-.736-.118-.223.229-.064.289-.213-.177-.596.075-1.445.016-1.52-.177-.225-.362.756-.95.814.12-.475.124-.24.246-.553.245-.564-.254-.973.212-1.32.236-.148.256-.281.433-.43.128-.444.285-.886.167-.961-.177-.074-.209.137-.446-.012-.413-.223-.395-.492-.551-.91.358-.022.492-.143 1.066.098.177.149.193.298.193.669 0 .297.34.581.635.729.413.224 1.447.316 1.919.242-.804-.242-1.414-.517-1.654-1.032.335-.42.659-.79.539.083.177 0 .474.012.77.012-.708-.298-.338-1.053.407-.31 1.018-.135 2.182.768 1.032.816-.295-.074 2.194 1.174 2.865.13-.25-.121-1.99.249-2.604-1.294-.059-.148-.441-.046-.619-.27-.472-.521-.321-.317-.616-.689-.851-.981-1.129-2.778-1.248-3.224-.1-.871-.142-1.122-.517-2.296.551 1.068.643 1.51.828 1.751.335.024.419-.016.504-.13.238.287.34 0 .609.06-.29-.265-.35-.657-.189-1.309-.254-.257-.468-.509-.277-.599.148-.07.548-.36.89.121 0-.372.48-.603.48-1.496-.001-1.041-1.467-1.749-3.498-1.694zM51.442 99.234c1.864-.389 3.26-.318 4.601.15-.895.938-2.23 1.516-4.087 1.904-1.864.389-3.188.199-3.636-.312.233-.578 1.265-1.353 3.122-1.742zM105.094 94.384c.795.195.162 1.77-.924 3.731-1.082 1.963-2.383 3.809-2.99 3.389-.498-.395-.055-2.018 1.027-3.979 1.078-1.949 2.193-3.305 2.887-3.141zM114.688 94.272c.709.317.182 1.771-.854 3.712-1.049 1.941-2.312 3.768-2.936 3.332-.504-.4-.082-2.016.953-3.959 1.04-1.928 2.169-3.329 2.837-3.085zM132.871 94.272c.711.317.184 1.771-.852 3.712-1.049 1.941-2.312 3.768-2.936 3.332-.504-.4-.084-2.016.951-3.959 1.04-1.928 2.169-3.329 2.837-3.085zM73.111 94.272c.71.317.182 1.771-.853 3.712-1.049 1.941-2.312 3.768-2.936 3.332-.504-.4-.083-2.016.952-3.959 1.04-1.928 2.169-3.329 2.837-3.085z" fill="#fff"/><path d="M176.641 86.666a1.949 1.949 0 0 0-1.941 1.941c0 1.067.875 1.941 1.941 1.941a1.947 1.947 0 0 0 1.941-1.941 1.947 1.947 0 0 0-1.941-1.941zM156.979 86.666a1.949 1.949 0 0 0-1.941 1.941c0 1.067.875 1.941 1.941 1.941s1.941-.875 1.941-1.941a1.949 1.949 0 0 0-1.941-1.941z" fill="#6b7379"/><path d="M32.896 92.942c.124.29.195.623.471.916l-.159.074c-.03.062-1.354.02-1.675-.507-.112-.154-.101-.151-.116-.283.326.188.562.068.811.211.06-.147-.018-.398-.082-.455l-.153-.199c-.088-.13-.239-.125-.331-.125-.038.091.081-.121.027-.133-.116-.026-.197.145-.314.105l-.353-.12.229-.168c.397-.284.523-.392.877-.06.026-.057.129-.198.17-.274.142.091.272.264.423.611l.175.407zM31.754 91.498c-.107-.099-.121-.214-.392-.265-.169-.112-.073-.256-.622-.224-.172-.019-.426-.1-.762-.244-.063-.037-.021-.107-.008-.131.412-.309.846-.546 1.304-.566.077.038.114.15.141.163.116.056.035.23.116.321.082.092.255.175.185.316-.083.169.114.449.038.63z"/><path d="M30.148 84.447c-.069 0-.312-.048-.484-.078-.484-.081-.831-.215-1.142.061.208.057.865.087 1.626.017z" fill="#fff"/><path d="M27.914 94.223l-.288.041a2.391 2.391 0 0 0-.274.092c-.282.104-.485.14-.61.108-.206-.053-.394-.361-.391-.385l.244-.096v-.097c-.12.008-.202-.088-.244-.289-.058-.278.075-.522.401-.732l.283-.183h.098l-.017.016-.008.032c-.067.265.029.509.289.733l.307.264c.211.181.28.346.21.496z"/><path d="M21.869 103.32c.061-.205.216-.291.465-.26l.291.037c.29.037.379-.217.27-.314l-.195-.203c-.047-.059-.482.012-.508.049l-.561.834c.045.133.108.09.165-.031l.073-.112zM25.525 102.949a1.01 1.01 0 0 0 .267-.047l.608-.078c.079.006.161-.055.244-.18-.154-.23-.173-.445-.051-.65-.03-.029-.397-.221-.582-.215-.126.01-.405.735-.486 1.17zM35.48 97.779l.03-.461c.01-.162-.104-.295-.157-.439l-.112-.311a1.699 1.699 0 0 0-.236-.268c-.302.562-.546.998-.427 1.229.158.34.107-.051.225-.25.217-.242.102-.445.406-.176l.055.178.04.154c-.001.11.029.206.176.344z" fill="#fff"/><path d="M32.108 94.318c-.056.166-.26.137-.467.22-.245.099-.349.31-.455.328.021-.244.095-.449.348-.511l.301-.043.183-.038.09.044z"/><path d="M28.465 100.518l.019-.037c.004-.01.014-.018.028-.023.06-.027.088-.047.086-.059l-.04-.188.031-.188c.026-.156-.008-.27-.104-.34-.115.211-.189.33-.224.355l-.16.121c-.279.212.213.497.364.359zM27.966 101.273c.117.053.247.105.441-.014l.072-.279-.366.018-.147.275zM35.188 101.137c.074.029.161.043.215.102.117.17.174.242.236.117l.03-.061c.039-.078-.062-.109-.121-.131l-.286-.102c-.047-.015-.123.026-.074.075zM23.813 100.293c.09-.002.144-.119.161-.352.004-.051.012-.113.022-.186.035-.229.036-.35.002-.365l-.241-.117-.189.535c-.07.2-.012.493.245.485zM26.936 100.627l.059-.119c.075-.152-.166-.871-.231-.662l-.13.414.016.119.041.189a.634.634 0 0 1-.047.199l-.093.188.291-.105.094-.223zM31.638 97.855l.131-.117.132-.191.022-.033-.092-.041-.034.057c-.096-.062-.438.197-.279.27l.12.055zM25.875 103.574h.304l.065-.459c-.14.074-.405.248-.369.459zM33.852 95.553l.211.101.104.014.015-.03-.106-.088-.09-.043-.15.001c.017.012.022.027.016.045z" fill="#fff"/></g></svg>