<svg xmlns="http://www.w3.org/2000/svg" width="2500" height="2500" viewBox="0 0 192.756 192.756"><g fill-rule="evenodd" clip-rule="evenodd"><path fill="#fff" d="M0 0h192.756v192.756H0V0z"/><path d="M95.184 60.128c-.705.305-1.174-.141-.587-.634.329-.258.611-.892.916-1.197.493-.47 1.339.165.939.775-.306.492-.705.798-1.268 1.056zM117.68 87.907s1.643.916 1.736 1.785.258 2.325-1.104 2.184c-1.361-.141-4.955.235-6.246.963-1.314.728-2.418.352-2.912-.188-.492-.54-1.408-.775-2.09-.54-.68.258-2.605 1.409-2.957.986-.33-.446-.869-1.221.68-1.714 1.551-.47.352-.916-.729-.916h-1.057s-1.221.353-1.689.775c-.494.446-1.504.728-2.09 0-.588-.729-.635-2.56 1.221-2.466 1.832.094 3.381-1.057 3.029-1.55-.33-.493.305-.963.775-.282.492.682.586.611 2.395 1.057 1.785.446 1.104-.587 2.02.282.916.893 1.502.634 1.809-.282.281-.916-.635-2.654-1.762-2.043-1.104.634-1.879.211-2.02-.282-.164-.493-.869-1.01-1.314-.869-.447.141-.729-1.01.188-1.314.916-.282 1.174-1.55.822-1.973-.33-.446-1.01-1.033-2.184-.211-1.152.822-2.654.211-3.383.165-.727-.071-4.32.234-5.119.916-.821.681-2.418-.141-.516-1.362 1.855-1.221 6.551-4.062 6.598-5.001.047-.916-.562-3.968-1.643-4.204-1.057-.234-3.993-.774-4.72-1.127-.728-.329-3.499-.657-4.227 1.221-.705 1.902-1.104-.282-1.104-.282s-2.653-2.372-5.095-.306c-2.419 2.09-1.057-1.009-.517-1.549.517-.517 1.738-1.691 3.381-1.832 1.644-.141 1.057-1.738 4.18-1.738 3.1 0 2.254-1.409 2.325-1.996.047-.587-.634-2.184.775-2.958 1.362-.775 1.715-.916 1.667.54-.047 1.456 0 2.7.634 2.7.611 0 .564 1.55.729 1.855.141.282 1.291.047 2.02-.446.727-.47 1.361-.47 1.807.258.424.728.189 1.339.094 1.785-.094.422-.258 1.15.283 1.69.539.54.822 1.855.492 2.466-.352.634-.68 1.597 0 2.184.682.587.682 2.23 2.066 2.419 1.41.211 1.949.681 2.912 1.714.963 1.01 1.691.329.916-.587-.775-.916-2.701-2.231-1.551-3.499 1.176-1.244 1.41.493 2.137 1.503.728 1.033 6.693 10.707 8.338 12.069zM98.965 145.789s-.213 2.301-1.082.916c-.867-1.361-2.981-2.912-2.77-5.002.212-2.09-.774-2.348-.774-2.348s2.371.562 2.63 3.334c0 0 1.432-.375 1.432 1.527-.001 1.878.564 1.573.564 1.573zM107.205 96.455s2.842-1.269 4.627 0c1.785 1.268.492 3.24.492 3.24s-3.85 1.877-3.053 4.039c.775 2.16 5.426 3.85 11.93 4.131 6.504.307.588 2.066-1.197 2.066-1.762 0-11.812 2.373-16.25-3.24-4.438-5.611 2.371-9.533 3.451-10.236z"/><path d="M52.047 104.016s-2.958 10.074-2.958 11.553-.118 5.096-.118 5.096-1.62-4.039-.821-6.316c.821-2.277 1.08-10.473 1.08-11.953 0-1.479.939-8.57 2.818-11.129 1.879-2.56.399-7.115 1.221-8.336.798-1.198.939-5.894 1.597-7.232.681-1.362 0-4.837 2.02-7.679 2.02-2.818 3.64-5.894 3.64-7.115 0-1.197 5.095-9.792 9.534-12.633 4.438-2.818 6.176-4.814 6.176-4.814s9.533-8.876 14.112-8.735c4.556.117 9.369 2.817 11.248 2.817s7.537 1.339 11.693.54c4.156-.821 5.096-.821 5.918-2.7.799-1.878 1.338-9.134-5.236-10.614-6.598-1.479-13.971-2.818-28.202-1.198-14.229 1.597-16.108 2.137-20.405.939-4.297-1.221-5.659-7.514.798-10.355 6.458-2.818 9.393-2.677 11.154-3.757 1.737-1.08 4.696-1.08 5.636-1.738.939-.681 1.479 1.198 2.958.258 1.479-.939 1.08 1.08 2.677.399 1.621-.658 1.761.281 2.56 1.362.798 1.057 2.958.939 6.434.657 3.477-.258 4.697-1.08 6.574-.657 0 0-3.357 1.996-5.518 1.996-2.137 0-8.969.681-9.11 1.621-.118.939 1.479 1.338 4.039 1.221 2.56-.141 2.02.657.282.939-1.762.258-11.835 1.597-13.972 1.597-2.161 0-11.436-.798-12.234 1.479-.798 2.278.259 2.818 2.959 3.1 2.677.258 15.31-1.761 17.87-2.278 2.536-.54 21.603-3.24 29.259 1.996 7.654 5.236 6.973 8.876 5.775 13.572-1.221 4.696-1.762 4.837.4 7.256 2.16 2.418 13.289 17.87 13.172 27.262-.141 9.416-.68 13.314 1.48 16.132 2.137 2.818 1.736 7.514 1.338 8.876-.398 1.338-.682 3.452 2.277 4.672 2.959 1.197 8.736 3.617 10.873 2.535 2.16-1.055 4.438-1.994 4.977-.797.541 1.221-5.377 5.635-7.256 5.916-1.877.26-8.336 1.199-11.951.4-3.617-.799-.4 1.338-.141 1.619.281.26 2.16 4.156 3.357 4.697 1.221.539 1.762 3.217 1.762 6.035 0 2.816.656 9.557.656 9.557s.822 2.936 1.762 3.475c.939.541 1.057 2.959.939 4.039-.141 1.08 1.338 2.42 2.277 3.217.939.822 2.16 4.039 1.738 5.119-.4 1.057-1.738 1.34-1.48 2.678.283 1.338-1.596 1.879-2.535 1.738-.939-.119-2.301-1.48-.939-1.48 1.338 0 .799-2.818-.281-2.535-1.08.258-1.338 1.197-2.137.797-.822-.398-.141 2.561-1.363.939-1.197-1.619-.656-4.836 0-4.977 0 0-1.197-3.477-2.137-4.299-.939-.797-.939-4.555-.539-6.574.398-2.02-1.738-8.195-3.357-8.994-1.621-.82-3.758-3.498-3.758-3.498s1.621-2.02 1.479-3.217c-.141-1.221-.939-2.02-1.221-.398-.258 1.596-3.615 7.113-8.594 10.189 0 0-7.373 11.553-3.617 15.852 0 0 .939 2.559-.281 3.498-1.197.939-1.338 2.959-1.596 3.639-.283.658-2.02 1.879-4.299 1.879-2.301 0-7.936.799-9.133 1.197-1.223.4-3.383.4-4.721-3.076 0 0 3.498 2.279 2.301-.68-1.221-2.959-1.76-4.039 1.057-3.617 2.818.4 2.959.26 2.02-.68s-3.076-.799-3.076-.799-1.221-.939.658-1.48c1.879-.539-.658-1.877-.658-1.877s-.82-.424 0-2.02c.799-1.621.4-4.039.4-4.039s-.4-2.818.398-5.236c.799-2.42.541-2.818.541-2.818s-.283-2.818-2.561.539c-2.277 3.359-2.02 4.557-3.1 5.096-1.057.541-2.137 1.879-1.738 2.561.4.658-1.596.939-1.596-.141s-3.217-5.096 0-4.156c0 0 0-3.217 1.456-2.42 0 0 .423-1.877-.517-2.699-.939-.799-.798-2.818.517-4.414 1.363-1.621 6.058-11.977 4.298-14.113-1.738-2.16-2.139-1.738-1.996-.541.117 1.223-1.223 1.082-1.879.4-.682-.658-3.875-2.537-3.875-3.758 0-1.197-1.362-1.197-1.479-.398-.141.799-1.761-1.338-1.761-1.338s-.939-2.02.822-1.879c1.737.117 2.278-.939 4.297-1.34 1.996-.398 5.871.916 7.232 2.139 0 0 3.076-5.895 8.453-5.096 5.377.822 3.639 3.475 3.357 4.157-.258.656-2.559 4.977 3.641 4.438 6.176-.541 2.137-1.762 1.338-1.762-.822 0-4.578.541-3.898-1.197.658-1.762.658-3.076 2.678-2.795 2.02.236 4.039-1.221 5.119 1.574 0 0 .799-2.254 2.959-1.338 2.137.938 3.217.141 4.812 1.221 1.621 1.057 3.641.656 3.641.656s1.619.541 1.479 2.279c-.141 1.76-.939 2.957-2.277 2.699-1.361-.281-2.418 1.879.258 1.879 2.678 0 2.818-1.621 6.857-.281 4.016 1.361 9.393 1.619 11.014.281 1.619-1.338 4.695-2.818 4.695-2.818s.939-2.16-1.08-.939c-1.996 1.199-5.096 1.879-9.793.541-4.695-1.361-6.598-2.842-7.256-2.842-.68 0-1.221-.258-1.221-1.455 0-1.221-1.996-3.077-2.676-3.476-.682-.399-2.959-1.479-4.297-1.479-1.34 0-7.797-2.959-8.877-4.298-1.057-1.338-3.758-3.897-4.695-8.735-.939-4.837-2.959-6.317-4.039-7.514-1.057-1.221-3.359-2.841-3.359-7.679 0-4.813-2.277-7.232-3.217-8.171-.939-.963-5.236-9.017-5.635-9.957-.398-.939-.799-4.297 1.596-1.737 2.42 2.536 3.383 3.616 3.1 5.096 0 0 1.223.822.682 2.16 0 0 2.137 1.737 1.738 3.076 0 0 2.277 2.559 2.418 3.357.141.822 1.621 1.08 2.02.141.398-.939 3.357-.939 2.277-1.878s-.68-2.16.141-1.08c.799 1.08 1.879 3.499 3.076 2.56 1.221-.939 1.762-2.419.682-2.419s-1.338-.798-1.338-1.62c0-.798-1.48-2.02-.283-3.357 1.223-1.339-.656-3.217-.797-4.556-.141-1.339-.799-1.879-1.48-2.161-.68-.258-.539-1.479 1.08-2.418 1.621-.939 1.879-1.737 3.617-1.08 1.76.681 2.959 0 2.301-.517-.682-.54-.541-.939 0-1.902.516-.939 3.615-9.134-.682-13.549-4.297-4.438-15.451-5.776-21.768-5.377-6.292.399-20.123 2.817-21.461 2.817-1.339 0-7.538.681-8.876 0-1.339-.681-2.419.399-.799.939s10.074-.258 11.952-.54c1.879-.258 22.543-3.076 28.86-1.339 6.316 1.738 11.951 2.959 12.633 8.055.656 5.119-2.959 9.134-2.959 9.134s-.939 1.08-2.818.939c-1.879-.117-13.432-1.197-16.391-2.137-2.934-.939-10.19-3.64-14.746.658-4.579 4.297-12.774 9.674-13.972 10.614-1.221.939-5.236 5.659-6.316 8.594-1.08 2.958-2.16 3.499-2.301 5.26-.118 1.738-4.015 3.358-4.415 7.655s-.939 6.833-1.479 7.914c-.54 1.08-1.62 3.64-.54 3.757 1.08.141 1.08 1.62.141 1.62-.939 0-1.62.681-.681 2.958.939 2.278-2.277 4.556-2.418 6.974-1.342 3.757.678 6.692-.145 9.933z"/><path d="M67.616 82.764s-1.221 4.509-.164 6.716c1.08 2.231 1.456 5.519 2.841 6.364 1.386.846 1.386 1.15 2.137.446.775-.681.916 0 1.526.54.61.539 1.62.609 1.69 1.197.071.611-.07 1.01-.916 1.01-.846 0-1.691.682-1.996.141-.305-.539-1.292-1.596-2.137-.682-.846.916-.986 2.842-2.606 1.996-1.597-.844-3.969-.773-1.69-2.301 0 0-1.902-1.666-2.372-1.973-.446-.305-1.221-.234-1.057-2.207.141-1.996-1.01-3.687 1.526-5.518 2.513-1.832.986-1.526.986-2.208.001-.702 1.152-5.141 2.232-3.521z"/><path d="M65.62 130.572s-1.737-3.053-3.334-2.512c-1.597.518-1.057 1.197-1.597 1.855-.517.656-3.452 7.186-3.452 8.383s-1.057 9.721-.798 11.459c.258 1.738-1.479 5.33-3.194 6.527-1.738 1.197-4.673 5.447-5.189 9.322-.54 3.852-.282 4.791-.141 7.326.141 2.537.141 7.844-1.197 9.182s-3.992 2.137-6.786 2.137c-2.794 0-7.467-1.057-3.992-5.471 3.452-4.391 7.186-9.721 6.105-12.516-1.057-2.795 1.996-3.311 2.536-4.25l.541-.939.798-5.049s0-2.277 1.597-2.277 3.851-2.396 3.851-3.992c0-1.598.141-3.053-.517-3.053-.681 0-1.08-1.479-1.08-1.479s-.658-1.199-1.597.398c-.916 1.596-1.315.939-.658-.518.658-1.479.658-2.395.658-2.395s.681-.682 1.338-1.221c.658-.518 0-4.25-.141-4.908-.117-.68-1.456-1.479-1.197.799.282 2.254.54 3.451.54 3.451s-1.456.799-1.339-.656c.141-1.48 0-4.273.141-5.189.141-.939-1.198-3.217-.399-4.674.798-1.455.657-3.992.657-3.992s1.338-1.736 1.08 0c-.282 1.738-1.08 5.189-.681 5.871.399.658 1.338.916 1.597.117.282-.799-1.057-1.996 0-2.936 1.08-.916.282-3.451.282-3.451s.516-2.654 1.197-3.451c.658-.822.658-6.529.399-7.328-.282-.797-.282-.938.798-1.994 1.057-1.08.399-3.219 1.714-4.416 1.339-1.197.939-.914.799.4-.118 1.338-.118 6.527 2.536 4.812 2.677-1.736 5.072-1.596 5.19-4.531.141-2.936.681-7.068 1.878-9.064 0 0 .657 3.734 1.738 4.133 1.056.4 3.475-.422 5.189 1.197 1.69 1.598 5.283-.398 4.931-1.057-.375-.68-1.338-3.873.798-2.137 2.114 1.738 3.053 2.537 3.851 2.537s1.855-.799.939-1.08c-.939-.26-.54-1.457-.399-2.396.117-.939 1.456-1.057 2.396-1.854.916-.799 1.855-.682 1.996-1.48.141-.775 1.597-2.77 1.738-.656.117 2.137.657 3.85 1.456 4.531.798.658 1.338 1.338.54 2.254-.798.939.916 2.137.916 3.992 0 1.879.399 1.879-1.057 1.596-1.456-.258-2.536.541-1.456 1.879 1.057 1.34.916 2.537-.141 3.053-1.057.541-1.338 1.48-1.855 3.594-.54 2.137-1.479 4.93-1.081 6.012.4 1.057 1.597 2.91 2.537 2.91.939 0 1.197 1.08 1.456 2.537.282 1.455 2.395 2.137 2.677 3.732.258 1.598 2.654 3.453 1.198 3.336-1.479-.143-1.738 1.057-1.738 2.512 0 1.479.658 4.133.658 4.133s.54 1.879-.259 3.334c-.798 1.457-1.456 4.133-1.197 5.73.258 1.596-2.653 4.25-3.733 4.25-1.057 0-1.597-1.057.399-1.457 1.996-.398 1.996-2.254.281-2.395-1.737-.141-3.217-.539-3.217 1.197 0 1.738 0 2.936-1.996 2.537-1.996-.4-1.761-1.127-1.714-2.277.023-1.129 1.104-3.664 1.456-4.393.376-.727 1.057-2.535 1.738-3.193.657-.656 2.794-4.789 2.794-4.789s1.996-4.533.141-2.936c-1.878 1.596-5.33 4.531-5.612 5.988-.258 1.479-2.114 6.527-2.114 8.264 0 1.738-1.738 2.537-1.738 5.449 0 2.936-.939 9.721.141 11.459 1.057 1.738-.681 3.732-1.479 3.992-.799.281-4.391 3.076-6.129 2.934-1.714-.141-2.513-.656-2.254-1.854s-.798-1.879-1.197-.682-2.278 1.197-1.878-1.057c.399-2.277 2.277-8.523 4.931-11.459 2.677-2.936.54-3.451 2.935-3.334 0 0 1.456-2.912.141-3.311-1.338-.4-1.197-1.34-1.197-2.537s-1.339-2.795-.399-4.932c.916-2.137 3.452-5.986 2.653-8.266-.798-2.254-3.193-2.793-3.193-2.793-1.456 0-3.193-1.057-3.193-2.795-.003-1.709-2.28-2.108-1.341-3.729z"/><path d="M84.006 151.072s-1.644-.963-.118-2.395c1.526-1.408 3.381-5.119 3.499-5.613.118-.492 1.362-1.643 1.362-.047 0 1.574-.165 5.496 0 6.363 0 0-1.315.236-1.809 1.105-.468.869-2.159 1.363-2.934.587zM81.564 153.326c.047-.258.376-.469.634-.445.235.023.493.328.446.539-.094.377-.399.869-.775.822-.305-.023-.399-.609-.305-.916zM71.044 173.896c.422 0 .775.354.775.775s-.353.775-.775.775c-.423 0-.752-.354-.752-.775s.33-.775.752-.775zM66.841 170.633c.47 0 .845.211.845.492 0 .26-.375.471-.845.471-.494 0-.869-.211-.869-.471 0-.281.376-.492.869-.492zM72.406 147.996s2.489-3.076 3.146-.375c.681 2.676-.845 6.316-1.432 6.715-.563.377-1.714.939-1.714-.773 0-1.739-.305-4.417 0-5.567zM70.387 162.859s1.526-2.207 2.489-.188c.963 2.02 1.926 2.584 1.926 3.852 0 1.244.751 3.357-.775 3.451s-3.17 1.715-4.227 1.527-2.02-2.207-2.02-2.207-1.151-.564.493-2.303c1.621-1.735 0-2.979 2.114-4.132zM47.257 148.137s-.329 2.701 0 3.594c.329.916-1.526 2.09-1.691.469-.164-1.643.564-3.054 1.691-4.063zM40.283 181.975c.422 0 .751.258.751.562 0 .283-.329.541-.751.541-.399 0-.751-.258-.751-.541 0-.305.352-.562.751-.562zM37.865 181.012s-.963 1.361-1.55.893c-.587-.447-1.174-1.408-.07-2.254 1.104-.846 5.166-7.092 5.495-7.609.329-.516 3.1-1.104 3.358 1.08.258 2.209-.587 3.828-2.654 3.945-2.067.14-3.992.447-4.579 3.945zM114.484 119.631c-.047-.305.424-.682.682-.564.447.164.729.658.799 1.104.023.213-.398.307-.611.236-.352-.143-.821-.401-.87-.776zM109.906 124.209c-.445.047-.469-1.057-.141-1.385.352-.398 1.502-.658 1.572-.141.071.682-.726 1.456-1.431 1.526zM108.592 119.842c-.4-.164-.447-.986-.141-1.291.375-.354 1.08-.211 1.525 0 .258.117.398.609.188.799-.398.375-1.057.726-1.572.492zM125.217 103.498c-.822-.07-.822-1.057 0-1.033 1.572.047 3.381.236 4.836.963 1.27.658.4 2.467-.539 1.48-1.221-1.267-2.866-1.246-4.297-1.41zM139.398 117.377s1.176.82 1.785.82c.588 0 .963 1.41 0 1.41-.986 0-2.676-.822-2.676-1.268.001-.446.141-2.372.891-.962zM134.727 111.811s-.963 1.27-.963 0c0-1.244.211-3.709 1.244-3.709 1.057 0 1.197.234 2.02 1.855.799 1.643 1.926 3.334 3.477 4.084 1.549.752-1.27 2.232-1.785 1.27-.518-.963-2.373-3.336-2.748-3.711-.353-.375-1.175-.963-1.245.211z" fill="#fff"/></g></svg>