<svg xmlns="http://www.w3.org/2000/svg" width="2500" height="2500" viewBox="0 0 192.756 192.756"><g fill-rule="evenodd" clip-rule="evenodd"><path fill="#fff" d="M0 0h192.756v192.756H0V0z"/><path d="M117.268 59.94l-.098-.628-.574-.269c-2.906-1.355-10.787-4.51-21.168-4.51-9.797 0-17.317 2.826-20.928 4.51l-.575.269-.098.628c-.645 4.147-1.797 15.133 1.421 27.54 3.259 12.563 9.861 22.382 19.623 29.181l.677.472.677-.472c9.761-6.799 16.363-16.617 19.623-29.181 3.218-12.407 2.066-23.393 1.42-27.54z"/><path d="M113.551 86.882c-3.037 11.704-9.092 20.897-18.003 27.342-8.911-6.445-14.966-15.639-18.002-27.342-2.956-11.395-2.093-21.538-1.466-25.941 3.62-1.615 10.502-4.024 19.348-4.024 9.281 0 16.449 2.632 19.588 4.025.627 4.403 1.49 14.546-1.465 25.94z" fill="#fff"/><path d="M108.271 119.558l-2.732 13.147h5.572l1.146-5.479c.328-1.479 2.021-3.232 6.336-3.287l.928-4.382s-3.004-.603-5.242 1.15c-.219.219-.766.438-.656-.109l.219-1.041h-5.571v.001zM158.756 114.25l-.709 3.178h5.57l.709-3.178h-5.57zM157.615 119.557h5.573l-2.733 13.148h-5.625l2.785-13.148zM184.35 114.25l-.709 3.178h5.57l.711-3.178h-5.572zM183.209 119.557h5.572l-2.732 13.148h-5.625l2.785-13.148zM164.896 119.559l-2.785 13.147h5.627l1.42-7.066c.381-2.137 2.402-2.903 3.658-2.903s2.35.767 1.857 3.232l-1.365 6.737h5.57l1.584-7.778c.492-2.411.385-5.917-4.26-5.917-3.605 0-4.807 1.26-5.516 1.753-.383.219-.547 0-.438-.273l.219-.932h-5.571zM140.178 114.204l-3.877 18.517h5.625l1.42-7.066c.383-2.137 2.404-2.904 3.66-2.904s2.348.768 1.857 3.232l-1.367 6.738h5.572l1.584-7.779c.492-2.41.383-5.916-4.26-5.916-3.605 0-4.807 1.26-5.518 1.753-.383.219-.547 0-.438-.274l1.312-6.3h-5.57v-.001zM12.284 114.204L9.17 128.996h9.559l-.765 3.725H2.834l3.824-18.517h5.626zM61.291 119.284c-2.149 0-4.396 1.01-5.781 2.398-.659-1.904-3.048-2.398-4.784-2.398-2.209 0-4.204 1.065-5.149 1.778l.312-1.506h-5.571l-2.731 13.148h5.571l1.472-7.086c.644-1.896 2.12-2.61 3.2-2.61 1.202 0 2.185.712 1.803 2.575l-1.475 7.121h5.571l1.464-7.085c.645-1.897 2.12-2.611 3.201-2.611 1.202 0 2.185.712 1.803 2.575l-1.475 7.121h5.571l1.856-8.984c.713-3.615-2.619-4.436-4.858-4.436zM78.868 65.97l1.408-.523.19.514-2 .744-1.049-2.841.591-.219.86 2.325zM81.766 65.56l-.64.18.219-3.208.7-.198 1.842 2.627-.659.186-.355-.548-1.073.302-.034.659zM87.607 64.209l-.578.112-.478-2.485-.009.001-.075 2.593-.607.117-1.018-2.381-.009.002.478 2.485-.578.112-.571-2.974.904-.175.987 2.24.008-.001.078-2.446.897-.174.571 2.974zM88.36 61.047l1.458-.165c.735-.083.975.356 1.01.667.048.431-.181.581-.299.658.383.097.513.379.546.677a.88.88 0 0 1-.189.649c-.153.187-.304.311-.918.38l-1.27.144-.338-3.01zM93.411 60.539c.399-.016 1.457.115 1.513 1.536s-.987 1.635-1.387 1.651c-.399.016-1.457-.115-1.513-1.536-.056-1.42.988-1.635 1.387-1.651zM96.085 60.563l1.526.047c.803.024.932.623.924.885-.01.333-.188.615-.488.707.244.117.377.214.359.779-.014.442-.018.552.115.607l-.002.08-.697-.021c-.039-.145-.059-.301-.049-.613.012-.414-.008-.574-.475-.588l-.652-.021-.036 1.185-.618-.019.093-3.028zM101.105 62.255l1.256.129-.166 1.625-.418-.043-.025-.384c-.178.168-.436.417-.984.361-.723-.075-1.326-.663-1.219-1.72.084-.823.619-1.552 1.631-1.444.922.095 1.225.732 1.215 1.151l-.627-.064c.012-.118-.164-.518-.607-.563-.447-.046-.893.222-.973.994-.084.822.342 1.083.77 1.126.137.014.604.007.795-.588l-.699-.072.051-.508zM104.111 62.935l-.238 1.337-.621-.112.533-2.981.621.112-.203 1.129 1.16.208.201-1.129.622.112-.534 2.981-.621-.112.24-1.336-1.16-.209zM107.33 64.986l-.615-.147.703-2.945.613.147-.701 2.945zM111.047 62.888l.564.172-.879 2.898-.603-.185-.553-2.425-.008-.003-.627 2.067-.562-.172.877-2.898.637.194.535 2.367.008.003.611-2.018zM112.328 66.551l-.59-.223 1.063-2.835.592.223-1.065 2.835zM99.711 72.442a3.911 3.911 0 0 0-1.523-.331c-.533-.006-1.064.1-1.511.348s-1.55.777-2.679 1.608c-1.129.831-2.283 1.964-2.832 3.419-.548 1.455-.819 2.371-.982 3.006-.163.635-.218.99-.333 1.323-.115.333-.313.675-.479 1.055-.167.379-.303.795-.296 1.278.007.482-.029 1.047-.088 1.591-.059.543-.141 1.064-.225 1.458s-.197.847-.287 1.353a8.64 8.64 0 0 0-.147 1.667c.009.603-.027 1.206-.108 1.772a7.341 7.341 0 0 1-.381 1.55c-.173.455-.227.847-.289 1.217-.062.371-.132.718-.336 1.083-.205.364-.483.821-.762 1.255s-.558.845-.764 1.119-.307.592-.243.855.293.47.745.522c.451.054.84-.043 1.13-.228.29-.186.481-.46.537-.762.056-.303.049-.725.065-1.154.016-.43.054-.867.199-1.201l.145-.363.145-.364c.146-.243.25-.335.354-.412.104-.077.208-.139.355-.322s.38-.684.575-1.244c.194-.561.35-1.181.343-1.603a3.902 3.902 0 0 1 .104-1.034c.07-.28.172-.507.289-.72.117-.213.188-.455.298-.637.11-.183.258-.306.529-.279.271.025.348.16.38.333s.021.384.114.563c.093.179.187.373.316.544.131.171.298.32.54.406s.44.264.541.474a.645.645 0 0 1-.042.664c-.147.213-.352.578-.519.95s-.296.75-.293.992c.004.241.039.602 0 .979s-.153.771-.449 1.076a5.118 5.118 0 0 0-.693.877c-.161.267-.248.494-.245.645.002.15.065.346.225.501.16.156.417.272.808.267s.689-.087.913-.233.37-.359.456-.632.068-.468.028-.641c-.041-.173-.103-.322-.105-.503s.054-.393.118-.612.136-.446.163-.658a3.535 3.535 0 0 1 .635-1.697c.235-.335.366-.623.475-.881.109-.258.195-.485.342-.698.147-.213.206-.32.265-.351.06-.031.121.013.272.101.151.088.183.178.154.284s-.117.228-.204.38c-.088.152-.264.411-.448.685s-.375.563-.491.776c-.117.213-.188.485-.147.71.041.226.194.404.525.429.331.025.586.021.766-.034.179-.056.283-.163.31-.344.027-.181.083-.468.161-.756.078-.287.179-.575.296-.758s.19-.349.233-.493a1.21 1.21 0 0 0 .055-.355c.183.178.335.387.466.603.133.216.24.44.334.65.094.209.307.462.686.652.379.19.922.317 1.672.275s1.125-.078 1.334-.149.254-.177.342-.359c.086-.182.291-.547.391-.917s.094-.748-.24-.953c.055-.302.139-.71.268-1.104.129-.394.305-.773.541-1.018.236-.244.562-.491.854-.714.289-.223.541-.423.629-.575.395.205.758.463 1.033.835.277.372.465.859.506 1.521.006.361.055.699.113.993.057.292.119.541.152.721s.037.376.039.58c.004.203.006.414.041.625a.87.87 0 0 0 .346.537c.174.133.387.205.566.172s.342-.201.459-.414c.117-.213.188-.47.184-.681a.813.813 0 0 0-.148-.48c-.086-.119-.191-.208-.283-.297-.092-.089-.152-.163-.17-.276-.016-.113.012-.264.098-.506s.068-.453.006-.625c-.062-.173-.17-.307-.262-.396s-.201-.343-.281-.674c-.08-.33-.131-.736-.107-1.128s-.02-.843-.131-1.233-.289-.719-.533-.866c.691-.041 1.479-.098 2.182-.305s1.32-.563 1.672-1.201c-.391-.024-.842.013-1.385-.145-.543-.157-1.18-.509-1.943-1.311.055-.362.066-.604.041-.807s-.088-.368-.182-.577c-.094-.21-.217-.404-.297-.719-.08-.315-.117-.751-.037-1.446s.047-1.809-.25-3.025c-.297-1.215-.857-2.533-1.836-3.633.258-.817.4-1.377.43-1.83a2.201 2.201 0 0 0-.236-1.187c-.186-.389-.672-.712-1.381-.936-.709-.222-1.643-.343-2.725-.327-1.08.017-2.627.086-3.904.068-1.277-.018-2.285-.123-2.291-.454-.004-.332.173-.485.412-.564.239-.079.54-.083.779-.117.363.145.875.228 1.409.272.534.044 1.09.051 1.542.044.449-.007.867-.134 1.309-.262s.906-.255 1.447-.263c-.453-.144-1.027-.361-1.615-.518-.59-.157-1.191-.253-1.701-.154-.183-.178-.32-.312-.531-.369-.211-.057-.497-.038-.975.09-.479.128-.779.178-1.034.212s-.465.053-.764.118-.719.117-1.062.28c-.343.164-.609.439-.602.951.008.512.18.962.696 1.277.516.316 1.375.499 2.756.477 1.382-.021 2.882-.06 4.125.004 1.238.064 2.219.229 2.555.616.336.387.43.642.381.853-.049.212-.242.38-.479.595-.211.003-.586.024-1.021-.007-.442-.027-.94-.11-1.393-.314z"/><path d="M98.424 92.653c.072-.25.195-.564.277-1.048.082-.483.125-1.135.037-2.061a2.257 2.257 0 0 0-.49.241 1.48 1.48 0 0 0-.461.467 9.918 9.918 0 0 1-.01-1.371c.025-.49.078-.95.15-1.193.07-.242.1-.363.139-.454.041-.091.092-.152.211-.274a.807.807 0 0 0 .201-.531.815.815 0 0 0-.25-.613 1.924 1.924 0 0 1-.395-.51 1.05 1.05 0 0 1-.102-.538c.012-.196.195-.47.598-.729.4-.258 1.021-.501 1.904-.636.121-.017.182.028.189.092.008.063-.035.147-.125.209-.088.062-.273.2-.459.35-.186.15-.371.311-.459.418-.09.106-.236.35-.227.647.008.298.17.649.701.972.531.323.854.495 1.129.589.275.093.504.108.85.118-.105-.119-.406-.366-.695-.607-.289-.24-.568-.473-.629-.562-.062-.089-.152-.194-.174-.325s.029-.291.252-.49c.221-.199.414-.375.562-.525.148-.149.25-.271.295-.362.211.102.559.263.906.412.35.149.695.287.908.344.211.057.438.153.646.279.207.126.398.281.535.456.254.32.787.59 1.406.724.621.134 1.326.13 1.924-.098a7.459 7.459 0 0 1-1.092-.45c-.469-.237-.975-.558-1.303-.944-.246-.289-.402-.422-.547-.497-.143-.075-.273-.093-.471-.15-.195-.057-.58-.149-.98-.332-.4-.182-.818-.454-1.08-.872-.262-.417-.467-1.024-.637-1.579s-.305-1.058-.43-1.267c-.123-.209-.305-.402-.479-.648a2.377 2.377 0 0 1-.416-.965 17.155 17.155 0 0 0-.275-1.224c-.104-.375-.221-.697-.359-.906s-.256-.568-.371-.909c-.113-.341-.223-.664-.346-.797a4.979 4.979 0 0 0-.686-.623c-.312-.229-.684-.426-1.043-.436-.361-.01-.832.156-1.312.423s-.971.637-1.37 1.035-.852.744-1.24 1.126c-.389.383-.713.802-.854 1.347s-.349 1.256-.553 1.907-.405 1.242-.536 1.545c-.13.304-.399.933-.618 1.603s-.388 1.381-.32 1.847c-.01.377.026.715.119.943.094.229.246.347.47.283.225-.063.304-.269.391-.462s.182-.376.437-.395c.255-.019.383.009.478.057.094.047.155.114.276.173.121.058.273.161.424.208.151.046.301.037.419-.131.117-.167.281-.246.454-.278s.353-.021.503-.008c.151.013.301.01.439-.048s.264-.173.366-.386c.102-.212.25-.29.385-.311a.678.678 0 0 1 .301.029c.199.238.384.574.517.892.133.318.213.619.2.784a3.11 3.11 0 0 1-.185.737 3.93 3.93 0 0 1-.451.9c-.191.273-.418.661-.416 1.072.002.41.234.844.961 1.209.004.271-.017.422.077.617.093.194.3.432.757.877.168.148.34.432.488.734.146.303.268.625.332.85.023.075.072.123.119.132.056.012.099-.019.113-.103zM81.821 64.354l.741-.209-.684-1.051-.007.002-.05 1.258zM89.242 63.464l.769-.086c.305-.035.465-.188.431-.495-.03-.264-.267-.339-.493-.314l-.798.091.091.804zM89.094 62.16l.735-.083c.247-.028.432-.146.405-.386-.028-.247-.212-.303-.496-.271l-.719.081.075.659zM93.516 63.19c.34-.013.811-.243.777-1.09-.033-.848-.521-1.039-.861-1.025s-.811.243-.777 1.09c.033.847.52 1.038.861 1.025zM97.402 61.941c.328.01.49-.099.5-.399.006-.16-.059-.398-.43-.41l-.786-.024-.024.81.74.023z" fill="#fff"/><path d="M79.542 119.133c-3.223 0-4.369 1.15-5.517 2.191l1.529-7.121h-5.571l-3.878 18.516h5.571l.273-1.314c1.038.821 2.622 1.862 5.353 1.862 2.73 0 7.975-1.808 8.793-7.614.82-5.807-3.331-6.52-6.553-6.52zm.197 7.231c-.437 2.481-2.054 4.002-4.198 4.001-1.953-.002-3-1.52-2.564-4.001.437-2.481 2.304-3.944 4.444-3.918 1.956.024 2.755 1.437 2.318 3.918zM97.951 119.222c-5.077 0-9.995 1.562-11.101 7.127-1.088 5.479 3.026 7.019 8.103 7.019 5.076 0 9.98-2.153 10.936-7.019 1.119-5.697-2.862-7.127-7.938-7.127zm1.717 7.127c-.436 2.481-2.053 4.002-4.197 4.001-1.953-.002-3-1.52-2.563-4.001.436-2.481 2.303-3.944 4.444-3.918 1.955.024 2.753 1.436 2.316 3.918zM30.746 119.118c-7.101 0-8.576 2.685-9.012 4.492h5.735c.328-1.26 1.802-1.424 2.676-1.424s2.185.328 1.803 2.136c-9.285.22-11.798 2.027-12.398 5.04-.601 3.014 1.856 3.89 4.97 3.89s4.752-.767 6.008-1.588l-.273 1.04h5.517l1.802-8.765c.873-4.218-3.387-4.821-6.828-4.821zm.382 9.039c-.218 1.096-1.802 2.301-3.877 2.301-2.076 0-2.021-.821-1.967-1.533.055-.713.819-1.973 6.118-2.027l-.274 1.259zM131.822 119.541l-.273 1.151c-1.475-.986-2.295-1.479-4.643-1.479-2.35 0-7.211 1.369-8.357 6.464s1.584 7.013 4.424 7.013 4.752-.548 6.391-1.534c-.6 2.849-1.912 4.054-3.877 4.054-1.967 0-2.24-.767-2.623-1.808h-5.625c-.219 3.999 1.529 4.82 7.646 4.82s9.176-2.849 9.832-5.916l2.676-12.765h-5.571zm-1.529 6.629c-.328 1.314-.93 3.589-3.879 3.506-1.967-.055-2.211-2.227-1.967-3.451.217-1.086.82-3.67 3.77-3.67s2.306 2.687 2.076 3.615z"/></g></svg>