<svg xmlns="http://www.w3.org/2000/svg" width="2179" height="2500" viewBox="5.301 4.764 340 390"><path fill="#F7DE9F" d="M165.137 391.903c-5.506-3.093-21.234-15.187-33.724-25.932-20.731-17.834-38.91-37.476-55.175-59.613-35.003-47.643-56.65-103.065-66.113-169.28-4.517-31.594-6.268-75.725-3.397-85.572 1.817-6.234 5.952-12.04 11.18-15.697 5.652-3.955 23.703-11.075 39.895-15.736 34.312-9.88 72.209-14.611 117.179-14.634 57.329-.028 104.249 7.624 143.833 23.457 14.133 5.653 19.36 9.707 23.44 18.172l2.683 5.562-.063 24.332c-.176 67.616-15.427 133.348-43.24 186.368-7.088 13.514-23.847 39.652-32.138 50.128-15.343 19.384-33.08 37.982-50.68 53.143-11.885 10.236-29.473 23.58-34.348 26.06-5.992 3.049-13.047 2.772-19.332-.758zm11.894-1.738c-.92-.244-2.424-.244-3.344 0-.92.245-.167.445 1.672.445 1.84 0 2.592-.2 1.672-.445zm-37.975-24.028c0-.202-.752-.97-1.672-1.703-1.516-1.211-1.55-1.177-.361.367 1.248 1.622 2.033 2.137 2.033 1.336zm-5.733-4.816c0-.174-1.182-1.38-2.627-2.676l-2.627-2.36 2.316 2.677c2.165 2.502 2.938 3.123 2.938 2.359zM119.948 348.5c-3.385-3.48-6.37-6.326-6.632-6.326s2.292 2.847 5.677 6.326 6.37 6.326 6.632 6.326-2.292-2.847-5.677-6.326zm-14.33-14.6c-3.385-3.48-6.37-6.325-6.632-6.325s2.292 2.846 5.677 6.326c3.385 3.479 6.37 6.326 6.632 6.326s-2.293-2.847-5.677-6.326zm-8.6-9.562c0-.175-1.181-1.38-2.626-2.677l-2.627-2.36 2.316 2.678c2.165 2.5 2.938 3.122 2.938 2.359zm-5.731-6.831c0-.186-.967-1.171-2.15-2.19l-2.15-1.854 1.82 2.19c1.71 2.057 2.48 2.632 2.48 1.854zm-3.822-4.868c0-.185-.967-1.17-2.15-2.19l-2.148-1.853 1.82 2.189c1.71 2.059 2.478 2.634 2.478 1.854zm-3.821-4.897c0-.202-.752-.97-1.672-1.703-1.515-1.211-1.55-1.177-.361.367 1.248 1.62 2.033 2.137 2.033 1.336zm-2.866-3.894c0-.201-.752-.968-1.672-1.703-1.515-1.21-1.55-1.176-.361.368 1.249 1.622 2.033 2.137 2.033 1.335zm-2.866-3.892c0-.202-.752-.97-1.672-1.703-1.515-1.211-1.55-1.176-.36.367 1.247 1.62 2.032 2.137 2.032 1.336zm-13.375-20.071c-.562-1.071-1.237-1.947-1.5-1.947-.263 0-.018.876.545 1.947.562 1.07 1.237 1.946 1.5 1.946s.017-.875-.545-1.946zm-2.867-4.867c-.562-1.07-1.237-1.946-1.5-1.946s-.018.876.545 1.946c.562 1.07 1.237 1.947 1.5 1.947s.018-.875-.545-1.947zm-2.865-4.866c-.562-1.07-1.238-1.946-1.5-1.946s-.018.876.545 1.946c.562 1.07 1.237 1.947 1.5 1.947.262 0 .017-.876-.545-1.947zm-8.803-16.992c-2.733-5.6-5.122-10.023-5.308-9.834-.423.43 9.18 20.014 9.814 20.014.255 0-1.773-4.581-4.506-10.18zm-8.277-17.73c-1.126-1.972-1.398-1.34-.477 1.107.328.869.797 1.376 1.043 1.126.246-.25-.008-1.254-.566-2.232zm91.777-168.38c-.69-.28-1.514-.246-1.831.078-.317.323.247.553 1.254.51 1.113-.046 1.34-.277.577-.587zM13.312 48.687c.326-.866.166-1.257-.375-.916-.52.327-.945 1.007-.945 1.51-.001 1.4.684 1.092 1.32-.594zm325.416.645c0-.476-.892-1.9-1.98-3.163l-1.98-2.297 1.709 3.163c1.77 3.279 2.25 3.769 2.25 2.297zM112.484 34.933c-.69-.281-1.514-.247-1.831.076-.318.323.247.554 1.254.512 1.113-.047 1.34-.277.577-.588zm41.38-1.282c.95-1.07 1.514-1.946 1.25-1.946s-1.255.876-2.206 1.946-1.514 1.946-1.251 1.946 1.256-.876 2.207-1.946zm-24.183-.665c-.69-.281-1.514-.246-1.831.077s.247.554 1.254.512c1.113-.047 1.339-.277.577-.59zm114.644-18.491c-.69-.281-1.514-.247-1.831.076-.317.324.246.554 1.254.512 1.113-.047 1.34-.278.577-.588zm-7.643-.974c-.69-.281-1.514-.246-1.83.077-.318.323.246.553 1.254.51 1.112-.046 1.338-.276.576-.587zm-7.582-.953c-.657-.27-1.732-.27-2.39 0-.656.27-.118.49 1.194.49 1.315 0 1.852-.22 1.196-.49zm-94.642-.993c-.69-.281-1.514-.247-1.831.077-.317.323.247.553 1.254.51 1.113-.046 1.339-.277.577-.587zm83.636-.01c-.93-.247-2.22-.23-2.865.036-.647.267.113.469 1.689.448 1.576-.02 2.105-.237 1.176-.484zm-65.442-1.004c-1.717-.217-4.297-.212-5.732.01s-.03.399 3.122.394c3.153-.005 4.328-.187 2.61-.404zm50.635 0c-1.717-.217-4.297-.212-5.732.01s-.031.399 3.122.394c3.153-.005 4.327-.187 2.61-.404z"/><path fill="#F9CE5C" d="M166.38 392.286c-17.105-9.15-57.066-45.363-77.851-70.551-52.894-64.1-79.285-141.551-82.867-243.2-.888-25.186.755-31.713 10.144-40.313C27.8 27.236 75.039 13.572 117.082 8.929 195.16.305 270.115 8.4 323.65 31.239c14.964 6.385 20.77 14.884 21.557 31.554.517 10.936-1.18 43.628-3.174 61.194-12.286 108.2-56.725 190.104-137.95 254.247-17.022 13.444-21.076 15.827-27.595 16.225-4.39.267-6.323-.15-10.107-2.173zm22.058-7.268c30.897-21.355 62.737-52.967 85.78-85.166 30.495-42.611 50.602-93.122 60.637-152.33 5.885-34.721 8.38-84.773 4.828-96.84-2.093-7.104-8.535-12.193-22.553-17.812C276.289 16.5 220.408 8.062 163.417 9.662c-51.83 1.455-93.688 8.934-129.591 23.155-10.264 4.065-12.87 5.549-17.333 9.865-5.145 4.976-5.278 5.243-6.451 12.91-1.383 9.043-.1 43.935 2.452 66.625 12.39 110.192 57.67 192.367 141.436 256.68 13.133 10.084 16.483 11.939 21.559 11.939 3.962 0 5.59-.732 12.949-5.818zm-22.651.798c-4.45-2.757-17.003-12.452-26.731-20.646-52-43.793-87.836-97.096-108.422-161.264-7.918-24.683-13.878-53.702-17.188-83.694-1.602-14.518-3.49-56.143-2.756-60.771 1.165-7.347 1.205-7.421 3.339-6.257 3.034 1.654 4.389-.305 2.376-3.436-1.24-1.927-1.37-2.94-.57-4.46 5.23-9.956 53.097-25.185 95.994-30.541 20.726-2.587 37-3.478 63.632-3.48 51.449-.004 90.257 5.465 127.442 17.962 16.806 5.648 26.938 10.165 29.649 13.219 1.69 1.902 1.695 2.11.095 4.869-2.092 3.607-1.391 4.825 2.776 4.825 3.464 0 3.397-.11 4.672 7.642.785 4.778-1.145 47.17-2.843 62.433-7.825 70.344-29.765 130.273-65.802 179.747-21.232 29.147-53.85 61.329-82.612 81.507l-6.843 4.8-1.537-2.234c-1.305-1.897-2.123-2.154-5.433-1.702-2.143.293-4.373 1.195-4.954 2.006-.932 1.296-1.446 1.233-4.284-.525zm-20.59-121.086c1.68-1.713 2.01-4.311.546-4.311-.525 0-.956.43-.956.955s-1.075 1.229-2.388 1.565c-2.392.61-2.945 1.455-1.751 2.67 1.073 1.095 2.972.728 4.549-.88zm-25.25-12.64c0-.236-.43-.43-.955-.43s-.956.465-.956 1.03c0 .568.43.76.956.43s.956-.794.956-1.03zm66.764-8.253c-1.604-2.655-3.07-4.828-3.256-4.828-.186 0 .818 2.34 2.23 5.203 1.414 2.86 2.88 5.035 3.256 4.829.377-.206-.627-2.548-2.23-5.204zm15.875-16.506c.34-.56-.331-.87-1.58-.73-1.713.19-2.303-.372-2.81-2.678-.595-2.724-.645-2.753-.751-.438-.17 3.755 3.522 6.517 5.14 3.846zM181 212.37c4.3-.827 5.824-2.243 5.824-5.413 0-2.847-2.78-7.644-2.836-4.893-.017.825-1.93 3.398-4.25 5.719s-4.44 5.08-4.71 6.132c-.44 1.714-.324 1.766 1.114.498.883-.78 3.069-1.698 4.858-2.042zm30.64-1.564c-6.328-.832-8.524-1.932-11.815-5.916-4.097-4.96-2.968-10.66 2.6-13.127l3.029-1.343-3.402-.038c-10.018-.112-10.18 13.985-.221 19.34 2.539 1.365 5.339 1.923 9.355 1.863l5.732-.085-5.278-.694zm26.698-9.27c-.041-1.07-.292-1.398-.557-.728-.266.669-1.307 1.216-2.312 1.216-1.008 0-1.832.329-1.832.73s1.075.729 2.389.729c1.777 0 2.369-.498 2.312-1.946zm-101.71-5.64c1.598-2.492 3.91-4.818 5.14-5.17 2.613-.744 9.063 1.146 12.804 3.752 3.757 2.619 8.628 3.246 10.202 1.314.697-.855 2.396-1.57 3.777-1.586 2.414-.03 2.439-.086.656-1.46-1.151-.887-4.052-1.435-7.643-1.443-7.026-.018-10.094-1.458-12.045-5.658l-1.48-3.186-1.811 2.039c-2.567 2.89-5.603 2.182-6.227-1.454l-.501-2.92-2.953 4.38c-4.184 6.205-6.088 10.248-6.088 12.929-.002 5.144 2.244 4.584 6.169-1.536zm57.6-11.334c.978-.233-.113-6.678-1.65-9.746-1.438-2.875-2.632-3.922-5.015-4.402-9.398-1.893-11.721-4.785-10.854-13.522.659-6.653.594-6.81-4.52-10.692-2.005-1.524-4.116-3.821-4.69-5.104-1.366-3.055-2.743-2.946-9.312.733-7.706 4.315-8.417 5.812-4.913 10.343 1.556 2.012 3.09 5.463 3.452 7.76.363 2.31 1.178 4.136 1.846 4.136 1.764 0 3.413 4.38 3.413 9.065 0 3.463.659 4.875 4.198 8.996l4.198 4.889 11.805-1.198c6.492-.661 11.91-1.227 12.043-1.258zm20.727-7.402c-1.295-3.505-3.656-11.498-5.248-17.763-1.682-6.618-4.717-15.16-7.246-20.392-4.131-8.542-5.33-10.061-6.465-8.19-.63 1.04 4.38 13.62 7.985 20.053 1.519 2.71 3.895 9.524 5.28 15.146 1.452 5.884 3.564 11.768 4.98 13.868 1.352 2.008 2.596 3.65 2.764 3.65.168 0-.755-2.868-2.05-6.372zm-22.638-50.392c-4.952-4.131-2.437-7.168 3.613-4.36 1.93.896 2.408 1.698 2.074 3.48-.28 1.495-.106 1.98.49 1.372 1.716-1.747.296-4.545-3.186-6.28-6.26-3.117-9.472.554-4.567 5.22 1.635 1.557 3.248 2.813 3.587 2.795.34-.02-.566-1.022-2.011-2.227zm39.935-5.98c.762-1.856 1.383-4.374 1.38-5.596-.003-2.977-3.193-8.147-5.915-9.591l-2.201-1.167 2.03 2.32c4.448 5.089 5.276 9.507 2.723 14.537-.903 1.78-1.066 2.87-.43 2.87.566.002 1.652-1.517 2.413-3.373zm-70.09-22.93c-4.233-2.63-3.935-6.271.777-9.503 2.679-1.838 4.34-2.23 8.36-1.98 3.42.217 5.017-.052 5.017-.843-.001-.64 2.04-1.82 4.537-2.626l4.537-1.467-5.732.51c-8.777.783-15.006 2.897-19.064 6.47-3.113 2.742-3.587 3.65-3.047 5.845.352 1.43 1.817 3.249 3.255 4.044 3.92 2.166 4.998 1.81 1.36-.45zM36.695 73.799c-.318-19.115-.307-19.228 1.819-20.183 3.179-1.43 2.589-2.505-.728-1.327l-2.866 1.018v19.857c0 13.749.322 19.856 1.047 19.856.735 0 .952-5.735.728-19.221zm157.614 18.368c.989-.64.876-.93-.506-1.298-.98-.261-2.322.116-2.984.838-.98 1.069-.887 1.31.506 1.298.94-.008 2.282-.385 2.984-.838zM312.713 53.21c1.467.563 2.189.598 1.652.077-.525-.51-1.922-1.223-3.104-1.587l-2.15-.661.219 20.26.218 20.262.279-19.677.279-19.677 2.607 1.003zM53.55 82.075c.625-.624.13-.707-1.433-.24-3.735 1.114-8.598 3.25-8.598 3.777 0 .713 8.926-2.434 10.03-3.537zm9.165-18.637c4.066-17.928 4.243-18.422 7.056-19.671l2.886-1.28-2.51-.038c-1.38-.021-2.941.509-3.467 1.178-.951 1.209-9.842 38.59-9.726 40.89.129 2.546 1.742-3.357 5.76-21.08zm232.18 17.246c-1.124-1.974-1.396-1.342-.475 1.105.327.87.797 1.377 1.043 1.126s-.008-1.254-.567-2.231zm-13.02-37.063c1.286.25 2.11.08 1.834-.378-.278-.458-1.555-.832-2.838-.832h-2.332l.218 19.708.218 19.709.28-19.332.28-19.331 2.34.456zM75.47 76.04c-.36-1.952-.87-3.331-1.131-3.063s-.184 2.085.176 4.038c.359 1.953.869 3.332 1.13 3.064s.185-2.085-.175-4.038zm12.294-17.227c.179-18.73.192-18.84 2.329-19.147 1.182-.171 2.149-.77 2.149-1.33 0-.582-.922-.768-2.15-.433-1.181.323-2.471.593-2.865.6-.394.008-.716 9.065-.716 20.128s.242 19.868.537 19.567c.294-.301.617-9.024.716-19.385zm181.003-18.628c2.402-.372 2.363-.415-.497-.55l-3.105-.146.217 19.708.219 19.709.279-19.16.28-19.158 2.607-.403zM98.066 67.263c-1.344-3.966-2.593-7.057-2.776-6.87-.184.187.656 3.858 1.867 8.159 1.21 4.3 2.459 7.393 2.776 6.87s-.523-4.193-1.867-8.16zm154.425-4.17c-.196-2.543-.358-.463-.358 4.623 0 5.085.162 7.165.358 4.623.197-2.543.197-6.704 0-9.246zm-143.052 1.053c0-5.71-.157-10.198-.35-9.976-.82.95-1.311 20.357-.516 20.357.477 0 .866-4.671.866-10.381zm13.375-10.541V34.744l4.285-.654c2.356-.36 5.795-.475 7.642-.256 1.847.22 2.995.03 2.55-.422-.442-.451-4.204-.692-8.357-.534l-7.552.287-.26 20.265c-.172 13.598.063 20.062.718 19.65.608-.383.974-7.697.974-19.475zM238.194 35.5l2.608-.097-2.39-.724c-1.313-.397-2.71-.547-3.104-.332s-.618 9.234-.5 20.042l.219 19.65.28-19.221.28-19.223 2.608-.095zm61.154 13.097c2.539.532 2.532.515-.268-.782l-2.866-1.328-.478 11.83c-.264 6.507-.264 12.487 0 13.29.262.803.598-4.168.746-11.047l.268-12.507 2.598.544zM153.03 67.686c-2.951-3.572-3.92-7.938-3.823-17.215.083-7.958 2.32-15.092 5.426-17.31 1.124-.801 3.775-1.471 5.89-1.486 3.176-.024 3.544-.21 2.108-1.062-2.394-1.418-6.34-.245-9.507 2.824-6.733 6.525-7.413 27.81-1.11 34.739 3.147 3.46 3.957 3.07 1.016-.49zm33.727-35.837c4.146.19 7.038.025 6.429-.37-.61-.395-4.226-.725-8.034-.732l-6.927-.016.218 20.195.219 20.195.279-19.811.279-19.811 7.537.35zm6.275 32.947c-.895-2.746-1.842-4.773-2.105-4.506-.262.268.256 2.733 1.15 5.479.896 2.746 1.843 4.773 2.105 4.506.264-.268-.253-2.733-1.15-5.48zm-56.77 1.39c2.263-2.085 2.457-8.017.352-10.694-1.435-1.824-1.452-1.816-.478.237 2.502 5.276.098 10.999-4.633 11.027-1.364.009-3.124.48-3.913 1.05-1.071.775-.388.915 2.702.556 2.273-.265 4.96-1.244 5.97-2.175zm71.913-.661c-2.146-4.176-2.883-17.803-1.278-23.641 1.64-5.966 5.782-9.498 10.59-9.03 1.964.19 3.364.01 3.115-.401s-2.181-.748-4.292-.748c-4.721 0-8.734 3.639-10.283 9.322-1.725 6.324-1.283 18.775.834 23.525 1.014 2.274 2.09 4.136 2.392 4.136s-.184-1.423-1.078-3.163zM72.01 66.869c1.039-.671 1-1.663-.22-5.581l-1.484-4.765.54 4.437c.483 3.963.302 4.555-1.69 5.53-2.026.993-2.055 1.099-.32 1.145 1.05.028 2.479-.317 3.174-.766zm150.129-1.036c.544-1.035.982-2.46.975-3.163s-.567-.186-1.244 1.152c-.994 1.966-1.904 2.412-4.738 2.324-1.928-.06-3.277.27-2.997.73 1.023 1.689 6.976.913 8.004-1.043zm-57.051-2.984c1.197-2.441 1.67-5.751 1.67-11.68 0-10.401-1.855-14.938-6.29-15.378-1.751-.175-3.426.296-4.13 1.158-1.035 1.272-.807 1.309 1.838.293 2.723-1.045 3.193-.94 4.794 1.073 3.462 4.354 3.742 20.032.449 25.152-1.25 1.943-2.21 2.405-4.336 2.088-1.502-.225-2.5-.025-2.214.443.284.469 1.874.718 3.532.554 2.355-.231 3.383-1.043 4.687-3.703zM109.11 36.562c.443-.427 1.666-.986 2.717-1.244 1.285-.314.935-.505-1.071-.581l-2.981-.112-2.996 10.462c-1.647 5.755-2.968 11.12-2.936 11.923.033.803 1.5-3.295 3.26-9.105 1.76-5.812 3.564-10.916 4.007-11.343zm114.317 16.296l4.956-.354-5.494-.181c-5.427-.178-5.491-.147-5.363 2.497.108 2.22.2 2.312.538.535.346-1.817 1.157-2.195 5.363-2.497zm-81.944.323c-.347-.571-1.087-1.038-1.646-1.038-.633 0-.561.559.192 1.483 1.31 1.609 2.482 1.25 1.454-.445zm111.26-7.956v-7.891l2.628.62c1.949.463 2.258.368 1.195-.365-.79-.543-2.186-.994-3.105-1.003-1.455-.013-1.672 1-1.672 7.78v7.794l-5.016-.382c-3.904-.298-4.275-.223-1.672.34 7.87 1.7 7.643 1.904 7.643-6.893zm-117.455 3.177c2.72-2.244 2.928-7.33.397-9.688-1.631-1.52-1.678-1.521-.572-.018 1.557 2.115 1.02 7.678-.834 8.644-.79.41-2.938 1.176-4.777 1.702l-3.344.955 3.477.1c2.079.06 4.35-.622 5.653-1.695zm58.224-1.125c2.285-2.328 2.496-7.051.409-9.177-2.171-2.212-2.668-1.877-.941.634 3.322 4.832 1.232 8.459-5.521 9.583l-3.978.663 4.06.12c2.9.088 4.605-.432 5.97-1.823zm28.283-6.55c-.318-.323-.544.252-.502 1.277.045 1.134.27 1.365.576.589.277-.703.242-1.541-.074-1.866z"/><path fill="#D8A016" d="M167.23 392.495c-11.49-5.582-41.565-30.913-61.624-51.9C50.878 283.328 20.34 215.59 9.133 126.597 7.643 114.77 5.32 79.189 5.312 68.06c-.015-18.04 5.629-29.044 17.95-35 13.196-6.378 39.665-14.68 59.905-18.788 35.358-7.18 84.855-10.36 122.286-7.858 41.938 2.802 73.504 8.696 103.915 19.404 21.728 7.65 28.24 12.068 33.073 22.43 2.477 5.313 2.494 5.519 2.318 26.766-.726 87.3-23.391 164.306-66.39 225.56-20.206 28.787-48.848 58.177-79.701 81.785-16.484 12.613-22.406 14.523-31.437 10.135zm20.783-6.836c22.519-15.314 57.968-48.694 75.638-71.224 18.95-24.163 39.105-59.036 49.217-85.16 15.543-40.16 24.26-81.266 27.758-130.902 1.169-16.577 1.22-39.571.1-44.482-.561-2.467-.484-3.721.242-3.968 1.4-.476-1.826-5.565-3.527-5.565-.686 0-2.287-1.14-3.561-2.53-8.988-9.815-55.23-23.601-97.376-29.03-30.626-3.943-82.147-4.437-112.733-1.078-47.034 5.164-97.196 19.42-107.388 30.52-1.525 1.662-3.09 2.822-3.475 2.58-4.94-3.11-4.88 43.158.107 83.237 10.95 88.019 42.353 156.13 98.295 213.205 19.727 20.125 43.717 40.35 56.618 47.733 6.928 3.965 10.133 3.432 20.085-3.336zm-18.04-4.895c-2.172-1.288-8.373-5.754-13.777-9.924s-10.392-7.58-11.083-7.58-2.66-1.272-4.374-2.828l-3.117-2.827 3.583 2.618c4.817 3.52 4.555 2.537-.406-1.524-2.194-1.796-3.673-2.745-3.287-2.11 1.59 2.623-1.19.879-4.711-2.955-2.077-2.262-2.702-3.25-1.388-2.197 1.313 1.053-4.718-5.528-13.404-14.624-15.312-16.034-29.954-33.678-39.57-47.682-5.48-7.98-6.926-9.688-5.356-6.326l1.137 2.434-1.958-2.434c-1.077-1.338-1.755-3.003-1.508-3.7.248-.696.043-1.011-.454-.698-.956.602-4.115-4.74-3.297-5.574.263-.268-1.64-4.455-4.225-9.305-6.858-12.858-12.144-24.235-18.285-39.36-2.988-7.36-5.69-13.12-6.005-12.8-.314.32-.348-.446-.076-1.703.324-1.494.2-1.867-.356-1.076-1.208 1.716-4.434-7.748-3.63-10.652.5-1.805.412-1.955-.456-.777-.838 1.137-.945.706-.482-1.946.469-2.692.362-3.101-.51-1.946-.936 1.237-1.018 1.189-.538-.318.31-.978-.483-6.014-1.765-11.192-6.215-25.1-12.695-69.766-13.015-89.708-.05-3.068-.288-3.812-.798-2.485-.674 1.755-.774 1.719-1.353-.486-.344-1.31-.631-4.681-.638-7.491-.02-7.745-1.892-6.748-3.198 1.703-.207 1.339-.428-4.136-.492-12.165s.2-15.037.586-15.572c.386-.535 1.986-.974 3.555-.974 3.438 0 4.135-2.103 2.086-6.287-1.338-2.732-1.28-3.016 1.124-5.501 2.442-2.525 11.443-7.228 16.388-8.562 2.308-.623 2.299-.594-.24.88-1.444.84-2.626 1.952-2.626 2.47 0 1.206-.026 1.209 4.777-.518 4.84-1.74 6.07-1.83 5.19-.382-.426.703-.03.878 1.139.503C63.722 30.59 81.327 26.19 99.885 23c8.789-1.51 14.918-2.964 13.853-3.286-1.051-.318.239-.36 2.866-.092 3.649.372 4.438.23 3.344-.597-1.091-.824-.18-.97 3.82-.605 2.89.263 14.499.102 25.796-.36 38.09-1.552 53.984-1.891 52.795-1.125-.65.419 5.197 1.297 12.994 1.95 17.32 1.452 43.715 5.292 57.999 8.438 5.837 1.285 11.649 2.103 12.916 1.816 1.882-.426 2.04-.315.869.602-1.181.924-1.07 1.018.636.53 2.47-.703 7.19.345 6.52 1.449-.26.429.456.532 1.59.229 1.5-.4 1.858-.215 1.315.682-.557.917-.2 1.054 1.402.536 1.376-.445 1.933-.336 1.546.302-.347.572 1.535 1.717 4.419 2.688 9.537 3.21 20.317 8.334 23.02 10.94 5.674 5.47 5.904 6.61 5.692 28.177-.165 16.729-2.016 46.463-3.65 58.625-.514 3.825-.225 3.17 2.582-5.84 1.084-3.478 2.342-6.8 2.796-7.38s1.238-3.427 1.743-6.326c.872-5.001.894-4.896.417 2.027-3.343 48.583-19.85 106.425-42.024 147.27-18.871 34.757-46.142 69.167-72.983 92.089l-6.196 5.292 4.346-4.805c2.39-2.643 5.047-6.396 5.902-8.342.856-1.944 2.963-5.23 4.682-7.3l3.126-3.763-3.296 2.973c-1.812 1.635-6.09 5.549-9.506 8.698-7.467 6.885-26.814 22.69-35.518 29.019-7.925 5.758-10.572 6.307-15.724 3.252zm-24.23-115.478c4.052-4.128 1.614-7.052-3.084-3.697-1.72 1.228-3.294 2.33-3.5 2.454-.775.462 2.097 3.19 3.358 3.19.723 0 2.175-.876 3.226-1.947zm-25.206-14.632c.079-1.587-.164-2.887-.54-2.887-1.297 0-3.167 4.74-2.534 6.424.917 2.433 2.892.16 3.074-3.537zm70.008-.585c1.752-.89 1.93-1.292.862-1.954-.74-.46-2.26-2.367-3.378-4.24-2.523-4.227-6.006-8.086-6.68-7.401-.277.283.897 2.736 2.606 5.452 2.566 4.074 3.022 5.602 2.61 8.734-.553 4.195.42 6.366 1.25 2.788.289-1.242 1.517-2.763 2.73-3.38zm50.72-1.571c-.007-.67-.384-1.812-.835-2.537-1.05-1.688-2.433.27-1.652 2.34.65 1.729 2.507 1.876 2.488.197zm-38.201-21.238c0-.46-.86-1.304-1.91-1.877s-1.91-1.684-1.91-2.467c0-.784-.43-1.426-.956-1.426-1.637 0-1.075 5.674.659 6.663 1.735.988 4.117.472 4.117-.893zm-75.213-13.556l.52-5.354-1.478 3.407c-.814 1.873-1.634 5.596-1.823 8.272-.337 4.789-.322 4.82.959 1.946.716-1.604 1.535-5.327 1.822-8.271zm50.18 6.18c.239-1.644.99-1.93 4.914-1.87 5.357.08 8.196-1.911 9.172-6.437.475-2.198.139-3.426-1.385-5.08-1.105-1.197-3.676-5.575-5.711-9.727-4.191-8.547-4.023-8.91 3.754-8.147 2.604.255 4.736.16 4.736-.211 0-1.276 4.875-2.933 8.635-2.933 2.734 0 4.096.534 4.962 1.946.656 1.07 1.843 1.934 2.636 1.917 1.143-.023 1.096-.235-.23-1.021-2.973-1.764-1.771-2.943 1.334-1.31 2.316 1.222 2.699 1.78 1.672 2.444-.977.63-.694.856 1.055.847 2.385-.014 2.385-.018-.731-2.905-2.382-2.207-4.036-2.892-6.99-2.892-2.127 0-4.7-.453-5.716-1.007-2.267-1.236-2.56-4.345-.326-3.473.836.327 2.664.843 4.06 1.146l2.539.55-2.39-2.14c-1.312-1.176-3.57-2.563-5.015-3.082-3.151-1.132-3.428-3.434-.544-4.521 1.963-.74 1.922-.82-.717-1.377-1.797-.38-3.398-1.684-4.471-3.641-1.473-2.687-2.017-2.972-4.576-2.4-3.264.73-7.605-1.51-7.605-3.923 0-.79.905-2.36 2.012-3.486l2.012-2.05-1.846-5.98c-1.766-5.725-2.07-6.09-7.133-8.574-7.844-3.85-8.115-7.066-1.01-11.985 4.299-2.976 7.67-3.094 12.763-.448 4.133 2.148 6.577 6.406 6.577 11.457 0 1.882 1.723 5.197 5.19 9.987 5.386 7.436 7.616 13.114 7.069 17.995-.26 2.313-.85 2.92-3.184 3.274-2.52.382-2.347.499 1.434.974 3.594.45 4.538 1.027 5.762 3.52 1.966 4.005 6.634 9.967 6.646 8.49.006-.65-.885-3.496-1.98-6.326s-3.475-10.84-5.287-17.798c-1.904-7.312-4.996-16.121-7.323-20.87-2.216-4.521-4.171-8.571-4.347-9.003-.175-.432.562-.785 1.639-.785 3.166 0 8.547 5.625 12.63 13.206 4.019 7.457 7.254 10.47 10.708 9.97 1.803-.262 2.068-.863 1.92-4.345-.197-4.673-3.318-11.487-6.06-13.231-2.783-1.771-2.31-2.68 1.399-2.68 3.299 0 5.189-1.307 3.463-2.394-.508-.32-4.12-1.414-8.026-2.432s-11.452-3.882-16.77-6.363c-5.865-2.74-10.368-4.286-11.455-3.935-.985.318-4.112 2.647-6.948 5.175-7.833 6.98-14.026 11.318-20.874 14.617-11.491 5.535-13.854 9.432-16.617 27.4-.861 5.595-1.91 10.412-2.332 10.706-1.794 1.25-10.833 14.14-12.125 17.289-1.7 4.142-1.764 6.205-.3 9.478 1.382 3.09 4.908 3.297 6.897.404 2.21-3.215 4.435-1.73 3.759 2.51-.36 2.254-.174 3.458.53 3.458 1.692 0 4.934-3.733 6.449-7.427 1.813-4.421 3.575-4.96 7.976-2.44 4.588 2.627 9.959 2.688 13.129.148 1.327-1.063 2.762-1.714 3.189-1.444 1.04.655 2.342-1.515 2.342-3.904 0-2.625 2.97-3.034 4.256-.586.77 1.467.735 2.483-.138 3.907-1.69 2.758-.15 3.703 3.016 1.852l2.71-1.585.405 3.534c.363 3.172-.063 4-4.16 8.065-5.045 5.006-6.413 8.507-4.764 12.194 1.239 2.77 3.31 2.608 3.735-.292zm-37.065-20.357c0-2.892 1.56-6.262 2.899-6.262 1.323 0 1.14 6.2-.225 7.59-1.791 1.827-2.674 1.389-2.674-1.328zm12.886-12.74c-.87-.885-1.97-2.647-2.442-3.917-1.258-3.37-3.495-3.82-6.19-1.241-2.821 2.7-3.916 1.967-2.554-1.715.55-1.49 1.516-6.828 2.145-11.865 1.793-14.381 5.867-16.752 9.13-5.314.82 2.874 2.105 5.852 2.856 6.616s1.365 3.147 1.365 5.294c0 3.156.732 4.766 3.822 8.4 2.102 2.476 3.82 4.69 3.82 4.927s-2.332.428-5.185.428c-3.552-.001-5.684-.51-6.767-1.612zm38.226-61.145c-2.301-1.932-2.601-2.584-1.52-3.312 2.646-1.78 8.523 2.119 6.654 4.414-1.437 1.766-1.813 1.685-5.134-1.102zm28.344 85.368c.934-.95-.262-1.2-5.748-1.2-10.45 0-15.43-3.477-15.43-10.77 0-8.025 10.035-10.24 12.588-2.778.535 1.564 1.377 2.845 1.869 2.845.525 0 .486-.78-.094-1.883-1.615-3.076-1.16-3.951 2.116-4.071 2.323-.085 1.825-.33-1.977-.975-2.794-.474-5.884-1.298-6.863-1.833-3.9-2.126-10.427-.713-13.103 2.838-3.355 4.45.555 13.654 7.373 17.36 3.64 1.979 5.355 2.285 11.195 2.002 3.795-.186 7.427-.875 8.074-1.535zm19.345-6.198c-.37-.608-.717-1.995-.772-3.083-.057-1.087-.7-2.18-1.43-2.427-.806-.273-1.064-.018-.66.649.408.674-.055 1.1-1.198 1.1-1.025 0-2.112.656-2.415 1.46-.41 1.09.152 1.46 2.23 1.46 1.529 0 3.045.438 3.37.973s.806.974 1.067.974c.264 0 .176-.498-.192-1.106zm-3.845-24.763c.715-1.896-.35-9.168-1.34-9.168-1.52 0-2.61 8.685-1.264 10.057 1.046 1.065 1.99.742 2.604-.89zm-98.756-5.426c2.09-3.295 3.795-6.471 3.789-7.057-.007-.586-1.073.826-2.371 3.14-1.298 2.312-3.256 5.487-4.353 7.056s-1.74 2.852-1.43 2.852 2.274-2.697 4.365-5.991zm101.69-21.473c-.677-4.083-2.131-5.605-3.401-3.562-1.41 2.268-.953 7.573.809 9.406 1.605 1.669 1.703 1.66 2.438-.217.419-1.076.489-3.608.154-5.627zm-96.357 1.448c-.317-.323-.543.252-.501 1.277.046 1.134.272 1.364.577.588.275-.702.24-1.541-.076-1.865zm7.543-13.888c.95-1.071 1.515-1.947 1.25-1.947-.262 0-1.254.876-2.206 1.947-.951 1.07-1.514 1.946-1.251 1.946s1.256-.876 2.207-1.946zm84.107-22.72c1.263-6.853-4.858-14.324-12.948-15.804-3.311-.606-3.306-.598.964 1.682 7.517 4.013 10.9 12.633 7.117 18.135-.818 1.19-1.18 2.674-.802 3.296 1.018 1.676 4.948-3.39 5.669-7.308zm-57.356 5.2c.95-1.07 1.514-1.946 1.25-1.946s-1.255.876-2.206 1.947c-.951 1.07-1.514 1.946-1.251 1.946s1.256-.876 2.207-1.946zm6.209-5.352c.654-.803.975-1.46.712-1.46s-1.013.657-1.667 1.46-.975 1.46-.711 1.46c.262 0 1.012-.658 1.666-1.46zm-16.718-18.57c-8.25-3.02-8.662-8.655-.855-11.692 3.78-1.471 6.182-1.427 10.319.19 1.01.396 1.52.06 1.52-.992 0-2.1 3.756-3.464 9.856-3.584 3.914-.076 4.452-.261 2.564-.876-9.792-3.195-27.863 1.879-31.98 8.979l-1.751 3.02 3.477 3.247c2.706 2.525 4.275 3.23 7.074 3.177l3.597-.068-3.821-1.4zM36.83 73.602c0-16.261.226-19.392 1.433-19.863 1.24-.485 1.433 1.729 1.433 16.44 0 18.888-.351 18.072 6.688 15.542 4.67-1.68 5.732-1.793 5.732-.617 0 .464-3.245 2.049-7.211 3.522-3.966 1.474-7.043 2.85-6.837 3.06.205.209 3.63-.813 7.61-2.271 6.403-2.347 7.282-2.966 7.629-5.375.43-2.99.037-3-6.801-.148-6.152 2.565-5.968 3.075-5.658-15.69.155-9.367.238-17.032.185-17.031-.053 0-1.45.482-3.105 1.069l-3.008 1.068v20.4c0 13.354.33 20.193.955 19.8.584-.37.955-8.086.955-19.906zm158.433 18.566c.954-.616.723-.971-.921-1.408-1.208-.322-2.431-.2-2.716.272-.287.472-2.021 1.042-3.855 1.268-2.682.329-2.398.438 1.44.55 2.628.078 5.35-.23 6.052-.682zM310.266 71.98l-.28-19.096 2.669.672c3.15.793 1.93-.833-1.394-1.856l-2.15-.661v20.018c0 11.009.323 20.018.718 20.018.393 0 .59-8.593.437-19.095zm-18.463-.26c-3.24-8.117-6.064-14.583-6.275-14.37-.21.216 1.832 6.029 4.537 12.92 2.706 6.893 5.316 13.576 5.8 14.855.484 1.278 1.095 2.106 1.356 1.84s-2.176-7.125-5.418-15.244zm-228.711 7.9c.905-6.145 1.259-6.784 4.14-7.483 1.408-.342 3.277-.837 4.155-1.102 1.274-.385 1.814.59 2.68 4.843l1.086 5.324 2.907-1.032c3.377-1.2 3.604 1.019-2.28-22.25l-4.077-16.121-2.94.776c-2.757.729-3.04 1.243-4.57 8.336-.898 4.157-3.051 13.736-4.785 21.287l-3.152 13.728 3.097-.968c2.73-.855 3.172-1.485 3.739-5.337zm-3.003.219c-.311-.826-.352-1.72-.091-1.985.26-.267.704.41.984 1.502.596 2.319-.066 2.677-.893.483zm.702-4.744c-.042-1.025.185-1.601.502-1.277s.352 1.163.075 1.865c-.305.777-.532.546-.577-.588zm1.91-8.758c-.042-1.026.185-1.601.502-1.277s.352 1.162.076 1.865c-.305.776-.532.545-.578-.588zm3.838-2.272c.05-1.472.612-4.866 1.248-7.542l1.156-4.866 1.195 6.72c.976 5.492.966 6.87-.053 7.529-2.365 1.527-3.64.866-3.546-1.841zm-2.882-1.622c-.042-1.025.184-1.601.502-1.277.317.323.35 1.163.075 1.865-.305.777-.531.546-.577-.588zm1.487-5.92c1.082-6.516 2.31-9.36 1.682-3.894-.308 2.677-.957 5.523-1.443 6.326-.577.952-.66.103-.24-2.432zm2.273-10.463c-.01-1.145.69-1.678 2.135-1.626 1.437.05 1.674.26.717.632-.79.306-1.75 1.038-2.135 1.627-.433.66-.708.418-.717-.633zM280.45 62.497V43.654l2.627.428c2.054.334 2.314.202 1.194-.606-.788-.57-2.4-1.042-3.582-1.05l-2.15-.015v19.465c0 12.328.35 19.465.955 19.465s.956-6.93.956-18.844zM90.888 77.447c1.095 0 1.38-2.474 1.485-12.895.07-7.093.319-11.801.55-10.463.67 3.878 6.162 21.818 6.944 22.688.39.436.987-.88 1.325-2.92.338-2.04 2.097-8.31 3.91-13.93l3.295-10.22-.561 12.747-.561 12.746 2.956-.441 2.956-.442.276-19.848.276-19.848h-3.012c-2.908.002-3.084.245-5.118 7.058-1.158 3.88-2.85 10.036-3.758 13.678l-1.653 6.62-3.5-11.122c-1.925-6.117-3.5-11.615-3.5-12.217 0-1.22-1.324-1.36-4.538-.481-2.141.584-2.15.67-2.15 20.529 0 17.785.165 19.878 1.512 19.352.83-.324 2.12-.59 2.866-.59zm175.43-18.12l-.28-19.094 2.43.62c1.336.342 2.429.225 2.429-.26s-1.29-1.074-2.866-1.311l-2.867-.428v19.783c0 10.88.322 19.784.717 19.785.394 0 .59-8.592.437-19.094zm-13.825 2.306c-.192-2.811-.351-.511-.351 5.109s.158 7.92.35 5.109c.195-2.81.195-7.408 0-10.218zM134.34 71.53c5.209-1.335 7.823-4.798 8.33-11.036.378-4.63.14-5.586-1.896-7.662-2.273-2.315-2.287-2.423-.59-4.558 2.673-3.362 2.339-10.206-.646-13.247-2.213-2.254-2.95-2.407-10.271-2.146l-7.886.283-.258 20.054-.258 20.055 5.035-.436c2.768-.24 6.566-.827 8.44-1.307zm-7.705-11.114V54.09h3.673c4.407 0 6.835 2.308 6.835 6.495 0 3.836-2.64 6.157-7.001 6.157h-3.507v-6.326zm.38-12.558c-.275-.732-.366-3.243-.201-5.58.268-3.8.57-4.28 2.879-4.551 4.143-.486 6.496 1.355 6.496 5.085 0 3.74-1.131 4.92-5.53 5.77-2.211.428-3.29.213-3.643-.724zm109.487 6.605c0-18.612.048-19.08 1.91-18.583 1.052.28 1.91.163 1.91-.26 0-.688-3.161-1.921-5.015-1.955-.395-.008-.717 8.965-.717 19.938 0 12.652.35 19.95.956 19.95.605 0 .956-7.011.956-19.09zm62.843-5.732c2.578.499 2.575.49-.266-.87l-2.866-1.371-.271 11.24c-.243 10.117-.411 11.058-1.678 9.397-1.287-1.688-1.322-1.597-.418 1.074 2.098 6.189 2.374 5.446 2.633-7.067l.267-12.907 2.599.504zM223.128 71.02c1.565-.98 1.729-1.257.478-.808-1.051.377-3.416 1.014-5.254 1.415-3.287.718-3.295.73-.48.808 1.577.042 3.942-.594 5.256-1.415zm-58.46-1.384c3.834-2.381 5.817-6.89 6.55-14.895 1.522-16.585-5.927-28.06-15.28-23.538-4.801 2.32-7.543 8.433-8.088 18.033-.997 17.543 6.595 26.75 16.819 20.4zm-8.347-5.744c-3.93-4.004-3.984-20.643-.081-24.875 2.914-3.16 5.28-3.1 7.395.188 1.324 2.059 1.694 4.67 1.694 11.965s-.37 9.906-1.694 11.966c-1.991 3.094-4.74 3.378-7.314.756zm42.923 5.73c0-.436-1.237-4.353-2.75-8.705l-2.748-7.912 2.265-1.512c5.13-3.425 4.975-14.565-.263-18.763-2.035-1.631-3.875-2-10.008-2h-7.515v39.905h2.388c2.37 0 2.389-.065 2.389-8.76v-8.76l2.628.01c2.48.012 2.779.518 5.353 9.064 2.689 8.935 2.76 9.046 5.493 8.638 1.522-.227 2.768-.77 2.768-1.205zm-4.115-.691c-.223-.401-1.573-4.343-3-8.76l-2.596-8.028h-3.743c-2.362 0-3.74-.45-3.735-1.217.006-.807 1.789-1.27 5.293-1.373 2.907-.087 5.87-.652 6.586-1.257 3.54-2.992 2.356-10.567-1.965-12.572-2.836-1.316-8.64-1.453-9.387-.222-.293.483-.616 5.727-.72 11.653-.101 5.926-.425 10.53-.717 10.234-.292-.298-.747-5.98-1.01-12.628l-.478-12.088 6.715.002c7.81.002 10.293 1.32 11.918 6.334 1.492 4.609.423 8.759-2.951 11.449l-2.803 2.234 2.814 8.484c2.146 6.467 2.503 8.483 1.5 8.483-.723.003-1.497-.325-1.721-.728zM183.393 46.91c-.277-.737-.371-3.475-.21-6.083.286-4.561.415-4.754 3.387-5.046 6.17-.607 10.49 7.588 5.774 10.954-2.641 1.884-8.266 1.993-8.951.175zM211.8 69.143c-3.732-3.2-5.225-7.98-5.303-17-.086-9.741 2.277-16.23 6.575-18.06 4.353-1.852 9.525-.12 11.782 3.947.594 1.07 1.094 1.365 1.109.655.016-.711-1.228-2.572-2.764-4.137-2.142-2.182-3.67-2.845-6.56-2.845-8.276 0-12.065 7.104-11.503 21.562.389 9.964 2.437 15.943 5.958 17.394 3.477 1.434 3.668 1.023.706-1.516zm9.71-1.867c3.344-3.405 2.724-11.24-.888-11.24-.725 0-1.316-.703-1.316-1.563 0-1.026.52-1.361 1.51-.974.832.325 2.529.59 3.773.59 2.045 0 2.293.487 2.61 5.11l.35 5.11.179-6.083.176-6.083h-5.254c-4.93 0-5.255.146-5.255 2.368 0 1.86.563 2.435 2.628 2.677 2.306.27 2.586.665 2.29 3.228-.495 4.307-1.853 6.329-4.235 6.305-3.544-.036-6.37-3.056-7.276-7.777-.571-2.973-.873-3.533-.944-1.754-.322 8.009 7.254 14.568 11.653 10.086zm5.254-1.047c-.294-.3-.828.24-1.187 1.2-.52 1.388-.41 1.499.535.545.653-.66.946-1.445.652-1.745zm25.979-20.47c0-7.12.04-7.241 2.445-7.241 1.387 0 2.189-.421 1.854-.973-.324-.535-1.64-.974-2.922-.974-2.278 0-2.332.18-2.332 7.786 0 5.61-.334 7.77-1.194 7.728-.657-.031-3.236-.4-5.731-.818-2.496-.42-4.54-.42-4.54-.002s2.044 1.04 4.54 1.382c2.495.343 4.967.749 5.492.902 1.982.578 2.388-.748 2.388-7.79zm-41.584-1.7c.336-2.037 1.445-4.556 2.467-5.596 1.02-1.041 1.438-1.893.925-1.893-1.688 0-4.01 4.715-4.413 8.966-.46 4.808.128 3.96 1.02-1.477zm11.968-1.116c0-1.312-2.33-5.354-3.306-5.736-.756-.295-.633.655.367 2.835 1.276 2.776 2.939 4.419 2.939 2.9zm3.82-1.475c0-.52-.644-.69-1.432-.382-.788.308-1.433.732-1.433.942s.645.383 1.433.383 1.433-.425 1.433-.943zM30.647 38.706c-.294-.3-1.065-.001-1.713.664-.937.96-.827 1.073.535.545.942-.365 1.472-.91 1.178-1.21z"/><path fill="#9F6B08" d="M173.042 393.837c-3.6-.504-6.034-1.691-11.178-5.446-17.628-12.868-32.198-24.8-45.248-37.056-5.006-4.702-16.002-16.001-19.865-20.412-15.79-18.033-28.888-36.515-44.927-63.388-3.536-5.923-7.85-14.771-13.738-28.186C18.959 195.789 8.97 151.813 6.023 98.194c-.573-10.438-.763-18.486-.715-30.31.04-9.777.088-10.951.555-13.531.884-4.884 2.596-9.512 4.67-12.626 2.567-3.854 9.53-9.413 15.107-12.061 7.877-3.741 27.063-9.535 44.352-13.395 4.694-1.048 13.954-2.943 17.095-3.5.92-.162 2.857-.51 4.304-.77a123.96 123.96 0 0 1 4.304-.702c.92-.125 2.427-.386 3.347-.58s2.642-.48 3.825-.632c1.184-.153 3.658-.487 5.5-.742a370.57 370.57 0 0 1 4.423-.594c5.772-.692 7.642-.908 11.477-1.325 19.456-2.113 45.306-3.111 63.957-2.467 8.189.282 26.768 1.355 28.238 1.63.408.077 2.237.224 4.064.327s4.829.373 6.669.598c1.842.225 4.8.574 6.576.775 8.327.946 15.557 1.887 18.648 2.427 1.118.195 4.076.684 6.575 1.085 26.313 4.226 48.104 10.384 64.315 18.176 7.013 3.37 9.814 5.266 13.223 8.938 3.974 4.284 6.34 8.805 7.582 14.49 1.055 4.818.58 34.834-.85 53.898-1.951 26.017-5.312 47.914-10.87 70.809-6.004 24.738-14.058 47.4-25.77 72.512-3.96 8.49-5.032 10.578-8.317 16.182-1.766 3.01-3.264 5.586-3.33 5.723s-.442.74-.837 1.343-.847 1.31-1.003 1.576c-.158.266-.75 1.249-1.316 2.187-.564.937-1.07 1.812-1.123 1.946s-.163.298-.244.365c-.082.066-.621.888-1.198 1.825a121.66 121.66 0 0 1-1.968 3.08c-.504.757-.918 1.487-.918 1.622s-.08.28-.18.326c-.244.11-1.494 2.085-1.494 2.36 0 .123-.161.287-.358.363-.197.077-.358.252-.358.388 0 .137-.592 1.117-1.314 2.18-.725 1.062-1.316 2.038-1.316 2.168 0 .129-.16.298-.357.375s-.36.308-.36.513-.09.372-.197.372c-.11 0-.352.302-.538.67-.187.367-.422.778-.521.912-.805 1.075-1.78 2.45-3.523 4.978-1.71 2.475-3.524 5-5.955 8.283-21.521 29.074-44.03 50.908-79.383 77.008-5.16 3.81-7.58 5.168-10.59 5.947-2.111.545-5.1.772-6.884.52zm6.118-2.207c2.979-.77 5.453-2.137 10.176-5.623 45.158-33.325 70.39-60.426 99.15-106.493 7.73-12.383 11.478-18.94 14.553-25.462 8.369-17.755 14.396-32.538 19.349-47.471 12.038-36.29 18.536-74.663 20.17-119.11.386-10.434.313-30.65-.116-33.16-1.174-6.843-5.301-13.351-11.38-17.937-2.208-1.667-10.044-5.7-15.052-7.747-14.84-6.067-31.81-10.622-54.025-14.503-13.045-2.277-30.08-4.375-46.504-5.726-1.71-.14-3.7-.31-4.424-.375-2.234-.204-12.737-.825-18.768-1.11-11.51-.544-32.376-.263-46.982.634C107.087 9.892 65.152 17.55 36.4 27.435c-7.915 2.72-10.73 3.99-14.816 6.686-6.637 4.377-9.665 7.709-11.848 13.038C7.18 53.396 6.724 58.665 7.11 77.496c.489 23.887 1.889 42.51 4.665 62.049 5.513 38.809 15.173 71.56 31.686 107.428 6.423 13.952 8.27 17.32 18.487 33.7 2.526 4.05 9.397 14.436 12.239 18.497 19.25 27.512 37.884 47.387 65.645 70.013 7.209 5.876 24.358 18.896 27.255 20.692 1.05.652 3.818 1.73 5.117 1.995 1.85.378 4.988.269 6.956-.24zm-6.43-9.82c-1.46-.418-4.783-2.737-11.577-8.081-41.732-32.817-65.298-58.508-88.817-96.826-3.148-5.13-7.347-12.308-10.176-17.397-2.823-5.08-11.818-24.132-16.312-34.553-15.932-36.94-24.686-75.271-27.37-119.84-.943-15.67-1.085-37.131-.275-41.61.89-4.921 2.499-9.225 4.693-12.56 2.393-3.637 6.813-7.25 11.019-9.007 8.639-3.61 28.188-9.245 44.924-12.95 29.112-6.443 56.284-9.774 86.79-10.64 8.393-.237 22.975-.157 25.942.143.526.053 2.57.16 4.542.24 18.88.76 44.223 3.487 62.404 6.715 22.44 3.984 39.529 9.043 54.154 16.03 2.3 1.1 4.988 2.379 5.97 2.843 8.09 3.817 11.788 9.71 13.009 20.727.6 5.422-.834 32.25-2.735 51.14-5.388 53.545-16.21 92.654-36.583 132.216-8.225 15.972-21.371 37.799-31.311 51.985-17.047 24.329-33.557 41.329-66.794 68.776-.672.555-3.481 2.885-6.243 5.179s-5.744 4.666-6.63 5.27c-3.116 2.135-6.152 2.909-8.624 2.2zm-61.972-86.982c2.934-1.357 3.906-3.43 4.3-9.165.264-3.815 1-5.262 2.88-5.662l.95-.201-.12-2.3c-.18-3.435-.145-8.536.062-9.287.1-.364 1.29-2.062 2.646-3.772 3.214-4.056 5.13-6.864 5.67-8.31.239-.642.666-2.745.947-4.675.575-3.942.326-3.377 4.643-10.54 1.282-2.126 3.204-5.671 4.27-7.877 1.162-2.403 2.302-4.407 2.844-4.998a76.935 76.935 0 0 0 1.386-1.551c.265-.311.586-.564.714-.564.489 0 1.914 1.53 2.444 2.627.532 1.099.554 1.377.554 6.823 0 5.674 0 5.679.564 6.145.31.256.81.466 1.112.466.543 0 .542-.011-.127-.736-.978-1.064-1.204-2.527-1.028-6.654.138-3.24.106-3.666-.38-5.13-.292-.878-.496-1.951-.455-2.386.07-.748.13-.793 1.15-.866 1.214-.088 1.764-.496 2.414-1.793.457-.911.578-1.648.5-3.042-.038-.666-.218-.871-1.28-1.46-1.633-.904-2.084-1.59-2.38-3.617-.342-2.342-.063-9.585.434-11.246.437-1.463.636-1.488 2.347-.297 1.669 1.163 6.744 3.357 9.249 4 3.07.788 7.245.88 8.572.19 1.15-.6 5.432-3.93 7.227-5.622.82-.773 2.137-1.883 2.926-2.465.789-.583 1.857-1.423 2.374-1.867s1.186-.81 1.485-.81c.846 0 3.123.944 3.915 1.623 1.44 1.234.718 2.48-2.782 4.798-2.762 1.827-5.716 5.083-7.08 7.802-.626 1.252-3.531 10.006-3.531 10.646 0 1.026.784 3.159 1.57 4.269 2.877 4.064 4.265 6.345 4.56 7.498.179.695.489 1.662.689 2.148.775 1.889-.154 2.937-3.298 3.716-1.212.3-2.817.62-3.565.71l-1.361.164.385.598c.33.512.415.543.596.214.173-.315.703-.384 2.94-.384 2.199 0 2.973-.1 3.99-.506l1.26-.506.602.76c.672.852 4.547 4.907 4.547 4.759 0-.613-1.851-4.89-3.318-7.671-1.025-1.94-2.348-4.568-2.94-5.84-.605-1.301-1.931-3.471-3.032-4.965-1.076-1.46-2.034-2.937-2.13-3.284-.335-1.227-.158-3.303.427-4.98.923-2.648 1.659-2.471 1.666.402.005 2.086.272 2.718 2.569 6.076 2.636 3.854 2.822 4.193 4.137 7.5 1.113 2.804 2.482 5.379 4.102 7.723.799 1.156 2.346 5.355 2.346 6.366 0 .407-.293.93-.805 1.435l-.807.796-.512-.663c-.283-.364-.588-.587-.678-.495-.092.093-.21.874-.264 1.736-.097 1.546-.086 1.58.766 2.348.814.733.865.865.865 2.255 0 1.757.518 2.952 1.594 3.684.438.298 1.87.74 3.414 1.053l2.658.539.942-.76c1.647-1.327 3.575-3.68 3.84-4.687.31-1.165.116-2.172-.532-2.77a4.557 4.557 0 0 1-.811-1.083c-.484-.951-.066-1.192 2.07-1.192 1.74 0 1.877-.04 2.426-.703.635-.77 2.256-4.383 3.207-7.153.486-1.416.6-2.2.59-4.051-.012-1.875.102-2.634.615-4.137.85-2.49.857-4.346.022-5.978-.704-1.374-1.21-1.884-3.001-3.023-1.957-1.245-1.71-2.026.974-3.06 1.535-.592 2.313-1.247 2.313-1.948 0-.571-.012-.574-2.115-.436-2.105.139-2.118.137-2.57-.532-1.321-1.952-2.077-2.233-3.438-1.281-1.477 1.033-4.787 7.137-4.787 8.823 0 .98 1.082 1.974 3.052 2.798 1.017.426 2.097.934 2.398 1.129.987.639 1.48 1.776 1.48 3.415.002.828.114 1.805.25 2.17s.255 1.369.26 2.23c.01 1.273-.125 1.85-.726 3.092-.964 1.993-3.97 5.936-4.758 6.24-.854.33-1.741-.375-2.17-1.728-.308-.97-.293-1.14.209-2.29 1.13-2.598 1.262-3.565.992-7.318-.137-1.903-.381-3.757-.543-4.118-.494-1.105-1.278-.768-2.938 1.267-1.56 1.91-2.573 2.718-3.417 2.72-.818 0-1.104-.824-.96-2.778.147-1.964.573-3.287 2.282-7.09 1.289-2.867 3.326-8.281 4.02-10.69.534-1.845.595-6.472.11-8.393-.258-1.027-.623-1.645-1.58-2.677-2.156-2.322-4.982-6.347-6.496-9.25-1.732-3.321-2.9-6.811-2.277-6.811.325 0 2.979 3.452 4.066 5.289 1.332 2.25 2.025 2.826 3.21 2.666.868-.118.895-.098 1.034.768.463 2.878 1.817 5.709 3.934 8.22.977 1.158 5.029 4.467 6.203 5.064 1.366.695 3.604 1.44 6.23 2.074 1.602.387 2.857.49 5.925.493 4.083 0 5.012-.18 5.98-1.166.26-.264 1.103-.71 1.874-.992.77-.281 1.66-.65 1.977-.818.836-.446 1.476-1.435 1.317-2.034-.126-.475-.353-.521-3.165-.66-3.623-.18-6.84-.941-9.315-2.21a41.797 41.797 0 0 0-3.324-1.495c-2.808-1.075-4.941-2.812-5.435-4.422-.246-.807.236-1.488 1.183-1.67.46-.087.896-.256.968-.375.072-.118.312-.217.535-.22 1.02-.01 1.082-.307.55-2.612-.636-2.76-.642-3.224-.037-3.224.979 0 1.68.61 3.034 2.639.77 1.153 2.008 2.729 2.75 3.5 1.203 1.253 1.455 1.405 2.316 1.405.533 0 1.03-.106 1.11-.235s-.077-.673-.345-1.207c-.298-.595-.486-1.444-.486-2.19 0-1.015.123-1.36.74-2.077.689-.798.844-.86 2.117-.86 1.615 0 2.67.595 3.578 2.016.526.824.674.904 1.66.904.782 0 1.337-.18 1.998-.645.775-.548 1.002-.604 1.498-.375.32.149.845.686 1.163 1.192a10.23 10.23 0 0 0 1.308 1.62c.677.65.82.689 2.014.537.714-.091 1.564-.055 1.914.08 1.084.419 1.21 1 .753 3.424-.384 2.034-.385 2.232-.007 3.239.22.59.727 1.44 1.123 1.893.81.925.823.969 1.188 4.03.348 2.916.057 4.979-1.15 8.175-.52 1.375-1.334 3.544-1.811 4.818-.478 1.275-1.174 2.69-1.548 3.147l-.68.829.977.756c1.263.977 2.22 2.625 3.575 6.157 1.936 5.042 2.11 5.668 2.143 7.597.023 1.543-.127 2.304-.981 4.917-1.352 4.139-1.39 5.733-.173 7.354.46.614.837 1.299.837 1.523 0 .224-.591 1.4-1.313 2.616-2.985 5.02-2.975 7.304.047 10.115 1.58 1.469 2.975 2.243 3.855 2.14.596-.07.645-.166.713-1.413.084-1.501.754-2.505 1.59-2.383.418.062.512.312.649 1.734.2 2.058.308 2.352.86 2.352.99 0 4.319-2.642 4.99-3.96l.36-.713-1.034.729c-.568.4-1.295 1.014-1.614 1.362-.694.76-1.412.807-2.24.145-.841-.674-.983-1.616-.518-3.438.544-2.127.372-3.776-.471-4.514-.55-.48-.907-.562-2.481-.565-1.012 0-1.994-.104-2.185-.227-.643-.413.093-1.398 1.638-2.191 2.24-1.151 2.36-1.966.434-2.967-1.277-.663-1.59-1.088-1.6-2.18-.01-1.256.852-2.435 2.135-2.917 1.533-.577 2.162-1.43 2.162-2.936 0-1.67-.568-2.76-2.012-3.865-2.354-1.8-2.293-1.696-2.293-3.875 0-1.577.086-2.042.442-2.404.328-.335.476-.958.575-2.431.086-1.277.31-2.354.634-3.034.792-1.663.71-2.091-.837-4.428-.99-1.492-1.292-3.008-1.292-6.466 0-1.445-.1-2.892-.22-3.215-.31-.83-.031-3.592.379-3.752.695-.271 1.768.484 2.532 1.784.84 1.43 1.016 1.55 1.204.82.199-.78 1.363-.604 4.119.616 6.242 2.766 13.238 3.33 17.012 1.37 2.15-1.116 6.027-4.535 7.02-6.192.928-1.548.868-1.577-2.995-1.443-3.912.136-6.261-.156-8.848-1.098-2.194-.8-4.62-2.452-5.987-4.08-.604-.721-2.21-2.248-3.568-3.395-1.357-1.147-2.53-2.25-2.605-2.448a.6.6 0 0 0-.52-.363c-.732 0-3.967-1.521-5.738-2.698-.98-.651-2.227-1.414-2.768-1.695-1.722-.895-8.27-2.247-12.34-2.55l-2.205-.164-.161-.887c-.294-1.621-.777-2.702-2.233-4.991-1.203-1.891-1.444-2.445-1.45-3.34-.005-1.284-.524-2.51-2.25-5.305-.858-1.395-1.466-2.741-1.814-4.03-.288-1.064-.938-2.893-1.444-4.062-1.153-2.668-1.555-4.132-1.894-6.898-.375-3.066-.795-4.786-1.88-7.696-.518-1.388-1.18-3.728-1.471-5.2-.754-3.821-1.037-4.526-2.986-7.435-.96-1.431-1.822-2.972-1.92-3.423-.096-.452-.467-1.161-.822-1.575s-1.064-1.454-1.574-2.312-1.174-1.93-1.475-2.383c-.301-.454-.547-1.125-.547-1.491 0-1.036.572-1.343 2.369-1.271 3.786.149 6.714 3.038 10.542 10.4 3.042 5.85 5.54 8.868 8.65 10.452 1.222.622 2.009.862 2.82.862 1.429 0 1.947-.535 2.1-2.167.134-1.407-.138-2.702-1.437-6.836-.748-2.38-.988-3.583-1.104-5.53-.182-3.008-.316-3.193-3.027-4.146-2.332-.82-2.471-1.25-.56-1.741 1.892-.487 3.909.032 6.122 1.576 1.449 1.012 1.727 1.117 2.645 1.013.832-.095 1.287-.364 2.403-1.423 1.259-1.195 1.368-1.38 1.278-2.177-.11-.98.533-2.483 1.396-3.266.709-.643 1.11-1.648 1.938-4.84 1.1-4.251.812-7.797-.871-10.733-1.346-2.346-7.734-7.513-11.445-9.255-3.39-1.592-3.554-1.605-21.906-1.823-20.47-.244-29.578-.698-32.224-1.61-3.82-1.313-6.571-3.696-6.166-5.34.23-.94 1.514-2.228 2.66-2.674 2.13-.827 5.138-.237 10.984 2.15 5.36 2.19 8.608 2.747 14.81 2.536 5.508-.188 9.857-.858 10.976-1.69.409-.305.409-.334-.007-.713-.24-.218-1.994-.802-3.901-1.298-4.178-1.09-6.456-1.967-6.456-2.488 0-.327.414-.357 3.168-.237 3.203.139 6.773.75 9.545 1.635 1.715.548 5.588.673 6.857.223.836-.297.988-.92.377-1.54-1.531-1.56-9.938-4.617-16.398-5.965-4.072-.85-7.228-1.057-14.018-.921-8.356.167-11.81.787-15.806 2.84-3.262 1.676-7.078 5.206-8.28 7.658-1.406 2.874-.457 4.789 3.593 7.257 2.802 1.708 4.997 2.408 9.683 3.092 8.486 1.238 14.478 1.53 30.962 1.514 8.052-.01 14.469.086 15.303.226 2.478.414 5.39 1.474 6.908 2.512 1.78 1.22 3.97 3.832 5.114 6.103.75 1.492.859 1.93.873 3.528.013 1.572-.08 2-.673 3.09-.924 1.695-2.82 3.824-3.76 4.22-1.12.473-3.82-.01-7.016-1.237-2.221-.856-3.02-1.04-5.26-1.206-2.912-.216-3.24-.314-7.57-2.264-4.422-1.992-11.152-4.214-14.525-4.797-1.61-.278-3.174.036-5.414 1.09-2.262 1.065-3.562 2.112-8.06 6.493-4.237 4.129-6.161 5.667-8.53 6.82-4.301 2.095-16.592 9.12-17.734 10.138-1.678 1.493-4.504 4.979-5.694 7.022-2.18 3.74-2.854 6.682-3.113 13.578-.177 4.696-.21 4.938-.955 6.867-.832 2.154-3.045 6.034-6.034 10.576-2.81 4.27-4.832 7.669-6.182 10.388-2.66 5.354-3.116 7.404-3.346 14.995l-.17 5.597-.866 2.567c-.477 1.41-1.472 4.039-2.212 5.84-2.743 6.673-2.69 6.332-2.944 18.603l-.187 9.003-1.002 2.014c-.551 1.107-1.473 2.713-2.05 3.568-1.324 1.97-1.698 3.552-2.187 9.26a382.407 382.407 0 0 1-.49 5.393c-.1.893-.47 1.41-3.127 4.38-5.065 5.66-7.004 8.608-7.004 10.648 0 1.01-.076 1.145-1.02 1.806-1.853 1.297-4.463 4.334-5.338 6.21-1.033 2.216-1.277 4.278-.65 5.509.703 1.38 1.17 1.15 3.146-1.541l1.756-2.393.575.549c.316.303.575.687.575.854 0 .167-.434 1.216-.965 2.33-.534 1.12-.934 2.297-.896 2.634.09.816.922.939 5.926.882 3.532-.044 4.063-.105 5.134-.602zm-2.222-13.197c-.827-.33-2.06-3.147-1.857-4.247.174-.942.406-1.01 1.65-.48 1.29.549 1.924.45 3.13-.486 1.176-.914 1.55-1.02 2-.56.423.43.35 1.187-.218 2.272a839.03 839.03 0 0 0-.86 1.646c-.67 1.283-2.754 2.288-3.845 1.855zm7.71-22.966c-.531-.54-.587-.795-.587-2.657 0-1.133-.053-2.205-.117-2.383-.064-.18-.012-.488.116-.69.195-.304.353-.234.966.427.598.645.916.79 1.722.79.679 0 1.158-.161 1.53-.517.73-.698 1.288-.446 1.265.57-.038 1.646-1.07 3.502-2.453 4.416-1.207.796-1.694.805-2.442.044zm76.088-2.184c-.633-.173-1.26-.425-1.391-.56-.414-.421-.81-3.39-.551-4.138.504-1.463 2.309-.787 2.759 1.034.26 1.056.3 1.09 1.189 1.09 1.058 0 1.415.449 1.415 1.779 0 .743-.085.854-.748.989-.986.203-1.311.179-2.673-.194zm-71.101-20.2c-1.001-.45-1.354-1.645-1.232-4.174.112-2.33 1.049-4.504 2.318-5.374l.797-.547.596.722c.36.438.826.72 1.18.72.877 0 2.69-1.047 4.036-2.33.658-.628 1.806-1.683 2.553-2.346 1.69-1.5 2.113-2.507 2.1-5-.018-3.23-.241-3.902-1.757-5.287-1.528-1.396-2.12-2.624-2.124-4.405-.005-2.088 1-3.26 2.794-3.26.987 0 1.675.667 2.919 2.833 2.052 3.57 5.045 4.953 7.015 3.24.942-.82 1.254-.88 1.785-.338.307.312.375 1.024.375 3.878 0 1.922.099 3.759.22 4.082.149.4.648.766 1.564 1.144 1.632.675 2.154 1.493 1.976 3.1-.144 1.303-.877 2.17-2.122 2.51-1.337.367-2.324.01-6.417-2.318-1.237-.704-2.618-.792-3.475-.221-.322.215-1.133 1.143-1.803 2.062-.95 1.304-1.743 2.03-3.594 3.293-2.604 1.775-3.35 2.533-4.868 4.942-1.086 1.725-2.383 3.18-2.84 3.186-.153 0-.495.055-.757.118s-.82-.041-1.24-.23zm38.419-51.503c-.855-.403-2.092-.85-2.75-.992-1.53-.331-2.412-.794-2.871-1.507-.328-.51-.327-.72.009-2.054.433-1.72.21-3.066-.631-3.84-.425-.39-.841-.457-2.571-.424-1.187.023-2.51.204-3.111.426-.575.212-1.073.386-1.106.386-.113 0 .166-2.311.387-3.207.156-.633.468-1.051 1.065-1.427 1.428-.897 1.625-1.417 1.47-3.86-.187-2.934.179-4.382 1.11-4.398.115 0 .61.407 1.1.909.62.634 1.059 1.432 1.439 2.615.932 2.898 1.328 3.528 2.22 3.532 1.43.01 1.489.149 1.489 3.577 0 3.746.23 4.326 2.72 6.828 3.829 3.848 3.84 5.233.03 3.436zm38.877-19.552c-.088-.354-.088-1.612 0-2.795l.16-2.15-.681-.452c-.606-.404-1.212-.454-5.591-.461-4.29-.01-5.033-.064-5.867-.463l-.957-.456.717-.177c.395-.098 1.74-.191 2.989-.208 2.624-.034 3.65-.273 4.76-1.106 3.112-2.336 2.485-5.226-2.145-9.883-2.885-2.901-3.391-3.697-3.285-5.172l.073-1.021 1.195 1.23c.657.678 1.57 1.882 2.028 2.677 1.312 2.278 5.666 8.338 7.302 10.162 2.38 2.655 3.269 4.97 2.883 7.507-.204 1.343-1.61 3.058-2.677 3.267-.66.129-.763.073-.904-.5zm-5.201-38.517a16.392 16.392 0 0 1-1.155-1.485c-.303-.45-1.062-1.411-1.687-2.138-1.363-1.586-1.552-2.15-.93-2.782.639-.65 3.343-.66 4.529-.018 1.205.654 2.125 2.592 2.312 4.872l.148 1.788-.725-.162c-.537-.12-.76-.064-.866.216-.218.582-.958.449-1.626-.291zm-7.017-34.302c-.263-.064-.985-.338-1.605-.606-1.363-.59-1.693-1.295-.908-1.941.694-.572 1.235-.556 2.447.073.543.282 1.643.568 2.44.636 1.012.084 1.724.308 2.349.735.983.674 1.09.907.519 1.13-.438.17-4.53.15-5.242-.027zm-49.227 190.149c1.645-.86 3.16-2.641 4.51-5.303.669-1.317 1.594-2.692 2.289-3.403 1.406-1.438 1.696-1.985 2.354-4.44.62-2.311 1.673-4.481 3.592-7.401 2.172-3.305 3.142-4.243 5.998-5.803 4.504-2.46 4.772-2.79 5.057-6.215.11-1.337.36-2.742.554-3.124.447-.88 2.696-2.957 4.527-4.182l1.412-.943h-6.625c-5.14 0-6.992.085-8.263.38-.901.208-2.16.345-2.797.304l-1.158-.075-1.49 3.77c-.818 2.076-1.491 3.985-1.493 4.244-.01.808-.764 3.624-1.21 4.518-.618 1.235-4.676 5.536-5.75 6.094-.504.262-1.23.476-1.611.476-.84 0-1.787.712-2.176 1.635-.158.374-1.042 1.22-1.98 1.894-2.146 1.544-4.793 4.028-5.46 5.126-.794 1.31-1.18 3.17-1.183 5.719-.003 2.595.504 4.85 1.09 4.85.198 0 1.125-.547 2.062-1.216 2.736-1.956 3.293-1.54 1.627 1.216-.526.87-.957 1.708-.957 1.862 0 .474 1.694.795 3.825.725 1.64-.056 2.27-.193 3.256-.708zm2.34-13.27c-1.536-1.142-2.963-2.61-2.963-3.048 0-.245.565-.69 1.459-1.148l1.458-.75.969.652c1.318.889 2.406.995 3.964.392 1.74-.674 1.933-.558 1.67 1.008-.117.696-.343 1.529-.503 1.853-.378.764-1.92 1.446-3.676 1.628-1.286.132-1.474.086-2.377-.586zm25.13.439c.538-.14.279-.193-1.034-.215-1.53-.025-1.741-.083-1.674-.455.042-.233.636-.7 1.317-1.034.682-.334 1.328-.7 1.435-.812.107-.111.195-1.066.195-2.122 0-2.296.33-2.78 2.142-3.123 1.25-.238 1.803-.741 1.803-1.643 0-.417-.256-.666-1.056-1.026-1.317-.593-1.771-1.318-1.162-1.86.233-.206 1.313-1.156 2.4-2.11 1.75-1.535 2.014-1.877 2.3-2.975.624-2.393 1.116-5.427.955-5.886-.228-.652-1.07-1.56-1.447-1.56-.174 0-.532-.22-.795-.486-.32-.324-.478-.38-.478-.162 0 .179-.715 1.52-1.588 2.98-.874 1.46-2.021 3.567-2.548 4.682-.857 1.807-1.117 2.132-2.417 3.029-3.635 2.508-5.582 5.687-6.111 9.98-.248 2.01-.087 3.337.404 3.337.192 0 .916-.493 1.608-1.096.692-.602 1.447-1.095 1.676-1.095.372 0 .399.18.253 1.662l-.164 1.662.797.26c.93.305 2.175.33 3.189.068zm74.656-83.856c.45-.351 1.298-1.296 1.88-2.102l1.06-1.465-.603-.757c-2.393-3.003-3.881-5.245-5.024-7.563-.728-1.476-1.32-2.848-1.314-3.05.013-.59.743-1.352 2.179-2.273 3.244-2.085 3.598-2.96 3.739-9.265.066-2.966.003-5.13-.18-6.083-.388-2.04-1.503-4.248-2.981-5.903l-1.246-1.396-.936.288c-1.146.352-2.89 2.026-3.48 3.342-.623 1.393-.55 3.026.288 6.34.5 1.98.734 3.493.736 4.749.003 2.193-.088 2.765-1.111 7.039-1.037 4.324-1.345 6.688-1.338 10.289.004 3.195.32 4.752 1.238 6.116 1.586 2.355 5.147 3.205 7.093 1.694zM37.484 93.693c2.203-1.19 8.03-3.691 12.843-5.513l4.123-1.561v-3.346c0-1.886-.094-3.346-.22-3.346-.296 0-7.311 2.896-9.67 3.992-1.036.48-1.977.875-2.092.875-.118 0-.21-7.512-.21-17.155 0-9.435-.08-17.156-.178-17.158-.1 0-1.753.737-3.677 1.643l-3.498 1.646-.102 20.196c-.056 11.107-.062 20.278-.015 20.378.188.396 1.22.146 2.696-.651zm277.385-8.594c-.041-4.784-.148-13.99-.24-20.454l-.164-11.756-3.108-1.323c-1.71-.728-3.404-1.323-3.766-1.323h-.657V90.82l1.016.273c.559.15 2.254.81 3.766 1.467s2.857 1.203 2.988 1.216c.156.014.213-2.98.165-8.678zm-13.23-25.877l.034-11.338-2.69-.906c-1.478-.5-2.876-1.01-3.103-1.133-.23-.124-.74-.226-1.137-.226h-.721l-.027 10.28c-.016 5.654-.012 10.417.01 10.585.173 1.353-1.014-1.312-5.244-11.771-3.662-9.055-5.005-12.126-5.37-12.282-.9-.388-5.347-1.437-6.087-1.437h-.734V81.873h.61c.499 0 5.173 1.096 6.863 1.609.398.12.413-.518.269-12.36-.105-8.63-.076-12.412.096-12.244.137.134 2.775 6.48 5.863 14.106l5.615 13.863 2.715.866 2.715.866.146-9.011c.079-4.952.159-14.11.178-20.346zM57.719 85.65c.39-.197 1.772-.692 3.07-1.1 1.298-.406 2.375-.765 2.394-.795.018-.031.554-2.658 1.189-5.838l1.156-5.781 1.097-.33c3.773-1.132 6.287-1.681 6.453-1.408.096.158.643 2.395 1.214 4.97s1.108 4.765 1.194 4.866c.085.1 1.708-.186 3.607-.638 2.842-.676 3.44-.893 3.38-1.227-.04-.223-.934-3.385-1.988-7.027-1.055-3.643-3.48-12.042-5.386-18.666s-3.513-12.09-3.567-12.144c-.054-.056-1.203.188-2.552.54s-2.718.672-3.042.708c-.577.064-.647.332-3.507 13.327-1.605 7.294-3.774 17.13-4.82 21.858-1.884 8.52-1.897 8.598-1.394 8.805.696.287.7.287 1.502-.12zm8.928-18.811c0-.385 2.39-12.318 2.545-12.704.174-.434.473.665 1.867 6.874l1.024 4.562-.984.257c-1.032.27-3.317.9-4.033 1.113-.231.067-.42.022-.42-.102zm204.745-7.031l.143-20.241-1.367-.28a306.18 306.18 0 0 1-3.88-.836c-1.38-.306-2.697-.553-2.928-.547-.394.01-.422.895-.478 14.629-.06 14.168.023 25.973.18 26.137.18.188 7.903 1.65 8.038 1.52.082-.076.214-9.25.292-20.382zM89.5 77.374c1.682-.335 3.09-.608 3.129-.608s.099-4.626.133-10.28c.046-7.668.128-10.126.323-9.673.143.335 1.748 4.688 3.565 9.673 1.818 4.985 3.423 9.062 3.565 9.06.773-.011.702.203 5.684-17.03.677-2.341 1.32-4.361 1.43-4.488s.199 4.39.199 10.038c0 5.647.08 10.267.179 10.266.287 0 5.605-.706 6.409-.847l.73-.13-.081-19.645c-.044-10.806-.138-20.014-.208-20.462-.12-.763-.175-.806-.89-.682-2.047.357-5.48.69-6.021.586-.335-.065-.652-.047-.706.04-.053.089-1.562 4.919-3.352 10.735-1.79 5.816-3.37 10.938-3.507 11.382-.14.444-.3.76-.356.7-.057-.057-1.608-4.526-3.447-9.931-1.84-5.404-3.386-9.947-3.438-10.095-.065-.187-.965-.095-2.925.298-1.557.312-3.163.569-3.568.573l-.74.01-.157 7.704c-.087 4.238-.158 13.428-.158 20.422 0 13.597-.062 12.778.994 12.969.086.015 1.533-.246 3.214-.58v-.005zm168.12-20.151l.062-20.354-.54-.117c-2.33-.508-5.87-1.11-6.518-1.11h-.788l.133 7.909c.128 7.657.118 7.908-.323 7.908-.25 0-2.23-.272-4.4-.605-2.168-.332-4.024-.606-4.123-.608-.1 0-.18-3.614-.18-8.028v-8.025l-.537-.113c-1.066-.224-6.053-.872-6.695-.871h-.657V74l3.766.499c2.07.274 3.83.462 3.91.417s.092-4.263.026-9.371l-.12-9.29.572.136c.315.074 2.32.382 4.458.683l3.885.547v18.902l.777.013c.428.01 2.12.267 3.766.575 1.644.31 3.096.54 3.228.515.157-.031.26-7.076.3-20.401v-.002zm-36.924 16.015c3.632-.962 5.994-3.273 7.124-6.966.396-1.295.45-2.296.45-8.265v-6.792H217.273v1.18c0 .649-.07 2.019-.154 3.042l-.154 1.862H221.624l-.083 3.242c-.078 3.03-.125 3.306-.72 4.22-1.767 2.716-5.421 2.236-7.555-.991-1.545-2.338-1.612-2.883-1.612-13.162 0-9.051.012-9.27.524-10.243.637-1.211 2-2.473 2.888-2.671.359-.08.779-.185.934-.232.564-.174 2.025.417 2.848 1.152 1.037.927 1.734 2.27 1.93 3.72l.147 1.096h3.554c4.06 0 3.77.223 3.21-2.463-1.154-5.544-5.62-9.217-11.208-9.217-5.516 0-10.038 3.497-11.682 9.033-.24.807-.316 3.397-.312 10.677.004 10.618.137 11.889 1.553 14.77.906 1.846 2.87 4.064 4.61 5.209 1.292.85 3.536 1.754 4.95 1.995 1.388.237 3.82.143 5.097-.196zm-90.453-1.33c8.19-.7 8.723-.852 10.799-3.111 3.822-4.158 4.354-12.771 1-16.218-.75-.772-2.324-1.593-3.073-1.601-.31 0-.111-.19.564-.531 3.61-1.818 4.679-9.408 2.104-14.927-1.001-2.146-2.374-3.604-4.183-4.447l-1.346-.628-3.95.298c-4.042.305-11.796 1.028-11.891 1.109-.03.024-.127 9.227-.22 20.449l-.165 20.403 2.25-.148c1.24-.082 4.889-.374 8.11-.648zm-3.168-5.747c-.1-.101-.18-2.722-.18-5.825v-5.642l3.527-.14 3.526-.137.788.769c.433.423 1.078 1.372 1.435 2.11.558 1.156.647 1.643.647 3.53 0 1.959-.07 2.313-.667 3.345-1.014 1.756-1.623 1.984-5.55 2.086-1.84.048-3.427 0-3.526-.096zm1.19-17.802l-1.378-.088.064-5.28.064-5.28 3.26-.067 3.259-.067 1.105 1.25c2.597 2.939 2.305 7.694-.562 9.165-1.09.559-1.95.613-5.811.367zm34.563 22.694c4.988-1.075 8.419-4.664 9.004-9.417.12-.98.194-6.162.164-11.516-.062-10.735-.104-11.085-1.661-14.113-.911-1.77-3.193-4.146-4.844-5.043-1.584-.86-3.68-1.46-5.55-1.588-4.18-.286-8.765 2.863-11.068 7.604-1.638 3.37-1.723 4.222-1.53 15.325.183 10.434.279 11.313 1.489 13.576 2.21 4.135 8.327 6.395 13.996 5.172zm-5.117-6.303c-1.318-.48-2.3-1.29-2.97-2.455l-.607-1.056-.05-10.183-.05-10.182.66-1.368c1.668-3.458 5.64-4.085 8.506-1.342 1.089 1.04 1.72 2.378 1.959 4.146.11.816.233 5.316.273 10 .072 8.455.069 8.525-.474 9.653-1.218 2.526-4.498 3.787-7.247 2.787zm43.064 6.11c0-.168-1.56-4.273-3.467-9.123s-3.468-8.914-3.468-9.033.399-.293.887-.386c3.543-.677 5.56-4.206 5.564-9.74.004-5.245-2.162-10.02-5.43-11.97-1.225-.73-3.17-.912-12.437-1.17l-5.798-.161V70.14l.776.12c.428.065 2.1.139 3.717.16l2.94.04-.034-8.71-.035-8.71 2.006-.07 2.006-.07 2.139 7.005c1.177 3.853 2.418 7.88 2.758 8.95l.619 1.948 2.61.068c1.439.038 2.775.107 2.973.154.859.204 1.674.123 1.674-.165zM183.96 47.405c-.088-.09-.16-2.65-.16-5.69V36.19l2.946-.173c3.26-.191 4.21.027 5.479 1.264 2.078 2.026 1.962 7.614-.2 9.546l-.83.74h-3.536c-1.948 0-3.611-.073-3.7-.162z"/><path fill="#5C4B21" d="M168.877 379.407c-7.988-4.956-27.908-21.166-41.287-33.597-21.957-20.401-43.976-47.737-58.983-73.225-32.001-54.35-48.626-117.727-50.583-192.826-.572-21.93-.532-22.623 1.549-27.002 2.758-5.804 5.236-7.51 18.364-12.643 36.245-14.171 74.51-20.728 126.913-21.745 59.165-1.15 108.083 5.989 147.453 21.52 13.645 5.382 16.072 7.04 18.845 12.874 2.088 4.394 2.124 5.043 1.54 27.487-3.206 123.332-45.513 214.802-131.837 285.043-10.47 8.52-21.394 16.287-24.114 17.147-1.347.427-3.82-.527-7.86-3.033zm-58.013-84.123c1.497-.695 2.595-2.48 3.404-5.536.657-2.48 1.862-5.301 2.679-6.27.899-1.064 1.644-4.302 1.888-8.215.357-5.714.826-7.003 4.066-11.18 2.09-2.693 4.328-7.103 5.214-10.274.854-3.056 2.222-6.87 3.042-8.475 6.13-12.017 10.089-18.98 10.789-18.98 2.11 0 3.798 4.615 3.798 10.388 0 4.55.382 6.279 1.533 6.936 1.369.78 1.383 1.175.134 3.698-.77 1.553-1.702 4.11-2.074 5.685-.924 3.916-3.987 8.08-7.178 9.76-1.461.772-4.652 3.376-7.09 5.79-3.515 3.479-4.43 5.05-4.418 7.588.02 4.29 1.395 6.532 3.002 4.895 1.924-1.96 2.797-1.393 2.115 1.375-.614 2.492-.523 2.56 2.56 1.933 3.956-.807 7.537-3.124 8.192-5.303.272-.905.875-2.304 1.338-3.106s2.233-4.454 3.933-8.114c2.115-4.556 4.436-7.778 7.356-10.216 2.347-1.96 4.892-5.086 5.656-6.948 2.257-5.504 8.826-10.202 8.826-6.313 0 2.282-3.695 9.167-6.398 11.92-3.397 3.46-6.014 8.1-6.02 10.669-.003 2.255 1.34 2.939 2.386 1.217 1.04-1.715 2.227-1.04 1.71.974-.42 1.636-.03 1.946 2.445 1.946 4.909 0 9.527-2.816 10.237-6.243.342-1.651 1.45-4.395 2.465-6.096 1.207-2.024 1.635-3.94 1.239-5.545-.646-2.62 1.107-9.367 2.433-9.367.988 0 4.446 7.255 5.335 11.192.362 1.605 1.503 3.867 2.534 5.026 1.746 1.96 2.509 2.07 11.1 1.58 8.889-.507 9.313-.636 11.614-3.53 1.73-2.176 2.536-4.618 2.928-8.88.688-7.51 3.927-12.62 11.366-17.937l5.563-3.976 1.37 2.179c.754 1.198 2.386 4.7 3.626 7.782 2.07 5.149 2.156 5.994 1.042 10.42-.666 2.649-.926 5.733-.576 6.854.354 1.135-.116 4.162-1.061 6.838l-1.695 4.8 2.26 2.452c2.565 2.78 4.336 3.122 5.139.99.729-1.932 2.52-1.874 2.52.08 0 2.07 1.877 1.312 4.035-1.633 1.65-2.253 1.666-2.673.25-6.751-.83-2.392-1.316-5.104-1.082-6.026.235-.923.002-3.551-.52-5.84-1.191-5.23-1.127-11.355.186-17.796.922-4.525.792-5.507-1.362-10.243-1.311-2.881-2.203-5.421-1.983-5.645.219-.223 2.028.247 4.02 1.045 9.263 3.71 16.5 2.864 20.896-2.442l2.605-3.145-5.641-.49c-6.411-.558-6.705-.704-13.472-6.741-4.77-4.253-4.944-4.587-4.433-8.392.303-2.246-.17-7.18-1.09-11.39-1.494-6.846-1.502-7.842-.104-12.741.835-2.924 1.517-6.602 1.517-8.174 0-4.703-2.572-11.961-5.6-15.8-1.563-1.98-3.31-5.363-3.877-7.518-.57-2.153-2.091-5.5-3.381-7.437-2.211-3.32-2.266-3.716-.954-6.915.766-1.866 1.392-5.801 1.392-8.744 0-4.648-.406-5.822-3.104-8.953-5.854-6.792-8.594-7.411-36.543-8.252-32.264-.97-37.346-2.203-32.334-7.845 2.05-2.31 5.396-2.25 12.36.223 7.607 2.698 16.915 3.368 22.363 1.61 4.678-1.51 4.763-1.43-3.344-3.145-1.313-.277-2.39-.992-2.39-1.587 0-.727 1.486-.88 4.539-.466 12.49 1.692 14.569 1.816 14.569.867 0-1.58-8.39-4.823-17.142-6.63-14.074-2.904-27.64-.497-34.06 6.042-3.945 4.02-4.395 8.289-1.105 10.475 4.138 2.749 10.94 3.59 35.235 4.365 22.218.707 24.883.974 28.744 2.878 4.75 2.343 6.812 5.4 6.688 9.91-.104 3.746-2.566 7.74-4.768 7.74-3.73-.002-16.071-3.154-24.811-6.336-5.127-1.867-10.183-3.393-11.233-3.39-2.373.006-5.16 1.868-13.417 8.97-3.562 3.063-9.9 7.384-14.085 9.603-13.547 7.18-17.73 12.889-19.611 26.777-1.02 7.522-2.285 10.53-8.111 19.298-4.837 7.278-8.262 17.06-8.288 23.672-.013 3.192-1.133 8.307-2.984 13.625-2.451 7.04-3.001 10.198-3.178 18.247-.184 8.347-.561 10.378-2.648 14.27-1.503 2.803-2.692 6.994-3.11 10.963-.615 5.855-1.091 6.92-5.365 12.008-2.58 3.07-4.695 6.115-4.7 6.766s-1.306 2.688-2.892 4.528c-3.645 4.229-5.432 9.079-3.914 10.625.807.822 1.459.556 2.56-1.047 2.096-3.047 3.297-2.68 2.34.716-.55 1.954-.451 3.024.307 3.36 1.439.64 6.872-.218 9.703-1.532zm73.12-204.173c-2.68-1.728-.125-2.18 3.975-.702l4.119 1.484-3.344.062c-1.838.034-3.976-.346-4.75-.844zM46.147 89.924c7.404-2.75 7.882-3.1 7.882-5.755 0-1.556-.148-2.828-.328-2.828-.181 0-2.828.876-5.882 1.946-3.055 1.07-5.702 1.947-5.882 1.947-.181 0-.328-7.665-.328-17.032s-.151-17.032-.335-17.032c-.185 0-1.69.48-3.344 1.068l-3.008 1.068v20.448c0 19.083.11 20.402 1.672 19.772.919-.372 5.218-1.993 9.553-3.602zM315.799 73.65V53.306l-3.01-1.068c-1.654-.587-3.158-1.068-3.343-1.068s-.335 9.134-.335 20.298v20.298l3.104 1.015a179.06 179.06 0 0 1 3.344 1.114c.132.053.24-9.056.24-20.245zm-14.551-5.622l-.258-20.126-2.627-.715-2.627-.715-.016 10.864c-.016 12.452-.113 12.415-5.834-2.273-4.193-10.765-5.557-12.652-9.142-12.652h-2.206v19.95c0 15.307.278 19.956 1.194 19.967.657.007 2.147.273 3.313.592 2.094.57 2.123.436 2.389-11.274l.27-11.853 5.224 13.277c2.874 7.304 5.883 13.67 6.688 14.15 3.798 2.267 3.902 1.724 3.632-19.192zM62.753 84.645c.333-.197.9-2.767 1.26-5.71.738-6.008.676-5.93 5.43-6.838l3.46-.661 1.157 4.91c1.134 4.817 1.214 4.899 4.176 4.326 1.66-.321 3.194-.736 3.409-.923.48-.417-8.58-36.623-9.372-37.447-.314-.327-1.888-.227-3.498.225-2.904.812-2.956.944-6.494 16.653a4572.355 4572.355 0 0 1-4.883 21.49l-1.316 5.659 3.033-.663c1.669-.364 3.305-.822 3.638-1.021zm4.14-19.75c.317-1.014.909-3.751 1.315-6.081l.74-4.238 1.259 5.22c1.06 4.393 1.05 5.354-.056 6.067-2.304 1.487-3.877 1.02-3.257-.967zm204.959-4.422c0-10.942-.322-20.08-.717-20.304-.394-.226-1.898-.697-3.344-1.05l-2.627-.64v40.786l2.627.405c1.445.223 2.95.47 3.344.55.394.082.717-8.805.717-19.747zM91.448 77.927c.93-.362 1.189-2.264.963-7.086-.17-3.625-.17-8.33 0-10.454.286-3.581.58-3.051 4.026 7.256l3.717 11.118 3.448-12.468 3.448-12.47.27 10.932c.234 9.397.479 10.849 1.75 10.352.814-.318 2.305-.578 3.313-.578 1.748 0 1.833-.937 1.833-20.243V34.042l-3.261.389c-3.194.38-3.312.559-5.785 8.807-1.39 4.63-3.087 10.17-3.774 12.312l-1.25 3.893-3.11-10.22c-1.71-5.62-3.445-10.591-3.857-11.047-.411-.455-2.08-.53-3.708-.166l-2.96.663v19.874c0 18.943.086 19.874 1.833 19.874 1.007 0 2.404-.223 3.104-.494zm165.854-20.674l-.26-20.195-2.626-.308-2.627-.308V52.164l-4.061-.578c-6.663-.95-6.45-.646-6.45-9.146 0-5.598-.337-7.82-1.192-7.83-.657-.007-2.162-.277-3.344-.6l-2.15-.587v40.89l3.344.397 3.344.397v-9.05c0-10.025-.312-9.646 6.928-8.426l3.582.603v9.048c0 7.798.23 9.108 1.672 9.492 4.212 1.124 4.11 1.642 3.84-19.521zM137.059 71.268c3.925-1.91 6.148-5.94 6.226-11.286.054-3.745-.403-5.346-1.99-6.963-2.046-2.086-2.048-2.122-.242-5.138 2.192-3.663 2.323-7.506.386-11.323-1.803-3.552-6.412-4.84-14.324-4.001l-5.732.607-.26 20.296-.257 20.296 6.946-.684c3.818-.375 7.98-1.187 9.247-1.804zm-9.468-10.193c0-5.064.25-5.852 2.014-6.321 5.349-1.425 9.222 3.969 6.463 9-1.022 1.865-2.276 2.579-4.924 2.804l-3.553.302v-5.785zm0-17.23v-5.328h3.153c3.82 0 5.446 1.475 5.446 4.942 0 3.094-1.303 4.307-5.494 5.116l-3.105.599v-5.328zm97.112 27.272c2.53-1.69 4.145-6.9 4.152-13.408.006-5.118-.076-5.187-6.922-5.855l-4.538-.444v3.287c0 2.857.312 3.287 2.389 3.287 1.927 0 2.388.48 2.388 2.497 0 5.767-4.551 8.333-7.964 4.49-4.684-5.271-3.638-25.351 1.404-26.98 2.103-.68 5.604 1.872 5.604 4.085 0 .847 1.18 1.309 3.344 1.309 3.793 0 4.219-1.293 1.916-5.828-2.02-3.98-5.075-5.851-9.56-5.851-8.2 0-11.911 6.233-11.878 19.952.02 9.069 1.385 14.796 4.307 18.084 3.377 3.8 10.737 4.459 15.358 1.375zm-59.097-1.033c1.175-.838 3.073-3.356 4.219-5.596 2.996-5.858 3.054-20.563.107-27.118-2.01-4.468-5.903-7.611-9.427-7.611-3.34 0-7.84 3.133-9.922 6.908-4.44 8.048-3.571 25.86 1.564 32.079 1.998 2.418 3.06 2.862 6.844 2.862 2.519 0 5.413-.667 6.615-1.524zm-9.093-6.946c-1.235-1.917-1.771-5.02-1.978-11.436-.243-7.535.002-9.271 1.696-12.033 2.473-4.03 5.574-3.905 7.655.308 2.154 4.36 1.987 19.677-.252 23.158-2.16 3.358-4.96 3.36-7.121.003zm27.445-.6c0-8.22.087-8.57 2.044-8.272 1.627.247 2.646 2.049 4.996 8.827l2.95 8.516h7.143l-3.137-9.174-3.14-9.174 2.565-2.466c3.132-3.011 4.107-7.397 2.77-12.453-1.49-5.636-5.231-7.602-14.483-7.606l-7.367-.004-.276 20.035c-.152 11.02-.205 20.106-.117 20.195.087.088 1.485.16 3.104.16h2.946v-8.584zm.716-14.851c-.394-.404-.716-3.128-.716-6.054v-5.318l4.026.55c5.72.78 8.143 4.808 5.285 8.788-1.287 1.794-7.414 3.243-8.595 2.034zM5.454 74.527c0-1.337.218-1.885.483-1.216s.265 1.765 0 2.434-.482.12-.482-1.217zm.136-8.76c0-2.942.179-4.147.398-2.675.219 1.472.219 3.88 0 5.353-.22 1.473-.398.268-.398-2.677z"/><path fill="#282928" d="M166.145 374.673c-23.48-17.078-52.784-44.832-69.253-65.59-49.748-62.704-73.31-133.28-76.843-230.175-.94-25.753.362-28.916 14.35-34.881 36.58-15.6 83.615-23.4 140.96-23.378 43.224.017 73.41 3.42 106.523 12.012 15.005 3.893 36.015 11.323 41.328 14.615 3.968 2.458 6.684 7.012 7.527 12.62.84 5.59-1.07 45.02-3.018 62.32-10.07 89.387-42.295 158.562-100.817 216.422-18.797 18.585-47.271 41.49-51.572 41.49-.924.002-5.058-2.453-9.185-5.455zM111.059 295.5c2.25-1.397 3.229-2.87 3.72-5.593.368-2.032 1.466-4.74 2.44-6.017 1.296-1.695 1.773-3.963 1.773-8.41 0-5.68.259-6.406 3.85-10.818 2.639-3.241 4.565-7.091 6.124-12.24 1.25-4.132 3.118-8.73 4.15-10.22 1.032-1.488 3.227-5.444 4.877-8.79 1.65-3.346 3.372-6.083 3.826-6.083 2.03 0 3.364 3.404 3.165 8.074-.254 5.965.42 8.472 2.282 8.472 1.206 0 1.197.386-.064 2.87-.802 1.58-1.458 3.413-1.458 4.073 0 2.975-4.228 9.698-7.324 11.647-1.851 1.166-4.325 3.044-5.497 4.174a82.779 82.779 0 0 1-4.21 3.747c-1.936 1.579-2.571 4.296-2.104 9.012.278 2.809 1.709 4.028 3.084 2.628 1.803-1.837 2.846-1.365 1.72.778-.926 1.764-.727 1.946 2.116 1.943 3.597-.004 9.349-3.21 9.349-5.208 0-1.345 6.76-15.058 9.12-18.502.686-.998 2.573-2.638 4.195-3.644 1.623-1.005 3.679-3.473 4.57-5.483 2.146-4.846 4.973-8.036 7.12-8.036.959 0 1.745.23 1.745.514 0 1.646-5.877 11.986-7.08 12.457-1.786.698-6.574 10.114-5.796 11.396.75 1.236 3.322 1.208 3.322-.036 0-.535.417-.974.925-.974s.66.7.338 1.559c-.837 2.222 1.267 3.18 5.064 2.308 4.973-1.143 8.002-3.55 8.002-6.36 0-1.348.92-3.72 2.045-5.27 1.566-2.156 1.914-3.647 1.483-6.352-.553-3.47.802-8.27 2.333-8.27 1.104 0 3.295 4.602 4.637 9.732 1.87 7.163 2.604 7.575 13.5 7.575 7.234 0 9.834-.347 10.693-1.424.624-.783 1.963-2.345 2.974-3.471 1.314-1.463 1.882-3.637 1.99-7.62.128-4.65.692-6.334 3.417-10.196 4.084-5.79 12.045-11.63 13.814-10.133.675.57 2.37 3.948 3.769 7.506 2.304 5.86 2.435 6.858 1.398 10.628-.63 2.288-.915 5.377-.636 6.864s-.1 4.18-.84 5.985c-1.901 4.639-1.686 6.68 1 9.415 2.908 2.964 4.168 3.012 5.234.199l.832-2.19.9 2.385.902 2.384 2.535-2.583c2.86-2.914 3.168-5.416 1.154-9.384-.76-1.497-1.135-3.684-.834-4.858.303-1.176 0-4.775-.672-8-.991-4.758-.992-7.37-.002-13.848 1.154-7.564 1.112-8.186-.812-11.843-3.07-5.838-2.711-6.397 2.758-4.281 8.27 3.202 16.97 1.869 20.404-3.127 2.404-3.497 2.004-4.795-1.273-4.127-5.074 1.034-9.121-.475-14.762-5.503l-5.428-4.838-.49-8.524c-.514-8.948-.54-14.153-.14-28.317.243-8.57.23-8.622-3.54-14.356-2.081-3.165-4.492-7.85-5.357-10.411-.865-2.561-2.527-5.691-3.695-6.957-2.02-2.19-2.048-2.444-.597-5.303 4.557-8.977 1.835-17.834-7.024-22.856l-5.172-2.932-24.443-.774c-31.003-.981-36.85-2.125-34.43-6.734 1.588-3.021 4.978-3.142 13.269-.474 8.409 2.706 17.645 3.289 22.845 1.442 3.499-1.242 3.115-2.825-.686-2.825-1.445 0-3.461-.68-4.481-1.51-1.737-1.414-1.612-1.477 1.967-.99 11.694 1.59 15.764 1.758 15.764.652 0-.628-1.827-1.933-4.061-2.9-13.828-5.992-31.356-6.645-41.388-1.54-5.093 2.592-9.963 7.66-9.963 10.369 0 1.794 4.659 5.529 8.238 6.605 2.038.612 14.882 1.538 28.544 2.058 26.816 1.02 31.316 1.852 34.86 6.442 2.577 3.337 2.47 8.28-.251 11.502l-2.172 2.572-7.445-1.566c-4.095-.862-11.18-2.931-15.741-4.597-14.308-5.226-14.38-5.213-25.722 4.439-3.834 3.264-11.346 8.369-16.692 11.347-13.604 7.574-16.348 11.938-18.454 29.337-.395 3.258-1.962 6.77-5.43 12.166-7.32 11.389-9.385 16.649-10.344 26.334-.497 5.014-2.028 11.898-3.733 16.776-2.407 6.886-2.894 9.76-2.904 17.152-.011 7.558-.357 9.515-2.325 13.139-1.272 2.343-2.585 6.449-2.918 9.126-1.026 8.25-1.358 9.067-5.686 14.03-2.31 2.65-4.511 5.834-4.892 7.073-.38 1.24-1.917 3.686-3.414 5.436-3.038 3.547-4.244 7.144-3.258 9.712.572 1.49.956 1.339 3.057-1.214l2.403-2.92-.61 3.649-.607 3.649 4.104-.004c2.38 0 5.386-.797 7.157-1.896zm73.337-204.491c-.991-1.634-.215-1.718 3.383-.366l3.344 1.256-3.05.074c-1.675.04-3.331-.393-3.677-.964zm-146.271 83.52c-4.471-23.364-7.416-49.876-8.893-80.05-1.554-31.737-1.59-32.103-3.375-34.881-.916-1.424-2.045-2.59-2.51-2.59-2.767 0 .84 55.21 5.469 83.7 2.654 16.335 8.609 40.878 9.92 40.878.406 0 .132-3.175-.611-7.056zM54.98 84.018c0-2.008-.146-3.65-.326-3.65-.18 0-2.831.878-5.89 1.949-3.058 1.072-5.781 1.724-6.052 1.448s-.686-7.722-.923-16.548c-.237-8.825-.777-16.047-1.2-16.047-.423 0-1.872.428-3.22.949l-2.451.949v41.808l10.029-3.604 10.029-3.605.004-3.65zM315.1 53.01c-.403-.401-1.917-1.027-3.362-1.391l-2.627-.661V92.04l3.104 1.292 3.104 1.29.259-20.44c.142-11.243-.073-20.77-.477-21.172zm-12.677 15.736c0-11.21-.322-20.574-.717-20.811s-2.155-.744-3.914-1.13l-3.197-.698.33 9.832c.184 5.407.117 9.828-.145 9.824-.264-.004-2.311-4.712-4.551-10.463-4.985-12.805-4.783-12.491-8.586-13.332l-3.105-.686V61.74c0 11.252.322 20.643.717 20.868.395.225 1.898.697 3.344 1.049l2.627.64V72.892c0-6.273.359-10.99.797-10.481.438.509 2.877 6.332 5.419 12.94 4.499 11.696 5.792 13.508 9.787 13.714.918.048 1.194-4.631 1.194-20.32zM60.54 86.123c2.656-.942 3.095-1.666 4.069-6.712.999-5.173 1.338-5.706 3.973-6.242 4.316-.88 4.338-.866 4.993 3.082.939 5.664 1.498 6.167 5.573 5.02 1.947-.547 3.539-1.227 3.539-1.511s-1.661-6.724-3.692-14.311c-2.031-7.586-4.266-16.107-4.966-18.937-1.247-5.036-1.335-5.132-4.19-4.521-1.603.343-3.225.915-3.603 1.27-.693.652-10.281 40.43-10.292 42.7-.008 1.493.772 1.52 4.596.162zm7.232-22.485c.322-1.64.585-3.67.585-4.512 0-2.458 1.595-.03 2.218 3.377.464 2.535.22 3.15-1.414 3.587-1.76.469-1.91.203-1.39-2.452zm261.317 3.59c.06-7.014-.596-11.192-1.756-11.192-.363 0-1.434.576-2.38 1.28-1.644 1.225-1.647 1.732-.093 11.922.895 5.854 1.87 11.3 2.17 12.103.787 2.108 1.99-6.147 2.059-14.113zm-57.238-6.69V39.734l-3.02-.615c-1.66-.338-3.104-.502-3.211-.365-.106.138-.477 9.293-.823 20.344l-.63 20.094 3.604.975c1.98.535 3.71 1.02 3.842 1.074.13.055.238-9.262.238-20.703zM91.048 78.78c2.032-.555 2.154-1.1 2.24-9.963l.092-9.376 3.105 9.5c1.708 5.227 3.337 9.739 3.622 10.028.285.29 1.388-2.452 2.452-6.094l3.353-11.487 1.417-4.866.1 9.822.1 9.822 3.583-.6 3.583-.598-.36-20.415c-.197-11.23-.473-20.551-.612-20.715-.14-.165-1.683.078-3.43.539-3.1.818-3.26 1.122-6.51 12.352l-3.333 11.514-3.471-10.594c-3.426-10.456-3.507-10.588-6.253-10.266-1.53.18-3.08.618-3.445.974-.364.355-.794 9.734-.955 20.842-.317 21.819-.513 21.01 4.722 19.58zM258.477 58.04c0-11.21-.322-20.581-.717-20.827-.394-.245-2.006-.6-3.582-.787l-2.866-.341-.28 7.542c-.275 7.485-.298 7.543-2.865 7.53-6.45-.033-6.787-.467-7.088-9.094l-.275-7.926-3.105-.305-3.105-.305v20.397c0 21.815-.053 21.578 4.82 21.578 1.609 0 1.824-.938 2.07-9.002l.275-9.001 3.82.336c2.104.186 4.145.539 4.539.786.395.248.717 4.557.717 9.577v9.127l3.104.392c1.708.217 3.428.463 3.82.549.395.085.718-9.016.718-20.226zM136.885 72.027c6.255-2.586 8.93-12.18 5.155-18.486-1.542-2.575-1.606-3.232-.474-4.81 1.792-2.497 1.662-10.243-.218-12.98-2.31-3.357-5.74-4.25-13.501-3.508l-6.943.663V74.58l6.449-.64c3.546-.351 7.836-1.213 9.532-1.914zm-8.906-6.634c-.28-.741-.374-3.26-.21-5.596.272-3.846.554-4.277 2.985-4.562 3.75-.438 5.436 1.362 5.436 5.81 0 3.182-.398 3.952-2.451 4.747-3.385 1.312-5.163 1.188-5.76-.4zm-.388-21.417c0-3.71.306-4.353 2.312-4.866 3.224-.823 5.246.186 5.93 2.96.77 3.123-1.963 6.18-5.524 6.18-2.575 0-2.718-.226-2.718-4.274zm95.924 28.47c3.458-1.604 5.346-6.458 5.346-13.748v-6.29l-4.433-.62c-6.96-.971-7.032-.942-7.032 2.788 0 2.758.364 3.407 1.91 3.407 2.777 0 2.81 7.364.037 8.26-4.854 1.57-7.665-3.873-7.674-14.861-.007-8.166 1.923-12.864 5.283-12.864 1.935 0 2.776.693 3.626 2.983 1.02 2.756 1.36 2.936 4.455 2.347 1.842-.351 3.482-.77 3.645-.932s-.324-1.802-1.08-3.643c-4.191-10.223-16.574-10.997-20.784-1.301-2.54 5.852-3.31 15.224-1.84 22.437 1.61 7.9 6.505 13.146 12.265 13.146 2.138-.001 4.962-.5 6.276-1.108zm-58.11-1.7c4.262-2.647 6.406-8.006 6.895-17.231.787-14.857-3.856-23.756-12.395-23.756-3.077 0-4.475.643-7.006 3.222-4.216 4.295-5.53 9.759-5.082 21.129.292 7.422.784 9.956 2.473 12.739 3.5 5.77 9.576 7.338 15.115 3.897zm-7.626-6.481c-4.901-4.992-4.036-25.158 1.166-27.192 6.083-2.377 8.963 20.619 3.372 26.913-1.931 2.173-2.637 2.216-4.538.279zm43.375 7.526c0-.435-1.282-4.655-2.85-9.38l-2.85-8.59 2.955-3.428c2.687-3.117 2.917-3.902 2.53-8.633-.712-8.765-5.464-11.985-17.7-11.997l-5.971-.005v41.85H184.91v-8.76c0-11.678 1.594-11.692 5.714-.055 2.71 7.657 3.386 8.752 5.61 9.1 4.52.708 4.92.7 4.92-.102zm-16.241-29.615v-5.214l3.31.394c4.168.496 5.5 2.114 5.115 6.208-.287 3.043-.535 3.244-4.364 3.526l-4.061.299v-5.213zm-153.854 8.75c.07-1.285-3.284-.78-5.55.836l-2.192 1.564 2.178 2.362 2.178 2.36 1.673-3.195c.92-1.76 1.69-3.525 1.713-3.926z"/><path fill="#040404" d="M161 370.03C93.832 318.563 52.291 255.368 33.031 175.356 25.286 143.175 20.59 103.426 20.59 70.04c0-18.22 1.28-20.225 16.968-26.574 50.403-20.398 125.209-27.581 197.99-19.014 36.837 4.337 83.445 17.894 90.782 26.408 2.98 3.457 3.671 5.422 1.65 4.678-.658-.242-2.18.335-3.384 1.282-2.185 1.717-2.188 1.743-.803 9.958.762 4.532 1.692 12.946 2.065 18.7.372 5.754 1 10.463 1.394 10.463 1.267 0 1.895-6.923 2.12-23.358l.218-16.06.335 13.14c.627 24.676-2.95 61.366-8.88 91.059-11.058 55.388-32.541 103.252-65.06 144.955-20.511 26.305-72.372 73.481-80.778 73.481-1.414-.002-6.867-3.504-14.208-9.128zm23.048 1.208c12.465-8.202 24.653-18.635 38.717-33.141 19.285-19.895 30.459-33.171 34.322-40.782 1.181-2.325 1.126-2.773-.54-4.307-1.803-1.663-2.24-1.327-15.01 11.516-15.966 16.057-27.009 25.132-27.009 22.2 0-1.738-12.368-8.878-19.749-11.404-13.187-4.509-27.501-4.097-39.197 1.126l-4.97 2.22-1.59-5.522c-4.492-15.594-7.016-36.315-4.618-37.912.578-.384 2.247-3.434 3.71-6.776 1.9-4.339 4.08-7.31 7.632-10.402 3.007-2.618 5.32-5.562 5.851-7.451.905-3.212 5.132-7.236 6.934-6.6 1.556.55-1.871 7.506-6.221 12.625-2.088 2.459-4.369 5.879-5.07 7.601-1.106 2.722-1.071 3.337.267 4.7 1.416 1.443 1.597 1.418 2.248-.307.643-1.705.759-1.654 1.269.557.735 3.185 3.579 3.553 8.902 1.155 3.713-1.673 4.267-2.34 4.807-5.777.335-2.137 1.29-4.46 2.122-5.163 1.017-.86 1.433-2.575 1.272-5.236-.254-4.147.804-9.31 1.906-9.31 1.152 0 3.732 5.256 4.421 9.011.372 2.012 1.516 4.75 2.547 6.083 1.777 2.304 2.362 2.425 11.72 2.425h9.849l2.719-3.632c2.107-2.815 2.752-4.774 2.869-8.724.202-6.907 3.691-12.753 10.626-17.812l5.444-3.972 1.554 2.098c.855 1.154 2.467 4.683 3.583 7.844 1.584 4.486 1.816 6.317 1.058 8.349-.534 1.432-1.133 5.254-1.332 8.496-.198 3.24-.647 7.47-.997 9.4-.552 3.055-.298 3.778 1.97 5.596 3.29 2.636 4.11 2.62 5.185-.102.626-1.586.881-1.736.924-.544.103 2.78 1.995 3.051 4.508.646 2.041-1.952 2.31-2.869 1.824-6.184a803.24 803.24 0 0 1-1.395-10.219c-.452-3.48-1.141-7.108-1.532-8.065-.39-.956-.164-5.777.5-10.712 1.153-8.555 1.114-9.164-.84-13.065-2.801-5.595-2.617-6.463.972-4.573 4.143 2.182 13.37 2.927 17.041 1.378 3.12-1.316 6.69-5.257 6.69-7.385 0-.956-1.156-1.148-4.54-.751-3.766.44-5.048.143-7.55-1.75-1.656-1.253-4.78-3.594-6.943-5.2-3.74-2.777-3.906-3.114-3.397-6.928.304-2.277-.146-7.061-1.044-11.076-.867-3.886-1.32-8.433-1.005-10.103.315-1.67.997-5.138 1.518-7.707 1.306-6.45-.254-13.048-4.708-19.919-1.989-3.07-4.161-7.333-4.827-9.475-.666-2.14-2.043-5.102-3.061-6.58-1.78-2.587-1.79-2.876-.233-7.65 3.068-9.413-.095-17.066-8.85-21.414-4.253-2.111-6.159-2.314-27.97-2.957-20.968-.619-31.874-1.662-34.467-3.294-1.776-1.119-.85-4.39 1.562-5.509 2.052-.953 3.775-.683 10.748 1.68 8.887 3.01 18.238 3.631 23.408 1.552 3.438-1.382 2.666-2.61-2.13-3.39-2.083-.34-4.053-1.056-4.378-1.589-.813-1.34 1.224-1.218 8.536.51 5.912 1.396 11.052 1.167 11.052-.493 0-1.071-8.07-4.45-14.947-6.257-7.764-2.042-21.63-2.011-27.931.062-5.802 1.91-12.066 7.068-12.952 10.668-.802 3.253 1.874 6.39 6.89 8.075 2.013.676 15.185 1.732 30.31 2.429 28.425 1.31 31.022 1.81 34.336 6.63 2.18 3.173 1.865 7.998-.724 11.063-2.17 2.57-2.32 2.598-7.404 1.452-2.854-.643-10.793-3.028-17.645-5.297-9.655-3.2-13.093-3.949-15.285-3.334-1.557.436-6.055 3.632-9.996 7.1-3.966 3.491-11.339 8.546-16.514 11.324-13.169 7.068-17.206 12.567-18.834 25.647-.915 7.358-2.504 11.158-9.146 21.887-4.534 7.323-7.096 14.742-7.096 20.548 0 2.99-1.296 8.825-3.344 15.063-2.821 8.591-3.344 11.533-3.344 18.836 0 7.322-.368 9.382-2.385 13.37-1.313 2.59-2.63 6.901-2.928 9.578-.894 8.021-1.109 8.534-6.112 14.557-2.648 3.188-4.816 6.583-4.816 7.543s-.415 1.745-.921 1.745c-1.601 0-5.767 7.152-5.767 9.9 0 3.675 1.832 4.452 3.945 1.675l1.772-2.33-.59 3.164c-.512 2.747-.328 3.163 1.4 3.163 1.374 0 2.794 1.432 4.582 4.622 10.111 18.037 32.42 44.527 49.08 58.28 8.409 6.94 19.946 14.958 21.525 14.958.61.001 3.863-1.812 7.227-4.025zm-65.086-89.812c.523-1.402.903-4.705.845-7.341-.087-3.944.4-5.452 2.752-8.5 3.638-4.714 5.492-8.43 6.935-13.891 1.232-4.668 11.193-24.365 12.32-24.365 1.993 0 2.974 2.935 2.974 8.906 0 4.923.37 6.781 1.481 7.414 2.43 1.386-1.041 11.304-5.498 15.707-5.783 5.714-8.7 8.266-11.48 10.043-1.893 1.211-2.797 2.773-3.241 5.596-.338 2.154-.956 3.917-1.375 3.917s-2.088 1.139-3.712 2.53l-2.952 2.532.951-2.548zm65.951-190.352c-1.183-.78-1.1-.935.478-.891 1.05.03 2.77.43 3.821.89 1.75.766 1.71.841-.478.89-1.313.03-3.033-.37-3.821-.89zM49.604 214.92c-1.787-5.755-5.164-18.346-7.5-27.98-8.01-33.014-10.692-55.261-13.45-111.575-.47-9.574-1.003-12.974-2.41-15.329-2.124-3.56-3.718-3.91-3.812-.837-1.22 39.955 5.245 90.782 16.265 127.878 4.785 16.108 12.6 38.306 13.486 38.306.37-.001-.79-4.709-2.579-10.463zm29.74-57.151c18.587-4.986 35.931-19.564 44.036-37.012.994-2.14 1.842-4.111 1.884-4.379.04-.268.888-3.115 1.88-6.326 1.34-4.33 1.816-8.86 1.843-17.52.04-13.096-.658-16.975-3.086-17.15-.91-.066.807-.487 3.815-.935 10.37-1.548 14.116-5.36 14.116-14.362 0-3.293-.577-5.53-1.833-7.105-1.718-2.152-1.733-2.412-.239-4.103 1.04-1.176 1.595-3.494 1.595-6.65 0-4.24-.387-5.196-3.12-7.683-3.29-2.994-7.557-3.595-15.748-2.215l-3.583.603v12.932c0 7.112-.26 13.625-.58 14.471-.318.847-1.608 1.539-2.866 1.539h-2.286V47.762c0-13.99-.02-14.113-2.15-14.099-5.568.034-5.975.575-9.347 12.408l-3.22 11.307-3.359-10.409-3.358-10.409-3.375.62c-1.856.34-3.697.805-4.092 1.034-.394.229-.716 6.475-.716 13.879v13.463l-2.527.645c-1.39.355-2.832.293-3.205-.137-.372-.432-2.01-5.983-3.638-12.335-1.629-6.354-3.151-11.747-3.385-11.986-.235-.238-1.948-.143-3.807.212l-3.38.646L63.1 53.454c-4.544 19.628-3.657 17.806-9.325 19.155-2.752.655-6.4 1.77-8.109 2.478l-3.105 1.287V63.182c0-11.67-.176-13.125-1.522-12.599-.837.327-2.58.865-3.87 1.195l-2.348.6.367 22.025c.405 24.292 1.628 33.087 7.75 55.714 4.675 17.273 8.89 28.032 11.422 29.157 2.852 1.268 18.067.35 24.984-1.505zm-11.566-93.54c.32-.847.58-2.467.58-3.6 0-2.66 1.464-1.081 2.283 2.463.527 2.279.318 2.677-1.412 2.677-1.46 0-1.868-.434-1.45-1.54zm60.768-3.214c0-4.052.304-4.834 2.066-5.302 3.32-.885 5.577.954 5.577 4.542 0 3.894-1.458 5.514-4.968 5.514-2.564 0-2.675-.197-2.675-4.754zm-34.712 3.131c-.35-.357-.624-1.343-.608-2.19.024-1.266.21-1.224 1.044.235 1.028 1.803.73 3.142-.436 1.955zm12.89-3.243c0-1.34.217-1.887.481-1.217.266.669.266 1.764 0 2.432-.264.67-.481.123-.481-1.215zm21.822-17.032c0-4.357.018-4.38 3.344-4.38 3.356 0 3.893.77 3.39 4.866-.231 1.892-2.806 3.893-5.006 3.893-1.412 0-1.728-.804-1.728-4.38zm184.332 88.138c2.686-6.812 6.763-31.536 6.71-40.686-.02-3.485-.731-7.075-1.88-9.495-1.528-3.225-1.851-6.08-1.878-16.627l-.032-12.732-3.316-1.035-3.315-1.037-.267 11.822c-.253 11.195-.368 11.807-2.177 11.532-4.308-.652-4.3-.624-4.3-13.67V47.52l-2.986-.608c-1.641-.334-3.362-.608-3.82-.608-.461 0-.854 4.27-.874 9.489l-.037 9.49-4.354-10.706c-2.393-5.889-4.634-10.988-4.978-11.334-.343-.345-2.024-.927-3.73-1.295l-3.106-.665V54.01c0 12.635-.015 12.73-2.197 12.73-4.004 0-4.49-1.592-4.49-14.68 0-11.98-.063-12.362-2.15-12.931-5.593-1.527-5.493-1.757-5.493 12.639V65.02l-2.15-.586c-1.182-.323-2.471-.593-2.865-.6-.395-.008-.717-6.09-.717-13.518V36.814l-2.985-.609c-1.641-.334-3.362-.607-3.822-.607-.46 0-.836 3.503-.836 7.785 0 8.4.052 8.332-5.576 7.186l-2.95-.601-.274-7.915-.276-7.916-3.583-.303-3.583-.301V75.288l3.374.4c1.855.221 3.575.197 3.821-.055.247-.251.448-4.325.448-9.054 0-9.292-.098-9.153 5.613-7.989l2.986.607.06 7.422c.067 8.243 1.396 26.78 2.139 29.806 3.695 15.076 15.559 29.012 29.457 34.608 7.362 2.964 11.681 3.697 21.087 3.573 7.99-.103 8.359-.206 9.302-2.597zm-26.164-63.565c-.998-3.347-1.23-5.547-.537-5.112 1.285.809 2.887 6.329 1.837 6.329-.516 0-1.1-.547-1.3-1.217zm-61.921 3.586c3.074-2.052 4.066-5.232 4.066-13.023 0-7.396-.402-7.796-7.88-7.823-3.545-.013-3.583.027-3.583 3.879 0 3.244.318 3.893 1.91 3.893 1.469 0 1.911.65 1.911 2.801 0 4.098-2.221 5.64-5.234 3.63-3.016-2.014-3.842-5.08-3.842-14.26 0-11.142 4.25-16.321 7.927-9.66 1.392 2.521 2.112 2.909 4.971 2.676 3.001-.245 3.324-.548 3.163-2.96-.427-6.33-7.941-11.639-14.21-10.037-3.751.96-7.646 5.642-8.896 10.693-2.334 9.446-.586 22.534 3.76 28.164 3.448 4.466 10.867 5.41 15.937 2.027zm-58.21-1.879c4.009-3.437 6.049-9.358 6.196-17.99.243-14.255-4.205-22.404-12.228-22.404-8.459 0-13.358 8.032-13.358 21.899 0 9.019 2.166 15.96 5.92 18.967 3.565 2.859 9.84 2.639 13.47-.472zm-9.498-6.962c-.86-1.055-1.404-4.819-1.581-10.95-.298-10.329.807-14 4.375-14.521 3.503-.513 5.271 5.225 4.788 15.54-.41 8.699-1.538 11.538-4.594 11.538-.921 0-2.267-.724-2.988-1.607zm27.625.39c.37-11.381 1.928-11.317 5.987.242l3.076 8.76h4.167c2.293 0 4.154-.11 4.135-.244-.018-.133-1.446-4.338-3.173-9.344l-3.143-9.1 2.697-2.748c2.244-2.286 2.697-3.57 2.697-7.643 0-10.089-3.289-12.964-15.525-13.57l-8.36-.415V50.48c0 22.336-.034 22.178 4.777 21.8 2.33-.181 2.397-.4 2.665-8.702zm.203-21.168c0-4.857.007-4.867 3.154-4.867 3.796 0 5.445 1.473 5.445 4.867s-1.649 4.866-5.445 4.866c-3.147 0-3.154-.01-3.154-4.866zM29.188 56.69c0-.647 1.09-2.811 2.423-4.81 1.942-2.91 2.124-3.632.917-3.632-1.656 0-9.073 3.63-9.073 4.44 0 .278.927 1.784 2.062 3.348 2.002 2.757 3.67 3.055 3.67.653zm55.619-22.52c39.997-6.572 79.633-8.634 121.6-6.324 17.15.943 46.231 3.82 57.802 5.719 5.017.823 6.65.696 5.544-.431-.818-.834-23.246-5.088-35.162-6.668-22.35-2.966-40.04-3.765-72.076-3.255-33.342.532-47.426 1.773-69.318 6.112-16.217 3.214-29.88 7.246-24.552 7.246.859 0 8.13-1.078 16.162-2.399z"/></svg>