<svg height="615" viewBox="-.576 -.143 661.316 155.251" width="2500" xmlns="http://www.w3.org/2000/svg"><path d="m140.255.002c-16.204-.145-31.508 8.044-31.508 8.044s-15.418 9.338-21.05 23.33c-.291 1.359-30.836 60.6-30.836 60.6-38.718-11.196-57.437 11.49-56.847 20.246 9.354 23.466 55.095 6.773 59.662 1.34 2.528-1.356 4.157.268 4.157.268s11.202 7.458 12.468 8.045c1.265.587 7.643-.268 7.643-.268 4.96-.377 13.81-10.097 14.882-10.19 1.654.005 3.649 10.768 10.458 10.592 8.17 1.579 17.027-7.642 17.027-7.642 1.166-1.65 1.609-.403 1.609-.403-.188 10.114 8.026 8.33 10.457 8.045 8.072-3.285 27.843-22.764 25.609-17.027-.777 1.554-6.838 12.87-6.838 12.87-.679 3.015 1.475 2.816 1.475 2.816l14.211-.134c2.43-1.453 14.864-28.229 13.408-24.535 4.481-8.11 14.614-10.994 14.614-10.994.973-.29.536 1.072.536 1.072l-16.625 32.982c-.29.873 1.34 1.743 1.34 1.743l14.48-.268c1.946-.188 14.078-25.072 14.078-25.072 3.302-6.314 15.017-9.921 15.017-9.921 2.138-.384.67 1.743.67 1.743l-11.396 23.865c-1.732 10.835 7.372 11.47 11.262 10.994 3.89-.572 10.216-2.763 22.658-12.067 2.53-1.936 3.084.012 3.084.403.107 13.324 14.748 11.798 14.748 11.798 4.377 1.082 22.144.663 37.004-28.96-5.433 20.117 5.644 25.595 6.034 26.279.39.68 6.345 2.76 8.58 2.279 22.664 2.009 32.178-33.25 32.178-33.25 5.1-3.826 6.395-4.924 8.447-6.034 5.059.498 6.417.641 8.849.939 1.944.687.182 2.502-.403 3.083-23.135 18.028-12.98 31.93-12.2 31.642 10.124 13.741 31.14-10.212 35.127-10.592 5.072 20.246 20.502 11.432 21.184 11.53-1.36 3.984-5.317 13.836-8.715 20.245-7.094 10-18.234-1.206-18.234-1.206l-2.816-.134c-1.36 1.746-.536 3.754-.536 3.754 2.92 4.677 6.659 11.149 18.234 12.737 11.671.519 18.368-12.335 18.368-12.335s16.362-30.19 17.43-33.787c4.957-4.46 13.56-10.9 19.977-15.552 4.18-.863-10.463 23.012-11.53 26.412-.291 1.946.402 2.012.402 2.012s11.134.553 13.273.268c2.139-.286 12.53-24.972 16.223-29.63 3.206-5.341 13.541-10.324 13.541-10.324 2.237-.48 1.475 2.145 1.475 2.145l-13.675 27.62c-3.299 11.562 5.988 11.622 7.642 11.53 4.473-.282 21.183-9.922 21.183-9.922 2.333-1.745 2.28 1.073 2.28 1.073-.193 3.696 3.799 9.751 7.105 8.982 11.867 1.102 29.814-18.61 30.301-16.759.099.39-6.704 13.81-6.704 13.81.293 1.07 1.475 1.609 1.475 1.609s11.49.126 14.212.134c2.723.008 15.11-29.593 17.832-31.24 5.54-5.722 11.603-6.265 11.798-6.167 2.043-.09-11.56 21.637-12.334 26.01-3.006 12.54 5.899 12.335 5.899 12.335 7.1 1.091 24.51-11.26 24.803-10.19 2.04-2.035 2.28.403 2.28.403v.938c1.176 10.12 7.106 8.983 7.106 8.983 6.809 1.77 33.384-20.513 33.384-20.513l-4.022-4.424-16.625 12.066c-1.361.679-2.146-.804-2.146-.804l18.637-35.932c.874-.872-.403-1.877-.403-1.877h-16.758c-1.167 1.26-1.877 2.145-1.877 2.145l-15.15 29.497-16.625 8.178c-1.75.48-1.341-1.34-1.341-1.34s13.851-27.182 15.016-30.972c.777-1.748.402-4.558.402-4.558-4.579-10.616-23.078 3.127-25.608 3.218-.098.097 2.28-4.827 2.28-4.827.68-1.458-.67-1.475-.67-1.475l-15.553-.134s.046-1.105-.537-.134-10.591 19.709-10.591 19.709l-25.072 18.904c-2.14.385-1.609-1.072-1.609-1.072l18.368-35.53.134-1.475-17.698-.402-14.614 28.155c-.777.874-16.088 9.52-16.088 9.52-2.335.676-2.414-1.341-2.414-1.341l13.542-26.278c3.067-10.252-8.133-13.266-13.676-11.263-3.747 1.35-7.24 2.548-7.24 2.548s-1.107.288-.134-1.073c1.65-2.33 18.77-36.2 18.77-36.2.39-.973-.536-1.609-.536-1.609l-15.552-.134c-1.265.578-1.475 1.475-1.475 1.475l-22.123 41.965-18.234 13.676c-1.167.775-1.207-.537-1.207-.537l9.117-17.295v-1.744l-16.357-.134-2.682 2.145c-1.85-3.896-11.237-3.85-11.53-3.754-19.647-.64-30.703 27.217-30.703 27.217-10.932 9.477-15.983 12.426-19.574 13.005-2.988.168-3.889-2.28-3.889-2.28-4.162-12.752 21.988-24.803 21.988-24.803.876-.485 4.644-11.797 4.157-11.798s-32.154-.037-32.446-.134c-1.752-.685-10.21 7.275-12.737 9.117-7.407-21.71-36.106-5.29-40.088 4.424-1.71.456-2.477.138-3.352.134.288-7.39-.693-11.998-5.363-14.346-2.53-1.368-12.87 0-12.87 0l17.563-34.993c.874-1.068-.805-2.145-.805-2.145h-15.82c-.681.388-1.475 1.34-1.475 1.34s-29.893 57.898-31.642 61.005c-1.748 3.107-23.597 14.748-23.597 14.748.192-2.138 14.265-26.608 14.749-31.373.573-12.35-13.542-8.447-13.542-8.447s-7.993 5.306-15.284 8.983c-1.567-13.525-13.408-8.849-13.408-8.849l-13.407 8.715 2.413-6.301.537-2.414-16.09-.402c-1.845 1.357-5.094 8.715-5.094 8.715l-5.095 9.385-22.926 17.296c-2.236 1.257-1.073-1.743-1.073-1.743s15.479-30.36 15.82-30.57c1.264-.775.269-2.68.269-2.68l-15.553-.135s-2.634 4.475-3.217 4.961c-7.4-10.43-31.819-6.197-44.915 24.67-1.674 2.063-2.969 3.507-3.888 3.888-15.355 17.95-24.134.134-24.134.134l27.486-52.423s12.505-27.978 20.379-35.932c19.929-13.463 25.608-.804 25.608-.804 1.722 3.99 6.973 18.394-20.111 25.34-3.553.351-2.414 2.01-2.414 2.01 7.883 6.734 17.564 6.034 17.564 6.034 9.533 1.874 35.365-12.341 26.01-35.127-7.3-9.54-17.36-12.65-27.082-12.737zm409.058 35.53c-14.199.543-15.03 19.6-.536 21.585 14.102.43 16.782-20.955.536-21.586zm96.667 0c-15.367.054-14.222 21.739.268 21.585 14.492-1.125 13.253-21.062-.268-21.586zm-507.334 40.623c4.545.104 3.75 5.55 2.95 6.57.487 1.654-7.911 15.82-7.911 15.82-9.717 12.131-14.346 9.921-14.346 9.921s-3.33-.462-.804-6.971c2.72-4.564 8.002-16.44 13.541-23.33 2.917-1.499 5.054-2.045 6.57-2.01zm152.441 1.34c4.767.598 2.414 4.961 2.414 4.961l-13.14 25.876c-4.178 5.145-8.044 3.352-8.044 3.352-2.14-1.564 1.475-7.508 1.475-7.508l12.335-24.133c2.428-2.523 4.96-2.548 4.96-2.548zm136.755.135c3.72-.66 5.23 2.413 5.23 2.413s.216.494-.269 3.218c-1.066 4.18-12.603 24.133-12.603 24.133-4.858 4.85-9.117 3.888-9.117 3.888-2.431-.688-1.475-4.29-1.475-4.29s9.342-19.157 13.81-27.217c1.75-1.284 3.184-1.926 4.424-2.145zm-89.427.134c2.055-.347 4.006.5 3.62 4.826-2.426 5.148-12 24.06-13.943 26.68-.388 2.238-10.165 5.884-7.643-2.278 0 0 13.714-25.649 13.81-26.815.048-.584 2.102-2.067 4.156-2.413zm-308.771 21.051c8.016-.192 15.284 2.412 15.284 2.412s-1.875 6.25-19.575 9.117c-8.364-.507-12.734-.47-12.737-3.485 4.081-6.073 10.793-7.896 17.028-8.045z" fill="#231f20"/></svg>