<svg xmlns="http://www.w3.org/2000/svg" width="2500" height="2500" viewBox="0 0 192.756 192.756"><g fill-rule="evenodd" clip-rule="evenodd"><path fill="#fff" d="M0 0h192.756v192.756H0V0z"/><path stroke="#000" stroke-width=".216" stroke-miterlimit="2.613" d="M67.298 89.181h4.869v14.938h11.888v4.408H67.298V89.181zM93.517 89.052h19.622v4.079H98.258v3.859h11.244v3.416H98.258v4.19h14.771v3.859H93.517V89.052zM122.822 89.273h5.237v19.512h-5.237V89.273z"/><path d="M165.229 108.584l9.811-19.843h5.291l9.592 19.843h-5.127l-2.094-3.748h-9.646l-1.873 3.748h-5.954zm9.644-7.332h5.512l-2.811-7.11-2.701 7.11z"/><path d="M149.23 109.109c-6.299 0-11.621-4.77-11.621-10.414 0-5.751 5.213-10.432 11.621-10.432 3.264 0 6.371 1.238 8.527 3.397l.639.639.291.292-.355.218-.779.48-1.379.848-.527.324-.23.142-.195-.182-.449-.417c-1.461-1.356-3.48-2.134-5.541-2.134-4.248 0-7.705 3.062-7.705 6.826 0 3.754 3.457 6.807 7.705 6.807 2.07 0 4.092-.766 5.545-2.102l.445-.408.195-.18.229.139.523.316 1.377.832.791.479.359.219-.293.293-.645.645c-2.145 2.143-5.252 3.373-8.528 3.373z" stroke="#000" stroke-miterlimit="2.613"/><path d="M2.834 96.378c0-8.926 7.237-16.164 16.164-16.164 8.927 0 16.164 7.237 16.164 16.164 0 8.927-7.237 16.163-16.164 16.163-8.927 0-16.164-7.236-16.164-16.163zm6.435-.538s-.119 1.404-1.119 3.5c0 0-3.429-1.07-3.62.904 0 0 .119 1.43 1.977 1.502 1.857.07 2.905-.977 2.905-.977s8.548 4.453 23.073.285l-.047-.643c-13.454 2.93-22.431-.596-22.431-.596.857-.953 1.572-4.095 1.572-4.095 3.572-.762 3.762-3.81 3.762-3.81s.31-2.048-1.905-2.096C9.96 90.243 9.531 95.1 9.531 95.1s-.356.19-1.524-.262c-.095-.071-.19.596-.19.596.523.335 1.452.406 1.452.406zm-2.831 4.992c1.143-.166 1.262-.666 1.262-.666s-.238-.215-1.215-.381c-.904-.047-1 .43-1 .43s.024.666.953.617zm8.093-9.087c0-1.143-.786-1.024-.786-1.024s-1.286-.19-2.048 4.191c.001 0 2.382-.31 2.834-3.167zm3.543 7.183c.841 2.412 3.762 0 3.762 0s1.333 2.35 4.239-.047c1.762 2.238 3.333.285 3.333.285s.619 1.762 3.191-.049l-.143-.619c-1.413.748-1.064-.301-1.064-.301l.699-2.841h-1.873l-.032.46c-.73-.794-1.396-.603-1.396-.603s-2.541.158-2.858 2.953c-.603.824-1.365.857-1.365.857s-1.08.094-.839-1.488c0 0 .236-1.242 1.109-1.465.46-.095.857.381.857.381l.237-.889c-.571-.318-1.27-.254-1.27-.254-.953-.064-2.81.448-3.048 2.984-1.746 1.365-1.397-.223-1.397-.223l.667-2.667h-2l-.762 2.667c-.826.666-1.524.953-2.73.932-1.08.053-.937-.932-.937-.932 2.714.381 3.127-1.429 3.127-1.429s.127-1.301-1.984-1.38c-3.064.174-3.239 2.667-3.239 2.667s-.238 1.922 2.471 2.021c.001.001 1.229.218 3.245-1.02zm-2.969-2.731c.944-.77 1.08.158 1.08.158s.008 1.227-1.651 1.143c0 0 .216-1.011.571-1.301zm14.192-.095c-.762-.253-1.143 1.303-1.143 1.303s-.508 1.586.381 1.523c1.016-.064 1.08-1.461 1.08-1.461s.571-1.301-.318-1.365zm-9.052-1.501c.556 0 1.007-.354 1.007-.79s-.451-.79-1.007-.79c-.557 0-1.008.354-1.008.79s.451.79 1.008.79z" fill="#c6353a"/></g></svg>