<svg xmlns="http://www.w3.org/2000/svg" width="2500" height="2500" viewBox="0 0 192.756 192.756"><g fill-rule="evenodd" clip-rule="evenodd"><path fill="#fff" d="M0 0h192.756v192.756H0V0z"/><path d="M36.102 87.92c2.527-9.305 4.965-19.294 11.802-26.489 4.162-4.37 10.048-7.076 16.143-7.076 6.6 0 11.238 5.114 11.238 11.535 0 13.527-12.962 23.635-25.3 25.894l-.713 2.676-1.813 6.897c-1.665 6.363-3.835 12.428-7.641 17.838 6.213 1.695 12.278 3.746 18.581 5.113 18.165 3.924 36.805 5.678 55.355 5.678 15.549 0 31.098-.504 46.557-2.438 9.691-1.189 19.324-2.645 28.719-5.352l.893 3.688c-12.219 3.982-24.646 6.838-37.34 8.77-15.609 2.379-31.484 3.746-47.27 3.746-23.754 0-47.746-5.023-69.776-13.883-4.34 4.311-11.118 7.016-17.213 7.016-5.262 0-15.489-2.914-15.489-9.691 0-5.619 7.581-7.879 12.041-7.879 4.4 0 8.859.922 13.14 1.873 4.073-7.135 5.589-15.639 7.225-23.605a40.582 40.582 0 0 1-10.583-2.29l1.397-3.775c3.299 1.159 6.539 1.665 10.047 1.754z"/><path d="M66.753 107.809v.744c0 4.133 3.002 5.352 6.778 5.352 6.452 0 12.695-2.617 18.373-5.531l4.459-17.659h13.2l-4.549 18.225a5.539 5.539 0 0 0-.207 1.545c0 1.516.742 2.26 2.26 2.26 3.002 0 6.094-1.814 8.354-3.656-.029-.477-.061-.951-.061-1.398 0-10.643 10.436-17.659 20.275-17.659 2.527 0 5.232.684 7.314 2.17l-1.457 5.471c-1.309-1.576-2.883-2.795-5.023-2.795-5.68 0-8.057 8.86-8.057 13.348 0 3.004 2.051 4.816 4.994 4.816 4.281 0 7.611-2.854 10.703-5.471.148-3.27.92-6.123 2.764-8.889 3.598-5.321 9.395-8.77 15.846-8.77 3.301 0 6.154 1.07 8.324 3.538l.625-2.735h12.219l-4.727 18.374c-.15.504-.299 1.039-.299 1.545 0 1.547 1.486 2.23 2.855 2.23 1.693 0 3.211-.893 4.607-1.754l.98 3.805-7.225 3.508c-1.812.893-3.924 1.369-5.945 1.369-3.449 0-6.035-2.053-7.312-5.115-2.914 3.539-5.977 5.293-10.645 5.293-4.994 0-9.037-2.795-11.029-7.254-4.162 4.014-9.898 7.402-15.846 7.402-5.023 0-10.049-1.934-12.574-6.48-4.609 3.389-10.496 6.391-16.352 6.391-4.192 0-7.373-2.705-8.622-6.57-6.629 3.717-13.527 6.482-21.256 6.482-7.908 0-17.243-3.895-17.243-13.111 0-10.346 12.249-17.065 21.435-17.065 4.727 0 12.694 1.754 12.694 7.819 0 7.283-10.554 10.703-16.381 10.703-1.455-.002-2.852-.182-4.249-.478zM98.682 80.161c0-4.043 4.49-5.44 7.85-5.44 3.002 0 6.748 1.546 6.748 5.024 0 4.132-4.43 5.529-7.879 5.529-3.092 0-6.719-1.516-6.719-5.113z"/><path d="M51.085 86.999c8.859-1.605 18.819-11.179 18.819-20.543 0-2.884-1.1-6.6-4.579-6.6-4.132 0-7.135 4.191-8.562 7.61-2.616 6.243-3.983 12.992-5.678 19.533zM24.18 121.188c-3.122-1.189-6.332-2.051-9.722-2.051-1.873 0-5.945.475-5.945 3.15 0 2.705 4.162 3.537 6.154 3.537 3.746 0 7.046-1.961 9.513-4.636zM67.347 104.004c.684.119 1.368.238 2.052.238 4.281 0 9.364-2.23 9.364-7.166 0-1.843-1.308-3.181-3.122-3.181-5.053.001-7.224 6.095-8.294 10.109zM167.119 107.928l1.812-7.076c.18-.654.387-1.307.387-2.021 0-2.348-2.377-3.954-4.549-3.954-2.525 0-4.072 2.051-5.053 4.163-1.219 2.646-2.795 7.551-2.795 10.523 0 2.17 1.309 4.342 3.656 4.342 3.45-.001 5.739-2.885 6.542-5.977z" fill="#fff"/></g></svg>