<svg height="1617" viewBox="2.5 4.3 893.5 574.7" width="2500" xmlns="http://www.w3.org/2000/svg"><g fill="#df2715"><path d="m279.5 5c-6.9 1.2-15.2 3.4-16.1 4.3-.4.4-1.4.7-2.3.7-1.9 0-10.8 4.4-19 9.4-3.2 2-6.2 3.6-6.5 3.6-.4 0-1.2.5-1.9 1-4.6 3.9-6.1 5-6.9 5-1 0-19.8 19-19.8 20.1 0 .4-.6 1.4-1.3 2.1s-2.4 3.1-3.7 5.3-2.6 4.2-2.9 4.5c-1.1 1-9 16.6-11.6 23-1.4 3.6-3 7.4-3.5 8.5s-1.8 5.1-3 9c-1.2 3.8-2.5 7.7-3 8.5-.4.9-1.1 3.5-1.5 5.8s-1.1 4.4-1.6 4.8c-.5.3-.9 1.3-.9 2.3s-.7 4.1-1.4 6.7c-.8 2.7-2.2 7.6-3.1 10.9s-2.2 8-3 10.5c-.7 2.5-1.7 6.2-2 8.2-1.1 5.8-3.3 7.1-10.7 6.5-7.9-.7-19.3-2.5-23.3-3.7-1.6-.5-6.1-1.7-9.9-2.6-7.9-2-7.6-2.2-10.9 7.5-1.9 5.7-1.7 8.1.8 8.1.8 0 2.3.4 3.3.9.9.6 4.4 1.7 7.7 2.6s7.8 2.3 10 3 8.5 2.1 14 3c10.9 1.9 12.9 2.8 11.6 5.4-.5.9-1.1 3.4-1.5 5.6s-1.1 5.3-1.6 7c-.5 1.6-1.7 5.7-2.6 9-2.8 10.3-5.5 18.9-6.5 20.7-.5 1-.9 2.6-.9 3.5 0 1-.7 3.1-1.5 4.6s-1.7 4.3-2.1 6.3c-.3 1.9-1 3.7-1.5 4s-.9 1.3-.9 2.2-.7 3-1.5 4.6c-.8 1.5-1.5 3.3-1.5 3.8 0 .6-.6 2.4-1.4 4.1-.7 1.8-3.5 8.8-6.1 15.6-4.6 11.8-8.6 17.8-10.8 16.4-.6-.3-4-1.2-7.6-2s-9.7-2-13.6-2.9c-7.9-1.6-24.7-4.1-34.6-5-6.9-.7-21.9 1.4-30.9 4.2-12 3.8-20.2 10.1-25.2 19.6-1.9 3.6-2.3 5.7-2.2 13.3.1 8.1.4 9.6 3.4 15 7.9 14.6 22.5 23.2 47.6 28 16.5 3.1 39 .8 59.4-6.2 10-3.4 25.7-11 34.4-16.8 3.8-2.5 7.6-4.5 8.5-4.5 1.6 0 8.9 2.3 12.6 3.9 1.1.5 7 2.6 13 4.6 6.1 2 11.9 4 13 4.5s5.2 1.9 9 3c3.9 1.2 7.9 2.6 9 3 1.1.5 5.4 1.8 9.5 3s8.4 2.5 9.5 3c1.1.4 4 1.3 6.5 2 2.5.6 7 1.8 10 2.6s8 2.1 11 2.8c3 .8 8.2 2.1 11.5 2.9 22.9 5.8 30.1 7.4 37.4 8.8 3 .5 5.9 1.2 6.4 1.6.5.3 4.2 1.2 8.1 1.9s11.4 2.2 16.6 3.3c9.2 1.9 12.7 2.6 31 5.7 22.3 3.8 48.2 6.9 71 8.4 19 1.3 97.9 1.3 124 .1 21.9-1.1 55.9-3.6 62.5-4.6 2.2-.3 9-1 15-1.5 26.1-2.2 74.8-8.8 106.5-14.4 22.6-3.9 27-4.7 34-6.1 4.1-.8 10.7-2.1 14.5-2.9 3.9-.8 10.6-2.2 15-3.1 19.4-4 33.9-7.3 53-11.9 3.3-.8 8.9-2.1 12.5-3 17.3-4.1 17.5-4.2 17.8-6.2.2-1.1-.2-4-.8-6.5-.7-2.4-1.4-5.6-1.7-7.2-.7-3.6-1.3-3.9-6.4-2.7-2.4.5-7.5 1.6-11.4 2.5-6.6 1.5-10.5 2.3-29.5 6.1-16.2 3.2-37.7 6.9-49 8.5-4.1.5-9.7 1.4-12.5 2-2.7.5-8.8 1.4-13.5 1.9s-12.1 1.4-16.5 1.9c-15.1 1.8-33 3.2-54.5 4.1-11.8.5-30.9 1.5-42.5 2.1-28.7 1.6-175.4 1.6-198 0-9.3-.6-24.2-1.6-33-2.1s-19.8-1.4-24.5-2-13-1.5-18.5-2.1c-20-2.2-25.1-2.8-31-3.8-13.9-2.5-19.3-3.4-24.6-4.1-3.1-.4-7.9-1.2-10.5-1.8-2.7-.6-7.6-1.6-10.9-2.3-12.5-2.3-26.6-5.3-39.5-8.4-3.6-.9-9.2-2.2-12.5-2.9-3.3-.8-8.7-2.2-12-3.1s-8-2-10.5-2.6c-2.5-.5-5.3-1.4-6.2-1.9-1-.6-2.6-1-3.5-1-1 0-3.8-.7-6.3-1.5s-7.2-2.2-10.5-3.1c-5.5-1.5-12.6-3.7-23-6.9-2.2-.7-4.1-2-4.3-2.9s1.9-5.4 4.7-10 5.8-9.9 6.6-11.8c.9-1.8 2-4 2.5-4.8s1.9-3.8 3-6.5c1.1-2.8 2.4-5.7 2.9-6.5.5-.9 1.2-3 1.5-4.8.4-1.7 1.2-3.4 1.7-3.7.5-.4.9-1.4.9-2.3s.6-2.9 1.4-4.4 1.7-4.1 2.1-5.9c.4-1.9 1.1-4 1.6-4.9.4-.8 1.8-4.9 2.9-9 1.2-4.1 2.5-8.6 3-10s1.8-5.9 3-10 2.5-8.6 2.9-10c.5-1.4 1.6-5.2 2.5-8.5 3.6-12.3 4.9-14.9 8.1-15.7 1.7-.4 5.7-1.4 9-2.2 9.1-2.2 13.7-3.6 17.2-5.2 1.7-.8 3.5-1.4 4-1.4 1 0 6.1-2.2 9.6-4.1 1-.6 4.8-2.6 8.5-4.6 15.2-8.1 39.6-29.6 47-41.2.9-1.4 1.9-2.8 2.2-3.1.8-.7 10-15.9 10-16.6 0-.6 3.7-9.2 4.9-11.4.5-.9 1.2-3.1 1.6-5s1.1-4.1 1.5-5c2.1-4.3 4-16.5 4-25.8 0-10.6-1.2-16.2-5.3-25.2-2-4.4-17.6-21-19.8-21-.6 0-2.5-.7-4.2-1.5-7.7-3.5-12.7-4.6-23.7-4.9-6.3-.3-13.7-.1-16.5.4zm34.3 29.4c10.3 9.6 12.5 23.3 7.2 44.6-.6 2.5-1.5 4.9-2.1 5.4-.5.6-.9 1.7-.9 2.4 0 1.9-7 16.6-8.1 17-.5.2-.9 1-.9 1.7 0 .8-.6 2-1.2 2.7-.7.7-2.6 3.3-4.3 5.8-3.3 4.9-22.8 25-24.4 25-.5 0-1.6.6-2.3 1.2-2.5 2.3-7.7 5.8-8.7 5.8-.5 0-1.1.4-1.3.8-.5 1.4-17.6 9.6-25 12.1-3.8 1.2-7.3 1.9-7.9 1.5-1.4-.8-.5-6.3 4.4-25.9.9-3.3 2-8.3 2.7-11 .6-2.8 1.5-5.8 2-6.7.6-1 1-2.7 1-3.8s.6-3.7 1.4-5.7c.8-2.1 2.4-7.2 3.7-11.3 1.2-4.1 2.6-7.9 3.1-8.4.4-.6.8-1.6.8-2.4s.6-2.8 1.4-4.5c.7-1.8 2.4-5.7 3.6-8.7 6.9-16.9 12.1-25.1 20.5-32.9 8.5-7.7 12.3-9.2 22.5-8.9 8.4.3 8.6.4 12.8 4.2zm-241.6 278.9c2.4.8 7.7 2.4 11.8 3.6 4.1 1.3 8.4 2.7 9.5 3.1 1.1.5 3.2 1.1 4.8 1.4 4.6 1.1 3.4 3.8-4.7 9.9-2.7 2-5.5 3.7-6.2 3.7s-1.4.4-1.6 1c-.2.5-4.1 2.4-8.8 4.2-7.7 2.8-9.6 3.1-20.5 3.2-13.7.1-18.9-1.6-25.1-7.9-8.2-8.5-1.6-20.4 12.9-23.5 5.5-1.2 22.5-.4 27.9 1.3z"/><path d="m487 103.1c-7.2 1.2-13.1 4.2-18 9-5 5-7 9.7-7 16.6 0 11.4 7 18.5 22.2 22.7 7.2 2.1 14.6 2 23.3-.1 19.5-4.6 28.1-19.6 20-34.7-3.1-5.7-13.2-11.1-25.3-13.5-6-1.2-7.5-1.2-15.2 0zm-159.2 73.4c-.3.3-3.8 1.2-7.9 2-9.6 1.8-15.6 3.4-19.6 5.1-1.7.8-3.5 1.4-4.1 1.4-1.9 0-12.9 6.4-19.8 11.6-7 5.3-11.4 9.6-16.4 16.3-1.4 1.8-3.1 3.9-3.7 4.6-.7.8-1.3 1.6-1.3 2s-1.2 2.7-2.7 5.3c-8 13.5-11.4 34.1-7.7 45.8 5.4 17.1 17.2 30 33.9 37.3 2.8 1.2 5.8 2.6 6.7 3.1 1 .6 2.4 1 3.3 1 .8 0 3.4.7 5.7 1.4 10.9 3.7 40.6 3.7 57.3 0 12.1-2.7 23.3-6 30.2-9 1.7-.8 3.8-1.4 4.6-1.4.9 0 1.8-.4 2.1-.9s1.7-1.2 3-1.5c2.9-.7 13-5.2 24-10.7 4.3-2.1 8.4-3.9 9.2-3.9 1.7 0 2.9 2.4 3.8 7.2.4 2 1 3.8 1.4 4s2 2.2 3.6 4.6c3.6 5.2 8.9 9.5 15.1 12.3 11.3 5 39.8 3.1 55.2-3.7 1.7-.8 3.5-1.4 4.1-1.4 1.8 0 14.8-7.3 25.1-14.1 5.7-3.8 10.9-6.9 11.5-6.9s2.2 1.6 3.5 3.5c4.3 6.4 13.4 13.9 21.6 17.9 10.6 5 10.9 5.2 19 7 17.1 3.9 38.2.6 58.5-9.2 8.2-4 24-14 27-17.2 2.8-2.9 5.1-4.1 6.9-3.5 1.2.3 2.1 1.2 2.1 1.9 0 1.5 6.2 10 9.8 13.4 3.4 3.3 12.1 9.4 16.2 11.4 7.1 3.6 13.4 4.8 24.8 4.8 17.4 0 28.4-3.7 44.1-14.8 4.1-2.8 8-5.2 8.6-5.2.7 0 1.6 1.1 1.9 2.4.3 1.4 3.3 5.1 6.5 8.3 8.3 8.1 13.5 9.8 30.1 9.8 9.5 0 13.9-.5 18.5-1.9 10.7-3.4 19.8-7.7 31.5-15 9.6-5.9 9.5-5.7 6.3-16.8-1.6-5.4-1.7-5.6-4.2-4.7-2.4.9-7.2 3-11.3 5-1 .5-4.5.9-7.7.9-13.7 0-17.8-7.8-12.6-24 .8-2.5 2.1-7 2.9-10 2.5-9.3 4.7-17.3 6.2-22 .7-2.5 2-7 2.8-10 2.4-9 4.7-17.2 6.2-22 .7-2.5 2-6.9 2.9-9.9.9-2.9 1.4-5.5 1.2-5.7s-12.3-.7-27-1l-26.6-.7-1.2 2.9c-.6 1.6-1.5 3.7-2 4.6-.5 1-.9 2.5-.9 3.3 0 3.6-3.1 2.6-7.5-2.3-7-7.8-20.9-13.2-34-13.2-5.8 0-21.4 2.5-25 4-1.1.5-3.1 1.2-4.5 1.5-15 3.9-38.6 21.7-48.2 36.5-8.3 12.8-11.9 21.9-14.3 36.5-1.8 11-1.5 10.6-13.9 19.8-2.8 2-5.5 4.1-6.1 4.5-.5.4-3.9 2.3-7.5 4.1-6.1 3-10.9 4.5-18.9 5.8-4.1.7-16.9-2.3-19.6-4.5-5.5-4.6-9-14.9-8.2-24.4.7-8.2 2.7-20 3.7-21.3.4-.6 1-2.5 1.4-4.4.3-1.9 2.4-7.1 4.6-11.6 5.5-11.4 14.1-19.2 24.7-22.5 3.7-1.1 5-1.1 10.5.5 6 1.7 15.8 7.1 15.8 8.7 0 .5.8.8 1.8.8 1.9 0 2.3-1.2 5.4-14 .6-2.5 1.5-5.1 2-5.8 1.4-1.7-.6-3.9-5.6-6.2-18.4-8.5-43.8-8.8-67.1-.8-3.4 1.2-17.7 8-18.5 8.8-.3.3-2.4 1.8-4.7 3.3-5.8 3.7-17.7 15-22.8 21.7-9.8 12.8-15.5 28.6-15.5 43.2 0 5.4-1.7 7.7-10 13.4-7.8 5.4-20.3 10.4-25.8 10.4-10.1 0-16.4-9.3-13.2-19.4.5-1.7 1.6-5.6 2.4-8.6 2.5-9.2 4.7-17.3 6.2-22 .7-2.5 2-7 2.8-10s2.2-8.1 3.1-11.2c.8-3.2 2.2-8.2 3-11 .8-2.9 2.4-8.6 3.6-12.6 1.5-5.3 1.8-7.7 1-8.5-1.4-1.4-56.1-1.3-58.9.2-1.1.6-2.3 2.6-2.7 4.7-.3 2-1 4.4-1.5 5.3-.8 1.6-2.1 6.1-4.2 15.1-.5 2.5-1.4 4.9-1.9 5.4-.5.6-.9 1.8-.9 2.8 0 .9-.6 3.7-1.3 6-2 6.4-5.7 18.7-6.9 23.3-2.1 8.1-4.2 14-5.6 15.7-1.2 1.5-17.7 11.8-18.8 11.8-.3 0-3.9 1.6-8 3.5s-7.9 3.5-8.4 3.5c-.6 0-1.8.4-2.8.9-1.5.9-11.3 3.9-20.2 6.2-4.8 1.3-16.1 2.9-24.5 3.6-10.8.8-25.6-2.9-31.5-7.9-5.2-4.5-8.1-13.8-6-19.3l1.1-2.8 8.9.6c16.3 1.2 38.2-1.5 52-6.4 5-1.8 13.7-6.6 19.2-10.5 8.8-6.5 12.9-12.6 16.2-24.6 2-7.1 2-8.9-.1-15.7-3.6-11.4-16.2-20.2-34.8-24.5-5-1.1-11.9-1.6-24.1-1.6-9.4 0-17.3.2-17.6.5zm31.8 18.9c3.3 3.3 3.4 3.6 3.4 11.3 0 7-.4 8.6-3.4 14.5-4.5 8.8-10 14-19 17.7-11.5 4.8-29.6 5.6-29.6 1.4 0-4 9.9-28.7 13.1-32.7 5-6.3 10.7-11.9 13.3-13 5-2.3 5.8-2.4 12.5-2.5 5.9-.1 6.5.1 9.7 3.3zm428.4 5.6c2.1 1.1 5.1 3.6 6.7 5.7 2.7 3.5 2.8 4 2.8 15.9 0 8.5-.4 12.7-1.2 13.6-.7.6-1.3 2.1-1.3 3.3 0 1.1-.7 3.3-1.5 4.9-.8 1.5-1.5 3.3-1.5 3.8 0 .6-.6 2.4-1.4 4.1-.7 1.8-2.4 6.3-3.6 10.2-6.7 21-27.3 33.6-39.8 24.5-5.6-4-7.3-8.5-7.5-19-.1-7.8 1.9-19.1 4.3-24.5.5-1.1 1.9-5.2 3.1-9 1.2-3.9 2.6-7.4 3.1-8 .4-.5.8-1.7.8-2.6 0-2.1 9-14.3 12.7-17.3 9-7.4 17.1-9.3 24.3-5.6zm-646.5 246.8c-7.4 2.5-10.6 4.5-15.6 9.9-8.5 9.1-12.9 21.1-18.6 51.3-3.7 19.7-2.6 31.8 3.6 37.2 5.6 5 11.3 6.3 27.6 6.1 13.2-.1 27.4-1.9 29.2-3.7.3-.2 1.1-3.8 1.9-7.8 1.3-7.1 2.3-11.7 5.9-28.3 1-4.4 1.8-9.5 1.9-11.3l.1-3.3h-14.9c-8.2 0-15.2.3-15.6.8-1 1.2-3 8.7-3 11.2 0 1.9.6 2.1 5 2.1 5.9 0 6.8 1.2 5.2 6.8-.6 2-1.8 6.8-2.6 10.7-.9 3.8-2.1 7.4-2.6 7.9-1.3 1.3-11.9 2-16.5 1.2-3.1-.6-4-1.4-5.7-5.4-1.9-4.2-2-5.2-.9-13.1 1.7-12.2 7.1-37.7 9-42.6 4.6-11.7 10.3-17.7 16.9-17.9 7.9-.2 12.7 5.2 12 13.6l-.3 4.3 8.8.3c5.7.2 9.4-.1 10.3-.9 1-.8 1.4-3.4 1.4-8.3 0-5.8-.5-7.9-2.6-11.5-2.9-5.1-5-6.9-11.4-9.3-5.9-2.3-21.4-2.3-28.5 0zm417 13.6c-2.7 1.3-6.9 3.2-9.3 4.2-3.6 1.5-4.4 2.4-5.3 5.9-1.7 6.2-2.3 7-6.1 7.3-3.3.3-3.6.6-4.6 5-1.2 5.6-1 6.2 3 6.2 3 0 3 0 2.5 4.7-.5 4.6-1.9 11.7-5.2 26.8-2.9 13-3.6 18-3.1 20.9 1.3 6.5 7.2 9.6 18.1 9.6h7.3l1.1-5c.6-2.8 1.1-5.3 1.1-5.4 0-.2-1.2-.7-2.7-1.1-1.6-.4-3.4-1.1-4-1.7-1.6-1.3-1.6-7.8-.2-13.3 1.3-5.1 3.7-16.3 5.1-24 .5-3.3 1.7-7.2 2.4-8.8 1.3-2.3 2.1-2.7 5.9-2.7 5 0 6.1-1.2 6.6-7 .4-3.5.4-3.5-4.1-4-5.4-.6-5.9-2-3.6-11.1 1.8-6.7 2-8.9.9-8.8-.5 0-3 1.1-5.8 2.3zm-338.5 17.2c-4.5.9-11.1 4.4-14.1 7.5-3.4 3.5-7.9 10.3-7.9 12 0 .6-.6 2.5-1.4 4.2-2.9 6.8-5.1 19.3-5.1 29.2 0 8.9.3 10.4 2.3 13.3 4 5.5 8.7 7.2 19.9 7.2 11 0 16.4-1.5 22.8-6.4 4.9-3.8 6-5 8.5-10 3.6-7.1 3.2-7.6-6.2-7.6-9.3 0-10.2.4-11.1 4.2-1.1 4.2-6.3 8.8-10 8.8-4.1 0-5-.7-7.2-5-1.6-3.1-1.6-4.1-.5-10 .7-3.6 1.7-7.1 2.3-7.8.7-.9 5.8-1.2 19.4-1.2h18.4l1.6-3.8c1-2.4 1.6-7.2 1.7-13.7.1-8.9-.1-10.3-2.2-13.2-4.5-6.3-7.3-7.5-18.5-7.8-5.6-.2-11.3-.1-12.7.1zm13.6 13.1c2.2 2.3 2.5 3.5 2.1 6.8-.3 2.2-1 5.2-1.6 6.7-1 2.8-1.2 2.8-10 2.8-11.2 0-11.9-1-7.4-10.9 3.8-8.3 11.8-10.8 16.9-5.4zm59.4-13.1c-8.2 1.5-17.5 9-20.9 16.9-6.2 14.3-10.1 40.1-7 46.4 4 8 8.6 10.1 22.6 10.1 9 0 11.1-.3 15.7-2.5 8.2-3.9 14.1-11.5 17.5-22.5 4.3-14.2 4.6-15.8 4.6-27.5 0-10.3-.3-12.4-1.9-14.5-3.5-4.7-8.2-6.3-18.6-6.6-5.2-.1-10.6 0-12 .2zm12.4 12.5c2.2 1.8 2.6 2.8 2.6 7.5 0 2.9-.4 7.3-1 9.6-6.6 28.9-8.7 32.8-17.1 32.8-6.1 0-7.3-2.3-6.6-13.2.5-9.3 1.3-13.4 4.9-26 3.2-11.1 10.7-15.8 17.2-10.7zm56.6-12.5c-1.4.3-3.9 1.2-5.7 2-1.7.8-3.5 1.4-4.1 1.4-.5 0-2.9 2-5.4 4.5-6 6-8.7 14.2-6.4 19.7 2 4.6 6.7 8.5 16.3 13.3 9.9 5 11.8 6.9 11.8 12.1 0 6.7-5.5 11.2-12.1 9.9-3.6-.6-5.5-4.1-5.1-9l.2-3-8.8-.3c-10.1-.3-10.2-.2-10.2 8.8.1 10.6 5.6 14 22.9 14 10.2 0 11.3-.2 17.3-3.2 15.7-7.7 20.4-25.6 9-34.2-1.8-1.3-6.4-4.1-10.4-6.3-3.9-2.1-8.3-4.8-9.7-6-6.1-5.4-.7-15.1 7.7-14 4.4.6 5.8 2 5.6 5.7-.1 1.4-.1 3 0 3.5.1.9 12 1.2 17.2.6 1.5-.2 1.9-5.4.8-9.2-.8-2.6-2.6-5.1-5.1-7-3.6-2.9-4.5-3.1-13.6-3.4-5.3-.2-10.8-.1-12.2.1zm129.5.3c-14.9 2.8-24.4 14.9-21.3 26.9 1.3 5.1 3.9 7.4 15.4 13.2 10.6 5.5 12.4 7.3 12.4 12.6 0 4.3-1.1 6.1-5.7 9.1-2.5 1.6-7.5 1.2-10-.8-.7-.7-1.3-3.1-1.3-5.9v-4.7l-7-.2c-3.9-.1-8.1.1-9.5.5-2.4.6-2.5 1-2.5 7.3.1 7.5 1.9 10.5 7.9 13.5 4.9 2.3 22.5 2.2 29.3-.2 10.6-3.6 17.8-13.1 17.8-23.4 0-5-.4-5.9-3.9-9.9-2.4-2.8-6.6-5.8-11.5-8.2-7.7-3.9-13.6-8.7-13.6-11.2 0-.8.9-3 2.1-4.9 1.5-2.6 3-3.7 5.6-4.2 5.5-1 8.1.7 8.5 5.8l.3 4.2 7.5-.1c4.1-.1 8.3-.2 9.3-.2 2.4-.1 2.3-8-.2-12.2-3.2-5.3-7.5-7.1-17.1-7.5-4.7-.1-10.3.1-12.5.5zm108.4 0c-10 2.1-18.6 10.5-22.2 21.6-4.7 14.5-5.2 17-5.2 29.5 0 11.9.1 12.7 2.5 15.7 4 4.9 8.3 6.3 19.8 6.3 5.6 0 11-.4 12-.9.9-.4 3.9-1.9 6.6-3.2 5-2.5 10.1-7.9 13-13.8 2.8-5.9 2.5-6.1-7.3-6.1h-8.9l-2.2 4.5c-4.2 8.6-11.9 11.2-16 5.4-1.9-2.5-2.2-4.1-1.8-9.3.2-3.7 1.1-7.4 2.1-9l1.8-2.7 18 .1c9.9.1 18.3-.1 18.7-.5 3.2-3.2 4.3-24.8 1.5-29.3-4.4-6.9-7.9-8.5-19.3-8.8-5.2-.2-11.1.1-13.1.5zm12.7 10.9c2.5 1.6 3.6 5.5 3 10.6-1 7.7-1 7.7-11.2 7.4-8.8-.3-8.9-.3-9.2-3-.4-3.5 3.1-11.1 6.4-13.7 2.7-2.1 8.8-2.8 11-1.3zm71.2-11c-1.5.4-3.8 1.7-5.2 2.9-1.5 1.3-3.5 2.3-4.6 2.3-1.7 0-1.9-.5-1.4-2.5l.6-2.5h-18.9l-1.2 5.2c-.6 2.9-1.8 8.4-2.6 12.3-1.4 6.7-3.1 14.6-6.1 28.5-.8 3.6-1.8 8.9-2.4 11.9-.5 3-1.4 6.9-2.1 8.8-1.8 5.5-1.2 5.8 8.9 5.5l9.1-.3.6-3.2c.3-1.8 1-5 1.5-7.2s1.6-7.6 2.5-12 2.3-10.7 3-14c.8-3.3 1.7-7.8 2.1-10 1.4-9.9 5.6-15.5 11.4-15.5 6.4 0 8.5 5.3 6.1 14.9-1.1 4.3-2.8 12-4.7 21.6-1.8 8.9-4.1 19.2-5 22.8l-.6 2.8 9.3-.3 9.3-.3 1.3-6c.8-3.3 2-9.2 2.8-13 .8-3.9 2.1-10.2 3-14 .8-3.9 2-9.5 2.5-12.5 2.2-11.2 5.8-16 12.1-16 3 0 4.2.6 5.5 2.5 1.8 2.7 1.7 4-1 17-4 19.2-4.7 22.5-6.2 29.5-1.9 8.4-2.3 12.9-1.1 13 9.9.3 16.8-.2 17.1-1.3.3-.6 1.2-4.8 2.1-9.2s2.1-10 2.7-12.5 1.6-7.4 2.3-11c.8-3.6 2.1-10.1 3-14.5 2.8-13.4 2.9-14.6 1-18.1-2.6-4.9-7.4-6.7-15.6-6.2-5.4.4-7.6 1.1-11.3 3.7-5.9 3.9-7.9 3.9-11.5-.1-2.6-2.9-3.4-3.2-9.2-3.4-3.5-.2-7.6 0-9.1.4zm91.7-.2c-4.8.7-15.5 6.6-17.8 9.9-3.9 5.3-4.7 7.6-4.7 13.1 0 5.1.3 5.7 4.3 9.7 2.3 2.3 7.7 5.9 11.9 8 8.5 4.2 12.8 8.4 12.8 12.5-.1 5.4-6.9 10.8-12.3 9.8-3.8-.7-5.5-3.2-5.9-8.6l-.3-3.5h-16.9l-.8 3.5c-1.7 7.9 1.4 14.8 7.9 17.5 4 1.7 24.2 2.1 27.1.6.9-.5 3.7-1.9 6.2-3.1 9.5-4.6 14.9-14.3 13.5-23.8-.9-5.9-5.1-10.2-15.8-15.7-9.7-5-12.7-7.7-12.7-11.5 0-6.6 9.5-11.6 14.1-7.4 1.6 1.4 2 2.7 1.6 5.1-.3 1.8-.2 3.3.4 3.4.5 0 4.6.1 9.2.2l8.2.1.3-4.5c.4-6.2-1-9.4-5.7-12.5-3.5-2.3-5.3-2.7-12.8-2.9-4.9-.2-10.1-.1-11.8.1zm-368 18.6c.3 10.1 1 22.3 1.5 27.3.6 4.9 1.1 13.7 1.2 19.5.2 9.8 0 10.8-2.5 14.7-1.5 2.4-2.7 4.6-2.7 4.9 0 .9-4.4 9.8-5.1 10.4-.4.3-.9 1.5-1.3 2.7-.7 2.3-.6 2.3 9.1 2.3l9.8-.1 1.9-4.2c1.7-3.8 32.9-67.4 42.7-87.1 2.1-4.3 3.9-8 3.9-8.2s-4.1-.4-9-.4c-9 0-9.1 0-10 2.7-1 2.7-1.7 4.4-4.5 10.8-.8 1.6-2.1 4.8-3 7s-2.3 5.3-3.1 6.8c-.8 1.6-1.4 3.3-1.4 3.8s-1.5 4.1-3.3 8.1c-1.9 4-3.7 8.2-4.1 9.2-.5 1.5-.9 1.7-1.9.7-.9-.9-1.1-7.3-.9-25.2l.4-23.9h-18.4z"/></g></svg>