<svg xmlns="http://www.w3.org/2000/svg" width="1580" height="2500" viewBox="0 0 270.365 427.85"><path fill="#787f87" d="M33.755 309.033h34.259v86.922h50.893v29.012H33.755V309.033M207.615 413.416c-6.072 9.215-17.282 14.434-31.276 14.434-30.116 0-49.742-24-49.742-61.052 0-37.591 22.061-60.755 58.616-60.755 14.57 0 27.021 3.906 36.648 11.254 9.709 7.697 13.312 15.261 14.874 30.549h-35.821c-.979-8.946-7.67-14.668-16.473-14.668-13.853 0-21.953 12.8-21.953 34.088 0 21.594 8.416 34.556 22.563 34.556 11.138 0 17.587-6.189 20.236-20.049h-22.104v-24.404h53.552v67.6h-29.12v-11.553"/><path d="M135.094 270.419c74.73 0 135.271-60.495 135.271-135.209S209.824 0 135.094 0C60.531 0 0 60.496 0 135.209c0 74.715 60.531 135.21 135.094 135.21" fill="#922c60"/><path fill="#fff" d="M129.793 75.873v118.529h37.689v-10.59H140.59V75.873h-10.797M91.996 108.209c8.946 0 16.24-7.249 16.24-16.159 0-8.991-7.293-16.24-16.24-16.24-8.9 0-16.194 7.249-16.194 16.24 0 8.91 7.293 16.159 16.194 16.159"/><path d="M140.59 22.051c-1.409-.054-4.132-.072-5.496-.072-62.319 0-113.068 50.759-113.068 113.194 0 30.252 11.785 58.654 33.145 80.049 21.343 21.396 49.788 33.137 79.925 33.137 30.322 0 58.762-11.739 80.12-33.137 21.352-21.395 33.137-49.806 33.137-80.049v-5.138l-4.446.018h-76.349v10.473h70.033c-.009.243-.026 1.348-.045 1.572-3.593 53.354-48.107 95.724-102.405 95.724-27.343 0-53.104-10.716-72.541-30.126-19.35-19.303-30.03-45.126-30.03-72.531 0-27.414 10.68-53.229 30.028-72.541 19.438-19.348 45.198-30.045 72.541-30.045 1.193 0 4.158.009 5.452.036V22.051" fill="#fff"/></svg>