<svg height="1096" width="2500" xmlns="http://www.w3.org/2000/svg" viewBox="0 0 176.13199999999998 77.239"><path d="M38.65 77.239c21.328 0 38.65-17.271 38.65-38.611C77.3 17.287 59.978 0 38.65 0 17.289 0 0 17.287 0 38.628c0 21.34 17.289 38.611 38.65 38.611" fill="#a50034"/><g fill="#fff"><path d="M37.095 21.676v33.887h10.773v-3.047H40.2v-30.84zM26.308 30.922a4.632 4.632 0 0 0 4.629-4.629c0-2.547-2.066-4.639-4.629-4.639s-4.629 2.092-4.629 4.639 2.066 4.629 4.629 4.629"/><path d="M40.199 6.304a41.776 41.776 0 0 0-1.539-.045c-17.84 0-32.359 14.524-32.359 32.353 0 8.66 3.365 16.777 9.46 22.881 6.12 6.09 14.241 9.455 22.899 9.455 8.625 0 16.744-3.365 22.853-9.455 6.11-6.104 9.491-14.221 9.491-22.881v-1.439H47.898v2.978h20.024c0 .065 0 .381-.014.463C66.89 55.856 54.16 67.928 38.66 67.928c-7.846 0-15.203-3.051-20.74-8.592-5.555-5.518-8.616-12.869-8.616-20.725 0-7.811 3.061-15.2 8.616-20.735 5.537-5.53 12.894-8.581 20.74-8.581.338 0 1.16 0 1.539.02z"/></g><path d="M106.367 13.002H94.753V63.28h35.672v-9.787h-24.058zm49.607 31.118h9.459v8.791c-1.744.664-5.145 1.326-8.381 1.326-10.453 0-13.935-5.309-13.935-16.092 0-10.283 3.316-16.346 13.769-16.346 5.809 0 9.127 1.826 11.861 5.311l7.221-6.639c-4.398-6.3-12.115-8.208-19.33-8.208-16.264 0-24.807 8.876-24.807 25.798 0 16.84 7.715 25.965 24.725 25.965 7.797 0 15.43-1.99 19.576-4.893v-24.39h-20.158z" fill="#6b6b6b"/></svg>