<svg xmlns="http://www.w3.org/2000/svg" width="2500" height="2500" viewBox="0 0 192.756 192.756"><g fill-rule="evenodd" clip-rule="evenodd"><path fill="#fff" d="M0 0h192.756v192.756H0V0z"/><path d="M59.467 39.781c-31.312 0-56.633 25.392-56.633 56.633 0 31.24 25.321 56.561 56.633 56.561 31.241 0 56.56-25.32 56.56-56.561s-25.319-56.633-56.56-56.633zM38.64 68.882c3.709 0 6.776 3.067 6.776 6.775 0 3.78-3.067 6.848-6.776 6.848a6.85 6.85 0 0 1-6.847-6.848c0-3.708 3.067-6.775 6.847-6.775zm26.676 54.778h-7.988V70.309h5.278v48.002h10.698v5.35h-7.988v-.001zm0 16.904c20.042-2.639 35.877-18.688 38.301-38.801H73.304v-5.564h35.163c0 25.035-18.829 45.934-43.151 48.93-1.926.215-3.923.285-5.849.285-7.489 0-14.551-1.641-20.827-4.564-16.69-7.846-28.316-24.822-28.316-44.436 0-19.615 11.626-36.59 28.316-44.436 5.991-2.782 12.696-4.422 19.757-4.636v4.565a43.95 43.95 0 0 0-19.757 5.135c-14.122 7.489-23.751 22.325-23.751 39.372s9.629 31.883 23.751 39.371c6.206 3.281 13.267 5.135 20.827 5.135 1.926 0 3.923-.143 5.849-.356zM119.809 117.598V78.796h12.768v29.743h17.475v9.059h-30.243zm70.113.142h-8.273l-.43-3.852c-2.139 2.496-5.635 4.777-11.768 4.777-9.914 0-18.83-6.418-18.83-19.971 0-12.41 7.775-20.897 20.398-20.897 9.344 0 16.834 4.85 18.402 14.408h-12.125c-.928-3.21-3.209-4.922-6.562-4.922-4.992 0-7.346 4.565-7.346 11.341 0 5.492 1.711 10.557 8.131 10.557 2.568 0 5.92-1.783 6.562-4.494h-5.635v-8.346h17.475v21.399h.001z"/></g></svg>