<svg height="1222" width="2500" xmlns="http://www.w3.org/2000/svg" viewBox="0 0 268.23599999999993 131.381"><linearGradient id="a" gradientUnits="userSpaceOnUse" x1="47.901" x2="47.901" y1="2.557" y2="101.558"><stop offset=".06" stop-color="#e3838d"/><stop offset=".385" stop-color="#ce3d61"/><stop offset=".632" stop-color="#b50a3e"/></linearGradient><linearGradient id="b" gradientUnits="userSpaceOnUse" x1="54.219" x2="54.219" y1="8.386" y2="100.904"><stop offset=".082" stop-color="#fff"/><stop offset=".35" stop-color="#fcfcfc"/><stop offset=".527" stop-color="#f3f3f3"/><stop offset=".679" stop-color="#e4e4e4"/><stop offset=".815" stop-color="#cfcfcf"/><stop offset=".941" stop-color="#b4b4b4"/><stop offset=".945" stop-color="#b3b3b3"/></linearGradient><circle cx="54.539" cy="54.539" fill="#b50a3e" r="54.539"/><path d="M93.317 52.057c0 27.338-21.886 49.5-46.417 49.5S2.484 79.395 2.484 52.057s24.969-49.5 49.5-49.5 41.333 22.162 41.333 49.5z" fill="url(#a)"/><path d="M67.728 52.705v5h28.504c-.622 10.402-5.089 19.75-12.011 26.676-7.473 7.471-17.774 12.082-29.174 12.082-11.402 0-21.701-4.611-29.176-12.082-7.469-7.477-12.083-17.775-12.083-29.175 0-11.402 4.615-21.701 12.083-29.176 7.475-7.471 17.774-12.083 29.176-12.083l2.262-.002V8.946h-2.262c-25.549.003-46.258 20.71-46.26 46.261.002 25.55 20.711 46.257 46.26 46.259 25.549-.002 46.258-20.709 46.26-46.259v-2.501H67.728zM30.712 37.916a6.831 6.831 0 1 0 13.662 0 6.831 6.831 0 0 0-13.662 0zm21.62-6.658v48.193h15.522v-5H57.332l.002-43.193z" fill="#4d4d4d" opacity=".8"/><path d="M66.9 52.145v5h28.504c-.622 10.401-5.089 19.749-12.011 26.675-7.473 7.471-17.774 12.083-29.174 12.083-11.402 0-21.701-4.612-29.176-12.083-7.468-7.476-12.083-17.775-12.083-29.174 0-11.402 4.615-21.701 12.083-29.176 7.475-7.471 17.774-12.083 29.176-12.083l2.262-.002V8.386h-2.262c-25.549.002-46.258 20.709-46.26 46.26.002 25.549 20.711 46.256 46.26 46.258 25.549-.002 46.258-20.709 46.26-46.258v-2.501zm-37.015-14.79a6.831 6.831 0 1 0 13.662 0 6.831 6.831 0 0 0-13.662 0zm21.619-6.657v48.193h15.522V73.89H56.504l.002-43.192z" fill="url(#b)"/><g fill="#6e6e70"><path d="M247.134 84.058c-8.385 4.659-17.59 6.424-27.069 6.424-24.871 0-34.815-14.076-34.815-36.112s10.693-36.367 34.815-36.367c10.208 0 19.582 2.373 27.199 11.488l-10.239 9.365c-3.871-5.245-9.76-7.742-16.96-7.742-14.257 0-19.127 10.442-19.127 23.256s3.496 22.571 19.127 22.571c6.198 0 9.696-.695 12.34-2.248V62.405h-13.111V49.719h27.841v34.339zM133.234 19.557v70h49.667v-14h-33.333V19.592zM133.539 130.944v-21.001h3.243v18.14h8.786v2.861zM147.927 113.449v-3.186h3.242v3.186zm.09 17.495V115.99h3.062v14.954zM158.586 118.556v12.388h-3.062v-12.388h-1.742v-2.301h1.742v-2.301c0-2.153 1.321-4.159 4.174-4.159h3.578v2.566h-3.008c-1.141 0-1.682.649-1.682 1.74v2.153h4.814v2.301h-4.814zM168.1 124.337c0 2.565 1.381 4.188 3.874 4.188 1.712 0 2.612-.472 3.693-1.533l1.952 1.799c-1.562 1.534-3.033 2.33-5.706 2.33-3.813 0-6.847-1.976-6.847-7.669 0-4.837 2.553-7.639 6.457-7.639 4.084 0 6.456 2.949 6.456 7.196v1.328zm6.425-4.129c-.48-1.121-1.561-1.888-3.002-1.888s-2.553.767-3.033 1.888c-.301.679-.36 1.121-.391 2.035h6.847c-.03-.914-.12-1.357-.421-2.035zM189.007 131.121c-2.493 0-4.595-.413-6.396-2.153l2.012-1.976c1.231 1.238 2.883 1.563 4.385 1.563 1.861 0 3.333-.649 3.333-2.065 0-1.003-.57-1.651-2.042-1.77l-2.433-.206c-2.853-.236-4.504-1.505-4.504-4.13 0-2.92 2.553-4.571 5.735-4.571 2.282 0 4.234.472 5.646 1.681l-1.922 1.918c-.961-.797-2.312-1.092-3.754-1.092-1.832 0-2.763.797-2.763 1.917 0 .885.48 1.563 2.103 1.711l2.402.206c2.853.236 4.534 1.563 4.534 4.219 0 3.126-2.702 4.748-6.336 4.748zM219.031 113.848c-3.037-1.556-6.298-1.221-6.298-1.221-1.432.109-2.402.501-3.152 1.298-1.052 1.121-1.292 2.301-1.292 6.519s.24 5.427 1.292 6.548c.75.796 1.892 1.269 3.152 1.269 0 0 2.735.202 4.564-.49v-5.469h-4.564v-2.713h7.808v3.215l-.048 7.519c-4.027 1.058-7.63.806-7.76.799-2.136-.106-4.144-.796-5.615-2.241-2.102-2.064-2.072-4.395-2.072-8.436s-.029-6.371 2.072-8.436c1.472-1.445 3.333-2.242 5.615-2.242 0 0 4.471-.388 8.101 1.859zM235.45 129.351c-.991 1.003-2.492 1.77-4.564 1.77s-3.543-.767-4.534-1.77c-1.441-1.475-1.802-3.362-1.802-5.899 0-2.507.36-4.395 1.802-5.869.991-1.003 2.462-1.77 4.534-1.77s3.573.767 4.564 1.77c1.441 1.475 1.802 3.362 1.802 5.869 0 2.537-.36 4.424-1.802 5.899zm-2.312-9.999c-.57-.561-1.352-.855-2.252-.855s-1.651.295-2.223.855c-.931.914-1.051 2.478-1.051 4.1 0 1.623.12 3.186 1.051 4.101.571.561 1.322.885 2.223.885s1.682-.324 2.252-.885c.932-.915 1.051-2.478 1.051-4.101-.001-1.622-.12-3.186-1.051-4.1zM251.086 129.351c-.991 1.003-2.492 1.77-4.564 1.77s-3.544-.767-4.534-1.77c-1.441-1.475-1.802-3.362-1.802-5.899 0-2.507.36-4.395 1.802-5.869.99-1.003 2.462-1.77 4.534-1.77s3.573.767 4.564 1.77c1.441 1.475 1.802 3.362 1.802 5.869 0 2.537-.361 4.424-1.802 5.899zm-2.313-9.999c-.57-.561-1.351-.855-2.252-.855s-1.651.295-2.222.855c-.932.914-1.052 2.478-1.052 4.1 0 1.623.12 3.186 1.052 4.101.57.561 1.32.885 2.222.885s1.682-.324 2.252-.885c.931-.915 1.052-2.478 1.052-4.101 0-1.622-.121-3.186-1.052-4.1zM265.234 130.944v-1.593c-1.141 1.356-2.372 1.77-4.023 1.77-1.532 0-2.883-.501-3.725-1.327-1.531-1.504-1.711-4.07-1.711-6.342 0-2.271.18-4.808 1.711-6.312.842-.826 2.162-1.327 3.694-1.327 1.621 0 2.883.383 3.993 1.681v-7.551h3.063v21.001zm-3.213-12.447c-2.763 0-3.184 2.301-3.184 4.955 0 2.655.421 4.985 3.184 4.985s3.152-2.33 3.152-4.985c.001-2.655-.389-4.955-3.152-4.955zM182.197 112.376v-2.665h-2.855v2.665s.102 2.075-.786 3.554l1.655 1.541c2.047-1.407 1.986-5.095 1.986-5.095z"/></g></svg>