<svg xmlns="http://www.w3.org/2000/svg" viewBox="0 0.4765620231628418 48 19.046836853027344"><g xmlns="http://www.w3.org/2000/svg" clip-path="url(#clip0_1704_33944)"><path d="M48 19.5234H33.2686L28.4932 10.6875H43.2021L48 19.5234ZM13.6729 0.546875C13.8532 0.867454 17.0737 6.84186 17.2539 7.13965C17.7719 8.07793 18.2678 8.90182 19.1689 9.61133C20.2501 10.5496 22.007 10.7099 23.6963 10.71H26.6475L31.4229 19.5225H19.2588C17.7047 19.5225 16.1732 19.4766 14.6641 19.1104C13.1322 18.7212 11.8261 18.1031 10.5869 17.165C7.99658 15.2882 6.57738 12.7243 5.09082 9.97754C3.3789 6.86451 1.68935 3.68302 0 0.546875H13.6729ZM37.6846 0.476562L42.46 9.2666H27.7061L22.9531 0.476562H37.6846Z" fill="black" fill-opacity="0.9"/></g></svg>