<svg width="130" height="20" viewBox="0 0 130 20" fill="none" xmlns="http://www.w3.org/2000/svg">
<path fill-rule="evenodd" clip-rule="evenodd" d="M42.4584 9.76918L37.683 1H22.952L27.7049 9.76918H42.4584ZM19.1685 10.1123C20.2497 11.0485 22.0065 11.2085 23.6958 11.2085H26.6465L31.4217 20.0005H19.2583C17.7042 20.0005 16.1725 19.9549 14.6634 19.5896C13.1316 19.2013 11.8254 18.5844 10.5863 17.6484C7.99599 15.7759 6.57699 13.2181 5.09046 10.4777C3.87646 8.27519 2.6738 6.03835 1.47445 3.80765L1.47441 3.80758C0.982572 2.89279 0.491286 1.97903 0 1.0691H13.6724C13.7399 1.18894 14.2349 2.1017 14.8369 3.21162C15.8404 5.06204 17.1411 7.46046 17.2537 7.64617C17.7717 8.58232 18.2674 9.40443 19.1685 10.1123ZM33.269 20L28.4936 11.1851H43.202L48 20H33.269ZM67.6851 4.1211C68.0491 4.48561 68.4889 4.66787 69.0045 4.66787C69.505 4.66787 69.9373 4.48561 70.3012 4.1211C70.6501 3.77178 70.8245 3.33893 70.8245 2.82254C70.8245 2.32134 70.6501 1.89608 70.3012 1.54676C69.9373 1.18225 69.505 1 69.0045 1C68.5041 1 68.0642 1.18225 67.6851 1.54676C67.3211 1.89608 67.1391 2.32134 67.1391 2.82254C67.1391 3.32374 67.3211 3.75659 67.6851 4.1211ZM67.5486 6.51319V19.7494H70.415V6.51319H67.5486ZM65.1471 19.7494V16.8789H57.0029V1.86571H54V19.7494H65.1471ZM94.2699 19.7494H91.085L89.6063 15.2614H82.8497L81.3938 19.7494H78.2089L84.6242 1.86571H87.8318L94.2699 19.7494ZM86.1256 5.07794L83.7142 12.5504H88.719L86.2849 5.07794H86.1256ZM106.771 19.7494V6.51319H103.905V14.0312C103.859 16.2486 102.843 17.3649 100.856 17.3801C99.9916 17.3801 99.3774 17.1447 99.0134 16.6739C98.6494 16.203 98.4675 15.3981 98.4675 14.259V6.51319H95.6238V14.783C95.6238 16.5296 96.0333 17.8433 96.8523 18.7242C97.6409 19.5747 98.7859 20 100.287 20C101.228 20 102.039 19.7646 102.722 19.2938C103.268 18.9141 103.7 18.3901 104.018 17.7218H104.178L104.314 19.7494H106.771ZM116.173 17.3118V19.8405C115.612 19.9468 115.028 20 114.422 20C113.072 20 112.094 19.7038 111.487 19.1115C110.88 18.5192 110.577 17.532 110.577 16.1499V9.08753H108.598V6.51319H110.577V3.07314H113.421V6.51319H116.173V9.08753H113.421V16.0815C113.421 16.5524 113.481 16.8789 113.603 17.0612C113.724 17.2282 113.936 17.3269 114.24 17.3573C114.846 17.4029 115.491 17.3877 116.173 17.3118ZM119.467 18.0863C120.589 19.3621 122.061 20 123.88 20C125.7 20 127.179 19.3621 128.317 18.0863C129.439 16.8257 130 15.1627 130 13.0971C130 11.0771 129.439 9.43685 128.317 8.17626C127.179 6.90048 125.7 6.26259 123.88 6.26259C122.061 6.26259 120.589 6.90048 119.467 8.17626C118.36 9.43685 117.806 11.0771 117.806 13.0971C117.806 15.1627 118.36 16.8257 119.467 18.0863ZM126.201 16.1954C125.64 16.9245 124.866 17.289 123.88 17.289C122.895 17.289 122.129 16.9245 121.583 16.1954C121.022 15.4512 120.741 14.4185 120.741 13.0971C120.741 11.791 121.014 10.781 121.56 10.0671C122.121 9.33813 122.895 8.97362 123.88 8.97362C124.881 8.97362 125.662 9.33813 126.224 10.0671C126.785 10.7962 127.065 11.8062 127.065 13.0971C127.065 14.4185 126.777 15.4512 126.201 16.1954Z" fill="black"/>
</svg>
