<?xml version="1.0" encoding="utf-8"?>
<!-- Generator: Adobe Illustrator 25.3.1, SVG Export Plug-In . SVG Version: 6.00 Build 0)  -->
<svg version="1.1" id="Layer_1" xmlns="http://www.w3.org/2000/svg" xmlns:xlink="http://www.w3.org/1999/xlink" x="0px" y="0px"
	 viewBox="0 0 159.9 43.5" style="enable-background:new 0 0 159.9 43.5;" xml:space="preserve">
<style type="text/css">
	.st0{fill:#14AE5C;}
</style>
<path class="st0" d="M41.8,36.4h10.1v-3h-6.3V23.1h-3.8V36.4z M55.1,25c1.1,0.1,2.1-0.7,2.2-1.8c0-0.1,0-0.1,0-0.2
	c0-1.1-1-1.9-2-1.9c-0.1,0-0.1,0-0.2,0C54,21,53,21.8,52.9,22.9c0,0,0,0.1,0,0.1c0,1.1,1,2,2.1,1.9C55,25,55,25,55.1,25z M53.2,36.4
	h3.6V26.1h-3.6V36.4z M72.6,25.9c-1.4,0-2.7,0.6-3.6,1.6c-0.8-1.1-2-1.7-3.3-1.6c-1.2,0-2.3,0.4-3.1,1.3v-1.1h-3.4v10.3h3.6v-5.1
	c0-1.6,0.8-2.3,1.8-2.3c1,0,1.6,0.6,1.6,2.1v5.3h3.6v-5.1c0-1.6,0.8-2.3,1.8-2.3c0.9,0,1.6,0.6,1.6,2.1v5.3h3.6v-5.9
	C76.8,27.3,75,25.9,72.6,25.9z M89.7,31.3c0.1-2.8-2.1-5.2-5-5.3c-0.2,0-0.4,0-0.5,0c-3.2,0-5.7,2.2-5.7,5.3c0,3.1,2.4,5.3,6,5.3
	c1.6,0.1,3.2-0.5,4.4-1.7l-1.9-2c-0.6,0.6-1.5,0.9-2.4,0.9c-1.1,0.1-2.2-0.6-2.5-1.7h7.5C89.7,31.9,89.7,31.5,89.7,31.3z M84.2,28.5
	c1.1,0,2,0.7,2.1,1.8h-4.2C82.3,29.2,83.2,28.5,84.2,28.5z M96.2,36.7c4,0,5.9-2,5.9-4.3c0-4.9-7.5-3.4-7.5-5.4
	c0-0.7,0.6-1.2,2.1-1.2c1.3,0,2.6,0.4,3.7,1l1.2-2.8c-1.5-0.8-3.1-1.2-4.8-1.2c-4,0-5.9,1.9-5.9,4.3c0,4.9,7.6,3.4,7.6,5.5
	c0,0.6-0.6,1.1-2.2,1.1c-1.6,0-3.1-0.5-4.4-1.3l-1.2,2.8C92.3,36.2,94.3,36.7,96.2,36.7z M110.9,26.1v5c0,1.7-0.9,2.4-1.9,2.4
	c-1.1,0-1.7-0.6-1.7-2.2v-5.2h-3.6v5.8c0,3.3,1.8,4.7,4.4,4.7c1.2,0,2.3-0.4,3.1-1.3v1.1h3.4V26.1H110.9z M120.3,27.3v-1.2h-3.4
	v10.3h3.6v-4.7c-0.2-1.2,0.7-2.4,1.9-2.5c0.2,0,0.4,0,0.6,0c0.3,0,0.5,0,0.8,0.1v-3.2C122.4,25.8,121.2,26.4,120.3,27.3L120.3,27.3z
	 M133,26.1l-2.6,6.3l-2.5-6.3h-3.7l4.2,10.3h3.7l4.3-10.3H133z M147.6,31.3c0.1-2.8-2.1-5.2-5-5.3c-0.2,0-0.4,0-0.5,0
	c-3.2,0-5.7,2.2-5.7,5.3c0,3.1,2.4,5.3,6,5.3c1.6,0.1,3.2-0.5,4.4-1.7l-1.9-2c-0.6,0.6-1.5,0.9-2.4,0.9c-1.1,0.1-2.2-0.6-2.5-1.7
	h7.5C147.5,31.9,147.6,31.5,147.6,31.3z M142.1,28.5c1.1,0,2,0.7,2.1,1.8H140C140.1,29.2,141,28.5,142.1,28.5z M156.5,26.1l-2.5,6.3
	l-2.5-6.3h-3.7l4.4,10.4c-0.2,0.6-0.8,0.9-1.4,0.9c-0.6,0-1.2-0.2-1.6-0.6l-1.3,2.5c0.9,0.6,1.9,0.9,3,0.9c2,0,3.6-0.8,4.6-3.4
	l4.5-10.7H156.5z"/>
<path class="st0" d="M5.4,4.2c1.3,0,2.6,0.3,3.9,0.7c1.2,0.4,2.4,1,3.6,1.6c1.1,0.6,2.2,1.3,3.3,2.1c0.5,0.4,1,0.8,1.5,1.2
	c0.3,0.2,0.5,0.4,0.7,0.6c0.1,0.1,0.2,0.2,0.4,0.3L19,11l0.2,0.2l-3.6,0l0.3-0.4l0.3-0.3c0.2-0.2,0.4-0.4,0.6-0.6
	C17.2,9.4,17.6,9,18,8.6c0.4-0.4,0.9-0.8,1.3-1.1c0.2-0.2,0.5-0.4,0.7-0.5l0.3-0.3l0.3-0.3c0.9-0.7,1.9-1.3,2.9-1.9s2-1.1,3.1-1.6
	c2.1-1,4.3-1.7,6.5-2.2c1.1-0.2,2.3-0.4,3.4-0.5C37.7,0,38.9,0,40,0.1c-0.5,0.3-1,0.6-1.5,0.9c-0.2,0.1-0.5,0.3-0.7,0.4
	c-0.1,0.1-0.2,0.1-0.4,0.2l-0.4,0.2c-0.9,0.6-1.9,1.1-2.8,1.7C32.5,4.7,30.8,5.8,29,7s-3.4,2.4-5.1,3.6c-0.4,0.3-0.8,0.6-1.2,0.9
	s-0.8,0.6-1.2,1s-0.8,0.7-1.2,1c-0.2,0.2-0.4,0.3-0.6,0.5l-0.5,0.5L17,16.4l-1.4-1.9c0,0-0.1-0.1-0.1-0.1l-0.1-0.2L15,13.9l-0.6-0.7
	c-0.4-0.5-0.8-0.9-1.2-1.3c-0.8-0.9-1.6-1.8-2.4-2.7S9.2,7.4,8.3,6.6C7.4,5.7,6.4,4.9,5.4,4.2z"/>
<g transform="translate(0 11.509)">
	<path class="st0" d="M17.5,25.1c-4,0-7.7-2.3-9.5-5.9l-6.3,2.7c3.9,8.3,13.6,12.2,22.2,8.9l-2.7-6.3C20,24.9,18.8,25.1,17.5,25.1z"
		/>
	<path class="st0" d="M6.9,14.4c0-3.7,2-7.2,5.1-9.1L7.6,0C1,4.5-1.7,13,1.1,20.5l6.4-2.7C7.1,16.7,6.9,15.5,6.9,14.4z"/>
	<path class="st0" d="M28.1,0.4l-6,4.4c2,1,3.7,2.6,4.7,4.5l6.3-2.7C32,4.2,30.3,2.1,28.1,0.4z"/>
	<path class="st0" d="M35.1,14.4c0-2.2-0.4-4.4-1.2-6.4l-6.3,2.7c1.8,5-0.3,10.6-5,13.1l2.7,6.3C31.3,27.2,35.1,21.1,35.1,14.4z"/>
</g>
</svg>
