<?xml version="1.0" encoding="UTF-8" standalone="no"?>
<!DOCTYPE svg PUBLIC "-//W3C//DTD SVG 1.1//EN" "http://www.w3.org/Graphics/SVG/1.1/DTD/svg11.dtd">
<svg width="100%" height="100%" viewBox="0 0 4342 2605" version="1.1" xmlns="http://www.w3.org/2000/svg" xmlns:xlink="http://www.w3.org/1999/xlink" xml:space="preserve" xmlns:serif="http://www.serif.com/" style="fill-rule:evenodd;clip-rule:evenodd;stroke-linejoin:round;stroke-miterlimit:2;">
    <g transform="matrix(4.16667,0,0,4.16667,0,0)">
        <g transform="matrix(1.21951,0,0,1.21951,-16.7146,-216.001)">
            <g>
                <g transform="matrix(10.0138,0,0,10.0138,316.605,347.072)">
                    <path d="M7.02,13.64L1.33,13.64L1.33,3.63L3.38,3.63L3.38,12.3L7.27,12.3L7.02,13.64ZM12.11,13.78C11.51,13.78 10.987,13.683 10.54,13.49C10.087,13.303 9.71,13.047 9.41,12.72C9.11,12.393 8.883,12.013 8.73,11.58C8.577,11.153 8.5,10.7 8.5,10.22C8.5,9.667 8.597,9.15 8.79,8.67C8.99,8.19 9.27,7.77 9.63,7.41C9.99,7.057 10.423,6.777 10.93,6.57C11.43,6.363 11.987,6.26 12.6,6.26C13.193,6.26 13.713,6.357 14.16,6.55C14.613,6.743 14.993,7 15.3,7.32C15.607,7.647 15.837,8.027 15.99,8.46C16.143,8.893 16.22,9.353 16.22,9.84C16.22,10.4 16.12,10.92 15.92,11.4C15.713,11.88 15.43,12.297 15.07,12.65C14.71,13.003 14.277,13.28 13.77,13.48C13.27,13.68 12.717,13.78 12.11,13.78ZM12.4,12.46C12.653,12.46 12.883,12.407 13.09,12.3C13.303,12.193 13.487,12.04 13.64,11.84C13.8,11.64 13.92,11.397 14,11.11C14.087,10.823 14.13,10.497 14.13,10.13C14.13,9.783 14.09,9.457 14.01,9.15C13.923,8.837 13.803,8.567 13.65,8.34C13.497,8.107 13.307,7.923 13.08,7.79C12.853,7.657 12.597,7.59 12.31,7.59C12.05,7.59 11.813,7.643 11.6,7.75C11.393,7.863 11.213,8.02 11.06,8.22C10.907,8.427 10.79,8.677 10.71,8.97C10.623,9.257 10.58,9.577 10.58,9.93C10.58,10.29 10.623,10.623 10.71,10.93C10.79,11.243 10.91,11.51 11.07,11.73C11.23,11.957 11.42,12.133 11.64,12.26C11.867,12.393 12.12,12.46 12.4,12.46ZM21.64,14.23L20.03,14.23C19.937,14.283 19.843,14.347 19.75,14.42C19.657,14.487 19.57,14.56 19.49,14.64C19.41,14.727 19.343,14.817 19.29,14.91C19.237,15.003 19.21,15.107 19.21,15.22C19.21,15.473 19.357,15.687 19.65,15.86C19.937,16.027 20.357,16.11 20.91,16.11C21.237,16.11 21.523,16.08 21.77,16.02C22.017,15.96 22.223,15.877 22.39,15.77C22.563,15.663 22.693,15.547 22.78,15.42C22.867,15.287 22.91,15.147 22.91,15C22.91,14.873 22.877,14.763 22.81,14.67C22.75,14.577 22.667,14.497 22.56,14.43C22.447,14.363 22.313,14.313 22.16,14.28C22,14.247 21.827,14.23 21.64,14.23ZM18.94,14.09C18.593,13.97 18.32,13.817 18.12,13.63C17.913,13.437 17.81,13.22 17.81,12.98C17.81,12.827 17.853,12.68 17.94,12.54C18.027,12.4 18.14,12.27 18.28,12.15C18.413,12.03 18.57,11.917 18.75,11.81C18.923,11.697 19.1,11.587 19.28,11.48C18.967,11.36 18.703,11.213 18.49,11.04C18.283,10.867 18.113,10.677 17.98,10.47C17.847,10.27 17.75,10.057 17.69,9.83C17.637,9.603 17.61,9.377 17.61,9.15C17.61,8.717 17.703,8.323 17.89,7.97C18.083,7.617 18.337,7.313 18.65,7.06C18.97,6.807 19.337,6.61 19.75,6.47C20.17,6.33 20.607,6.26 21.06,6.26C21.4,6.26 21.733,6.3 22.06,6.38C22.38,6.453 22.657,6.563 22.89,6.71C23.037,6.623 23.22,6.55 23.44,6.49C23.667,6.43 23.933,6.4 24.24,6.4L25.34,6.4L25.03,7.72L23.69,7.72C23.717,7.753 23.753,7.81 23.8,7.89C23.84,7.963 23.883,8.05 23.93,8.15C23.97,8.257 24.003,8.373 24.03,8.5C24.063,8.633 24.08,8.773 24.08,8.92C24.08,9.313 23.987,9.677 23.8,10.01C23.613,10.343 23.363,10.633 23.05,10.88C22.743,11.127 22.39,11.317 21.99,11.45C21.583,11.59 21.167,11.66 20.74,11.66C20.607,11.66 20.46,11.653 20.3,11.64C20.24,11.68 20.173,11.723 20.1,11.77C20.033,11.817 19.967,11.87 19.9,11.93C19.84,11.99 19.79,12.057 19.75,12.13C19.71,12.197 19.69,12.27 19.69,12.35C19.69,12.477 19.753,12.583 19.88,12.67C20,12.757 20.167,12.8 20.38,12.8L22.14,12.8C22.467,12.8 22.787,12.837 23.1,12.91C23.413,12.983 23.693,13.093 23.94,13.24C24.187,13.393 24.383,13.583 24.53,13.81C24.677,14.03 24.75,14.29 24.75,14.59C24.75,14.917 24.66,15.25 24.48,15.59C24.293,15.923 24.02,16.23 23.66,16.51C23.293,16.783 22.84,17.007 22.3,17.18C21.76,17.36 21.137,17.45 20.43,17.45C19.99,17.45 19.58,17.413 19.2,17.34C18.82,17.267 18.493,17.16 18.22,17.02C17.94,16.887 17.72,16.723 17.56,16.53C17.407,16.337 17.33,16.117 17.33,15.87C17.33,15.657 17.383,15.463 17.49,15.29C17.603,15.11 17.74,14.947 17.9,14.8C18.06,14.653 18.233,14.52 18.42,14.4C18.607,14.287 18.78,14.183 18.94,14.09ZM19.43,8.93C19.43,9.15 19.467,9.353 19.54,9.54C19.613,9.727 19.717,9.883 19.85,10.01C19.977,10.143 20.13,10.25 20.31,10.33C20.49,10.403 20.683,10.44 20.89,10.44C21.083,10.44 21.267,10.407 21.44,10.34C21.613,10.267 21.763,10.17 21.89,10.05C22.017,9.923 22.117,9.77 22.19,9.59C22.27,9.41 22.31,9.21 22.31,8.99C22.31,8.77 22.27,8.567 22.19,8.38C22.117,8.2 22.017,8.043 21.89,7.91C21.757,7.77 21.6,7.663 21.42,7.59C21.247,7.523 21.057,7.49 20.85,7.49C20.657,7.49 20.473,7.523 20.3,7.59C20.127,7.657 19.977,7.753 19.85,7.88C19.717,8.007 19.613,8.157 19.54,8.33C19.467,8.51 19.43,8.71 19.43,8.93ZM30.31,14.23L28.7,14.23C28.607,14.283 28.513,14.347 28.42,14.42C28.32,14.487 28.23,14.56 28.15,14.64C28.07,14.727 28.007,14.817 27.96,14.91C27.907,15.003 27.88,15.107 27.88,15.22C27.88,15.473 28.023,15.687 28.31,15.86C28.603,16.027 29.027,16.11 29.58,16.11C29.9,16.11 30.187,16.08 30.44,16.02C30.687,15.96 30.893,15.877 31.06,15.77C31.233,15.663 31.363,15.547 31.45,15.42C31.537,15.287 31.58,15.147 31.58,15C31.58,14.873 31.547,14.763 31.48,14.67C31.42,14.577 31.333,14.497 31.22,14.43C31.113,14.363 30.98,14.313 30.82,14.28C30.667,14.247 30.497,14.23 30.31,14.23ZM27.61,14.09C27.257,13.97 26.98,13.817 26.78,13.63C26.58,13.437 26.48,13.22 26.48,12.98C26.48,12.827 26.523,12.68 26.61,12.54C26.697,12.4 26.807,12.27 26.94,12.15C27.08,12.03 27.24,11.917 27.42,11.81C27.593,11.697 27.77,11.587 27.95,11.48C27.637,11.36 27.373,11.213 27.16,11.04C26.947,10.867 26.777,10.677 26.65,10.47C26.517,10.27 26.42,10.057 26.36,9.83C26.307,9.603 26.28,9.377 26.28,9.15C26.28,8.717 26.373,8.323 26.56,7.97C26.747,7.617 27,7.313 27.32,7.06C27.633,6.807 28,6.61 28.42,6.47C28.84,6.33 29.277,6.26 29.73,6.26C30.07,6.26 30.403,6.3 30.73,6.38C31.05,6.453 31.323,6.563 31.55,6.71C31.697,6.623 31.883,6.55 32.11,6.49C32.33,6.43 32.597,6.4 32.91,6.4L34.01,6.4L33.69,7.72L32.36,7.72C32.387,7.753 32.423,7.81 32.47,7.89C32.51,7.963 32.55,8.05 32.59,8.15C32.637,8.257 32.673,8.373 32.7,8.5C32.727,8.633 32.74,8.773 32.74,8.92C32.74,9.313 32.647,9.677 32.46,10.01C32.273,10.343 32.027,10.633 31.72,10.88C31.413,11.127 31.06,11.317 30.66,11.45C30.253,11.59 29.837,11.66 29.41,11.66C29.27,11.66 29.123,11.653 28.97,11.64C28.91,11.68 28.843,11.723 28.77,11.77C28.697,11.817 28.63,11.87 28.57,11.93C28.51,11.99 28.46,12.057 28.42,12.13C28.38,12.197 28.36,12.27 28.36,12.35C28.36,12.477 28.42,12.583 28.54,12.67C28.66,12.757 28.83,12.8 29.05,12.8L30.81,12.8C31.137,12.8 31.457,12.837 31.77,12.91C32.083,12.983 32.363,13.093 32.61,13.24C32.857,13.393 33.053,13.583 33.2,13.81C33.347,14.03 33.42,14.29 33.42,14.59C33.42,14.917 33.327,15.25 33.14,15.59C32.96,15.923 32.687,16.23 32.32,16.51C31.96,16.783 31.51,17.007 30.97,17.18C30.43,17.36 29.803,17.45 29.09,17.45C28.657,17.45 28.25,17.413 27.87,17.34C27.49,17.267 27.163,17.16 26.89,17.02C26.61,16.887 26.39,16.723 26.23,16.53C26.077,16.337 26,16.117 26,15.87C26,15.657 26.053,15.463 26.16,15.29C26.273,15.11 26.41,14.947 26.57,14.8C26.73,14.653 26.903,14.52 27.09,14.4C27.277,14.287 27.45,14.183 27.61,14.09ZM28.1,8.93C28.1,9.15 28.137,9.353 28.21,9.54C28.283,9.727 28.387,9.883 28.52,10.01C28.647,10.143 28.8,10.25 28.98,10.33C29.16,10.403 29.353,10.44 29.56,10.44C29.753,10.44 29.937,10.407 30.11,10.34C30.283,10.267 30.433,10.17 30.56,10.05C30.687,9.923 30.787,9.77 30.86,9.59C30.933,9.41 30.97,9.21 30.97,8.99C30.97,8.77 30.933,8.567 30.86,8.38C30.787,8.2 30.683,8.043 30.55,7.91C30.423,7.77 30.27,7.663 30.09,7.59C29.917,7.523 29.727,7.49 29.52,7.49C29.32,7.49 29.137,7.523 28.97,7.59C28.797,7.657 28.647,7.753 28.52,7.88C28.387,8.007 28.283,8.157 28.21,8.33C28.137,8.51 28.1,8.71 28.1,8.93ZM35.18,13.64L35.18,6.4L37.2,6.4L37.2,13.64L35.18,13.64ZM36.18,5.11C36.007,5.11 35.847,5.083 35.7,5.03C35.56,4.977 35.44,4.903 35.34,4.81C35.233,4.717 35.153,4.607 35.1,4.48C35.04,4.353 35.01,4.217 35.01,4.07C35.01,3.917 35.043,3.773 35.11,3.64C35.17,3.507 35.253,3.39 35.36,3.29C35.473,3.19 35.603,3.113 35.75,3.06C35.897,3 36.057,2.97 36.23,2.97C36.403,2.97 36.56,3 36.7,3.06C36.84,3.113 36.963,3.187 37.07,3.28C37.17,3.373 37.25,3.487 37.31,3.62C37.363,3.747 37.39,3.883 37.39,4.03C37.39,4.19 37.36,4.333 37.3,4.46C37.24,4.593 37.153,4.71 37.04,4.81C36.933,4.903 36.807,4.977 36.66,5.03C36.513,5.083 36.353,5.11 36.18,5.11ZM39.97,11.45L39.97,7.72L38.51,7.72L38.65,6.83C38.89,6.757 39.1,6.683 39.28,6.61C39.453,6.537 39.603,6.457 39.73,6.37C39.863,6.277 39.98,6.177 40.08,6.07C40.173,5.963 40.263,5.84 40.35,5.7C40.437,5.56 40.523,5.4 40.61,5.22C40.697,5.033 40.797,4.823 40.91,4.59L41.89,4.59L41.89,6.4L44.47,6.4L44.16,7.72L41.99,7.72L41.99,11.14C41.99,11.587 42.11,11.9 42.35,12.08C42.583,12.26 42.917,12.35 43.35,12.35C43.537,12.35 43.727,12.333 43.92,12.3C44.107,12.273 44.287,12.223 44.46,12.15L44.46,13.08C44.127,13.313 43.767,13.49 43.38,13.61C42.987,13.723 42.593,13.78 42.2,13.78C41.82,13.78 41.49,13.727 41.21,13.62C40.93,13.513 40.697,13.36 40.51,13.16C40.33,12.96 40.193,12.717 40.1,12.43C40.013,12.143 39.97,11.817 39.97,11.45Z" style="fill:white;fill-rule:nonzero;"/>
                </g>
                <g transform="matrix(1.3819,0,0,1.3819,119.661,344.929)">
                    <path d="M64,0C28.654,0 0,28.654 0,64C0,99.346 28.654,128 64,128C99.346,128 128,99.346 128,64C128,28.654 99.346,0 64,0ZM93.688,36.313L99.594,41.688L54.188,92.188L30.313,68.313L36.001,62.594L53.907,80.5L93.688,36.312L93.688,36.313Z" style="fill:rgb(243,16,81);fill-rule:nonzero;"/>
                </g>
            </g>
        </g>
    </g>
</svg>