<svg width="136" height="32" viewBox="0 0 136 32" fill="none" xmlns="http://www.w3.org/2000/svg">
<path d="M90.3985 6.22964C90.3387 5.81876 90.2 5.46292 89.981 5.16404C89.7022 4.77108 89.3452 4.49588 88.908 4.33652C88.4707 4.1778 87.8451 4.08884 87.0305 4.07028H85.2122H80.8608V27.8738H85.0632V19.0712H86.9108C87.7649 19.0527 88.4054 18.9778 88.8332 18.8466C89.2602 18.716 89.6029 18.4728 89.8613 18.117C90.119 17.7989 90.2884 17.4296 90.3679 17.0092C90.4475 16.5887 90.4869 15.8546 90.4869 14.8069V8.58548C90.4883 7.42708 90.4584 6.64116 90.3985 6.22964ZM86.2845 15.9858H85.0639V7.47956H86.2845V15.9858Z" fill="#10E4F9"></path>
<path d="M62.609 27.8738H69.1357V24.4402H66.8114V15.9615H69.1357V12.9285H66.8114V7.47956H69.1357V4.07028H62.609V27.8738Z" fill="#10E4F9"></path>
<path d="M79.0139 4.91124C78.6956 4.51828 78.2938 4.26164 77.8069 4.14004C77.32 4.01844 76.4408 3.95764 75.1692 3.95764C73.7385 3.95764 72.745 4.00436 72.1887 4.0978C71.6325 4.19124 71.1851 4.37812 70.8478 4.65908C70.3113 5.10772 70.0433 6.0242 70.0433 7.40788V12.1426C70.0433 13.3023 70.1773 14.1202 70.4459 14.597C70.7138 15.0738 71.3347 15.5743 72.3084 16.0978C72.3084 16.0978 74.4939 17.2389 74.5735 17.276C74.9312 17.4629 75.2073 17.6223 75.297 17.7528C75.3868 17.884 75.4412 18.1272 75.4609 18.4824C75.4609 18.4824 75.4908 18.9343 75.4908 19.7157C75.4908 20.4972 75.4908 24.4408 75.4908 24.4408H74.2158V17.6652H70.0433V23.4981C70.0433 24.62 70.0631 25.3029 70.1032 25.5455C70.1821 26.2188 70.401 26.7333 70.7587 27.0885C71.0762 27.4437 71.4788 27.6735 71.9657 27.7759C72.4526 27.8783 73.3216 27.9301 74.5735 27.9301C76.1232 27.9301 77.1711 27.87 77.7178 27.7477C78.2639 27.6261 78.7059 27.3503 79.0438 26.9202C79.2825 26.6213 79.4409 26.2892 79.5205 25.9244C79.5994 25.5596 79.6395 24.9752 79.6395 24.1714V18.6226C79.6395 17.3701 79.4851 16.5004 79.1778 16.014C78.8697 15.5282 78.1292 14.9759 76.9576 14.3589L75.1692 13.4335C74.7714 13.228 74.5137 13.0456 74.394 12.8863C74.275 12.7276 74.2151 12.4984 74.2151 12.1989V7.47956H75.4901V12.9279H79.6395V7.85652C79.6395 6.9778 79.5994 6.34164 79.5205 5.94932C79.4409 5.55636 79.2716 5.21076 79.0139 4.91124Z" fill="#10E4F9"></path>
<path d="M130.73 4.91124C130.412 4.51828 130.01 4.26164 129.523 4.14004C129.036 4.01844 128.157 3.95764 126.885 3.95764C125.455 3.95764 124.461 4.00436 123.905 4.0978C123.349 4.19124 122.901 4.37812 122.564 4.65908C122.027 5.10772 121.759 6.0242 121.759 7.40788V12.1426C121.759 13.3023 121.893 14.1202 122.162 14.597C122.43 15.0738 123.051 15.5743 124.024 16.0978C124.024 16.0978 126.21 17.2389 126.29 17.276C126.647 17.4629 126.923 17.6223 127.013 17.7528C127.102 17.884 127.157 18.1272 127.177 18.4824C127.177 18.4824 127.207 18.9343 127.207 19.7157C127.207 20.4972 127.207 24.4408 127.207 24.4408H125.932V17.6652H121.759V23.4981C121.759 24.62 121.779 25.3029 121.819 25.5455C121.898 26.2188 122.117 26.7333 122.475 27.0885C122.792 27.4437 123.195 27.6735 123.682 27.7759C124.169 27.8783 125.038 27.9301 126.29 27.9301C127.839 27.9301 128.887 27.87 129.434 27.7477C129.98 27.6261 130.422 27.3503 130.76 26.9202C130.999 26.6213 131.157 26.2892 131.237 25.9244C131.315 25.5596 131.356 24.9752 131.356 24.1714V18.6226C131.356 17.3701 131.201 16.5004 130.894 16.014C130.586 15.5282 129.845 14.9759 128.674 14.3589L126.885 13.4335C126.487 13.228 126.23 13.0456 126.11 12.8863C125.991 12.7276 125.931 12.4984 125.931 12.1989V7.47956H127.206V12.9279H131.356V7.85652C131.356 6.9778 131.315 6.34164 131.237 5.94932C131.157 5.55636 130.988 5.21076 130.73 4.91124Z" fill="#10E4F9"></path>
<path d="M100.396 4.7153C100.058 4.39722 99.6507 4.19626 99.174 4.11242C98.6973 4.02858 97.7834 3.98634 96.4322 3.98634C95.2198 3.98634 94.3555 4.0145 93.8394 4.07018C92.9255 4.18218 92.2897 4.5937 91.932 5.3041C91.713 5.69706 91.6042 6.55722 91.6042 7.88458V12.1707V19.6881V23.4692V24.5073C91.6042 25.4052 91.713 26.0919 91.932 26.5687C92.1503 27.0455 92.5182 27.3963 93.035 27.6209C93.4919 27.827 94.5548 27.9294 96.2242 27.9294C97.8133 27.9294 98.8564 27.8641 99.3535 27.7329C100.227 27.546 100.784 26.9854 101.022 26.0497C101.122 25.7131 101.171 21.8942 101.171 19.6875V12.1707C101.171 10.394 101.151 6.75306 101.111 6.34154C101.051 5.68746 100.813 5.14538 100.396 4.7153ZM96.9973 24.4401H95.7781V7.47946H96.9973V24.4401Z" fill="#10E4F9"></path>
<path d="M108.352 4.09789L106.862 4.06973H102.392V27.8733H106.594L106.595 17.6646H107.815L107.816 27.8733H111.988V22.8838C111.988 21.7805 111.963 18.4813 111.914 18.0787C111.864 17.6768 111.74 17.3171 111.541 16.999C111.263 16.5133 110.786 16.167 110.11 15.9609C110.845 15.7741 111.342 15.4099 111.6 14.8672C111.858 14.3251 111.988 13.3997 111.988 12.0902V7.71581C111.988 6.29501 111.744 5.34141 111.257 4.85437C110.771 4.36925 109.802 4.11709 108.352 4.09789ZM107.815 14.2553H106.594V7.47965H107.815V14.2553Z" fill="#10E4F9"></path>
<path d="M112.684 7.47956H114.8V27.8738H119.002V7.47956H121.059V4.07028H112.684V7.47956Z" fill="#10E4F9"></path>
<path d="M21.2208 4.71514C20.8828 4.39706 20.4755 4.1961 19.9988 4.11226C19.5222 4.02842 18.6076 3.98618 17.2571 3.98618C16.0446 3.98618 15.1804 4.01434 14.6642 4.07002C13.7503 4.18202 13.1145 4.59354 12.7568 5.30394C12.5379 5.6969 12.4291 6.55706 12.4291 7.88442V12.1705V19.6879V23.4691V24.5071C12.4291 25.4051 12.5379 26.0918 12.7568 26.5686C12.9751 27.0454 13.343 27.3961 13.8598 27.6207C14.3168 27.8268 15.3796 27.9292 17.049 27.9292C18.6382 27.9292 19.6813 27.8639 20.1784 27.7327C21.0522 27.5459 21.6091 26.9852 21.8471 26.0495C21.9464 25.7129 21.996 21.894 21.996 19.6873V12.1705C21.996 10.3939 21.9763 6.7529 21.9362 6.34138C21.877 5.6873 21.6383 5.14522 21.2208 4.71514ZM17.7936 24.4399H16.6016V7.4793H17.7936V24.4399Z" fill="#10E4F9"></path>
<path d="M8.84613 4.07011H4.64441V26.3575C4.64441 27.1818 5.35433 27.85 6.23017 27.85H11.5253V24.44H8.84681V4.07011H8.84613Z" fill="#10E4F9"></path>
<path d="M27.4176 4.07011H23.2152V26.3575C23.2152 27.1818 23.9251 27.85 24.801 27.85H30.0961V24.44H27.4176V4.07011Z" fill="#10E4F9"></path>
<path d="M37.3422 7.47939H44.5413V4.07011H38.9578C36.0644 4.07011 33.7191 6.27747 33.7191 9.00067V14.2557H37.3422V7.47939ZM43.7906 15.96L37.3422 22.0292V17.665H33.7191V27.85H44.5406V24.44H39.9037L46.3522 18.3709L43.7906 15.96ZM55.3628 24.44H48.1644V27.85H53.7478C56.6412 27.85 58.9866 25.6426 58.9866 22.9194V17.6644H55.3635V24.44H55.3628ZM48.1644 4.07011V7.48003H52.8013L46.3528 13.5492L48.9144 15.96L55.3628 9.89091V14.2551H58.9859V4.07011H48.1644Z" fill="#10E4F9"></path>
</svg>
