<?xml version="1.0" encoding="utf-8"?>
<!-- Generator: Adobe Illustrator 26.0.2, SVG Export Plug-In . SVG Version: 6.00 Build 0)  -->
<svg version="1.1" id="图层_1" xmlns="http://www.w3.org/2000/svg" xmlns:xlink="http://www.w3.org/1999/xlink" x="0px" y="0px"
	 viewBox="0 0 1080 1080" style="enable-background:new 0 0 1080 1080;" xml:space="preserve">
<style type="text/css">
	.st0{opacity:0.5;fill-rule:evenodd;clip-rule:evenodd;fill:#3A4750;enable-background:new    ;}
	.st1{opacity:0.5;fill-rule:evenodd;clip-rule:evenodd;fill:#F64E8B;enable-background:new    ;}
	.st2{fill-rule:evenodd;clip-rule:evenodd;fill:#3A4750;}
	.st3{fill-rule:evenodd;clip-rule:evenodd;fill:#F64E8B;}
	.st4{opacity:0.5;fill-rule:evenodd;clip-rule:evenodd;fill:#12E895;enable-background:new    ;}
	.st5{opacity:0.5;fill-rule:evenodd;clip-rule:evenodd;fill:#F8C300;enable-background:new    ;}
	.st6{opacity:0.5;fill-rule:evenodd;clip-rule:evenodd;fill:#FB418E;enable-background:new    ;}
	.st7{fill-rule:evenodd;clip-rule:evenodd;fill:#12E895;}
	.st8{fill-rule:evenodd;clip-rule:evenodd;fill:#F8C300;}
	.st9{fill-rule:evenodd;clip-rule:evenodd;fill:#FB418E;}
</style>
<path id="shape.accent_00000039113462472652235230000002025334903460663692_" class="st0" d="M1012.6,634.3"/>
<path id="shape.primary_00000154414343233483176570000000879754574083796155_" class="st1" d="M612.8,1034"/>
<path id="shape.primary_00000103981377488875786460000012753919311855282598_" class="st1" d="M612.8,1034"/>
<path id="shape.accent_00000160167256047138681900000004625462922416807599_" class="st2" d="M466.1,46"/>
<path id="shape.accent_00000093171105816798632220000008691846159829237411_" class="st2" d="M992.2,572.1"/>
<path id="shape.accent_00000104667356758648427460000012765181620986716852_" class="st2" d="M466.1,46"/>
<path id="shape.primary_00000111889673534965181130000003792608824918977715_" class="st3" d="M593.6,970.8"/>
<rect id="shape.accent" x="629.7" y="8.8" transform="matrix(0.7071 -0.7071 0.7071 0.7071 -76.6284 617.03)" class="st4" width="153.6" height="784.4"/>
<rect id="shape.secondary" x="474.3" y="164.2" transform="matrix(0.7071 -0.7071 0.7071 0.7071 -232.0278 552.6317)" class="st5" width="153.6" height="784.4"/>
<polyline id="shape.primary" class="st6" points="616.8,1045.4 62.2,490.7 170.8,382.1 725.4,936.7 616.8,1045.4 "/>
<rect id="shape.accent_00000046316586446879288130000003756654140440038810_" x="608.7" y="-56.9" transform="matrix(0.7071 -0.7071 0.7071 0.7071 -36.3745 582.7787)" class="st7" width="153.1" height="784.4"/>
<rect id="shape.secondary_00000150817583865407979350000004311631397151030657_" x="454" y="97.7" transform="matrix(0.7071 -0.7071 0.7071 0.7071 -191.0436 518.6381)" class="st8" width="153.1" height="784.4"/>
<rect id="shape.primary_00000065050542433050862970000000799397245433885828_" x="296.7" y="255" transform="matrix(0.7071 -0.7071 0.7071 0.7071 -348.3432 453.5082)" class="st9" width="153.1" height="784.4"/>
</svg>
