<?xml version="1.0" encoding="UTF-8"?>
<svg width="140px" height="39px" viewBox="0 0 140 39" version="1.1" xmlns="http://www.w3.org/2000/svg" xmlns:xlink="http://www.w3.org/1999/xlink">
    <title>logo</title>
    <g id="WAP" stroke="none" stroke-width="1" fill="none" fill-rule="evenodd">
        <g id="首页" transform="translate(-162.000000, -24.000000)" fill-rule="nonzero">
            <g id="logo" transform="translate(162.000000, 24.000000)">
                <ellipse id="椭圆形" cx="16.3651515" cy="23.79" rx="14.6310606" ry="14.739863"></ellipse>
                <path d="M24.675,11.6465753 C24.4575758,11.4969863 24.2401515,11.3527397 24.0174242,11.2138356 C23.6506649,11.8625119 23.2111692,12.466607 22.7075758,13.0142466 C23.399428,12.6133618 24.0574459,12.1559352 24.675,11.6465753 Z" id="路径" fill="#FFFFFF"></path>
                <path d="M18.369697,16.9623288 C18.996817,17.0072917 19.6173106,17.1201336 20.2204545,17.2989041 C20.9363636,16.9089041 21.0848485,17.1119178 21.0848485,17.1119178 C21.2461661,17.4080737 21.2461661,17.7667208 21.0848485,18.0628767 C21.1506138,18.4077791 20.9961212,18.7574394 20.6977273,18.9390411 C20.6977273,18.880274 20.6977273,18.4582192 19.9659091,18.6558904 C19.2340909,18.8535616 18.9424242,19.190137 18.375,19.029863 C18.6180622,19.2606307 18.9723728,19.3274275 19.2818182,19.2008219 C19.8121212,18.9924658 20.4272727,18.6345205 20.6818182,18.9443836 L20.6818182,18.9443836 C20.8674242,19.7510959 20.0666667,20.1250685 17.1977273,20.7821918 C15.4689394,21.1828767 15.0765152,23.2664384 15.1348485,24.3776712 C15.2780303,27.8663014 17.9931818,28.3364384 21.4984848,28.6142466 C24.680303,28.8653425 27.0772727,30.4573973 27.644697,33.1553425 C32.7755052,26.8775631 31.8903912,17.5996214 25.6666667,12.4212329 C23.0195858,14.6890018 19.6986008,16.0047191 16.2272727,16.1609589 C16.8986196,16.5323089 17.6204635,16.8023133 18.369697,16.9623288 Z" id="路径" fill="#FFFFFF"></path>
                <path d="M9.08939394,13.3561644 C8.60736792,12.8903374 8.17543509,12.3746101 7.80075758,11.8175342 C7.60984848,11.9564384 7.41893939,12.1006849 7.23333333,12.250274 C7.83398478,12.6802915 8.46695815,13.0625425 9.12651515,13.3935616 L9.08939394,13.3561644 Z" id="路径" fill="#FFFFFF"></path>
                <path d="M13.819697,14.82 C14.3915208,14.8906708 14.9670715,14.9263527 15.5431818,14.9268493 L15.8030303,14.9268493 C16.5499686,14.9164011 17.2948351,14.8449339 18.030303,14.7131507 C20.1890028,14.1009569 22.0193375,12.6526912 23.1212121,10.6849315 C18.5425271,8.28204326 13.0463122,8.48501566 8.65454545,11.2191781 C8.99046172,11.7138024 9.37415032,12.1737156 9.8,12.5921918 C10.9114131,13.6925697 12.3021551,14.4633508 13.819697,14.82 L13.819697,14.82 Z" id="路径" fill="#FFFFFF"></path>
                <path d="M11.375,18.4635616 C12.2287879,17.5553425 12.9234848,17.9667123 12.9234848,17.9667123 C12.7502425,17.6982843 12.4163145,17.5854095 12.1174242,17.6942466 C11.4195519,18.0368679 10.6675576,18.2538377 9.89545455,18.3353425 C8.76590909,18.3353425 6.44318182,16.8768493 6.58106061,16.5135616 C6.63409091,16.3693151 7.2280303,16.1716438 7.8219697,16.0220548 C9.5030303,15.5946575 12.4621212,16.5563014 12.4621212,16.5563014 C12.661086,16.3536979 12.8836647,16.1761047 13.125,16.0273973 C13.1691035,16.0234143 13.2134723,16.0234143 13.2575758,16.0273973 C10.7371526,15.6479461 8.34690361,14.6539256 6.29469697,13.1317808 C2.73276516,16.5368222 1.10379518,21.5148551 1.95737825,26.3863623 C2.81096133,31.2578695 6.03326171,35.3731758 10.5371212,37.3438356 C5.74318182,31.5205479 9.54545455,20.4082192 11.375,18.4635616 Z" id="路径" fill="#FFFFFF"></path>
                <path d="M7.20151515,6.60328767 C7.17694256,5.41784854 7.39913855,4.24036996 7.85378788,3.14671233 C7.90148914,2.89761465 7.76872474,2.64907179 7.53608748,2.55195829 C7.30345023,2.4548448 7.03510178,2.53594469 6.89393939,2.7460274 C5.65676086,5.73249582 5.99355764,9.14558619 7.79015152,11.8282192 C8.07121212,11.6252055 8.35227273,11.4328767 8.64393939,11.2512329 C7.72763049,9.8747823 7.22664003,8.26043325 7.20151515,6.60328767 Z" id="路径" fill="#FFFFFF"></path>
                <path d="M25.1628788,7.81068493 C25.2464476,7.60443086 25.1942044,7.3675854 25.0317918,7.21639969 C24.8693792,7.06521397 24.6308938,7.03142756 24.4333916,7.13162388 C24.2358893,7.2318202 24.1208335,7.44496428 24.144697,7.66643836 C23.9945518,8.72838545 23.6473463,9.75237472 23.1212121,10.6849315 C23.4234848,10.8452055 23.7257576,11.0161644 24.0174242,11.2191781 C24.605632,10.1643531 24.99405,9.00854984 25.1628788,7.81068493 L25.1628788,7.81068493 Z" id="路径" fill="#FFFFFF"></path>
                <path d="M28.705303,8.97 C28.8256095,8.78390378 28.838229,8.54728375 28.7384078,8.34927238 C28.6385866,8.15126102 28.44149,8.02194095 28.2213623,8.01002581 C28.0012347,7.99811066 27.7915186,8.10541063 27.6712121,8.29150685 C26.8522114,9.56039531 25.8412577,10.6924309 24.675,11.6465753 C25.025,11.8923288 25.3643939,12.1487671 25.6931818,12.4212329 C26.8587828,11.4248282 27.8735505,10.2621261 28.705303,8.97 L28.705303,8.97 Z" id="路径" fill="#FFFFFF"></path>
                <path d="M1.54318182,0.897534247 C1.53744131,0.5585667 1.26453285,0.285998935 0.928030303,0.283150685 L0.928030303,0.283150685 C0.586591429,0.291885392 0.315177271,0.57482859 0.318157112,0.91890411 C0.408333333,6.0369863 2.47651515,10.2842466 6.28939394,13.1050685 C6.58636364,12.8219178 6.89393939,12.5280822 7.23333333,12.2876712 C3.60075758,9.67520548 1.6280303,5.71109589 1.54318182,0.897534247 Z" id="路径" fill="#FFFFFF"></path>
                <polygon id="路径" fill="#FFFFFF" points="40.0007576 30.4947945 40.0007576 17.2828767 42.7530303 16.8982192 42.7530303 30.4947945"></polygon>
                <path d="M47.425,21.1134247 L47.425,27.3160274 C47.3978475,27.5016064 47.4594524,27.6891854 47.5911153,27.8218274 C47.7227783,27.9544695 47.9089727,28.0165325 48.0931818,27.9891781 C48.8004941,27.8998688 49.4834315,27.6711353 50.1030303,27.3160274 L50.1030303,21.1134247 L52.855303,21.1134247 L52.855303,30.4947945 L50.8083333,30.4947945 L50.5219697,29.7789041 C49.3595746,30.3350768 48.0959776,30.6442324 46.8098485,30.6871233 C45.2189394,30.6871233 44.6886364,29.490411 44.6886364,27.6846575 L44.6886364,21.1134247 L47.425,21.1134247 Z" id="路径" fill="#FFFFFF"></path>
                <path d="M57.2727273,26.91 C57.2727273,27.8769863 57.6757576,28.3150685 58.7840909,28.3150685 C59.4273827,28.317389 60.06853,28.240238 60.6931818,28.0853425 L61.0378788,30.3986301 C60.3002586,30.5824952 59.5439149,30.67931 58.7840909,30.6871233 C55.7613636,30.6871233 54.5416667,29.5491781 54.5416667,26.8726027 L54.5416667,24.7356164 C54.5416667,22.0643836 55.7825758,20.9210959 58.7840909,20.9210959 C59.5437471,20.9313517 60.2998148,21.0281312 61.0378788,21.209589 L60.7037879,23.5068493 C60.0765412,23.3667993 59.4370399,23.2898464 58.794697,23.2771233 C57.6863636,23.2771233 57.2833333,23.7152055 57.2833333,24.6821918 L57.2727273,26.91 Z" id="路径" fill="#FFFFFF"></path>
                <path d="M62.7454545,30.4947945 L62.7454545,17.2828767 L65.5030303,16.8982192 L65.5030303,30.4947945 L62.7454545,30.4947945 Z M67.8787879,21.1134247 L70.8219697,21.1134247 L68.3772727,25.7773973 L70.9386364,30.4947945 L67.9954545,30.4947945 L65.5083333,25.7773973 L67.8787879,21.1134247 Z" id="形状" fill="#FFFFFF"></path>
                <polygon id="路径" fill="#FFFFFF" points="72.455303 30.4947945 72.455303 21.1134247 75.2075758 21.1134247 75.2075758 30.4947945"></polygon>
                <path d="M82.7272727,30.4947945 L82.7272727,24.2921918 C82.7544252,24.1066128 82.6928203,23.9190338 82.5611574,23.7863917 C82.4294944,23.6537497 82.2433,23.5916867 82.0590909,23.6190411 C81.3609078,23.7117428 80.6872885,23.9403717 80.0757576,24.2921918 L80.0757576,30.4947945 L77.3234848,30.4947945 L77.3234848,21.1134247 L79.3704545,21.1134247 L79.6568182,21.8293151 C80.8192133,21.2731424 82.0828102,20.9639868 83.3689394,20.9210959 C84.9598485,20.9210959 85.4901515,22.1178082 85.4901515,23.9289041 L85.4901515,30.4947945 L82.7272727,30.4947945 Z" id="路径" fill="#FFFFFF"></path>
                <path d="M94.1924242,26.91 C94.1924242,27.8769863 94.5954545,28.3150685 95.7037879,28.3150685 C96.3488043,28.3169709 96.991656,28.2398291 97.6181818,28.0853425 L97.9575758,30.3986301 C97.2200176,30.5828297 96.4636348,30.6796494 95.7037879,30.6871233 C92.6810606,30.6871233 91.4613636,29.5491781 91.4613636,26.8726027 L91.4613636,24.7356164 C91.4613636,22.0643836 92.7022727,20.9210959 95.7037879,20.9210959 C96.463444,20.9313517 97.2195118,21.0281312 97.9575758,21.209589 L97.6181818,23.5068493 C96.9890906,23.367105 96.3478605,23.2901578 95.7037879,23.2771233 C94.5954545,23.2771233 94.1924242,23.7152055 94.1924242,24.6821918 L94.1924242,26.91 Z" id="路径" fill="#FFFFFF"></path>
                <path d="M98.9333333,26.8939726 L98.9333333,24.7142466 C98.9333333,22.7909589 99.8295455,20.9210959 103.138636,20.9210959 C106.447727,20.9210959 107.343939,22.7909589 107.343939,24.7142466 L107.343939,26.8939726 C107.343939,28.8172603 106.442424,30.6871233 103.138636,30.6871233 C99.8348485,30.6871233 98.9333333,28.8172603 98.9333333,26.8939726 Z M104.591667,26.9687671 L104.591667,24.6394521 C104.591667,23.7526027 104.130303,23.250411 103.138636,23.250411 C102.14697,23.250411 101.685606,23.7526027 101.685606,24.6394521 L101.685606,26.9687671 C101.685606,27.8556164 102.141667,28.3578082 103.138636,28.3578082 C104.135606,28.3578082 104.591667,27.8556164 104.591667,26.9687671 Z" id="形状" fill="#FFFFFF"></path>
                <path d="M114.683333,19.339726 C114.287366,19.2715028 113.886555,19.2357691 113.484848,19.2328767 C112.604545,19.2328767 112.546212,19.6175342 112.546212,20.2372603 L112.546212,21.3057534 L114.74697,21.3057534 L114.545455,23.5816438 L112.535606,23.5816438 L112.535606,30.4947945 L109.772727,30.4947945 L109.772727,23.5816438 L108.356818,23.5816438 L108.356818,21.3057534 L109.772727,21.3057534 L109.772727,19.9006849 C109.772727,17.9773973 110.668939,16.8982192 112.92803,16.8982192 C113.642832,16.9064656 114.354419,16.9960754 115.049242,17.1653425 L114.683333,19.339726 Z" id="路径" fill="#FFFFFF"></path>
                <path d="M121.932576,19.339726 C121.528574,19.2614015 121.118856,19.21673 120.707576,19.2061644 C119.827273,19.2061644 119.768939,19.5908219 119.768939,20.2105479 L119.768939,21.2790411 L121.969697,21.2790411 L121.778788,23.5549315 L119.768939,23.5549315 L119.768939,30.4947945 L117.016667,30.4947945 L117.016667,23.5816438 L115.606061,23.5816438 L115.606061,21.3057534 L117.02197,21.3057534 L117.02197,19.9006849 C117.02197,17.9773973 117.923485,16.8982192 120.203788,16.8982192 C120.91859,16.9064656 121.630177,16.9960754 122.325,17.1653425 L121.932576,19.339726 Z" id="路径" fill="#FFFFFF"></path>
                <path d="M125.618182,26.7764384 L125.618182,27.0489041 C125.618182,28.1173973 126.037121,28.4165753 127.299242,28.4165753 C128.256841,28.4078499 129.209069,28.271319 130.131061,28.0105479 L130.534091,30.0887671 C129.407007,30.4767428 128.225125,30.6787961 127.034091,30.6871233 C124.011364,30.6871233 122.865909,29.1858904 122.865909,26.8726027 L122.865909,24.6768493 C122.865909,22.6573973 123.762121,20.9371233 126.859091,20.9371233 C129.956061,20.9371233 130.629545,22.7856164 130.629545,24.8264384 L130.629545,26.7924658 L125.618182,26.7764384 Z M128.025758,24.2921918 C128.025758,23.6350685 127.834848,23.0954795 126.880303,23.0954795 C125.925758,23.0954795 125.618182,23.629726 125.618182,24.2921918 L125.618182,24.6982192 L128.025758,24.6982192 L128.025758,24.2921918 Z" id="形状" fill="#FFFFFF"></path>
                <path d="M134.559091,26.7764384 L134.559091,27.0489041 C134.559091,28.1173973 134.983333,28.4165753 136.240152,28.4165753 C137.19775,28.4078499 138.149978,28.271319 139.07197,28.0105479 L139.475,30.0887671 C138.347916,30.4767428 137.166034,30.6787961 135.975,30.6871233 C132.952273,30.6871233 131.806818,29.1858904 131.806818,26.8726027 L131.806818,24.6768493 C131.806818,22.6573973 132.708333,20.9371233 135.805303,20.9371233 C138.902273,20.9371233 139.570455,22.7856164 139.570455,24.8264384 L139.570455,26.7924658 L134.559091,26.7764384 Z M136.966667,24.2921918 C136.966667,23.6350685 136.775758,23.0954795 135.821212,23.0954795 C134.866667,23.0954795 134.559091,23.629726 134.559091,24.2921918 L134.559091,24.6982192 L136.966667,24.6982192 L136.966667,24.2921918 Z" id="形状" fill="#FFFFFF"></path>
                <rect id="矩形" fill="#FFFFFF" x="72.455303" y="16.8982192" width="2.75227273" height="2.77273973"></rect>
            </g>
        </g>
    </g>
</svg>