<?xml version="1.0" encoding="UTF-8"?>
<svg width="800px" height="600px" viewBox="0 0 800 600" version="1.1" xmlns="http://www.w3.org/2000/svg" xmlns:xlink="http://www.w3.org/1999/xlink" style="background: #212370;">
    <!-- Generator: Sketch 49.1 (51147) - http://www.bohemiancoding.com/sketch -->
    <title>luckincoffee_logo_Standard_white</title>
    <desc>Created with Sketch.</desc>
    <defs></defs>
    <g id="luckincoffee_logo_Standard_white" stroke="none" stroke-width="1" fill="none" fill-rule="evenodd">
        <g id="text" transform="translate(248.000000, 457.000000)" fill="#FFFFFF">
            <path d="M8.704,40 L0.64,40 L0.64,1.584 L8.704,0.464 L8.704,40 Z M15.404,12.728 L23.468,12.728 L23.468,30.76 C23.468,31.992 24.028,32.72 25.428,32.72 C26.884,32.72 29.572,31.712 31.308,30.76 L31.308,12.728 L39.372,12.728 L39.372,40 L33.38,40 L32.54,37.928 C29.18,39.552 24.812,40.56 21.676,40.56 C17.028,40.56 15.404,37.088 15.404,31.824 L15.404,12.728 Z M52.736,23.144 L52.736,29.584 C52.736,32.384 53.912,33.672 57.16,33.672 C59.232,33.672 60.8,33.448 62.76,33 L63.768,39.72 C61.024,40.336 59.064,40.56 57.16,40.56 C48.312,40.56 44.672,37.256 44.672,29.472 L44.672,23.256 C44.672,15.472 48.312,12.168 57.16,12.168 C59.064,12.168 61.024,12.392 63.768,13.008 L62.76,19.728 C61.08,19.336 58.728,19.056 57.16,19.056 C53.912,19.056 52.736,20.344 52.736,23.144 Z M76.852,40 L68.788,40 L68.788,1.584 L76.852,0.464 L76.852,40 Z M77.916,26.28 L84.86,12.728 L93.484,12.728 L86.316,26.28 L93.82,40 L85.196,40 L77.916,26.28 Z M106.064,9.312 L98,9.312 L98,0.744 L106.064,0.744 L106.064,9.312 Z M106.064,40 L98,40 L98,12.728 L106.064,12.728 L106.064,40 Z M137.012,40 L128.948,40 L128.948,21.968 C128.948,20.736 128.388,20.008 126.988,20.008 C125.532,20.008 122.844,21.016 121.108,21.968 L121.108,40 L113.044,40 L113.044,12.728 L119.036,12.728 L119.876,14.8 C123.236,13.176 127.604,12.168 130.74,12.168 C135.388,12.168 137.012,15.64 137.012,20.904 L137.012,40 Z" id="luckin-cof-fee"></path>
            <path d="M164.556,23.144 L164.556,29.584 C164.556,32.384 165.732,33.672 168.98,33.672 C171.052,33.672 172.62,33.448 174.58,33 L175.588,39.72 C172.844,40.336 170.884,40.56 168.98,40.56 C160.132,40.56 156.492,37.256 156.492,29.472 L156.492,23.256 C156.492,15.472 160.132,12.168 168.98,12.168 C170.884,12.168 172.844,12.392 175.588,13.008 L174.58,19.728 C172.9,19.336 170.548,19.056 168.98,19.056 C165.732,19.056 164.556,20.344 164.556,23.144 Z" id="Path"></path>
            <path d="M192.36,40.56 C182.672,40.56 180.04,35.128 180.04,29.528 L180.04,23.2 C180.04,17.6 182.672,12.168 192.36,12.168 C202.048,12.168 204.68,17.6 204.68,23.2 L204.68,29.528 C204.68,35.128 202.048,40.56 192.36,40.56 Z M192.36,33.784 C195.272,33.784 196.616,32.328 196.616,29.752 L196.616,22.976 C196.616,20.4 195.272,18.944 192.36,18.944 C189.448,18.944 188.104,20.4 188.104,22.976 L188.104,29.752 C188.104,32.328 189.448,33.784 192.36,33.784 Z" id="Combined-Shape"></path>
            <path d="M229.284,1.248 L228.276,7.576 C227.156,7.352 225.644,7.184 224.692,7.184 C222.116,7.184 221.948,8.304 221.948,10.096 L221.948,13.288 L228.388,13.288 L227.828,19.896 L221.948,19.896 L221.948,40 L213.884,40 L213.884,19.896 L209.74,19.896 L209.74,13.288 L213.884,13.288 L213.884,9.2 C213.884,3.6 216.516,0.464 223.124,0.464 C225.42,0.464 227.1,0.8 229.284,1.248 Z" id="Path"></path>
            <path d="M251.108,1.248 L250.1,7.576 C248.98,7.352 247.468,7.184 246.516,7.184 C243.94,7.184 243.772,8.304 243.772,10.096 L243.772,13.288 L250.212,13.288 L249.652,19.896 L243.772,19.896 L243.772,40 L235.708,40 L235.708,19.896 L231.564,19.896 L231.564,13.288 L235.708,13.288 L235.708,9.2 C235.708,3.6 238.34,0.464 244.948,0.464 C247.244,0.464 248.924,0.8 251.108,1.248 Z" id="Path"></path>
            <path d="M303.42,29.192 L288.748,29.192 L288.748,29.976 C288.748,33.112 289.98,33.952 293.676,33.952 C296.196,33.952 299.556,33.504 301.964,32.776 L303.14,38.824 C300.676,39.72 296.7,40.56 292.892,40.56 C284.044,40.56 280.684,36.192 280.684,29.472 L280.684,23.088 C280.684,17.208 283.316,12.168 292.388,12.168 C301.46,12.168 303.42,17.544 303.42,23.48 L303.42,29.192 Z M295.804,23.144 L295.804,21.968 C295.804,20.064 295.244,18.496 292.444,18.496 C289.644,18.496 288.748,20.064 288.748,21.968 L288.748,23.144 L295.804,23.144 Z" id="Combined-Shape"></path>
            <path d="M276.504,29.192 L261.832,29.192 L261.832,29.976 C261.832,33.112 263.064,33.952 266.76,33.952 C269.28,33.952 272.64,33.504 275.048,32.776 L276.224,38.824 C273.76,39.72 269.784,40.56 265.976,40.56 C257.128,40.56 253.768,36.192 253.768,29.472 L253.768,23.088 C253.768,17.208 256.4,12.168 265.472,12.168 C274.544,12.168 276.504,17.544 276.504,23.48 L276.504,29.192 Z M268.888,23.144 L268.888,21.968 C268.888,20.064 268.328,18.496 265.528,18.496 C262.728,18.496 261.832,20.064 261.832,21.968 L261.832,23.144 L268.888,23.144 Z" id="Combined-Shape"></path>
        </g>
        <path d="M477.470575,194.364748 C478.959204,195.306431 480.427697,196.277068 481.875263,197.275868 C476.721567,201.62836 471.461658,205.482885 466.093977,208.841312 C470.146017,204.434645 473.752881,199.602707 476.838407,194.412911 C474.157729,192.74749 471.414308,191.175684 468.610699,189.700899 C473.222699,181.891899 476.509699,173.179899 478.126699,163.844899 C478.598699,161.123899 481.186699,159.300899 483.908699,159.771899 C486.628699,160.243899 488.452699,162.831899 487.980699,165.552899 C486.181031,175.940004 482.553021,185.64514 477.470575,194.364748 Z M329.870282,198.866202 C320.642625,185.054742 315.261999,168.455358 315.261999,150.597799 C315.261999,143.600799 317.168999,132.988799 320.956999,118.542799 C321.657999,115.871799 324.389999,114.274799 327.061999,114.974799 C329.732999,115.675799 331.329999,118.408799 330.629999,121.079799 C327.042999,134.757799 325.261999,144.669799 325.261999,150.597799 C325.261999,166.639799 330.171999,181.532799 338.564999,193.864799 C335.747123,195.584968 333.001487,197.410568 330.328091,199.331953 C333.039974,203.264473 336.067151,206.962786 339.373114,210.390389 C334.393301,207.974992 329.691672,205.292102 325.267252,202.34069 C326.775335,201.149975 328.310025,199.991466 329.870282,198.866202 Z M492.116767,205.104415 C520.789691,229.317992 538.999899,265.532285 538.999899,305.999799 C538.999899,337.056885 528.274257,365.608863 510.325036,388.153673 C499.464515,358.979906 475.061083,348.059043 447.357972,348.059043 C413.322815,348.059043 397.480367,334.45683 397.480367,308.979616 C397.480367,283.502403 412.266175,280.210085 420.959534,278.366986 C429.652893,276.523887 442.395732,271.564903 445.516175,269.074668 C448.636617,266.584434 447.03888,259.612348 441.046041,262.323285 C435.053203,265.034223 432.481018,265.410931 427.639873,263.991986 C439.976787,263.526491 439.951071,257.582481 444.152242,259.773887 C448.353414,261.965293 448.864156,260.604291 449.655498,259.773887 C451.785536,257.645312 449.330628,256.411908 451.736227,252.195111 C454.141826,247.978314 449.655498,244.091921 445.881735,245.229942 C442.107972,246.367963 435.951071,245.593549 426.627503,244.601361 C421.988727,244.107716 415.439586,240.980591 408.707184,237.962665 C438.835111,237.666146 466.448126,226.588802 491.405962,204.898415 C488.41741,202.424314 485.319394,200.080119 482.117899,197.871799 C491.989899,189.537799 501.474899,179.391799 510.577899,167.389799 C512.580899,164.749799 516.343899,164.232799 518.984899,166.235799 C521.624899,168.237799 522.141899,172.001799 520.138899,174.641799 C511.209834,186.412922 501.866196,196.570062 492.116778,205.104424 Z M315.683972,210.682164 C283.574729,187.782819 265.236542,151.295879 261.021799,101.506799 C260.741799,98.2037987 263.191799,95.3007987 266.493799,95.0217987 C269.795799,94.7417987 272.699799,97.1917987 272.978799,100.493799 C277.013799,148.157799 294.436799,182.172799 325.550799,202.925799 C322.388614,205.42144 319.341332,208.056673 316.422833,210.825948 C333.19322,222.529872 353.657853,230.58736 377.773938,234.953277 C375.615737,236.433008 373.971761,238.309117 371.798076,240.211387 C354.568909,230.659955 332.1568,229.212038 317.541565,241.14433 C337.414612,263.29407 358.436422,256.485476 365.986878,252.712689 C371.798076,250.590293 375.596253,250.611778 375.596253,252.712689 C351.347555,251.471153 333.093649,304.73808 333.093649,364.68209 C333.093649,390.560617 340.780401,411.392945 353.028634,426.497677 C307.035232,405.86548 274.999899,359.673766 274.999899,305.999799 C274.999899,268.531209 290.611108,234.708813 315.683972,210.682164 Z M338.295641,193.266719 C358.309489,181.043337 381.832141,173.999799 406.999899,173.999799 C429.152148,173.999799 450.029894,179.456592 468.362286,189.099326 C457.309915,207.821703 438.60207,221.321635 416.780592,225.576666 C409.294698,226.205694 401.634255,226.071928 393.796241,225.178985 C387.402215,224.450548 381.263091,223.482485 375.378034,222.273913 C360.192251,216.678745 347.256047,206.434324 338.295641,193.266719 Z M315.683972,210.682164 C315.85353,210.803088 316.023473,210.923633 316.193799,211.043799 C316.270055,210.97109 316.3464,210.898473 316.422833,210.825948 C316.251499,210.706375 316.080551,210.586422 315.909989,210.466088 C315.834565,210.538025 315.759226,210.61005 315.683972,210.682164 Z M492.116767,205.104415 C491.956402,204.968991 491.795709,204.833941 491.634691,204.699269 C491.558473,204.76575 491.48223,204.832132 491.405962,204.898415 C491.567936,205.032489 491.729578,205.166954 491.890899,205.301799 C491.966216,205.236104 492.041509,205.170312 492.116778,205.104424 Z M329.870282,198.866202 C329.989876,199.045204 330.110116,199.223737 330.230999,199.401799 C330.263352,199.378503 330.295716,199.355221 330.328091,199.331953 C330.205918,199.154789 330.084384,198.97715 329.963494,198.799038 C329.932414,198.821413 329.901343,198.843801 329.870282,198.866202 Z M477.470575,194.364748 C477.324169,194.272133 477.177567,194.179799 477.030772,194.087745 C476.966878,194.196289 476.902756,194.304678 476.838407,194.412911 C476.986028,194.504623 477.133459,194.596619 477.280699,194.688899 C477.344214,194.581001 477.407507,194.47295 477.470575,194.364748 Z" id="Graphic" fill="#FFFFFF"></path>
    </g>
</svg>