<svg version="1.2" xmlns="http://www.w3.org/2000/svg" viewBox="0 0 1546 425" width="1546" height="425">
	<title>luckin-coffee-logo-brandlogos</title>
	<style>
		.s0 { fill: none } 
		.s1 { fill: #232773 } 
		.s2 { fill: #231916 } 
	</style>
	<g id="WAP">
		<g id="下载">
			<g id="logo2">
				<path id="椭圆形" class="s0" d="m179 424.8c-89.8 0-162.3-73-162.3-163.3 0-90.4 72.5-163.4 162.3-163.4 89.7 0 162.2 73 162.2 163.4 0 90.3-72.5 163.3-162.2 163.3z"/>
				<path id="路径" class="s1" d="m271.1 126.9q-3.6-2.5-7.2-4.8-1.5 2.7-3.2 5.3-1.7 2.6-3.5 5.1-1.8 2.5-3.8 4.9-1.9 2.4-4 4.7 2.9-1.7 5.7-3.5 2.7-1.8 5.5-3.7 2.7-1.9 5.3-3.9 2.6-2 5.2-4.1z"/>
				<path id="路径-2" class="s1" d="m201.2 185.8q2.6 0.2 5.2 0.5 2.6 0.3 5.1 0.8 2.6 0.5 5.2 1.1 2.5 0.6 5 1.3c7.9-4.3 9.6-2.1 9.6-2.1q0.6 1.2 1 2.6 0.3 1.3 0.3 2.7 0 1.4-0.3 2.7-0.4 1.4-1 2.6 0.3 1.4 0.1 2.8-0.2 1.4-0.7 2.7-0.6 1.3-1.5 2.4-1 1-2.2 1.8c0-0.7 0-5.4-8.1-3.2-8.1 2.2-11.4 6-17.7 4.2q1 0.9 2.2 1.5 1.2 0.7 2.6 0.9 1.3 0.3 2.7 0.1 1.3-0.1 2.6-0.6c5.9-2.4 12.7-6.3 15.5-2.9 2.1 9-6.8 13.1-38.6 20.4-19.2 4.4-23.5 27.5-22.9 39.8 1.6 38.7 31.7 43.9 70.6 47 35.2 2.8 61.8 20.4 68.1 50.2 13.6-16.5 23.7-35.6 29.9-56.1 6.3-20.5 8.4-41.9 6.4-63.2-2.1-21.3-8.2-42-18.2-61-10-18.9-23.6-35.7-40-49.4-7.3 6.2-15 11.8-23.2 16.8-8.2 4.9-16.8 9.2-25.7 12.7-8.9 3.6-18 6.4-27.4 8.4-9.3 2-18.8 3.2-28.4 3.7q2.8 1.5 5.7 2.8 2.9 1.4 5.9 2.5 3 1.1 6 1.9 3.1 0.9 6.2 1.6z"/>
				<path id="路径-3" class="s1" d="m98.3 145.9q-2-2-4-4-1.9-2-3.7-4.2-1.8-2.1-3.4-4.3-1.7-2.3-3.3-4.6c-2.1 1.6-4.2 3.2-6.3 4.8q2.5 1.8 5.1 3.5 2.5 1.7 5.1 3.2 2.7 1.6 5.4 3.1 2.6 1.5 5.4 2.9z"/>
				<path id="路径-4" class="s1" d="m150.7 162.1q2.4 0.3 4.8 0.5 2.4 0.2 4.8 0.3 2.4 0.2 4.8 0.3 2.4 0 4.8 0h2.9q3.1 0 6.2-0.2 3.1-0.2 6.2-0.5 3.1-0.3 6.1-0.7 3.1-0.4 6.2-1c5.9-1.6 11.6-3.9 17.1-6.7 5.5-2.8 10.7-6.2 15.5-10 4.9-3.8 9.3-8.1 13.3-12.8 4-4.6 7.5-9.7 10.5-15.1-12.4-6.5-25.6-11.4-39.3-14.5-13.7-3.1-27.7-4.4-41.7-3.9-14 0.5-27.9 2.9-41.3 7-13.4 4.1-26.3 9.9-38.2 17.3q1.4 2.1 2.9 4.1 1.5 1.9 3.1 3.8 1.6 2 3.3 3.8 1.7 1.8 3.4 3.5 4.6 4.6 9.8 8.5 5.2 3.8 10.8 7 5.7 3.1 11.7 5.4 6 2.3 12.3 3.8z"/>
				<path id="路径-5" class="s1" d="m123.6 202.4c9.6-10 17.2-5.5 17.2-5.5q-0.7-1.1-1.7-1.9-1-0.7-2.2-1.2-1.3-0.4-2.5-0.4-1.3 0.1-2.5 0.5-2.9 1.4-5.9 2.6-3.1 1.1-6.2 2-3.1 0.9-6.2 1.5-3.2 0.6-6.4 0.9c-12.5 0-38.3-16.1-36.7-20.2 0.6-1.6 7.2-3.7 13.7-5.4 18.7-4.8 51.5 5.9 51.5 5.9q0.8-0.9 1.7-1.6 0.8-0.8 1.8-1.6 0.9-0.7 1.9-1.4 0.9-0.7 1.9-1.3 0.2 0 0.4 0 0.2 0 0.4 0 0.1 0 0.3 0 0.2 0 0.4 0-10.5-1.5-20.6-4.3-10.2-2.8-20-6.9-9.7-4-18.9-9.2-9.2-5.2-17.7-11.4c-19.4 18.6-34 41.7-42.3 67.3-8.4 25.5-10.3 52.8-5.7 79.2 4.7 26.5 15.8 51.5 32.4 72.6 16.6 21.2 38.1 38 62.7 48.9-53.3-64.4-11.1-187.5 9.2-209.1z"/>
				<path id="路径-6" class="s1" d="m77.3 71q-0.1-4.9 0.3-9.8 0.4-4.9 1.3-9.7 0.9-4.8 2.3-9.5 1.4-4.7 3.3-9.3 0.2-1 0.1-2-0.2-0.9-0.7-1.8-0.4-0.9-1.2-1.6-0.7-0.7-1.6-1.1-1-0.4-2-0.5-1 0-2 0.3-1 0.3-1.8 0.9-0.9 0.6-1.4 1.5c-3.4 8.1-5.7 16.6-7 25.2-1.3 8.7-1.5 17.5-0.7 26.3 0.9 8.7 2.8 17.3 5.8 25.5 3 8.3 6.9 16.2 11.8 23.5 3.1-2.3 6.2-4.4 9.6-6.4q-3.8-5.7-6.8-11.9-2.9-6.2-4.9-12.7-2.1-6.5-3.2-13.3-1-6.7-1.2-13.6z"/>
				<path id="路径-7" class="s1" d="m276.5 84.4q0.3-0.8 0.4-1.7 0.1-0.9-0.1-1.8-0.2-0.9-0.6-1.7-0.5-0.8-1.1-1.4-0.7-0.6-1.5-1-0.8-0.4-1.7-0.5-0.9-0.1-1.8 0-0.9 0.2-1.7 0.6-0.8 0.4-1.4 1-0.7 0.7-1.1 1.5-0.4 0.8-0.6 1.6-0.2 0.9-0.1 1.8-0.6 4.4-1.6 8.8-1.1 4.3-2.5 8.5-1.4 4.2-3.2 8.3-1.9 4.1-4 7.9 1.2 0.7 2.5 1.4 1.3 0.7 2.5 1.4 1.3 0.8 2.5 1.6 1.2 0.7 2.4 1.5 2.4-4.3 4.5-8.9 2-4.6 3.6-9.4 1.6-4.7 2.7-9.6 1.2-4.9 1.9-9.8z"/>
				<path id="路径-8" class="s1" d="m315.8 97.2q0.5-0.7 0.8-1.6 0.2-0.9 0.3-1.8 0-0.9-0.2-1.7-0.1-0.9-0.5-1.7c-0.6-1.1-1.4-2-2.4-2.7-1-0.6-2.2-1-3.4-1.1-1.2-0.1-2.4 0.2-3.4 0.7-1.1 0.6-2 1.4-2.7 2.4q-3.4 5.3-7.2 10.3-3.8 4.9-7.9 9.6-4.2 4.7-8.7 9-4.6 4.3-9.4 8.3c3.9 2.7 7.6 5.5 11.3 8.6q4.8-4.2 9.4-8.7 4.5-4.4 8.7-9.3 4.2-4.8 8-9.9 3.8-5.1 7.3-10.4z"/>
				<path id="路径-9" class="s1" d="m14.6 7.8q0-1.4-0.6-2.6-0.5-1.2-1.4-2.2-1-0.9-2.2-1.5-1.3-0.5-2.6-0.5-1.4 0-2.7 0.6-1.2 0.6-2.2 1.5-0.9 1-1.4 2.3-0.5 1.3-0.5 2.6c1 56.7 24 103.8 66.2 135.1q1.2-1.3 2.5-2.5 1.3-1.2 2.6-2.3 1.3-1.2 2.6-2.3 1.4-1.1 2.8-2.1c-40.3-28.8-62.2-72.8-63.1-126.1z"/>
				<path id="路径-10" class="s2" d="m441 335.7v-146.4l30.6-4.2v150.6h-30.6z"/>
				<path id="路径-11" class="s2" d="m523.4 231.8v68.7q-0.1 0.8-0.1 1.5 0.1 0.8 0.3 1.5 0.3 0.8 0.7 1.4 0.4 0.7 0.9 1.2 0.6 0.6 1.2 1 0.7 0.4 1.4 0.6 0.7 0.2 1.5 0.3 0.7 0.1 1.5 0 2.9-0.4 5.8-1.1 2.9-0.6 5.7-1.6 2.8-0.9 5.5-2.1 2.7-1.2 5.3-2.7v-68.7h30.5v103.9h-22.7l-3.2-7.9q-4.8 2.3-9.8 4-5.1 1.8-10.2 3.1-5.2 1.3-10.5 2-5.3 0.7-10.6 0.9c-17.7 0-23.6-13.3-23.6-33.3v-72.7z"/>
				<path id="路径-12" class="s2" d="m632.6 296c0 10.7 4.5 15.6 16.8 15.6q2.6 0 5.3-0.2 2.7-0.1 5.3-0.4 2.7-0.4 5.3-0.8 2.7-0.5 5.2-1.2l3.9 25.7q-3.1 0.7-6.2 1.3-3.1 0.6-6.2 1-3.1 0.4-6.3 0.6-3.1 0.2-6.3 0.3c-33.5 0-47-12.6-47-42.3v-23.7c0-29.6 13.7-42.2 47-42.2q3.2 0 6.3 0.2 3.1 0.3 6.3 0.7 3.1 0.4 6.2 0.9 3.1 0.6 6.2 1.4l-3.8 25.4q-2.6-0.5-5.2-1-2.6-0.4-5.3-0.8-2.6-0.3-5.3-0.5-2.7-0.1-5.3-0.2c-12.3 0-16.8 4.8-16.8 15.6z"/>
				<path id="形状" class="s2" d="m693.3 335.7v-146.4l30.6-4.2v150.6zm56.9-103.9h32.7l-27.2 51.7 28.4 52.2h-32.6l-27.5-52.2z"/>
				<path id="路径-13" class="s2" d="m801 335.7v-103.9h30.5v103.9h-30.5z"/>
				<path id="路径-14" class="s2" d="m914.9 335.7v-68.7q0.1-0.7 0-1.5 0-0.8-0.3-1.5-0.2-0.7-0.6-1.4-0.4-0.6-1-1.2-0.5-0.5-1.2-0.9-0.6-0.4-1.3-0.7-0.8-0.2-1.5-0.3-0.8 0-1.5 0.1-2.9 0.4-5.8 1-2.8 0.7-5.6 1.6-2.8 1-5.4 2.2-2.7 1.2-5.2 2.6v68.8h-30.6v-104h22.7l3.2 7.9q4.9-2.3 9.9-4.1 5-1.8 10.2-3.1 5.2-1.2 10.5-1.9 5.3-0.8 10.6-0.9c17.7 0 23.5 13.2 23.5 33.3v72.7z"/>
				<path id="路径-15" class="s2" d="m1042 296c0 10.7 4.5 15.6 16.8 15.6q2.7 0 5.3-0.2 2.7-0.1 5.4-0.4 2.6-0.4 5.3-0.8 2.6-0.5 5.2-1.2l3.8 25.7q-3.1 0.7-6.2 1.3-3.1 0.6-6.2 1-3.2 0.4-6.3 0.6-3.2 0.2-6.3 0.3c-33.5 0-47.1-12.6-47.1-42.3v-23.7c0-29.6 13.8-42.2 47.1-42.2q3.1 0 6.3 0.2 3.1 0.3 6.3 0.7 3.1 0.4 6.2 0.9 3.1 0.6 6.2 1.4l-3.8 25.4q-2.6-0.5-5.2-1-2.7-0.4-5.3-0.7-2.7-0.4-5.4-0.6-2.6-0.1-5.3-0.2c-12.3 0-16.8 4.8-16.8 15.6z"/>
				<path id="形状-2" fill-rule="evenodd" class="s2" d="m1094.6 295.8v-24.1c0-21.3 9.9-42 46.6-42 36.7 0 46.7 20.7 46.7 42v24.1c0 21.3-10 42.1-46.7 42.1-36.6 0-46.6-20.8-46.6-42.1zm62.8 0.9v-25.8c0-9.9-5.2-15.4-16.2-15.4-11 0-16.1 5.5-16.1 15.4v25.7c0 9.9 5.1 15.4 16.1 15.4 11.1 0 16.1-5.5 16.1-15.4z"/>
				<path id="路径-16" class="s2" d="m1269.2 212.1q-1.6-0.2-3.3-0.5-1.6-0.2-3.3-0.3-1.6-0.2-3.3-0.3-1.7 0-3.4 0c-9.7 0-10.4 4.2-10.4 11.1v11.8h24.4l-2.2 25.3h-22.3v76.5h-30.6v-76.5h-15.7v-25.3h15.7v-15.5c0-21.3 9.9-33.3 35-33.3q3 0 5.9 0.2 3 0.2 5.9 0.6 3 0.4 5.9 0.9 2.9 0.6 5.8 1.3z"/>
				<path id="路径-17" class="s2" d="m1349.6 212.1q-1.6-0.3-3.3-0.5-1.7-0.3-3.4-0.5-1.7-0.2-3.4-0.3-1.7-0.1-3.5-0.2c-9.7 0-10.4 4.3-10.4 11.2v11.8h24.4l-2 25.2h-22.3v76.9h-30.6v-76.5h-15.6v-25.3h15.8v-15.5c0-21.3 10-33.3 35.3-33.3q3 0 5.9 0.2 3 0.2 5.9 0.6 3 0.4 5.9 0.9 2.9 0.6 5.8 1.3z"/>
				<path id="形状-3" fill-rule="evenodd" class="s2" d="m1390.5 294.5v3c0 11.9 4.7 15.2 18.7 15.2q3.9 0 7.9-0.3 4-0.3 7.9-0.9 3.9-0.6 7.8-1.4 3.9-0.8 7.8-1.9l4.4 23q-4.6 1.6-9.4 2.9-4.8 1.2-9.7 2-4.9 0.8-9.8 1.3-4.9 0.4-9.9 0.5c-33.5 0-46.2-16.8-46.2-42.3v-24.3c0-22.4 9.9-41.5 44.3-41.5 34.3 0 41.8 20.5 41.8 43.1v21.8zm26.7-27.5c0-7.2-2.1-13.3-12.7-13.3-10.6 0-14 5.9-14 13.3v4.5h26.7z"/>
				<path id="形状-4" fill-rule="evenodd" class="s2" d="m1489.7 294.5v3c0 11.9 4.8 15.2 18.6 15.2q4 0 7.9-0.3 4-0.3 7.9-0.9 3.9-0.6 7.8-1.4 3.9-0.8 7.7-1.9l4.5 23q-4.7 1.6-9.5 2.9-4.8 1.2-9.6 2-4.9 0.8-9.8 1.3-5 0.4-9.9 0.5c-33.5 0-46.2-16.8-46.2-42.3v-24.3c0-22.4 10-41.5 44.3-41.5 34.4 0 41.8 20.5 41.8 43.1v21.8zm26.7-27.5c0-7.2-2.1-13.3-12.7-13.3-10.6 0-14 5.9-14 13.3v4.5h26.7z"/>
				<path id="矩形" class="s2" d="m801 185.1h30.5v30.7h-30.5z"/>
			</g>
		</g>
	</g>
</svg>