<svg version="1.2" xmlns="http://www.w3.org/2000/svg" viewBox="0 0 1238 1542" width="1238" height="1542">
	<title>luckin-coffee-logo-brandlogos</title>
	<style>
		.s0 { fill: none } 
		.s1 { fill: #232773 } 
	</style>
	<g id="WAP">
		<g id="下载">
			<g id="logo2">
				<path id="椭圆形" fill-rule="evenodd" class="s0" d="m647.4 1541.3c-326.1 0-589.7-265.5-589.7-593.9 0-328.3 263.6-593.8 589.7-593.8 326.1 0 589.7 265.5 589.7 593.8 0 328.4-263.6 593.9-589.7 593.9z"/>
				<path id="路径" class="s1" d="m982.3 458.3q-13.1-9.1-26.2-17.4-5.4 9.8-11.6 19.2-6.2 9.5-12.7 18.6-6.5 9.1-13.8 17.8-6.9 8.7-14.6 17.1 10.6-6.2 20.8-12.7 9.8-6.6 20-13.5 9.8-6.9 19.2-14.2 9.5-7.2 18.9-14.9z"/>
				<path id="路径-2" class="s1" d="m728.3 672.4q9.4 0.8 18.9 1.9 9.4 1 18.5 2.9 9.4 1.8 18.9 4 9.1 2.1 18.2 4.7c28.7-15.6 34.9-7.6 34.9-7.6q2.1 4.3 3.6 9.4 1.1 4.7 1.1 9.8 0 5.1-1.1 9.8-1.5 5.1-3.6 9.5 1.1 5.1 0.3 10.2-0.7 5.1-2.5 9.8-2.2 4.7-5.5 8.7-3.6 3.6-8 6.6c0-2.6 0-19.7-29.4-11.7-29.4 8-41.4 21.8-64.3 15.3q3.6 3.3 8 5.4 4.3 2.6 9.4 3.3 4.7 1.1 9.8 0.4 4.7-0.4 9.5-2.2c21.4-8.7 46.1-22.9 56.3-10.5 7.6 32.7-24.7 47.6-140.3 74.1-69.8 16-85.4 100-83.2 144.7 5.8 140.7 115.2 159.6 256.6 170.9 127.9 10.1 224.6 74.1 247.5 182.4 49.4-59.9 86.1-129.4 108.7-203.9 22.9-74.5 30.5-152.3 23.2-229.7-7.6-77.5-29.8-152.7-66.1-221.8-36.4-68.7-85.8-129.8-145.4-179.6-26.5 22.6-54.5 42.9-84.3 61.1-29.8 17.8-61.1 33.4-93.4 46.2-32.4 13-65.5 23.2-99.6 30.5-33.8 7.3-68.3 11.6-103.2 13.4q10.1 5.5 20.7 10.2 10.5 5.1 21.4 9.1 10.9 4 21.8 6.9 11.3 3.3 22.6 5.8z"/>
				<path id="路径-3" class="s1" d="m354.3 527.4q-7.3-7.3-14.6-14.6-6.9-7.2-13.4-15.2-6.6-7.7-12.4-15.7-6.2-8.3-12-16.7-11.4 8.8-22.9 17.5 9.1 6.5 18.6 12.7 9.1 6.2 18.5 11.6 9.8 5.8 19.6 11.3 9.5 5.5 19.7 10.5z"/>
				<path id="路径-4" class="s1" d="m544.7 586.3q8.7 1.1 17.5 1.8 8.7 0.7 17.4 1.1 8.7 0.7 17.5 1.1 8.7 0 17.4 0h10.5q11.3 0 22.6-0.7 11.2-0.8 22.5-1.9 11.3-1.1 22.2-2.5 11.2-1.5 22.5-3.6c21.5-5.9 42.2-14.2 62.2-24.4 20-10.2 38.9-22.5 56.3-36.4 17.8-13.8 33.8-29.4 48.3-46.5 14.6-16.7 27.3-35.2 38.2-54.9-45.1-23.6-93-41.4-142.8-52.7-49.8-11.3-100.7-16-151.6-14.2-50.9 1.8-101.4 10.6-150.1 25.5-48.7 14.9-95.6 36-138.8 62.9q5.1 7.6 10.5 14.9 5.5 6.9 11.3 13.8 5.8 7.3 12 13.8 6.1 6.5 12.3 12.7 16.7 16.7 35.6 30.9 18.9 13.8 39.3 25.5 20.7 11.2 42.5 19.6 21.8 8.4 44.7 13.8z"/>
				<path id="路径-5" class="s1" d="m446.2 732.8c34.9-36.4 62.5-20 62.5-20q-2.5-4-6.1-6.9-3.7-2.6-8-4.4-4.8-1.4-9.1-1.4-4.7 0.3-9.1 1.8-10.5 5.1-21.5 9.4-11.2 4-22.5 7.3-11.3 3.3-22.5 5.5-11.7 2.1-23.3 3.2c-45.4 0-139.2-58.5-133.4-73.4 2.2-5.8 26.2-13.5 49.8-19.6 68-17.5 187.2 21.4 187.2 21.4q2.9-3.3 6.2-5.8 2.9-2.9 6.5-5.8 3.3-2.6 6.9-5.1 3.3-2.6 6.9-4.7 0.8 0 1.5 0 0.7 0 1.4 0 0.4 0 1.1 0 0.8 0 1.5 0-38.2-5.5-74.9-15.7-37.1-10.1-72.7-25-35.2-14.6-68.7-33.5-33.4-18.9-64.3-41.4c-70.5 67.6-123.6 151.6-153.7 244.6-30.6 92.7-37.5 192-20.8 287.9 17.1 96.4 57.5 187.3 117.8 264 60.3 77 138.5 138.1 227.9 177.7-193.7-234.1-40.4-681.6 33.4-760.1z"/>
				<path id="路径-6" class="s1" d="m277.9 255.1q-0.3-17.8 1.1-35.6 1.5-17.8 4.8-35.3 3.2-17.4 8.3-34.5 5.1-17.1 12-33.8 0.7-3.7 0.4-7.3-0.7-3.3-2.6-6.5-1.4-3.3-4.3-5.9-2.6-2.5-5.8-4-3.7-1.4-7.3-1.8-3.6 0-7.3 1.1-3.6 1.1-6.5 3.3-3.3 2.2-5.1 5.4c-12.4 29.5-20.7 60.4-25.5 91.7-4.7 31.6-5.4 63.6-2.5 95.6 3.3 31.6 10.2 62.9 21.1 92.7 10.9 30.1 25.1 58.9 42.9 85.4 11.2-8.4 22.5-16 34.9-23.3q-13.8-20.7-24.8-43.2-10.5-22.6-17.8-46.2-7.6-23.6-11.6-48.4-3.6-24.3-4.4-49.4z"/>
				<path id="路径-7" class="s1" d="m1001.9 303.8q1.1-2.9 1.5-6.2 0.4-3.2-0.4-6.5-0.7-3.3-2.2-6.2-1.8-2.9-3.9-5.1-2.6-2.2-5.5-3.6-2.9-1.5-6.2-1.8-3.2-0.4-6.5 0-3.3 0.7-6.2 2.2-2.9 1.4-5.1 3.6-2.5 2.5-4 5.4-1.4 3-2.2 5.9-0.7 3.2-0.3 6.5-2.2 16-5.8 32-4 15.6-9.1 30.9-5.1 15.3-11.7 30.2-6.9 14.9-14.5 28.7 4.4 2.5 9.1 5.1 4.7 2.5 9.1 5.1 4.7 2.9 9.1 5.8 4.3 2.5 8.7 5.4 8.7-15.6 16.3-32.3 7.3-16.7 13.1-34.2 5.8-17.1 9.8-34.9 4.4-17.8 6.9-35.6z"/>
				<path id="路径-8" class="s1" d="m1144.8 350.4q1.8-2.6 2.9-5.9 0.7-3.2 1.1-6.5 0-3.3-0.8-6.2-0.3-3.3-1.8-6.2-3.2-6-8.7-9.8c-3.6-2.2-8-3.6-12.4-4-4.3-0.3-8.7 0.7-12.3 2.6q-6 3.2-9.8 8.7-12.4 19.3-26.2 37.4-13.8 17.8-28.7 34.9-15.3 17.1-31.6 32.7-16.7 15.7-34.2 30.2c14.2 9.8 27.6 20 41.1 31.3q17.4-15.3 34.1-31.6 16.4-16 31.7-33.9 15.2-17.4 29-35.9 13.9-18.6 26.6-37.8z"/>
				<path id="路径-9" class="s1" d="m50.1 25.4q0-5.1-2.2-9.5-1.8-4.4-5.1-8-3.6-3.3-8-5.4-4.7-1.9-9.5-1.9-5 0-9.8 2.2-4.3 2.2-8 5.5-3.2 3.6-5 8.3-1.9 4.8-1.9 9.5c3.7 206.1 87.3 377.3 240.6 491.1q4.4-4.7 9.1-9.1 4.7-4.3 9.5-8.3 4.7-4.4 9.4-8.4 5.1-4 10.2-7.6c-146.5-104.7-226.1-264.7-229.3-458.4z"/>
			</g>
		</g>
	</g>
</svg>