<?xml version="1.0" encoding="UTF-8"?>
<svg id="SVGRoot" width="500" height="665.03" version="1.1" viewBox="0 0 500 665.03497" xmlns="http://www.w3.org/2000/svg" xmlns:cc="http://creativecommons.org/ns#" xmlns:dc="http://purl.org/dc/elements/1.1/" xmlns:rdf="http://www.w3.org/1999/02/22-rdf-syntax-ns#"><metadata><rdf:RDF><cc:Work rdf:about=""><dc:format>image/svg+xml</dc:format><dc:type rdf:resource="http://purl.org/dc/dcmitype/StillImage"/><dc:title/></cc:Work></rdf:RDF></metadata><g transform="translate(-244.83 318.14)" fill="#0a1a72"><path d="m257.98 345.97h-13.15v-63.321c13.15-1.8356 13.15-1.8356 13.15-1.8356zm11.009-44.967h13.456v29.672c0 2.1412 0.91755 3.3646 3.0581 3.3646 2.4461 0 7.0338-1.8356 9.7854-3.3646v-29.672h13.456v44.967h-10.091l-1.224-3.3649c-5.5042 2.753-12.844 4.2825-18.042 4.2825-7.6448 0-10.397-5.812-10.397-14.378zm61.773 17.13v10.707c0 4.588 1.8351 6.7292 7.3393 6.7292 3.3636 0 5.8097-0.30547 9.1744-1.2234l1.5254 11.318c-4.2781 0.9177-7.6417 1.2236-10.7 1.2236-14.679 0-20.795-5.5061-20.795-18.353v-10.095c0-12.848 6.1162-18.354 20.795-18.354 3.0581 0 6.4217 0.30547 10.7 1.2234l-1.5254 11.318c-2.7526-0.91781-6.7283-1.2234-9.1744-1.2234-5.5042 0-7.3393 2.1412-7.3393 6.7292zm39.755 27.837h-13.149v-63.321l13.149-1.8356zm1.8372-22.637l11.312-22.33h14.377l-11.931 22.33 12.54 22.637h-14.377zm46.486-28.142h-13.459v-14.071h13.459zm0 50.779h-13.459v-44.967h13.459zm51.069 0h-13.459v-29.672c0-2.1412-0.91853-3.3656-3.055-3.3656-2.446 0-6.7293 1.8356-9.7843 3.3656v29.672h-13.159v-44.967h9.7947l1.2179 3.3646c5.8107-2.7534 12.85-4.2824 18.041-4.2824 7.6479 0 10.404 5.8124 10.404 14.377z"/><path d="m515.47 318.14v10.707c0 4.588 1.8371 6.7292 7.3486 6.7292 3.3647 0 5.8107-0.30547 9.1651-1.2234l1.5378 11.318c-4.2832 0.9177-7.6479 1.2236-10.703 1.2236-14.687 0-20.797-5.5061-20.797-18.353v-10.095c0-12.848 6.11-18.354 20.797-18.354 3.055 0 6.4197 0.30547 10.703 1.2234l-1.5378 11.318c-2.7454-0.91781-6.719-1.2234-9.1651-1.2234-5.5114 0-7.3486 2.1412-7.3486 6.7292z"/><path d="m561.35 346.89c-15.905 0-20.487-8.8711-20.487-18.048v-10.707c0-9.176 4.5825-18.047 20.487-18.047 15.905 0 20.178 8.8714 20.178 18.047v10.707c0 9.1767-4.2729 18.048-20.178 18.048zm0-11.012c4.8921 0 7.0286-2.4478 7.0286-6.7302v-11.318c0-4.2824-2.1365-6.7292-7.0286-6.7292-4.8922 0-7.039 2.4468-7.039 6.7292v11.318c0 4.2824 2.1468 6.7302 7.039 6.7302z"/><path d="m622.2 282.04l-1.5275 10.401c-1.8372-0.3065-4.2833-0.61223-5.8108-0.61223-4.2832 0-4.5825 1.8356-4.5825 4.8946v5.2002h10.393l-0.91858 11.012h-9.4747v33.037h-13.459v-33.037h-6.7294v-11.012h6.7294v-6.7302c0-9.177 4.2832-14.377 15.285-14.377 3.6743 0 6.7293 0.3065 10.094 1.2234z"/><path d="m658.29 282.04l-1.5378 10.401c-1.8268-0.3065-4.2729-0.61223-6.11-0.61223-4.2833 0-4.2833 1.8356-4.2833 4.8946v5.2002h10.393l-0.91858 11.012h-9.4747v33.037h-13.459v-33.037h-6.7294v-11.012h6.7294v-6.7302c0-9.177 4.2832-14.377 15.296-14.377 3.664 0 6.4196 0.3065 10.094 1.2234z"/><path d="m744.83 328.23h-24.471v1.2234c0 5.2002 2.1468 6.4246 8.2568 6.4246 4.2832 0 9.7843-0.61223 13.768-1.8356l1.8268 10.094c-3.9736 1.5295-10.703 2.7531-16.813 2.7531-14.677 0-20.188-7.0356-20.188-18.353v-10.401c0-9.7882 4.2832-18.047 19.269-18.047 14.986 0 18.351 8.8714 18.351 18.66zm-12.54-10.095v-1.8346c0-3.3656-0.91858-5.8124-5.8107-5.8124-4.5929 0-6.1204 2.4468-6.1204 5.8124v1.8346z"/><path d="m700.19 328.23h-24.162v1.2234c0 5.2002 2.1364 6.4246 8.2568 6.4246 3.9736 0 9.485-0.61223 13.459-1.8356l2.1364 10.094c-3.9736 1.5295-10.703 2.7531-17.123 2.7531-14.377 0-19.878-7.0356-19.878-18.353v-10.401c0-9.7882 4.2832-18.047 19.269-18.047 14.976 0 18.041 8.8714 18.041 18.66zm-12.54-10.095v-1.8346c0-3.3656-0.91853-5.8124-5.5011-5.8124-4.5929 0-6.1204 2.4468-6.1204 5.8124v1.8346z"/><path d="m622.51-153.86c2.4461 1.528 4.8922 3.0559 7.3383 4.5839-8.5665 7.3404-17.123 13.772-25.999 19.275 6.7294-7.3404 12.54-15.3 17.742-23.859-4.5825-2.7565-8.8657-5.2033-13.758-7.6501 7.6376-13.153 13.149-27.534 15.894-42.824 0.61925-4.5838 4.8921-7.6501 9.485-6.7313 4.5825 0.60914 7.6479 4.8936 6.7294 9.4878-3.0654 17.128-8.8761 33.336-17.432 47.718zm-243.73 7.3404c-15.285-22.94-24.162-50.164-24.162-79.836 0-11.325 3.3647-29.062 9.485-52.921 1.2179-4.2845 5.8107-7.041 10.094-5.8124 4.2729 1.2182 7.0286 5.8124 5.8107 10.097-5.8107 22.63-8.8761 38.839-8.8761 48.637 0 26.605 8.2568 51.083 22.025 71.577-4.5928 2.7565-9.1754 5.8124-13.459 9.1781 4.2833 6.4216 9.4747 12.544 14.986 18.046-8.2568-3.9748-16.214-8.2592-23.553-13.153 2.7557-2.1371 5.2018-3.9747 7.6479-5.8124zm267.89 10.396c47.394 39.768 77.666 99.73 77.666 166.71 0 51.094-17.732 98.502-47.394 135.51-18.041-48.017-58.407-66.074-103.97-66.074-56.27 0-82.568-22.63-82.568-64.536 0-42.215 24.461-47.728 38.838-50.784 14.367-3.056 35.473-11.016 40.675-15.29 5.1915-3.9851 2.4461-15.61-7.3486-11.016-10.084 4.2844-14.367 4.8936-22.324 2.7565 20.498-0.91879 20.498-10.706 27.227-7.041 7.0286 3.6754 7.9472 1.2285 9.1651 0 3.6743-3.665-0.60894-5.5027 3.3647-12.544 3.9839-7.0307-3.3647-13.452-9.4747-11.625-6.4197 2.1474-16.514 0.61946-31.809-0.91884-7.6376-0.90852-18.65-6.1118-29.663-11.005 49.851-0.3096 95.418-18.666 136.7-54.449-5.2018-4.2845-10.094-7.9599-15.595-11.625 16.514-13.772 32.109-30.59 47.095-50.474 3.3544-4.2845 9.4747-5.2033 14.057-1.8377 4.2832 3.3656 5.2018 9.4878 1.8371 13.762-14.677 19.585-30.272 36.403-46.476 50.474zm-291.14 9.1781c-53.209-37.931-83.484-98.192-90.518-180.47-0.30547-5.513 3.6702-10.097 9.1744-10.706 5.5042-0.3096 10.092 3.665 10.703 9.1781 6.7283 78.607 35.474 134.89 86.855 169.16-5.2018 3.9748-10.404 8.5586-14.986 13.153 27.516 19.275 61.462 32.428 101.22 39.768-3.664 2.4468-6.4196 5.5027-9.7843 8.5586-28.445-15.6-65.446-18.046-89.607 1.528 32.728 36.712 67.592 25.397 79.823 19.275 9.7843-3.665 15.905-3.665 15.905 0-40.066-2.1371-70.039 85.958-70.039 185.07 0 42.525 12.54 77.09 32.728 101.87-75.843-33.956-128.75-110.44-128.75-198.84 0-62.089 25.687-117.77 67.276-157.53zm37.311-28.752c33.027-20.183 71.865-31.808 113.46-31.808 36.392 0 70.947 8.8684 101.22 24.778-18.351 30.89-49.231 53.22-85.014 60.261-12.54 1.2182-25.08 0.91884-38.229-0.61945-10.393-1.2182-20.487-2.7462-30.272-4.8936-25.08-9.1781-46.486-25.996-61.162-47.718zm-37.311 28.752c0.3096 0.3096 0.3096 0.3096 0.60893 0.61941 0.3096-0.3096 0.3096-0.3096 0.61925-0.3096-0.3096-0.3096-0.61925-0.60914-0.91858-0.60914-0.3096 0-0.3096 0-0.3096 0.29928zm291.14-9.1781c0-0.29928-0.3096-0.60913-0.61925-0.60913-0.29928 0-0.29928 0-0.29928 0.3096 0 0 0.29928 0.29928 0.60893 0.60908l0.3096-0.3096zm-267.89-10.396c0.3096 0.3096 0.60893 0.60914 0.60893 0.91884h0.3096c-0.3096-0.3096-0.60893-0.60914-0.60893-0.91884h-0.3096zm243.73-7.3404c0-0.3096-0.3096-0.3096-0.60894-0.60909 0 0.29928-0.3096 0.29928-0.3096 0.60909 0.3096 0 0.60899 0.29928 0.60899 0.29928 0.3096 0 0.3096-0.29928 0.3096-0.29928z"/><path d="m257.98 345.97h-13.15v-63.321c13.15-1.8356 13.15-1.8356 13.15-1.8356zm11.009-44.967h13.456v29.672c0 2.1412 0.91755 3.3646 3.0581 3.3646 2.4461 0 7.0338-1.8356 9.7854-3.3646v-29.672h13.456v44.967h-10.091l-1.224-3.3649c-5.5042 2.753-12.844 4.2825-18.042 4.2825-7.6448 0-10.397-5.812-10.397-14.378zm61.773 17.13v10.707c0 4.588 1.8351 6.7292 7.3393 6.7292 3.3636 0 5.8097-0.30547 9.1744-1.2234l1.5254 11.318c-4.2781 0.9177-7.6417 1.2236-10.7 1.2236-14.679 0-20.795-5.5061-20.795-18.353v-10.095c0-12.848 6.1162-18.354 20.795-18.354 3.0581 0 6.4217 0.30547 10.7 1.2234l-1.5254 11.318c-2.7526-0.91781-6.7283-1.2234-9.1744-1.2234-5.5042 0-7.3393 2.1412-7.3393 6.7292zm39.755 27.837h-13.149v-63.321l13.149-1.8356zm1.8372-22.637l11.312-22.33h14.377l-11.931 22.33 12.54 22.637h-14.377zm46.486-28.142h-13.459v-14.071h13.459zm0 50.779h-13.459v-44.967h13.459zm51.069 0h-13.459v-29.672c0-2.1412-0.91853-3.3656-3.055-3.3656-2.446 0-6.7293 1.8356-9.7843 3.3656v29.672h-13.159v-44.967h9.7947l1.2179 3.3646c5.8107-2.7534 12.85-4.2824 18.041-4.2824 7.6479 0 10.404 5.8124 10.404 14.377z"/><path d="m515.47 318.14v10.707c0 4.588 1.8371 6.7292 7.3486 6.7292 3.3647 0 5.8107-0.30547 9.1651-1.2234l1.5378 11.318c-4.2832 0.9177-7.6479 1.2236-10.703 1.2236-14.687 0-20.797-5.5061-20.797-18.353v-10.095c0-12.848 6.11-18.354 20.797-18.354 3.055 0 6.4197 0.30547 10.703 1.2234l-1.5378 11.318c-2.7454-0.91781-6.719-1.2234-9.1651-1.2234-5.5114 0-7.3486 2.1412-7.3486 6.7292z"/><path d="m561.35 346.89c-15.905 0-20.487-8.8711-20.487-18.048v-10.707c0-9.176 4.5825-18.047 20.487-18.047 15.905 0 20.178 8.8714 20.178 18.047v10.707c0 9.1767-4.2729 18.048-20.178 18.048zm0-11.012c4.8921 0 7.0286-2.4478 7.0286-6.7302v-11.318c0-4.2824-2.1365-6.7292-7.0286-6.7292-4.8922 0-7.039 2.4468-7.039 6.7292v11.318c0 4.2824 2.1468 6.7302 7.039 6.7302z"/><path d="m622.2 282.04l-1.5275 10.401c-1.8372-0.3065-4.2833-0.61223-5.8108-0.61223-4.2832 0-4.5825 1.8356-4.5825 4.8946v5.2002h10.393l-0.91858 11.012h-9.4747v33.037h-13.459v-33.037h-6.7294v-11.012h6.7294v-6.7302c0-9.177 4.2832-14.377 15.285-14.377 3.6743 0 6.7293 0.3065 10.094 1.2234z"/><path d="m658.29 282.04l-1.5378 10.401c-1.8268-0.3065-4.2729-0.61223-6.11-0.61223-4.2833 0-4.2833 1.8356-4.2833 4.8946v5.2002h10.393l-0.91858 11.012h-9.4747v33.037h-13.459v-33.037h-6.7294v-11.012h6.7294v-6.7302c0-9.177 4.2832-14.377 15.296-14.377 3.664 0 6.4196 0.3065 10.094 1.2234z"/><path d="m744.83 328.23h-24.471v1.2234c0 5.2002 2.1468 6.4246 8.2568 6.4246 4.2832 0 9.7843-0.61223 13.768-1.8356l1.8268 10.094c-3.9736 1.5295-10.703 2.7531-16.813 2.7531-14.677 0-20.188-7.0356-20.188-18.353v-10.401c0-9.7882 4.2832-18.047 19.269-18.047 14.986 0 18.351 8.8714 18.351 18.66zm-12.54-10.095v-1.8346c0-3.3656-0.91858-5.8124-5.8107-5.8124-4.5929 0-6.1204 2.4468-6.1204 5.8124v1.8346z"/><path d="m700.19 328.23h-24.162v1.2234c0 5.2002 2.1364 6.4246 8.2568 6.4246 3.9736 0 9.485-0.61223 13.459-1.8356l2.1364 10.094c-3.9736 1.5295-10.703 2.7531-17.123 2.7531-14.377 0-19.878-7.0356-19.878-18.353v-10.401c0-9.7882 4.2832-18.047 19.269-18.047 14.976 0 18.041 8.8714 18.041 18.66zm-12.54-10.095v-1.8346c0-3.3656-0.91853-5.8124-5.5011-5.8124-4.5929 0-6.1204 2.4468-6.1204 5.8124v1.8346z"/><path d="m622.51-153.86c2.4461 1.528 4.8922 3.0559 7.3383 4.5839-8.5665 7.3404-17.123 13.772-25.999 19.275 6.7294-7.3404 12.54-15.3 17.742-23.859-4.5825-2.7565-8.8657-5.2033-13.758-7.6501 7.6376-13.153 13.149-27.534 15.894-42.824 0.61925-4.5838 4.8921-7.6501 9.485-6.7313 4.5825 0.60914 7.6479 4.8936 6.7294 9.4878-3.0654 17.128-8.8761 33.336-17.432 47.718zm-243.73 7.3404c-15.285-22.94-24.162-50.164-24.162-79.836 0-11.325 3.3647-29.062 9.485-52.921 1.2179-4.2845 5.8107-7.041 10.094-5.8124 4.2729 1.2182 7.0286 5.8124 5.8107 10.097-5.8107 22.63-8.8761 38.839-8.8761 48.637 0 26.605 8.2568 51.083 22.025 71.577-4.5928 2.7565-9.1754 5.8124-13.459 9.1781 4.2833 6.4216 9.4747 12.544 14.986 18.046-8.2568-3.9748-16.214-8.2592-23.553-13.153 2.7557-2.1371 5.2018-3.9747 7.6479-5.8124zm267.89 10.396c47.394 39.768 77.666 99.73 77.666 166.71 0 51.094-17.732 98.502-47.394 135.51-18.041-48.017-58.407-66.074-103.97-66.074-56.27 0-82.568-22.63-82.568-64.536 0-42.215 24.461-47.728 38.838-50.784 14.367-3.056 35.473-11.016 40.675-15.29 5.1915-3.9851 2.4461-15.61-7.3486-11.016-10.084 4.2844-14.367 4.8936-22.324 2.7565 20.498-0.91879 20.498-10.706 27.227-7.041 7.0286 3.6754 7.9472 1.2285 9.1651 0 3.6743-3.665-0.60894-5.5027 3.3647-12.544 3.9839-7.0307-3.3647-13.452-9.4747-11.625-6.4197 2.1474-16.514 0.61946-31.809-0.91884-7.6376-0.90852-18.65-6.1118-29.663-11.005 49.851-0.3096 95.418-18.666 136.7-54.449-5.2018-4.2845-10.094-7.9599-15.595-11.625 16.514-13.772 32.109-30.59 47.095-50.474 3.3544-4.2845 9.4747-5.2033 14.057-1.8377 4.2832 3.3656 5.2018 9.4878 1.8371 13.762-14.677 19.585-30.272 36.403-46.476 50.474zm-291.14 9.1781c-53.209-37.931-83.484-98.192-90.518-180.47-0.30547-5.513 3.6702-10.097 9.1744-10.706 5.5042-0.3096 10.092 3.665 10.703 9.1781 6.7283 78.607 35.474 134.89 86.855 169.16-5.2018 3.9748-10.404 8.5586-14.986 13.153 27.516 19.275 61.462 32.428 101.22 39.768-3.664 2.4468-6.4196 5.5027-9.7843 8.5586-28.445-15.6-65.446-18.046-89.607 1.528 32.728 36.712 67.592 25.397 79.823 19.275 9.7843-3.665 15.905-3.665 15.905 0-40.066-2.1371-70.039 85.958-70.039 185.07 0 42.525 12.54 77.09 32.728 101.87-75.843-33.956-128.75-110.44-128.75-198.84 0-62.089 25.687-117.77 67.276-157.53zm37.311-28.752c33.027-20.183 71.865-31.808 113.46-31.808 36.392 0 70.947 8.8684 101.22 24.778-18.351 30.89-49.231 53.22-85.014 60.261-12.54 1.2182-25.08 0.91884-38.229-0.61945-10.393-1.2182-20.487-2.7462-30.272-4.8936-25.08-9.1781-46.486-25.996-61.162-47.718zm-37.311 28.752c0.3096 0.3096 0.3096 0.3096 0.60893 0.61941 0.3096-0.3096 0.3096-0.3096 0.61925-0.3096-0.3096-0.3096-0.61925-0.60914-0.91858-0.60914-0.3096 0-0.3096 0-0.3096 0.29928zm291.14-9.1781c0-0.29928-0.3096-0.60913-0.61925-0.60913-0.29928 0-0.29928 0-0.29928 0.3096 0 0 0.29928 0.29928 0.60893 0.60908l0.3096-0.3096zm-267.89-10.396c0.3096 0.3096 0.60893 0.60914 0.60893 0.91884h0.3096c-0.3096-0.3096-0.60893-0.60914-0.60893-0.91884h-0.3096zm243.73-7.3404c0-0.3096-0.3096-0.3096-0.60894-0.60909 0 0.29928-0.3096 0.29928-0.3096 0.60909 0.3096 0 0.60899 0.29928 0.60899 0.29928 0.3096 0 0.3096-0.29928 0.3096-0.29928z"/></g></svg>
