<svg width="600" height="600" viewBox="0 0 600 600" fill="none" xmlns="http://www.w3.org/2000/svg"><rect width="600" height="600" rx="100" fill="#fff"/><path d="M550 300.504C550 430.565 444.655 536 314.706 536S50 321.648 50 191.588C50 61.528 184.757 65.009 314.706 65.009S550 170.444 550 300.504Z" fill="#E8EFE9"/><path d="M483 300.003C483 395.547 405.888 473 310.765 473 215.642 473 117 315.536 117 219.992c0-95.543 98.642-92.985 193.765-92.985C405.888 127.007 483 204.46 483 300.003Z" fill="#9DC08B"/><path d="M483 300.003C483 395.547 405.888 473 310.765 473 215.642 473 117 315.536 117 219.992c0-95.543 98.642-92.985 193.765-92.985C405.888 127.007 483 204.46 483 300.003Z" fill="#9DC08B"/><path d="M483 300.003C483 395.547 405.888 473 310.765 473 215.642 473 117 315.536 117 219.992c0-95.543 98.642-92.985 193.765-92.985C405.888 127.007 483 204.46 483 300.003Z" fill="#9DC08B"/><path d="M413 300.002C413 358.543 365.384 406 306.647 406 247.91 406 187 309.519 187 250.978s60.91-56.974 119.647-56.974c58.737 0 106.353 47.457 106.353 105.998Z" fill="#609966"/><path d="M413 300.002C413 358.543 365.384 406 306.647 406 247.91 406 187 309.519 187 250.978s60.91-56.974 119.647-56.974c58.737 0 106.353 47.457 106.353 105.998Z" fill="#609966"/><path d="M413 300.002C413 358.543 365.384 406 306.647 406 247.91 406 187 309.519 187 250.978s60.91-56.974 119.647-56.974c58.737 0 106.353 47.457 106.353 105.998Z" fill="#609966"/></svg>
