<svg width="330" height="61" viewBox="0 0 330 61" fill="none" xmlns="http://www.w3.org/2000/svg">
<path fill-rule="evenodd" clip-rule="evenodd" d="M12.1496 60.166L3.45016 60.2149L3.45013 60.2142C3.22938 60.2118 2.98229 60.1393 2.91167 59.9271C0.817075 53.6412 -0.835186 37.7824 0.455449 31.3878C1.72255 25.1049 8.87168 22.0207 13.4125 20.0618C13.8111 19.8899 14.1895 19.7266 14.5421 19.5707C15.0755 24.7941 16.6923 27.7117 18.8502 30.3979C20.6629 32.6544 22.854 34.0276 25.1164 34.6775C27.381 35.3283 29.7129 35.2518 31.8043 34.6088C34.0169 33.9291 35.9699 32.6142 37.3074 30.8535C37.4672 30.6421 37.5257 30.3979 37.4782 30.1349C37.4312 29.8708 37.2917 29.6626 37.0681 29.5209L37.0609 29.5163C36.6714 29.2697 36.1682 29.3612 35.888 29.7297C34.7813 31.1884 33.1455 32.2838 31.2835 32.8562C29.4999 33.4037 27.5152 33.4702 25.5907 32.9177C23.6634 32.3638 21.791 31.1863 20.2325 29.2466C18.0638 26.5467 16.4961 22.3784 16.1945 16.3732C16.3812 13.1372 17.12 10.4943 20.5495 9.06868C22.2207 8.3736 24.2621 8.09534 26.4925 8.1496C31.4999 8.27304 37.4075 10.0587 42.3022 12.5865C43.2296 13.0649 44.1024 13.3037 44.9038 13.3609C45.5754 13.4079 46.1954 13.3272 46.756 13.151C47.7274 13.3992 48.7226 13.7079 49.6116 14.0853C49.796 14.1634 49.9848 14.158 50.1636 14.0679C50.3418 13.9782 50.4611 13.8298 50.5121 13.6333C50.5401 13.5266 50.5675 13.4199 50.5956 13.3109C50.678 12.9933 50.5321 12.6669 50.242 12.5214C49.8101 12.3046 49.2928 12.1129 48.7327 11.949C48.9198 11.7619 49.0905 11.5621 49.2418 11.3537C49.8659 11.4648 50.4792 11.5376 51.1644 11.5534C51.5187 11.5621 51.8154 11.2882 51.8431 10.9282L51.8495 10.8496C51.8639 10.655 51.8063 10.4813 51.6772 10.3358C51.548 10.1907 51.385 10.1144 51.1932 10.1104C50.7978 10.1017 50.3789 10.042 49.9494 9.95985C50.0502 9.63818 50.1116 9.31473 50.1313 8.99958C50.5553 2.18858 41.1414 0.503815 35.785 3.43261C35.5268 3.57336 34.8816 2.30835 35.3251 2.02247C40.6561 -1.41582 48.8557 -0.21011 53.2609 3.68046C54.0784 4.40308 54.8513 5.2639 55.5608 6.28249C56.9655 8.29915 57.8209 10.4904 58.1218 12.7509C58.4246 15.0235 58.168 17.3784 57.3454 19.7076C55.8438 23.9586 53.7676 26.9993 48.0487 28.2262C47.9635 28.245 47.9006 28.3064 47.879 28.3923C47.8579 28.4787 47.8843 28.5646 47.9505 28.6217C48.5711 29.1668 49.6151 29.5524 50.8837 29.9619C51.0312 30.0102 51.1372 30.1218 51.1796 30.274C51.222 30.4261 51.1897 30.5775 51.0883 30.6958C50.9224 30.8907 50.7332 31.1332 50.5456 31.3737C50.3592 31.6127 50.1743 31.8496 50.0155 32.0357C46.5015 36.1525 43.5237 39.6411 41.2716 43.5529L40.9495 44.1247C39.3366 47.049 38.1718 53.9274 37.4447 58.2212C37.4001 58.4843 37.3572 58.7377 37.316 58.9799C37.2455 59.394 37.0387 59.7495 36.7471 60.0002C36.4536 60.2519 36.0764 60.4003 35.666 60.4014H27.0437C25.2188 60.472 24.5401 52.3327 24.3227 49.7248C24.3138 49.6185 24.3057 49.5213 24.2983 49.4343C24.2731 49.1373 24.2613 48.8658 24.2509 48.6274C24.2138 47.7736 24.1951 47.3432 23.6419 47.6791C23.2054 47.944 22.9097 48.5073 22.5808 49.1342C22.0727 50.1024 21.4851 51.222 20.1761 51.6268C18.7999 52.0521 18.028 51.2479 17.4483 50.644C17.1832 50.3678 16.9583 50.1334 16.7341 50.0779C15.4931 49.7701 13.3709 57.6169 13.5338 59.1817C13.6108 59.9207 12.2927 60.1843 12.1496 60.166ZM40.356 19.3902C39.5906 18.4218 39.736 17.0081 40.6799 16.2319C41.6244 15.4565 43.0102 15.6118 43.7762 16.5801C44.2277 17.1512 43.7744 17.2582 43.1328 17.4097C42.6875 17.5148 42.1515 17.6414 41.7645 17.9594C41.3497 18.3002 41.1753 18.8047 41.0451 19.181C40.879 19.6613 40.785 19.933 40.356 19.3902ZM43.2967 60.4H38.9422C39.1237 60.063 39.2194 59.7557 39.2872 59.3556C39.4352 58.4882 39.584 57.2612 39.7478 55.9109C40.1195 52.847 40.5682 49.149 41.2578 47.58C41.5962 50.2559 42.8035 53.6021 43.8027 56.3715C44.1656 57.3773 44.5011 58.307 44.7575 59.1009C45.1705 60.3794 44.4288 60.407 43.2967 60.4ZM189.137 44.0788V59.7441H180.407V16.6346H189.137V28.2939C189.137 30.2073 188.957 31.8216 188.598 33.137H188.897C190.93 29.0712 194.817 27.0981 199.361 27.0981C206.655 27.0981 210.781 32.1804 210.781 39.4151V59.7441H202.051V41.9861C202.051 37.2028 200.736 33.7947 196.371 33.7947C191.468 33.7947 189.137 37.9801 189.137 44.0788ZM83.9329 31.4629V59.7441H75.5023V17.8903H89.0749L96.1901 43.4211C96.7282 45.3344 97.3261 48.5632 97.5055 50.1775H97.8045C97.9838 48.623 98.5817 45.5138 99.1797 43.6005L106.235 17.8903H119.808V59.7441H111.377V32.001C111.377 29.9083 111.377 28.0548 111.497 25.6631H111.078C110.779 27.4569 110.181 30.566 109.643 32.4793L101.631 59.7441H93.4397L85.607 32.001C85.0091 29.9083 84.4112 27.2177 84.1721 25.6631H83.7535C83.7731 26.2898 83.7991 26.9293 83.8252 27.5712L83.8253 27.5719L83.8253 27.5725L83.8253 27.5732L83.8253 27.5739L83.8254 27.5746L83.8254 27.5753L83.8254 27.576L83.8254 27.5767C83.879 28.8926 83.9329 30.2182 83.9329 31.4629ZM144.487 53.9444C143.232 57.7112 139.046 60.2225 134.323 60.2225C128.762 60.2225 124.218 56.8742 124.218 50.9548C124.218 46.5901 126.67 43.8397 129.898 42.1057C134.502 39.5347 140.661 39.1161 144.547 39.0564V38.9966C144.547 35.5287 141.737 33.7947 138.15 33.7947C134.502 33.7947 130.138 35.5885 127.088 37.6812V30.9248C129.659 29.0712 134.323 27.0981 139.405 27.0981C147.896 27.0981 152.798 31.9412 152.798 39.8336V49.9384L153.337 59.7441H145.085L144.727 53.9444H144.487ZM133.127 50.2373C133.127 52.6888 134.921 54.0042 137.193 54.0042C140.362 54.0042 144.547 51.4929 144.547 45.5138V43.8995C142.514 44.0788 138.927 44.4376 136.595 45.5736C134.442 46.5303 133.127 48.1446 133.127 50.2373ZM169.396 60.1627C172.445 60.1627 175.136 59.4452 177.109 58.2494V52.629C175.375 53.2269 173.94 53.4661 172.744 53.4661C169.815 53.4661 168.439 52.0909 168.439 47.9055V34.2133H177.348V27.696H168.38V18.8469L159.71 20.2819V27.696H154.628V34.2133H159.71V50.1177C159.71 58.0102 164.194 60.1627 169.396 60.1627ZM232.061 60.4018C237.323 60.4018 241.986 58.5483 244.199 56.9937V50.2373C241.628 52.0909 236.964 53.7052 233.018 53.7052C228.055 53.7052 223.69 51.2538 223.451 46.0519H245.693C245.753 44.4974 245.753 43.6005 245.753 42.7036C245.753 33.6154 240.492 27.0981 230.925 27.0981C220.88 27.0981 214.602 33.9741 214.602 43.8397C214.602 53.7052 221.717 60.4018 232.061 60.4018ZM223.511 40.013C224.049 35.6483 227.338 33.3762 231.045 33.3762C234.632 33.3762 237.562 35.5885 238.04 40.013H223.511ZM274.264 50.1775C274.264 56.336 268.524 60.4018 260.393 60.4018C255.789 60.4018 250.707 58.8473 248.195 56.6948V50.058C251.065 52.0311 255.849 53.6454 259.855 53.6454C263.263 53.6454 265.296 52.4496 265.296 50.6559C265.296 48.4735 261.875 47.3944 259.433 46.6238C259.333 46.5921 259.234 46.5609 259.137 46.5303C252.261 44.4376 248.255 41.9861 248.255 36.6049C248.255 30.9248 253.337 27.0981 260.751 27.0981C264.518 27.0981 268.704 28.2341 271.454 29.8485V36.6049C268.823 34.871 264.997 33.8545 261.888 33.8545C258.898 33.8545 257.104 35.0504 257.104 36.6647C257.104 38.6378 259.795 39.4749 262.725 40.312C267.747 41.6872 274.264 43.9592 274.264 50.1775ZM286.452 60.2225C291.175 60.2225 295.361 57.7112 296.616 53.9444H296.856L297.214 59.7441H305.466L304.927 49.9384V39.8336C304.927 31.9412 300.025 27.0981 291.534 27.0981C286.452 27.0981 281.788 29.0712 279.217 30.9248V37.6812C282.267 35.5885 286.631 33.7947 290.279 33.7947C293.866 33.7947 296.676 35.5287 296.676 38.9966V39.0564C292.79 39.1161 286.631 39.5347 282.027 42.1057C278.799 43.8397 276.347 46.5901 276.347 50.9548C276.347 56.8742 280.891 60.2225 286.452 60.2225ZM289.322 54.0042C287.05 54.0042 285.256 52.6888 285.256 50.2373C285.256 48.1446 286.571 46.5303 288.724 45.5736C291.056 44.4376 294.643 44.0788 296.676 43.8995V45.5138C296.676 51.4929 292.491 54.0042 289.322 54.0042ZM319.178 46.2313V59.7441H310.448V27.696H317.743C317.803 29.9083 317.803 32.001 317.803 35.1101H318.102C319.118 30.3866 322.466 27.3373 326.233 27.3373C327.489 27.3373 328.924 27.696 330 28.3537V35.9472C328.924 35.5885 327.788 35.3493 326.711 35.3493C321.868 35.3493 319.178 39.1759 319.178 46.2313Z" fill="#EB5441"/>
</svg>
