<svg height="113" width="425" xmlns="http://www.w3.org/2000/svg"><g fill-rule="evenodd"><path d="m58.108 112.214c-30.937 0-56.108-25.17-56.108-56.108.001-30.936 25.171-56.106 56.108-56.106 7.474 0 14.734 1.446 21.578 4.301 1.936.807 2.85 3.03 2.041 4.964-.805 1.937-3.029 2.849-4.963 2.043-5.914-2.465-12.191-3.716-18.656-3.716-26.752 0-48.515 21.763-48.515 48.514.001 26.752 21.764 48.516 48.515 48.516s48.513-21.764 48.513-48.516c0-5.735-.988-11.345-2.939-16.677-.723-1.968.289-4.149 2.258-4.869 1.971-.721 4.15.291 4.871 2.259 2.258 6.171 3.404 12.661 3.404 19.287 0 30.938-25.169 56.108-56.107 56.108" fill="#fff"/><path d="m82.653 50.358-8.738 9.068 4.857 20.277h10.957z" fill="#ffb900"/><path d="m79.09 23.528 3.022 3.019-24.071 25.429-20.487-21.13-11.782 48.857h10.957l6.501-27.134 14.811 16.201 31.766-34.584 3.038 3.06 3.013-17.091-16.769 3.373z" fill="#ffb900"/><g fill="#fff"><path d="m178.20771547 84.83510026v-24.25769025c0-5.97169237-3.05254212-11.3929436-9.0673526-11.3929436-5.92453674 0-9.42457869 5.42125123-9.42457869 11.3929436v24.25769025h-10.95278418v-45.39093402h10.14418938l.8085948 5.51233141c2.33293143-4.59360951 7.45016299-6.24757294 11.66981562-6.24757294 5.29648942 0 10.59426847 2.20572457 13.10645775 8.45329751 3.95012104-6.43105332 9.0673526-8.26981713 14.81263148-8.26981713 12.56739454 0 18.76275251 7.90285637 18.76275251 21.50152454v24.44249064h-10.95278418v-24.44249064c0-5.97301237-2.4244948-11.02730284-8.34903154-11.02730284s-9.60512617 5.23909085-9.60512617 11.21078322v24.25769025z"/><path d="m271.13527914 39.53527317h-10.49776031l-.36087822 6.24886427c-2.51068969-4.50250323-8.16103948-7.34976621-14.08459472-7.34976621-12.9195186-.09108051-23.05765935 8.08767545-23.05765935 23.70590849 0 15.89812131 9.68962912 24.16529908 22.78956716 24.07554792 4.93374596-.09240986 11.84199722-2.66639103 14.35268691-7.99655466l.54003901 6.61717436h10.31859952zm-23.9559806 36.38849701c-7.26527486 0-13.09993804-5.14667326-13.09993804-13.78477953 0-8.63677692 5.83466318-13.68975126 13.09993804-13.68975126 17.22555281 0 17.22555281 27.47453079 0 27.47453079z"/><path d="m289.13608992 39.53524642v23.70724911c0 6.89041428 3.67929981 12.12950513 10.68196296 12.12950513 6.73184192 0 11.3112999-5.78953199 11.3112999-12.67994627v-23.15680797h10.86122082v45.39225403h-9.78309441l-.71832106-6.15517275c-4.57945799 4.59360952-8.797821 6.79801409-14.99188934 6.79801409-10.59297884 0-18.31267342-8.17873695-18.31267342-22.23676607v-23.7983293z"/><path d="m347.13052118 26.76289997v12.86474665h12.2075892v9.64789998h-12.29786294v19.57168054c0 4.31904895 2.33422105 6.43369333 5.74269963 6.43369333 1.70746336 0 3.68187906-.55176114 5.29906867-1.38072286l3.05254211 9.5581398c-3.14281585 1.28568266-5.7465685 1.83744381-9.06735259 1.929844-9.6064158.36696076-15.89075788-5.23777085-15.89075788-16.53963426v-19.57300055h-8.25746817v-9.64789998h8.25746817v-11.66882418z"/><path d="m366.52002793 26.7628932c0 8.72918678 12.92077725 8.72918678 12.92077725 0 0-8.72785744-12.91947927-8.72785744-12.92077725 0zm11.93482257 58.07355414h-10.94627194v-45.48466454h10.94627194z"/><path d="m424.833 79.04688827c-5.11723156 5.14537066-10.50399472 7.16893485-17.05657878 7.16893485-12.8395054 0-23.52017873-7.90285637-23.52017873-23.98444968 0-16.08027331 10.68067333-23.98312968 23.52017873-23.98312968 6.28434208 0 11.13075241 1.83876381 15.97845237 6.70825389l-6.9123894 7.44349542c-2.60246303-2.38920495-5.83684225-3.58380742-8.88938436-3.58380742-7.35988924 0-12.74407316 5.51365142-12.74407316 13.41518779 0 8.63677789 5.74269963 13.23038741 12.56739455 13.23038741 3.50004195 0 7.00137352-1.0098021 9.69282066-3.7659678z"/></g></g></svg>
