<svg height="2500" viewBox="17.787 220.283 206.806 36.027" width="2358" xmlns="http://www.w3.org/2000/svg"><path d="m69.982 230.16v25.578h-11.135v-22.375s-.445-3.246-3.719-3.246h-5.797v25.621h-10.823v-25.621h-9.778v25.621h-10.943v-35.455h40.615c11.354 0 11.58 9.877 11.58 9.877m40.198-9.877h26.448l-12.11 9.833h-14.338zm-29.537 13.334h16.14v-1.625s0-2.32-3.881-2.32h-20.552v-9.388h23.952c12.492 0 11.305 11.539 11.305 11.539v15.969l33.667-27.507h29.629c13.453 0 15.15 8.117 15.15 17.921 0 7.014-.921 17.533-14.38 17.533h-24.519l-.02-27.56-33.858 27.56-32.634-.009c-1.619 0-10.654.58-10.654-11.416.001-11.412 9.036-10.697 10.655-10.697m77.744 12.287h9.424c6.019 0 7.289-2.051 7.289-7.621 0-5.586-1.271-8.166-7.289-8.166h-9.424zm-74.429.961h12.633l.007-5.195h-12.632c-1.04 0-3.062 0-3.062 2.531 0 2.567 2.015 2.664 3.054 2.664m60-.961v9.834h-26.072l11.848-9.834zm52.491-12.287h16.148v-1.625s0-2.32-3.889-2.32h-20.551v-9.388h23.959c12.477 0 11.297 11.539 11.297 11.539v23.907h-26.965c-1.616 0-10.651.58-10.651-11.416 0-11.412 9.036-10.697 10.652-10.697m3.317 13.248h12.627l.014-5.195h-12.633c-1.039 0-3.067 0-3.067 2.531-.001 2.567 2.02 2.664 3.059 2.664" fill="#397fc2"/></svg>