<svg xmlns="http://www.w3.org/2000/svg" width="2500" height="2500" viewBox="0 0 192.756 192.756"><g fill-rule="evenodd" clip-rule="evenodd"><path fill="#fff" d="M0 0h192.756v192.756H0V0z"/><path fill="#ecb731" d="M2.834 99.045l145.924-35.571 8.388 96.112-144.687 7.348-9.625-67.889z"/><path fill="#cc2229" d="M23.708 40.128l123.23 46.366-10.536 76.733-125.504 15.802 12.81-138.901z"/><path d="M38.34 144.564c.195-35.311 19.313-124.53 45.064-124.4 22.695.065 31.41 61.517 31.41 61.517.389.325 8.453-61.387 30.693-61.257 29.326.13 44.543 87.593 44.414 124.399l-15.217-.064c.324-74.003-17.883-115.361-28.809-115.426-8.973 0-21.264 36.026-21.588 107.426l-17.559.262c.326-71.792-13.981-107.883-23.345-107.948-9.364-.065-27.962 43.764-28.222 115.231l-16.841.26z" fill="#467bbd"/><path d="M37.56 138.191c.13-35.375 18.403-124.529 42.918-124.464 21.59.13 29.914 61.517 29.914 61.517.324.39 8.062-61.322 29.262-61.257 27.896.13 42.398 87.593 42.203 124.464l-14.5-.064c.324-74.068-16.973-115.426-27.379-115.426-8.582-.065-20.223 35.96-20.549 107.361l-16.711.326C102.978 58.856 89.386 22.7 80.478 22.7c-8.974-.064-26.597 43.764-26.922 115.165l-15.996.326z" fill="#ecb731"/></g></svg>