<svg height="2500" width="2500" xmlns="http://www.w3.org/2000/svg" viewBox="0 0 450 450"><g fill-rule="evenodd"><path d="M22.73 0C10.176 0 0 13.432 0 29.996V420c0 16.568 10.176 30 22.73 30h404.538C439.822 450 450 436.568 450 420V29.996C450 13.432 439.822 0 427.268 0z" fill="#d52b1e"/><path d="M224.539 200.992c6.123-45.277 26.308-126.938 64.803-126.938 44.942 0 97.747 150.963 97.734 275.946h-41.444c0-131.088-32.108-249.202-55.212-249.207-24.1-.002-45.22 80.343-45.22 233.418h-41.388c0-153.075-20.993-233.418-45.222-233.418-23.061 0-55.146 118.141-55.146 249.207H62c.039-125.09 52.71-275.961 97.732-275.946 38.443.013 58.634 81.651 64.807 126.938" fill="#fdc82f"/><path d="M400.955 339.34h1.894c1.59 0 3.048-.077 3.048-1.928 0-1.555-1.324-1.79-2.554-1.79h-2.388zm-1.81-5.188h4.5c2.762 0 4.061 1.096 4.061 3.336 0 2.119-1.327 3-3.048 3.184l3.315 5.162h-1.941l-3.16-5.023h-1.917v5.023h-1.81zm3.886 14.382c4.59 0 8.16-3.688 8.16-8.576 0-4.796-3.57-8.483-8.16-8.483-4.657 0-8.21 3.687-8.21 8.483 0 4.888 3.553 8.576 8.21 8.576zm0-18.53c5.424 0 9.969 4.302 9.969 9.954 0 5.737-4.545 10.042-9.97 10.042-5.451 0-10.03-4.305-10.03-10.042 0-5.652 4.579-9.954 10.03-9.954z" clip-rule="evenodd" fill="#fdc82f" stroke-width="2.8" image-rendering="optimizeQuality" shape-rendering="geometricPrecision" text-rendering="geometricPrecision"/></g></svg>