<svg clip-rule="evenodd" fill-rule="evenodd" height="2139" image-rendering="optimizeQuality" shape-rendering="geometricPrecision" text-rendering="geometricPrecision" viewBox="0 0 48.157 41.194" width="2500" xmlns="http://www.w3.org/2000/svg"><g fill="#f1bb00"><path d="M48.134 39.985c-.212-10.311-1.873-20.235-4.679-27.943C40.627 4.277 37.097 0 33.518 0c-2.224 0-4.313 1.618-6.212 4.812-1.176 1.981-2.272 4.582-3.225 7.643-.956-3.061-2.05-5.662-3.228-7.643C18.956 1.618 16.866 0 14.642 0c-3.582 0-7.11 4.277-9.937 12.042C1.9 19.75.238 29.674.026 39.984L0 41.194h7.187l.014-1.168c.279-21.542 5.41-35.205 7.5-35.205 1.408 0 5.006 9.461 5.552 32.885l.028 1.154h7.598l.027-1.154C28.451 14.282 32.05 4.82 33.458 4.82c2.091 0 7.22 13.663 7.5 35.205l.015 1.169h7.184z"/><path d="M47.59 39.998c-.21-10.253-1.862-20.11-4.647-27.76C40.243 4.813 36.807.555 33.518.555c-3.6 0-6.99 5.002-9.437 13.819C21.633 5.558 18.242.556 14.64.556c-3.287 0-6.724 4.258-9.426 11.681C2.43 19.887.78 29.745.57 39.998l-.013.639H6.65l.007-.618c.283-21.831 5.441-35.755 8.044-35.755 2.23 0 5.589 11.616 6.097 33.427l.016.613h6.533l.014-.613c.508-21.81 3.869-33.427 6.097-33.427 2.604 0 7.762 13.924 8.044 35.755l.008.618h6.093z"/><path d="M14.574 2.414v1.232c-3.553.372-8.27 16.263-8.529 36.365l-2.417-2.474v-.062c.768-19.71 6.14-34.903 10.946-35.06z"/><path d="M14.45 1.192h.413c3.563.24 6.954 6.278 9.212 15.606v18.026c-.88-18.619-4.796-32.413-9.426-32.413-.955 0-1.934.6-2.896 1.714V2.387c.9-.733 1.806-1.143 2.697-1.195zM35.135 2.963V4.69c-.574-.687-1.14-1.053-1.677-1.053-3.43 0-6.263 14.82-6.71 34.041l-2.665-2.729v-.043c.87-18.66 4.791-32.495 9.428-32.495.536 0 1.08.19 1.624.552z"/><path d="M46.969 39.72v.283l-2.423-2.478-.01.01c-.706-18.295-5.379-32.713-9.888-34.85v-1.31C40.422 3.29 46.5 19.476 46.968 39.72z"/></g></svg>