<svg width="32" height="32" viewBox="0 0 32 32" fill="none" xmlns="http://www.w3.org/2000/svg">
  <rect width="32" height="32" fill="#1b1b1b" rx="7.125" ry="7.125"></rect>
  <g style="" transform="matrix(1.131585, 0, 0, 1.131585, -2.106373, -2.483026)">
    <path fill-rule="evenodd" clip-rule="evenodd" d="M10.5715 7.74275L11.0003 7.5H21.0008L21.3543 8.35355L19.2709 10.437L18.9173 10.5834H12.9422L9.30034 16.3337L12.9422 22.0841H18.9173L19.2709 22.2305L21.3543 24.3139L21.0008 25.1675H11.0003L10.5715 24.9247L5.57129 16.591V16.0765L10.5715 7.74275Z" fill="white"></path>
    <path fill-rule="evenodd" clip-rule="evenodd" d="M20.4121 12.6466L22.4347 10.624L23.217 10.7203L26.4305 16.0764V16.5909L23.217 21.947L22.4347 22.0433L20.4121 20.0207L20.3433 19.3997L22.2848 16.3337L20.3433 13.2677L20.4121 12.6466Z" fill="#ffa31a"></path>
  </g>
</svg>
