<svg viewBox="0 0 162 25" fill="none" xmlns="http://www.w3.org/2000/svg">
<path d="M59.2069 14.2074C59.2069 12.5978 59.9786 11.6497 61.4559 11.6497C62.845 11.6497 63.308 12.6419 63.308 13.9208V20.7781H66.439V13.568C66.439 10.878 65.0279 8.9597 62.2497 8.9597C60.596 8.9597 59.4274 9.46683 58.4131 10.5913C57.7516 9.57708 56.6271 8.9597 55.0616 8.9597C53.4079 8.9597 52.2614 9.64323 51.7322 10.6354V9.22429H48.8438V20.7781H51.9747V14.1413C51.9747 12.5978 52.7685 11.6497 54.2238 11.6497C55.6129 11.6497 56.0759 12.6419 56.0759 13.9208V20.7781H59.2069V14.2074Z" fill="white"/>
<path d="M79.2905 15.9052C79.2905 15.9052 79.3346 15.4863 79.3346 14.9791C79.3346 11.5615 77.0194 8.9597 73.6018 8.9597C70.1841 8.9597 67.8028 11.5615 67.8028 14.9791C67.8028 18.5291 70.2062 21.0427 73.6238 21.0427C76.2918 21.0427 78.4085 19.4331 79.092 17.0959H75.939C75.5641 17.9337 74.6601 18.3527 73.712 18.3527C72.1465 18.3527 71.1322 17.4928 70.9117 15.9052H79.2905ZM73.5797 11.4733C75.035 11.4733 75.9831 12.3553 76.2036 13.6562H70.9558C71.2204 12.3332 72.1465 11.4733 73.5797 11.4733Z" fill="white"/>
<path d="M79.7962 11.9143H81.1853V20.7781H84.3163V9.22429H79.7962V11.9143ZM82.7508 7.72495C83.8533 7.72495 84.647 6.95322 84.647 5.85076C84.647 4.7483 83.8533 3.95453 82.7508 3.95453C81.6483 3.95453 80.8546 4.7483 80.8546 5.85076C80.8546 6.95322 81.6483 7.72495 82.7508 7.72495Z" fill="white"/>
<path d="M90.7996 18.0881C90.7114 18.0881 90.5791 18.1101 90.3807 18.1101C89.6751 18.1101 89.5869 17.7794 89.5869 17.2943V4.24117H86.4559V17.5148C86.4559 19.8079 87.3379 20.8222 89.8295 20.8222C90.2484 20.8222 90.6453 20.7781 90.7996 20.756V18.0881Z" fill="white"/>
<path d="M91.1559 11.9143H92.545V20.7781H95.676V9.22429H91.1559V11.9143ZM94.1105 7.72495C95.2129 7.72495 96.0067 6.95322 96.0067 5.85076C96.0067 4.7483 95.2129 3.95453 94.1105 3.95453C93.008 3.95453 92.2142 4.7483 92.2142 5.85076C92.2142 6.95322 93.008 7.72495 94.1105 7.72495Z" fill="white"/>
<path d="M101.96 20.899C105.003 20.899 106.436 19.2894 106.436 17.5916C106.436 12.8731 99.4908 15.4969 99.4908 12.388C99.4908 11.3737 100.351 10.5138 102.093 10.5138C103.879 10.5138 104.716 11.484 104.849 12.6967H106.414C106.282 11.1753 105.246 9.14675 102.137 9.14675C99.4688 9.14675 97.9694 10.7343 97.9694 12.4541C97.9694 17.0624 104.915 14.4165 104.915 17.6357C104.915 18.7602 103.857 19.5319 101.96 19.5319C100.02 19.5319 99.0498 18.5618 98.9396 17.1286H97.3521C97.4843 19.0909 98.7191 20.899 101.96 20.899Z" fill="white"/>
<path d="M118.87 15.4749C118.87 15.4749 118.892 15.1221 118.892 14.8795C118.892 11.7045 116.842 9.14675 113.49 9.14675C110.116 9.14675 107.978 11.9029 107.978 15.0118C107.978 18.1649 109.962 20.899 113.512 20.899C116.18 20.899 118.032 19.2673 118.694 17.1286H117.062C116.577 18.4956 115.254 19.4878 113.534 19.4878C111.175 19.4878 109.698 17.7459 109.543 15.4749H118.87ZM113.49 10.5579C115.695 10.5579 117.128 12.0352 117.327 14.196H109.587C109.852 12.1234 111.307 10.5579 113.49 10.5579Z" fill="white"/>
<path d="M128.611 15.2985V16.3568C128.611 18.2751 127.222 19.5981 124.554 19.5981C122.9 19.5981 121.996 18.9146 121.996 17.4373C121.996 16.6876 122.349 16.1143 122.9 15.8056C123.473 15.4969 124.245 15.2985 128.611 15.2985ZM124.377 20.899C126.318 20.899 127.883 20.2816 128.677 19.0027V20.6344H130.176V13.292C130.176 10.8004 128.743 9.14675 125.502 9.14675C122.393 9.14675 121.026 10.7122 120.739 12.7187H122.261C122.569 11.1312 123.782 10.4917 125.436 10.4917C127.552 10.4917 128.611 11.3737 128.611 13.2699V13.9976C125.061 13.9976 123.584 14.0637 122.481 14.5047C121.202 15.0118 120.453 16.1364 120.453 17.4814C120.453 19.4437 121.709 20.899 124.377 20.899Z" fill="white"/>
<path d="M138.735 9.32314C138.735 9.32314 138.471 9.30109 138.36 9.30109C136.288 9.30109 135.185 10.3815 134.766 11.1532V9.41134H133.267V20.6344H134.832V14.2622C134.832 11.9249 136.266 10.7784 138.184 10.7784C138.471 10.7784 138.735 10.8004 138.735 10.8004V9.32314Z" fill="white"/>
<path d="M139.003 15.0339C139.003 18.0987 141.119 20.899 144.537 20.899C147.58 20.899 149.344 18.8705 149.785 16.6435H148.197C147.734 18.3854 146.455 19.4878 144.537 19.4878C142.178 19.4878 140.59 17.6136 140.59 15.0339C140.59 12.4321 142.178 10.5579 144.537 10.5579C146.455 10.5579 147.734 11.6604 148.197 13.4022H149.785C149.344 11.1753 147.58 9.14675 144.537 9.14675C141.119 9.14675 139.003 11.947 139.003 15.0339Z" fill="white"/>
<path d="M153.47 4.09747H151.905V20.6344H153.47V13.9976C153.47 11.7045 154.947 10.5138 156.844 10.5138C158.85 10.5138 159.798 11.7486 159.798 13.7771V20.6344H161.364V13.4684C161.364 10.9768 159.886 9.14675 157.108 9.14675C155.014 9.14675 153.867 10.2933 153.47 10.9768V4.09747Z" fill="white"/>
<path d="M0 24.4968L7.60256 5.04523C8.67392 2.30411 11.3161 0.5 14.2591 0.5H18.8426L11.24 19.9516C10.1687 22.6927 7.52653 24.4968 4.58348 24.4968H0Z" fill="url(#paint0_linear_2735_3490)"/>
<path d="M11.1533 24.4969L18.7558 5.04529C19.8272 2.30417 22.4693 0.500057 25.4124 0.500057H29.9959L22.3933 19.9517C21.3219 22.6928 18.6798 24.4969 15.7368 24.4969H11.1533Z" fill="url(#paint1_linear_2735_3490)"/>
<path d="M22.3072 24.4969L29.9098 5.04529C30.9811 2.30417 33.6233 0.500057 36.5663 0.500057H41.1498L33.5472 19.9517C32.4759 22.6928 29.8337 24.4969 26.8907 24.4969H22.3072Z" fill="url(#paint2_linear_2735_3490)"/>
<defs>
<linearGradient id="paint0_linear_2735_3490" x1="41.1499" y1="-1.33294" x2="-1.49296e-06" y2="21.9145" gradientUnits="userSpaceOnUse">
<stop stop-color="#FF5CAA"/>
<stop offset="1" stop-color="#FF4E62"/>
</linearGradient>
<linearGradient id="paint1_linear_2735_3490" x1="41.1499" y1="-1.33294" x2="-1.49296e-06" y2="21.9145" gradientUnits="userSpaceOnUse">
<stop stop-color="#FF5CAA"/>
<stop offset="1" stop-color="#FF4E62"/>
</linearGradient>
<linearGradient id="paint2_linear_2735_3490" x1="41.1499" y1="-1.33294" x2="-1.49296e-06" y2="21.9145" gradientUnits="userSpaceOnUse">
<stop stop-color="#FF5CAA"/>
<stop offset="1" stop-color="#FF4E62"/>
</linearGradient>
</defs>
</svg>
