<svg xmlns="http://www.w3.org/2000/svg" width="2500" height="2500" viewBox="0 0 192.756 192.756"><g fill-rule="evenodd" clip-rule="evenodd"><path fill="#fff" d="M0 0h192.756v192.756H0V0z"/><path d="M46.842 127.879c1.938 2.422 21.063 27.293 49.536 27.293 20.702 0 38.962-10.795 49.442-27.043l-48.645-18.617V98.123l48.268 27.494c1.168.584 1.557.293.486-.584l-42.623-31.095 4.186-2.336 40.186 33.439a58.361 58.361 0 0 0 7.494-28.663c0-31.924-25.67-58.043-57.424-58.776l8.967 51.956-9.929 5.84-.556-57.076c0-.681-.486-.681-.584 0l-5.479 53.961-4.088-2.434 8.328-52.228c-31.476 1.046-56.822 27.034-56.822 58.756a58.362 58.362 0 0 0 7.336 28.382l39.99-33.255 4.186 2.434-42.598 31.054c-1.168.777-.876 1.168.487.486l48.341-27.453v11.389l-48.261 18.398c-.317.12.028-.021-.224.067zm49.536-93.245c34.007 0 61.743 27.737 61.743 61.744s-27.736 61.743-61.743 61.743-61.744-27.736-61.744-61.743 27.737-61.744 61.744-61.744zm0 146.458c46.659 0 84.714-38.055 84.714-84.714 0-46.658-38.055-84.713-84.714-84.713-46.658 0-84.713 38.055-84.713 84.713 0 46.659 38.055 84.714 84.713 84.714zm0 3.16c48.399 0 87.874-39.475 87.874-87.874 0-48.399-39.475-87.874-87.874-87.874-48.399 0-87.874 39.475-87.874 87.874 0 48.399 39.475 87.874 87.874 87.874zm72.526-121.649c-.172-.354-.582-.361-.693-.087-.4 1.334-.23 2.356.504 3.943 1.432 3.129 2.643 6.354 3.496 9.729.125.374.404.437.625.217.836-1.55.541-3.633-.562-6.478-1.02-2.486-2.114-4.94-3.37-7.324zm-7.006 17.089c.234.088.486-.114.402-.442l-3.145-8.43c-.506-1.336-1.543-2.228-2.635-2.483-.316-.089-.57.167-.412.422.955 2.16 1.855 4.345 2.664 6.568.765 1.974 1.853 3.776 3.126 4.365zm14.625 12.925c-.02-.393-.395-.561-.604-.353-.895 1.07-1.139 2.077-1.086 3.825.088 3.44-.064 6.88-.605 10.321-.031.393.201.559.49.443 1.377-1.096 1.924-3.127 2.027-6.178.038-2.685-.005-5.372-.222-8.058zm-13.154 12.965c.182.174.492.086.543-.248l.418-8.988c.061-1.427-.543-2.653-1.447-3.317-.256-.206-.59-.071-.547.226.031 2.363.002 4.725-.129 7.088-.07 2.112.221 4.196 1.162 5.239zm8.486 18.199c.146-.363-.127-.672-.402-.57-1.258.602-1.898 1.416-2.576 3.027-1.352 3.166-2.92 6.23-4.842 9.137-.191.344-.051.592.26.607 1.709-.426 3.051-2.045 4.412-4.777 1.15-2.428 2.229-4.889 3.148-7.424zm-17.353 6.328c.092.232.412.283.596 0 1.373-2.668 2.744-5.336 4.117-8.002.646-1.273.609-2.641.062-3.619-.148-.295-.506-.309-.59-.021a105.779 105.779 0 0 1-3.062 6.393c-.945 1.892-1.547 3.91-1.123 5.249zm7.465-67.854c.053.352-.24.594-.496.428-2.277-1.622-3.504-3.624-3.822-6.476-.002-.362.318-.489.621-.326 2.261 1.787 3.408 3.767 3.697 6.374zm-6.928 88.52c.271-.285.133-.672-.162-.678-1.393.094-2.287.613-3.514 1.859-2.426 2.443-5.016 4.711-7.873 6.701-.307.248-.268.531.016.66 1.746.236 3.59-.773 5.865-2.809 1.967-1.828 3.877-3.717 5.668-5.733zm-18.463-.533c0 .25.277.414.555.219l6.781-5.912c1.072-.945 1.543-2.229 1.396-3.34-.029-.328-.357-.475-.541-.24a102.94 102.94 0 0 1-5.207 4.809c-1.578 1.41-2.88 3.062-2.984 4.464zm32.834-68.886c.287-.182.553-.345.791-.65.691-1 .629-2.473.174-4.056-1.074-3.196-2.057-6.256-3.395-9.34-.717-1.558-1.102-3.88-.773-5.02.512-1.78 1.301-3.471 1.693-5.2.145-.443.77-.354 1.111.18 2.006 3.38 3.674 6.904 5.188 10.493 1.791 3.98 1.857 8.26.086 11.417-1.123 1.851-2.914 3.545-4.451 4.588a.422.422 0 0 0-.188.419c.164 1.191.369 2.394.51 3.604.023.302.252.335.383.235 1.053-.812 2.004-1.801 2.945-2.843a.743.743 0 0 0 .186-.755 2.027 2.027 0 0 1 1.951-2.556c1.113 0 2.021.909 2.021 2.023a2.026 2.026 0 0 1-2.658 1.92c-.215-.077-.572.001-.75.213-.82.764-1.609 1.654-2.328 2.493-.662.794-1.016 1.757-1.223 2.733-.135.637-.146 1.097-.119 1.737a73.44 73.44 0 0 1-1.196 16.77c-.045.186.057.334.189.311a4.054 4.054 0 0 0 1.047-.297c1.029-.648 1.551-2.027 1.752-3.662.268-3.361.566-6.562.547-9.923-.047-1.714.51-4.001 1.26-4.919 1.168-1.437 2.559-2.682 3.6-4.118.307-.351.848-.022.951.603.518 3.896.668 7.791.65 11.686.084 4.365-1.535 8.328-4.404 10.533-1.76 1.262-4.072 2.117-5.895 2.473-.131.021-.293.156-.322.301a71.021 71.021 0 0 1-.844 3.289c-.121.355-.01.582.385.453 1.326-.389 2.777-.918 3.982-1.576.256-.127.402-.346.424-.652a2.05 2.05 0 0 1 .107-.527 2.027 2.027 0 0 1 2.576-1.242 2.025 2.025 0 0 1 1.242 2.578 2.027 2.027 0 0 1-3.142.935c-.178-.145-.541-.189-.777-.047-1.027.451-2.064 1.029-3.021 1.586-.949.566-2.039 1.594-2.836 2.619-.357.457-.498.758-.693 1.291a73.617 73.617 0 0 1-7.645 15.129c-.072.104-.055.232.07.266.248.057.5.078.77.08 1.205-.16 2.252-1.199 3.115-2.602 1.639-2.947 3.242-5.734 4.621-8.799.67-1.578 2.127-3.428 3.191-3.951 1.658-.82 3.441-1.375 4.984-2.248.426-.193.779.33.615.943-1.148 3.758-2.631 7.363-4.266 10.898-1.738 4.004-4.857 6.936-8.385 7.75-1.975.387-4.238.256-5.998-.113-.125-.027-.271.033-.328.115a74.448 74.448 0 0 1-2.445 3.227c-.088.115-.111.223.07.252 1.426.188 3.066.299 4.508.168a.736.736 0 0 0 .648-.43 2.028 2.028 0 0 1 3.17-.554c.816.756.869 2.041.111 2.859a2.025 2.025 0 0 1-3.255-.393c-.105-.203-.42-.389-.693-.352-1.121.002-2.305.121-3.402.25-.906.119-2.027.486-3.031.961-.715.338-.957.57-1.482 1.143a74.497 74.497 0 0 1-13.414 11.463c-.111.092-.133.234-.033.316.289.229.555.385.91.533 1.18.297 2.537-.281 3.857-1.266 2.611-2.131 5.131-4.129 7.543-6.469 1.207-1.219 3.246-2.396 4.426-2.49 1.846-.15 3.707-.006 5.465-.248.465-.021.602.596.223 1.104-2.457 3.066-5.166 5.869-7.992 8.553-3.094 3.076-7.076 4.648-10.654 4.102-2.131-.4-4.35-1.48-5.867-2.553a.306.306 0 0 0-.352-.002 73.725 73.725 0 0 1-3.658 2.096c-.176.111-.303.047-.381-.133l-.346-.688c-.082-.189-.006-.344.172-.441a72.65 72.65 0 0 0 3.512-2.018c.131-.088.168-.203.143-.316-.326-1.662-.332-3.033-.25-4.881.062-2.691.734-5.434 2.422-7.086 2.449-2.256 4.391-3.52 5.732-4.916 1.15-1.17 2.037-2.328 3.047-3.572.277-.299.797-.301.969.162 2.016 4.916.627 8.059-2.352 10.58-2.096 1.729-4.234 3.412-6.328 5.141-.939.885-1.391 1.992-1.229 3.18.014.166.141.252.246.176a73.022 73.022 0 0 0 13.168-11.248c.492-.533.602-.908.762-1.465.447-1.711.5-3.467-.053-5.301-.066-.266-.355-.49-.584-.514a2.026 2.026 0 0 1-1.568-2.881c.482-1.004 1.693-1.432 2.699-.951s1.432 1.693.951 2.699c-.08.166-.18.316-.297.449a.74.74 0 0 0-.158.762c.359 1.213.744 2.389 1.254 3.479.033.096.139.092.195.012.814-1.014 1.557-2.055 2.365-3.113.068-.074.051-.236-.002-.332-1.053-1.555-1.594-2.885-2.246-4.76-.938-2.525-1.324-5.322-.369-7.48 1.443-3 2.781-4.893 3.512-6.688.635-1.51 1.031-2.916 1.51-4.443.148-.381.629-.574.961-.207 3.689 3.82 3.561 7.256 1.725 10.699-1.309 2.381-2.674 4.734-3.98 7.115-.605 1.297-.551 2.627.248 3.744.086.121.205.113.285.012 3.561-4.672 5.846-10.105 7.82-15.67.121-.354.143-.723.086-1.127-.271-1.742-.922-3.369-2.156-4.828-.168-.219-.523-.311-.74-.24a2.025 2.025 0 0 1-2.586-2.018c.041-1.114.984-1.988 2.098-1.947a2.025 2.025 0 0 1 1.853 2.627c-.092.293-.035.551.156.762.74.883 1.486 1.729 2.293 2.473.209.188.363.119.428-.182.32-1.127.613-2.264.879-3.412.045-.139-.045-.309-.146-.395-1.383-.896-2.361-1.83-3.613-3.141-1.902-1.904-3.418-4.287-3.445-6.648.064-3.328.494-5.605.414-7.541-.051-1.639-.273-3.082-.475-4.67-.023-.408.334-.785.787-.588 4.945 1.942 6.256 5.119 6.018 9.016-.201 2.707-.465 5.416-.664 8.125-.01 1.301.486 2.4 1.473 3.104.146.113.234-.012.254-.135a72.206 72.206 0 0 0 1.232-14.659c-.055-2.771-2.342-5.807-4.668-7.181-.23-.15-.596-.12-.779.018a2.026 2.026 0 0 1-3.105-1.052 2.026 2.026 0 0 1 1.336-2.529A2.026 2.026 0 0 1 164.647 86c.008.307.148.53.398.667 1.17.697 2.336 1.344 3.539 1.807.195.067.264-.077.23-.299a71.144 71.144 0 0 0-.529-3.835.355.355 0 0 0-.279-.26c-1.623-.282-2.891-.757-4.557-1.47-2.498-1.005-4.828-2.601-5.779-4.762-1.248-3.086-1.746-5.35-2.58-7.098-.689-1.487-1.463-2.726-2.27-4.108-.184-.366-.002-.853.492-.85 5.311-.156 7.762 2.251 9.074 5.928.879 2.569 1.699 5.164 2.578 7.734.508 1.21 1.406 2.03 2.604 2.282.141.034.201-.128.178-.282a71.577 71.577 0 0 0-4.312-13.677c-.365-.905-.875-1.472-1.654-2.087-4.129-3.347-6.322-6.314-6.756-13.111-.012-.433.221-.511.598-.306 4.693 2.284 9.33 4.622 8.691 12.501-.078.979-.012 1.579.395 2.479a72.952 72.952 0 0 1 4.391 13.942c.024.185.178.259.311.161zm-27.385-37.82l2.588 2.281c-.705.937-1.039 1.82-1.002 2.653.037.828.418 1.635 1.15 2.42.773.83 1.535 1.294 2.279 1.384.746.095 1.354-.077 1.824-.515.303-.283.475-.611.52-.986.051-.375-.053-.857-.311-1.444-.174-.4-.633-1.263-1.367-2.586-.947-1.703-1.43-3.066-1.449-4.088-.029-1.44.461-2.632 1.473-3.576.65-.607 1.43-.989 2.342-1.15.91-.158 1.838-.028 2.781.388.943.422 1.873 1.119 2.787 2.101 1.498 1.606 2.271 3.138 2.326 4.605.051 1.467-.49 2.767-1.627 3.904l-2.518-2.474c.555-.724.805-1.402.752-2.032-.049-.632-.414-1.31-1.092-2.036-.699-.75-1.398-1.197-2.104-1.331a1.266 1.266 0 0 0-1.174.327c-.303.283-.443.652-.418 1.108.029.58.48 1.638 1.357 3.167.873 1.533 1.432 2.747 1.678 3.642.242.897.248 1.77.018 2.625-.234.852-.756 1.654-1.561 2.406a5.122 5.122 0 0 1-2.625 1.307c-1.02.188-2.031.059-3.033-.396-1.006-.453-2.027-1.236-3.062-2.346-1.506-1.616-2.291-3.203-2.352-4.765s.547-3.095 1.82-4.593zM127.5 40.245l10.27-14.135 10.479 7.613-1.738 2.393-7.625-5.54-2.277 3.133 7.096 5.155-1.729 2.379-7.096-5.155-2.795 3.847 7.895 5.736-1.73 2.383-10.75-7.809zm-5.109-17.89l-4.334 10.727 2.439.986c.912.369 1.594.586 2.043.646.582.081 1.111.037 1.592-.138.479-.175.973-.585 1.488-1.219.512-.636 1.025-1.582 1.531-2.834s.779-2.256.832-3.016c.049-.761-.049-1.411-.295-1.944-.246-.539-.65-.995-1.207-1.374-.414-.29-1.289-.7-2.623-1.24l-1.466-.594zm-2.164-4.063l5.979 2.415c1.348.544 2.332 1.061 2.957 1.554a5.789 5.789 0 0 1 1.836 2.479c.393.987.555 2.071.492 3.248-.068 1.179-.406 2.525-1.02 4.045-.539 1.332-1.17 2.415-1.893 3.247-.879 1.014-1.84 1.734-2.889 2.158-.791.326-1.729.446-2.82.366-.812-.062-1.824-.338-3.035-.827l-6.152-2.485 6.545-16.2zm-20.334 13.96l2.877-17.233 12.775 2.133-.486 2.917-9.297-1.552-.637 3.82 8.65 1.444-.484 2.901-8.65-1.444-.783 4.69 9.625 1.607-.484 2.905-13.106-2.188zm-3.65-6.438l3.498.78c-.355 1.946-1.1 3.433-2.234 4.463-1.131 1.026-2.635 1.623-4.503 1.786-2.31.202-4.279-.421-5.904-1.868-1.625-1.45-2.561-3.545-2.8-6.28-.254-2.897.299-5.212 1.654-6.947 1.355-1.731 3.25-2.706 5.69-2.92 2.127-.186 3.913.291 5.353 1.435.858.672 1.543 1.69 2.063 3.049l-3.408 1.135c-.282-.886-.773-1.562-1.476-2.027-.698-.466-1.515-.655-2.447-.574-1.289.113-2.298.667-3.019 1.665-.722.994-.992 2.528-.811 4.604.193 2.201.723 3.734 1.599 4.597.872.867 1.942 1.243 3.207 1.132.936-.082 1.712-.448 2.333-1.102.62-.651 1.02-1.63 1.205-2.928zm-24.033.519l2.507-.719c1.626-.467 2.625-.825 2.992-1.078.363-.252.612-.582.746-.984.13-.401.128-.854-.017-1.357-.163-.567-.445-.977-.846-1.239-.401-.262-.89-.358-1.468-.294-.284.043-1.114.261-2.491.655l-2.644.758 1.221 4.258zm-.614 10.666L66.78 20.205l7.14-2.048c1.795-.515 3.141-.735 4.041-.667.9.068 1.706.417 2.416 1.046.71.634 1.205 1.444 1.49 2.438.361 1.259.289 2.41-.215 3.443-.504 1.029-1.466 1.868-2.879 2.501.858.22 1.599.515 2.223.891.625.375 1.526 1.099 2.709 2.172l2.993 2.688-4.055 1.163-3.5-2.953c-1.247-1.056-2.076-1.707-2.494-1.955-.418-.248-.825-.381-1.222-.407-.396-.022-.98.078-1.763.303l-.684.196 2.01 7.011-3.394.972zm-11.871 6.926l-8.736-15.131 11.217-6.476 1.479 2.561-8.163 4.712 1.937 3.354 7.596-4.385 1.471 2.547-7.596 4.386 2.378 4.118 8.451-4.88 1.473 2.551-11.507 6.643zM46.857 55.572L34.72 43.004l3.798-3.667 10.56 6.372-6.027-10.75 3.807-3.676 12.137 12.568-2.356 2.275-9.554-9.894 7.058 12.304-2.443 2.36-12.041-7.492 9.553 9.894-2.355 2.274zm-22.764 7.031c.171-.354.581-.361.692-.087.402 1.334.231 2.356-.503 3.943-1.431 3.129-2.641 6.354-3.497 9.729-.124.374-.403.437-.624.217-.836-1.55-.542-3.633.561-6.478 1.023-2.486 2.116-4.94 3.371-7.324zm7.006 17.089c-.234.088-.486-.114-.401-.442l3.144-8.43c.506-1.336 1.542-2.228 2.634-2.483.317-.089.571.167.414.422a104.763 104.763 0 0 0-2.665 6.568c-.765 1.974-1.851 3.776-3.126 4.365zM16.475 92.617c.019-.393.394-.561.603-.353.895 1.07 1.138 2.077 1.086 3.825-.087 3.44.065 6.88.605 10.321.032.393-.2.559-.489.443-1.378-1.096-1.924-3.127-2.028-6.178-.037-2.685.005-5.372.223-8.058zm13.153 12.965c-.181.174-.492.086-.542-.248l-.418-8.988c-.06-1.427.543-2.653 1.447-3.317.257-.206.59-.071.546.226-.031 2.363-.001 4.725.128 7.088.073 2.112-.219 4.196-1.161 5.239zm-8.485 18.199c-.146-.363.125-.672.402-.57 1.258.602 1.897 1.416 2.576 3.027 1.351 3.166 2.919 6.23 4.84 9.137.193.344.051.592-.26.607-1.709-.426-3.05-2.045-4.412-4.777-1.149-2.428-2.227-4.889-3.146-7.424zm17.353 6.328c-.092.232-.412.283-.597 0l-4.115-8.002c-.648-1.273-.61-2.641-.063-3.619.148-.295.507-.309.591-.021a104.588 104.588 0 0 0 3.062 6.393c.944 1.892 1.544 3.91 1.122 5.249zm-7.465-67.854c-.054.352.24.594.495.428 2.279-1.622 3.504-3.624 3.822-6.476.004-.362-.317-.489-.619-.326-2.263 1.787-3.409 3.767-3.698 6.374zm6.927 88.52c-.271-.285-.132-.672.163-.678 1.391.094 2.287.613 3.513 1.859 2.425 2.443 5.016 4.711 7.874 6.701.306.248.266.531-.017.66-1.745.236-3.59-.773-5.865-2.809-1.965-1.828-3.876-3.717-5.668-5.733zm18.463-.533c0 .25-.277.414-.555.219l-6.782-5.912c-1.073-.945-1.542-2.229-1.396-3.34.028-.328.356-.475.54-.24a103.391 103.391 0 0 0 5.208 4.809c1.579 1.41 2.883 3.062 2.985 4.464zM23.587 81.356c-.288-.182-.553-.345-.79-.65-.693-1-.631-2.473-.174-4.056 1.074-3.196 2.057-6.256 3.395-9.34.716-1.558 1.101-3.88.772-5.02-.51-1.78-1.3-3.471-1.693-5.2-.145-.443-.77-.354-1.111.18-2.005 3.38-3.674 6.904-5.188 10.493-1.791 3.98-1.858 8.26-.084 11.417 1.123 1.851 2.914 3.545 4.45 4.588a.42.42 0 0 1 .188.419c-.164 1.191-.37 2.394-.511 3.604-.022.302-.252.335-.384.235-1.052-.812-2.002-1.801-2.944-2.843a.74.74 0 0 1-.185-.755 2.027 2.027 0 0 0-1.951-2.556 2.027 2.027 0 0 0-2.023 2.023 2.027 2.027 0 0 0 2.658 1.92c.215-.077.573.001.75.213.822.764 1.609 1.654 2.329 2.493.663.794 1.017 1.757 1.223 2.733.135.637.146 1.097.118 1.737a73.526 73.526 0 0 0 1.195 16.77c.045.186-.055.334-.188.311a4.065 4.065 0 0 1-1.047-.297c-1.03-.648-1.55-2.027-1.752-3.662-.267-3.361-.566-6.562-.546-9.923.047-1.714-.511-4.001-1.261-4.919-1.167-1.437-2.559-2.682-3.6-4.118-.306-.351-.846-.022-.951.603-.518 3.896-.667 7.791-.651 11.686-.083 4.365 1.536 8.328 4.405 10.533 1.76 1.262 4.072 2.117 5.895 2.473.13.021.292.156.323.301.256 1.105.537 2.203.843 3.289.123.355.01.582-.384.453-1.325-.389-2.777-.918-3.981-1.576-.256-.127-.403-.346-.424-.652a2.028 2.028 0 0 0-2.685-1.769 2.028 2.028 0 0 0-1.243 2.578 2.02 2.02 0 0 0 3.143.935c.178-.145.542-.189.778-.047 1.028.451 2.065 1.029 3.021 1.586.949.566 2.039 1.594 2.837 2.619.356.457.497.758.694 1.291a73.464 73.464 0 0 0 7.644 15.129c.072.104.053.232-.071.266a3.529 3.529 0 0 1-.77.08c-1.206-.16-2.252-1.199-3.116-2.602-1.639-2.947-3.241-5.734-4.62-8.799-.67-1.578-2.129-3.428-3.191-3.951-1.66-.82-3.442-1.375-4.986-2.248-.424-.193-.779.33-.614.943 1.149 3.758 2.631 7.363 4.266 10.898 1.738 4.004 4.857 6.936 8.385 7.75 1.976.387 4.239.256 5.999-.113.123-.027.271.033.327.115a76.078 76.078 0 0 0 2.444 3.227c.088.115.113.223-.069.252-1.426.188-3.066.299-4.509.168a.736.736 0 0 1-.647-.43 2.026 2.026 0 0 0-3.169-.554c-.818.756-.869 2.041-.113 2.859a2.027 2.027 0 0 0 3.256-.393c.106-.203.421-.389.695-.352 1.121.002 2.304.121 3.402.25.906.119 2.026.486 3.031.961.715.338.956.57 1.482 1.143a74.469 74.469 0 0 0 13.415 11.463c.11.092.131.234.033.316a3.651 3.651 0 0 1-.911.533c-1.18.297-2.536-.281-3.857-1.266-2.611-2.131-5.13-4.129-7.544-6.469-1.206-1.219-3.245-2.396-4.425-2.49-1.846-.15-3.707-.006-5.464-.248-.465-.021-.602.596-.223 1.104 2.457 3.066 5.167 5.869 7.992 8.553 3.094 3.076 7.076 4.648 10.655 4.102 2.129-.4 4.35-1.48 5.866-2.553a.306.306 0 0 1 .352-.002 73.756 73.756 0 0 0 3.659 2.096c.174.111.301.047.381-.133l.344-.688c.083-.189.008-.344-.17-.441a71.702 71.702 0 0 1-3.512-2.018c-.131-.088-.169-.203-.143-.316.326-1.662.33-3.033.249-4.881-.062-2.691-.734-5.434-2.421-7.086-2.45-2.256-4.392-3.52-5.734-4.916-1.149-1.17-2.037-2.328-3.045-3.572-.278-.299-.797-.301-.97.162-2.017 4.916-.627 8.059 2.352 10.58 2.095 1.729 4.235 3.412 6.329 5.141.939.885 1.39 1.992 1.228 3.18-.013.166-.141.252-.245.176a72.994 72.994 0 0 1-13.169-11.248c-.493-.533-.602-.908-.762-1.465-.447-1.711-.5-3.467.052-5.301.068-.266.356-.49.584-.514a2.025 2.025 0 0 0 1.568-2.881 2.028 2.028 0 0 0-2.699-.951 2.027 2.027 0 0 0-.951 2.699c.08.166.181.316.296.449.201.232.252.49.159.762-.359 1.213-.744 2.389-1.253 3.479-.034.096-.139.092-.196.012-.813-1.014-1.557-2.055-2.364-3.113-.069-.074-.051-.236.001-.332 1.052-1.555 1.593-2.885 2.245-4.76.938-2.525 1.326-5.322.369-7.48-1.443-3-2.78-4.893-3.511-6.688-.636-1.51-1.033-2.916-1.51-4.443-.148-.381-.63-.574-.96-.207-3.69 3.82-3.561 7.256-1.725 10.699 1.308 2.381 2.674 4.734 3.981 7.115.604 1.297.55 2.627-.25 3.744-.084.121-.204.113-.285.012-3.561-4.672-5.846-10.105-7.82-15.67a2.382 2.382 0 0 1-.085-1.127c.272-1.742.923-3.369 2.156-4.828.169-.219.522-.311.741-.24a2.025 2.025 0 0 0 2.585-2.018 2.028 2.028 0 0 0-2.097-1.947 2.027 2.027 0 0 0-1.855 2.627c.092.293.035.551-.156.762-.739.883-1.485 1.729-2.292 2.473-.209.188-.363.119-.429-.182a70.74 70.74 0 0 1-.878-3.412c-.045-.139.044-.309.147-.395 1.381-.896 2.361-1.83 3.613-3.141 1.902-1.904 3.417-4.287 3.445-6.648-.065-3.328-.495-5.605-.414-7.541.05-1.639.272-3.082.473-4.67.024-.408-.334-.785-.787-.588-4.945 1.942-6.254 5.119-6.017 9.016.201 2.707.464 5.416.665 8.125.01 1.301-.487 2.4-1.473 3.104-.148.113-.235-.012-.255-.135a72.206 72.206 0 0 1-1.232-14.659c.054-2.771 2.341-5.807 4.667-7.181.231-.15.596-.12.779.018a2.027 2.027 0 0 0 3.107-1.052c.328-1.065-.272-2.201-1.337-2.529A2.028 2.028 0 0 0 28.353 86c-.01.307-.148.53-.399.667-1.171.697-2.335 1.344-3.539 1.807-.194.067-.264-.077-.23-.299.143-1.289.319-2.567.529-3.835a.357.357 0 0 1 .279-.26c1.623-.282 2.891-.757 4.558-1.47 2.498-1.005 4.827-2.601 5.779-4.762 1.247-3.086 1.747-5.35 2.58-7.098.69-1.487 1.461-2.726 2.269-4.108.183-.366.001-.853-.493-.85-5.31-.156-7.762 2.251-9.073 5.928-.879 2.569-1.701 5.164-2.58 7.734-.507 1.21-1.406 2.03-2.604 2.282-.14.034-.2-.128-.177-.282a71.65 71.65 0 0 1 4.313-13.677c.364-.905.874-1.472 1.653-2.087 4.13-3.347 6.324-6.314 6.756-13.111.013-.433-.221-.511-.597-.306-4.694 2.284-9.332 4.622-8.691 12.501.078.979.012 1.579-.396 2.479a73.093 73.093 0 0 0-4.391 13.942c-.024.185-.178.259-.312.161zm57.676 95.74l1.752-17.383 12.886 1.299-.296 2.943-9.378-.947-.388 3.854 8.726.881-.295 2.926-8.726-.879-.477 4.73 9.709.979-.295 2.932-13.218-1.335zm34.448-.977l-.982-3.025 5.227-13.613-7.742 2.516-.914-2.812 12.164-3.953.846 2.607-5.461 14.166 9.455-3.072.91 2.801-13.503 4.385zm-16.777 2.24l-2.083-17.346 3.409-.41 8.49 10.732-1.391-11.584 3.256-.391 2.082 17.346-3.518.422-8.35-10.473 1.357 11.312-3.252.392zM70.253 155.43l6.585 2.328c1.304.461 2.259.859 2.86 1.197a4.5 4.5 0 0 1 1.478 1.287c.384.523.641 1.127.775 1.822a3.948 3.948 0 0 1-.175 2.104 4.085 4.085 0 0 1-1.372 1.906 4.146 4.146 0 0 1-2.204.852c.898.645 1.496 1.416 1.785 2.309.291.896.267 1.82-.07 2.771a5.209 5.209 0 0 1-1.294 2.002c-.599.582-1.275.98-2.026 1.189s-1.587.207-2.509-.006c-.572-.139-1.925-.574-4.051-1.309l-5.607-1.982 5.825-16.47zm2.359 3.918l-1.347 3.809 2.178.77c1.296.459 2.108.725 2.437.799.591.135 1.108.098 1.55-.113s.754-.582.943-1.115c.18-.51.188-.975.021-1.391-.171-.42-.521-.758-1.05-1.02-.316-.154-1.257-.508-2.821-1.062l-1.911-.677zm-2.316 6.55l-1.557 4.402 3.076 1.088c1.2.426 1.97.662 2.317.707a2.173 2.173 0 0 0 1.44-.229c.434-.238.757-.65.963-1.234.175-.494.2-.955.084-1.385-.119-.43-.375-.807-.772-1.123-.397-.318-1.355-.742-2.866-1.277l-2.685-.949z" fill="#808183"/></g></svg>