<svg xmlns="http://www.w3.org/2000/svg" width="2500" height="2500" viewBox="0 0 192.756 192.756"><g fill-rule="evenodd" clip-rule="evenodd"><path fill="#fff" d="M0 0h192.756v192.756H0V0z"/><path d="M22.479 96.271l.861-.493 10.776 7.388-11.637-6.895zM21.86 95.877l-.801-.461.893-14.101-.092 14.562zM20.895 95.829l-3.571 2.955 4.279-2.524-.708-.431z"/><path d="M22.078 77.135c-10.627 0-19.243 8.615-19.243 19.243s8.616 19.243 19.243 19.243c10.628 0 19.244-8.615 19.244-19.243s-8.616-19.243-19.244-19.243zm.002 37.46c-4.397 0-8.512-1.466-11.578-4.157-2.983-2.62-5.3-6.783-5.872-11.208 1.356 8.415 8.653 14.843 17.45 14.843 9.762 0 17.676-7.914 17.676-17.676 0-4.05-1.513-8.016-3.805-10.996 2.322 1.791 4.327 6.892 4.327 10.996 0 10.05-8.148 18.198-18.198 18.198zm-1.671-19.588l1.556-15.955.113-.001h.04l.153 16.79 2.678-1.601-2.694-15.187c9.488.095 17.152 7.814 17.152 17.325 0 3.056-.792 5.926-2.18 8.418L25.2 94.733l-1.139.646 13.084 9.561-.1.172-14.714-8.465v2.986l14.613 5.648c-3.029 5.046-8.553 8.424-14.867 8.424-6.307 0-11.827-3.371-14.857-8.409l14.604-5.694v-2.985l-14.731 8.465-.097-.168 13.038-9.535-1.139-.646-11.994 10.01a17.245 17.245 0 0 1-2.15-8.365c0-9.436 7.543-17.11 16.928-17.323l-2.347 15.306 1.077.646zm1.669-16.838c-10.051 0-18.198 8.148-18.198 18.198 0 4.082 1.481 7.943 3.74 11.278.766 1.433 1.595 2.32 2.701 3.491-4.334-3.462-7.138-8.791-7.138-14.77 0-10.435 8.459-18.895 18.895-18.895s19.056 8.828 18.746 18.895c-.262-9.822-8.861-18.197-18.746-18.197zM106.607 97.652c0-3.375-1.492-6.111-4.768-6.111-3.041 0-4.77 2.736-4.77 6.111s1.445 6.111 4.77 6.111c3.229 0 4.178-1.6 4.674-4.159L105.4 99.6c-.094.949-.713 3.087-3.086 3.134-2.707.055-2.896-3.419-2.85-5.081l.047-.95c0-1.044-.094-4.131 2.422-4.131 1.994 0 2.279 2.565 2.279 4.131h-4.701l-.047.95h7.143v-.001zM50.433 87.336l-.048.76h.712c.522 0 1.188.047 1.188.712l-.237 12.87c0 .475-.238.997-1.188.997h-.712l-.048.76h4.796v-.76h-.807c-.618 0-1.045-.19-1.045-.997l.237-12.347 5.129 13.296h.522l5.176-13.439.238 12.49c0 .427-.428.997-1.093.997h-.997v.76h6.031v-.76h-.712c-.522 0-1.14-.285-1.14-.95l-.238-12.727c0-.428.475-.902.95-.902h.902v-.76h-4.322l-4.464 11.682-4.464-11.682h-4.366zM83.839 103.445v-.617h-.475c-.427 0-1.187-.143-1.187-.998v-6.221c0-1.947.997-2.659 1.994-2.659.38 0 .618.19.522.902-.095.712.522 1.187 1.045 1.14s1.188-.143 1.092-1.472-.854-1.947-2.184-1.947c-1.045 0-1.9.665-2.137.998-.276.387-.618.237-.665-.19-.047-.427-.237-.854-.712-.712a11.409 11.409 0 0 1-2.802.522v.475c1.994-.095 1.805.902 1.805 1.377v7.788c0 .855-.76.998-1.188.998h-.665v.617h5.557v-.001zM94.418 92.296c-.7-.511-1.58-.804-2.651-.804-3.039 0-4.769 2.736-4.769 6.112 0 3.375 1.444 6.095 4.769 6.111 2.944.015 3.657-1.647 4.152-4.207l-1.113-.005c-.095.949-.427 3.134-2.564 3.182-2.706.061-2.896-3.42-2.849-5.081 0-1.045.143-5.225 2.422-5.225 1.946 0 3.134 1.378 3.134 2.945h.617v-3.989h-.522l-.626.961zM163.119 102.733c-2.707.055-2.896-3.419-2.85-5.081h7.143c0-3.375-1.49-6.111-4.768-6.111-3.039 0-4.768 2.736-4.768 6.111s1.443 6.111 4.768 6.111c3.229 0 4.18-1.6 4.674-4.159l-1.111-.005c-.096.95-.713 3.088-3.088 3.134zm-.379-10.162c1.994 0 2.279 2.565 2.279 4.131h-4.701c0-1.044-.095-4.131 2.422-4.131zM124.078 102.733c-2.707.055-2.896-3.419-2.85-5.081h7.143c0-3.375-1.492-6.111-4.768-6.111-3.039 0-4.77 2.736-4.77 6.111s1.445 6.111 4.77 6.111c3.229 0 4.178-1.6 4.674-4.159l-1.113-.005c-.094.95-.711 3.088-3.086 3.134zm-.381-10.162c1.996 0 2.279 2.565 2.279 4.131h-4.701c0-1.044-.093-4.131 2.422-4.131zM73.677 102.733c-2.706.055-2.896-3.419-2.849-5.081h7.143c0-3.375-1.492-6.111-4.768-6.111-3.04 0-4.769 2.736-4.769 6.111s1.444 6.111 4.769 6.111c3.229 0 4.179-1.6 4.674-4.159l-1.113-.004c-.095.949-.712 3.087-3.087 3.133zm-.38-10.162c1.995 0 2.279 2.565 2.279 4.131h-4.701c0-1.044-.094-4.131 2.422-4.131zM116.949 100.965v-13.25c0-.546-.283-.998-.76-.855a11.371 11.371 0 0 1-2.801.522v.475c1.377-.095 1.52.333 1.52.808v4.084c-.617-.57-1.33-1.14-2.611-1.14-1.615 0-4.607 1.282-4.607 5.793 0 5.937 3.467 6.316 4.512 6.316s2.422-.854 2.707-1.306c.023-.095.166-.214.213 0 .049.428.357 1.068.832.926a11.418 11.418 0 0 1 2.801-.522v-.475c-1.995.096-1.806-.902-1.806-1.376zm-2.041-1.425c-.047 2.611-1.424 3.419-2.564 3.419-2.564-.047-2.375-3.941-2.375-5.604s.096-4.939 2.422-4.654c2.328.285 2.518 2.754 2.518 4.226v2.613h-.001zM144.826 96.647v-1.092h-6.267v1.092h6.267zM129.924 99.408v4.036h.521l.475-1.045c.475.428 1.473 1.14 2.754 1.14 1.283 0 3.088-.712 3.801-2.041.711-1.33.379-3.515-1.236-4.18-1.414-.582-2.654-1.279-3.609-1.757a1.53 1.53 0 0 1-.854-1.615c.143-.76.807-1.567 2.326-1.615 1.52-.047 2.279 1.235 2.471 2.707h.521V91.24h-.475l-.523.902c-.996-.665-1.424-.76-2.326-.76s-2.422.475-3.277 1.805c-.854 1.33-.617 3.418 1.426 4.274 2.041.854 2.992 1.377 3.561 1.662.57.285.902 1.425.523 2.09-.381.664-1.092 1.425-2.232 1.425s-2.943-.808-3.371-3.229h-.476v-.001zM153.752 94.744c1.141-.285 2.281-2.327 2.281-3.704 0-1.377-.523-3.704-3.848-3.704h-7.123v.617c.713 0 1.947.143 1.947 1.33v11.73c0 .665-.047 1.757-1.947 1.757v.665h5.842c1.756 0 5.793-.143 5.889-4.796 0-1.568-.76-3.42-3.041-3.895zm-4.701-6.648h2.375c1.758 0 2.469 1.281 2.469 2.944 0 2.042-.617 3.609-2.469 3.609h-2.375v-6.553zm2.422 14.579h-2.422v-7.266h2.707c1.568 0 2.945 1.092 2.945 3.466 0 2.375-1.426 3.8-3.23 3.8zM176.188 94.802v7.028c0 .855-.76.998-1.188.998h-.285v.617h5.176v-.617h-.475c-.428 0-1.188-.143-1.188-.998v-6.98c-.047-3.182-2.896-3.277-3.893-3.277-1.045 0-2.186.665-2.422.998-.277.387-.619.237-.666-.19-.047-.427-.236-.854-.713-.712a11.402 11.402 0 0 1-2.801.522v.475c1.994-.095 1.805.902 1.805 1.377v7.788c0 .855-.76.998-1.188.998h-.664v.617h5.555v-.617h-.475c-.428 0-1.188-.143-1.188-.998V95.61c0-1.044.381-2.707 2.328-2.85 1.949-.142 2.282 1.14 2.282 2.042zM180.992 95.04l.855-3.229h8.074l-6.934 10.97h3.703c.855 0 1.52-.333 2.422-2.518h.381l-.76 3.182h-8.264l6.887-10.969h-3.088c-.76 0-1.613 0-2.801 2.564h-.475z"/></g></svg>