<svg xmlns="http://www.w3.org/2000/svg" width="2500" height="2500" viewBox="0 0 192.756 192.756"><g fill-rule="evenodd" clip-rule="evenodd"><path fill="#fff" d="M0 0h192.756v192.756H0V0z"/><path d="M8.923 143.756l-.06.961h.899c.66 0 1.499.059 1.499.898l-.3 16.25c0 .6-.3 1.26-1.499 1.26h-.898l-.06.959h6.056v-.959h-1.019c-.78 0-1.319-.24-1.319-1.26l.299-15.59 6.477 16.789h.659l6.536-16.969.3 15.77c0 .539-.54 1.26-1.379 1.26h-1.259v.959h7.615v-.959h-.9c-.659 0-1.439-.361-1.439-1.201l-.3-16.068c0-.539.6-1.139 1.199-1.139h1.139v-.961h-5.456l-5.637 14.752-5.636-14.752H8.923zM34.587 156.768h9.019c0-4.262-1.883-7.717-6.021-7.717-3.837 0-6.021 3.455-6.021 7.717s1.823 7.717 6.021 7.717c4.077 0 5.277-2.02 5.902-5.252l-1.405-.006c-.12 1.199-.899 3.898-3.897 3.957-3.417.068-3.658-4.317-3.598-6.416zM50.957 164.084v-.779h-.6c-.54 0-1.499-.18-1.499-1.26v-7.855c0-2.459 1.259-3.357 2.518-3.357.479 0 .78.24.66 1.139-.12.9.66 1.5 1.319 1.439s1.499-.18 1.379-1.859c-.12-1.678-1.079-2.457-2.758-2.457-1.319 0-2.399.838-2.699 1.258-.349.488-.779.301-.839-.238-.06-.541-.3-1.08-.899-.9-1.32.42-2.519.6-3.538.66v.6c2.519-.121 2.278 1.139 2.278 1.738v9.834c0 1.08-.959 1.26-1.499 1.26h-.839v.779h7.016v-.002zM64.258 150.006c-.884-.645-1.995-1.014-3.348-1.014-3.837 0-6.021 3.455-6.021 7.717s1.823 7.695 6.021 7.717c3.718.018 4.617-2.082 5.243-5.312l-1.406-.006c-.12 1.199-.54 3.957-3.238 4.018-3.417.074-3.658-4.318-3.598-6.416 0-1.32.18-6.596 3.058-6.596 2.458 0 3.958 1.738 3.958 3.717h.779v-5.037h-.659l-.789 1.212zM92.571 160.965v-16.729c0-.689-.36-1.26-.959-1.08-1.319.42-2.519.6-3.538.66v.6c1.739-.119 1.919.42 1.919 1.02v5.156c-.78-.719-1.679-1.439-3.298-1.439-2.039 0-5.816 1.619-5.816 7.316 0 7.494 4.377 7.975 5.696 7.975s3.058-1.078 3.418-1.648c.03-.121.209-.27.27 0 .06.539.449 1.35 1.049 1.168a14.495 14.495 0 0 1 3.538-.658v-.6c-2.519.118-2.279-1.142-2.279-1.741zM127.588 155.51v-1.381h-7.914v1.381h7.914zM108.82 158.986v5.098h.66l.6-1.32c.6.541 1.857 1.439 3.477 1.439s3.898-.898 4.797-2.578c.9-1.68.48-4.438-1.559-5.277-1.785-.734-3.352-1.615-4.557-2.219-.959-.479-1.191-1.438-1.08-2.037.18-.959 1.02-1.979 2.939-2.039 1.918-.061 2.877 1.559 3.117 3.418h.66v-4.797h-.6l-.66 1.139c-1.26-.84-1.799-.959-2.938-.959-1.141 0-3.059.6-4.139 2.279-1.078 1.678-.779 4.316 1.799 5.396 2.578 1.078 3.779 1.738 4.498 2.098s1.139 1.799.66 2.639c-.48.84-1.379 1.799-2.818 1.799s-3.719-1.02-4.258-4.078h-.598v-.001zM130.287 161.025v-14.811c0-1.498-1.559-1.68-2.459-1.68v-.779h8.994c4.197 0 4.857 2.939 4.857 4.678s-1.439 4.316-2.879 4.678c2.879.6 3.838 2.938 3.838 4.916-.119 5.877-5.217 6.057-7.436 6.057h-7.375v-.84c2.4 0 2.46-1.379 2.46-2.219zM166.982 153.17v8.875c0 1.08-.959 1.26-1.498 1.26h-.359v.779h6.535v-.779h-.6c-.539 0-1.498-.18-1.498-1.26v-8.814c-.061-4.018-3.658-4.137-4.918-4.137-1.318 0-2.758.838-3.059 1.258-.348.488-.779.301-.838-.238-.061-.541-.301-1.08-.9-.9-1.318.42-2.518.6-3.537.66v.6c2.518-.121 2.277 1.139 2.277 1.738v9.834c0 1.08-.959 1.26-1.498 1.26h-.84v.779h7.016v-.779h-.6c-.539 0-1.5-.18-1.5-1.26v-7.855c0-1.318.48-3.418 2.939-3.598 2.458-.181 2.878 1.438 2.878 2.577zM172.979 153.471l1.08-4.078h10.193l-8.754 13.852h4.676c1.08 0 1.92-.42 3.059-3.178h.48l-.959 4.018H172.32l8.693-13.852h-3.896c-.959 0-2.039 0-3.539 3.238h-.599zM70.564 156.768h9.019c0-4.262-1.884-7.717-6.021-7.717-3.837 0-6.021 3.455-6.021 7.717s1.824 7.717 6.021 7.717c4.078 0 5.277-2.02 5.903-5.252l-1.406-.006c-.12 1.199-.899 3.898-3.897 3.957-3.417.068-3.658-4.317-3.598-6.416zM97.906 156.768h9.02c0-4.262-1.883-7.717-6.02-7.717-3.838 0-6.022 3.455-6.022 7.717s1.824 7.717 6.022 7.717c4.076 0 5.275-2.02 5.9-5.252l-1.404-.006c-.119 1.199-.898 3.898-3.898 3.957-3.416.068-3.656-4.317-3.598-6.416zM146.957 156.768h9.018c0-4.262-1.883-7.717-6.021-7.717-3.836 0-6.02 3.455-6.02 7.717s1.822 7.717 6.02 7.717c4.078 0 5.277-2.02 5.902-5.252l-1.404-.006c-.119 1.199-.9 3.898-3.898 3.957-3.417.068-3.658-4.317-3.597-6.416z"/><path d="M34.647 155.568c0-1.318-.12-5.217 3.058-5.217 2.518 0 2.878 3.238 2.878 5.217h-5.936zM89.992 159.166c-.06 3.299-1.799 4.318-3.238 4.318-3.238-.061-2.998-4.977-2.998-7.076 0-2.098.12-6.236 3.058-5.877 2.938.361 3.178 3.479 3.178 5.338v3.297zM132.865 163.125h3.057c2.279 0 4.078-1.799 4.078-4.799 0-2.996-1.738-4.377-3.717-4.377h-3.418v9.176zM132.865 152.99h2.998c2.338 0 3.117-1.979 3.117-4.557 0-2.1-.898-3.717-3.117-3.717h-2.998v8.274zM70.625 155.568c0-1.318-.12-5.217 3.058-5.217 2.519 0 2.878 3.238 2.878 5.217h-5.936zM97.967 155.568c0-1.318-.119-5.217 3.059-5.217 2.518 0 2.877 3.238 2.877 5.217h-5.936zM147.016 155.568c0-1.318-.119-5.217 3.059-5.217 2.518 0 2.879 3.238 2.879 5.217h-5.938z" fill="#fff"/><path d="M95.757 130.58c-28.568-.002-51.726-22.908-51.721-51.161.003-28.252 23.167-51.152 51.735-51.148 28.569.004 51.725 22.91 51.721 51.162-.004 28.253-23.166 51.153-51.735 51.147z"/><path d="M53.343 103.969l.909-.721c-2.673-4.898-5.027-12.25-5.159-12.404-.06.208 1.019 7.037 4.25 13.125z"/><path d="M96.479 33.354l7.028 40.905-7.34 4.311-.254-45.199c0-.543-.384-.538-.44 0l-4.167 42.875-3.084-1.791 6.616-41.091c-25.618.16-45.848 20.729-45.851 46.15-.001 8.029 2.525 16.45 6.16 23.03l32.276-26.849 3.094 1.772-36.253 26.062c-.87.605-.609.908.354.373L95.087 80.53l-.001 8.416-39.071 14.904c8.172 13.369 22.682 21.879 39.607 21.881 16.901.002 31.647-8.529 39.831-21.863L96.434 88.974v-8.418l38.92 22.448c.883.498 1.15.227.316-.369l-34.666-25.147 3.092-1.773 32.264 26.874c3.693-6.617 6.141-15.063 6.143-23.161.003-25.092-20.866-45.389-46.024-46.074z" fill="#fff"/><path d="M145.273 70.521c-1.959-10.988-7.594-19.106-7.594-19.106-8.938-13.256-24.17-21.907-41.817-21.909-28.006-.004-50.647 22.698-50.651 50.706-.001 6.596 1.682 12.897 3.972 18.679 1.052 2.654 5.516 10.309 5.718 10.473-.021-.242-3.171-6.367-4.828-10.441-1.42-3.493-3.188-10.455-3.187-18.529.003-27.17 22.032-49.193 49.2-49.189 14.197.002 27.535 6.933 35.72 15.918 1.744 1.914 3.252 3.651 4.602 5.417 0-.001 3.559 3.33 8.865 17.981z" fill="#fff"/><path d="M143.689 79.297c0 8.41-2.635 17.125-6.52 23.962.217.564.014.854-.645 1.021-8.465 13.639-23.582 22.564-40.792 22.562-16.146-.002-29.062-8.676-33.145-13.158-3.314-3.637-5.77-6.357-7.667-9.445l-1.111.428c7.264 13.891 22.503 23.986 41.94 23.988 27.586.004 49.612-22.303 49.614-49.228 0 0 .855-8.654-6.658-20.97 0 .001 5.238 9.536 4.984 20.84z" fill="#fff"/><path d="M92.539 78.668l-6.884 5.621s-1.453 1.2.632.126l8.336-4.547-2.084-1.2zM93.233 77.279l2.021-30.693s.189-3.726.379.063c.186 3.724-.379 31.956-.379 31.956l-2.021-1.326zM96.896 79.868l2.211-1.263L125.252 96.1s1.959 1.326-.252.189L96.896 79.868z"/></g></svg>