<svg xmlns="http://www.w3.org/2000/svg" viewBox="0 0 347.29 347.29">
  <defs>
    <style>
      .cls-1, .cls-2 {
        fill: #232e50;
      }

      .cls-1, .cls-3 {
        opacity: 0.6;
      }

      .cls-4 {
        fill: #1895b0;
      }
    </style>
  </defs>
  <g id="Layer_2" data-name="Layer 2">
    <g id="Layer_1-2" data-name="Layer 1">
      <g>
        <g>
          <path class="cls-1" d="M260.47,173.65H201.33a27.68,27.68,0,0,0-27.68,27.68v59.14h86.82Z"/>
          <path class="cls-1" d="M86.82,260.47v59.14a27.69,27.69,0,0,0,27.69,27.68h59.14V260.47Z"/>
          <path class="cls-2" d="M260.47,260.47h59.14a27.68,27.68,0,0,0,27.68-27.68V173.65H260.47Z"/>
          <path class="cls-1" d="M347.29,173.65V114.51a27.69,27.69,0,0,0-27.68-27.69H260.47v86.83Z"/>
          <path class="cls-2" d="M173.65,347.29h59.14a27.68,27.68,0,0,0,27.68-27.68V260.47H173.65Z"/>
        </g>
        <g>
          <g class="cls-3">
            <path class="cls-4" d="M86.82,173.65H146A27.69,27.69,0,0,0,173.65,146V86.82H86.82Z"/>
          </g>
          <g class="cls-3">
            <path class="cls-4" d="M260.47,86.82V27.68A27.68,27.68,0,0,0,232.79,0H173.65V86.82Z"/>
          </g>
          <path class="cls-4" d="M86.82,86.82H27.68A27.69,27.69,0,0,0,0,114.51v59.14H86.82Z"/>
          <g class="cls-3">
            <path class="cls-4" d="M0,173.65v59.14a27.68,27.68,0,0,0,27.68,27.68H86.82V173.65Z"/>
          </g>
          <path class="cls-4" d="M173.65,0H114.51A27.69,27.69,0,0,0,86.82,27.68V86.82h86.83Z"/>
        </g>
      </g>
    </g>
  </g>
</svg>
