<svg width="129" height="20" viewBox="0 0 129 20" fill="none" xmlns="http://www.w3.org/2000/svg">
<path d="M25.3745 10.0746C25.7648 13.1372 26.127 16.0127 26.503 18.8851C26.5476 19.2292 26.4763 19.3506 26.0909 19.3699C23.7702 19.4852 23.7716 19.4944 22.9327 17.3812C22.5834 16.5019 22.243 15.6191 21.871 14.7485C21.7891 14.6054 21.7589 14.4393 21.7853 14.2772C21.8117 14.115 21.8931 13.9664 22.0162 13.8556C23.114 12.6564 24.1832 11.4246 25.3745 10.0746Z" fill="#00A587"/>
<path d="M11.7341 12.6414C12.0665 14.3273 12.3944 15.9119 12.6831 17.5035C12.7722 17.9962 13.1731 18.6221 12.8301 18.9552C12.5343 19.2415 11.8776 18.8365 11.3728 18.8549C10.0318 18.9048 9.40763 18.285 9.18977 16.9836C9.06191 16.2196 9.00532 15.6905 9.64553 15.0988C10.3928 14.3231 11.0904 13.5024 11.7341 12.6414Z" fill="#00A587"/>
<path d="M15.5207 15.7164C15.5207 14.7696 15.506 13.8228 15.5278 12.8764C15.5363 12.5047 15.4312 12.3793 15.0297 12.3662C12.2913 12.277 9.55345 12.1689 6.81619 12.0418C6.38626 12.0221 6.21652 12.1422 6.12519 12.5604C5.70284 14.4969 5.22346 16.4221 4.81091 18.3609C4.69507 18.9053 4.4839 19.106 3.90518 19.0442C3.26304 18.9787 2.61659 18.9641 1.97207 19.0004C1.48645 19.0245 1.3929 18.8251 1.40002 18.4091C1.4419 15.5012 1.50383 12.5932 1.47532 9.68619C1.47006 8.79163 1.7737 7.92182 2.33651 7.21922C3.85127 5.14808 5.31034 3.03969 6.77787 0.936547C6.85703 0.792536 6.9816 0.677727 7.13283 0.60942C7.28405 0.541113 7.45374 0.523002 7.61633 0.557818C13.0882 1.13379 18.5621 1.6918 24.0381 2.23183C24.3806 2.27222 24.7077 2.39524 24.9902 2.58995C28.2487 4.67336 31.5014 6.76423 34.7764 8.82222C35.2665 9.12906 35.2799 9.30439 34.8089 9.58186C34.7075 9.63573 34.617 9.70732 34.5416 9.79313C33.5985 10.992 32.4922 10.9381 31.1557 10.4068C29.5402 9.7664 27.8366 9.34165 26.1802 8.79724C26.0225 8.73436 25.8516 8.71055 25.6824 8.7279C25.5132 8.74525 25.3509 8.80323 25.2098 8.89674C23.6861 9.82776 22.1555 10.7474 20.6179 11.6556C20.4794 11.7286 20.3611 11.8338 20.2733 11.9619C20.1855 12.0901 20.1308 12.2375 20.114 12.3912C19.7767 14.39 19.3909 16.38 19.0808 18.3841C18.9917 18.9583 18.7837 19.1402 18.2036 19.1003C17.467 19.0575 16.7284 19.0563 15.9916 19.0968C15.5546 19.1161 15.4427 18.9653 15.457 18.5555C15.4855 17.6091 15.4659 16.6614 15.4659 15.7146L15.5207 15.7164Z" fill="#00A587"/>
<path d="M48.2466 9.98207C49.3491 8.34573 50.9427 7.87328 52.7836 8.11762C53.8054 8.20062 54.7564 8.66472 55.4418 9.41494C56.1272 10.1652 56.4952 11.1448 56.4706 12.1532C56.5412 14.2372 56.4768 16.3257 56.5077 18.4117C56.5154 18.9465 56.2125 18.9135 55.8503 18.9186C55.4535 18.9221 55.1367 18.9419 55.1475 18.3696C55.1815 16.5954 55.1645 14.8211 55.1557 13.0495C55.1492 12.6855 55.1206 12.3222 55.0702 11.9616C54.7441 9.39911 52.457 8.97076 50.7423 9.53852C49.6603 9.89336 48.9782 10.9685 48.9637 12.3367C48.9431 14.2664 48.9442 16.1963 48.9669 18.1263C48.973 18.654 48.8968 18.9373 48.2419 18.9373C47.5762 18.9373 47.516 18.6261 47.5206 18.1141C47.5371 16.2892 47.5567 14.4643 47.5206 12.6394C47.4691 10.2006 45.7472 8.87597 43.4565 9.46704C42.8988 9.60663 42.4016 9.91916 42.0385 10.3584C41.6754 10.7976 41.4657 11.3402 41.4404 11.9058C41.2866 13.9858 41.26 16.073 41.3606 18.1562C41.3693 18.9855 40.9443 18.952 40.3816 18.9166C40.1379 18.9019 39.9695 18.84 39.9777 18.5582C40.0406 16.2669 39.8061 13.967 40.1003 11.6843C40.327 9.92479 41.2889 8.64836 43.0979 8.23725C45.031 7.79521 46.8142 8.07251 48.0868 9.78843C48.127 9.84065 48.176 9.89539 48.2466 9.98207Z" fill="white"/>
<path d="M118.539 9.92884C119.224 9.12167 120.139 8.53402 121.165 8.24114C122.191 7.94826 123.283 7.9635 124.301 8.2849C126.911 8.97837 128.236 11.1815 128.03 14.3294C127.974 15.3649 127.604 16.36 126.968 17.1868C126.332 18.0136 125.459 18.6342 124.461 18.9688C123.424 19.3186 122.305 19.3637 121.242 19.0986C120.179 18.8335 119.217 18.2697 118.474 17.4759C117.602 16.4769 117.131 15.1984 117.15 13.8813C117.126 9.71239 117.144 5.54296 117.138 1.37404C117.138 0.907675 117.192 0.555868 117.804 0.542181C118.44 0.527988 118.548 0.857486 118.546 1.38012C118.532 4.16718 118.539 6.95423 118.539 9.92884ZM118.539 13.6471C118.461 17.0744 121.353 18.6595 124.253 17.6447C126.048 17.0166 127.026 14.9367 126.647 12.7782C126.365 11.1703 125.601 9.93239 123.9 9.48326C120.833 8.66661 118.534 10.4662 118.539 13.6466V13.6471Z" fill="white"/>
<path d="M112.256 9.95521C112.256 6.96134 112.26 4.15249 112.25 1.34414C112.25 0.866117 112.317 0.533066 112.931 0.54067C113.438 0.548781 113.637 0.720629 113.635 1.23465C113.618 5.48721 113.664 9.73977 113.604 13.9913C113.56 17.1565 111.227 19.2704 107.992 19.2212C104.937 19.1751 102.72 16.9056 102.705 13.8078C102.691 10.9184 104.058 8.86584 106.527 8.26463C108.654 7.74503 110.597 8.09633 112.256 9.95521ZM108.147 17.9271C110.656 17.9306 112.25 16.2725 112.256 13.6517C112.261 10.9604 110.689 9.30179 108.139 9.30838C105.635 9.31497 104.069 10.9701 104.062 13.6218C104.054 16.2385 105.651 17.923 108.147 17.9265V17.9271Z" fill="white"/>
<path d="M86.8155 10.1677C86.8155 7.21744 86.8238 4.36246 86.8083 1.50748C86.8058 1.00664 86.9067 0.710096 87.5028 0.728852C87.9753 0.743553 88.1608 0.9154 88.1592 1.38785C88.1433 5.71392 88.1999 10.041 88.119 14.365C88.0634 17.3447 85.7202 19.4226 82.6577 19.4084C81.9586 19.4271 81.2627 19.3091 80.6104 19.0611C79.9581 18.8132 79.3624 18.4402 78.8577 17.9639C78.3531 17.4876 77.9496 16.9175 77.6706 16.2865C77.3917 15.6556 77.2429 14.9764 77.2329 14.2885C77.121 11.5187 78.2602 9.42812 80.4664 8.65101C82.8323 7.81763 85.004 8.13446 86.8155 10.1677ZM82.7205 18.1137C85.1993 18.1021 86.8423 16.3664 86.814 13.7953C86.7821 11.1202 85.1761 9.47172 82.6247 9.49453C80.1403 9.51684 78.5704 11.2105 78.5864 13.851C78.6023 16.4586 80.2186 18.1254 82.7205 18.1137Z" fill="white"/>
<path d="M95.6717 19.2258C94.1956 19.2151 92.8771 18.8512 91.9935 17.5854C91.7622 17.2544 91.4597 16.858 91.9884 16.5143C92.4351 16.2238 92.7328 16.4048 93.0513 16.7971C93.6412 17.4438 94.4436 17.8656 95.3179 17.9886C96.1922 18.1115 97.0826 17.9279 97.8331 17.4698C98.0834 17.3202 98.2856 17.1038 98.4162 16.8458C98.5468 16.5878 98.6004 16.2987 98.5709 16.0119C98.5536 15.7359 98.4504 15.4718 98.2752 15.2555C98.1001 15.0392 97.8615 14.8812 97.592 14.8029C96.5843 14.4745 95.5553 14.2133 94.5119 14.0212C94.0735 13.9193 93.6445 13.7813 93.2295 13.6086C92.8504 13.4488 92.5137 13.2054 92.2453 12.8973C91.9769 12.5892 91.7839 12.2246 91.6814 11.8315C91.5789 11.4385 91.5694 11.0275 91.6538 10.6303C91.7382 10.2331 91.9142 9.86027 92.1682 9.54055C93.4954 7.69789 98.1288 7.36687 99.5246 9.75751C99.7054 10.0672 100.108 10.413 99.5828 10.7566C99.135 11.0502 98.8099 10.9731 98.4637 10.4946C97.5054 9.16238 94.9195 8.89372 93.6469 9.94051C93.4143 10.0961 93.2318 10.3138 93.1209 10.5681C93.01 10.8223 92.9753 11.1025 93.0209 11.3755C93.0665 11.6485 93.1905 11.903 93.3783 12.109C93.566 12.315 93.8098 12.4638 94.0807 12.538C94.9293 12.8264 95.8268 12.9775 96.7032 13.1868C97.3255 13.3203 97.9261 13.5378 98.4879 13.8332C98.9357 14.0538 99.3126 14.3922 99.5768 14.8108C99.8409 15.2295 99.982 15.7119 99.9842 16.2047C99.9865 16.6974 99.85 17.1811 99.5898 17.6021C99.3295 18.0231 98.9558 18.3649 98.5101 18.5896C97.6419 19.0556 96.6594 19.2758 95.6717 19.2258Z" fill="white"/>
<path d="M74.7799 15.4452C74.7799 16.3835 74.7541 17.3208 74.7902 18.2601C74.8098 18.767 74.6552 18.9439 74.1204 18.9282C73.6325 18.9135 73.3991 18.8228 73.4063 18.2763C73.4362 16.53 73.4316 14.7831 73.414 13.0368C73.3862 10.3724 71.4139 8.85822 68.777 9.45943C68.0678 9.6085 67.4316 9.99117 66.9734 10.5442C66.5152 11.0972 66.2625 11.7875 66.2571 12.501C66.1787 14.3766 66.2019 16.2522 66.2148 18.1278C66.2184 18.655 66.1453 18.9282 65.4935 18.9358C64.8026 18.9439 64.7866 18.6068 64.8031 18.1131C64.8706 16.1361 64.6624 14.1505 64.9159 12.1791C65.2601 9.49897 67.1762 7.9919 70.0826 8.06388C70.6825 8.0526 71.2787 8.15775 71.8373 8.37334C72.3958 8.58892 72.9056 8.91071 73.3377 9.3203C73.7697 9.72989 74.1155 10.2193 74.3552 10.7604C74.5949 11.3016 74.7238 11.8839 74.7346 12.4741C74.8016 13.4601 74.7454 14.4511 74.7454 15.4436L74.7799 15.4452Z" fill="white"/>
<path d="M61.3321 13.675C61.3321 15.1851 61.3115 16.6952 61.3434 18.2048C61.3547 18.7346 61.2172 18.9221 60.6406 18.9287C60.0152 18.9358 59.9662 18.6545 59.9708 18.1683C59.9863 15.2008 59.9817 12.2328 59.9755 9.26478C59.9755 8.79233 59.961 8.38122 60.6453 8.36601C61.3295 8.3508 61.3455 8.732 61.3408 9.22321C61.3233 10.7075 61.3321 12.1912 61.3321 13.675Z" fill="white"/>
<path d="M59.499 5.08218C59.5033 4.78151 59.627 4.49443 59.8437 4.28232C60.0603 4.07022 60.3527 3.94993 60.6583 3.94718C60.8164 3.94297 60.9736 3.97166 61.1197 4.03138C61.2658 4.0911 61.3974 4.1805 61.5059 4.29373C61.6144 4.40695 61.6974 4.54145 61.7494 4.68842C61.8014 4.83539 61.8213 4.9915 61.8078 5.14656C61.7922 5.44303 61.6594 5.72177 61.4377 5.92314C61.216 6.12452 60.923 6.23255 60.6214 6.22414C60.3198 6.21573 60.0335 6.09154 59.8238 5.87813C59.614 5.66473 59.4975 5.37904 59.499 5.08218Z" fill="white"/>
</svg>
