<svg xmlns="http://www.w3.org/2000/svg" viewBox="0 0 118 30"><symbol xmlns="http://www.w3.org/2000/svg" viewBox="0 0 118 30" id="3ac57d69-95a7-4244-ba35-bd574f41662d"><polygon fill="#000" points="55.947,7.646 56.236,5.566 52.42,5.566 52.126,7.646 40.351,7.637 40.642,5.566     36.828,5.566 36.536,7.637 33.63,7.634 33.362,9.648 36.252,9.648 35.937,11.891 39.752,11.891 40.07,9.648 51.845,9.648     51.53,11.891 55.345,11.891 55.66,9.648 59.221,9.648 59.473,7.649  "/><path fill="#000" d="M83.431,5.569l-0.001,0.01l-17.799-0.01c-1.738,0.016-3.199,1.184-3.663,2.777l-0.154,1.116    l-0.72,5.223h-0.026l-0.251,2h0.001l-0.001,0.012h3.257l0.002-0.011l7.017,0.004l-0.212,1.588l-10.263-0.001l-0.255,2.001    l4.595,0.002l-3.255,3.342c-0.317,0.372-1.141,1.219-1.549,1.492c-0.201,0.106-0.467,0.137-0.467,0.137l-0.289,2.019l1.871-0.023    c1.209-0.282,2.222-1.235,3.086-2.194l4.465-4.773h1.793l-0.93,6.986h3.815l0.932-6.986l1.667,0.001    c0.01,0.014,4.082,6.347,5.421,6.857c0.242,0.093,0.638,0.109,0.975,0.109h1.277l0.271-1.997c0,0-0.556,0.037-0.856-0.136    c-0.469-0.226-1.242-1.492-1.288-1.568l-2.267-3.265l5.085,0l0.269-2.001l-10.29-0.002l0.211-1.587l6.967,0.004    c1.738-0.017,3.2-1.184,3.663-2.777l0.153-1.117l0.721-5.223h0.025l0.253-1.999h-0.002l0.002-0.012H83.431z M71.36,14.685h-7.009    l0.216-1.565l0.161-1.161h6.996L71.36,14.685z M71.943,10.307h-6.989l0.169-1.218c0.059-0.842,0.753-1.509,1.61-1.509h5.573    L71.943,10.307z M82.383,13.177c-0.059,0.842-0.754,1.508-1.609,1.508h-5.599l0.363-2.726h7.014L82.383,13.177z M82.938,9.145    l-0.16,1.162h-7.02l0.363-2.727h7.034L82.938,9.145z"/><path fill="#000" d="M47.464,11.891h-3.766l0.603,2.806h-11.61l-0.264,1.999h2.9l-0.856,6.31    c-0.276,2.518,1.378,4.1,3.776,4.25c13.3,0,17.329,0.005,18.601,0.009l0.268-1.998H40.047c-1.105-0.133-1.872-1.075-1.795-2.262    l0.84-6.31h19.232l0.258-1.999H48.065L47.464,11.891z"/><path fill="#000" d="M96.031,5.564h-3.637c-0.048,0.438-0.258,2.086-0.531,4.213l-3.162-0.001    c-0.102,0.92-0.195,1.624-0.276,2.116h3.164c-0.66,5.112-1.482,11.416-1.488,11.493c-0.071,0.96,0.036,1.718,0.321,2.271    c0.284,0.557,0.723,0.959,1.318,1.21c0.595,0.252,1.392,0.379,2.394,0.379c0.319,0,2.42,0.029,3.526,0.019l0.291-2.158    c-0.646,0.001-1.724,0.005-1.867,0.005c-0.405,0-0.79-0.091-1.147-0.271c-0.362-0.179-0.616-0.476-0.772-0.887    c-0.153-0.414-0.198-1.031-0.131-1.859c0,0,0.664-5.516,1.23-10.203h3.598l0.234-2.113l-3.577-0.001    C95.773,7.691,95.972,6.037,96.031,5.564z"/><path fill="#000" d="M113.855,9.775l-6.156,14.587l-3.93-14.587h-3.652l4.918,17.491h2.859h0.129    c1.087-0.024,1.84-0.708,2.333-1.43L118,9.775H113.855z"/><path fill="#ff5f00" d="M29.093,20.77v-9.173h-0.001c-0.007-0.87-0.585-1.643-1.416-1.894l0.001-0.002l-3.002-0.855    l-0.003,0.011l-4.307,9.113L15.866,6.342l0.002-0.007l-4.635-1.321c-0.206-0.057-0.419-0.085-0.635-0.085    c-1.315,0-2.385,1.067-2.391,2.381H8.206v13.817h0.001c0.008,1.243,1.02,2.251,2.265,2.251c0.073,0,0.145-0.004,0.217-0.012v0.001    l1.881-0.182l-0.001-0.01h0.001V8.735l5.382,13.91l0.002,0.015l4.099-0.401l0.004,0.002l0-0.003h0.001l5.019-10.639v7.664h-0.001    c0.001,0.032,0.001,0.065,0.001,0.097c0,2.742-2.042,5.09-4.754,5.466L9.358,26.111C9.25,26.119,9.14,26.124,9.03,26.124    c-2.261,0-4.099-1.837-4.099-4.095v-0.068V6.648V6.596c0-2.448,1.991-4.439,4.439-4.439c0.459,0,0.91,0.069,1.343,0.206    l15.32,4.364l0.001-0.001c0.078,0.024,0.159,0.038,0.242,0.038c0.453,0,0.822-0.369,0.822-0.821c0-0.355-0.226-0.667-0.562-0.78    l-0.002,0.006l0.002-0.006L9.996,0.445C9.17,0.137,8.301-0.02,7.411-0.02C3.327-0.02,0.005,3.301,0,7.384v15.814v0.011    c0,3.756,3.058,6.811,6.815,6.811c0.192,0,0.386-0.008,0.577-0.025v0.001l14.825-1.44v0.001c0.003-0.001,0.006-0.001,0.009-0.002    l0.02-0.001v-0.001c3.906-0.422,6.848-3.698,6.848-7.637C29.095,20.868,29.095,20.818,29.093,20.77L29.093,20.77z"/></symbol><use href="#3ac57d69-95a7-4244-ba35-bd574f41662d"/></svg>