<svg height="2500" viewBox="12.8 10.24 998.4 1000.96" width="2487" xmlns="http://www.w3.org/2000/svg"><path d="m1011.2 709.12v-309.76c0-28.16-17.92-53.76-46.08-64l-102.4-28.16-148.48 304.64s-153.6-386.56-153.6-389.12l-161.28-43.52c-7.68-2.56-15.36-2.56-23.04-2.56-46.08 0-79.36 35.84-79.36 79.36v460.8c0 40.96 33.28 74.24 74.24 74.24h7.68l64-5.12h-5.12v-483.84l189.44 463.36 140.8-12.8 181.76-355.84v258.56c0 92.16-69.12 168.96-163.84 181.76l-455.68 40.96h-10.24c-76.8 0-138.24-61.44-138.24-135.68v-468.48c0-51.2-2.56-97.28 33.28-140.8 28.16-35.84 74.24-53.76 117.76-53.76 15.36 0 30.72 2.56 46.08 7.68l524.8 145.92h7.68c15.36 0 28.16-12.8 28.16-28.16 0-12.8-7.68-23.04-20.48-25.6l-563.2-153.6c-28.16-10.24-58.88-15.36-89.6-15.36-140.8 0-253.44 110.08-253.44 245.76v527.36c0 125.44 104.96 227.84 232.96 227.84h20.48l509.44-48.64c135.68-12.8 235.52-122.88 235.52-253.44z" fill="#f06000"/></svg>