<?xml version="1.0" encoding="UTF-8"?>
<svg version="1.1" xmlns="http://www.w3.org/2000/svg" width="120" height="120" viewBox="0 0 422 547">
<path d="M0 0 C5.61316478 4.389225 10.0063189 9.19641672 14.1875 14.9375 C15.31426715 16.44821239 16.443231 17.95728849 17.57421875 19.46484375 C18.4257251 20.60155518 18.4257251 20.60155518 19.29443359 21.76123047 C21.94667343 25.24262745 24.71873306 28.62142528 27.5 32 C31.92954133 37.39526115 36.22645172 42.87014618 40.4375 48.4375 C44.84564974 54.26372119 49.38505954 59.95034182 54.0625 65.5625 C59.08335043 71.58890177 63.86699416 77.73995074 68.52929688 84.04663086 C72.60604232 89.53710825 76.87700038 94.84758459 81.21069336 100.13647461 C86.1121397 106.11913315 90.89709168 112.18688949 95.65722656 118.28222656 C97.93233933 121.19271628 100.2166837 124.09594496 102.5 127 C103.41670978 128.16663279 104.33337648 129.33329944 105.25 130.5 C105.70375 131.0775 106.1575 131.655 106.625 132.25 C111.66666667 138.66666667 116.70833333 145.08333333 121.75 151.5 C122.2035083 152.07717773 122.6570166 152.65435547 123.12426758 153.24902344 C124.04343313 154.41890016 124.96254095 155.58882223 125.8815918 156.75878906 C128.13456094 159.62671157 130.38843723 162.4939099 132.64453125 165.359375 C133.53393027 166.48952344 134.42325246 167.61973236 135.3125 168.75 C135.75996582 169.3186377 136.20743164 169.88727539 136.66845703 170.47314453 C139.24043089 173.74615517 141.79984568 177.02845105 144.34765625 180.3203125 C145.21414795 181.43913818 145.21414795 181.43913818 146.09814453 182.58056641 C147.28334528 184.11100287 148.46791512 185.64192813 149.65185547 187.17333984 C153.11228683 191.63140721 156.64720638 196.01265859 160.25708008 200.3503418 C172.07226667 214.58589931 178.73234961 227.12101721 177 246 C175.04359087 256.14113338 168.90263958 264.54549366 160.5 270.4375 C150.82894515 276.35037291 140.56232497 278.48581522 129.34375 276.5390625 C113.54709407 272.28996201 105.01802366 260.89222639 95.72753906 248.3137207 C92.06912808 243.37140366 88.27515918 238.56590866 84.375 233.8125 C79.25386323 227.5662935 74.28726351 221.23068049 69.38671875 214.80908203 C66.63010143 211.2128612 63.84509939 207.63862915 61.0625 204.0625 C60.46477783 203.29413818 59.86705566 202.52577637 59.2512207 201.73413086 C55.59750965 197.04133203 51.92965983 192.35996873 48.25 187.6875 C44.45796126 182.87189798 40.70233709 178.03015636 36.97290039 173.16577148 C32.88101846 167.83286326 28.75027371 162.53041389 24.61206055 157.23339844 C18.3487659 149.19973666 12.18901276 141.09332438 6 133 C5.67 203.29 5.34 273.58 5 346 C-20.08 346 -45.16 346 -71 346 C-71.06615102 305.78628703 -71.12153789 265.57262543 -71.15319599 225.35887361 C-71.15694806 220.61001721 -71.16083103 215.86116092 -71.16479492 211.11230469 C-71.16558185 210.16690291 -71.16636878 209.22150113 -71.16717956 208.24745081 C-71.18022933 192.94468711 -71.20388082 177.64195726 -71.23145839 162.33921362 C-71.25952451 146.63425511 -71.27617882 130.9293143 -71.28226548 115.22433174 C-71.28637942 105.53548275 -71.29936757 95.84672945 -71.3237494 86.15790991 C-71.33962148 79.51165932 -71.34439702 72.86545812 -71.34050413 66.21918996 C-71.33858488 62.38608113 -71.34150292 58.55313938 -71.35761642 54.72006035 C-71.37498059 50.55896192 -71.36894917 46.3982176 -71.36076355 42.23709106 C-71.37387134 40.43063777 -71.37387134 40.43063777 -71.38724393 38.58769047 C-71.3191122 25.76528824 -67.59347033 14.29143947 -58.83984375 4.69140625 C-42.37264663 -10.4472272 -18.68008314 -12.26238587 0 0 Z " fill="#3666AC" transform="translate(74,8)"/>
<path d="M0 0 C10.16969209 8.47219462 15.09533125 18.31680002 17.53515625 31.1640625 C17.92179151 35.62528499 17.92887575 40.05193055 17.8959198 44.527771 C17.89848307 45.82025954 17.90104635 47.11274807 17.9036873 48.44440293 C17.91033683 51.99748846 17.89847696 55.55029828 17.88335311 59.10334873 C17.8703162 62.94775382 17.87478759 66.79214517 17.87705994 70.63656616 C17.87862786 77.28586213 17.86926915 83.93506932 17.85234642 90.58434296 C17.82789549 100.19789018 17.82014494 109.81139476 17.81638245 119.4249697 C17.80982749 135.02487388 17.78989235 150.62473082 17.76147461 166.22460938 C17.73390924 181.37239344 17.7126878 196.52016464 17.69995117 211.66796875 C17.69876892 213.07011464 17.69876892 213.07011464 17.69756278 214.50058672 C17.69364747 219.1903374 17.68985639 223.88008817 17.68612707 228.569839 C17.65506094 267.43462213 17.59977397 306.29931783 17.53515625 345.1640625 C-7.54484375 345.1640625 -32.62484375 345.1640625 -58.46484375 345.1640625 C-58.79484375 274.5440625 -59.12484375 203.9240625 -59.46484375 131.1640625 C-66.68122641 140.50898013 -66.68122641 140.50898013 -73.46484375 150.1640625 C-74.12484375 150.1640625 -74.78484375 150.1640625 -75.46484375 150.1640625 C-75.73167969 150.7415625 -75.99851562 151.3190625 -76.2734375 151.9140625 C-77.5024055 154.2349988 -78.88645679 156.11586317 -80.52734375 158.1640625 C-83.3142781 161.68651767 -86.03448167 165.24726951 -88.71484375 168.8515625 C-93.39444412 175.10953655 -98.21281145 181.25133193 -103.05761719 187.38183594 C-104.90785019 189.72512201 -106.75242397 192.07281997 -108.59594727 194.42138672 C-109.50414064 195.57756369 -110.4134728 196.7328471 -111.32397461 197.88720703 C-113.72682132 200.93583224 -116.10757352 203.99890906 -118.4609375 207.0859375 C-118.95335937 207.72660156 -119.44578125 208.36726562 -119.953125 209.02734375 C-120.89558981 210.25432623 -121.83213683 211.4858849 -122.76171875 212.72265625 C-125.04727856 215.68490748 -126.89287575 217.87119241 -130.46484375 219.1640625 C-131.04878906 217.56691406 -131.04878906 217.56691406 -131.64453125 215.9375 C-135.62708637 205.44986172 -140.54760753 196.95191811 -147.46484375 188.1640625 C-148.34194946 187.02535814 -149.21824872 185.88603215 -150.09375 184.74609375 C-153.95325112 179.75634546 -157.89894073 174.84118826 -161.91015625 169.97265625 C-162.78160278 168.91183838 -162.78160278 168.91183838 -163.6706543 167.82958984 C-164.79208579 166.4676822 -165.91826211 165.10966205 -167.05004883 163.75634766 C-170.35268517 159.75037685 -173.01271156 155.74334551 -175.46484375 151.1640625 C-175.09311035 150.68686768 -174.72137695 150.20967285 -174.33837891 149.71801758 C-165.27917041 138.08824 -165.27917041 138.08824 -156.27734375 126.4140625 C-152.50161759 121.4964094 -148.68605987 116.61239268 -144.84863281 111.74291992 C-141.05196891 106.92179086 -137.28819138 102.07565759 -133.52734375 97.2265625 C-128.71892565 91.02910389 -123.85159458 84.8844968 -118.93164062 78.77539062 C-115.22010448 74.14948928 -111.61247432 69.4508584 -108.02734375 64.7265625 C-103.18493095 58.34760092 -98.20631511 52.09982848 -93.13134766 45.90478516 C-89.81907259 41.85399617 -86.57486702 37.76261634 -83.40234375 33.6015625 C-63.34623274 7.33916307 -35.51120247 -26.45049946 0 0 Z " fill="#2C97CC" transform="translate(404.46484375,8.8359375)"/>
<path d="M0 0 C0.33 0 0.66 0 1 0 C1.23074219 0.96679688 1.46148437 1.93359375 1.69921875 2.9296875 C6.48458216 22.33616127 17.22536283 35.32061252 30.69140625 49.59863281 C32.95894262 52.02692736 35.12639731 54.53944677 37.30078125 57.05078125 C40.81406038 61.08095661 44.41746334 65.03146612 48 69 C49.50028679 70.66640851 51.00028872 72.33307353 52.5 74 C54.76085598 76.51249908 57.02216012 79.02458448 59.28515625 81.53515625 C60.03667969 82.36917969 60.78820312 83.20320313 61.5625 84.0625 C62.22378906 84.79597656 62.88507813 85.52945313 63.56640625 86.28515625 C64.36949219 87.18105469 65.17257813 88.07695313 66 89 C66.64538979 89.49422172 67.29077957 89.98844343 67.95572662 90.49764156 C71.88841086 93.92224208 74.10883519 97.08540207 74.72842407 102.28634834 C75.09338284 107.83599848 74.99023943 113.38417599 74.90820312 118.94165039 C74.90594479 121.08088089 74.90721661 123.22011758 74.91174316 125.35934448 C74.91403403 131.15049597 74.86707416 136.94031588 74.8111515 142.73115849 C74.76106543 148.78891918 74.75643569 154.84671203 74.74694824 160.90464783 C74.72210547 172.36879043 74.65648587 183.83232109 74.57615232 195.29619449 C74.486664 208.35048177 74.44272969 221.40479861 74.40258884 234.45931637 C74.31901816 261.3066281 74.17233557 288.1531012 74 315 C49.58 315 25.16 315 0 315 C0 211.05 0 107.1 0 0 Z " fill="#3B3E8F" transform="translate(4,38)"/>
<path d="M0 0 C2.21587043 1.0746387 4.28019305 2.27628136 6.37451172 3.57128906 C7.13538086 4.01811035 7.89625 4.46493164 8.68017578 4.92529297 C10.26814296 5.86060367 11.85066082 6.80522477 13.42773438 7.75878906 C15.7852915 9.18017923 18.15955375 10.56792464 20.54248047 11.94628906 C41.43506605 24.06545204 41.43506605 24.06545204 43.81201172 31.19628906 C43.91408371 32.83632781 43.96041317 34.48012831 43.97314453 36.12329102 C43.98275208 37.12475662 43.99235962 38.12622223 44.0022583 39.15803528 C44.00650818 40.23929184 44.01075806 41.3205484 44.01513672 42.43457031 C44.02083679 43.54809372 44.02653687 44.66161713 44.03240967 45.80888367 C44.04186081 48.16676889 44.0483941 50.52466734 44.05224609 52.88256836 C44.06194529 56.48412215 44.09296572 60.08510377 44.12451172 63.68652344 C44.1310425 65.97753567 44.13629268 68.26855199 44.14013672 70.55957031 C44.15248352 71.63475418 44.16483032 72.70993805 44.17755127 73.81770325 C44.16117358 79.33454024 44.06270346 83.50538804 40.81201172 88.19628906 C36.17153238 92.7971949 30.09747357 95.89022743 24.37451172 98.94628906 C19.57397628 101.53573551 14.82486313 104.14563433 10.21435547 107.06347656 C9.47435303 107.5252832 8.73435059 107.98708984 7.97192383 108.46289062 C6.57714698 109.34008497 5.19282466 110.23423236 3.82202148 111.1484375 C-1.43464151 114.41960149 -6.06090473 115.44035004 -12.18798828 114.19628906 C-16.4516018 112.45667659 -20.31329585 110.19768007 -24.25048828 107.82128906 C-25.33869873 107.18513672 -26.42690918 106.54898438 -27.5480957 105.89355469 C-29.7397155 104.61008785 -31.92642895 103.31820267 -34.10791016 102.01757812 C-36.86833137 100.38530623 -39.64887793 98.80542129 -42.45361328 97.25097656 C-43.96938733 96.39967939 -45.48502347 95.54813661 -47.00048828 94.69628906 C-47.68054932 94.32455566 -48.36061035 93.95282227 -49.0612793 93.56982422 C-53.41160521 91.06391999 -55.96751734 88.71250114 -58.18798828 84.19628906 C-59.4625731 77.70836445 -59.30883346 71.04615496 -59.20751953 64.46582031 C-59.19339523 63.47176682 -59.17927094 62.47771332 -59.16471863 61.45353699 C-59.13181081 59.36683676 -59.0954911 57.28018779 -59.0559082 55.19360352 C-59.00046796 52.00762144 -58.97204956 48.82206656 -58.94384766 45.63574219 C-58.90840794 43.59990515 -58.87135421 41.56409542 -58.83251953 39.52832031 C-58.82815384 38.58132767 -58.82378815 37.63433502 -58.81929016 36.65864563 C-58.6747725 31.04421203 -58.09812029 27.53177071 -54.18798828 23.19628906 C-51.27807617 21.06567383 -51.27807617 21.06567383 -47.91064453 19.13769531 C-47.30345078 18.78545395 -46.69625702 18.43321259 -46.07066345 18.07029724 C-44.13776458 16.95342432 -42.19452323 15.8561383 -40.25048828 14.75878906 C-38.98090316 14.02758977 -37.71201656 13.29517622 -36.44384766 12.56152344 C-33.31568719 10.75706569 -30.16736921 8.99123897 -27.01348877 7.23223877 C-25.22394705 6.21669523 -23.46099175 5.16488495 -21.69921875 4.10205078 C-14.37527421 -0.16980242 -8.33551352 -3.06187352 0 0 Z M-23.86376953 37.00097656 C-26.34316975 41.11136866 -25.86594516 45.5714149 -25.18798828 50.19628906 C-22.14986817 55.95824099 -18.17255384 57.35082334 -12.12158203 59.32128906 C-11.15349609 59.61003906 -10.18541016 59.89878906 -9.18798828 60.19628906 C-7.75132812 60.62941406 -7.75132812 60.62941406 -6.28564453 61.07128906 C-4.55616773 61.58740266 -2.82336914 62.09260898 -1.08642578 62.58300781 C0.81201172 63.19628906 0.81201172 63.19628906 1.81201172 64.19628906 C2.06201172 67.13378906 2.06201172 67.13378906 1.81201172 70.19628906 C-1.52846931 72.42327641 -2.72084409 72.46748116 -6.62548828 72.44628906 C-7.57294922 72.45144531 -8.52041016 72.45660156 -9.49658203 72.46191406 C-12.30111842 72.18512382 -13.88069194 71.79871905 -16.18798828 70.19628906 C-16.84798828 68.87628906 -17.50798828 67.55628906 -18.18798828 66.19628906 C-22.64298828 66.69128906 -22.64298828 66.69128906 -27.18798828 67.19628906 C-25.81449071 72.26106136 -24.81621371 75.24492747 -20.31298828 78.13378906 C-17.25027213 79.78721191 -14.69471273 80.94580874 -11.18798828 81.19628906 C-10.11097656 81.28910156 -10.11097656 81.28910156 -9.01220703 81.38378906 C-2.46613524 81.70956557 3.184437 80.68785002 8.81201172 77.19628906 C11.8208483 74.06337675 12.72997332 70.87603578 13.24951172 66.57128906 C12.64309026 61.8931807 11.16101038 59.50584332 7.80810547 56.25097656 C3.79782594 53.50077183 -0.29755612 52.34804422 -4.93798828 51.00878906 C-6.66269059 50.49696651 -8.38669136 49.98277189 -10.10986328 49.46582031 C-10.86879883 49.24514893 -11.62773437 49.02447754 -12.40966797 48.79711914 C-14.18798828 48.19628906 -14.18798828 48.19628906 -15.18798828 47.19628906 C-15.22891766 44.86331473 -15.23040551 42.52923682 -15.18798828 40.19628906 C-9.00330631 39.18180566 -4.6392512 38.51668659 0.81201172 42.19628906 C1.47201172 42.85628906 2.13201172 43.51628906 2.81201172 44.19628906 C5.03329727 44.21937503 5.03329727 44.21937503 7.43701172 43.82128906 C8.25427734 43.71042969 9.07154297 43.59957031 9.91357422 43.48535156 C10.54005859 43.38996094 11.16654297 43.29457031 11.81201172 43.19628906 C9.85926217 37.55501259 8.25333704 35.14367361 2.81201172 32.19628906 C-6.09239319 29.22815409 -17.23215802 29.85924109 -23.86376953 37.00097656 Z " fill="#F68A35" transform="translate(374.18798828125,432.8037109375)"/>
<path d="M0 0 C7.31714618 3.74646957 14.4663494 7.73689272 21.52856445 11.94213867 C23.30768856 12.99990972 25.09264526 14.04732239 26.87817383 15.09423828 C42.20241975 24.13668877 42.20241975 24.13668877 44.41723633 30.92822266 C44.67793274 33.42527771 44.67793274 33.42527771 44.69189453 36.08227539 C44.70142654 37.08358994 44.71095856 38.08490448 44.72077942 39.11656189 C44.71986801 40.18749588 44.7189566 41.25842987 44.71801758 42.36181641 C44.7223027 43.47250992 44.72658783 44.58320343 44.73100281 45.72755432 C44.73673874 48.07348957 44.73725181 50.41944261 44.73291016 52.76538086 C44.72975083 56.34926772 44.75321735 59.93232845 44.77856445 63.51611328 C44.78083761 65.79801328 44.78154087 68.0799155 44.78051758 70.36181641 C44.78972733 71.43072617 44.79893707 72.49963593 44.8084259 73.60093689 C44.76388349 80.78393278 43.42349087 84.91884084 39.41723633 90.92822266 C37.22875977 92.30078125 37.22875977 92.30078125 34.52661133 93.70166016 C30.50629855 95.82458461 26.51410682 97.97682597 22.55786133 100.21728516 C21.58719727 100.76642578 20.6165332 101.31556641 19.61645508 101.88134766 C18.64321289 102.43306641 17.6699707 102.98478516 16.66723633 103.55322266 C15.67852539 104.11267578 14.68981445 104.67212891 13.67114258 105.24853516 C12.70563477 105.79509766 11.74012695 106.34166016 10.74536133 106.90478516 C9.81916992 107.42331055 8.89297852 107.94183594 7.9387207 108.47607422 C6.42550279 109.34755177 4.92940686 110.25156289 3.47387695 111.21630859 C-1.20671542 114.2783532 -5.16632372 114.98824717 -10.58276367 113.92822266 C-14.29306277 112.4768069 -17.65274961 110.5694797 -21.08276367 108.55322266 C-22.03530029 108.01246094 -22.98783691 107.47169922 -23.96923828 106.91455078 C-26.85167258 105.27116105 -29.71765001 103.60158106 -32.58276367 101.92822266 C-34.26050888 100.96616782 -35.93885647 100.00516242 -37.61791992 99.04541016 C-54.79841706 89.13995994 -54.79841706 89.13995994 -57.58276367 81.92822266 C-58.01935472 78.0830817 -58.0032326 74.26354385 -57.98120117 70.39697266 C-57.98407135 69.28769409 -57.98694153 68.17841553 -57.98989868 67.03552246 C-57.99193569 64.69555143 -57.98643131 62.35556324 -57.97387695 60.015625 C-57.95781895 56.44052945 -57.97373883 52.86656443 -57.99291992 49.29150391 C-57.99093743 47.01415767 -57.98709362 44.73681213 -57.98120117 42.45947266 C-57.98727386 41.39369995 -57.99334656 40.32792725 -57.99960327 39.2298584 C-57.94794284 33.76012418 -57.84692948 29.54673642 -54.58276367 24.92822266 C-51.2904349 21.86940464 -47.65336788 19.68581148 -43.75854492 17.46728516 C-42.64672852 16.83048828 -41.53491211 16.19369141 -40.3894043 15.53759766 C-39.22480668 14.87593525 -38.06009257 14.21447782 -36.89526367 13.55322266 C-34.62004781 12.25457756 -32.34530153 10.9551094 -30.07104492 9.65478516 C-28.97614746 9.02991211 -27.88125 8.40503906 -26.75317383 7.76123047 C-22.99710905 5.58961994 -19.28874391 3.34639158 -15.59521484 1.0703125 C-10.49234897 -1.82562424 -5.37386671 -2.23000991 0 0 Z M-31.58276367 31.92822266 C-31.58276367 47.76822266 -31.58276367 63.60822266 -31.58276367 79.92822266 C-28.61276367 79.92822266 -25.64276367 79.92822266 -22.58276367 79.92822266 C-22.58276367 69.69822266 -22.58276367 59.46822266 -22.58276367 48.92822266 C-21.92276367 48.92822266 -21.26276367 48.92822266 -20.58276367 48.92822266 C-20.23213867 50.10384766 -19.88151367 51.27947266 -19.52026367 52.49072266 C-17.96778304 57.04612356 -16.22466107 61.50466852 -14.33276367 65.92822266 C-13.9381897 66.93477905 -13.9381897 66.93477905 -13.53564453 67.96166992 C-12.63798794 70.14653803 -12.63798794 70.14653803 -10.58276367 72.92822266 C-6.96199357 73.98599237 -6.96199357 73.98599237 -3.58276367 73.92822266 C-1.74314693 70.1395729 0.08785705 66.3468249 1.91723633 62.55322266 C2.44188477 61.47298828 2.9665332 60.39275391 3.50708008 59.27978516 C4.00336914 58.24853516 4.4996582 57.21728516 5.01098633 56.15478516 C5.47182617 55.20168457 5.93266602 54.24858398 6.4074707 53.26660156 C7.54938289 51.04671658 7.54938289 51.04671658 7.41723633 48.92822266 C8.07723633 48.92822266 8.73723633 48.92822266 9.41723633 48.92822266 C9.41723633 59.15822266 9.41723633 69.38822266 9.41723633 79.92822266 C12.38723633 79.92822266 15.35723633 79.92822266 18.41723633 79.92822266 C18.41723633 64.08822266 18.41723633 48.24822266 18.41723633 31.92822266 C14.45723633 31.92822266 10.49723633 31.92822266 6.41723633 31.92822266 C2.12723633 41.16822266 -2.16276367 50.40822266 -6.58276367 59.92822266 C-11.24943034 50.59488932 -15.91609701 41.26155599 -20.58276367 31.92822266 C-24.21276367 31.92822266 -27.84276367 31.92822266 -31.58276367 31.92822266 Z " fill="#3F73B5" transform="translate(57.582763671875,433.07177734375)"/>
<path d="M0 0 C4.27664728 0.96676243 7.31200198 2.96406773 10.9765625 5.33203125 C15.1570886 7.63834216 19.54504572 9.2993242 24 11 C24.07495152 16.1920263 24.12897508 21.38372787 24.16479492 26.57617188 C24.17974968 28.33729549 24.20012096 30.09838274 24.22631836 31.859375 C24.51322234 51.66137494 20.88727854 68.97047777 7 84 C-7.58000732 98.76301997 -24.38041383 102.44998704 -44.44094849 102.63613892 C-48.27332585 102.648583 -52.10513602 102.63949914 -55.9375 102.625 C-59.80335872 102.62113728 -63.66875404 102.62467655 -67.53456116 102.64559937 C-69.92307292 102.65758198 -72.31171623 102.65519782 -74.70018005 102.63589478 C-83.87323957 102.66669209 -91.59572587 103.83300185 -98.5 110.2578125 C-101.02730655 113.19317375 -102.543963 116.43673357 -104 120 C-104.4125 120.99 -104.825 121.98 -105.25 123 C-105.4975 123.66 -105.745 124.32 -106 125 C-107.155 124.505 -108.31 124.01 -109.5 123.5 C-114.76297529 121.53453489 -119.3991886 121.07526706 -124.8125 123 C-125.8953125 123.495 -125.8953125 123.495 -127 124 C-127.99 124 -128.98 124 -130 124 C-127.47428539 108.38044909 -120.99076212 96.42692472 -108 87 C-96.10045089 79.92157968 -85.52238986 77.71872756 -71.78125 77.69140625 C-69.44400781 77.66625627 -67.10676829 77.64085811 -64.76953125 77.61523438 C-61.129401 77.58650038 -57.48931666 77.56244499 -53.84912109 77.54370117 C-50.30543403 77.52194463 -46.76225792 77.48251398 -43.21875 77.44140625 C-41.60425964 77.44123253 -41.60425964 77.44123253 -39.95715332 77.4410553 C-28.08158398 77.28697443 -18.88764668 74.20704918 -10.0234375 66.21875 C-2.13181709 58.02489732 -0.40396411 48.22715685 -0.390625 37.20703125 C-0.37408875 36.13498947 -0.35755249 35.06294769 -0.34051514 33.9584198 C-0.29241625 30.57638605 -0.27074883 27.19480064 -0.25 23.8125 C-0.2218085 21.50193103 -0.19187669 19.1913826 -0.16015625 16.88085938 C-0.08666804 11.25398665 -0.0348034 5.62723801 0 0 Z " fill="#A5677C" transform="translate(172,298)"/>
<path d="M0 0 C0.66 0 1.32 0 2 0 C1.98952637 1.10811035 1.97905273 2.2162207 1.96826172 3.35791016 C1.93159353 7.53642443 1.90893228 11.71492502 1.89013672 15.89355469 C1.88018434 17.68947759 1.86661758 19.48538475 1.84912109 21.28125 C1.24730618 45.58115978 1.24730618 45.58115978 12.3125 66.40234375 C21.2947616 74.90638309 32.26598153 76.43980042 44.18359375 76.40625 C45.31974625 76.41708618 46.45589874 76.42792236 47.6264801 76.43908691 C51.23021202 76.47311488 54.83362915 76.4888911 58.4375 76.5 C63.18649617 76.51466035 67.93480113 76.54849597 72.68359375 76.59375 C74.29034218 76.58921814 74.29034218 76.58921814 75.92955017 76.58459473 C91.47214112 76.73746793 105.21980977 82.27798138 116.453125 93.10546875 C124.13441843 101.83528229 128.16526916 111.49470871 130 123 C128.865625 122.67 127.73125 122.34 126.5625 122 C120.06281378 120.38660271 114.14799664 120.10682511 108 123 C107.01 123 106.02 123 105 123 C104.8040625 122.35933594 104.608125 121.71867187 104.40625 121.05859375 C101.79114165 113.49506916 98.13209012 108.86172104 91.1015625 104.94140625 C86.11747032 102.66700611 81.27978119 101.88253056 75.84936523 101.84228516 C74.34641151 101.82689194 74.34641151 101.82689194 72.81309509 101.81118774 C71.73910965 101.80388641 70.66512421 101.79658508 69.55859375 101.7890625 C67.25975869 101.76097884 64.96093066 101.73231429 62.66210938 101.703125 C59.05721346 101.66201847 55.45244677 101.62510978 51.84741211 101.59863281 C48.3550332 101.57079171 44.8632414 101.52490808 41.37109375 101.4765625 C40.31127792 101.47330963 39.2514621 101.47005676 38.15953064 101.46670532 C27.98252243 101.30206525 18.31247237 99.37292863 9.375 94.375 C8.74529297 94.02800049 8.11558594 93.68100098 7.46679688 93.32348633 C-2.65603809 87.53697814 -9.34531284 80.14517401 -15 70 C-15.39960938 69.31035156 -15.79921875 68.62070312 -16.2109375 67.91015625 C-23.47483146 54.55660683 -23.15844926 39.59606648 -23.0625 24.8125 C-23.05746963 23.46549648 -23.05290947 22.11849111 -23.04882812 20.77148438 C-23.03715354 17.51427463 -23.02077883 14.25716222 -23 11 C-21.83339844 10.57976562 -20.66679687 10.15953125 -19.46484375 9.7265625 C-15.35835523 8.18606361 -11.46620788 6.36694608 -7.5625 4.375 C-6.93923828 4.06304687 -6.31597656 3.75109375 -5.67382812 3.4296875 C-2.63595113 2.01162899 -2.63595113 2.01162899 0 0 Z " fill="#F99739" transform="translate(248,299)"/>
</svg>
