<svg xmlns="http://www.w3.org/2000/svg" viewBox="0 0 500 500" overflow="hidden" preserveAspectRatio="xMidYMid meet" id="eaf-120c8-0"><defs><clipPath id="eaf-120c8-1"><rect x="0" y="0" width="500" height="500"></rect></clipPath><style>#eaf-120c8-0 * {animation: 4500ms linear infinite normal both running;offset-rotate:0deg}@keyframes eaf-120c8-2{0%,100%{transform:none;offset-path:path("m268.5035 231.7066l-20.0046 -51.6585l20.0046 51.6585")}}@keyframes eaf-120c8-3{0%{offset-distance:0%;animation-timing-function:ease-in-out}65.93%{offset-distance:50%;animation-timing-function:ease-in-out}100%{offset-distance:100%}}@keyframes eaf-120c8-4{0%{transform:rotate(0);animation-timing-function:ease-in-out}27.4%{transform:rotate(-2deg);animation-timing-function:ease-in-out}42.96%{transform:rotate(41deg);animation-timing-function:ease-in-out}58.51%{transform:rotate(23deg);animation-timing-function:ease-in-out}100%{transform:rotate(0)}}@keyframes eaf-120c8-5{0%,100%{transform:translate(-268.5035px,-231.7066px)}}@keyframes eaf-120c8-6{0%,100%{transform:none;offset-path:path("m266.6735 229.8765l31.6 -31.6l-3.6257 22.8518l0 0l-27.1965 11.7333l-0.7778 -2.9851")}}@keyframes eaf-120c8-7{0%{offset-distance:0%;animation-timing-function:ease-in-out}17.04%{offset-distance:44.453%;animation-timing-function:ease-in-out}31.11%{offset-distance:67.4684%}62.22%{offset-distance:67.4684%;animation-timing-function:ease-in-out}74.07%{offset-distance:96.9315%;animation-timing-function:ease-in-out}100%{offset-distance:100%}}@keyframes eaf-120c8-8{0%{transform:rotate(0)}22.22%{transform:rotate(0);animation-timing-function:ease-in-out}31.11%{transform:rotate(33deg);animation-timing-function:ease-in-out}74.07%{transform:rotate(-52deg);animation-timing-function:ease-in-out}100%{transform:rotate(0)}}@keyframes eaf-120c8-9{0%,100%{transform:translate(-250.255px,-254.5292px)}}@keyframes eaf-120c8-10{0%,100%{transform:none;offset-path:path("m268.1736 233l0.1813 -1.7461l1.5293 4.9823l-41.1882 1.6761l39.4776 -4.9123l0 0")}}@keyframes eaf-120c8-11{0%{offset-distance:0%;animation-timing-function:ease-in-out}40.73%{offset-distance:1.9955%;animation-timing-function:ease-in-out}62.96%{offset-distance:7.9198%;animation-timing-function:ease-in-out}73.33%{offset-distance:54.7785%;animation-timing-function:ease-in-out}88.89%,100%{offset-distance:100%}}@keyframes eaf-120c8-12{0%{transform:rotate(-23deg);animation-timing-function:ease-in-out}48.16%{transform:rotate(-3deg);animation-timing-function:ease-in-out}57.78%{transform:rotate(-34deg);animation-timing-function:ease-in-out}73.33%{transform:rotate(-94deg);animation-timing-function:ease-in-out}88.89%{transform:rotate(0);animation-timing-function:ease-in-out}100%{transform:rotate(-23deg)}}@keyframes eaf-120c8-13{0%,100%{transform:translate(-264.3785px,-194.4898px)}}@keyframes eaf-120c8-14{0%,100%{transform:none;offset-path:path("m269.8 230.8735l0 -0.9729l0 0l0 0.9729l0 0")}}@keyframes eaf-120c8-15{0%{offset-distance:0%;animation-timing-function:ease-in-out}39.27%{offset-distance:50%}60%{offset-distance:50%;animation-timing-function:ease-in-out}88.89%,100%{offset-distance:100%}}@keyframes eaf-120c8-16{0%{transform:rotate(-25deg);animation-timing-function:ease-in-out}39.27%{transform:rotate(-41deg);animation-timing-function:ease-in-out}67.4%{transform:rotate(62deg);animation-timing-function:ease-in-out}73.33%{transform:rotate(164deg);animation-timing-function:ease-in-out}88.89%{transform:rotate(0);animation-timing-function:ease-in-out}100%{transform:rotate(-25deg)}}@keyframes eaf-120c8-17{0%,100%{transform:translate(-269.8px,-230.8735px)}}@keyframes eaf-120c8-18{0%,100%{transform:none;offset-path:path("m266.8134 232.3851l16.6155 -18.1373l-12.8726 26.3927l0 0l26.5369 -23.1654l-30.2799 14.9099l0 0")}}@keyframes eaf-120c8-19{0%{offset-distance:0%;animation-timing-function:ease-in-out}36.29%{offset-distance:20.0078%;animation-timing-function:ease-in-out}44.44%{offset-distance:43.8933%}68.16%{offset-distance:43.8933%;animation-timing-function:ease-in-out}79.27%{offset-distance:72.5461%;animation-timing-function:ease-in-out}88.89%,100%{offset-distance:100%}}@keyframes eaf-120c8-20{0%{transform:rotate(0);animation-timing-function:ease-in-out}25.18%{transform:rotate(24deg);animation-timing-function:ease-in-out}36.29%{transform:rotate(-17deg)}68.16%{transform:rotate(-17deg);animation-timing-function:ease-in-out}79.27%{transform:rotate(-163deg);animation-timing-function:ease-in-out}88.89%,100%{transform:rotate(0)}}@keyframes eaf-120c8-21{0%,100%{transform:translate(-266.8134px,-232.3851px)}}@keyframes eaf-120c8-22{0%,100%{transform:translate(250px,250px)}}@keyframes eaf-120c8-23{0%{transform:rotate(0);animation-timing-function:ease-in-out}17.04%{transform:rotate(45deg);animation-timing-function:ease-in-out}33.33%{transform:rotate(90deg);animation-timing-function:ease-in-out}59.27%{transform:rotate(64deg);animation-timing-function:ease-in-out}88.89%,100%{transform:rotate(0)}}@keyframes eaf-120c8-24{0%,100%{transform:translate(-268.5px,-231px)}}</style></defs><g clip-path="url('#eaf-120c8-1')" style="isolation: isolate;"><g><g transform="matrix(4 0 0 4 -827.28 -2254.5264)"><path fill="#e1f3fd" d="m331.8 626.1c0 15.6 0 31.3 0 46.9c0 7.2 -5.4 13.7 -12.5 15.1c-1 0.2 -2.1 0.3 -3.2 0.3c-31.2 0 -62.4 0 -93.6 0c-7.6 0 -14.3 -5.9 -15.3 -13.5c-0.1 -0.7 -0.1 -1.4 -0.1 -2c0 -31.3 0 -62.5 0 -93.8c0 -7.2 5.4 -13.7 12.5 -15.1c1 -0.2 2.1 -0.3 3.2 -0.3c31.2 0 62.4 0 93.6 0c7.2 0 13.7 5.4 15.1 12.5c0.2 1 0.3 2.1 0.3 3.2c0 15.6 0 31.1 0 46.7z"></path></g><ellipse fill="#fff" stroke="#cecece" stroke-width="8" rx="194.8734" ry="194.8734" transform="translate(250.5199 250.2001)"></ellipse><g transform="translate(-18.5 19)" style="animation-name: eaf-120c8-22, eaf-120c8-23, eaf-120c8-24; animation-composition: replace, add, add;"><g transform="translate(0 0)" style="animation-name: eaf-120c8-2, eaf-120c8-3, eaf-120c8-4, eaf-120c8-5; animation-composition: replace, add, add, add;"><path fill="#555" d="m297 241.5l-111.6 -111.6c1.8 -4.3 2.8 -8.7 2.8 -13.4c0 -19.2 -15.6 -34.8 -34.8 -34.8c-19.2 0 -34.8 15.6 -34.8 34.8c0 19.2 15.6 34.8 34.8 34.8c4.6 0 9.1 -0.9 13.4 -2.8l111.6 111.6c4.8 -7.4 11.1 -13.7 18.6 -18.6z"></path><path fill="#bcbcbc" d="m153.4 136c-10.7 0 -19.4 -8.7 -19.4 -19.4c0 -10.7 8.7 -19.4 19.4 -19.4c10.7 0 19.4 8.7 19.4 19.4c0 10.7 -8.7 19.4 -19.4 19.4z"></path></g><g transform="translate(16.4185 -24.6527)" style="animation-name: eaf-120c8-6, eaf-120c8-7, eaf-120c8-8, eaf-120c8-9; animation-composition: replace, add, add, add;"><path fill="#555" d="m250.5 231l-119 119c-8.3 -6 -18.2 -9.2 -28.5 -9.2c-27.1 0 -49.2 22.1 -49.2 49.2c0 27.1 22.1 49.2 49.2 49.2c27.1 0 49.2 -22.1 49.2 -49.2c0 -6.7 -1.4 -13.3 -4 -19.3l120.9 -120.9c-7.4 -5 -13.7 -11.4 -18.6 -18.8z"></path><ellipse fill="#c90606" rx="33.8" ry="33.8" transform="translate(103 389.9)"></ellipse></g><g transform="matrix(0.9205 -0.3907 0.3907 0.9205 -51.1814 157.2721)" style="animation-name: eaf-120c8-10, eaf-120c8-11, eaf-120c8-12, eaf-120c8-13; animation-composition: replace, add, add, add;"><path fill="#555" d="m255.3 196.5l0 160.5c-21.1 5.8 -36 25 -36 47.3c0 27.1 22.1 49.2 49.2 49.2c27.1 0 49.2 -22.1 49.2 -49.2c0 -22.3 -14.8 -41.5 -36 -47.3l0 -160.5c-4.3 0.9 -8.7 1.4 -13.2 1.4c-4.5 -0.1 -8.9 -0.5 -13.2 -1.4z"></path><path fill="#f7e79c" d="m268.5 438.1c-18.6 0 -33.8 -15.2 -33.8 -33.8c0 -18.6 15.2 -33.8 33.8 -33.8c18.6 0 33.8 15.2 33.8 33.8c0 18.6 -15.2 33.8 -33.8 33.8z"></path></g><g transform="matrix(0.9063 -0.4226 0.4226 0.9063 -72.2932 135.6535)" style="animation-name: eaf-120c8-14, eaf-120c8-15, eaf-120c8-16, eaf-120c8-17; animation-composition: replace, add, add, add;"><path fill="#555" d="m269.8 251.6l81.8 81.8c-1.8 4.3 -2.8 8.8 -2.8 13.4c0 19.2 15.6 34.8 34.8 34.8c19.2 0 34.8 -15.6 34.8 -34.8c0 -19.2 -15.6 -34.8 -34.8 -34.8c-4.6 0 -9.1 0.9 -13.4 2.8l-81.8 -81.8c-4.8 7.4 -11.2 13.8 -18.6 18.6z"></path><ellipse fill="#fff" rx="19.4" ry="19.4" transform="translate(383.6 346.8)"></ellipse></g><g transform="translate(0 0)" style="animation-name: eaf-120c8-18, eaf-120c8-19, eaf-120c8-20, eaf-120c8-21; animation-composition: replace, add, add, add;"><path fill="#555" d="m412.4 144.2c27.1 0 49.2 -22.1 49.2 -49.2c0 -27.1 -22.1 -49.2 -49.2 -49.2c-27.1 0 -49.2 22.1 -49.2 49.2c0 6.7 1.4 13.3 4 19.3l-126.4 126.5c7.4 4.9 13.8 11.2 18.7 18.7l124.4 -124.5c8.3 5.9 18.2 9.2 28.5 9.2z"></path><path fill="#fefadf" d="m412.4 128.8c-18.6 0 -33.8 -15.2 -33.8 -33.8c0 -18.6 15.2 -33.8 33.8 -33.8c18.6 0 33.8 15.2 33.8 33.8c0 18.6 -15.2 33.8 -33.8 33.8z"></path></g><g><ellipse fill="#555" rx="64.5" ry="64.5" transform="translate(268.5 231.7)"></ellipse><ellipse fill="#f4b526" rx="48.2" ry="48.2" transform="matrix(0.2298 -0.9732 0.9732 0.2298 268.5035 231.7066)"></ellipse></g></g><ellipse fill="#ffb200" rx="0" ry="0" transform="translate(31.6582 188.9997)"></ellipse></g></g></svg>