<svg width="153" height="153" viewBox="0 0 153 153" fill="none" xmlns="http://www.w3.org/2000/svg">
<rect width="153" height="153" rx="14" fill="#F14D42"/>
<path d="M34.28 34.58C34.0933 34.7667 33.82 34.9067 33.46 35C33.1133 35.1067 32.6933 35.16 32.2 35.16C31.7067 35.16 31.24 35.0867 30.8 34.94C30.36 34.7933 30 34.44 29.72 33.88L27.74 29.84C27.54 29.4267 27.36 29.04 27.2 28.68C27.04 28.3067 26.8667 27.88 26.68 27.4L26.56 27.42C26.6133 28.14 26.64 28.8733 26.64 29.62C26.6533 30.3667 26.66 31.1 26.66 31.82V34.92C26.5133 34.96 26.2867 35 25.98 35.04C25.6867 35.08 25.3933 35.1 25.1 35.1C24.8067 35.1 24.5467 35.08 24.32 35.04C24.0933 35 23.9067 34.92 23.76 34.8C23.6133 34.68 23.5 34.52 23.42 34.32C23.34 34.1067 23.3 33.8333 23.3 33.5V23.5C23.4867 23.2333 23.7733 23.0333 24.16 22.9C24.5467 22.7667 24.96 22.7 25.4 22.7C25.8933 22.7 26.36 22.78 26.8 22.94C27.2533 23.0867 27.6133 23.4333 27.88 23.98L29.88 28.02C30.08 28.4333 30.26 28.8267 30.42 29.2C30.58 29.56 30.7533 29.98 30.94 30.46L31.04 30.44C30.9867 29.72 30.9533 29 30.94 28.28C30.9267 27.56 30.92 26.84 30.92 26.12V22.88C31.0667 22.84 31.2867 22.8 31.58 22.76C31.8867 22.72 32.1867 22.7 32.48 22.7C33.0667 22.7 33.5133 22.8067 33.82 23.02C34.1267 23.22 34.28 23.6467 34.28 24.3V34.58ZM37.2742 24.74C37.2742 24.1667 37.4409 23.7133 37.7742 23.38C38.1076 23.0467 38.5609 22.88 39.1342 22.88H45.7342C45.8276 23.0267 45.9076 23.22 45.9742 23.46C46.0542 23.7 46.0942 23.9533 46.0942 24.22C46.0942 24.7267 45.9809 25.0867 45.7542 25.3C45.5409 25.5133 45.2542 25.62 44.8942 25.62H40.6742V27.48H45.1742C45.2676 27.6267 45.3476 27.82 45.4142 28.06C45.4942 28.2867 45.5342 28.5333 45.5342 28.8C45.5342 29.3067 45.4276 29.6667 45.2142 29.88C45.0009 30.0933 44.7142 30.2 44.3542 30.2H40.6742V32.3H45.8142C45.9076 32.4467 45.9876 32.64 46.0542 32.88C46.1342 33.12 46.1742 33.3733 46.1742 33.64C46.1742 34.1467 46.0609 34.5133 45.8342 34.74C45.6209 34.9533 45.3342 35.06 44.9742 35.06H39.1342C38.5609 35.06 38.1076 34.8933 37.7742 34.56C37.4409 34.2267 37.2742 33.7733 37.2742 33.2V24.74ZM54.2312 25.84C54.3779 25.7733 54.6046 25.7 54.9112 25.62C55.2312 25.5267 55.5512 25.48 55.8712 25.48C56.4312 25.48 56.8979 25.5667 57.2712 25.74C57.6446 25.9 57.8712 26.14 57.9512 26.46C58.0979 27.0067 58.2312 27.52 58.3512 28C58.4846 28.4667 58.6113 28.92 58.7313 29.36C58.8513 29.7867 58.9646 30.2133 59.0712 30.64C59.1912 31.0667 59.3046 31.5133 59.4112 31.98H59.5112C59.6312 31.1667 59.7379 30.3933 59.8312 29.66C59.9246 28.9133 60.0112 28.1867 60.0912 27.48C60.1713 26.76 60.2513 26.0533 60.3312 25.36C60.4112 24.6533 60.4912 23.94 60.5713 23.22C61.0646 22.94 61.5913 22.8 62.1513 22.8C62.6446 22.8 63.0713 22.9067 63.4313 23.12C63.7912 23.3333 63.9712 23.6933 63.9712 24.2C63.9712 24.4933 63.9379 24.9133 63.8712 25.46C63.8179 25.9933 63.7379 26.5933 63.6313 27.26C63.5379 27.9267 63.4246 28.6267 63.2912 29.36C63.1579 30.0933 63.0179 30.7933 62.8712 31.46C62.7246 32.1267 62.5712 32.7333 62.4112 33.28C62.2646 33.8133 62.1246 34.2267 61.9913 34.52C61.7913 34.7067 61.4646 34.86 61.0112 34.98C60.5579 35.1 60.0912 35.16 59.6112 35.16C58.9846 35.16 58.4512 35.08 58.0113 34.92C57.5846 34.7467 57.3246 34.5067 57.2312 34.2C57.0579 33.6667 56.8712 33.0333 56.6712 32.3C56.4712 31.5667 56.2579 30.76 56.0312 29.88C55.8446 30.7467 55.6512 31.5933 55.4512 32.42C55.2512 33.2467 55.0712 33.9467 54.9112 34.52C54.7112 34.7067 54.4112 34.86 54.0112 34.98C53.6112 35.1 53.1712 35.16 52.6912 35.16C52.0912 35.16 51.5446 35.08 51.0512 34.92C50.5712 34.7467 50.2579 34.5067 50.1112 34.2C49.9912 33.96 49.8579 33.6067 49.7112 33.14C49.5779 32.66 49.4379 32.12 49.2912 31.52C49.1446 30.9067 48.9912 30.2467 48.8312 29.54C48.6846 28.8333 48.5446 28.1267 48.4112 27.42C48.2912 26.7133 48.1779 26.0267 48.0712 25.36C47.9646 24.68 47.8846 24.06 47.8312 23.5C48.0179 23.3267 48.2779 23.1667 48.6112 23.02C48.9446 22.8733 49.3046 22.8 49.6912 22.8C50.1979 22.8 50.6112 22.9133 50.9312 23.14C51.2646 23.3533 51.4712 23.72 51.5512 24.24C51.7646 25.6 51.9379 26.7333 52.0712 27.64C52.2179 28.5467 52.3312 29.2933 52.4112 29.88C52.5046 30.4533 52.5712 30.9 52.6112 31.22C52.6512 31.54 52.6912 31.7933 52.7312 31.98H52.8312C52.9512 31.4467 53.0646 30.9533 53.1712 30.5C53.2779 30.0467 53.3846 29.5933 53.4912 29.14C53.6112 28.6733 53.7312 28.18 53.8512 27.66C53.9712 27.1267 54.0979 26.52 54.2312 25.84ZM69.8345 30.18C69.2479 29.98 68.7145 29.78 68.2345 29.58C67.7545 29.3667 67.3412 29.1133 66.9945 28.82C66.6479 28.5267 66.3745 28.18 66.1745 27.78C65.9879 27.3667 65.8945 26.8667 65.8945 26.28C65.8945 25.1467 66.3279 24.24 67.1945 23.56C68.0745 22.88 69.3012 22.54 70.8745 22.54C71.4479 22.54 71.9812 22.58 72.4745 22.66C72.9679 22.74 73.3879 22.8667 73.7345 23.04C74.0945 23.2 74.3745 23.4133 74.5745 23.68C74.7745 23.9333 74.8745 24.2333 74.8745 24.58C74.8745 24.9267 74.7945 25.2267 74.6345 25.48C74.4745 25.72 74.2812 25.9267 74.0545 26.1C73.7612 25.9133 73.3679 25.7533 72.8745 25.62C72.3812 25.4733 71.8412 25.4 71.2545 25.4C70.6545 25.4 70.2145 25.4867 69.9345 25.66C69.6545 25.82 69.5145 26.0267 69.5145 26.28C69.5145 26.48 69.6012 26.6467 69.7745 26.78C69.9479 26.9 70.2079 27.0133 70.5545 27.12L71.6145 27.46C72.8679 27.86 73.8279 28.3733 74.4945 29C75.1745 29.6133 75.5145 30.4533 75.5145 31.52C75.5145 32.6533 75.0679 33.5733 74.1745 34.28C73.2812 34.9733 71.9679 35.32 70.2345 35.32C69.6212 35.32 69.0479 35.2667 68.5145 35.16C67.9945 35.0667 67.5345 34.9267 67.1345 34.74C66.7479 34.54 66.4412 34.3 66.2145 34.02C66.0012 33.7267 65.8945 33.3933 65.8945 33.02C65.8945 32.6333 66.0079 32.3067 66.2345 32.04C66.4612 31.76 66.7079 31.5467 66.9745 31.4C67.3479 31.6933 67.8012 31.9467 68.3345 32.16C68.8812 32.3733 69.4745 32.48 70.1145 32.48C70.7679 32.48 71.2279 32.38 71.4945 32.18C71.7612 31.98 71.8945 31.7467 71.8945 31.48C71.8945 31.2133 71.7879 31.0133 71.5745 30.88C71.3612 30.7333 71.0612 30.5933 70.6745 30.46L69.8345 30.18ZM34.28 53.58C34.0933 53.7667 33.82 53.9067 33.46 54C33.1133 54.1067 32.6933 54.16 32.2 54.16C31.7067 54.16 31.24 54.0867 30.8 53.94C30.36 53.7933 30 53.44 29.72 52.88L27.74 48.84C27.54 48.4267 27.36 48.04 27.2 47.68C27.04 47.3067 26.8667 46.88 26.68 46.4L26.56 46.42C26.6133 47.14 26.64 47.8733 26.64 48.62C26.6533 49.3667 26.66 50.1 26.66 50.82V53.92C26.5133 53.96 26.2867 54 25.98 54.04C25.6867 54.08 25.3933 54.1 25.1 54.1C24.8067 54.1 24.5467 54.08 24.32 54.04C24.0933 54 23.9067 53.92 23.76 53.8C23.6133 53.68 23.5 53.52 23.42 53.32C23.34 53.1067 23.3 52.8333 23.3 52.5V42.5C23.4867 42.2333 23.7733 42.0333 24.16 41.9C24.5467 41.7667 24.96 41.7 25.4 41.7C25.8933 41.7 26.36 41.78 26.8 41.94C27.2533 42.0867 27.6133 42.4333 27.88 42.98L29.88 47.02C30.08 47.4333 30.26 47.8267 30.42 48.2C30.58 48.56 30.7533 48.98 30.94 49.46L31.04 49.44C30.9867 48.72 30.9533 48 30.94 47.28C30.9267 46.56 30.92 45.84 30.92 45.12V41.88C31.0667 41.84 31.2867 41.8 31.58 41.76C31.8867 41.72 32.1867 41.7 32.48 41.7C33.0667 41.7 33.5133 41.8067 33.82 42.02C34.1267 42.22 34.28 42.6467 34.28 43.3V53.58ZM36.6742 47.92C36.6742 46.88 36.8342 45.96 37.1542 45.16C37.4876 44.36 37.9342 43.6933 38.4942 43.16C39.0676 42.6133 39.7342 42.2 40.4942 41.92C41.2676 41.64 42.1009 41.5 42.9942 41.5C43.8876 41.5 44.7142 41.64 45.4742 41.92C46.2476 42.2 46.9209 42.6133 47.4942 43.16C48.0676 43.6933 48.5142 44.36 48.8342 45.16C49.1676 45.96 49.3342 46.88 49.3342 47.92C49.3342 48.96 49.1742 49.8867 48.8542 50.7C48.5342 51.5 48.0876 52.1733 47.5142 52.72C46.9542 53.2533 46.2876 53.66 45.5142 53.94C44.7409 54.22 43.9009 54.36 42.9942 54.36C42.0876 54.36 41.2476 54.22 40.4742 53.94C39.7009 53.6467 39.0342 53.2267 38.4742 52.68C37.9142 52.1333 37.4742 51.46 37.1542 50.66C36.8342 49.86 36.6742 48.9467 36.6742 47.92ZM40.2742 47.92C40.2742 49.1333 40.5209 50.04 41.0142 50.64C41.5076 51.24 42.1676 51.54 42.9942 51.54C43.8342 51.54 44.5009 51.24 44.9942 50.64C45.4876 50.04 45.7342 49.1333 45.7342 47.92C45.7342 46.72 45.4876 45.82 44.9942 45.22C44.5142 44.62 43.8542 44.32 43.0142 44.32C42.1876 44.32 41.5209 44.62 41.0142 45.22C40.5209 45.8067 40.2742 46.7067 40.2742 47.92ZM57.3367 44.84C57.4834 44.7733 57.7101 44.7 58.0167 44.62C58.3367 44.5267 58.6567 44.48 58.9767 44.48C59.5367 44.48 60.0034 44.5667 60.3767 44.74C60.7501 44.9 60.9767 45.14 61.0567 45.46C61.2034 46.0067 61.3367 46.52 61.4567 47C61.5901 47.4667 61.7167 47.92 61.8367 48.36C61.9567 48.7867 62.0701 49.2133 62.1767 49.64C62.2967 50.0667 62.4101 50.5133 62.5167 50.98H62.6167C62.7367 50.1667 62.8434 49.3933 62.9367 48.66C63.0301 47.9133 63.1167 47.1867 63.1967 46.48C63.2767 45.76 63.3567 45.0533 63.4367 44.36C63.5167 43.6533 63.5967 42.94 63.6767 42.22C64.1701 41.94 64.6967 41.8 65.2567 41.8C65.7501 41.8 66.1767 41.9067 66.5367 42.12C66.8967 42.3333 67.0767 42.6933 67.0767 43.2C67.0767 43.4933 67.0434 43.9133 66.9767 44.46C66.9234 44.9933 66.8434 45.5933 66.7367 46.26C66.6434 46.9267 66.5301 47.6267 66.3967 48.36C66.2634 49.0933 66.1234 49.7933 65.9767 50.46C65.8301 51.1267 65.6767 51.7333 65.5167 52.28C65.3701 52.8133 65.2301 53.2267 65.0967 53.52C64.8967 53.7067 64.5701 53.86 64.1167 53.98C63.6634 54.1 63.1967 54.16 62.7167 54.16C62.0901 54.16 61.5567 54.08 61.1167 53.92C60.6901 53.7467 60.4301 53.5067 60.3367 53.2C60.1634 52.6667 59.9767 52.0333 59.7767 51.3C59.5767 50.5667 59.3634 49.76 59.1367 48.88C58.9501 49.7467 58.7567 50.5933 58.5567 51.42C58.3567 52.2467 58.1767 52.9467 58.0167 53.52C57.8167 53.7067 57.5167 53.86 57.1167 53.98C56.7167 54.1 56.2767 54.16 55.7967 54.16C55.1967 54.16 54.6501 54.08 54.1567 53.92C53.6767 53.7467 53.3634 53.5067 53.2167 53.2C53.0967 52.96 52.9634 52.6067 52.8167 52.14C52.6834 51.66 52.5434 51.12 52.3967 50.52C52.2501 49.9067 52.0967 49.2467 51.9367 48.54C51.7901 47.8333 51.6501 47.1267 51.5167 46.42C51.3967 45.7133 51.2834 45.0267 51.1767 44.36C51.0701 43.68 50.9901 43.06 50.9367 42.5C51.1234 42.3267 51.3834 42.1667 51.7167 42.02C52.0501 41.8733 52.4101 41.8 52.7967 41.8C53.3034 41.8 53.7167 41.9133 54.0367 42.14C54.3701 42.3533 54.5767 42.72 54.6567 43.24C54.8701 44.6 55.0434 45.7333 55.1767 46.64C55.3234 47.5467 55.4367 48.2933 55.5167 48.88C55.6101 49.4533 55.6767 49.9 55.7167 50.22C55.7567 50.54 55.7967 50.7933 55.8367 50.98H55.9367C56.0567 50.4467 56.1701 49.9533 56.2767 49.5C56.3834 49.0467 56.4901 48.5933 56.5967 48.14C56.7167 47.6733 56.8367 47.18 56.9567 46.66C57.0767 46.1267 57.2034 45.52 57.3367 44.84Z" fill="white"/>
<path d="M130.237 31.9881L125.727 35.7935L127.103 41.4806C127.203 41.8923 127.178 42.3244 127.033 42.7222C126.887 43.1201 126.627 43.4658 126.285 43.7159C125.939 43.9702 125.525 44.1164 125.096 44.1361C124.667 44.1559 124.242 44.0482 123.874 43.8268L118.787 40.7655L113.701 43.8284C113.333 44.0505 112.908 44.1584 112.478 44.1387C112.049 44.119 111.636 43.9724 111.29 43.7175C110.947 43.4679 110.686 43.1223 110.54 42.7243C110.395 42.3264 110.37 41.8941 110.47 41.4822L111.846 35.7951L107.338 31.9881C107.011 31.7122 106.774 31.3453 106.657 30.9342C106.54 30.5231 106.548 30.0865 106.68 29.68C106.812 29.2735 107.062 28.9155 107.399 28.6517C107.735 28.3879 108.142 28.2302 108.569 28.1988L114.506 27.7296L116.79 22.3205C116.956 21.9288 117.235 21.5947 117.59 21.36C117.945 21.1252 118.362 21 118.787 21C119.213 21 119.63 21.1252 119.985 21.36C120.34 21.5947 120.618 21.9288 120.785 22.3205L123.069 27.7296L129.006 28.1988C129.432 28.2302 129.84 28.3879 130.176 28.6517C130.512 28.9155 130.763 29.2735 130.895 29.68C131.027 30.0865 131.035 30.5231 130.918 30.9342C130.801 31.3453 130.564 31.7122 130.237 31.9881ZM106.59 36.4089C106.471 36.2894 106.329 36.1946 106.173 36.1299C106.017 36.0652 105.85 36.0319 105.681 36.0319C105.512 36.0319 105.344 36.0652 105.188 36.1299C105.032 36.1946 104.89 36.2894 104.771 36.4089L95.3768 45.8018C95.1355 46.043 95 46.3702 95 46.7113C95 47.0525 95.1355 47.3797 95.3768 47.6209C95.6181 47.8621 95.9453 47.9977 96.2865 47.9977C96.6277 47.9977 96.9549 47.8621 97.1962 47.6209L106.59 38.2281C106.71 38.1087 106.805 37.9669 106.869 37.8108C106.934 37.6547 106.967 37.4874 106.967 37.3185C106.967 37.1496 106.934 36.9823 106.869 36.8262C106.805 36.6701 106.71 36.5283 106.59 36.4089ZM106.51 46.2421L97.9483 54.8009C97.7071 55.0422 97.5715 55.3693 97.5715 55.7105C97.5715 56.0516 97.7071 56.3788 97.9483 56.62C98.1896 56.8613 98.5168 56.9968 98.858 56.9968C99.1992 56.9968 99.5264 56.8613 99.7677 56.62L108.328 48.0596C108.559 47.8166 108.686 47.4929 108.681 47.1577C108.677 46.8224 108.542 46.5021 108.305 46.2651C108.068 46.028 107.747 45.8929 107.412 45.8886C107.077 45.8844 106.753 46.0112 106.51 46.2421ZM118.243 46.0814L109.517 54.8041C109.276 55.0454 109.14 55.3725 109.14 55.7137C109.14 56.0548 109.276 56.382 109.517 56.6232C109.758 56.8645 110.086 57 110.427 57C110.768 57 111.095 56.8645 111.336 56.6232L120.06 47.9005C120.302 47.6595 120.437 47.3325 120.437 46.9915C120.438 46.6505 120.302 46.3234 120.061 46.0822C119.82 45.841 119.493 45.7054 119.152 45.7052C118.811 45.7051 118.484 45.8404 118.243 46.0814Z" fill="#DC1B21"/>
<rect x="16" y="66" width="121" height="71" rx="8" fill="white"/>
</svg>
