<?xml version="1.0" standalone="no"?><!DOCTYPE svg PUBLIC "-//W3C//DTD SVG 1.1//EN" "http://www.w3.org/Graphics/SVG/1.1/DTD/svg11.dtd"><svg t="1642486881723" class="icon" viewBox="0 0 1024 1024" version="1.1" xmlns="http://www.w3.org/2000/svg" p-id="33945" data-spm-anchor-id="a313x.7781069.0.i61" width="1024" height="1024" xmlns:xlink="http://www.w3.org/1999/xlink"><defs><style type="text/css"></style></defs><path d="M101.12 436.48L196.266667 548.693333v-113.066666a21.333333 21.333333 0 0 1 5.973333-16.64 23.466667 23.466667 0 0 1 16.213333-5.546667 24.32 24.32 0 0 1 16.64 5.546667 20.906667 20.906667 0 0 1 5.973334 16.64v149.333333q0 25.173333-26.88 25.173333a44.8 44.8 0 0 1-11.946667-1.28 32.853333 32.853333 0 0 1-9.813333-4.693333 52.48 52.48 0 0 1-8.533334-7.68l-8.106666-8.96-92.16-110.933333v111.36a20.48 20.48 0 0 1-6.4 16.64 24.746667 24.746667 0 0 1-16.64 5.546666 24.32 24.32 0 0 1-16.64-5.546666 20.906667 20.906667 0 0 1-6.4-16.213334v-146.773333a32.853333 32.853333 0 0 1 2.56-14.506667 23.466667 23.466667 0 0 1 10.666666-9.386666 34.56 34.56 0 0 1 15.786667-3.84 34.133333 34.133333 0 0 1 11.52 1.706666 28.586667 28.586667 0 0 1 8.533333 4.693334 50.773333 50.773333 0 0 1 7.253334 7.253333l7.68 9.386667z m0 0" fill="#009944" p-id="33946"></path><path d="M631.893333 436.48l95.146667 111.786667v-112.64a21.333333 21.333333 0 0 1 5.973333-16.64 23.466667 23.466667 0 0 1 16.213334-5.546667 24.32 24.32 0 0 1 16.64 5.546667 20.906667 20.906667 0 0 1 5.973333 16.64v149.333333q0 25.173333-26.88 25.173333a44.8 44.8 0 0 1-11.946667-1.28 32.853333 32.853333 0 0 1-9.813333-4.693333 52.053333 52.053333 0 0 1-8.533333-7.68l-8.106667-8.96-92.16-110.933333v111.36a20.48 20.48 0 0 1-6.4 16.64 24.746667 24.746667 0 0 1-16.64 5.546666 24.32 24.32 0 0 1-16.64-5.546666 20.906667 20.906667 0 0 1-6.4-16.213334v-146.773333a32.853333 32.853333 0 0 1 2.56-14.506667 23.466667 23.466667 0 0 1 10.666667-9.386666 34.56 34.56 0 0 1 15.786666-3.84 34.133333 34.133333 0 0 1 11.52 1.706666 28.586667 28.586667 0 0 1 8.533334 4.693334 50.346667 50.346667 0 0 1 7.253333 7.253333l7.68 9.386667z m0 0M804.266667 570.026667l54.613333-62.293334-46.08-55.04a104.533333 104.533333 0 0 1-9.813333-13.653333 22.613333 22.613333 0 0 1-3.413334-11.093333 11.946667 11.946667 0 0 1 6.4-9.813334 26.026667 26.026667 0 0 1 15.36-4.266666 24.746667 24.746667 0 0 1 16.213334 4.693333 125.44 125.44 0 0 1 15.786666 17.493333l36.693334 46.08 39.253333-46.08 8.106667-9.813333 6.4-6.826667a21.76 21.76 0 0 1 7.253333-4.266666 27.733333 27.733333 0 0 1 8.96-1.28 25.173333 25.173333 0 0 1 15.36 4.266666 12.373333 12.373333 0 0 1 5.973333 10.24q0 8.533333-12.8 23.466667L920.32 507.733333l52.053333 61.866667a101.12 101.12 0 0 1 10.24 13.653333 20.053333 20.053333 0 0 1 2.986667 10.24 13.653333 13.653333 0 0 1-2.986667 8.106667 19.2 19.2 0 0 1-8.106666 5.973333 29.44 29.44 0 0 1-11.52 2.133334 27.733333 27.733333 0 0 1-11.946667-2.133334 23.893333 23.893333 0 0 1-7.68-5.546666l-11.093333-13.226667-43.093334-52.48-45.653333 54.186667-7.68 8.96-5.546667 5.12a24.32 24.32 0 0 1-7.68 3.84 32.426667 32.426667 0 0 1-10.24 1.28 24.746667 24.746667 0 0 1-14.933333-4.266667 14.506667 14.506667 0 0 1-5.973333-12.373333q0-9.386667 12.373333-23.466667z m0 0M546.133333 475.733333v-38.826666a21.333333 21.333333 0 0 0-6.826666-17.493334 27.306667 27.306667 0 0 0-17.92-5.973333 26.453333 26.453333 0 0 0-17.493334 5.973333 21.76 21.76 0 0 0-6.826666 17.493334v38.826666z m0 0" fill="#009944" p-id="33947"></path><path d="M496.64 506.453333v80.213334a21.76 21.76 0 0 0 6.826667 17.493333 26.026667 26.026667 0 0 0 17.493333 5.973333 27.306667 27.306667 0 0 0 17.92-5.973333 21.76 21.76 0 0 0 6.826667-17.493333v-80.213334z m0 0M351.573333 491.946667a18.773333 18.773333 0 0 0 2.56 37.12h69.12l-23.04 41.386666H328.533333l-28.586666-61.866666 31.573333-58.453334H401.066667l9.386666 19.626667h41.813334l-27.733334-57.173333H308.906667l-51.2 95.146666 46.933333 100.693334h118.186667l64-116.48z m0 0" fill="#009944" p-id="33948"></path></svg>