<svg xmlns="http://www.w3.org/2000/svg" width="2500" height="2500" viewBox="0 0 192.756 192.756"><g fill-rule="evenodd" clip-rule="evenodd"><path fill="#fff" d="M0 0h192.756v192.756H0V0z"/><path fill="#4e83c1" d="M17.433 146.098h157.649v40.988H17.433v-40.988zM17.433 5.669h157.649v40.989H17.433V5.669z"/><path fill="#f7dd39" d="M17.433 54.662h157.891v81.977H17.433V54.662z"/><path d="M109.354 112.385c-4.123-4.365-2.668-11.883-.727-16.734 2.424-6.548 9.215-10.671 16.008-10.914 5.82-.485 11.398 1.213 14.551 6.306s.971 12.128-1.213 16.978c-4.123 7.52-12.127 9.701-20.373 8.975-3.153-.488-6.063-1.699-8.246-4.611zM159.074 116.023l4.123-18.432c0-.729-.242-1.457-.729-1.941-1.213-.97-2.91-.728-4.123-.242-.969.485-2.182 1.455-2.668 2.426-1.213 6.062-3.881 18.189-3.881 18.189h-10.67l6.547-30.074h10.672s-.484 2.667-.727 4.123c3.395-3.881 8.73-6.306 13.824-4.608 1.939.97 3.395 2.911 3.881 5.093v1.94l-5.094 23.526h-11.155z" fill="#0c0e0f"/><path fill="#0c0e0f" d="M93.832 116.023l-4.851-15.763-3.638 15.763H74.428l9.217-40.988h10.914l-4.851 21.586 9.216-10.672h12.127L99.895 99.773l4.609 16.25H93.832zM58.179 116.023l6.548-30.074h10.914l-6.791 30.074H58.179zM41.686 116.023L33.44 94.68l-4.851 21.343H17.433l9.216-40.988h11.157l8.003 21.1 4.851-21.1h10.914l-9.216 40.988H41.686zM65.94 81.098c-.971-1.698-.485-3.638.485-5.093 2.183-2.667 6.063-2.667 8.974-1.94.97.485 1.94 1.213 2.425 2.183.97 1.698.243 3.396-.485 4.608-1.94 2.667-5.579 2.667-8.489 2.425-1.213-.485-2.425-.97-2.91-2.183z"/><path d="M119.541 108.02c-.729-.727-.729-1.939-.486-2.91l1.941-8.975c.727-1.697 2.668-2.91 4.365-2.91.727-.243 1.455 0 2.184.728.484.485.727 1.456.484 2.425l-1.941 9.46c-.727 1.455-2.424 2.91-4.121 2.91-.971 0-1.699 0-2.426-.728z" fill="#f7dd39"/></g></svg>