<svg xmlns="http://www.w3.org/2000/svg" width="2500" height="2500" viewBox="0 0 192.756 192.756"><g fill-rule="evenodd" clip-rule="evenodd"><path fill="#fff" d="M0 0h192.756v192.756H0V0z"/><path fill="#fadf3c" d="M68.158 81.405h56.555v29.945l-56.555.002V81.405z"/><path d="M68.328 103.853h4.121l1.61-7.486h.042l2.87 7.486h4.014l3.14-14.947H80.13l-1.547 7.403h-.042l-2.933-7.403h-4.182l-3.098 14.947zM88.755 103.853h3.891l1.153-5.457.119-.089 1.658 5.546h3.865l-1.642-5.995 4.139-4.87h-4.583l-3.08 3.707h-.119l1.715-7.789h-4.018l-3.098 14.947zM112.658 103.853h3.891l1.215-5.757c.25-1.131.486-1.899 1.805-1.899.67 0 .908.269.854.881-.037.438-.271 1.349-.398 1.977l-1.115 4.799h4.145l1.32-6.134c.166-.795.311-1.566.369-2.045.223-1.808-.855-2.981-2.822-2.952-1.734.027-2.479 1.044-3.275 2.028h-.041l.314-1.762h-3.998l-2.264 10.864zM85.559 90.157c0-.973 1.022-1.761 2.283-1.761s2.284.789 2.284 1.761c0 .972-1.022 1.761-2.284 1.761-1.26-.001-2.283-.789-2.283-1.761zm-2.54 13.696h3.891l2.261-10.865H85.28l-2.261 10.865z"/><path d="M104.799 99.241c.348-1.896.693-3.712 2.191-3.765 1.014-.037 1.014.908.746 2.589-.148.93-.693 3.152-1.922 3.125-1.171-.025-1.173-1.084-1.015-1.949zm-4.395-.203c-.398 3.938 2.713 5.197 5.422 5.086 4.848-.198 6.109-3.908 6.553-6.656.459-2.846-2.047-4.903-5.229-4.903-4.437 0-6.357 2.643-6.746 6.473z"/><path fill="#5f81c0" d="M8.504 81.405h56.555v29.945l-56.555.002V81.405zM127.697 81.405h56.555v29.945l-56.555.002V81.405z"/></g></svg>