<svg xmlns="http://www.w3.org/2000/svg" width="2500" height="2500" viewBox="0 0 192.756 192.756"><g fill-rule="evenodd" clip-rule="evenodd"><path fill="#fff" d="M0 0h192.756v192.756H0V0z"/><path fill="#fadf3c" d="M8.504 8.504h175.748v175.748H8.504V8.504z"/><path d="M8.532 120H21.36l5.014-23.3h.13l8.931 23.3H47.93l9.774-46.524H45.27l-4.818 23.043h-.13l-9.126-23.043H18.175L8.532 120zM72.116 120h12.112l3.588-16.983.372-.28L93.346 120h12.035l-5.113-18.659 12.878-15.159H98.889l-9.59 11.541h-.372l5.339-24.247H81.759L72.116 120zM146.52 120h12.111l3.779-17.919c.781-3.519 1.514-5.912 5.617-5.912 2.086 0 2.826.834 2.66 2.742-.119 1.363-.85 4.197-1.242 6.152L165.975 120h12.9l4.105-19.092c.521-2.476.971-4.878 1.154-6.365.691-5.627-2.666-9.281-8.787-9.188-5.4.083-7.717 3.249-10.193 6.312h-.131l.979-5.485h-12.445L146.52 120zM62.168 77.369c0-3.027 3.182-5.48 7.107-5.48 3.925 0 7.107 2.454 7.107 5.48 0 3.027-3.182 5.481-7.107 5.481-3.924.001-7.107-2.454-7.107-5.481zM54.262 120h12.111l7.038-33.818H61.299L54.262 120z"/><path d="M122.055 105.646c1.084-5.901 2.16-11.553 6.82-11.72 3.158-.113 3.158 2.825 2.324 8.061-.461 2.896-2.158 9.812-5.984 9.729-3.649-.08-3.654-3.377-3.16-6.07zm-13.676-.633c-1.24 12.258 8.441 16.181 16.875 15.834 15.088-.62 19.014-12.165 20.396-20.721 1.43-8.858-6.371-15.26-16.275-15.26-13.814 0-19.791 8.227-20.996 20.147z"/></g></svg>