<svg height="2103" viewBox="66.00029223 90.04928129 367.55873783 343.67600791" width="2500" xmlns="http://www.w3.org/2000/svg"><path d="m334.64 261.9c-12.44-12.44-11.39-12-29-12h-111.64c-17.62 0-16.57-.43-29 12l-59.52 59.53a161.1 161.1 0 0 0 60.34 65.93c15.25-15.24 61-60.95 68.57-68.57 6.25-6.24 9-8.66 12.39-9.7a9.87 9.87 0 0 1 3-.56 9.71 9.71 0 0 1 3 .56c3.39 1 6.15 3.46 12.39 9.7l68.57 68.57a161.06 161.06 0 0 0 60.35-65.93z"/><path d="m173.62 244.05c4.49-4.85 3.86-9 8.26-20.37a72.81 72.81 0 0 1 135.86 0c4.41 11.41 3.78 15.52 8.27 20.37s9 5.84 23.28 5.84h61.63a161.11 161.11 0 0 0 -322.21 0h61.63c14.3 0 18.9-1.11 23.28-5.84"/></svg>