<svg height="931" viewBox="65.66381844 64.44580536 883.59618156 369.08427938" width="2500" xmlns="http://www.w3.org/2000/svg"><path d="m393.86 321.23-59.53-59.53c-12.44-12.44-11.38-12-29-12h-111.64c-17.63 0-16.57-.43-29 12l-59.53 59.53a161.13 161.13 0 0 0 60.35 65.93l68.57-68.57c6.24-6.24 9-8.66 12.39-9.7a9.87 9.87 0 0 1 3-.56 9.71 9.71 0 0 1 3 .56c3.39 1 6.15 3.46 12.39 9.7l68.57 68.57a161.09 161.09 0 0 0 60.43-65.93z"/><path d="m173.3 243.85c4.5-4.85 3.87-9 8.27-20.38a72.83 72.83 0 0 1 135.87 0c4.4 11.42 3.77 15.53 8.26 20.38s9 5.84 23.28 5.84h61.63a161.11 161.11 0 1 0 -322.21 0h61.6c14.33 0 18.93-1.12 23.3-5.84zm686.58-82.54c-49.28 0-89.37 39.61-89.37 88.3s40.09 88.3 89.37 88.3 89.38-39.61 89.38-88.3-40.09-88.3-89.38-88.3zm.2 134.56a46.26 46.26 0 1 1 46.25-46.25 46.31 46.31 0 0 1 -46.25 46.25zm-156.86-116.06v153.19h41.83v-167.36h-27.66a19.87 19.87 0 0 0 -6.06.6 11.34 11.34 0 0 0 -7.5 7.51 19.81 19.81 0 0 0 -.61 6.06zm-204.35-14.17v167.36h27.77a19.87 19.87 0 0 0 6.06-.6 11.32 11.32 0 0 0 7.51-7.51 20.08 20.08 0 0 0 .6-6.05v-88.65l82.84 94.46c2.58 2.94 4.73 5.22 8.09 6.75s6.49 1.63 10.41 1.63h30.51v-167.39h-27.77a19.87 19.87 0 0 0 -6.06.6 11.28 11.28 0 0 0 -7.5 7.51 19.81 19.81 0 0 0 -.61 6.06v88.67l-82.83-94.48c-2.59-2.95-4.74-5.23-8.1-6.75s-6.49-1.64-10.41-1.64z"/></svg>