<svg id="Layer_1" xmlns="http://www.w3.org/2000/svg" viewBox="0 0 176.5 25" width="2500" height="354"><style>.st0{fill:#c90c41}</style><path class="st0" d="M122.1 14.7c1.9-4.4 3.7-8.7 3.7-8.8.1-.2.3-.4.6-.4h1.4c.3 0 .5.2.6.4.5 1.2 2 5 3.6 8.8h-9.9zm12.5-10.8c-1.8-4.2-1.1-3.7-5.2-3.9h-4.8c-3.8.1-3.2-.2-4.5 2.5 0 0-6.5 14.9-9.3 21l-.1.3c-.5 1-.1 1.1.7 1.1h5.9c.4 0 .6-.2.7-.4 0 0 .8-1.9 1.9-4.5h14.3c.6 1.5 1.3 3 1.9 4.5.1.3.4.5.7.5h6.1c.9 0 1.1.1.8-.7-1.1-2.6-8.1-18-9.1-20.4M42.9 0h-6c-.5 0-.6.2-.6.6v23.5c0 .6.1.8.8.8h5.7c.6 0 .8-.1.8-.8V.7c-.1-.5-.2-.7-.7-.7M29.5 0h-4.9c-.6 0-.8.2-.8.8v18.6S14 4.1 12.7 2.1C11.2-.1 10.7 0 6.4 0H.8C.1 0 0 .2 0 .8v23.4c0 .6.2.8.8.8h4.9c.7 0 .8-.1.8-.8V5.8s8.1 12.7 10.8 17c1.4 2.2 1.6 2.2 5.6 2.2h6.6c.6 0 .8-.1.8-.8V.8c0-.6-.2-.8-.8-.8m146.2 0h-4.9c-.6 0-.8.2-.8.8v18.6s-9.8-15.3-11.1-17.3c-1.5-2.3-2-2.1-6.3-2.1H147c-.7 0-.8.2-.8.8v23.4c0 .6.1.8.8.8h4.9c.7 0 .8-.1.8-.8V5.8s8.1 12.7 10.8 17c1.4 2.2 1.6 2.2 5.6 2.2h6.6c.6 0 .8-.1.8-.8V.8c0-.6-.1-.8-.8-.8M68.5 9.6c-2.4-.2-8.8-.8-10.9-1-.8-.1-1-.5-1.1-1V7v-.5c.1-.7.4-1 1.2-1h17.5c.6 0 .8-.1.8-.8v-4c0-.6-.2-.7-.8-.7H57.5c-4.6 0-7.2 1.7-7.9 5.2-.2.8-.2 1.7-.2 2.4 0 .8.1 1.7.1 2.3.3 2 1.5 4.3 6.8 4.9 4.2.4 10.3.9 12.3 1.1.9.1 1.1.8 1.1 1.2v1.6c0 .6-.3.8-1 .8H50.3c-.6 0-.8.1-.8.8v4c0 .6.2.8.8.8h18.3c4.5 0 7.5-.8 8.3-4.7.2-.8.2-1.9.2-2.7 0-1.2-.1-2.2-.2-2.6-.8-4.3-3.9-5.1-8.4-5.5m32.1 0c-2.4-.2-8.8-.8-10.9-1-.8-.1-1-.5-1.1-1V7v-.5c.1-.7.4-1 1.2-1h17.5c.6 0 .8-.1.8-.8v-4c0-.6-.2-.7-.8-.7H89.6c-4.6 0-7.2 1.7-7.9 5.2-.2.8-.2 1.7-.2 2.4 0 .8.1 1.7.1 2.3.3 2 1.5 4.3 6.8 4.9 4.2.4 10.3.9 12.3 1.1.9.1 1.1.8 1.1 1.2v1.6c0 .6-.3.8-1 .8H82.4c-.7 0-.8.1-.8.8v4c0 .6.2.8.8.8h18.3c4.5 0 7.5-.8 8.3-4.7.2-.8.2-1.9.2-2.7 0-1.2-.1-2.2-.2-2.6-.9-4.3-4-5.1-8.4-5.5"/></svg>