<svg height="2092" viewBox="0 0 504 421.7" width="2500" xmlns="http://www.w3.org/2000/svg"><path d="m293.7 227.7c-.4.1-2 .1-2.7.1h-51.6v12h52.5c.4 0 3.5 0 4.1-.1 10.7-1 15.6-9.9 15.6-17.7 0-8-5.1-16.6-14.8-17.5-1.9-.2-3.5-.2-4.2-.2h-34.3c-1.5 0-3.2-.1-3.8-.3-2.7-.7-3.7-3.1-3.7-5.1 0-1.8 1-4.2 3.8-5 .8-.2 1.7-.3 3.6-.3h49.5v-11.8h-50.3c-2.1 0-3.7.1-5 .3-8.6 1.2-14.6 8.1-14.6 16.9 0 7.2 4.5 15.6 14.4 17 1.8.2 4.3.2 5.4.2h33.4c.6 0 2.1 0 2.4.1 3.8.5 5.1 3.3 5.1 5.8 0 2.4-1.5 5-4.8 5.6zm-97.8 0c-.4.1-2 .1-2.6.1h-51.7v12h52.5c.4 0 3.5 0 4.1-.1 10.7-1 15.6-9.9 15.6-17.7 0-8-5.1-16.6-14.8-17.5-1.9-.2-3.5-.2-4.2-.2h-34.3c-1.5 0-3.2-.1-3.8-.3-2.7-.7-3.7-3.1-3.7-5.1 0-1.8 1-4.2 3.8-5 .8-.2 1.7-.3 3.6-.3h49.5v-11.8h-50.3c-2.1 0-3.7.1-5 .3-8.6 1.2-14.6 8.1-14.6 16.9 0 7.2 4.5 15.6 14.4 17 1.8.2 4.3.2 5.4.2h33.4c.6 0 2.1 0 2.4.1 3.8.5 5.1 3.3 5.1 5.8 0 2.4-1.4 5-4.8 5.6zm-94.2-46.3h13v58.7h-13zm-85 0h-16.7v58.7h13v-44l43.6 44h16.4v-58.7h-13v43.8zm414.4 58.7h13v-44l43.5 44h16.4v-58.7h-12.9v43.8l-43.3-43.8h-16.7zm-67.7-58.7-36.6 58.7h15.8l6.5-10.5h42.7l6.5 10.5h15.7l-36.6-58.7zm21.7 37.1h-29.3l14.7-23.6zm-312.8-70.4c26.2-76.5 98.4-127.9 179.8-127.9s153.7 51.4 179.8 127.9l.2.6h57.3v-6.9l-23.8-2.8c-14.7-1.7-17.8-8.2-21.8-16.4l-1-2c-34.4-73.2-109.3-120.6-190.7-120.6-81.5 0-156.3 47.4-190.7 120.8l-1 2c-4 8.2-7.1 14.7-21.8 16.4l-23.8 2.8v6.9h57.2zm359.8 124.8-.2.6c-26.2 76.5-98.4 127.8-179.8 127.8s-153.7-51.4-179.8-127.9l-.2-.6h-57.2v6.9l23.8 2.8c14.7 1.7 17.8 8.2 21.8 16.4l1 2c34.4 73.4 109.3 120.8 190.7 120.8s156.3-47.4 190.7-120.7l1-2c4-8.2 7.1-14.7 21.8-16.4l23.8-2.8v-6.9z"/></svg>