<svg xmlns="http://www.w3.org/2000/svg" width="2500" height="2500" viewBox="0 0 192.756 192.756"><g fill-rule="evenodd" clip-rule="evenodd"><path fill="#fff" d="M0 0h192.756v192.756H0V0z"/><path d="M8.651 71.438c-1.594 0-2.869.558-3.825 1.514-1.354 1.354-1.992 2.709-1.992 4.224V115.9c0 1.514.638 2.867 1.594 3.824 1.354 1.354 2.629 1.912 4.223 1.912h175.851c1.355 0 2.471-.559 3.826-1.912.955-.559 1.594-1.912 1.594-3.824V77.176c0-1.753-.639-3.267-1.594-4.224-.957-.956-2.311-1.514-3.826-1.514H8.651zm39.84 10.757h8.047v28.684h-8.047V82.195zm-35.298 0H26.26l8.765 21.832V82.195h8.048v28.684H30.404l-9.163-22.548v22.548h-8.048V82.195zm55.616 0h16.493v6.454H69.208v4.621h8.366c6.932 0 10.358 2.869 10.358 8.845 0 2.471-.717 4.541-2.311 6.453-1.912 1.594-3.825 2.311-5.737 2.311H61.479v-6.453h18.007v-4.621h-8.765c-3.267 0-5.737-.797-7.331-2.311-1.514-1.515-2.231-3.984-2.231-7.251 0-3.107.558-5.179 1.833-6.136 1.355-1.354 3.267-1.912 5.817-1.912zm45.576 0v6.454H98.291v4.621h8.365c6.932 0 10.359 2.869 10.359 8.845 0 2.471-.877 4.781-2.631 6.453-1.514 1.594-3.424 2.311-5.736 2.311H91.04v-6.453h17.609v-4.621h-8.844c-3.586 0-6.295-.957-8.048-3.107-1.355-1.674-1.913-3.826-1.913-6.455 0-2.868.797-5.02 2.311-6.136 1.354-1.354 3.267-1.912 5.738-1.912h16.492zm11.873 0h11.871l10.359 28.684h-8.445l-1.514-5.338h-12.271l-1.514 5.338h-8.445l9.959-28.684zm23.744 0h13.467l8.365 21.832V82.195h8.447v28.684h-12.59l-9.643-22.548v22.548h-8.047V82.195h.001z" fill="#374e8e"/><path fill="#374e8e" d="M128.568 99.406h7.649l-3.824-10.757-3.825 10.757z"/><path d="M62.594 41.957C52.077 48.65 44.427 57.335 39.248 67.614h114.579c-5.498-10.916-13.227-19.761-23.346-26.055-10.357-6.375-21.672-9.562-33.704-9.562-12.111.001-23.586 3.188-34.183 9.96zM39.248 125.461c5.179 10.359 12.829 18.963 23.346 25.656 10.199 6.375 21.514 9.641 34.183 9.641s23.903-3.266 34.103-9.641c10.518-6.852 18.166-15.457 22.947-25.656H39.248z" fill="#ca3132"/></g></svg>