<?xml version="1.0" encoding="UTF-8" standalone="no"?>
<!DOCTYPE svg PUBLIC "-//W3C//DTD SVG 1.1//EN" "http://www.w3.org/Graphics/SVG/1.1/DTD/svg11.dtd">
<svg width="100%" height="100%" viewBox="0 0 512 512" version="1.1" xmlns="http://www.w3.org/2000/svg" xmlns:xlink="http://www.w3.org/1999/xlink" xml:space="preserve" xmlns:serif="http://www.serif.com/" style="fill-rule:evenodd;clip-rule:evenodd;stroke-linecap:round;stroke-linejoin:round;stroke-miterlimit:1.5;">
    <path d="M256,0c141.29,0 256,114.71 256,256c0,141.29 -114.71,256 -256,256c-141.29,0 -256,-114.71 -256,-256c0,-141.29 114.71,-256 256,-256Zm135.375,114.467c0,-11.954 -9.705,-21.66 -21.66,-21.66l-227.43,0c-11.955,0 -21.66,9.706 -21.66,21.66l-0,283.066c-0,11.954 9.705,21.66 21.66,21.66l227.43,-0c11.955,-0 21.66,-9.706 21.66,-21.66l0,-283.066Z" style="fill:#2a76b7;"/>
    <path d="M256,0c141.29,0 256,114.71 256,256c0,141.29 -114.71,256 -256,256c-141.29,0 -256,-114.71 -256,-256c0,-141.29 114.71,-256 256,-256Zm-0,5c-138.531,0 -251,112.469 -251,251c0,138.531 112.469,251 251,251c138.531,0 251,-112.469 251,-251c0,-138.531 -112.469,-251 -251,-251Zm140.375,109.467l0,283.066c0,14.714 -11.946,26.66 -26.66,26.66l-227.43,-0c-14.714,-0 -26.66,-11.946 -26.66,-26.66l-0,-283.066c-0,-14.714 11.946,-26.66 26.66,-26.66l227.43,0c14.714,0 26.66,11.946 26.66,26.66Zm-5,0c0,-11.954 -9.705,-21.66 -21.66,-21.66l-227.43,0c-11.955,0 -21.66,9.706 -21.66,21.66l-0,283.066c-0,11.954 9.705,21.66 21.66,21.66l227.43,-0c11.955,-0 21.66,-9.706 21.66,-21.66l0,-283.066Z"/>
    <g transform="matrix(0.973782,0,0,1.17388,-52.3275,-48.7918)">
        <path d="M455.649,139.077c0,-10.184 -9.966,-18.452 -22.243,-18.452l-233.554,0c-12.276,0 -22.243,8.268 -22.243,18.452l-0,241.137c-0,10.184 9.967,18.452 22.243,18.452l233.554,0c12.277,0 22.243,-8.268 22.243,-18.452l0,-241.137Z" style="fill:none;stroke:#000;stroke-width:11.13px;"/>
    </g>
    <g transform="matrix(1.15573,0,0,1.15573,-30.8086,-53.312)">
        <path d="M237.716,334.548c-16.233,13.931 -60.264,22.057 -60.264,22.057c0,-0 8.126,-44.031 22.057,-60.264c38.39,-44.734 208.283,-208.14 208.283,-208.14c5.252,-5.252 13.78,-5.252 19.032,0l19.032,19.032c5.252,5.252 5.252,13.78 -0,19.032c-0,-0 -163.406,169.893 -208.14,208.283Z" style="fill:#2a76b7;stroke:#000;stroke-width:10.38px;"/>
    </g>
</svg>
