<svg xmlns="http://www.w3.org/2000/svg" xmlns:xlink="http://www.w3.org/1999/xlink" viewBox="0 0 48 48"><defs><radialGradient xlink:href="#a" id="f" cx="22767.4" cy="148727" r="15252" fx="22767.4" fy="148727" gradientTransform="rotate(37.192 765.233 1086.782) scale(.00413)" gradientUnits="userSpaceOnUse"/><radialGradient id="a" cx="22767.4" cy="148727" r="15252" fx="22767.4" fy="148727" gradientUnits="userSpaceOnUse"><stop offset="0" style="stop-color:#ef9a48"/><stop offset="1" style="stop-color:#8f5444"/></radialGradient><radialGradient xlink:href="#b" id="g" cx="326.281" cy="591.724" r="28.292" fx="326.281" fy="591.724" gradientTransform="matrix(.93052 0 0 .92334 288.432 -616.841)" gradientUnits="userSpaceOnUse"/><radialGradient xlink:href="#c" id="h" cx="306.03" cy="601.146" r="19.889" fx="306.03" fy="601.146" gradientTransform="matrix(1.8368 -.15304 .21772 1.73154 -184.243 -677.811)" gradientUnits="userSpaceOnUse"/><radialGradient xlink:href="#d" id="j" cx="18876.199" cy="150304" r="14266.5" fx="18876.199" fy="150304" gradientTransform="matrix(.00329 .0025 -.00244 .0032 799.154 -219.16)" gradientUnits="userSpaceOnUse"/><radialGradient id="d" cx="18876.199" cy="150304" r="14266.5" fx="18876.199" fy="150304" gradientUnits="userSpaceOnUse"><stop offset="0" style="stop-color:#fff974"/><stop offset="1" style="stop-color:#97946b"/></radialGradient><linearGradient id="b"><stop offset="0" style="stop-color:#fff;stop-opacity:1"/><stop offset="1" style="stop-color:#fff;stop-opacity:0"/></linearGradient><linearGradient id="c"><stop offset="0" style="stop-color:#d69600;stop-opacity:1"/><stop offset="1" style="stop-color:#ffff90;stop-opacity:1"/></linearGradient><linearGradient xlink:href="#e" id="i" x1="20482.521" x2="22053.289" y1="138225.59" y2="146536.86" gradientTransform="matrix(.00415 .00046 -.00063 .00386 516.6 -282.004)" gradientUnits="userSpaceOnUse"/><linearGradient id="e"><stop offset="0" style="stop-color:#fff;stop-opacity:1"/><stop offset="1" style="stop-color:#fff;stop-opacity:0"/></linearGradient></defs><g style="stroke-width:1.66667"><path d="M473.922 262.154h80v80h-80z" style="color:#000;display:inline;overflow:visible;visibility:visible;fill:none;stroke:none;stroke-width:3.33333;marker:none;enable-background:accumulate" transform="matrix(.6 0 0 .6 -284.353 -157.292)"/><path d="M520.659 264.42c4.279-.777 10.16-1.158 14.46-1.805l3.696 8.012c8.588 10.854 11.548 25.748 10.09 34.572l-2.486 12.596-65.755-29.759c2.196-5.1 5.346-8.256 8.368-11.674 9.263-8.603 20.377-11.03 31.627-11.942z" style="fill:#1f1a17;fill-rule:evenodd;stroke-width:1.66667" transform="matrix(.6 0 0 .6 -284.353 -157.292)"/><path d="M492.248 332.778c-12.526-10.492-15.1-25.989-11.311-41.375l3.656-7.346c7.406-10.733 17.586-14.49 29.779-17.453 6.957-.535 13.974-1.454 19.915-1.831 9.704 16.568 15.411 26.608 12.198 46.365l-2.72 7.87-3.541 5.438c-12.325 15.228-31.46 18.77-47.976 8.332z" style="fill:url(#f);fill-rule:evenodd;stroke-width:1.66667" transform="matrix(.6 0 0 .6 -284.353 -157.292)"/><path d="M565.718-96.603h52.652v52.245h-52.652z" style="color:#000;display:inline;overflow:visible;visibility:visible;fill:url(#g);fill-opacity:1;fill-rule:evenodd;stroke:none;stroke-width:3.33333;marker:none;enable-background:accumulate" transform="rotate(37 90.934 -500.064) scale(.6)"/><path d="M529.826 268.796s-33.838 28.423-32.805 30.796c.678 1.56 13.034 3.257 13.034 3.257l-10.073 22.063c-1.782 5.726 1.456 2.516 3.092 3.094 0 0 33.7-28.978 32.868-30.933-.832-1.955-8.931-2.484-12.438-3.497 2.282-4.661 9.488-22.94 9.488-22.94 2.125-4.137 1.38-6.275-3.166-1.84z" style="fill:#000;stroke:none;stroke-width:1.66667" transform="matrix(.6 0 0 .6 -284.353 -157.292)"/><path d="m531.538 269.807-29.946 27.538 12.905 2.52-12.05 25.47 29.947-27.538-12.906-2.52z" style="fill:url(#h);fill-opacity:1;stroke:none;stroke-width:1.66667" transform="matrix(.6 0 0 .6 -284.353 -157.292)"/><path d="M516.047 269.154c16.418-.02 29.71 11.43 29.682 25.569l-.006.36-59.452.076-.004-.36c.027-14.14 13.362-25.624 29.78-25.645z" class="fil16" style="fill:url(#i);fill-opacity:1;fill-rule:evenodd;stroke-width:1.66667" transform="matrix(.6 0 0 .6 -284.353 -157.292)"/><path d="m549.647 313.184 1.23 2.294-9.737 10.765c-6.486 7.953-9.218 9.851-14.889 13.017-12.607 4.678-19.604 1.759-29.446-1.664l-5.712 3.722-2.79-1.324-1.426-2.26 4.774-2.78c-17.266-18.401-15.362-34.669-11.632-50.889l2.604-.611 2.255 15.453 9.4-7.042 2.264 2.016-2.481 14.004 9.78-3.162 3.154.878-.31 13.323 22.892-12.043 2.38 1.423-5.04 12.32 12.983-12.606 2.414 1.407-4.856 10.855z" style="fill:#1f1a17;fill-rule:evenodd;stroke-width:1.66667" transform="matrix(.6 0 0 .6 -284.353 -157.292)"/><path d="M499.653 336.921c-2.532-.747-5.373-1.313-7.328-2.974-13.61-16.33-14.718-29.285-11.323-46.889l2.268 15.514 10.668-7.71-3.377 18.042 13.13-5.224-.038 17.017 24.693-14.588-5.58 17.71 17.124-17.072-4.873 12.917 13.168-7.59c-7.08 8.912-14.301 18.236-22.784 21.451-7.51 3.456-13.617 2.61-25.748-.604z" style="fill:url(#j);fill-rule:evenodd;stroke-width:1.66667" transform="matrix(.6 0 0 .6 -284.353 -157.292)"/><path d="m23466.3 158566-302.7 699-321.6 99-199.6-118 251-712z" class="fil43" style="fill:#99ae6a;fill-rule:evenodd;stroke-width:1.66667" transform="rotate(37.256 550.498 151.134) scale(.00248)"/></g></svg>