<?xml version="1.0" encoding="UTF-8" standalone="no"?>
<!-- Creator: CorelDRAW 2018 (64-Bit) -->

<svg
   xml:space="preserve"
   width="163.7227mm"
   height="47.973mm"
   version="1.1"
   style="clip-rule:evenodd;fill-rule:evenodd;image-rendering:optimizeQuality;shape-rendering:geometricPrecision;text-rendering:geometricPrecision"
   viewBox="0 0 16372.27 4797.3"
   id="svg10"
   xmlns="http://www.w3.org/2000/svg"
   xmlns:svg="http://www.w3.org/2000/svg">
 <defs
   id="defs4"><style
     type="text/css"
     id="style2">
   <![CDATA[
    .fil0 {fill:#336699}
   ]]>
  </style></defs>
 <g
   id="Слой_x0020_1"
   transform="translate(-3313.86,-951.35)">
  <metadata
   id="CorelCorpID_0Corel-Layer" />
  <path
   class="fil0"
   d="m 3767.81,951.35 h 15464.38 c 249.66,0 453.94,204.27 453.94,453.95 v 3889.4 c 0,249.68 -204.28,453.95 -453.94,453.95 H 3767.81 c -249.69,0 -453.95,-204.27 -453.95,-453.95 V 1405.3 c 0,-249.68 204.26,-453.95 453.95,-453.95 z"
   id="path7"
   style="fill:#000000" />
 <path
   style="font-size:3797.83px;font-family:'Humnst777 Blk BT';-inkscape-font-specification:'Humnst777 Blk BT';fill:#ffffff;stroke-width:28.4838"
   d="m 6179.8712,1936.0603 c -181.7321,0 -328.2304,78.5033 -439.495,235.51 -110.0283,155.7703 -165.0424,364.7004 -165.0424,626.7903 0,263.3261 55.0141,473.4925 165.0424,630.4991 110.0283,157.0067 256.5267,235.51 439.495,235.51 181.7321,0 326.9942,-77.8852 435.7862,-233.6556 108.792,-157.0066 163.188,-367.7911 163.188,-632.3535 0,-260.8536 -55.0141,-469.7837 -165.0424,-626.7903 -108.792,-157.0067 -253.4359,-235.51 -433.9318,-235.51 z m 0,-511.8169 c 409.2063,0 728.7829,122.391 958.7296,367.173 231.183,243.5457 346.7745,581.6663 346.7745,1014.3618 0,433.9318 -115.5915,772.6706 -346.7745,1016.2163 -229.9467,242.3095 -549.5233,363.4642 -958.7296,363.4642 -411.6789,0 -733.1098,-121.1547 -964.2928,-363.4642 -231.183,-243.5457 -346.7745,-582.2845 -346.7745,-1016.2163 0,-432.6955 115.5915,-770.8161 346.7745,-1014.3618 232.4193,-244.782 553.8503,-367.173 964.2928,-367.173 z M 9946.1763,2981.9471 V 4124.2632 H 9282.2978 V 3121.0278 c 0,-153.2978 -27.198,-267.0349 -81.594,-341.2113 -54.396,-75.4127 -137.2263,-113.119 -248.4908,-113.119 -116.2097,0 -209.5483,46.9784 -280.0158,140.9351 -69.2313,93.9567 -103.8469,220.0566 -103.8469,378.2995 v 938.3311 H 7898.9086 V 2171.5703 h 608.2462 v 350.4833 c 76.6489,-131.0449 175.5507,-230.5649 296.7055,-298.5599 121.1547,-69.2313 257.7629,-103.8469 409.8244,-103.8469 238.6007,0 420.3328,73.5582 545.1963,220.6747 124.8635,145.8802 187.2953,359.7554 187.2953,641.6256 z m 2377.3527,200.2762 v 163.188 h -1370.408 c 13.599,127.3361 68.613,225.6198 165.042,294.8511 96.429,69.2313 226.238,103.8469 389.426,103.8469 97.665,0 200.894,-13.599 309.686,-40.797 108.792,-27.198 220.675,-67.995 335.648,-122.391 v 478.4376 c -108.792,39.5607 -222.529,69.2313 -341.211,89.0116 -117.446,19.7804 -240.455,29.6706 -369.027,29.6706 -356.047,0 -634.208,-93.9568 -834.485,-281.8703 -200.276,-187.9135 -300.414,-448.767 -300.414,-782.5606 0,-304.1231 92.102,-545.8145 276.307,-725.074 185.441,-179.2596 435.168,-268.8894 749.181,-268.8894 316.486,0 560.65,92.1023 732.492,276.307 171.842,184.2047 257.763,446.2945 257.763,786.2695 z m -591.557,-231.8012 c -13.599,-131.0449 -55.632,-233.6555 -126.099,-307.8319 -70.468,-75.4126 -160.098,-113.1189 -268.89,-113.1189 -107.555,0 -195.949,37.7063 -265.18,113.1189 -69.231,74.1764 -111.265,176.787 -126.1,307.8319 z m 832.63,-178.0232 h 1012.507 v 500.6905 H 12564.602 Z M 13968.39,1489.1477 h 702.822 v 606.4251 532.1821 l 815.94,-1138.6072 h 786.269 l -968.001,1210.9292 1068.139,1424.1863 h -873.426 l -828.921,-1222.0557 v 1222.0557 h -702.822 z m 2373.644,0 h 734.346 l 587.848,2050.9766 580.43,-2050.9766 h 719.511 l -893.825,2635.1155 h -880.845 z m 2883.606,0 h 1071.849 l 482.146,1583.6655 c 18.545,63.0499 33.38,134.1355 44.506,213.257 12.363,77.8852 21.635,161.9518 27.816,252.1997 8.654,-97.6656 19.781,-187.2954 33.38,-268.8894 13.599,-82.8303 29.052,-153.2978 46.36,-211.4026 l 482.146,-1568.8302 h 1055.159 v 2635.1155 h -660.169 V 2355.1568 c 0,-84.0665 2.472,-171.2238 7.417,-261.4717 4.945,-90.2479 12.363,-186.6772 22.253,-289.2878 -17.308,79.1214 -35.234,155.1522 -53.778,228.0923 -18.544,71.7038 -38.324,139.6988 -59.341,203.985 l -593.411,1887.7886 h -630.499 l -580.43,-1856.2636 c -19.781,-64.2862 -38.943,-135.3719 -57.487,-213.2571 -18.544,-79.1215 -35.852,-162.5699 -51.923,-250.3452 8.654,124.8635 15.453,237.3643 20.398,337.5024 6.181,98.9019 9.272,173.6964 9.272,224.3835 v 1757.98 h -615.664 z"
   id="text1"
   transform="scale(0.84505868,1.1833498)"
   aria-label="One-KVM" /></g>
</svg>
