<svg id="hover-effect" xmlns="http://www.w3.org/2000/svg" fill="none" viewBox="0 0 154 48" aria-hidden="true" class="h-9 mb-2 sm:h-12 sm:mb-3 hover:text-brand-500 dark:hover:text-brand-500"><style>#hover-effect:hover{filter:drop-shadow(1px 1px 1px #0c192b)}</style><path fill="currentColor" d="M81.439 41.68V20.247h4.834v21.431H81.44Zm-6.805-17.521v-4.22H92.87v4.22H74.634Zm23.089 17.859c-1.54 0-2.936-.339-4.188-1.016a7.909 7.909 0 0 1-2.925-2.833c-.719-1.19-1.078-2.525-1.078-4.003 0-1.478.36-2.802 1.078-3.972a7.75 7.75 0 0 1 2.925-2.771c1.232-.698 2.627-1.047 4.188-1.047 1.56 0 2.956.338 4.187 1.016a7.678 7.678 0 0 1 2.926 2.802c.718 1.17 1.078 2.494 1.078 3.972 0 1.478-.36 2.813-1.078 4.003a7.912 7.912 0 0 1-2.926 2.833c-1.231.677-2.627 1.016-4.187 1.016Zm0-4.28c.677 0 1.272-.144 1.786-.431a3.02 3.02 0 0 0 1.17-1.263c.287-.554.431-1.18.431-1.878s-.144-1.303-.431-1.817a3.023 3.023 0 0 0-1.201-1.231c-.493-.308-1.078-.462-1.755-.462-.657 0-1.242.154-1.755.462a3.019 3.019 0 0 0-1.201 1.231c-.288.534-.431 1.15-.431 1.848 0 .677.143 1.293.43 1.847a3.23 3.23 0 0 0 1.201 1.263c.514.287 1.099.431 1.756.431Zm12.144 3.942V25.42c0-1.211.267-2.3.801-3.264a5.942 5.942 0 0 1 2.31-2.31c.985-.574 2.155-.862 3.51-.862 1.026 0 1.919.175 2.679.524.78.328 1.457.79 2.032 1.386l-2.956 2.956a2.01 2.01 0 0 0-.708-.462c-.246-.123-.544-.185-.893-.185-.637 0-1.139.185-1.509.554-.369.37-.554.873-.554 1.509v16.412h-4.712Zm-3.294-10.963v-4.003h12.317v4.003h-12.317Zm21.448 11.301c-1.375 0-2.597-.277-3.664-.831a6.441 6.441 0 0 1-2.464-2.34c-.595-1.006-.893-2.156-.893-3.45v-8.683h4.712v8.622c0 .514.082.955.246 1.324.185.37.452.657.801.863.349.205.769.307 1.262.307.698 0 1.252-.215 1.663-.646.411-.452.616-1.068.616-1.848v-8.622h4.711v8.653c0 1.314-.298 2.474-.893 3.48a6.432 6.432 0 0 1-2.463 2.34c-1.047.554-2.258.831-3.634.831Zm-116.527.031c-1.642 0-3.16-.288-4.557-.862a11.44 11.44 0 0 1-3.633-2.402A10.933 10.933 0 0 1 .87 35.213c-.575-1.375-.862-2.854-.862-4.434 0-1.601.287-3.08.862-4.434a10.82 10.82 0 0 1 2.402-3.541 10.687 10.687 0 0 1 3.603-2.371c1.395-.575 2.915-.863 4.557-.863 1.622 0 3.12.288 4.496.863a10.616 10.616 0 0 1 3.633 2.37 10.518 10.518 0 0 1 2.433 3.572c.575 1.355.862 2.833.862 4.435 0 1.58-.287 3.058-.862 4.434a11.172 11.172 0 0 1-2.402 3.572 11.25 11.25 0 0 1-3.634 2.37c-1.375.575-2.863.863-4.465.863Zm-.061-4.403c1.293 0 2.422-.288 3.387-.863a5.842 5.842 0 0 0 2.279-2.401c.533-1.047.8-2.248.8-3.603 0-1.027-.154-1.95-.462-2.771a6.05 6.05 0 0 0-1.324-2.156 5.47 5.47 0 0 0-2.063-1.386c-.78-.328-1.652-.492-2.617-.492-1.293 0-2.433.287-3.418.862-.965.554-1.714 1.345-2.248 2.37-.534 1.007-.8 2.197-.8 3.573 0 1.026.153 1.96.461 2.802a6.64 6.64 0 0 0 1.294 2.186 5.988 5.988 0 0 0 2.063 1.386c.8.328 1.683.493 2.648.493Zm22.684 4.341c-1.006 0-1.93-.195-2.772-.585-.841-.39-1.529-.924-2.063-1.6a4.516 4.516 0 0 1-.924-2.372v-6.313c.083-.882.39-1.683.924-2.401a5.561 5.561 0 0 1 2.063-1.694c.842-.41 1.766-.616 2.772-.616 1.416 0 2.668.339 3.756 1.016a7.01 7.01 0 0 1 2.587 2.772c.636 1.17.954 2.504.954 4.003 0 1.498-.318 2.833-.954 4.003a7.01 7.01 0 0 1-2.587 2.771c-1.088.678-2.34 1.016-3.756 1.016Zm-.862-4.249c.677 0 1.262-.154 1.755-.462a3.23 3.23 0 0 0 1.2-1.262c.288-.534.432-1.14.432-1.817 0-.698-.144-1.314-.431-1.848a3.019 3.019 0 0 0-1.201-1.231c-.493-.308-1.068-.462-1.725-.462s-1.242.154-1.755.462a3.08 3.08 0 0 0-1.17 1.231c-.287.534-.431 1.15-.431 1.848 0 .677.133 1.283.4 1.817a3.23 3.23 0 0 0 1.201 1.262 3.287 3.287 0 0 0 1.724.462Zm-7.76 10.254V26.714h4.711v3.85l-.77 3.633.708 3.633v10.162h-4.65Zm26.955-5.974c-1.622 0-3.07-.328-4.342-.985a7.616 7.616 0 0 1-2.956-2.802c-.719-1.191-1.078-2.536-1.078-4.034 0-1.499.35-2.833 1.047-4.003a7.739 7.739 0 0 1 2.895-2.802c1.21-.678 2.576-1.017 4.095-1.017 1.478 0 2.782.319 3.91.955a6.84 6.84 0 0 1 2.649 2.648c.657 1.13.985 2.423.985 3.88 0 .267-.02.554-.061.862a7.776 7.776 0 0 1-.154 1.016l-12.902.031v-3.233l10.9-.03-2.032 1.354c-.02-.862-.154-1.57-.4-2.125-.247-.574-.616-1.006-1.11-1.293-.471-.308-1.056-.462-1.754-.462-.74 0-1.386.175-1.94.524-.534.328-.955.8-1.263 1.416-.287.616-.43 1.365-.43 2.248 0 .883.153 1.642.461 2.279.329.615.78 1.098 1.355 1.447.595.328 1.293.493 2.094.493.739 0 1.406-.124 2.001-.37a4.564 4.564 0 0 0 1.57-1.17l2.587 2.587a6.982 6.982 0 0 1-2.679 1.94c-1.047.43-2.196.646-3.448.646Zm19.676-.338v-8.53c0-.78-.246-1.406-.739-1.878-.472-.493-1.077-.74-1.816-.74-.513 0-.965.113-1.355.34-.39.204-.698.512-.924.923-.226.39-.339.842-.339 1.355l-1.816-.893c0-1.17.256-2.197.77-3.08a5.195 5.195 0 0 1 2.124-2.032c.924-.492 1.96-.739 3.11-.739 1.109 0 2.084.267 2.925.8a5.605 5.605 0 0 1 2.033 2.064c.492.862.478 1.806.478 2.833v9.576h-4.45Zm-9.884 0V26.713h4.711V41.68h-4.71Z"></path><path fill="#0D1A2B" fill-rule="evenodd" d="M143.325.207a1.668 1.668 0 0 0-1.607 0l-8.233 4.526a3.096 3.096 0 0 0-.021.011l-1.084.596a1.668 1.668 0 0 0-.864 1.462V16.98c0 .609.331 1.169.864 1.462l8.312 4.568.032.018.994.546c.5.275 1.106.275 1.607 0l.996-.548.03-.016 8.311-4.568c.534-.293.865-.853.865-1.462V6.802c0-.609-.331-1.17-.865-1.462l-1.08-.594a2.892 2.892 0 0 0-.024-.013L143.325.207Zm.529 11.684 7.704-4.235a3.17 3.17 0 0 0 .024-.013l.092-.05a.385.385 0 0 1 .57.337v7.922a.385.385 0 0 1-.57.338l-.071-.04a3.397 3.397 0 0 0-.045-.025l-7.704-4.234Zm-10.389-4.246a.32.32 0 0 0 .02.011l7.704 4.235-7.704 4.234a1.08 1.08 0 0 0-.043.024l-.073.04a.385.385 0 0 1-.57-.337V7.93c0-.293.313-.479.57-.338l.096.053Zm17.487-1.781-7.219-3.968a.385.385 0 0 0-.57.326v8.584l7.788-4.28a.385.385 0 0 0 .001-.662Zm-16.859.662 7.787 4.28V2.222a.385.385 0 0 0-.57-.326l-7.217 3.966a.385.385 0 0 0 0 .664Zm.01 11.398a.385.385 0 0 1-.021-.662l7.798-4.286v8.584a.385.385 0 0 1-.555.334l-7.222-3.97Zm9.06 3.625v-8.573l7.798 4.286a.385.385 0 0 1-.021.662l-7.221 3.97a.385.385 0 0 1-.556-.334v-.011Z" clip-rule="evenodd"></path><path fill="#E2D23F" d="M142.336 1.33a.385.385 0 0 1 .371 0l8.233 4.526a.385.385 0 0 1 0 .675l-8.233 4.525a.386.386 0 0 1-.371 0l-8.233-4.525a.385.385 0 0 1 0-.675l8.233-4.525Z"></path><path fill="#FFEC40" d="M132.799 7.928c0-.292.314-.478.57-.337l8.312 4.568a.384.384 0 0 1 .199.338v9.05a.385.385 0 0 1-.57.338l-8.312-4.569a.385.385 0 0 1-.199-.337V7.93Z"></path><path fill="#fff" d="M151.674 7.591a.385.385 0 0 1 .57.337v9.051c0 .14-.076.27-.199.338l-8.312 4.568a.385.385 0 0 1-.57-.338v-9.05c0-.14.077-.27.2-.338l8.311-4.568Z"></path><path fill="#0D1A2B" d="m136.289 15.03-.001.013-1.948-1.025.001-.013c.045-.606.518-.868 1.056-.585.538.283.937 1.004.892 1.61Zm3.066 1.77-.001.013-1.948-1.025.001-.013c.045-.606.517-.868 1.055-.585.538.283.938 1.004.893 1.61Z"></path></svg>