<svg fill="none" height="732" viewBox="2.5 11.5 200.578 48" width="2500" xmlns="http://www.w3.org/2000/svg"><path d="m26.31 42.117c-10.11-.108-16.64-4.947-16.64-12.327s6.53-12.22 16.638-12.327c10.111.108 16.641 4.947 16.641 12.327s-6.53 12.219-16.638 12.327zm.296-30.612-.306-.005a61.97 61.97 0 0 0 -.305.005c-13.834.227-23.495 7.746-23.495 18.285s9.66 18.058 23.493 18.285h.305c.106.002.308 0 .308 0 13.834-.227 23.494-7.747 23.494-18.285 0-10.54-9.66-18.058-23.493-18.285zm152.684 30.612c-10.11-.108-16.641-4.947-16.641-12.327s6.531-12.22 16.637-12.327c10.112.108 16.642 4.947 16.642 12.327s-6.53 12.219-16.638 12.327zm.295-30.612-.305-.005-.304.005c-13.836.227-23.497 7.746-23.497 18.285s9.661 18.058 23.494 18.285a29.084 29.084 0 0 0 .613 0c13.832-.227 23.492-7.746 23.492-18.285 0-10.54-9.66-18.058-23.493-18.285zm-51.194 30.612c-10.111-.108-16.642-4.947-16.642-12.327s6.531-12.22 16.638-12.327c10.111.108 16.642 4.947 16.642 12.327s-6.531 12.219-16.638 12.327zm.295-30.612-.305-.005-.305.005c-6.591.108-12.233 1.872-16.336 4.828v-3.117h-7.16v46.284h7.16v-16.253c4.102 2.955 9.743 4.72 16.333 4.827a22.427 22.427 0 0 0 .613 0c13.832-.226 23.493-7.745 23.493-18.284 0-10.54-9.661-18.058-23.493-18.285zm-51.342 30.612c-10.111-.108-16.642-4.947-16.642-12.327s6.531-12.22 16.638-12.327c10.111.108 16.642 4.947 16.642 12.327s-6.53 12.219-16.638 12.327zm.307-30.612-.305-.005-.305.005c-6.591.108-12.233 1.872-16.336 4.828v-3.117h-7.16v46.284h7.16v-16.253c4.102 2.955 9.744 4.72 16.333 4.827a29.252 29.252 0 0 0 .613 0c13.832-.226 23.493-7.745 23.493-18.284 0-10.54-9.66-18.058-23.493-18.285z" fill="#000" fill-rule="evenodd"/></svg>