<svg clip-rule="evenodd" fill-rule="evenodd" height="914" image-rendering="optimizeQuality" shape-rendering="geometricPrecision" text-rendering="geometricPrecision" viewBox="0 0 94.32 34.5" width="2500" xmlns="http://www.w3.org/2000/svg"><g fill-rule="nonzero"><path d="M0 34.5h94.32V0H0z" fill="#e32124"/><path d="M82.17 13.8c.07 0 .14 0 .18-.07.01-.03.02-.06.02-.09a.16.16 0 0 0-.08-.14c-.05-.02-.1-.02-.21-.02h-.05v.31h.14zm-.09-.49c.15 0 .22 0 .28.03.2.06.22.24.22.3 0 .01 0 .05-.01.09s-.03.12-.14.19c-.02.01-.02.01-.05.02l.25.46h-.24l-.22-.42h-.14v.42h-.22v-1.09zm.09 1.54a.97.97 0 0 0 0-1.94c-.53 0-.96.43-.96.97 0 .53.43.97.96.97zm-.76-.97c0-.42.34-.77.76-.77.43 0 .77.35.77.77 0 .41-.35.76-.77.76-.41 0-.76-.35-.76-.76zm-6.74 6.17c-1.28 0-2.35-.86-2.68-2.03h7.08l.98-1.52h-8.07a2.792 2.792 0 0 1 2.68-2.04h4.88l.97-1.52h-5.96c-2.39 0-4.32 1.93-4.32 4.31s1.93 4.31 4.32 4.31h5.12l.97-1.52h-5.98zm-20.29 1.52a4.31 4.31 0 0 1 0-8.62h5.96l-.98 1.52h-4.88a2.791 2.791 0 0 0 0 5.58h5.98l-.98 1.52h-5.12zm-31.5-1.52c1.54 0 2.8-1.25 2.8-2.79s-1.25-2.79-2.8-2.79h-4.79a2.791 2.791 0 0 0 0 5.58zm-4.9 1.52c-2.39 0-4.32-1.93-4.32-4.31s1.93-4.31 4.32-4.31h5.01a4.31 4.31 0 0 1 0 8.62zm17.46-2.79c1.62 0 2.92-1.31 2.92-2.92s-1.3-2.92-2.92-2.92h-7.26v8.63h1.66v-7.11h5.49c.76 0 1.39.63 1.39 1.4s-.63 1.39-1.39 1.39h-4.68l4.94 4.32H38l-3.33-2.79h.75zm27.44 1.27v-7.1h-1.65v7.8c0 .22.08.42.24.58.16.15.38.25.61.25h7.57l.98-1.52h-7.74zm-20.3-1.52h4.43l-2.34-3.77-4.3 6.82h-1.95l5.22-8.18c.23-.33.61-.53 1.03-.53.4 0 .78.19 1.01.51l5.24 8.2h-1.96l-.92-1.52h-4.48l-.98-1.52z" fill="#fefefe"/></g></svg>