<svg width="131" height="37" viewBox="0 0 455 126" fill="none" xmlns="http://www.w3.org/2000/svg"><path d="M286.335 42.2453H309.344C313.937 42.2453 316.006 44.3134 316.006 48.9041C316.006 51.7549 314.817 53.6528 312.25 54.8964L286.335 67.4546V42.2453ZM328.79 69.8083C338.567 65.0706 343.098 57.8419 343.098 46.983C343.098 29.4955 335.214 21.6157 317.717 21.6157H257.953V104.134H286.335V90.3812L301.516 83.0248L314.716 104.134H345.678L325.277 71.5103L328.79 69.8083ZM407.602 77.0577C407.602 81.5021 405.598 83.5044 401.152 83.5044H379.22V70.6109H401.152C405.598 70.6109 407.602 72.6133 407.602 77.0577ZM379.22 42.2453H398.571C403.018 42.2453 405.022 44.2476 405.022 48.692C405.022 53.1364 403.018 55.1387 398.571 55.1387H379.22V42.2453ZM425.138 61.5932C429.878 58.1036 432.113 52.1803 432.113 43.5346C432.113 28.4241 425.301 21.6157 410.182 21.6157H350.839V104.134H415.342C430.461 104.134 437.274 97.3256 437.274 82.2151C437.274 70.8778 433.439 64.2145 425.138 61.5932ZM201.189 84.1491C186.782 84.1491 182.483 79.2605 182.483 62.8748C182.483 46.4892 186.782 41.6006 201.189 41.6006C215.597 41.6006 219.896 46.4892 219.896 62.8748C219.896 79.2605 215.597 84.1491 201.189 84.1491ZM201.189 20.3263C166.408 20.3263 153.457 31.8705 153.457 62.8748C153.457 93.8792 166.408 105.423 201.189 105.423C235.971 105.423 248.922 93.8792 248.922 62.8748C248.922 31.8705 235.971 20.3263 201.189 20.3263Z" fill="#9c62e9"></path><mask id="mask0_291_340" style="mask-type:luminance" maskUnits="userSpaceOnUse" x="0" y="1" width="124" height="124"><path d="M123.808 1H0.0581055V124.75H123.808V1Z" fill="white"></path></mask><g mask="url(#mask0_291_340)"><mask id="mask1_291_340" style="mask-type:luminance" maskUnits="userSpaceOnUse" x="0" y="1" width="124" height="124"><path d="M123.808 1H0.0581055V124.75H123.808V1Z" fill="white"></path></mask><g mask="url(#mask1_291_340)"><path fill-rule="evenodd" clip-rule="evenodd" d="M75.4939 123.29C71.1726 124.246 66.6815 124.75 62.0728 124.75C43.7869 124.75 27.3538 116.818 16.0264 104.207C21.6663 108.395 29.7784 110.09 40.2451 109.252C42.6151 109.062 45.0401 108.75 47.4726 108.347C50.5001 107.847 53.5476 107.205 56.5226 106.487V106.485C63.2551 104.857 69.6301 102.837 74.6576 101.16C78.2076 100.012 82.3976 98.6025 86.7901 96.9325C87.1651 95.74 87.4876 94.5525 87.7576 93.42C88.1751 91.67 88.5476 89.845 88.8826 87.955C82.9401 90.4225 77.0301 92.435 72.2976 93.965H72.2926C72.2926 93.965 72.2908 93.9641 72.2889 93.9634L72.2851 93.9625C63.6276 96.855 52.4576 99.83 41.2776 100.725C30.4801 101.587 23.1151 99.4375 19.3776 94.3325C16.0626 89.8025 14.5501 84.015 17.1076 75.7625C16.5626 74.91 16.0151 74.0425 15.4751 73.165C14.9176 72.26 14.3801 71.36 13.8601 70.475L12.2001 67.475C11.8776 68.2 11.5651 68.925 11.2701 69.65C7.29429 79.3964 6.46229 87.6618 8.76945 94.3151C3.32319 85.1015 0.197754 74.3532 0.197754 62.875C0.197754 51.5392 3.24613 40.9153 8.56785 31.7785C6.2955 38.4497 7.18167 46.7155 11.2275 56.4475C12.14 58.6425 13.185 60.8525 14.3225 63.0425C15.735 65.765 17.2875 68.4625 18.89 71.0725C22.5175 76.9725 26.4075 82.4125 29.5575 86.675C31.745 89.695 34.38 93.245 37.325 96.9075C38.575 96.895 39.7975 96.835 40.9575 96.7425C42.75 96.6 44.605 96.39 46.505 96.1225C42.3225 91.235 38.585 86.2375 35.6675 82.2075V82.2025L35.6669 82.2015L35.6656 82.1997C35.6644 82.1981 35.6625 82.1963 35.66 82.195C30.2325 74.855 23.9525 65.1525 19.6475 54.795C15.49 44.7925 15.26 37.1225 18.96 31.9925C22.2425 27.44 27.28 24.2125 35.92 24.095C36.5625 23.3125 37.2175 22.525 37.8875 21.74C38.5775 20.93 39.265 20.14 39.9475 19.3725L42.285 16.8675C41.4975 16.785 40.715 16.7125 39.9375 16.655C29.4487 15.8857 21.3362 17.6428 15.7226 21.8839C27.0589 9.07516 43.6228 1 62.0728 1C66.5482 1 70.9126 1.47514 75.1183 2.37774C68.069 2.2753 60.478 5.6721 52.47 12.53C50.665 14.075 48.8875 15.755 47.155 17.51H47.1575C45.0025 19.695 42.915 22.005 40.93 24.335C36.44 29.6075 32.47 34.99 29.3875 39.3025C27.1925 42.3175 24.63 45.9175 22.0575 49.85C22.455 51.0375 22.8925 52.185 23.34 53.26C24.03 54.92 24.8 56.6175 25.64 58.34C28.995 52.8525 32.595 47.75 35.525 43.735L35.5325 43.73C35.5325 43.73 35.5375 43.725 35.5375 43.7225C40.84 36.2925 48.13 27.3225 56.65 20.0275C64.8775 12.9825 72.1025 10.3925 78.125 12.3275C83.47 14.0425 88.095 17.8375 90.8775 26.02C91.82 26.39 92.77 26.77 93.725 27.1625C94.7075 27.5675 95.6725 27.9775 96.615 28.39L99.715 29.8375C99.55 29.0625 99.38 28.295 99.1925 27.5375H99.19C96.669 17.2892 92.4711 10.1028 86.6715 6.0827C106.762 14.7964 121.322 33.8583 123.628 56.5436C121.535 49.8269 115.963 43.6738 106.988 38.19L106.99 38.1875C104.963 36.9475 102.817 35.775 100.61 34.67C97.865 33.2975 95.025 32.0275 92.195 30.86C85.7925 28.2175 79.4475 26.105 74.3925 24.5075C70.845 23.35 66.63 22.0275 62.0925 20.795C61.0875 21.5375 60.1325 22.31 59.2475 23.0675C57.8825 24.2375 56.505 25.495 55.125 26.8275C61.3825 28.3225 67.345 30.17 72.0725 31.715H72.075V31.72L72.0807 31.7217L72.085 31.7225C80.79 34.47 91.575 38.63 101.145 44.4775C110.387 50.125 115.082 56.195 115.105 62.52C115.125 68.1325 112.947 73.705 106.025 78.8775C105.965 79.89 105.897 80.9125 105.818 81.9425C105.735 83.0025 105.645 84.045 105.542 85.07L105.122 88.47C105.81 88.0725 106.49 87.67 107.152 87.2575C116.09 81.7135 121.621 75.5226 123.669 68.7913C121.515 91.4984 107.089 110.63 87.0965 119.481C92.8481 115.418 96.9842 108.213 99.43 97.97C99.9825 95.6575 100.435 93.255 100.802 90.815H100.8C101.26 87.78 101.59 84.685 101.827 81.6325C102.36 74.7275 102.41 68.04 102.367 62.74C102.372 59.0075 102.325 54.5875 102.097 49.89C101.08 49.165 100.052 48.495 99.06 47.8875C97.525 46.95 95.9025 46.03 94.2075 45.1275C94.72 51.5425 94.805 57.7875 94.7975 62.7625V62.775C94.875 71.9025 94.25 83.445 91.645 94.355C89.13 104.89 84.8075 111.23 78.7975 113.208C73.4625 114.96 67.49 114.61 60.43 109.625C59.45 109.88 58.46 110.132 57.4575 110.372C56.4225 110.622 55.4025 110.857 54.4 111.077L51.0325 111.73C51.6225 112.263 52.215 112.785 52.8125 113.288C60.8533 120.08 68.4548 123.427 75.4939 123.29Z" fill="#7a2fd0"></path></g></g><path d="M445.499 32C445.153 32 444.981 31.8398 444.981 31.5195V22.4805C444.981 22.1602 445.153 22 445.499 22C445.74 22 445.935 22.1042 446.083 22.3127L450.104 27.9878L449.874 28.0183L453.912 22.3127C454.054 22.1042 454.262 22 454.537 22C454.833 22 454.981 22.1602 454.981 22.4805V31.5195C454.981 31.8398 454.808 32 454.463 32C454.117 32 453.988 31.8398 453.988 31.5195V23.4416L454.257 23.5408L450.573 28.6895C450.425 28.898 450.216 29.0023 449.948 29.0023C449.734 29.0023 449.553 28.898 449.405 28.6895L445.721 23.5408L445.991 23.6585V31.5456C445.991 31.866 445.844 32 445.499 32Z" fill="#9c62e9"></path><path d="M439.48 32.004C439.32 32.004 439.195 31.9613 439.104 31.876C439.019 31.7853 438.976 31.66 438.976 31.5V23.008H435.504C435.344 23.008 435.219 22.9653 435.128 22.88C435.043 22.7893 435 22.664 435 22.504C435 22.344 435.043 22.2213 435.128 22.136C435.219 22.0453 435.344 22 435.504 22H443.477C443.637 22 443.759 22.0453 443.845 22.136C443.935 22.2213 443.981 22.344 443.981 22.504C443.981 22.664 443.935 22.7893 443.845 22.88C443.759 22.9653 443.637 23.008 443.477 23.008H439.984V31.5C439.984 31.6547 439.939 31.7773 439.848 31.868C439.763 31.9587 439.64 32.004 439.48 32.004Z" fill="#9c62e9"></path></svg>