<svg height="512pt" viewBox="12.73 22.47 1318.02 472.64" width="1792" xmlns="http://www.w3.org/2000/svg"><path d="m180.92 23.91c2.59-1.44 6.42-.37 7.31 2.62.96 2.47-.7 4.73-2.06 6.64-9.63 13.65-16.02 29.51-19.04 45.92-1.83.78-2.36 2.7-1.79 4.51.9.33 1.81.62 2.73.9 18.69-1.64 37.65-1.3 56.05 2.63 33.48 6.74 64.77 23.68 88.82 47.9 23.98 23.97 40.81 55.03 47.62 88.26 7.55 35.98 3.33 74.28-11.77 107.79-32.02 68.43-86 126.31-152.05 163-2.13.99-5.2 1.03-6.66-1.09-1.72-2.22-1.01-5.38.69-7.4 8.91-12.43 15.13-26.72 18.51-41.62.65-3.09 1.54-6.22 1.27-9.4-1.09-1.42-2.89-.99-4.42-.94-32.06 3.21-65.05-2.52-94.02-16.68-31.03-14.95-57.36-39.39-74.77-69.1-16.13-27.33-24.61-59.16-24.02-90.91.11-29.14 8.06-58.04 22.06-83.55 32.59-62.57 83.76-115.37 145.54-149.48m-1.8 167.21c-19.07 2.56-36.66 13.76-47.34 29.72-7.23 10.96-11.61 23.98-11.52 37.16-.54 17.66 6.5 35.35 18.7 48.07 10.66 11.48 25.47 18.96 41 20.96 15.81 2.09 32.32-1.61 45.71-10.3 13.61-8.64 23.98-22.28 28.62-37.73 8.71-26.82-1.73-58.24-24.45-74.81-14.27-10.86-32.98-15.68-50.72-13.07z" fill="#f15a23"/><path d="m790.44 125.48c12.36-3.5 26.53 1.8 33.43 12.65 5.03 7.49 6.26 17.24 3.68 25.84-3.31 10.91-13.21 19.57-24.57 21.06-11.19 1.83-23.11-3.19-29.53-12.56-6.86-9.55-7.35-23.17-1.21-33.2 3.97-6.74 10.63-11.82 18.2-13.79zm279.71-.22c13.95-3.57 29.67 4.14 35.14 17.5 6.01 13.26.89 30.36-11.62 37.9-7.21 4.69-16.4 5.81-24.64 3.61-8.13-2.21-15.13-8.06-18.94-15.55-4.42-8.74-4.34-19.65.37-28.26 4.01-7.56 11.36-13.23 19.69-15.2zm-572.61 30.49c21.56-2.47 43.95.64 63.55 10.15 17.31 8.24 32.25 21.44 42.45 37.68 18.68 29.39 20.73 68.35 5.79 99.72-8.49 18-22.42 33.32-39.39 43.68-31.05 19.06-71.42 21.24-104.73 6.85-19.61-8.5-36.55-23.17-47.42-41.61-12.52-20.89-16.81-46.31-12.87-70.27 3.4-21.11 13.67-41.08 28.98-56.02 16.93-16.97 39.91-27.45 63.64-30.18m6.03 49.96c-11.18 1.55-21.74 7.14-29.23 15.6-18.57 20.65-18.22 55.37.76 75.65 9.95 11.05 25.12 16.93 39.92 15.84 12.76-.71 25.22-6.48 33.65-16.15 19.62-21.64 17.96-58.89-3.74-78.53-10.99-10.14-26.64-14.61-41.36-12.41zm780.42-27.7c6.26-.01 12.51-.02 18.78 0-.04 1.41-.04 2.82-.04 4.24-2.34 0-4.67 0-6.98.01 0 6.24-.02 12.47.03 18.71-1.53.01-3.04.03-4.54.04.01-6.25.01-12.5 0-18.75-2.42-.02-4.83-.02-7.23-.03-.02-1.41-.03-2.82-.02-4.22zm23.48-.02c1.71.03 3.43.07 5.17.14 2.05 3.48 4.23 6.89 6.48 10.25 2.31-3.41 4.49-6.92 6.72-10.39 1.62.01 3.26.01 4.91.02-.01 7.66-.01 15.32 0 22.98-1.52 0-3.02 0-4.5.01-.02-5.15.08-10.29-.12-15.43-2.52 3.41-4.69 7.06-7.07 10.56-2.41-3.6-4.74-7.24-7.06-10.88.01 5.25 0 10.5 0 15.75-1.52 0-3.02 0-4.5.01-.03-7.67.03-15.35-.03-23.02zm-297.41 10.84c1.8-1.24 3.85-2.03 5.87-2.87 2.19.93 4.69 2.4 4.54 5.15.08 44.62.01 89.26.04 133.88-.33 17.22-2.95 35.25-12.71 49.86-8.66 13.12-22.75 21.89-37.75 25.96-19.23 5.34-39.53 5.41-59.26 3.44-17.56-1.93-34.85-6.6-50.84-14.13-2.79-.96-4.4-4.33-2.92-7 4.29-9.08 8.69-18.14 13.15-27.14 1.2-2.99 5.04-3.43 7.55-1.85 17.24 8.88 36.94 13.3 56.32 11.49 9.73-.98 19.76-4.79 25.78-12.86 6.57-8.47 7.29-19.67 6.94-29.98-8.38 9.38-18.77 17.42-31.14 20.59-19.18 4.83-40.52 1.13-56.76-10.25-13.17-9.17-22.23-23.55-25.91-39.07-3.01-12.81-3.17-26.3-.52-39.18 3.26-15.85 11.86-30.8 24.8-40.68 8.39-6.5 18.43-10.85 28.9-12.61 6.22-1.19 12.58-.77 18.87-.82 13.01-.02 26.02.03 39.03-.04 1.45.07 3.13-.15 4.31.95 3.27 2.76 6.07 6.04 9.19 8.98 10.81-7.32 21.8-14.37 32.52-21.82m-83.57 55.74c-6.16 1.56-11.88 5.01-15.94 9.92-9.25 11.12-8.82 29.21 1.37 39.59 12.18 12.56 34.91 12.6 46.99-.13 10.7-11.06 10.62-30.66-.34-41.53-8.21-8.27-21.01-10.66-32.08-7.85zm286.78-39.34c10.02-4.52 21.38-5.12 32.14-3.48 11.08 1.74 21.79 7.09 29.03 15.79 6.55 7.7 10.25 17.49 11.79 27.4 1.33 8.27.98 16.68 1.02 25.02v83.07c.39 2.99-1.82 6.4-5.11 5.96-14.74.03-29.48 0-44.22.01-2.84.38-5.51-2.07-5.15-4.96-.06-26.02.02-52.05-.04-78.07-.09-7.37-1.58-15.34-6.94-20.78-9.19-9.21-26.84-7.11-33.41 4.2-3.47 5.51-4.13 12.19-4.14 18.56.02 25.36 0 50.73.02 76.09.32 2.42-1.64 5.02-4.17 4.92-14.34.13-28.69-.04-43.03.08-1.98-.1-4.31.25-5.77-1.37-1.69-1.76-1.46-4.41-1.56-6.66.08-47-.03-94.01.05-141.02-.34-2.99 2.14-5.78 5.17-5.67 14.36-.18 28.74-.03 43.1-.08 2.5-.16 5.65.98 6.06 3.78.35 5.93.03 11.89.13 17.83 6.7-8.58 14.95-16.24 25.03-20.62zm-495.64 3.42c6.91-4.57 15.24-6.69 23.46-6.89 2.83-.27 5.4 2.32 5.13 5.15.05 15.7.04 31.4 0 47.1.39 3.46-3.11 5.56-6.2 5.22-11.21.06-23 3.56-30.69 12.1-8.43 9.38-11.27 22.35-11.8 34.63-.13 15.99.08 31.99-.08 47.98.24 2.93-2.48 5.44-5.36 5.07-14.73-.03-29.45.01-44.18-.02-2.78.37-5.23-2.16-4.89-4.91-.03-48.38-.05-96.77.01-145.14-.15-3.09 3.1-4.94 5.87-4.68 14.37-.01 28.73-.07 43.1.03 2.73-.16 5.48 1.97 5.4 4.86.29 8.46 0 16.94.11 25.41 4.42-10.08 10.65-19.9 20.12-25.91zm58.59-4.34c13.93-.18 27.87.01 41.8-.09 2.1.09 4.65-.2 6.2 1.57 1.5 1.29 1.48 3.39 1.54 5.19-.01 47.37-.01 94.74 0 142.12.34 2.79-1.55 6.15-4.69 5.88-15.04.03-30.08.04-45.12 0-3.09.27-5.07-3.15-4.71-5.92.02-47.72.01-95.44 0-143.16-.48-2.96 2-5.68 4.98-5.59zm278.05.1c14.55-.4 29.15-.05 43.72-.17 2.9-.35 6.61 1.31 6.47 4.67.1 48.39.02 96.79.04 145.18.26 2.48-1.75 5.08-4.37 4.87-15.06.08-30.13.04-45.2.02-2.27.18-4.34-1.6-4.63-3.82-.57-3.37-.26-6.81-.3-10.2.02-45.01 0-90.01.01-135.02-.23-2.56 1.6-5.26 4.26-5.53zm1.18 216.67c2.44-.38 4.9-.73 7.36-1.05-.14 19.4-.02 38.8-.06 58.21-2.06 0-4.11 0-6.14.02-.17-1.12-.33-2.24-.48-3.34-5.58 3.58-12.76 5.48-19.17 3.13-4.01-1.52-5.97-5.97-5.94-10.03-.06-6.36-.03-12.73-.02-19.09-.09-4.34 1.79-9.13 6.02-10.91 5.87-2.43 12.39-.93 18.46-.2.02-5.58.04-11.16-.03-16.74m-17.17 27.81c-.1 6.07-.05 12.14-.03 18.21-.18 2.18.85 4.62 3.16 5.19 5.11 1.38 10.11-1.33 14.12-4.26-.09-7.93 0-15.85-.05-23.78-4.43-.55-8.94-1.61-13.39-.82-2.56.43-3.93 3.04-3.81 5.46zm58.72-27.85c2.4-.37 4.82-.72 7.25-1.08 0 6.43-.01 12.87 0 19.31 5.32-2.09 11.22-3.29 16.89-2.08 4.48.98 7.5 5.4 7.57 9.87.07 6.64.11 13.28-.02 19.92-.1 4.75-3.09 9.39-7.76 10.76-7.76 2.4-16.07 1.11-23.91-.21-.04-18.83-.01-37.66-.02-56.49m7.23 25.05c.03 8.68.01 17.36.01 26.05 4.19.36 8.52 1.1 12.66-.09 2.36-.58 4.24-2.67 4.51-5.1.64-5.29.26-10.64.35-15.95-.01-2.69-.25-6.18-3.16-7.36-4.89-1.51-9.86.71-14.37 2.45zm-332.98-23.35c6.91.03 13.82 0 20.74 0 4.52.02 9.7.79 12.74 4.52 3.08 3.85 2.74 9.09 2.81 13.73-.1 4.32.12 9.18-2.71 12.76-2.64 3.43-7.18 4.36-11.25 4.67-5.02.22-10.05.02-15.07.09-.03 6.58 0 13.16-.02 19.74-2.42-.01-4.83-.01-7.23-.01-.02-18.5-.01-37-.01-55.5m7.19 6.6c.1 7.45.08 14.9.02 22.36 5.89-.18 11.93.71 17.73-.55 4.78-1.51 3.71-7.24 3.86-11.11-.16-3.35.66-8.36-3.3-9.83-5.91-1.76-12.23-.74-18.31-.87zm422.1 48.91c-.05-18.51-.09-37.02.02-55.53 10.89.07 21.79.01 32.69.04-.02 2.16-.02 4.32 0 6.48-8.42.01-16.83.01-25.24 0-.01 5.76-.04 11.52.02 17.27 7.81-.03 15.64-.01 23.46-.01-.01 2.16 0 4.32.01 6.49-7.83.02-15.67 0-23.5.01-.01 6.16 0 12.33 0 18.49 8.5.01 16.99.02 25.49 0-.01 2.26-.02 4.52-.02 6.79-10.98-.06-21.96-.02-32.93-.03zm58.1-55.51c3.32 0 6.66-.01 10 .11 6.08 18.5 12.45 36.91 18.65 55.38-2.51.02-5.01.03-7.5.05-1.6-4.41-3.13-8.84-4.61-13.28h-23.28c-1.52 4.42-2.95 8.86-4.51 13.26l-7.51-.03c6.22-18.51 12.48-37.01 18.76-55.49m-4.74 35.77c6.46-.01 12.92-.02 19.39-.01-3.32-9.92-6.39-19.92-9.69-29.84-3.39 9.9-6.49 19.89-9.7 29.85zm-427.51-20.93c4.46-1.19 9.28-1.23 13.72.08 4.73 1.37 8.45 5.59 9.22 10.45.71 4.93.37 9.93.42 14.89.02 4.19-.91 8.71-4.02 11.74-3.52 3.63-8.9 4.48-13.74 4.28-4.84-.11-10.13-1.73-12.93-5.94-2.85-4.1-2.59-9.32-2.58-14.08.09-4.94-.53-10.19 1.69-14.79 1.54-3.33 4.74-5.64 8.22-6.63m2.95 5.94c-3.43.71-5.54 4.1-5.51 7.46-.04 5.36-.48 10.81.33 16.13 1.54 6.05 9.61 6.82 14.43 4.46 4.24-2.11 3.94-7.5 3.94-11.53-.24-4.42.73-9.18-1.28-13.31-2.35-4-7.89-4.23-11.91-3.21zm95.88-4.26c4.36-2.74 9.83-2.91 14.8-2.19 4.17.54 8.12 3.21 9.64 7.23 2.02 5.23 1.19 10.97 1.33 16.45-8.01.02-16.02-.02-24.02.01.1 3.77-.83 8.99 3.31 11.02 6.12 2.27 12.82.37 18.99-.84.33 1.96.66 3.93 1 5.91-7.18 1.96-14.97 3.25-22.25 1.13-4.84-1.37-8-6.13-8.18-11.04-.24-5.31-.06-10.64-.1-15.95-.05-4.44 1.57-9.27 5.48-11.73m4.2 5.26c-3.05 2.48-2.36 6.77-2.45 10.24 5.69-.01 11.39 0 17.09-.01-.17-3.65.46-8.45-3.09-10.76-3.54-1.82-8.24-1.76-11.55.53zm33.83-7.01c2.13-.02 4.27-.02 6.42-.03.11 1.83.24 3.66.39 5.5 3.43-2.54 7.19-4.59 11.06-6.4.35 2.19.68 4.38 1.03 6.57-3.96 2.23-7.86 4.59-11.63 7.13-.05 9.32 0 18.65-.02 27.98-2.43-.01-4.85-.03-7.26-.04.02-13.57-.01-27.14.01-40.71zm25.95 9.63c.86-5.24 5.46-9.29 10.64-10 5.77-.91 12.8-.76 16.99 3.93 4.5 5.53 2.89 13.12 3.15 19.69-8.01-.01-16.02-.03-24.02.01.04 3.91-.64 9.62 3.96 11.31 6.11 1.72 12.48.04 18.55-1.09.25 1.94.53 3.88.81 5.83-7.41 2.09-15.59 3.41-23.05.84-5.14-1.84-7.63-7.51-7.46-12.67.12-5.95-.46-11.95.43-17.85m9.92-3.04c-3.54 2.29-3.14 6.98-3.17 10.66 5.7-.02 11.39-.01 17.09 0-.14-3.51.54-7.82-2.48-10.36-3.29-2.28-7.99-2.14-11.44-.3zm136.62-6.61c2.36-.01 4.74-.01 7.12-.03 3.68 11.52 7.32 23.05 10.96 34.58 3.69-11.51 7.39-23.03 11.1-34.54 2.39-.01 4.78-.01 7.19-.02-6.26 19.06-12.4 38.16-19.17 57.04l-6.85-.06c1.85-5.39 3.69-10.78 5.63-16.14-.72-.03-2.15-.08-2.87-.11-4.3-13.6-8.89-27.1-13.11-40.72zm-278.68.09c2.31-.05 4.64-.08 6.96-.1 2.2 11.02 4.41 22.03 6.6 33.05 3.3-10.97 6.47-21.99 9.65-32.99 2.9-.04 5.81-.06 8.73-.06 3.21 11.01 6.49 22 9.6 33.04 2.33-10.99 4.43-22.03 6.74-33.03 2.29 0 4.58.01 6.88.02-2.94 13.6-5.67 27.24-8.79 40.79-3.04-.05-6.08-.06-9.1-.08-3.21-11.28-6.39-22.57-9.69-33.83-3.18 11.3-6.4 22.58-9.67 33.86-3.07 0-6.14 0-9.2-.01-2.91-13.55-5.73-27.12-8.71-40.66z" fill="#6d6e70"/></svg>