<svg width="1860" height="2500" viewBox="0 0 256 344" xmlns="http://www.w3.org/2000/svg" preserveAspectRatio="xMidYMid"><defs><linearGradient x1="50%" y1="0%" x2="50%" y2="100%" id="a"><stop stop-color="#F90" offset="0%"/><stop stop-color="#F05A22" offset="100%"/></linearGradient></defs><path d="M127.616 2.374c.7 1.802-.51 3.45-1.503 4.844-7.025 9.957-12.548 21.092-14.75 33.063-.862 2.457-.672 4.288 0 4.492 13.633-1.197 29.012-1.059 42.434 1.808 24.423 4.917 47.25 17.274 64.793 34.942 17.493 17.486 29.77 40.144 34.738 64.385 5.508 26.247 2.43 54.186-8.586 78.632-23.358 49.918-62.736 92.141-110.918 118.906-1.554.722-3.794.751-4.859-.795-1.254-1.62-.736-3.925.504-5.398 6.5-9.068 11.037-19.492 13.503-30.362.474-2.254 1.123-4.537.926-6.857-.795-1.036-2.108-.722-3.224-.685-23.388 2.341-47.454-1.839-68.587-12.168-22.636-10.906-41.843-28.735-54.544-50.408C5.777 216.836-.409 193.617.021 170.455c.08-21.257 5.88-42.34 16.093-60.948C39.888 63.863 77.215 25.346 122.284.463c1.889-1.05 4.683-.27 5.332 1.911zM120.97 122.44c-13.911 1.868-26.743 10.038-34.534 21.68-5.274 7.996-8.47 17.494-8.404 27.109-.393 12.882 4.742 25.787 13.642 35.066 7.776 8.375 18.58 13.831 29.909 15.29 11.533 1.525 23.577-1.174 33.345-7.514 9.928-6.302 17.493-16.253 20.878-27.523 6.354-19.565-1.262-42.486-17.836-54.573-10.41-7.922-24.059-11.439-37-9.535z" fill="url(#a)"/></svg>