<svg xmlns="http://www.w3.org/2000/svg" width="2500" height="2500" viewBox="0 0 192.756 192.756"><g fill-rule="evenodd" clip-rule="evenodd"><path fill="#fff" d="M0 0h192.756v192.756H0V0z"/><path d="M176.939 158.695v-2.266H8.213v2.266h168.726zM183.072 132.689c3.754 0 6.85 3.094 6.85 6.85 0 3.536-3.096 6.629-6.85 6.629-3.537 0-6.631-3.093-6.631-6.629 0-3.756 3.094-6.85 6.631-6.85zm0 1.326c-2.873 0-5.305 2.431-5.305 5.524 0 2.872 2.432 5.303 5.305 5.303 3.092 0 5.523-2.431 5.523-5.303.001-3.094-2.431-5.524-5.523-5.524zm1.766 9.06l-1.547-3.095h-1.545v3.095h-1.326v-7.292h3.535c.662 0 1.326 0 1.988.441s.662 1.105.662 1.769c0 1.325-.662 1.987-1.768 1.987l1.547 3.095h-1.546zm.443-5.304c0-.885-1.104-.885-1.768-.885h-1.768v1.989h2.209c.884.001 1.327.001 1.327-1.104zM46.587 129.664l1.767-2.431.221-.882 1.325-1.548 1.989-2.43 1.546-1.547 1.547-1.548.884-.883.884-.883.883-.885.443-.221.441.221-.22.664-1.325 1.767-1.326 2.43-1.326 1.548-2.431 3.535-1.327 1.325-1.326.885-.882.883-1.327 1.546-2.209 2.433-.884 1.104-1.326 1.767-1.547 1.768 5.526-8.618zM58.297 140.934l.441-1.326.663-.884.664-1.548.662-1.104.443-1.104.219-1.325v-1.106l.443-1.105.664-1.326.662-1.767.22-1.106.664-.882.441-1.107.221-.662-.442-.442-.22-.442.662-1.325.663-1.105.884-1.327.664-1.325.664-.663 1.105-1.989 1.103-1.989 1.326-.883 1.104-1.325 1.107-1.106 1.325-1.766.22-.444 1.105-1.104-.221.883-.221 1.547-.883 1.769-.22 1.104-.222.883-.442 1.105v.884l-.222.442v.442l.222.443v2.209l-.441 1.325-.886 1.326-.883 1.548-.884 1.325-.662 1.324-.885 1.327-1.104.884-.441.222-.886 1.104-1.105 1.547-.884 1.326-.883.663-.443.884-.44.663-.222.883-.442 1.105-.661.884-.886.663-.662.883-.664.885-.222.442-.441.663-.441.662v-.662zM99.396 99.612l.221.884v.442l.221.884-.662 1.325-.442.885.442 1.769 1.103 3.314.664 2.871.662 2.652.887 2.211 1.768 1.988 1.103.883 1.326.663.663.664.884 1.546 1.104 1.989.885 1.547.884 2.21 1.102 1.546 1.107 1.988.442 1.77.885 1.545.662 1.546.882 1.99.442 1.105.664 1.767.662 1.327.664 1.103.221.884.441.664.444.885.441.44.441.663.221-.442.221-.884-.221-.662.221-.664-.221-.662-.221-.442-.222-.442-.219-.884-.441-.664-.444-.882-.221-1.105v-.664l-.22-.441v-.663l.22-.663.442-.222v-.662l-.221-.884-.441-1.104-.442-.883-.884-.885-.662-.885-.665-1.324-.441-1.326-.441-1.106-.442-.663-.662-1.766-.443-1.769-.662-1.105-.223-.664-.221-.662.444-.662.441-.443v-.884l-.441-1.104-.223-.883-.664-.885-.441-.663-.221-.883-.44-.663-.664-1.106-.443-.884-.44-1.105-.886-1.325-.44-1.103-1.326-1.548-.885-1.106-.22-.44-.885-1.106-.66-1.326-.664-.885-.664-1.324-.44-.664-.887-1.546-1.105-1.546-.662-1.107-.662-1.103-.885-1.106-1.103-1.546 2.208 7.07zM111.77 103.147l.884.885 1.106 1.325 1.105 1.106 1.324 1.325 1.327 1.327 1.326 1.546.885 1.106 1.324 1.325.443.883.442.443.22.663.221 1.546.221.885.664.662 1.103 1.104 1.547 1.769 1.326 1.103 1.326 1.107 2.432 2.208.662.886.44.882.443.884.664.885.662.883.885 1.325.441 1.106.664 1.104.883 1.106.442 1.325.662.663.443 1.105.443.663.442 1.104.662 1.106.883 1.324.664 1.548-1.326-1.768-1.325-1.767-2.431-2.874-1.768-1.767-1.326-1.325-1.107-1.547-1.323-1.106-1.107-1.325-.883-.662-1.105-.221-.66-.221-.666-.664-.442-.884-.662-.662-1.105-1.327-1.104-1.104-.885-.883-.662-.664-.664-1.105-.662-1.325-.664-1.105-.662-1.546-.885-1.548-1.326-2.652-.883-1.545-.883-1.99-.662-1.326-.885-1.546-.443-1.104-.664-1.106-.441-.221v-.442l-.442-.663-.439-1.326.881 1.104zM131.217 115.964l.881 1.106.886 1.325.444.663.218.883v1.327l.442.662.664.663.662 1.105 1.106.884.884 1.324.883.665.662.883 1.989 2.21.884 1.105.885.884.662.663.885.883-1.326-2.209-1.547-1.988-.885-1.548-.441-.662-.442-.663v-1.547l-.22-.663-.444-.662-1.326-1.548-1.324-1.546-1.326-1.326-1.327-1.105-1.105-1.105-.883-1.105-1.105-.662.664 1.104z"/><path d="M18.522 106.685a73.923 73.923 0 0 0 9.722 36.68l6.85-7.292 6.63-8.618 7.734-8.396 15.688-18.12 1.768-2.209 2.208-.441 1.326-.883 7.736-7.293 3.092-2.651 9.503-7.514 1.765-.884 2.21.443 2.653 2.651 4.641 4.42 3.535.884 5.525 4.641 7.07 6.628 4.418 1.768 5.967 4.199 4.863 5.745 6.848 9.501 5.303 5.746 4.197 5.966 3.096 3.094 2.873 3.757 1.988 3.092c6.188-10.164 7.953-23.201 7.953-34.911 0-40.66-32.922-73.583-73.58-73.583-40.657-.004-73.582 32.92-73.582 73.58z"/><path d="M43.934 36.857l-1.105 4.641 4.198 2.652-4.861.442-1.105 4.64-1.988-4.42-4.863.221 3.758-3.092-1.989-4.421 4.199 2.431 3.756-3.094zM106.469 23.157l-4.42 2.431 1.103 4.862-3.535-3.315-4.198 2.652v-.221l1.989-4.42-3.756-3.314 4.86.442 1.988-4.42 1.105 4.862 4.864.441zM73.765 23.82l-2.873 3.977 2.873 3.979v.22l-4.641-1.767-2.873 3.977v-4.861l-4.638-1.768 4.638-1.326V21.39h.221l2.652 3.977 4.641-1.547zM89.674 21.832l-3.534 3.314 1.987 4.42h-.22l-3.978-2.431-3.756 3.315 1.104-4.862-4.198-2.431v-.221l4.862-.441.883-4.641 1.988 4.42 4.862-.442zM58.076 29.125l-2.21 4.418 3.535 3.314-4.64-.662-2.208 4.418-.886-4.861-4.861-.663 4.421-2.208-.884-4.861 3.313 3.313 4.42-2.208zM14.324 73.539l1.327 4.86h4.861l-3.979 2.652 1.547 4.64-3.977-2.873-3.978 2.653 1.549-4.42-3.757-2.872v-.221l4.64.221 1.767-4.64zM21.617 59.396l.662 4.862 4.861.885-4.419 1.987.664 4.861-3.316-3.535-4.64 1.989 2.43-4.198-3.313-3.537 4.639.886 2.432-4.2zM31.78 46.801l-.22 4.862 4.419 1.767v.222l-4.641 1.105-.22 4.639v.222l-2.651-4.199-4.863 1.104 3.094-3.755-2.43-3.979v-.221l4.42 1.99 3.092-3.757zM9.242 88.343h.22l2.212 4.419 4.859-.884-3.535 3.537 2.431 4.197h-.221l-4.198-2.208-3.536 3.534.663-4.861-4.199-2.21 4.641-.662.663-4.862zM12.334 136.955h.223l4.197 2.21 3.537-3.314-.884 4.862 4.197 2.21-4.86.662-.885 4.862-2.208-4.421-4.641.444 3.536-3.095-2.212-4.42zM8.579 121.047l3.535 3.093 4.419-2.21-2.209 4.421 3.756 3.092-4.861-.441-2.209 4.418-.885-4.859-4.86-.444 4.197-2.429-.883-4.641zM7.253 104.474l3.094 3.756 4.64-1.545-2.873 3.976 3.094 3.977h-.221l-4.64-1.546-2.873 3.978v-4.862l-4.64-1.326 4.64-1.546-.221-4.862zM176.514 79.062l-3.756 2.874 1.547 4.64h-.221l-3.756-2.872-3.978 2.872 1.546-4.64-3.976-2.874h4.859l1.549-4.64 1.324 4.64h4.862zM168.559 70.665l-4.418-1.989-3.315 3.537.662-4.86-4.42-1.99 4.862-.884.664-4.861 2.209 4.198 4.861-.884-3.314 3.536 2.209 4.197zM160.826 56.965v.221l-4.863-1.324-2.651 4.197-.22-4.861-4.641-1.105 4.42-1.768-.221-5.082 3.094 3.756 4.418-1.767h.223l-2.653 3.977 3.094 3.756zM150.441 45.476l-4.863-.443-1.988 4.42-1.104-4.641-4.863-.441 4.199-2.43-1.105-4.863 3.756 3.094 4.199-2.43-1.986 4.419 3.755 3.315zM137.623 35.532l-4.859.441-1.106 4.862-1.99-4.418-4.861.44 3.757-3.314-1.988-4.418 4.199 2.429 3.536-3.314-.883 4.641 4.195 2.651zM122.598 27.797l-4.418 1.548v5.082l-2.873-3.977-4.641 1.767v-.221l2.873-3.976-2.873-3.756v-.222l4.641 1.546 2.65-3.977v4.64l4.641 1.546zM178.504 128.781l-4.863.442-1.104 4.64-1.767-4.42-4.862.442 3.756-3.314-1.768-4.421 3.979 2.432 3.756-3.094-1.106 4.641 3.979 2.652zM173.199 144.689l-4.861-.663-1.988 4.421-.883-4.641-4.862-.662 4.198-2.431-.883-4.862 3.535 3.314 4.197-2.21h.223l-2.211 4.199 3.535 3.535zM181.375 112.428h-.221l-4.64 1.326-.442 4.862-2.431-4.198-4.641 1.104h-.221l3.315-3.755-2.43-4.2 4.42 1.769 3.092-3.535-.442 4.86 4.641 1.767zM180.49 96.077l-4.418 1.989.442 4.861-3.094-3.756-4.42 1.989h-.221l2.653-4.199-3.313-3.756 4.861 1.105 2.43-4.199.442 4.861 4.638 1.105zM25.491 166.473l1.571 3.371 1.57-3.371h2.442l-4.012 8.241-4.013-8.241h2.442zM48.601 174.526l1.397-3.371 1.744 3.371h2.268l-4.012-8.241-3.838 8.241h2.441zM9.354 174.526l1.57-3.371 1.745 3.371h2.27l-4.015-8.241-4.012 8.241h2.442zM84.619 174.901l-1.744-3.559-1.222 3.184h-2.442l3.489-8.241 1.919 3.934 1.919-3.934 3.49 8.241h-2.443l-1.22-3.184-1.746 3.559zM39.62 166.473h-2.093v8.053h2.093v-8.053zM73.194 166.285c2.094 0 3.84 1.872 3.84 4.12 0 2.435-1.746 4.309-3.84 4.309-2.266 0-4.012-1.874-4.012-4.309 0-2.248 1.746-4.12 4.012-4.12zm1.745 4.12c0-.936-.871-1.872-1.745-1.872-1.045 0-1.919.937-1.919 1.872 0 1.124.874 2.062 1.919 2.062.874 0 1.745-.938 1.745-2.062zM63.951 172.279v2.247c-.349.188-.523.188-.873.188-2.095 0-3.838-1.874-3.838-4.309 0-2.248 1.743-4.12 3.838-4.12.35 0 .523 0 .873.188v2.061h-.873c-.872 0-1.745.937-1.745 1.872 0 1.124.873 2.062 1.745 2.062.35-.001.524-.001.873-.189zM147.545 174.526l1.57-3.371 1.571 3.371h2.441l-4.012-8.241-4.013 8.241h2.443zM127.75 171.342l1.393 3.184h2.445l-3.664-8.241-1.92 3.934-1.742-3.934-3.666 8.241h2.443l1.395-3.184 1.57 3.559 1.746-3.559zM114.668 166.285c2.092 0 3.838 1.872 3.838 4.12 0 2.435-1.746 4.309-3.838 4.309-2.268 0-4.014-1.874-4.014-4.309 0-2.248 1.746-4.12 4.014-4.12zm1.744 4.12c0-.936-.873-1.872-1.744-1.872-1.047 0-1.746.937-1.746 1.872 0 1.124.699 2.062 1.746 2.062.871 0 1.744-.938 1.744-2.062zM104.551 172.467c-1.047 0-1.746-.938-1.746-2.062 0-.936.699-1.872 1.746-1.872h.873v-2.061c-.35-.188-.523-.188-.873-.188-2.092 0-3.838 1.872-3.838 4.12 0 2.435 1.746 4.309 3.838 4.309.35 0 .523 0 .873-.188v-2.247c-.35.189-.524.189-.873.189zM134.637 166.473v8.054h2.096v-2.621h1.395c1.395 0 2.443-.938 2.443-2.436 0-2.061-1.396-2.997-2.967-2.997h-2.967zm2.095 3.746v-1.873h.348c.523 0 1.221 0 1.221.936 0 .75-.523.938-1.221.938h-.348v-.001zM172.225 169.281l1.222-2.808h2.442l-2.618 5.432v2.621h-2.091v-2.621l-2.791-5.432h2.439l1.397 2.808zM160.451 168.908l1.221 1.123v-3.558h2.271v8.241l-4.363-3.372v3.184h-2.268v-8.053l3.139 2.435z"/><path d="M37.271 82.102c-1.105-.662-1.767-2.429-1.989-3.756-.221-1.105 0-1.989.664-2.872.441-.884 1.768-.884 2.432-.664.662.443 1.104.884.883 1.547-.221 1.106-1.326 1.768-1.326 3.094 0 1.105 1.546 1.768 2.429 1.989 2.211.662 4.199.441 6.188-.884 7.071-5.966 5.745-16.572 14.364-20.771l1.104-.22c-2.651 2.872-3.093 5.745-4.197 9.059 0 .222.884 0 1.326 0 3.314-1.325 5.302-4.199 5.082-7.512 0-2.211-1.767-4.201-3.755-4.862-5.745-1.988-11.713-.884-15.69 3.535-2.431 2.872-3.535 5.524-2.651 9.061.22.884 1.104 1.767 2.211 1.989 1.104.441 2.208.662 3.313 0 1.768-.443-1.989-3.978 2.432-3.978.44 0 .883.664.883 1.326.221 1.106-.442 2.652-1.326 3.314-1.989 1.326-4.64 1.989-7.071 1.326-1.547-.441-3.094-1.546-3.978-3.093-1.104-1.989-.662-5.745.664-7.514 3.314-5.524 9.501-8.396 15.688-8.617 4.861-.221 9.723 1.105 12.375 5.082 1.105 1.769 1.105 5.304-.221 7.071-2.21 3.095-6.187 4.641-9.944 4.861-.884 5.304-5.082 10.165-10.165 11.932-2.873.884-7.074 1.325-9.725-.443zM135.381 75.253v-1.105c-1.547 1.105-3.094 1.988-4.861 1.326-.662-.442-.441-1.326-.221-1.989.664-1.989 1.104-2.874 1.988-5.083-.221-.441-.664 0-.885 0-2.873 2.21-3.094 4.42-4.418 7.072h-2.873l.883-1.548c-.883.884-1.326.884-2.43 1.327-.662.221-1.547.883-2.43.221-.443-.442-.223-.884-.443-1.326-1.326 1.105-2.871 2.209-4.641 1.326-.883-.442-.441-1.548-.221-2.209l1.547-3.756c-.441.221-1.326.441-1.988.662-1.324 2.874-3.535 5.745-7.072 5.966-.883-.221-1.986-1.104-2.207-1.988-.223-.222.221-.222 0-.222-1.105 1.105-2.873 2.21-4.863 1.548-.885-.442-.441-1.768-.219-2.652.883-1.988.662-1.767 1.766-3.977.443-1.547-1.324-.885-1.547-.222-1.988 2.431-1.988 4.198-3.313 6.63-.886.221-1.989 0-2.874 0 1.105-2.432 2.21-4.199 3.315-6.852 0-.22 0-.662-.223-.662-1.546.221-1.987 1.548-2.872 2.651l-2.431 5.083h-2.431c0-.664.223-1.106.441-1.548-1.104.884-2.43 1.989-4.196 1.548-.445-.442-.664-1.106-.445-1.768-.882.22-1.545 1.104-2.208 1.547-.884.221-1.769.441-2.652.221-1.326-1.548-.221-3.535.664-4.862l.882-1.104c-.662-.221-1.546.441-2.21-.221l-.439-1.106c-2.21 1.989-2.432 4.419-3.758 7.072h-2.431c0-.886.223-.664.662-1.547-1.545 1.104-2.872 2.209-4.861 1.326-.441-.442-.221-1.105-.441-1.546-1.326 1.104-2.872 2.43-4.861 1.546-.664-.442-.884-1.326-.443-2.21.885-3.313 3.979-6.408 7.293-7.513 1.325-.22 2.874-.22 3.977.441l-3.314 6.63c0 .441 0 .884.443 1.105 3.535-1.546 3.977-5.083 5.524-7.735h2.429c0 .664-.662 1.328-.442 1.769 1.105-.884 2.21-2.431 3.536-2.21.443 1.105-1.326 1.989-.664 3.093 1.548-.22 2.653-1.767 3.979-2.208 1.546-.885 3.535-1.105 5.082-.443-.884 2.431-2.208 4.641-3.315 7.071 0 .443 0 .664.443.664 1.548-.441 1.767-1.767 2.872-2.651l2.874-5.083h2.208c-.22.443-.441.885-.441 1.328 1.327-.884 2.651-1.989 4.421-1.328.441.443.441.885.662 1.328 1.326-1.106 2.871-2.21 4.641-1.106.441.664 0 1.106-.221 1.548-.885 2.209-1.988 3.756-2.432 5.966.221.441.662.221.883 0 2.873-1.767 1.99-4.198 4.42-6.407 1.768-1.328 3.758-2.432 5.967-1.328.883.664.662 1.769.883 2.651 1.547.222 2.875-1.104 3.535-2.43.664-.221 1.77-.221 2.432 0l-3.092 7.072c0 .221 0 .441.219.662 3.535-1.546 3.758-4.861 5.305-7.734.883-.221 1.766 0 2.652 0-.887 2.43-2.213 4.199-3.096 6.629 0 .443-.441 1.105.221.884 3.096-1.767 4.199-4.419 5.523-7.514.885-.221 1.549 0 2.434 0 0 .442-.443 1.106-.443 1.548 1.326-1.105 2.873-2.431 4.641-1.769.883.664.441 1.769.221 2.431l-2.432 5.083c0 .221.221.441.443.441 3.092-1.326 3.535-4.198 5.082-6.85-.662 0-1.105-.221-1.547-.221-.443-1.546 1.547-.664 1.988-.885l1.99-3.977h2.209l-1.547 3.977c.441.221 1.105 0 1.766 0 0 .443 0 1.105-.439 1.328h.221c-.441 0-1.105 0-2.209-.222l-2.873 6.409c0 .662-.443 1.546.441 1.989 1.768.221 2.65-1.547 3.535-2.873h1.547c-1.768 3.094-3.094 4.419-5.303 4.419-.884-.002-2.651-.665-2.872-1.548zM66.44 73.264c2.651-1.326 3.534-3.977 4.86-6.187-2.431-.664-5.081 3.092-5.744 5.744 0 .222.442.664.884.443zm41.54-1.546c0 .662-.664 1.546 0 2.208.221.441.662.222.885 0 1.768-2.208 2.65-3.756 3.092-6.407 0-.441-.441-.664-.662-.441-1.988 1.103-2.43 2.651-3.315 4.64zm-24.968 1.546c2.872-1.105 3.536-3.756 4.861-5.966-2.432-.442-4.419 2.872-5.304 5.082-.22.441 0 1.105.443.884z" fill="#fff"/></g></svg>