<svg height="1714" viewBox="-.42 0 636.33 436.47" width="2500" xmlns="http://www.w3.org/2000/svg"><g fill="#00083e"><path d="m190.71 308.4c0-29.55-31.35-43.79-68.59-43.79-39.84 0-76.39 17.65-89.81 45.02a51.878 51.878 0 0 0 -5.62 23.53 35.348 35.348 0 0 0 5.62 19.98c5.75 8.49 16.01 13.82 31.07 13.82 18.48 0 33.13-10.13 33.13-27.78 0 0 .27-4.92-5.48-4.92-4.65 0-5.89 3.28-5.75 4.92.69 13.82-7.53 24.91-22.18 24.91-16.42 0-23.27-13.96-23.27-28.87 0-30.52 23-50.77 46.96-59.52a95.588 95.588 0 0 1 35.05-6.16c27.11 0 49.29 10.4 49.29 38.32 0 23.26-19.58 43.1-42.99 44.88l.96-3.15c4.79-17.11 10.68-35.85 20.26-49.67.55-.83 1.51-2.19 2.6-3.56l-1.37-1.64a55.792 55.792 0 0 0 -5.89 4.1c-44.9 35.03-46.26 133.55-106.1 133.55-2.06 0-4.12-.14-6.16-.41-12.46-2.05-19.03-10.4-19.03-22.03 0-2.33.82-5.48.82-7.25a5.995 5.995 0 0 0 -5.81-6.16h-.76c-5.34 0-7.53 4.24-7.67 10.26-.41 17.38 12.46 27.5 32.31 29.42 2.19.14 4.38.27 6.71.27 46.68 0 75.29-35.3 87.48-78.13 6.17-.72 12.27-2 18.21-3.83 21.64-6.03 46-20.53 46-46.12zm444.67 10.26h-16.43l-3.69 8.62-6.44 14.5h-7.66l-2.34 4.93h7.95l-9.59 21.21c-6.83 14.91-17.52 29.56-23.68 29.56-1.37 0-2.19-.55-2.19-1.91s.41-2.6 1.92-6.43c1.92-4.52 5.07-11.08 7.4-15.87 3.42-6.98 8.9-17.79 8.9-23.12s-3.42-9.58-10.13-9.58c-7.53 0-14.37 4.52-20.68 11.08l4.11-9.85h-15.46l-12.6 28.74c-5.06 10.13-15.33 26.96-21.77 26.96-1.37 0-1.92-.82-1.92-2.19.13-1.23.46-2.43.96-3.56.55-1.23 8.08-18.88 8.08-18.88l13.69-31.34h-16.7l-13.28 30.51c-4.1 9.44-14.51 25.45-21.22 25.45-1.17.11-2.21-.74-2.33-1.91v-.55c0-1.64 1.23-4.65 2.19-6.84l6.98-15.32 14.37-31.34h-16.56l-3.3 7.12c-2.46 4.79-6.57 10.4-13.14 10.4-3.15 0-4.65-1.23-5.34-2.46-.96-10.54-7.67-16.15-17.53-16.15-13.69 0-23.41 8.07-29.85 17.93a91.507 91.507 0 0 0 -9.85 21.75c-5.89 9.72-12.05 17.25-16.98 17.25-1.23 0-2.06-.69-2.06-2.33s1.64-5.34 2.19-6.71l10.82-22.99c3.01-7.11 5.07-11.77 5.07-16.42 0-4.93-3.42-8.49-9.04-8.49-7.8 0-16.29 4.52-23 11.9.23-1.17.32-2.37.27-3.56 0-5.47-2.74-8.35-8.35-8.35-7.12 0-14.51 4.25-21.22 11.91l4.38-10.68h-15.06l-12.73 28.74c-6.02 13.55-15.74 26.96-21.22 26.96-1.23 0-2.05-.69-2.05-2.33 0-2.6 2.88-9.03 3.97-11.63l16.84-38.18c1.23-2.87-6.85-4.65-17.11-4.65s-21.36 5.2-29.3 11.9c-5.61 4.65-9.72 6.98-11.78 6.98a1.252 1.252 0 0 1 -1.51-1.23c0-2.33 5.61-8.9 5.61-13.96 0-2.33-1.23-3.83-4.38-3.83-6.02 0-13.14 5.75-18.34 11.77l4.38-10.54h-14.78l-12.73 28.74c-6.03 13.55-16.02 27.64-21.5 27.64-1.23 0-2.05-.68-2.05-2.33 0-2.6 2.74-8.89 4.24-12.18l16.84-38.31c1.23-2.87-6.85-4.65-17.12-4.65-15.2 0-29.98 10.26-37.79 20.8-8.62 11.35-14.51 23.4-14.65 33.25-.13 7.94 3.97 12.86 12.18 12.86 9.17 0 16.57-7.25 20.81-12.73-.25 1.08-.44 2.18-.55 3.29 0 5.47 2.19 9.44 8.9 9.44 5.89 0 13.69-4.93 19.99-12.73l-5.07 11.63h16.02l15.75-35.72c5.21-11.63 11.1-17.65 12.74-17.65.38-.07.74.17.81.55 0 .04.01.09.01.13 0 1.23-2.46 4.52-2.46 7.53s1.64 5.34 6.03 5.34c3.42 0 7.25-1.64 10.68-3.83-8.08 10.95-13.56 22.44-13.56 31.89-.14 7.94 3.97 12.86 12.19 12.86 8.62 0 16.7-8.21 21.08-13.68-.16 1.27-.26 2.55-.27 3.83 0 5.34 3.01 9.85 9.17 9.85 6.84 0 12.32-4.24 19.17-12.59l-5.07 11.49h16.43l15.06-34.07c6.57-14.78 15.47-22.72 19.85-22.72 1.09-.11 2.08.68 2.19 1.78v.41a14.62 14.62 0 0 1 -1.37 4.79l-21.61 49.95h16.84l15.33-34.76c6.57-14.91 13.83-22.17 19.3-22.17 1.64 0 2.33.83 2.33 2.6-.15 1.91-.66 3.77-1.51 5.48l-14.79 31.47a29.187 29.187 0 0 0 -2.46 9.58c0 4.79 2.6 9.04 10 9.04 9.59 0 16.84-7.25 25.05-18.06v2.32c.69 8.62 5.48 16.15 18.21 16.15 15.06 0 27.25-10.4 34.63-26.95 2.79-5.82 4.6-12.07 5.35-18.48 1.65.84 3.49 1.22 5.34 1.1a14.5 14.5 0 0 0 7.12-1.78l-2.6 5.61c-3.02 6.3-6.31 13.28-8.9 19.16a30.9 30.9 0 0 0 -2.88 11.08c0 5.88 3.28 10.13 9.99 10.13s15.88-6.3 22.45-15.19h.14c-.44 1.84-.67 3.72-.69 5.61 0 4.93 1.51 9.58 8.36 9.58 7.95 0 14.1-5.75 20.13-13l-5.07 11.5h16.57l13.28-30.1c7.53-16.97 15.06-27.23 22.03-27.23 1.2-.04 2.22.86 2.34 2.05v.4c0 2.88-4.11 10.68-7.8 18.47-3.43 7.12-6.03 12.59-7.8 16.83a32.155 32.155 0 0 0 -2.88 11.35c0 5.2 2.88 9.17 9.31 9.17 9.58 0 19.3-9.3 24.49-16.28a34.138 34.138 0 0 0 -1.91 10.4c0 9.58 5.74 14.37 13.82 14.37 5.37-.04 10.59-1.76 14.93-4.92 6.29-4.38 11.37-10.95 15.61-16.97l-2.88-2.74c-3.97 5.61-8.36 10.95-12.88 14.23a13.925 13.925 0 0 1 -8.49 3.28c-3.42 0-5.61-1.78-5.61-6.16s2.05-10.26 5.2-18.2c.13-.13 4.65-10.26 8.9-19.97 3.56-8.22 7.12-16.15 7.8-17.79h10.81l2.19-4.93h-10.68l10.13-23.13zm-466.98 78.96c-2.33 0-3.97-.82-3.97-3.83.14-8.07 6.84-22.44 15.2-33.94 5.88-7.94 13.55-13.82 21.77-13.82l-10.41 23.26c-7.8 17.52-16.29 28.33-22.59 28.33zm102.4 0c-2.33 0-3.97-.82-4.1-3.83.14-8.07 6.84-22.44 15.2-33.94 5.88-7.94 13.55-13.82 21.77-13.82l-10.41 23.26c-7.94 17.93-16.01 28.33-22.45 28.33zm181.8-45.29c-.41 8.89-8.21 30.37-17.38 43.24-3.69 5.2-6.85 6.7-9.58 6.7-3.84 0-4.94-3.15-4.39-7.8.82-8.07 7.53-26.96 16.84-39.96 4.24-5.88 7.12-8.35 10.41-8.35s4.24 2.74 4.1 6.16zm-134.7-133.96c-1.68-.7-4.43-3.78.15-12.38l10.63-22.22c.32-.67-.45-1.51-.94-.94l-9.3 9.35c-4.4 4.59-11.86 17.5-13.31 19.89l-11.29 18.67c.84-.03 1.54.63 1.57 1.47 0 .28-.06.55-.19.79l-10.32 17.34c-2.52 4.3 2.01 7.31 2.62 6.32 16.23-26.14 25.66-24.05 25.66-24.05l5.42-12.54c.29-.63 0-1.37-.62-1.65-.02-.01-.05-.02-.08-.03z"/><path d="m354.79 0c-92.77 0-167.98 75.17-167.98 167.89a167.05 167.05 0 0 0 32.84 99.69c7.05-3.04 10.96-7.59 13.76-11.07l31.28-39.98c.66-.84 1.52-1.51 2.5-1.93l4.71-2.03 51.43-65.2 7.46-5.84 15.32-21.32c.4-.55.88-1.04 1.43-1.44l6.69-4.86a4.777 4.777 0 0 1 5.55-.05l8.11 5.69c4.3 3.02 7.79 7.06 10.16 11.75l32.5 57.05a5.112 5.112 0 0 0 2.54 2.44c6.37 3.17 10.27 3.73 18.61 12.79 3.89 4.22 20.95 23.29 44.85 52.91a33.9 33.9 0 0 0 13.49 10.93 166.982 166.982 0 0 0 32.73-99.56c-.01-92.69-75.21-167.86-167.98-167.86zm-122.68 177.15-10.89-3.54-6.73 9.26v-11.44l-10.89-3.54 10.89-3.54v-11.44l6.73 9.26 10.89-3.54-6.73 9.26 6.73 9.25zm-2.58 37.44-3.54 10.88-3.54-10.88h-11.45l9.26-6.73-3.54-10.88 9.26 6.73 9.26-6.73-3.54 10.88 9.26 6.73h-11.45zm2.19-86.66 3.54 10.88-9.26-6.73-9.26 6.73 3.54-10.88-9.26-6.73h11.45l3.54-10.88 3.54 10.88h11.45l-9.26 6.73zm18.39-36.06v11.44l-6.72-9.25-10.89 3.54 6.73-9.26-6.73-9.26 10.89 3.54 6.73-9.26v11.44l10.89 3.53-10.89 3.54zm28.62-28.6-3.54 10.87-3.54-10.88h-11.45l9.26-6.73-3.54-10.88 9.26 6.72 9.26-6.73-3.54 10.89 9.26 6.73h-11.45zm36.07-18.38-6.73 9.26v-11.44l-10.89-3.54 10.89-3.54v-11.44l6.73 9.26 10.89-3.54-6.73 9.26 6.73 9.26zm45.71-10.49 3.54 10.88-9.26-6.73-9.26 6.73 3.53-10.88-9.26-6.73h11.45l3.54-10.88 3.54 10.88h11.45l-9.26 6.72zm40.99 8.31v11.44l-6.73-9.26-10.89 3.54 6.73-9.26-6.73-9.26 10.89 3.54 6.73-9.26v11.44l10.89 3.54zm75.96 115.94 10.89 3.54 6.73-9.26v11.44l10.89 3.54-10.89 3.54v11.44l-6.73-9.26-10.89 3.54 6.74-9.26zm6.12-48.32 3.54 10.88h11.45l-9.26 6.73 3.54 10.88-9.27-6.73-9.26 6.73 3.54-10.88-9.27-6.73h11.44l3.54-10.88zm-49.19-36.18-3.54-10.88h-11.45l9.26-6.73-3.53-10.88 9.26 6.73 9.26-6.72-3.53 10.88 9.26 6.73h-11.45l-3.54 10.88zm25.09 29.17v-11.44l-10.89-3.54 10.89-3.53v-11.45l6.73 9.26 10.89-3.54-6.73 9.26 6.73 9.26-10.89-3.54zm27.64 111.27-3.54 10.88-3.54-10.88h-11.45l9.27-6.73-3.54-10.88 9.26 6.73 9.27-6.73-3.54 10.88 9.26 6.73h-11.44z"/><path d="m415.63 264.92c.81-1.17 2.12-4.39-.34-10.35l-7.43-19.98c-1.01-2.55 1.2-4.1 2.68-2.42 0 0 14.05 16.19 17.68 22.95l6.93 11.5c5.96.38 22.41.83 38.24.83a44.589 44.589 0 0 1 -4.41-5.09c-27.02-33.48-44.15-52.1-44.32-52.29-5.48-5.95-8.01-7.09-12.18-8.99-.6-.27-1.26-.57-1.94-.89v5.08c.04.34-.2.66-.55.7a.625.625 0 0 1 -.65-.38l-39.72-69.74-.11-.22c-1.66-3.29-4.1-6.11-7.11-8.23l-3.87-2.72-18.95 43.7a4.1 4.1 0 0 1 3.76 5.73l-17.51 40.48h16.07c6.21 0 12.36 1.21 18.11 3.56l4.24 1.74s-12.78 26.28-12.78 40.12c.02 2.52.37 5.02 1.04 7.45h29.46l-1.36-8.3c11.56 2.58 23.25 4.51 35.02 5.77z"/></g></svg>