<svg height="650" width="2500" xmlns="http://www.w3.org/2000/svg" viewBox="-2.924 -0.351 1002.9240000000001 261.399"><path d="M997.08 66.073h-20.206l-16.127 36.32h-13.971l-1.468 3.133h13.771s-21.33 41.668-31.189 60.92c-7.36 14.322-4.428 38.174 14.474 38.562 33.604.16 47.731-31.937 48.653-33.407.918-1.475-2.386-2.755-3.134-.562-9.342 17.44-27.338 29.183-36.508 28.637-2.56-.143-11.572-3.485-8.078-15.596 2.775-9.628 35.79-78.554 35.79-78.554h19.804l1.109-3.133h-19.275c0 .001 16.355-35.967 16.355-36.32M387.967 103.874l-42.393 88.456h24.211s13.913-32.776 22.034-46.982c6.92-12.11 16.148-20.188 16.148-20.188s1.085 14.805 9.184 14.13c20.927-1.726 30.449-14.675 30.449-14.675s-10.535 6.619-14.494 4.765c-4.371-2.027-2.739-10.09.365-14.862 3.119-4.772 5.801-7.697 6.065-10.643.368-4.033-3.858-4.204-5.311-4.398-4.24-.546-23.197 16.026-29.729 21.84-1.136.998-2.4-.187-2.035-1.646.367-1.474 7.166-15.796 7.166-15.796h-21.66zM198.942.001c66.259.223 104.67 42.399 104.247 73.783 0 44.959-54.518 68.271-100.022 68.271C174.522 256.563 82.042 261.048 64.98 259.867-2.924 254.379.367 214.719 0 210.686c2.946-28.271 20.927-26.432 24.225-25.698 9.925 2.581 10.657 12.483 10.657 17.255 0 4.766-9.125 13.316-10.29 19.818-3.665 20.563 19.59 32.521 42.947 33.583 24.052 1.107 57.814-15.399 80.746-66.977 1.84-5.505 28.271-67.538 33.777-78.367 2.753-5.419 28.997-55.977 62.385-61.481-19.805 19.828-27.89 55.43-39.266 87.179 11.75.913 24.153-.308 43.305-17.456 11.254-10.083 21.028-25.922 23.692-50.823.721-6.783-2.355-59.28-73.055-62.391-95.61-4.22-145.519 68.054-145.534 115.801 0 4.397 1.841 39.46 37.262 39.265 18.706 0 33.489-13.126 32.482-21.278-.849-6.82-4.591-15.78 2.372-20.372 4.369-2.867 17.075-4.032 19.827 6.977 2.387 10.644-7.344 38.9-55.048 38.9-27.345 0-63.328-20.545-61.854-61.666C30.125 61.215 87.408-.351 198.942.001"/><path d="M329.426 171.046c-.741 4.777-1.149 7.883 3.665 8.624 10.198 1.558 29.917-22.215 29.917-22.215s3.227 3.186 0 6.979c-8.077 9.551-29.845 26.432-40.74 29.552-4.973 1.416-13.052 1.193-14.495-7.885-.956-5.965.718-12.848.718-12.848s-28.623 30.096-46.978 19.452c-1.824-1.105-18.031-12.037 7.711-48.449 24.786-35.056 54.33-41.122 64.6-42.021 10.477-.941 24.269-1.206 24.592 4.945.374 6.979-28.257 59.093-28.99 63.866m-35.975-28.265c-12.699 21.891-16.509 35.25-9.357 37.987 15.601 5.993 43.901-48.393 52.848-71.936-18.159-1.652-34.846 19.088-43.491 33.949M486.666 171.362c-.734 4.786-1.145 7.89 3.679 8.624 10.189 1.558 28.632-21.107 28.632-21.107s3.219 3.171 0 6.978c-8.086 9.537-28.567 25.333-39.461 28.437-4.974 1.432-13.059 1.207-14.496-7.876-.956-5.958.733-12.85.733-12.85s-28.638 30.104-46.979 19.462c-1.839-1.106-18.03-12.052 7.697-48.45 24.787-35.063 54.324-41.108 64.614-42.035 10.463-.926 24.269-1.192 24.592 4.958.352 6.978-28.271 59.086-29.011 63.859m-35.97-28.258c-12.698 21.884-16.513 35.234-9.354 37.987 15.594 5.973 43.9-48.408 52.861-71.943-18.174-1.646-34.868 19.095-43.507 33.956"/><path d="M541.569 103.874L501.57 192.33h22.018l28.078-61.845s15.602-16.781 23.672-16.7c6.253.056 2.768 12.303-.373 16.7-3.119 4.397-29.551 61.845-29.551 61.845h22.206s25.714-52.658 27.905-57.448c2.213-4.764 17.916-23.203 26.611-23.103 6.555.059 1.294 12.469-1.279 17.234-2.572 4.786-15.781 32.115-21.853 44.226-7.33 18.354 4.706 21.695 8.083 21.847 17.623.733 39.095-23.299 39.095-23.299l.546-7.907s-18.541 24.048-24.979 19.457c-2.443-1.762-2.903-3.308-1.997-6.786.486-1.811 23.785-50.492 27.148-57.074 3.68-7.165 5.549-17.65-5.864-17.615-19.806.028-38.167 15.79-38.167 15.79s1.289-15.423-9.184-15.423c-17.98 0-37.053 16.321-37.053 16.321l6.396-14.675h-21.459z"/><path d="M735.367 127.546c18.525 1.689 33.388-23.492 33.388-23.492s-2.876 9.298-3.651 11.376c-5.318 14.323-30.643 19.462-30.643 19.462s-4.254 11.812-7.531 17.979c-15.063 28.267-45.52 49.75-65.152 43.319-19.647-6.431-25.169-35.457 3.664-71.031 21.158-26.094 45.705-29.801 56.889-24.592 16.313 7.612 13.307 23.371 13.036 26.979m-64.606 62.399c15.491 7.775 56.023-77.914 42.584-84.052-18.524-8.458-56.369 77.126-42.584 84.052"/><path d="M789.135 103.874s-30.284 62.76-31.737 69.925c-1.479 7.157 4.026 6.977 3.48 6.977 24.777 0 54.314-76.901 54.314-76.901h19.818s-28.514 65.979-29.348 68.277c-1.122 2.927-.762 6.727 3.074 7.64 16.531-1.651 45.392-47.834 45.392-47.834s-10.319 21.531-11.399 24.048c-4.41 10.083-30.643 30.822-30.643 30.822s-19.764 16.659-26.977 2.572c-2.53-4.916-1.668-15.789-1.668-15.789s-25.498 22.062-39.064 21.66c-6.266-.186-11.039-3.852-10.837-12.669.185-9.578 35.228-78.728 35.228-78.728z"/><path d="M884.744 103.874l-7.878 17.987s.229.733 1.008.088c4.829-4.075 21.27-21.237 38.446-21.193 17.836.042 8.624 22.212 8.624 22.212l-24.218 50.831s-2.387 6.713 1.465 7.157c6.41.732 30.099-20.92 30.099-20.92l.17 4.404s-33.028 32.115-47.516 30.83c-14.517-1.292-7.53-18.175-7.53-18.175l26.961-57.987s2.417-5.872-3.291-5.872c-12.66 0-22.203 16.142-27.897 23.119-5.604 6.862-28.429 55.974-28.429 55.974l-20.395-.178 40.027-88.278h20.354z"/></svg>