<svg height="1556" viewBox="-162.133 -100.544 1000.534 622.214" width="2500" xmlns="http://www.w3.org/2000/svg"><path d="m283.887 219.392c-2.459-1.02-6.49-5.543.216-18.138l15.578-32.558c.473-.984-.664-2.216-1.374-1.38l-13.621 13.695c-6.445 6.727-17.378 25.635-19.495 29.134l-16.548 27.355a2.228 2.228 0 0 1 2.014 3.315l-15.125 25.404c-3.693 6.3 2.942 10.704 3.841 9.254 23.773-38.291 37.6-35.234 37.6-35.234l7.936-18.377a1.83 1.83 0 0 0 -.911-2.424c-.034-.017-.072-.031-.111-.046zm54.048-319.936c-135.92 0-246.104 110.13-246.104 245.983a244.73 244.73 0 0 0 48.115 146.058c10.324-4.456 16.061-11.117 20.159-16.218l45.823-58.576a9.322 9.322 0 0 1 3.665-2.825l6.898-2.967 75.345-95.524 10.925-8.549 22.45-31.233a9.29 9.29 0 0 1 2.094-2.104l9.795-7.117a7 7 0 0 1 8.136-.068l11.886 8.339a46.65 46.65 0 0 1 14.88 17.217l47.61 83.586a7.451 7.451 0 0 0 3.724 3.568c9.337 4.646 15.041 5.467 27.261 18.735 5.702 6.186 30.688 34.117 65.705 77.526a49.74 49.74 0 0 0 19.769 16.02 244.751 244.751 0 0 0 47.96-145.868c0-135.854-110.179-245.983-246.096-245.983zm-179.734 259.541-15.957-5.18-9.857 13.56v-16.758l-15.958-5.181 15.958-5.181v-16.763l9.857 13.563 15.957-5.18-9.859 13.562zm-3.783 54.849-5.183 15.943-5.183-15.943h-16.771l13.567-9.854-5.182-15.942 13.568 9.854 13.569-9.854-5.183 15.942 13.569 9.854zm3.203-126.97 5.183 15.942-13.569-9.854-13.568 9.854 5.182-15.942-13.567-9.854h16.771l5.183-15.942 5.184 15.942h16.771zm26.931-36.063-9.852-13.563-15.957 5.18 9.858-13.561-9.858-13.562 15.957 5.18 9.858-13.562v16.764l15.957 5.171-15.957 5.182v16.763zm41.943-58.686-5.183 15.943-5.183-15.942h-16.772l13.569-9.854-5.182-15.943 13.568 9.852 13.567-9.854-5.182 15.956 13.569 9.854h-16.772v-.012zm52.853-26.918-9.858 13.563v-16.759l-15.958-5.18 15.958-5.182v-16.763l9.858 13.563 15.95-5.18-9.858 13.562 9.859 13.561zm66.973-15.366 5.183 15.942-13.569-9.854-13.569 9.854 5.177-15.935-13.567-9.854h16.771l5.185-15.942 5.183 15.942h16.771zm60.053 12.17v16.763l-9.854-13.563-15.956 5.181 9.858-13.561-9.857-13.562 15.957 5.18 9.854-13.563v16.763l15.957 5.182zm111.288 169.864 15.956 5.18 9.855-13.563v16.763l15.958 5.181-15.958 5.181v16.762l-9.855-13.561-15.956 5.18 9.869-13.562zm-63.106-123.803-5.186-15.943h-16.77l13.564-9.854-5.171-15.944 13.563 9.854 13.563-9.852-5.172 15.942 13.565 9.854h-16.771zm36.761 42.743v-16.762l-15.957-5.182 15.957-5.171v-16.771l9.854 13.562 15.957-5.18-9.854 13.562 9.854 13.561-15.957-5.18zm30.126 26.21 5.188-15.942 5.186 15.942h16.77l-13.563 9.854 5.186 15.942-13.577-9.854-13.564 9.854 5.186-15.942-13.578-9.854zm10.373 136.819-5.186 15.943-5.188-15.943h-16.77l13.578-9.854-5.186-15.942 13.564 9.854 13.577-9.854-5.186 15.942 13.563 9.854zm-104.741 73.752c1.182-1.718 3.103-6.43-.503-15.162l-10.89-29.273c-1.478-3.737 1.759-6.004 3.931-3.547 0 0 20.582 23.722 25.901 33.627l10.15 16.843c8.732.564 32.83 1.221 56.027 1.221a65.808 65.808 0 0 1 -6.457-7.454c-39.583-49.053-64.687-76.34-64.938-76.61-8.022-8.717-11.73-10.392-17.849-13.178-.886-.402-1.847-.836-2.836-1.307v7.447a.917.917 0 0 1 -1.758.461l-58.195-102.184-.162-.323a32.756 32.756 0 0 0 -10.414-12.052l-5.677-3.989-27.763 64.021a6.008 6.008 0 0 1 5.516 8.392l-25.651 59.312h23.546a70.02 70.02 0 0 1 26.536 5.22l6.206 2.543s-18.725 38.509-18.725 58.786a41.897 41.897 0 0 0 1.529 10.908h43.163l-1.999-12.155a462.432 462.432 0 0 0 51.311 8.459v-.006zm-333.049 62.398c0-39.614-42.017-58.689-91.935-58.689-53.398 0-102.392 23.657-120.375 60.339a69.477 69.477 0 0 0 -7.528 31.546 47.371 47.371 0 0 0 7.528 26.778c7.705 11.377 21.466 18.528 41.652 18.528 24.776 0 44.411-13.576 44.411-37.234 0 0 .364-6.598-7.341-6.598-6.239 0-7.893 4.399-7.708 6.598.922 18.525-10.092 33.383-29.728 33.383-22.014 0-31.197-18.708-31.197-38.698 0-40.902 30.829-68.05 62.942-79.786a128.225 128.225 0 0 1 46.985-8.259c36.333 0 66.061 13.942 66.061 51.361 0 31.175-26.24 57.771-57.623 60.157l1.284-4.217c6.425-22.929 14.315-48.054 27.157-66.58a71.108 71.108 0 0 1 3.489-4.768l-1.833-2.203a76.304 76.304 0 0 0 -7.897 5.501c-60.183 46.956-62.011 179.011-142.209 179.011-2.762 0-5.519-.185-8.256-.551-16.696-2.75-25.51-13.941-25.51-29.524 0-3.118 1.103-7.339 1.103-9.72a8.026 8.026 0 0 0 -7.791-8.252l-.101-.001h-.915c-7.155 0-10.092 5.678-10.276 13.754-.548 23.294 16.696 36.862 43.309 39.434 2.933.182 5.87.364 8.99.364 62.571 0 100.923-47.32 117.257-104.729a137.876 137.876 0 0 0 24.403-5.131c29-8.08 61.652-27.512 61.652-61.814zm596.031 13.754h-22.029l-4.949 11.557-8.629 19.441h-10.269l-3.133 6.604h10.652l-12.853 28.43c-9.161 19.991-23.479 39.617-31.738 39.617-1.832 0-2.94-.738-2.94-2.565s.547-3.49 2.571-8.623c2.571-6.057 6.796-14.858 9.914-21.276 4.58-9.353 11.924-23.843 11.924-30.996 0-7.154-4.581-12.841-13.579-12.841-10.091 0-19.267 6.059-27.718 14.854l5.511-13.204h-20.729l-16.889 38.517c-6.782 13.573-20.553 36.133-29.182 36.133-1.832 0-2.571-1.103-2.571-2.935a15.975 15.975 0 0 1 1.286-4.771c.738-1.65 10.83-25.309 10.83-25.309l18.351-42.002h-22.384l-17.805 40.898c-5.496 12.658-19.443 34.117-28.442 34.117a2.853 2.853 0 0 1 -3.117-2.563v-.741c0-2.198 1.655-6.236 2.941-9.172l9.353-20.538 19.266-42.002h-22.192l-4.418 9.537c-3.294 6.418-8.806 13.938-17.611 13.938-4.225 0-6.235-1.646-7.151-3.3-1.285-14.123-10.283-21.644-23.493-21.644-18.351 0-31.381 10.821-40.011 24.029a122.974 122.974 0 0 0 -13.206 29.158c-7.893 13.026-16.146 23.116-22.754 23.116-1.653 0-2.756-.922-2.756-3.12 0-2.201 2.204-7.151 2.938-8.992l14.497-30.811c4.037-9.533 6.796-15.77 6.796-22.008 0-6.604-4.58-11.376-12.116-11.376-10.46 0-21.84 6.057-30.83 15.957.305-1.571.427-3.173.366-4.771 0-7.338-3.667-11.191-11.195-11.191-9.539 0-19.447 5.692-28.438 15.958l5.873-14.313h-20.189l-17.062 38.528c-8.073 18.16-21.102 36.139-28.445 36.139-1.649 0-2.751-.924-2.751-3.122 0-3.483 3.854-12.104 5.32-15.59l22.573-51.17c1.651-3.85-9.178-6.238-22.94-6.238-14.129 0-28.627 6.973-39.267 15.957-7.523 6.233-13.029 9.354-15.787 9.354a1.67 1.67 0 0 1 -2.015-1.649c0-3.119 7.523-11.927 7.523-18.711 0-3.117-1.649-5.137-5.875-5.137-8.069 0-17.616 7.705-24.588 15.772l5.873-14.125h-19.815l-17.063 38.52c-8.076 18.16-21.472 37.054-28.812 37.054-1.653 0-2.749-.915-2.749-3.12 0-3.484 3.67-11.917 5.687-16.324l22.572-51.353c1.651-3.85-9.177-6.238-22.942-6.238-20.369 0-40.189 13.756-50.647 27.88-11.559 15.218-19.447 31.361-19.633 44.569-.18 10.637 5.318 17.239 16.331 17.239 12.296 0 22.208-9.719 27.893-17.058a36.071 36.071 0 0 0 -.739 4.404c0 7.332 2.937 12.653 11.927 12.653 7.889 0 18.35-6.603 26.792-17.058l-6.798 15.592h21.467l21.105-47.872c6.989-15.587 14.88-23.654 17.074-23.654a.932.932 0 0 1 1.107.916c0 1.652-3.301 6.059-3.301 10.087 0 4.029 2.195 7.151 8.076 7.151 4.58 0 9.721-2.202 14.31-5.14-10.826 14.679-18.173 30.084-18.173 42.743-.181 10.638 5.318 17.239 16.333 17.239 11.558 0 22.385-11.005 28.257-18.342a44.559 44.559 0 0 0 -.366 5.135c0 7.157 4.039 13.207 12.295 13.207 9.172 0 16.515-5.689 25.69-16.872l-6.796 15.406h22.016l20.183-45.672c8.809-19.809 20.734-30.451 26.607-30.451a2.676 2.676 0 0 1 2.936 2.393v.546a19.726 19.726 0 0 1 -1.834 6.418l-28.967 66.948h22.571l20.554-46.59c8.803-19.989 18.533-29.715 25.872-29.715 2.201 0 3.122 1.108 3.122 3.486a20.017 20.017 0 0 1 -2.019 7.345l-19.821 42.181a39.05 39.05 0 0 0 -3.304 12.836c0 6.421 3.485 12.116 13.399 12.116 12.854 0 22.571-9.721 33.577-24.21v3.116c.921 11.555 7.342 21.643 24.406 21.643 20.184 0 36.524-13.94 46.424-36.128a78.055 78.055 0 0 0 7.165-24.77 13.921 13.921 0 0 0 7.151 1.478 19.404 19.404 0 0 0 9.545-2.388l-3.486 7.517c-4.049 8.439-8.452 17.794-11.924 25.686a41.359 41.359 0 0 0 -3.855 14.85c0 7.884 4.402 13.575 13.386 13.575s21.291-8.438 30.098-20.359h.191a34.016 34.016 0 0 0 -.931 7.518c0 6.605 2.024 12.842 11.199 12.842 10.653 0 18.898-7.705 26.979-17.428l-6.796 15.409h22.206l17.806-40.351c10.092-22.743 20.183-36.496 29.534-36.496a3.039 3.039 0 0 1 3.133 2.75v.542c0 3.855-5.511 14.31-10.461 24.763-4.595 9.538-8.082 16.871-10.461 22.563a43.02 43.02 0 0 0 -3.855 15.219c0 6.966 3.855 12.287 12.485 12.287 12.839 0 25.871-12.472 32.83-21.828a45.795 45.795 0 0 0 -2.557 13.936c0 12.845 7.697 19.263 18.527 19.263a34.416 34.416 0 0 0 20.006-6.6c8.437-5.872 15.234-14.674 20.922-22.744l-3.855-3.672c-5.319 7.522-11.199 14.677-17.258 19.079a18.683 18.683 0 0 1 -11.378 4.402c-4.579 0-7.52-2.387-7.52-8.251 0-5.863 2.748-13.759 6.975-24.399.176-.179 6.234-13.755 11.923-26.773 4.772-11.013 9.544-21.646 10.461-23.847h14.495l2.938-6.604h-14.315zm-625.935 105.831c-3.118 0-5.32-1.1-5.32-5.135.182-10.823 9.171-30.08 20.372-45.489 7.888-10.638 18.163-18.521 29.174-18.521l-13.948 31.174c-10.46 23.481-21.837 37.971-30.278 37.971zm137.261 0c-3.117 0-5.319-1.1-5.5-5.135.182-10.823 9.172-30.08 20.369-45.489 7.886-10.638 18.165-18.521 29.175-18.521l-13.95 31.175c-10.64 24.034-21.466 37.971-30.097 37.971h.003zm243.688-60.706c-.547 11.918-11.008 40.71-23.301 57.958-4.949 6.968-9.176 8.983-12.839 8.983-5.143 0-6.62-4.221-5.882-10.454 1.094-10.82 10.092-36.131 22.577-53.556 5.688-7.887 9.545-11.189 13.947-11.189 4.404.001 5.689 3.671 5.498 8.258zm342.488-14.128 20.212-46.649h-23.92l-20.213 46.649h-50.841l-8.481 19.563h50.856l-20.212 46.649h23.92l20.214-46.649h50.84l8.467-19.563z" fill="#0064ff"/></svg>