<svg xmlns="http://www.w3.org/2000/svg" viewBox="0 0 43.17 48.65" width="2218" height="2500"><title>perl</title><path d="M28 25.93a69.79 69.79 0 0 1 .86 7.53 7.42 7.42 0 0 1-1.31 4.41c-.21.75-.84 0-1.29 0-1.11 0-1.52-1.2-2.12-1.94s-.17-1.41.23-2c.43-.31.6-1 1.22-1s.54-.85.45-1.3c.41-.63.16-1.56.56-2.25.72-.32.51-1.44.76-2.07.2-.45 0-1.31.57-1.5 0 0 .07 0 .06.1M27.3.23c-.94-.11-1.65.53-2.44.89a18 18 0 0 1-2 .54c-.49 1-1.62 1.59-2.23 2.53a10 10 0 0 1-3.34 4.72c-2.22 1.15-3.34 3.65-4.07 6-.25.53-.21 1.31-.48 1.76-.88.25-.41-.9-.51-1.45-.13-.82.59-1.35.64-2.15a3.29 3.29 0 0 0 .36-1.85c-.1-1.43.33-3.17-.68-4.34-.6-.35-.41-1.09-.63-1.66a7.27 7.27 0 0 0-2.23-2c-.72-.07-1.38-1-2.12-.57-.46.54-1.31.53-1.58 1.25-.17.9-1.18.66-1.84.88-.84.33-1.92 0-2.61.67S-.28 7.1.06 8.23C.85 9.78 2.89 9 4 9.94A32 32 0 0 1 2.79 13a18.06 18.06 0 0 0-.08 4.09c.21 1.36-.14 3.11 1 4.07.65.24.61 1 .86 1.56s.73-.2.93.34c.58.32.06 1 .38 1.4a2.76 2.76 0 0 1 1.41.75A11.82 11.82 0 0 1 9 26.66c.4.82.91-.8 1.35-.19a1 1 0 0 0 1.41.5A5.1 5.1 0 0 0 14 26c.43 1.53.1 3.19.29 4.77a20.89 20.89 0 0 1 .5 3.51 16.86 16.86 0 0 1 .52 3.56 12.7 12.7 0 0 1-1.22 7.29 1.76 1.76 0 0 1-1.39 1.4c-.5.23-1.54.64-1.19 1.36 1.16 1 3 .89 4.33.38.88-.43.12-1.5.57-2.15.59-2.28.3-4.72 1-7a6.72 6.72 0 0 0 .59-3.69c.14-.77-.18-1.7.32-2.33a3.21 3.21 0 0 1 .81-2.1 26.44 26.44 0 0 0 .25-3.55 5.45 5.45 0 0 1 2.18-.22c0 .66-.47 1.42-.33 2.16a3.48 3.48 0 0 1-.45 2.41c-.31 1.3-.52 2.9.29 4 1.34 1.47 3.09 2.51 4.36 4.08a.92.92 0 0 1 .06 1.38 2.66 2.66 0 0 1-1.7 1.81c-.53.21-1.38 1-.76 1.55a6.61 6.61 0 0 0 3.75-.25c.82-.3.52-1.29.84-1.91a19.74 19.74 0 0 1 1.22 1.87c.51.76 1.39.13 2-.11a6.3 6.3 0 0 0-.65-3.22c-.28-.66-1.37-.68-1.32-1.49.54-2 1.88-3.56 2.94-5.25.88-.84.22-2.09.27-3.15a12 12 0 0 1 1.87-7.76 28.15 28.15 0 0 0 1.19 3.75A11 11 0 0 0 37 31.06c.41 1.42.3 3 .57 4.47a18.66 18.66 0 0 1-.42 7.62c.07.91-.79 1.58-.71 2.47.24.82 1.2.16 1.7.51a1.9 1.9 0 0 0 2.28-1A11.21 11.21 0 0 1 40 43a13.31 13.31 0 0 1-.44-6.52c.08-1.18.79-2.62-.13-3.63-.25-1.08.18-2.25-.08-3.36a23 23 0 0 1-.21-8.65c.16-.4 0-1.14.43-1.36a3.29 3.29 0 0 1 .54 2.16 6.61 6.61 0 0 1 .14 3.65c-.73.93-.28 2.19-.19 3.24.12.74.89.21 1-.25a20.93 20.93 0 0 0 1.62-3.93c.46-.62 0-1.35 0-2 .71-.09.44-.89.06-1.24-.38-1.28-.29-2.76-1.15-3.85a18.44 18.44 0 0 1-3.34-4.78c-.91-2.87-3.51-4.78-4.39-7.68A6.23 6.23 0 0 0 31.07.73a13.24 13.24 0 0 0-2-.73 10.88 10.88 0 0 1-1.77.22" fill="#004065"/></svg>