<svg height="2500" width="2500" xmlns="http://www.w3.org/2000/svg" viewBox="-437.421622312306 -219.06366571248975 2636.5766223123055 2553.6656210218744"><linearGradient id="a" gradientTransform="rotate(66.449 80.41 -611.859) scale(2.83682)" gradientUnits="userSpaceOnUse" x1="244.823" x2="1115.341" y1="-272.523" y2="-272.523"><stop offset="0" stop-color="#0073a1"/><stop offset="1" stop-color="#003555"/></linearGradient><g transform="matrix(.72031 0 0 .72031 192.894 155.715)"><circle cx="965.531" cy="1017.147" fill="#fff" r="1233.325" stroke-width=".598"/><path d="M988.39-215.992a1234.751 1234.751 0 0 0-514.794 102.664 1234.751 1234.751 0 0 0-638.542 1625.264 1234.751 1234.751 0 0 0 1356.592 717.689c24.04-76.647 43.751-160.689 43.751-252.334 0-13.023-.36-26.049-1.085-39.434 0 0 44.132-75.241 78.864-173.277 43.048-121.187 20.258-254.677-54.263-360.31-4.341-5.787-8.682-12.298-13.385-18.81-438.806 0-655.86-397.928-710.85-639.94-22.79-99.483-41.284-109.37-103.405-109.37-114.922 0-197.876-47.648-197.876-47.648C127.884 636.85 80.642 617.15 94.804 566.676c-45.939-5.063-44.99-57.21-17.018-105.136 35.06-60.079 106.713-100.927 192.449-100.927h45.943c94.78 0 114.314-49.561 211.987-39.071 15.198 1.449 29.304 3.98 42.33 7.237 27.132-31.111 57.881-44.137 95.138-41.605 5.788.725 9.404 5.792 8.322 11.217l-9.043 41.963c-3.256 15.555 1.086 31.835 12.297 42.325 78.862 73.797 124.082 199.688 174.727 313.279 82.122 167.49 280.36 400.099 598.34 101.653 223.586-209.85 358.663-384.812 580.703-402.013a1234.751 1234.751 0 0 0-1042.59-611.59zM464.117 391.493c-32.569 0-65.056 26.14-53.997 30.825 2.46 1.044 6.64 1.755 11.438 2.285 3.436 20.83 20.927 36.94 42.741 36.94s39.016-16.115 42.398-36.945c4.786-.53 8.96-1.238 11.417-2.28 11.059-4.685-21.432-30.825-53.997-30.825zm1153.431 1187.135c-26.401.643-50.103 17.418-58.016 43.056v.362c-39.431 126.614-116.123 290.127-116.123 290.127s-76.294 135.144-119.484 286.5a1234.751 1234.751 0 0 0 136.393-48.196 1234.751 1234.751 0 0 0 245.355-142.994c-11.853-23.596-25.183-47.667-41.068-72.52 0 0-25.321-112.506-73.8-235.139a1360.708 1360.708 0 0 0 20.623-61.498l.36-1.448c1.443-2.892 4.699-3.98 8.316-3.98h.36c25.322 3.98 52.093 7.96 83.2 11.576 9.409.724 19.176 1.446 28.943 2.533 11.938 1.084 23.515 2.17 35.453 2.894 2.861 113.819 52.257 222.593 64.755 248.565a1234.751 1234.751 0 0 0 227.1-306.164c-87.927 10.038-195.487 13.426-322.04.806-10.129-1.086-20.256-2.17-30.385-2.894-27.855-3.257-53.903-6.873-78.502-10.852a65.144 65.144 0 0 0-11.44-.734z" fill="url(#a)" stroke-width="1.892"/></g></svg>