<svg fill="none" height="2500" width="2500" xmlns="http://www.w3.org/2000/svg" viewBox="4.999974687558257 -0.4618126702605281 85.90702531244173 96.92362534052106"><path d="M44 2.31a8 8 0 0 1 8 0l33.57 19.38a8 8 0 0 1 4 6.929V67.38a8 8 0 0 1-4 6.928L52 93.691a8 8 0 0 1-8 0L10.43 74.309a8 8 0 0 1-4-6.928V28.62a8 8 0 0 1 4-6.928z" fill="#fff"/><g fill="#0073a1"><path clip-rule="evenodd" d="M84.19 22.902L51.57 4.07a7.233 7.233 0 0 0-7.233 0l-32.62 18.833A7.233 7.233 0 0 0 8.1 29.166v37.668a7.233 7.233 0 0 0 3.617 6.263l32.62 18.834a7.233 7.233 0 0 0 7.233 0l32.62-18.834a7.233 7.233 0 0 0 3.617-6.263V29.166a7.233 7.233 0 0 0-3.616-6.264zM53.12 1.384a10.333 10.333 0 0 0-10.333 0l-32.62 18.834A10.333 10.333 0 0 0 5 29.167v37.666c0 3.692 1.97 7.103 5.167 8.95l32.62 18.833a10.333 10.333 0 0 0 10.333 0l32.62-18.834a10.333 10.333 0 0 0 5.167-8.948V29.166c0-3.691-1.97-7.102-5.166-8.948z" fill-rule="evenodd"/><path d="M48.462 23.953a24.029 24.03 0 0 0-10.017 1.998C26.282 31.253 20.719 45.412 26.02 57.577c4.486 10.222 15.42 16.008 26.395 13.965.468-1.491.851-3.127.851-4.91 0-.254-.007-.507-.02-.767 0 0 .858-1.465 1.534-3.372.837-2.359.394-4.956-1.056-7.012-.085-.112-.169-.239-.26-.366-8.538 0-12.762-7.743-13.832-12.452-.443-1.935-.803-2.128-2.011-2.128-2.237 0-3.85-.927-3.85-.927-2.054.94-2.972.557-2.697-.425-.894-.098-.875-1.113-.33-2.046.68-1.17 2.075-1.964 3.744-1.964h.893c1.844 0 2.224-.964 4.125-.76.295.028.57.077.823.14.528-.604 1.126-.858 1.852-.809a.183.183 0 0 1 .162.218l-.177.817a.88.88 0 0 0 .24.824c1.534 1.436 2.414 3.885 3.4 6.096 1.597 3.259 5.454 7.785 11.642 1.978 4.35-4.084 6.978-7.489 11.298-7.823a24.024 24.024 0 0 0-20.285-11.9M38.26 35.773c-.633 0-1.265.509-1.05.6.048.02.13.034.222.045a.847.847 0 0 0 .832.718c.424 0 .76-.313.825-.718a.939.939 0 0 0 .222-.045c.215-.091-.417-.6-1.05-.6m22.442 23.1a1.203 1.203 0 0 0-1.129.839v.006c-.767 2.464-2.259 5.646-2.259 5.646s-1.485 2.63-2.325 5.575a24.157 24.159 0 0 0 2.654-.938 24.093 24.095 0 0 0 4.774-2.782 15.518 15.52 0 0 0-.8-1.411s-.492-2.19-1.435-4.576q.214-.594.401-1.197l.007-.028c.028-.057.092-.077.162-.077h.007c.493.077 1.013.155 1.619.225.183.014.373.028.563.049.232.021.457.042.69.056.055 2.215 1.016 4.332 1.26 4.837a24.029 24.03 0 0 0 4.418-5.957c-1.71.195-3.804.261-6.266.015a15.518 15.52 0 0 0-.59-.056 35.515 35.518 0 0 1-1.528-.211 1.28 1.28 0 0 0-.223-.014" stroke-width=".16"/></g></svg>