<svg height="2500" viewBox="0 0 192.756 192.756" width="2500" xmlns="http://www.w3.org/2000/svg"><g clip-rule="evenodd" fill-rule="evenodd"><path d="m0 0h192.756v192.756h-192.756z" fill="#fff"/><g><path d="m96.378 138.287c45.673 0 82.698-18.764 82.698-41.909s-37.025-41.909-82.698-41.909c-45.672 0-82.698 18.764-82.698 41.909s37.026 41.909 82.698 41.909z" fill="#6e81b6"/><path d="m113.131 109.924 4.102-21.112c.926-4.765.156-8.319-2.287-10.565-2.367-2.173-6.385-3.23-12.283-3.23h-7.104l2.032-10.46a1.344 1.344 0 0 0 -1.319-1.602h-9.805c-.644 0-1.197.457-1.32 1.089l-4.357 22.413c-.396-2.522-1.372-4.69-2.934-6.479-2.876-3.292-7.425-4.961-13.522-4.961h-19.004c-.644 0-1.197.457-1.32 1.088l-8.817 45.368c-.077.395.026.801.282 1.111.255.311.635.49 1.038.49h9.882c.644 0 1.197-.457 1.32-1.09l2.133-10.973h7.356c3.86 0 7.104-.418 9.636-1.242 2.589-.842 4.972-2.27 7.072-4.236 1.697-1.559 3.099-3.305 4.178-5.188l-1.761 9.064c-.077.395.026.803.282 1.111.255.311.636.49 1.038.49h9.805c.644 0 1.197-.457 1.32-1.088l4.839-24.903h6.728c2.867 0 3.707.571 3.936.816.207.224.637 1.013.154 3.5l-3.9 20.073a1.347 1.347 0 0 0 1.32 1.601h9.961a1.341 1.341 0 0 0 1.319-1.085zm-45.458-17.444c-.616 3.165-1.776 5.422-3.45 6.709-1.7 1.311-4.419 1.975-8.082 1.975h-4.38l3.167-16.298h5.663c4.16 0 5.836.889 6.509 1.634.933 1.034 1.131 3.103.573 5.98zm86.759-12.502c-2.875-3.292-7.424-4.961-13.521-4.961h-19.004c-.645 0-1.197.457-1.32 1.088l-8.816 45.368c-.078.395.025.801.281 1.111s.637.49 1.037.49h9.883c.645 0 1.197-.457 1.32-1.09l2.133-10.973h7.357c3.861 0 7.102-.418 9.635-1.242 2.59-.842 4.973-2.27 7.072-4.236 1.752-1.609 3.193-3.418 4.285-5.371s1.875-4.131 2.332-6.475c1.123-5.781.224-10.393-2.674-13.709zm-9.621 12.502c-.617 3.165-1.777 5.422-3.449 6.709-1.701 1.311-4.42 1.975-8.082 1.975h-4.381l3.166-16.298h5.664c4.16 0 5.836.889 6.51 1.634.931 1.034 1.13 3.103.572 5.98z" fill="#fff"/><path d="m60.591 83.521c3.754 0 6.257.693 7.508 2.079 1.25 1.386 1.548 3.766.894 7.137-.684 3.511-2 6.017-3.95 7.519s-4.918 2.252-8.902 2.252h-6.012l3.69-18.987zm-24.079 38.208h9.882l2.345-12.061h8.465c3.735 0 6.808-.393 9.22-1.178s4.605-2.1 6.578-3.947c1.656-1.521 2.996-3.201 4.022-5.037 1.025-1.836 1.753-3.861 2.184-6.076 1.046-5.378.257-9.567-2.365-12.567-2.621-3.001-6.792-4.501-12.509-4.501h-19.004zm49.954-57.429h9.805l-2.344 12.062h8.736c5.494 0 9.287.958 11.373 2.875s2.711 5.024 1.877 9.319l-4.102 21.112h-9.961l3.9-20.074c.443-2.284.281-3.841-.49-4.672-.771-.83-2.412-1.246-4.92-1.246h-7.836l-5.051 25.992h-9.805zm51.263 19.221c3.754 0 6.256.693 7.508 2.079 1.25 1.386 1.547 3.766.893 7.137-.682 3.511-1.998 6.017-3.949 7.519-1.949 1.502-4.918 2.252-8.9 2.252h-6.012l3.689-18.987zm-24.081 38.208h9.883l2.344-12.061h8.465c3.736 0 6.809-.393 9.221-1.178s4.605-2.1 6.578-3.947c1.656-1.521 2.996-3.201 4.021-5.037s1.754-3.861 2.186-6.076c1.045-5.378.256-9.567-2.365-12.567-2.623-3.001-6.793-4.501-12.51-4.501h-19.004z"/></g></g></svg>