<svg xmlns="http://www.w3.org/2000/svg" width="2500" height="2500" viewBox="0 0 192.756 192.756"><g fill-rule="evenodd" clip-rule="evenodd"><path fill="#fff" d="M0 0h192.756v192.756H0V0z"/><path d="M137.906 161.859c-11.01 10.045-20.488 15.459-40.455 25.947-18.586-8.465-30.717-16.809-41.237-25.027-14.538-11.334-24.981-29.738-25.887-41.025L23.074 14.325c49.135-12.79 101.398-12.499 146.607.859l-7.359 106.341c-.937 9.631-9.541 28.356-24.416 40.334zm15.998-43.857l6.641-94.961C121.637 10.634 75.033 10.45 32.093 21.737l6.778 96.204c.706 9.998 7.898 25.289 21.685 37.006 8.297 7.055 24.553 18.895 36.559 23.434 13.834-7.008 26.408-15.719 36.377-24.322 12.36-11.274 19.66-25.291 20.412-36.057zm-22.008 33.549c-9.555 8.252-22.42 17.5-34.781 23.404-11.041-3.42-27.358-16.027-35.21-22.805-13.695-11.84-19.262-24.23-20.105-35.949l-6.656-91.832c40.885-10.75 85.512-10.75 122.592 1.073l-6.578 90.606c-.951 12.054-6.549 23.571-19.262 35.503zM38.2 26.154l1.319 15.827c39.029-9.769 79.915-8.787 113.852 1.488l1.457-16.103C119.662 16.569 76.969 15.986 38.2 26.154zm97.056 5.874l-8.803-1.457-.338 4.141-2.867-.43.674-10.98 2.93.43-.307 4.217 8.926 1.441.291-4.217 2.99.567-.904 11.011-2.914-.536.322-4.187zm-42.483-3.726c-1.074 0-1.933-.291-2.5-1.242-.49-.782-.49-3.328 0-4.171.537-.981 1.503-1.257 2.301-1.257l12.483.015.029 2.699-11.807-.016c-.583 0-.598 1.304.046 1.304h9.308c1.09 0 2.055.659 2.361 1.518.338.92.277 3.006 0 3.865-.26.859-1.242 1.334-2.469 1.334H90.212l-.016-2.761h10.964a.646.646 0 0 0 0-1.288h-8.387zm-7.222 1.097a1.032 1.032 0 0 0-1.073-1.012l-8.282.598.168 4.11-2.684.276-.568-10.842 12.331-.921c1.595-.122 2.53 1.074 2.606 2.071.092 1.181.138 2.699-.783 3.328.768.567.967 1.411.982 2.592l.031 2.776-2.684.107-.044-3.083zm-1.759-3.519c1.058-.061.966-1.703 0-1.61l-7.883.598.092 1.503 7.791-.491zm-25.824-1.44c2.53-.598 7.713-1.426 10.428-1.626 1.242-.091 2.208.553 2.377 1.519.399 2.224.645 4.524.369 7.607-.077.889-.844 1.595-1.856 1.81-3.48.767-7.392 1.181-10.291 1.457-.736.077-1.901-.506-2.101-1.426-.506-2.24-.69-5.368-.537-7.515.062-.799.798-1.642 1.611-1.826zm9.85 6.604c.352-.076.506-.46.537-.736.123-.844.015-3.052-.185-3.789-.061-.291-.306-.475-.858-.429-1.503.092-5.476.66-7.438 1.089-.521.123-.721.429-.751.705-.092.721.122 2.699.307 3.804.046.261.384.444.644.43 2.652-.215 5.781-.644 7.744-1.074zm43.489-6.147c-.584-.016-.982.337-1.027.644-.139.905-.186 2.07-.186 3.589 0 .199.338.751.629.797 2.639.368 7.76.829 10.551 1.013l-.168 2.837c-3.666-.168-7.5-.751-11.471-1.028-1.303-.092-2.254-.797-2.301-2.054-.076-2.071.047-5.2.414-7.024.246-1.12 1.318-1.702 2.531-1.672 3.664.138 6.578.46 11.379 1.104l-.184 2.823c-2.331-.201-6.747-.891-10.167-1.029zm-60.012.823c3.711-.874 4.278 5.72 1.18 6.487l-8.649 2.163.414 4.263-2.714.722-.966-11.105 10.735-2.53zm-.045 4.319c.889-.199.767-1.793-.185-1.594l-7.806 1.886.185 1.642 7.806-1.934zm91.775 3.633l-.184 1.779 8.572 2.162-.23 2.485-11.502-2.714.998-11.181 11.578 2.807-.26 2.607-8.619-2.086-.168 1.887 8.557 2.085-.215 2.208-8.527-2.039zM60.067 65.493c-1.196 1.595-2.3 4.049-2.821 6.134-.185.706-.185.966-.061 1.426 1.134-.506 2.607-.997 3.465-1.273.338-.75.521-1.61.813-2.3.459-1.073.751-1.534 1.227-2.285 1.365-2.116 4.248-4.202 6.379-4.156-.706.613-2.178 2.147-2.76 3.067-.475.767-.92 1.595-1.258 2.454-.291.768-.383 1.334-.46 1.963 1.104-.322 2.193-.552 2.898-.598.476-.261.629-.768.89-1.243.812-1.518 2.407-3.221 3.42-3.772.812-.445 2.009-.874 2.867-.598-.92.69-1.886 1.794-2.315 2.454-.445.705-1.166 2.071-1.135 2.714.752.062 1.825 0 2.255-.107l-.047-2.117 22.037-.016-.015-30.151c-17.146 0-35.932 1.626-55.853 7.193l4.11 56.635h29.705v-11.07c-1.196-.889-6.748-1.534-10.167-.2-.828.322-3.527 1.488-4.754 2.453l-3.45 2.731c-.338.276-.368.874-.368 1.333 0 1.012-1.181 1.779-1.84 1.564-.537-.184-1.273-.291-1.948-.137-.721.152-1.364-.754-1.426-1.273-.092-.645.415-1.487.445-1.764.031-.261-.138-1.289.812-1.917.429-.275 1.027-.261 1.457-.03a.566.566 0 0 0 .414.062c.154-.062.568-.429.675-.521.046-.613-.046-1.58.016-2.116.138-1.043.199-1.641.521-2.654.276-.874.874-2.146 1.318-2.868.798-1.303 2.377-2.561 3.559-2.454-.461.614-.614.936-.951 1.565-.629 1.15-1.212 3.052-1.487 4.34-.185.828-.276 1.473-.23 2.346.905-.674 1.855-1.227 2.484-1.579.291-1.519.89-3.159 1.533-4.37.767-1.458 2.837-3.038 4.188-2.915-1.273 1.38-2.179 3.297-2.516 4.524-.138.49-.307 1.059-.229 1.365.505-.276 1.549-.552 2.054-.598.338-.843.798-1.856 1.182-2.454 1.196-1.841 3.082-2.96 4.156-2.914-.844 1.135-1.565 2.162-2.086 3.681-.154.444-.23.92-.23 1.15.659-.107 1.687-.107 2.101-.107.767-.69 1.318-1.519 2.239-2.224.767-.599 2.193-1.411 2.53-1.473v-9.309c0-.2-2.438-.383-3.65-.23-3.22.384-11.271 2.914-14.676 5.261-.077.2-.061 1.319-.292 1.84-.199.475-.705.966-1.195 1.181-.874.384-1.887-.782-2.332-.613-.46.169-1.441.567-2.5-.184-.475-.337-.72-1.289-.552-1.993.154-.507.583-.905.92-1.227.307-.307.092-1.488 1.195-2.193.768-.491 1.825-.092 2.639.337a1.17 1.17 0 0 0 .444-.26c.107-.323.276-1.304.43-2.071.184-.829.246-1.365.491-2.131.614-1.855 2.085-4.524 3.62-5.92 1.211-1.074 3.097-1.932 4.493-1.84-.139.212-1.871 1.762-2.378 2.452zm3.545-18.154c1.166-1.625 4.233-4.079 6.595-3.94-1.289 1.119-2.424 2.361-3.221 3.68-1.042 1.703-1.886 3.834-2.07 5.476.782-.292 2.622-.813 3.68-1.043.936-2.04 2.163-4.294 3.682-5.506 1.088-.874 2.652-1.625 4.11-1.457-.338.476-.89.844-1.304 1.227-.751.659-1.272 1.549-1.687 2.454-.307.674-.828 2.699-.844 2.791 1.058-.015 2.929.107 3.328.23 1.243-1.626 3.958-3.988 7.208-3.451-1.411.766-3.987 3.004-3.833 4.232 2.116 1.366 5.275 4.233 5.413 6.887-1.441-1.503-3.818-2.991-5.015-3.405-2.868-1.012-6.288-1.15-9.14-.629-5.95 1.12-11.21 3.696-16.255 6.718-.122.812-.568 2.039-.936 2.454-.368.414-.92.812-1.518.904-.751.123-1.519-.184-2.162-.521-.415-.23-1.503.062-2.193-.307-.475-.246-1.212-.936-1.012-2.024.168-.966 1.134-1.549 1.272-2.469.199-1.35 1.181-1.933 1.687-2.024.552-.107 1.12.077 1.625.307.215.107.444.291.645.353.199-.062.49-.307.659-.383.046-.154.553-2.96.828-4.187.276-1.227.751-2.271 1.15-3.42 1.197-3.404 4.892-6.84 7.853-6.656-.154.215-1.105.905-2.424 2.439-2.131 2.499-2.668 5.153-3.466 9.708 1.641-.767 3.067-1.319 4.555-1.856a26.167 26.167 0 0 1 1.411-4.125c.383-.862.843-1.705 1.379-2.457zm89.376 3.771l-54.808.047.047 16.133 53.535-.031 1.226-16.149zm-48.515 83.531c-.629.322-1.41.123-1.732-.016-.553-.23-.92-.799-.967-1.457-.045-.521.461-1.15.568-1.719.045-.23-.199-1.363.766-1.947.186-.107.736-.307 1.119-.244.385.076.691.322 1.074.383a7.484 7.484 0 0 0 1.488-.721c.307-1.182.537-2.545.689-3.758-2.744 1.365-6.334 2.285-9.385 2.408l.016 44.123c12.805-6.504 26.852-17.146 32.832-22.99 9.678-9.432 16.195-18.986 17.191-32.758l.904-12.545-29.09-.031c0 7.115-2.377 14.539-9.172 19.906-.383 1.549-.566 4.156-.537 4.219.936-.385 1.811-.721 2.578-.951.061-.092 1.15-2.469 1.641-3.113 1.15-1.779 2.699-3.299 4.584-4.311 1.182-.598 2.623-1.15 3.896-.674-1.672.797-2.977 2.238-3.758 3.066-.721.768-1.564 1.902-1.947 3.068a5.654 5.654 0 0 0-.123.613c.783-.246 3.281-.613 4.324-.752.123-.016.445-.705.691-1.043.305-.414.49-.674.98-1.227 1.258-1.365 3.389-2.822 5.459-2.5-1.133.721-2.377 1.871-3.373 3.68-.139.277-.322.66-.246.828.307.062 1.826.031 2.746.139 1.057-.658 2.178-1.242 3.389-1.502 1.365-.307 3.145-.062 3.85.582-.828-.047-1.611.107-2.361.398-.43.17-1.289.568-1.611 1.119.812.23 2.148 1.105 2.99 1.811.584.49 1.289 1.197 1.734 1.84 1.119 1.52 1.35 4.248.75 5.062-.168-.477-.352-.951-.613-1.396-.537-.904-1.381-1.887-2.102-2.424-3.48-2.652-8.494-2.791-12.59-1.963-3.512.721-9.846 2.041-13.986 4.984.107.521-.215 1.396-.689 1.732-.628.463-1.516-.165-1.977.081zm6.834 4.959c.459-.705 1.012-1.732 1.287-2.178.967-1.549 2.363-2.699 3.312-3.145 1.305-.629 3.404-.996 4.34-.537-1.027.246-1.809.721-2.529 1.227-.736.508-2.18 1.826-2.547 2.379-.414.613-.689 1.164-.797 1.457 1.164-.262 2.561-.477 3.281-.477.521-.66 1.902-2.238 2.93-2.975.828-.584 2.592-1.166 3.695-.691-1.057.338-2.928 1.811-3.619 2.869-.152.244-.291.506-.322.643.568.047 1.641.154 2.225.23.061 0 1.656-.98 2.377-1.18.936-.262 2.469-.598 3.436.43-.705.014-1.365.076-1.887.307-.752.336-1.074.582-1.41 1.057 1.471.783 3.006 1.596 3.91 3.037.322.506.812 1.703.537 2.484-.461-.582-1.09-1.15-1.596-1.441-.721-.414-1.242-.812-2.117-1.15-2.744-1.027-6.332-1.303-9.201-.92-3.711.475-8.266 2.316-10.596 3.91.152.721-.199 1.564-.613 1.764-.875.445-1.717-.307-1.871-.26-.23.076-.936.322-1.441.107-.508-.199-.828-1.09-.629-1.656.152-.43.768-1.043.768-1.043-.094-.936.52-1.502 1.363-1.611.477-.045.812.322 1.197.4.352-.17.598-.291.781-.385.215-.766.537-1.549.752-2.193.352-1.088.873-2.055 1.533-3.066.951-1.457 2.639-2.838 4.646-2.867-.613.475-.967.736-1.35 1.211-.658.828-1.166 1.58-1.625 2.469-.414.783-.799 1.947-.859 2.975a49.792 49.792 0 0 1 2.639-1.181zm-.297 8.295c.521-.215 1.072-.367 1.625-.305-1.289.826-2.469 2.037-2.791 3.48-.031.152-.031.459.107.551.367-.092 1.303-.291 1.549-.414.152-.322.535-.828.797-1.166.92-1.225 2.24-2.451 4.064-1.992-1.197.537-1.887 1.287-2.408 2.238-.092.17-.152.492-.031.492.307 0 1.473-.047 1.641-.047.537-.475 2.102-1.381 3.176-1.043a5.432 5.432 0 0 0-1.457.998c-.107.121-.246.275-.275.459.949.475 1.793 1.012 2.576 1.688.414.352 1.012 1.012 1.379 2.146-.92-.797-3.926-2.225-5.566-2.301-1.074-.045-2.406.154-3.082.307-2.592.584-5.26 1.75-7.545 3.053.016.445-.062.98-.566 1.395-.338.277-1.074.414-1.352.016-.152-.215-1.15.016-1.363-.26 0 0-.262-.398-.293-.875-.029-.506.307-.812.584-1.074.076-.092.061-.949.705-1.242.398-.184.797-.121 1.135.094.139-.078.246-.154.338-.215.076-.998.26-1.918.629-2.914.506-1.412 2.162-3.129 3.588-3.068-.967 1.043-1.748 2.484-2.01 3.682-.076.383-.105 1.135-.105 1.486a6.92 6.92 0 0 1 1.072-.535c.154-.369.598-1.289.828-1.703.58-1.076 1.885-2.455 3.051-2.931zm-65.84-30.327c.184 5.336 2.362 11.779 5.352 16.24h44.611l-.092-6.225c-5.735 0-14.492-3.789-17.958-9.984l-31.913-.031zm30.669-13.918c0 28.371 41.497 28.371 41.497.291l.016-34.138-41.513-.015v33.862zm13.369-13.597c.491-.537.921-1.242 1.012-1.84.077-.491-1.303-.46-1.809-.153-.276.168-.537.506-.752.813-.153.23-.705.414-.981.154-.292-.276.23-.752.214-1.043 0-.491-.936.245-1.365.045-.291-.138-.307-.582-.107-.843.107-.138.414-.077.552-.229.138-.154.138-.384.184-.583.062-.23.307-.338.46-.506.583-.567 1.687-1.534 1.902-1.518.505.046 1.227.307 1.671.076.092-.046.261-.199.107-.291l-1.196-.784a.841.841 0 0 1 .276-.66c.552-.491 1.411-.153 2.132-.261.506-.077.981-.276 1.349-.628.092.368-.138.736-.138 1.119.46.43.936.797 1.381 1.212 1.319 1.318 1.886 3.236 1.978 4.923.077.782.077 1.579.077 2.883.215-.552.353-1.365.399-2.071.199-2.086-.123-3.941-1.303-5.521a12.373 12.373 0 0 0-1.626-1.841c.062-.613.583-1.656 1.074-1.272.322.245-.153.613.184.828.369.229.905.199 1.135.152.537-.137 1.058-.275 1.548-.321.23-.015.613-.123.691.107.061.153-.107.261-.277.322-.199.062-.506.016-.674.184-.139.138-.275.292-.23.491.061.23.307.353.553.276a12.052 12.052 0 0 1 2.836-.43c.508 0 .398.369.154.506-.168.092-.43.169-.598.185-.904.106-1.58.168-1.473.689.076.353.645.015.766.276.139.276-.244.429-.213.614.092.583 1.211.46 1.732.337.383-.092.996-.398 1.18-.153.17.214.031.552-.184.614-.553.153-1.502.429-1.764.735-.246.292.047.89.338.921.66.076 1.381.076 1.902.229.197.062.367.2.367.414 0 .23-.23.307-.414.368-.354.107-.951.107-1.273.246-.107.046-.322.123-.291.245.092.23.553.168.936.214.215.016.629.185.629.415 0 .246-.215.322-.598.292-.598-.046-1.15.03-1.41.138-.078.03-.537.091-.523.307.031.26.523.092.645.353.107.246-.229.383-.26.69 0 .123.061.184.184.23.398.168.857.152 1.258.077.414-.077.566.476.459.537-.535.291-1.732-.015-2.008.153-.383.245.643.797.613.92-.031.138-.154.276-.246.307-.521.199-1.195-.185-1.578.031-.322.199-.186.705-.385.966-.246.322-.797.184-1.043.368-.32.229-.336.782.016 1.12.277.26.537.443.889.613 1.596.797 3.252 1.594 4.801 1.486.797-.045 2.102-.09 2.822.094.936.229 1.887.949 2.377 1.258.398.244 1.043.307 1.549.121.367-.121.613-.551.537-.92-.23-1.227-2.256-1.609-2.285-2.836-.031-1.411-.154-2.178-.613-3.068-.17-.337-.199-1.119.199-1.226.322-.077.43.368.689.261 1.182-.46 1.229-2.331 2.455-2.685.719-.199 3.143-.229 2.943-.536-.506-.722-.275-1.549 0-1.933.184-.245.689-.491.891-.245.275.322-.416.705-.369 1.181.045.445.691 1.304.199 1.764-.291.276-2.484.369-3.129 1.35-.398.597-.443 1.073.031 1.027.383-.046.705-.506 1.059-.767.629-.459 1.135-.644 1.488-.307.184.168-.062.491-.4.583-.275.092-.949.813-.766.997.275.291 1.809-1.042 2.193-.767.199.153-.752 1.135-.584 1.395.199.322.844-.184 1.043.062.291.368-.506 1.089-.967 1.411-.352.229-.215 1.089-.721 1.35-.566.276-.828.765-.766.843.061.121.199.215.414.076.629-.398 1.41-.874 1.732-.751.184.077-.076.95-.307 1.364s.936.184.766.537c-.121.262-.199.66-.121 1.027.092.477-1.258.582-1.381.904-.137.369.139.461.275.477.814.123.707.873.385 1.195-.43.43-1.166.598-1.811.49-.553-.092-1.793-.32-2.529-.873-.23-.168-.568-.047-.613.184-.047.262.229.736.352 1.135.17.598.076 1.35-.123 1.934-.428 1.211-1.578 2.223-1.9 3.68-.078.383.031.859.184 1.227.338.799.828 1.549 1.379 2.225.078.215.186.459.094.658-.123.307-1.074.967-1.35 1.229-.875.812-1.627 1.871-1.795 3.021-.062.414-.951.828-1.549.996-.443.123-.904.246-1.271.537-.047.336.152.629.197.965.078.584-.658.875-1.227 1.059-.26.092-.537.17-.844.17-.107 0-.137-.186-.121-.277.168-.797.32-1.441.627-2.1.123-.246.322-.445.523-.615l2.191-1.84 1.719-2.469c.152-.23.215-.43.215-.598 0-.477-.199-.92-.537-1.227-.43-.385-1.059-.445-1.533-.691-.613-.307-1.504-1.164-1.627-1.227-.336-.168-.535.445-.582.797-.076.537.092 1.043.076 1.58 0 .246-.029.383-.152.537-1.441.828-3.236 1.135-4.295 2.453-.184.23-.352.477-.598.645-.598.414-1.594-.061-2.04.582-.199.293.031.676-.045.998-.046.184-.399.43-.675.566-.369.17-.766.262-1.166.293-.445-.215-.169-.844-.016-1.289.153-.461.369-.92.721-1.227.521-.461 1.18-1.043 1.595-1.242.352-.17.888-.17 1.318-.338a4.682 4.682 0 0 0 1.273-.613c.627-.398 1.211-.889 1.564-1.564.398-.768.352-1.793-.154-2.453-.461-.598-.996-1.182-1.303-1.855-.17-.369-.047-.875.215-1.213-.016-.014-.201-.139-.307-.107-2.194.094-4.417-.152-6.457-.965-.537-.215-1.089-.906-1.473-.951-.352-.047-.567.398-.92.49-.567.154-1.304.062-1.963 0-.767-.076-2.362-.414-3.512-.781-.184.029-.383.061-.552.168-.246.168-.292.537-.307.844-.031.414.092.797.045 1.227-.015.215-.138.445-.076.645.062.244.307.352.475.506.276.26.322.797.322 1.227 0 .475-.168 1.105.23 1.428.246.197.583-.062.89 0 .337.061.444.475.46.797.016.367-.291 1.148-.491 1.35-.138.137-.368.029-.537-.047-.444-.199-.859-.521-1.104-.951-.107-.184-.107-.414-.215-.613-.169-.338-.476-.535-.782-.766-.368-.277-.444-.783-.506-1.227-.046-.416.031-.814.062-1.229a7.75 7.75 0 0 0-.154-2.453c-.138-.613-.476-1.227-.322-1.84.077-.291.276-.568.553-.691a17.531 17.531 0 0 0 4.37-.766l-.92-.906c-.23 0-.414.23-.644.23-.246 0-.583-.352-.675-.475-.476-.705-.782-1.52-.997-2.348-.199-.322-.444-.643-.813-.797a1.876 1.876 0 0 0-.812-.154c-.767.338-1.472.998-1.534 1.842-.015.215.107.398.077.613-.045.367-.322.613-.583.875-.261.26-.506.521-.613.889-.093.307.015.629.152.92.092.199.2.398.123.613-.184.506-1.395 1.027-1.748 1.027-.123 0-.23-.168-.276-.307-.138-.461-.107-.951-.015-1.41a3.19 3.19 0 0 0 .705-1.227c.185-.613.092-1.273.384-1.842.766-1.303 2.729-3.91 3.112-4.293.169-.168.583-.261.752-.153.828.537 1.319 1.196 2.116 1.61.43.215.966.538 1.35.231.383-.307.444-2.362.69-2.884.449-.905 1.691-2.102 2.55-3.068zm15.265-12.775l-.338 1.288h-1.227l1.596-6.042h1.395l1.535 5.996h-1.229l-.307-1.242h-1.425zm1.257-1.097l-.553-2.423-.521 2.423h1.074zm-4.48-1.92c.016-.399-.107-.92-.428-1.043-.338-.123-.691-.015-.844.215-.262.429-.262 1.012-.246 1.901 0 .537.016 1.288.123 1.642.26.812.951.859 1.287.352.17-.245.17-.721.154-1.15h-.707v-.89h1.826v3.251h-.873v-.444c-.016.031-.4.322-.584.415-.307.137-.889.137-1.363-.062-.4-.169-.783-.705-.951-1.396-.17-.721-.094-1.657-.094-2.454.016-.844.461-1.779 1.074-2.132.43-.245 1.227-.245 1.732-.061.615.215 1.09 1.104.998 1.856h-1.104zm-20.544-1.646c.491.307.751.875.661 1.534H80.4c0-.613-.26-.905-.782-.92-.322-.015-.721.353-.721.629-.016.812.705.981 1.196 1.134.368.108.813.338 1.028.66.398.583.445 1.196.123 1.994-.153.383-.736.843-1.227.951-.552.123-1.227.062-1.779-.353-.445-.337-.645-.997-.553-1.595h1.089c0 .292.046.506.169.69.092.123.261.322.552.337a.79.79 0 0 0 .843-.874c-.061-.936-1.625-.997-2.162-1.595-.645-.736-.445-1.917.076-2.393.722-.674 1.704-.674 2.454-.199zm30.966 4c.016.23.031 1.043.061 1.564.016.153.17.353.17.368h-1.15c-.154 0-.17-.276-.184-.505-.031-.613.029-2.07-.568-2.07h-.736v2.561h-1.15v-5.981h2.07c1.043 0 1.564.599 1.564 1.411 0 .537-.016 1.166-.629 1.426.321.306.505.766.552 1.226zm-1.576-3.2h-.859v1.611h.629c1.042 0 1.027-1.611.23-1.611zm-25.893 5.143h-1.15v-5.046h-1.319V72.5h3.803v1.012h-1.334v5.046zm7.404 0v-5.046h-1.319V72.5h3.818v1.012h-1.35v5.046h-1.149zm3.017-6.057h3.818v1.027h-1.35v5.03h-1.149v-5.03h-1.319v-1.027zm19.95 1.028v5.045h-1.15v-5.045h-1.318v-1.027h3.803v1.027h-1.335zM88.545 76.82v-4.309h1.119v4.202c0 2.515-3.65 2.515-3.65.077v-4.279h1.119v4.325c.001.936 1.412.936 1.412-.016zm2.582 4.525c.338-.291.812-.689 1.364-1.042.491-.322-.061.415-.092.721-.092.828-.721.92-1.411.767-.121-.031-.075-.262.139-.446zm28.84 19.335l29.291-.016 1.303-16.195-30.594.016v16.195zm-24.703 50.437l-30.211-.061c6.226 5.598 20.642 16.072 30.119 20.32l.092-20.259zm-21.87-67.075c-.583.521-1.748 1.81-1.979 2.392.507.184 1.503.629 1.979.951v-3.343z"/></g></svg>