<svg xmlns="http://www.w3.org/2000/svg" width="2500" height="2500" viewBox="0 0 192.756 192.756"><path fill-rule="evenodd" clip-rule="evenodd" fill="#fff" d="M0 0h192.756v192.756H0V0z"/><path d="M137.486 161.109c-10.898 9.93-20.281 15.281-40.045 25.65-18.399-8.367-30.407-16.615-40.821-24.742-14.391-11.203-24.729-29.396-25.625-40.553l-7.18-106.199c48.639-12.643 100.374-12.355 145.126.85l-7.285 105.122c-.927 9.519-9.443 28.031-24.17 39.872z" fill-rule="evenodd" clip-rule="evenodd" fill="#edc95e" stroke="#000" stroke-width=".989" stroke-miterlimit="2.613"/><path d="M153.322 117.756l6.574-93.874c-38.514-12.266-84.648-12.447-127.154-1.289l6.71 95.102c.698 9.883 7.818 24.998 21.466 36.58 8.213 6.975 24.304 18.68 36.189 23.166 13.693-6.928 26.143-15.541 36.01-24.043 12.237-11.144 19.463-25.002 20.205-35.642z" fill-rule="evenodd" clip-rule="evenodd" fill="#edc95e" stroke="#000" stroke-width=".989" stroke-miterlimit="2.613"/><path d="M131.539 150.92c-9.459 8.156-22.195 17.297-34.432 23.135-10.929-3.381-27.082-15.844-34.854-22.545-13.556-11.703-19.067-23.953-19.901-35.535l-6.59-90.78c40.472-10.628 84.647-10.628 121.354 1.062l-6.512 89.568c-.94 11.913-6.481 23.3-19.065 35.095z" fill-rule="evenodd" clip-rule="evenodd" fill="#edc95e" stroke="#000" stroke-width=".989" stroke-miterlimit="2.613"/><path d="M38.788 26.958l1.305 15.646m0 0c38.635-9.656 79.106-8.687 112.702 1.472m0 0l1.441-15.919m0 0c-34.809-10.672-77.071-11.249-115.448-1.198" fill="none" stroke="#000" stroke-width=".989" stroke-miterlimit="2.613"/><path fill-rule="evenodd" clip-rule="evenodd" d="M134.863 32.765l-8.713-1.439-.336 4.092-2.837-.423.668-10.856 2.9.424-.305 4.17 8.836 1.425.287-4.17 2.961.562-.896 10.885-2.883-.531.318-4.139zM92.809 29.083c-1.062 0-1.912-.288-2.474-1.228-.485-.773-.485-3.29 0-4.124.531-.97 1.487-1.243 2.277-1.243l12.356.016.032 2.667-11.689-.015c-.577 0-.592 1.289.045 1.289h9.214c1.078 0 2.035.653 2.338 1.5.334.911.273 2.973 0 3.821-.258.85-1.23 1.318-2.445 1.318H90.274l-.016-2.728h10.854a.639.639 0 0 0 0-1.274h-8.303v.001zM85.661 30.167a1.023 1.023 0 0 0-1.062-1.001l-8.198.592.167 4.062-2.656.273-.562-10.718 12.206-.91c1.579-.12 2.505 1.061 2.58 2.047.091 1.167.137 2.668-.774 3.29.759.561.957 1.395.972 2.562l.031 2.743-2.657.107-.047-3.047z"/><path d="M83.919 26.688c1.047-.061.956-1.683 0-1.592l-7.803.591.091 1.485 7.712-.484z" fill-rule="evenodd" clip-rule="evenodd" fill="#edc95e"/><path d="M58.356 25.264c2.505-.591 7.636-1.409 10.323-1.607 1.229-.09 2.186.546 2.353 1.502.395 2.198.638 4.471.364 7.52-.076.879-.835 1.576-1.837 1.789-3.446.758-7.317 1.167-10.187 1.44-.729.076-1.882-.5-2.079-1.41-.501-2.214-.684-5.307-.531-7.43.061-.787.79-1.621 1.594-1.804z" fill-rule="evenodd" clip-rule="evenodd"/><path d="M68.106 31.794c.349-.077.501-.455.532-.728.121-.834.015-3.018-.183-3.745-.06-.288-.303-.471-.849-.425-1.488.092-5.42.652-7.363 1.076-.516.122-.714.425-.744.698-.092.712.121 2.668.303 3.759.046.259.38.44.637.425 2.627-.211 5.725-.635 7.667-1.06z" fill-rule="evenodd" clip-rule="evenodd" fill="#edc95e"/><path d="M111.154 25.716c-.576-.015-.971.334-1.016.637-.137.895-.184 2.046-.184 3.547 0 .197.334.743.623.788 2.611.365 7.682.82 10.445 1.001l-.168 2.804c-3.627-.166-7.422-.743-11.354-1.015-1.291-.092-2.232-.788-2.279-2.031-.076-2.047.047-5.14.412-6.944.242-1.106 1.305-1.683 2.504-1.652 3.627.137 6.512.456 11.264 1.092l-.182 2.79c-2.305-.197-6.678-.88-10.065-1.017zM51.751 26.53c3.674-.864 4.235 5.655 1.168 6.413l-8.562 2.138.41 4.214-2.687.712-.957-10.976 10.628-2.501z" fill-rule="evenodd" clip-rule="evenodd"/><path d="M51.706 30.8c.88-.198.759-1.774-.183-1.577l-7.727 1.865.182 1.622 7.728-1.91z" fill-rule="evenodd" clip-rule="evenodd" fill="#edc95e"/><path fill-rule="evenodd" clip-rule="evenodd" d="M142.555 34.392l-.182 1.759 8.486 2.138-.228 2.455-11.385-2.682.986-11.053 11.461 2.774-.257 2.577-8.532-2.061-.168 1.865 8.471 2.062-.213 2.183-8.439-2.017z"/><path d="M73.642 82.553v-9.202l.01-3.88.005-1.88 21.814-.016-.014-29.805m0 0c-16.973 0-35.568 1.606-55.289 7.111m0 0l4.068 55.986h29.405V82.553" fill="none" stroke="#000" stroke-width=".989" stroke-miterlimit="2.613"/><path d="M73.611 72.456c0-.197-2.414-.38-3.614-.229-3.188.379-11.158 2.881-14.528 5.201-.075.197-.061 1.303-.288 1.819-.197.469-.698.955-1.184 1.167-.866.378-1.868-.773-2.308-.606-.456.166-1.427.561-2.475-.182-.47-.333-.712-1.273-.546-1.971.152-.501.577-.895.912-1.213.304-.303.09-1.47 1.183-2.168.759-.484 1.807-.089 2.612.334.182-.061.304-.136.44-.257.105-.32.273-1.29.425-2.048.183-.819.244-1.35.486-2.107.607-1.834 2.064-4.472 3.583-5.852 1.199-1.061 3.066-1.91 4.447-1.819-.137.211-1.852 1.743-2.354 2.426-1.184 1.575-2.276 4.001-2.792 6.063-.183.697-.183.956-.061 1.41 1.123-.501 2.58-.985 3.431-1.259.334-.742.516-1.592.805-2.273.455-1.062.745-1.517 1.214-2.259 1.351-2.092 4.205-4.154 6.315-4.108-.699.606-2.156 2.122-2.732 3.031-.47.758-.911 1.577-1.245 2.426-.288.758-.379 1.319-.455 1.94 1.093-.317 2.171-.545 2.869-.591.471-.258.622-.758.881-1.228.804-1.501 2.382-3.184 3.385-3.729.804-.44 1.988-.865 2.838-.591-.911.682-1.867 1.772-2.292 2.425-.44.697-1.154 2.047-1.124 2.684.745.06 1.714.021 2.14-.085l.032 3.649.01-3.881-.01 3.881z" fill-rule="evenodd" clip-rule="evenodd"/><path d="M63.944 47.901c1.154-1.606 4.189-4.031 6.528-3.895-1.275 1.106-2.399 2.334-3.188 3.638-1.033 1.682-1.868 3.791-2.049 5.412.773-.288 2.595-.803 3.643-1.031.926-2.016 2.141-4.245 3.644-5.443 1.077-.864 2.625-1.607 4.068-1.44-.334.47-.881.834-1.291 1.214-.745.651-1.26 1.531-1.67 2.425-.304.667-.82 2.668-.835 2.76 1.047-.015 2.9.105 3.294.227 1.23-1.607 3.917-3.941 7.136-3.411-1.397.758-3.947 2.971-3.795 4.184 2.094 1.35 5.221 4.184 5.358 6.806-1.427-1.485-3.78-2.956-4.964-3.365-2.839-1.001-6.224-1.137-9.048-.622-5.89 1.107-11.097 3.654-16.091 6.641-.121.804-.562 2.016-.926 2.425-.364.409-.911.804-1.502.896-.744.12-1.503-.182-2.141-.516-.41-.228-1.488.061-2.17-.305-.471-.242-1.2-.924-1.002-2 .167-.955 1.123-1.531 1.259-2.441.198-1.333 1.168-1.911 1.67-2 .546-.107 1.108.076 1.609.302.212.106.439.289.638.35.197-.061.485-.304.653-.379.045-.153.546-2.926.819-4.139.273-1.213.744-2.245 1.139-3.38 1.184-3.365 4.843-6.762 7.773-6.58-.152.213-1.094.895-2.399 2.41-2.11 2.472-2.642 5.095-3.431 9.597 1.624-.758 3.036-1.303 4.508-1.835.35-1.394.82-2.759 1.397-4.078.38-.849.835-1.684 1.366-2.427z" fill-rule="evenodd" clip-rule="evenodd"/><path fill-rule="evenodd" clip-rule="evenodd" fill="#ca3132" d="M152.418 51.629l-54.256.047.045 15.948 52.996-.03 1.215-15.965z"/><path d="M110.631 122.969c-.379 1.529-.562 4.107-.531 4.17.926-.381 1.791-.715 2.551-.941.059-.092 1.139-2.441 1.625-3.078 1.137-1.758 2.67-3.26 4.537-4.26 1.17-.592 2.596-1.137 3.857-.666-1.656.787-2.945 2.213-3.721 3.031-.713.758-1.549 1.879-1.928 3.031-.061.197-.121.607-.121.607.773-.242 3.248-.607 4.281-.744.121-.016.439-.697.682-1.031.305-.408.486-.666.973-1.211 1.246-1.35 3.355-2.791 5.404-2.473-1.123.713-2.354 1.85-3.34 3.639-.137.273-.318.652-.242.818.303.062 1.807.031 2.717.139 1.047-.652 2.156-1.23 3.355-1.486 1.35-.305 3.111-.061 3.811.574-.82-.045-1.596.107-2.338.395-.426.168-1.275.562-1.596 1.107.807.227 2.127 1.092 2.961 1.789.576.484 1.275 1.182 1.715 1.82 1.109 1.5 1.336 4.197.744 5.002-.166-.471-.35-.939-.605-1.381-.533-.893-1.369-1.863-2.082-2.395-3.445-2.621-8.41-2.758-12.461-1.941-3.479.715-9.748 2.018-13.846 4.928.105.518-.215 1.379-.684 1.715-.623.453-1.504-.168-1.959.076-.621.318-1.396.119-1.715-.016-.547-.229-.91-.789-.957-1.441-.045-.516.455-1.137.562-1.697.047-.229-.197-1.35.76-1.926.182-.105.729-.303 1.107-.242.379.076.684.318 1.062.379a7.47 7.47 0 0 0 1.473-.713c.305-1.168.531-2.518.684-3.715l3.265-1.863z" fill-rule="evenodd" clip-rule="evenodd"/><path d="M107.367 124.832c-2.719 1.35-6.271 2.26-9.291 2.381m0 0l.016 43.615m0 0c12.676-6.426 26.58-16.947 32.502-22.723 9.578-9.326 16.031-18.771 17.016-32.385m-.001.001l.896-12.4-28.797-.031m.001-.001c0 7.035-2.338 14.32-9.09 19.645m0 0l-3.252 1.898" fill="none" stroke="#000" stroke-width=".989" stroke-miterlimit="2.613"/><path d="M111.154 139.105c.457-.697 1.004-1.715 1.275-2.154.957-1.531 2.338-2.668 3.281-3.107 1.289-.621 3.369-.986 4.295-.531-1.018.244-1.791.713-2.506 1.213-.729.5-2.156 1.805-2.52 2.35-.408.607-.684 1.152-.789 1.439 1.152-.256 2.535-.469 3.248-.469.518-.652 1.883-2.213 2.9-2.941.82-.576 2.566-1.152 3.658-.682-1.047.334-2.898 1.789-3.582 2.834-.152.244-.289.502-.318.637.561.047 1.623.152 2.201.229.059 0 1.639-.971 2.352-1.168.928-.258 2.445-.59 3.4.426-.697.014-1.352.074-1.867.303-.742.334-1.062.576-1.396 1.045 1.457.773 2.977 1.578 3.873 3.004.316.5.803 1.682.529 2.455-.455-.576-1.078-1.137-1.578-1.426-.713-.41-1.23-.803-2.096-1.137-2.717-1.016-6.27-1.289-9.109-.91-3.672.471-8.182 2.291-10.488 3.867.152.711-.197 1.545-.607 1.742-.865.439-1.699-.303-1.852-.258-.229.076-.928.318-1.428.107-.5-.197-.818-1.078-.621-1.639.15-.424.758-1.031.758-1.031-.092-.924.516-1.484 1.352-1.592.471-.045.805.32 1.184.395.35-.166.592-.287.775-.379.213-.758.531-1.531.742-2.168.35-1.076.867-2.031 1.52-3.031.939-1.441 2.611-2.805 4.6-2.836-.607.471-.957.729-1.336 1.199-.652.818-1.154 1.561-1.609 2.439-.41.773-.789 1.926-.852 2.941.73-.347 1.853-.863 2.611-1.166zM110.861 147.305c.516-.211 1.062-.363 1.609-.303-1.275.818-2.445 2.016-2.764 3.439-.029.154-.029.455.107.547.363-.092 1.289-.289 1.533-.408.152-.318.531-.818.789-1.152.91-1.213 2.217-2.426 4.021-1.971-1.182.529-1.865 1.273-2.383 2.213-.09.168-.152.484-.031.484.305 0 1.459-.045 1.625-.045.531-.471 2.08-1.365 3.143-1.031a5.496 5.496 0 0 0-1.441.986c-.105.121-.244.273-.273.455.941.469 1.775 1 2.551 1.668.41.348 1.002 1 1.365 2.121-.91-.787-3.887-2.197-5.51-2.273-1.062-.045-2.383.152-3.051.303-2.566.576-5.209 1.729-7.469 3.018.014.439-.061.971-.562 1.379-.334.273-1.062.41-1.336.016-.15-.213-1.139.014-1.352-.258 0 0-.258-.395-.289-.865-.029-.5.305-.803.578-1.061.076-.09.061-.939.697-1.229.395-.182.791-.119 1.125.092.137-.076.242-.152.332-.211.076-.986.26-1.896.623-2.881.502-1.396 2.141-3.094 3.553-3.033-.955 1.031-1.73 2.457-1.988 3.639-.076.379-.105 1.121-.105 1.471a6.906 6.906 0 0 1 1.061-.531c.152-.363.592-1.273.82-1.684.579-1.061 1.868-2.425 3.022-2.895z" fill-rule="evenodd" clip-rule="evenodd"/><path d="M45.688 117.326c.182 5.275 2.338 11.643 5.298 16.055h44.161l-.091-6.156c-5.678 0-14.346-3.744-17.777-9.867l-31.591-.032z" fill-rule="evenodd" clip-rule="evenodd" fill="#ca3132"/><path d="M76.046 103.566c0 28.047 41.079 28.047 41.079.289m0 0l.016-33.747-41.094-.015v33.472" fill="none" stroke="#000" stroke-width=".989" stroke-miterlimit="2.613"/><path d="M89.28 90.126c.486-.531.912-1.229 1.002-1.82.075-.485-1.29-.454-1.792-.151-.273.167-.532.5-.744.804-.152.227-.698.409-.971.151-.289-.273.228-.743.213-1.031 0-.484-.927.243-1.352.046-.288-.137-.304-.575-.106-.833.106-.138.41-.076.547-.228s.137-.378.183-.576c.061-.228.303-.333.455-.5.577-.561 1.67-1.516 1.882-1.501.5.046 1.214.303 1.654.075.091-.044.258-.195.106-.287l-1.184-.773a.828.828 0 0 1 .272-.652c.547-.485 1.397-.152 2.111-.258.5-.076.972-.273 1.335-.622.091.364-.137.728-.137 1.107.456.425.927.788 1.367 1.198 1.305 1.304 1.867 3.198 1.958 4.866.076.773.076 1.562.076 2.851.213-.545.349-1.35.395-2.047.197-2.062-.122-3.896-1.29-5.458a12.25 12.25 0 0 0-1.61-1.818c.061-.606.578-1.638 1.063-1.259.319.243-.151.606.183.819.365.228.896.197 1.123.151.532-.136 1.048-.272 1.532-.317.229-.016.607-.122.684.106.062.151-.105.257-.273.318-.197.061-.5.016-.668.183-.137.136-.273.287-.227.484.059.228.303.349.545.273a11.97 11.97 0 0 1 2.809-.425c.502 0 .395.364.152.501-.166.09-.426.167-.592.182-.896.106-1.564.167-1.457.683.076.348.637.014.758.271.137.273-.242.425-.211.607.09.575 1.199.455 1.715.333.379-.091.986-.394 1.17-.151.166.211.029.545-.184.606-.547.152-1.488.424-1.746.728-.242.288.047.879.334.909.652.076 1.367.076 1.883.228.197.06.365.197.365.409 0 .228-.229.304-.41.364-.35.106-.941.106-1.262.242-.105.046-.318.122-.287.243.09.228.547.167.926.212.213.016.623.182.623.409 0 .243-.213.318-.594.289-.592-.046-1.137.029-1.395.136-.078.03-.531.09-.518.304.031.256.518.09.637.348.107.242-.227.379-.256.682 0 .122.059.182.182.228.395.167.85.151 1.244.076.41-.076.562.47.457.531-.533.288-1.717-.015-1.99.151-.379.243.637.789.607.911-.031.136-.152.272-.244.303-.514.197-1.182-.182-1.562.03-.318.197-.182.697-.379.956-.244.318-.791.182-1.033.364-.318.227-.334.772.016 1.106.273.258.531.439.881.605 1.58.789 3.219 1.578 4.752 1.471.789-.045 2.078-.09 2.793.092.926.227 1.865.939 2.354 1.242.393.242 1.031.305 1.533.123.363-.123.605-.547.531-.91-.229-1.213-2.232-1.592-2.264-2.805-.029-1.394-.15-2.152-.607-3.033-.166-.333-.197-1.106.199-1.212.318-.076.424.365.682.258 1.17-.456 1.215-2.305 2.43-2.654.713-.197 3.111-.228 2.914-.531-.5-.712-.273-1.531 0-1.91.182-.242.684-.486.881-.242.273.317-.41.696-.363 1.167.045.439.682 1.288.197 1.743-.289.272-2.461.364-3.098 1.334-.395.591-.439 1.062.031 1.016.379-.045.697-.5 1.045-.758.623-.454 1.125-.637 1.475-.304.182.167-.061.486-.395.576-.273.091-.941.805-.76.985.273.288 1.791-1.03 2.172-.757.197.151-.746 1.122-.578 1.38.197.318.836-.182 1.033.061.287.364-.502 1.076-.957 1.394-.348.228-.213 1.076-.713 1.334-.562.273-.82.757-.76.833.061.121.197.211.41.076.621-.395 1.396-.864 1.715-.742.182.076-.074.939-.303 1.348-.229.41.926.184.758.531a1.71 1.71 0 0 0-.121 1.016c.092.471-1.244.576-1.365.895-.137.365.135.455.273.471.805.121.697.863.379 1.182-.424.426-1.154.592-1.791.486-.547-.092-1.777-.32-2.504-.865-.229-.166-.562-.045-.609.182-.045.258.229.729.35 1.123.168.59.076 1.334-.121 1.91-.424 1.197-1.564 2.197-1.883 3.637-.076.381.031.85.184 1.215.332.787.818 1.531 1.365 2.197.076.213.182.455.092.652-.121.303-1.064.955-1.336 1.213-.865.803-1.609 1.85-1.777 2.986-.061.408-.939.818-1.533.986-.439.119-.895.242-1.26.529-.045.334.152.623.197.955.076.576-.652.865-1.215 1.047a2.49 2.49 0 0 1-.834.166c-.105 0-.137-.182-.121-.271.166-.789.318-1.426.621-2.076.123-.244.32-.441.518-.607l2.17-1.82 1.701-2.441c.15-.227.211-.424.211-.59 0-.471-.197-.91-.531-1.213-.424-.379-1.047-.439-1.518-.684-.607-.301-1.488-1.152-1.609-1.213-.334-.166-.531.439-.576.789-.076.531.09 1.031.076 1.561 0 .244-.031.381-.152.531-1.426.818-3.203 1.121-4.25 2.426-.184.227-.348.471-.592.637-.594.41-1.579-.061-2.02.576-.197.289.031.668-.045.986-.046.182-.395.424-.667.561a3.389 3.389 0 0 1-1.154.287c-.44-.211-.167-.832-.016-1.273.152-.455.365-.908.714-1.213.517-.453 1.168-1.029 1.58-1.229.348-.166.88-.166 1.304-.332a4.63 4.63 0 0 0 1.26-.607c.623-.393 1.199-.879 1.549-1.547.395-.756.35-1.771-.152-2.424-.455-.592-.986-1.168-1.289-1.836-.168-.363-.047-.863.213-1.197-.016-.014-.197-.137-.305-.105-2.17.092-4.371-.15-6.39-.955-.532-.213-1.078-.895-1.458-.939-.349-.047-.562.393-.911.484-.562.152-1.291.061-1.943 0-.759-.076-2.338-.41-3.477-.773-.182.031-.379.061-.546.168-.243.166-.288.529-.304.834-.03.408.091.787.045 1.211-.014.213-.135.441-.075.639.061.242.303.348.47.5.273.258.319.787.319 1.211 0 .471-.167 1.092.228 1.412.243.197.577-.062.881 0 .334.059.439.469.455.787.016.363-.288 1.137-.486 1.334-.137.137-.365.031-.531-.045-.439-.197-.85-.516-1.092-.939-.106-.184-.106-.41-.213-.605-.167-.334-.471-.531-.774-.76-.364-.273-.44-.771-.501-1.213-.045-.408.031-.805.061-1.213a7.697 7.697 0 0 0-.152-2.426c-.137-.605-.47-1.213-.319-1.818.076-.289.273-.561.547-.682 1.472-.076 2.93-.32 4.326-.76l-.91-.895c-.229 0-.41.229-.638.229-.243 0-.577-.348-.667-.471-.471-.697-.774-1.5-.987-2.318-.198-.318-.44-.639-.805-.789a1.828 1.828 0 0 0-.804-.152c-.76.334-1.458.986-1.519 1.82-.015.213.106.395.076.605-.045.365-.319.607-.577.865s-.501.516-.607.879c-.091.303.016.621.151.91.092.197.198.393.122.605-.183.5-1.381 1.016-1.73 1.016-.121 0-.228-.166-.273-.303-.137-.455-.106-.939-.015-1.396.319-.348.562-.756.698-1.211.182-.605.091-1.258.38-1.82.758-1.287 2.701-3.864 3.082-4.244.167-.167.576-.258.744-.152.82.531 1.306 1.183 2.094 1.592.426.212.957.531 1.337.227.379-.303.44-2.334.683-2.85.437-.898 1.667-2.081 2.516-3.036zM104.391 77.498l-.334 1.273h-1.215l1.58-5.974h1.381l1.517 5.929h-1.213l-.304-1.228h-1.412zM101.201 74.514c.016-.394-.105-.909-.424-1.031-.336-.121-.684-.016-.834.212-.26.425-.26 1.001-.244 1.879 0 .531.016 1.275.121 1.623.258.804.941.85 1.275.349.168-.242.168-.712.152-1.136h-.699v-.88h1.807v3.214h-.865v-.44c-.016.031-.395.318-.578.41-.303.136-.879.136-1.35-.062-.395-.166-.773-.696-.941-1.378-.166-.714-.092-1.639-.092-2.427.016-.833.455-1.759 1.062-2.107.426-.243 1.215-.243 1.717-.061.607.213 1.076 1.092.986 1.834h-1.093v.001zM80.865 72.888c.486.303.744.864.654 1.517h-.958c0-.606-.258-.896-.773-.91-.319-.016-.714.349-.714.622-.016.802.699.97 1.184 1.121.364.107.804.334 1.017.652.395.575.44 1.183.122 1.971-.151.378-.729.833-1.214.939-.547.122-1.215.061-1.761-.349-.44-.334-.638-.986-.547-1.577h1.078c0 .289.045.5.167.683.091.122.258.318.547.334a.78.78 0 0 0 .834-.864c-.061-.925-1.609-.986-2.141-1.578-.638-.727-.439-1.895.077-2.365.713-.665 1.685-.665 2.428-.196zM111.518 76.841c.014.228.031 1.031.061 1.547.016.151.166.348.166.363h-1.139c-.15 0-.166-.273-.182-.5-.029-.606.031-2.047-.561-2.047h-.73v2.532h-1.139v-5.913h2.051c1.031 0 1.549.592 1.549 1.395 0 .531-.016 1.152-.623 1.41.318.304.5.759.547 1.213z" fill-rule="evenodd" clip-rule="evenodd"/><path d="M109.957 73.678h-.852v1.593h.623c1.034 0 1.018-1.593.229-1.593z" fill-rule="evenodd" clip-rule="evenodd" fill="#edc95e"/><path fill-rule="evenodd" clip-rule="evenodd" d="M84.327 78.762h-1.139v-4.988h-1.306v-1h3.765v1h-1.32v4.988zM91.656 78.762v-4.988H90.35v-1h3.78v1h-1.335v4.988h-1.139zM94.642 72.775h3.78v1.017h-1.336v4.972h-1.139v-4.972h-1.305v-1.017zM114.391 73.792v4.988h-1.139v-4.988h-1.307v-1.015h3.766v1.015h-1.32zM88.625 77.045v-4.26h1.107v4.154c0 2.486-3.613 2.486-3.613.076v-4.23h1.107v4.275c.001.926 1.399.926 1.399-.015z"/><path d="M91.181 81.518c.334-.287.804-.683 1.351-1.03.486-.319-.061.409-.091.712-.092.818-.714.909-1.397.758-.121-.03-.075-.258.137-.44" fill="none" stroke="#000" stroke-width=".989" stroke-miterlimit="2.613"/><path fill-rule="evenodd" clip-rule="evenodd" fill="#ca3132" d="M119.729 100.631l28.996-.016 1.289-16.008-30.285.015v16.009zM95.275 150.49l-29.906-.061c6.163 5.533 20.433 15.889 29.815 20.088l.091-20.027z"/><path d="M73.642 87.358v2.563c-1.184-.879-6.68-1.516-10.065-.197-.819.317-3.491 1.47-4.706 2.425l-3.415 2.699c-.335.271-.364.864-.364 1.319 0 1-1.169 1.758-1.822 1.545-.531-.182-1.26-.287-1.928-.137-.714.152-1.351-.742-1.412-1.258-.091-.636.411-1.469.44-1.743.03-.258-.137-1.273.804-1.895.425-.273 1.018-.258 1.442-.03a.55.55 0 0 0 .41.06c.152-.06.562-.424.668-.515.046-.605-.045-1.561.016-2.091.136-1.032.197-1.622.516-2.624.273-.864.866-2.122 1.305-2.834.79-1.289 2.354-2.532 3.522-2.426-.456.606-.607.925-.941 1.547-.622 1.137-1.199 3.017-1.472 4.289-.183.819-.274 1.456-.229 2.32.896-.667 1.837-1.212 2.459-1.562a16.32 16.32 0 0 1 1.518-4.32c.759-1.44 2.808-3.002 4.144-2.881-1.26 1.365-2.155 3.26-2.489 4.473-.137.484-.304 1.045-.228 1.349.5-.272 1.534-.545 2.034-.591.334-.834.789-1.835 1.169-2.425 1.184-1.82 3.051-2.927 4.115-2.881-.835 1.121-1.55 2.138-2.065 3.638-.153.439-.228.91-.228 1.137.652-.107 1.669-.107 2.08-.107 1.106-.993.997-1.265 2.217-2.197.759-.592 2.17-1.396 2.504-1.457v1.792c-.578.517-1.746 1.627-1.975 2.204.503.184 1.505.493 1.976.811z" fill-rule="evenodd" clip-rule="evenodd"/><path fill-rule="evenodd" clip-rule="evenodd" fill="#edc95e" d="M105.635 76.412l-.545-2.396-.516 2.396h1.061z"/><path fill-rule="evenodd" clip-rule="evenodd" d="M151.043 69.183l-31.205.013v13.816l30.248.037.92-13.32.037-.546zM152.479 50.107l.277-4.504c-19.582-6.043-37.688-7.854-54.658-7.854l-.008 12.283 54.389.075zM76.532 115.705c-2.121-3.916-2.958-8.217-2.958-12.428l-28.798.031.896 12.4 30.86-.003zM95.167 148.4l.005-12.924-43.096-.047c2.798 4.465 6.391 8.566 10.582 12.646.115.113.234.229.356.346l32.153-.021z"/></svg>