<svg xmlns='http://www.w3.org/2000/svg' viewBox="0 0 53.85600000000001 54.288000000000004">
    <path transform="translate(-2.736 51.264)"
          d="M17.35 3.02Q16.49 3.02 15.98 2.52Q15.48 2.02 15.48 1.15L15.48 1.15L15.48 0.86L15.19 0.86Q14.33 0.86 13.82 0.36Q13.32-0.14 13.32-1.01L13.32-1.01L13.32-3.02Q13.32-3.89 13.82-4.39Q14.33-4.90 15.19-4.90L15.19-4.90L16.92-4.90L16.92-5.83Q15.77-6.26 15.77-7.63L15.77-7.63L15.77-7.92L15.48-7.92Q14.62-7.92 14.11-8.42Q13.61-8.93 13.61-9.79L13.61-9.79L13.61-11.81Q13.61-12.67 14.11-13.18Q14.62-13.68 15.48-13.68L15.48-13.68L16.92-13.68L16.92-23.11L10.58-23.11L10.58-21.17Q10.58-20.30 10.08-19.80Q9.58-19.30 8.71-19.30L8.71-19.30L6.77-19.30Q5.90-19.30 5.40-19.80Q4.90-20.30 4.90-21.17L4.90-21.17L4.90-21.46L4.61-21.46Q3.74-21.46 3.24-21.96Q2.74-22.46 2.74-23.33L2.74-23.33L2.74-29.09Q2.74-29.95 3.24-30.46Q3.74-30.96 4.61-30.96L4.61-30.96L16.92-30.96L16.92-43.42Q15.26-43.56 15.26-45.29L15.26-45.29L15.26-45.58L14.98-45.58Q13.10-45.58 13.10-47.45L13.10-47.45L13.10-49.39Q13.10-51.26 14.98-51.26L14.98-51.26L35.14-51.26Q38.52-51.26 39.53-48.67L39.53-48.67Q42.12-47.66 42.12-44.28L42.12-44.28L42.12-36.86Q42.12-34.56 40.86-33.30Q39.60-32.04 37.30-32.04L37.30-32.04L24.77-32.04L24.77-30.96L52.56-30.96Q53.42-30.96 53.93-30.46Q54.43-29.95 54.43-29.09L54.43-29.09L54.43-28.80L54.72-28.80Q55.58-28.80 56.09-28.30Q56.59-27.79 56.59-26.93L56.59-26.93L56.59-21.17Q56.59-20.30 56.09-19.80Q55.58-19.30 54.72-19.30L54.72-19.30L52.78-19.30Q51.91-19.30 51.41-19.80Q50.90-20.30 50.90-21.17L50.90-21.17L50.90-21.46L50.62-21.46Q49.82-21.46 49.32-21.89Q48.82-22.32 48.74-23.11L48.74-23.11L33.55-23.11L33.55-13.68L41.69-13.68Q42.55-13.68 43.06-13.18Q43.56-12.67 43.56-11.81L43.56-11.81L43.56-11.52L43.85-11.52Q44.71-11.52 45.22-11.02Q45.72-10.51 45.72-9.65L45.72-9.65L45.72-7.63Q45.72-6.77 45.22-6.26Q44.71-5.76 43.85-5.76L43.85-5.76L24.77-5.76L24.77-4.90Q25.63-4.90 26.14-4.39Q26.64-3.89 26.64-3.02L26.64-3.02L26.64-2.74L26.93-2.74Q27.79-2.74 28.30-2.23Q28.80-1.73 28.80-0.86L28.80-0.86L28.80 1.15Q28.80 2.02 28.30 2.52Q27.79 3.02 26.93 3.02L26.93 3.02L17.35 3.02ZM15.19 0L24.77 0Q25.78 0 25.78-1.01L25.78-1.01L25.78-3.02Q25.78-4.03 24.77-4.03L24.77-4.03L21.74-4.03L21.74-8.78L41.69-8.78Q42.70-8.78 42.70-9.79L42.70-9.79L42.70-11.81Q42.70-12.82 41.69-12.82L41.69-12.82L30.53-12.82L30.53-26.14L49.61-26.14L49.61-23.33Q49.61-22.32 50.62-22.32L50.62-22.32L52.56-22.32Q53.57-22.32 53.57-23.33L53.57-23.33L53.57-29.09Q53.57-30.10 52.56-30.10L52.56-30.10L21.74-30.10L21.74-35.06L35.14-35.06Q39.10-35.06 39.10-39.02L39.10-39.02L39.10-46.44Q39.10-50.40 35.14-50.40L35.14-50.40L14.98-50.40Q13.97-50.40 13.97-49.39L13.97-49.39L13.97-47.45Q13.97-46.44 14.98-46.44L14.98-46.44L17.78-46.44L17.78-30.10L4.61-30.10Q3.60-30.10 3.60-29.09L3.60-29.09L3.60-23.33Q3.60-22.32 4.61-22.32L4.61-22.32L6.55-22.32Q7.56-22.32 7.56-23.33L7.56-23.33L7.56-26.14L17.78-26.14L17.78-12.82L15.48-12.82Q14.47-12.82 14.47-11.81L14.47-11.81L14.47-9.79Q14.47-8.78 15.48-8.78L15.48-8.78L17.78-8.78L17.78-4.03L15.19-4.03Q14.18-4.03 14.18-3.02L14.18-3.02L14.18-1.01Q14.18 0 15.19 0L15.19 0ZM35.14-39.02L21.74-39.02L21.74-46.44L35.14-46.44L35.14-39.02ZM24.77-43.42L24.77-39.89L34.27-39.89L34.27-43.42L24.77-43.42ZM26.57-12.82L21.74-12.82L21.74-26.14L26.57-26.14L26.57-12.82ZM24.77-23.11L24.77-13.68L25.70-13.68L25.70-23.11L24.77-23.11Z"/>
</svg>