<?xml version="1.0" encoding="UTF-8" standalone="no"?>
<!-- Created with Inkscape (http://www.inkscape.org/) -->

<svg
   width="187.67342"
   height="187.67342"
   viewBox="0 0 191.10892 191.10892"
   version="1.1"
   id="svg1"
   xml:space="preserve"
   xmlns="http://www.w3.org/2000/svg"
   xmlns:svg="http://www.w3.org/2000/svg"><defs
     id="defs1"><clipPath
       clipPathUnits="userSpaceOnUse"
       id="clipPath2"><circle
         style="fill:#231d1c;fill-opacity:1;stroke-width:0.287541"
         id="circle2"
         cx="93.768112"
         cy="144.03734"
         r="92.191444" /></clipPath></defs><circle
     style="fill:#48a9a6;fill-opacity:1;stroke-width:0.489414"
     id="path2"
     cx="95.554459"
     cy="95.554466"
     r="93.265739" /><path
     style="fill:#231d1c;fill-opacity:1"
     d="M -41.698552,144.03734 V 8.6368309 H 93.768112 229.23477 V 144.03734 279.43786 H 93.768112 -41.698552 Z m 141.628214,29.59863 0.929998,-8.03836 -2.156708,-4.77372 -2.15671,-4.77372 -0.34394,3.02249 c -0.18917,1.66237 -0.85596,8.5589 -1.48175,15.32562 -0.73239,7.91929 -1.20132,11.97316 -1.31604,11.37708 -0.098,-0.50932 -0.46774,-4.0812 -0.82158,-7.9375 -1.15695,-12.60892 -2.09011,-21.68373 -2.21672,-21.55712 -0.0683,0.0683 -1.05571,2.21911 -2.19418,4.77953 l -2.06995,4.65531 1.31721,11.15437 c 0.72446,6.1349 2.15337,18.59577 3.17535,27.69083 1.02198,9.09505 2.03957,18.1438 2.26132,20.10833 0.22175,1.96453 0.47718,3.98859 0.56763,4.49791 0.10233,0.57619 1.18672,-8.22029 2.87026,-23.28333 1.48819,-13.31515 3.12431,-27.82663 3.63581,-32.24772 z m -13.59003,36.41491 c -0.0111,-0.1819 -0.1632,-1.22019 -0.33804,-2.3073 -0.36799,-2.28799 0.21965,-1.95999 -5.462654,-3.04909 -11.84142,-2.26959 -23.02223,-8.49283 -32.14986,-17.89464 -8.72588,-8.98797 -13.96323,-18.82665 -16.2594,-30.54424 -0.31167,-1.59044 -0.61878,-3.14614 -0.68248,-3.45711 -0.12272,-0.59911 -0.45205,-0.70022 -3.39674,-1.04295 l -1.55619,-0.18112 0.18405,1.5562 c 0.59713,5.04899 2.40732,11.66674 4.61848,16.88435 6.92898,16.35011 21.62203,30.32498 38.58077,36.69497 3.11974,1.17183 8.76373,2.68708 11.71971,3.14641 1.0914,0.16959 2.162974,0.34334 2.381254,0.38611 1.11329,0.21812 2.3798,0.11535 2.3611,-0.19159 z m 18.713118,-0.20335 c 6.85661,-1.16804 12.87008,-3.16669 19.01015,-6.31828 18.47978,-9.48534 31.62407,-26.29366 35.43365,-45.31094 0.35993,-1.7968 0.7375,-4.02839 0.83903,-4.95909 l 0.1846,-1.69218 -1.69218,0.19107 c -3.0528,0.34469 -3.1184,0.37339 -3.28982,1.43923 -1.06919,6.64827 -2.78148,12.23221 -5.40585,17.62906 -2.99532,6.15969 -6.80564,11.457 -11.90121,16.54572 -7.48567,7.47559 -17.54296,13.44897 -27.37272,16.25761 -2.6481,0.75664 -7.19437,1.72269 -8.13602,1.72885 -1.029,0.007 -1.28426,0.35667 -1.55565,2.13273 -0.14285,0.93482 -0.32043,1.96756 -0.39463,2.29499 -0.1722,0.75989 0.15214,0.76453 4.28065,0.0612 z M 57.387898,180.20797 c 0.58209,-0.39316 5.58271,-3.48236 11.1125,-6.86489 5.5298,-3.38253 11.00686,-6.76911 12.17125,-7.52573 l 2.11708,-1.37568 1.296724,-3.28992 c 0.7132,-1.80946 1.68883,-4.0936 2.16806,-5.07587 0.47923,-0.98226 0.81632,-1.78594 0.7491,-1.78594 -0.0672,0 -1.69789,1.28876 -3.62368,2.86391 -7.241584,5.92304 -14.481654,11.58573 -14.481654,11.32656 0,-0.27213 6.10522,-7.76792 9.68996,-11.89702 1.8738,-2.15835 3.75191,-4.33875 4.17357,-4.84535 l 0.766674,-0.92107 -0.898964,0.38637 c -0.49442,0.2125 -2.849,1.14097 -5.23239,2.06325 -3.45851,1.33831 -4.45552,1.83793 -4.93812,2.47459 -0.33257,0.43875 -2.73763,4.07194 -5.34458,8.07376 -2.60695,4.00183 -6.24893,9.57522 -8.0933,12.38532 -1.84438,2.8101 -3.20427,5.02226 -3.02198,4.91591 0.18228,-0.10635 0.80767,-0.51504 1.38975,-0.9082 z m 71.500352,-2.78624 c -1.34481,-2.0267 -5.1595,-7.81269 -8.47709,-12.85776 -3.3176,-5.04506 -6.215,-9.32473 -6.43869,-9.51037 -0.22368,-0.18564 -2.45015,-1.13028 -4.94772,-2.09919 -2.49756,-0.96891 -4.77081,-1.85966 -5.05167,-1.97944 -0.4671,-0.19921 -0.47838,-0.17348 -0.13229,0.30157 0.2081,0.28564 2.46778,2.95575 5.02153,5.93356 5.25224,6.12445 7.85898,9.28574 8.60442,10.43491 0.41574,0.6409 0.0924,0.47066 -1.73822,-0.91518 -3.2216,-2.43886 -8.03213,-6.2569 -12.23697,-9.71227 -2.00091,-1.64427 -3.635688,-2.96041 -3.632848,-2.92475 0.003,0.0357 0.996358,2.38656 2.207798,5.22422 l 2.20264,5.15937 12.44206,7.67292 c 6.84313,4.2201 12.90407,7.98603 13.46875,8.36873 0.56469,0.38269 1.05521,0.67168 1.09005,0.6422 0.0349,-0.0295 -1.03694,-1.71182 -2.38175,-3.73852 z M 76.173318,149.75335 c 2.61938,-1.04074 4.87561,-1.99358 5.01385,-2.11741 0.14282,-0.12794 -0.23395,-0.22516 -0.87254,-0.22516 -0.61815,0 -2.69579,-0.17582 -4.61698,-0.39071 -1.92119,-0.21489 -8.01486,-0.87705 -13.54148,-1.47148 -8.87899,-0.95501 -11.53638,-1.31281 -9.75018,-1.31281 0.50112,0 24.49627,-2.43162 27.60379,-2.79731 l 1.45521,-0.17125 -1.32292,-0.51271 c -0.7276,-0.28199 -3.07806,-1.23564 -5.22322,-2.11921 l -3.90031,-1.6065 -4.83094,0.55371 c -4.72498,0.54157 -10.53931,1.21002 -31.15699,3.58204 -24.61047,2.83137 -27.42066,3.19446 -26.32297,3.40109 0.5804,0.10925 8.91339,1.08874 18.51777,2.17665 9.60437,1.0879 22.46312,2.56975 28.57499,3.29298 13.90325,1.64522 12.72988,1.51651 14.2875,1.56725 1.0803,0.0352 2.19634,-0.30394 6.08542,-1.84917 z m 50.977822,0.71045 c 5.57751,-0.64918 13.23655,-1.54213 17.02009,-1.98434 3.78354,-0.44221 13.17371,-1.51256 20.86704,-2.37857 7.69334,-0.866 14.03658,-1.62324 14.09609,-1.68276 0.0595,-0.0595 -1.17487,-0.24928 -2.74308,-0.42169 -2.70299,-0.29716 -18.57626,-2.1397 -35.39505,-4.10859 -4.2201,-0.49403 -11.54567,-1.34734 -16.27904,-1.89625 l -8.60612,-0.99802 -3.82929,1.60224 c -2.10611,0.88123 -4.3975,1.81354 -5.09197,2.0718 -0.69446,0.25826 -1.22425,0.50797 -1.17731,0.55491 0.047,0.047 4.12749,0.49834 9.06788,1.0031 14.22936,1.45381 20.21943,2.10623 20.13285,2.19281 -0.0442,0.0442 -1.91626,0.26216 -4.16014,0.48437 -2.24387,0.22221 -8.40033,0.87741 -13.681,1.45599 -5.28068,0.57859 -10.03326,1.05198 -10.56129,1.05198 -0.52803,0 -0.87596,0.0841 -0.77317,0.18688 0.41289,0.41289 9.60712,4.02889 10.2656,4.03736 0.38884,0.005 5.27041,-0.52205 10.84791,-1.17122 z m -47.866652,-17.516 c -5.54698,-6.57108 -10.18548,-12.28528 -10.06796,-12.40279 0.14371,-0.14372 8.8497,6.67832 13.14088,10.29723 5.243494,4.42203 4.949324,4.27297 3.912114,1.98225 -0.48566,-1.07259 -1.44987,-3.41364 -2.14269,-5.20233 l -1.259694,-3.25215 -2.28858,-1.52808 c -1.25871,-0.84045 -4.66982,-3.00308 -7.58024,-4.80584 -2.91042,-1.80276 -8.0119,-4.97646 -11.33664,-7.05265 -4.47933,-2.7972 -5.92244,-3.58832 -5.57187,-3.05451 0.26021,0.39622 2.90751,4.47086 5.8829,9.05477 8.54428,13.16337 10.77033,16.51553 11.17606,16.82976 0.2083,0.16132 2.40278,1.08499 4.87663,2.0526 2.47386,0.96761 4.67307,1.87095 4.88713,2.00741 0.214074,0.13647 0.431944,0.20539 0.484164,0.15317 0.0522,-0.0522 -1.798274,-2.3377 -4.112204,-5.07884 z m 31.553832,2.18143 3.17958,-1.22593 2.5895,-4.02803 c 3.77449,-5.87131 13.0737,-19.996 13.96216,-21.2073 0.41942,-0.57183 0.71426,-1.088 0.6552,-1.14706 -0.0591,-0.0591 -0.98026,0.47769 -2.04712,1.19277 -1.06686,0.71508 -6.94037,4.41767 -13.05224,8.22797 -6.11187,3.81031 -11.31413,7.08338 -11.56057,7.27349 -0.24644,0.19011 -1.24175,2.30198 -2.2118,4.69304 -0.97005,2.39107 -1.94243,4.69432 -2.16083,5.11834 l -0.397088,0.77095 0.657138,-0.50637 c 0.36143,-0.2785 2.54746,-2.06089 4.85785,-3.96087 4.0755,-3.35154 11.73086,-9.32075 12.53509,-9.77416 0.33152,-0.1869 0.32805,-0.14001 -0.021,0.28475 -0.22985,0.27968 -1.4762,1.81819 -2.76968,3.41892 -1.29347,1.60073 -4.32656,5.23213 -6.7402,8.06979 -2.41363,2.83766 -4.46979,5.29445 -4.56923,5.45954 -0.0994,0.1651 0.74046,-0.09 1.86644,-0.56687 1.12599,-0.47688 3.47807,-1.41872 5.22684,-2.09297 z m -79.437392,1.41111 c 0.0404,-0.0604 0.40118,-1.76318 0.80163,-3.78401 2.24324,-11.32029 8.00868,-22.32277 16.10585,-30.73561 10.04325,-10.434782 21.96198,-16.589027 36.354384,-18.771602 l 1.08114,-0.163952 0.30967,-2.034587 c 0.47671,-3.132055 0.51397,-3.021489 -0.95059,-2.821053 -20.835514,2.851493 -38.972654,14.822749 -49.586744,32.729264 -4.13689,6.97916 -6.68723,13.72615 -8.28407,21.91575 -0.94198,4.83103 -1.11367,4.42303 1.71347,4.07162 1.30995,-0.16283 2.41482,-0.34545 2.45526,-0.40582 z m 128.872442,-1.75702 c -1.17723,-7.52714 -4.05427,-15.95164 -7.56963,-22.16525 -7.02444,-12.41613 -17.06637,-21.904184 -29.69185,-28.054145 -4.99202,-2.431643 -8.41548,-3.677533 -13.36878,-4.865248 -3.04514,-0.730173 -8.72909,-1.699083 -8.90943,-1.518741 -0.0803,0.08032 0.69952,4.752882 0.81202,4.865382 0.0354,0.0354 1.42532,0.298396 3.0887,0.584423 6.25081,1.074861 11.00692,2.618148 16.78267,5.445725 11.96318,5.856702 22.10946,16.022894 28.24965,28.305104 2.73807,5.47697 4.02109,9.2393 5.4407,15.95439 l 0.71036,3.36019 2.24652,0.27848 c 1.23558,0.15316 2.31978,0.24534 2.40933,0.20484 0.0896,-0.0405 -5.6e-4,-1.11832 -0.20026,-2.39515 z m -69.045808,-8.93608 c 0.36105,-3.63802 0.96707,-10.0674 1.3467,-14.2875 0.37964,-4.22011 0.76263,-7.97057 0.85108,-8.33438 0.0884,-0.3638 0.66285,4.63683 1.27643,11.1125 0.61358,6.47568 1.26829,13.31722 1.4549,15.20343 l 0.33929,3.42947 0.61836,-1.3128 c 2.30986,-4.90397 3.811848,-8.71913 3.682408,-9.35366 -0.16806,-0.8239 -1.994888,-16.88027 -4.910118,-43.156016 -1.17053,-10.55026 -2.16811,-19.301353 -2.21686,-19.446874 -0.11629,-0.347117 -0.16509,0.04432 -2.02854,16.271874 -0.87731,7.639844 -2.06306,17.879218 -2.63502,22.754168 -0.57196,4.874948 -1.40012,11.959158 -1.84036,15.742708 -0.44024,3.78354 -0.85518,7.27498 -0.9221,7.75875 -0.0951,0.68742 0.35093,1.94867 2.04154,5.7732 1.18976,2.69149 2.1908,4.79599 2.22452,4.67666 0.0337,-0.11932 0.35672,-3.19351 0.71777,-6.83153 z"
     id="path1"
     clip-path="url(#clipPath2)"
     transform="matrix(1.0364786,0,0,1.0364786,-1.6341824,-53.737159)" /></svg>
