<svg xmlns="http://www.w3.org/2000/svg" width="70" height="70" fill="none" viewBox="0 0 70 70"><defs><linearGradient id="pycharm_svg__a" x1="24.999" x2="66.656" y1="27.046" y2="27.046" gradientUnits="userSpaceOnUse"><stop offset="0" stop-color="#21D789"/><stop offset="1" stop-color="#07C3F2"/></linearGradient><linearGradient id="pycharm_svg__b" x1="-24.559" x2="61.22" y1="59.081" y2="-4.241" gradientUnits="userSpaceOnUse"><stop offset=".011" stop-color="#FCF84A"/><stop offset=".112" stop-color="#A7EB62"/><stop offset=".206" stop-color="#5FE077"/><stop offset=".273" stop-color="#32DA84"/><stop offset=".306" stop-color="#21D789"/><stop offset=".577" stop-color="#21D789"/><stop offset=".597" stop-color="#21D789"/><stop offset=".686" stop-color="#20D68C"/><stop offset=".763" stop-color="#1ED497"/><stop offset=".835" stop-color="#19D1A9"/><stop offset=".904" stop-color="#13CCC2"/><stop offset=".971" stop-color="#0BC6E1"/><stop offset="1" stop-color="#07C3F2"/></linearGradient><linearGradient id="pycharm_svg__c" x1="9.33" x2="23.637" y1="77.654" y2="32.76" gradientUnits="userSpaceOnUse"><stop offset="0" stop-color="#21D789"/><stop offset=".16" stop-color="#24D888"/><stop offset=".298" stop-color="#2FD985"/><stop offset=".427" stop-color="#41DC80"/><stop offset=".552" stop-color="#5AE079"/><stop offset=".673" stop-color="#7AE46F"/><stop offset=".791" stop-color="#A1EA64"/><stop offset=".904" stop-color="#CFF157"/><stop offset="1" stop-color="#FCF84A"/></linearGradient><linearGradient id="pycharm_svg__d" x1="28.275" x2="59.409" y1="38.623" y2="-3.236" gradientUnits="userSpaceOnUse"><stop offset="0" stop-color="#21D789"/><stop offset=".093" stop-color="#23D986"/><stop offset=".172" stop-color="#2ADE7B"/><stop offset=".247" stop-color="#36E669"/><stop offset=".271" stop-color="#3BEA62"/><stop offset=".35" stop-color="#47EB61"/><stop offset=".494" stop-color="#67ED5D"/><stop offset=".686" stop-color="#9AF156"/><stop offset=".915" stop-color="#E0F64D"/><stop offset="1" stop-color="#FCF84A"/></linearGradient><linearGradient id="pycharm_svg__e" x1="75.889" x2="13.158" y1="43.95" y2="43.369" gradientUnits="userSpaceOnUse"><stop offset=".387" stop-color="#FCF84A"/><stop offset=".463" stop-color="#ECF74C"/><stop offset=".611" stop-color="#C1F451"/><stop offset=".815" stop-color="#7EEF5A"/><stop offset="1" stop-color="#3BEA62"/></linearGradient></defs><path fill="url(#pycharm_svg__a)" d="M49 10.967 69.533 28l-7.466 14.934-12.134-3.267H39.2l9.8-28.7Z"/><path fill="url(#pycharm_svg__b)" d="M28.467 22.167 24.5 42.933l-.467 7.234-9.8 4.433L0 56l4.2-45.267L29.867 0l15.866 10.267-17.266 11.9Z"/><path fill="url(#pycharm_svg__c)" d="m28.467 22.167 1.866 40.366-6.3 7.467L0 56l19.6-29.4 8.867-4.433Z"/><path fill="url(#pycharm_svg__d)" d="M54.833 19.133H30.567L52.033 0l2.8 19.133Z"/><path fill="url(#pycharm_svg__e)" d="m70 62.533-21.467 7.234L20.3 61.833l8.167-39.666 3.266-3.034L49 17.5 47.6 35l13.767-5.367L70 62.533Z"/><path fill="#000" d="M56 14H14v42h42V14Z"/><path fill="#FFF" d="M19.133 19.133h6.417c3.733 0 6.067 2.217 6.067 5.484 0 3.616-2.8 5.483-6.417 5.483h-2.683v4.667h-3.5V19.133h.116Zm6.184 8.05c1.75 0 2.683-1.166 2.683-2.45 0-1.516-1.05-2.333-2.8-2.333h-2.683v4.783h2.8ZM33.6 27.067c0-4.434 3.267-8.167 8.167-8.167 3.033 0 4.666.933 6.3 2.333l-2.1 2.567C44.8 22.633 43.633 21.933 42 21.933c-2.567 0-4.667 2.1-4.667 4.9 0 2.8 1.867 4.9 4.667 4.9 1.867 0 2.8-.7 4.2-1.866l2.1 2.333c-1.867 1.867-3.733 2.8-6.767 2.8-4.666 0-7.933-3.5-7.933-7.933ZM34.417 48.65h-15.75v2.683h15.75V48.65Z"/></svg>