<svg viewBox="0 0 24 24" class="cj-76 cj-7b cj-5x cj-5y cj-80 cj-81"><path fill="currentcolor" d="m 16.975 22.922 l 0.23 -0.103 l -0.188 -0.169 a 3.764 3.764 0 0 1 -1.036 -1.505 l -0.061 -0.159 l -0.155 0.066 a 9.745 9.745 0 0 1 -3.759 0.75 c -5.405 0 -9.806 -4.397 -9.806 -9.806 c 0 -5.409 4.397 -9.802 9.802 -9.802 c 5.405 0 9.806 4.402 9.806 9.806 a 9.692 9.692 0 0 1 -0.947 4.2 l -0.075 0.155 l 0.155 0.066 a 3.767 3.767 0 0 1 1.453 1.106 l 0.159 0.197 l 0.117 -0.225 a 11.905 11.905 0 0 0 1.331 -5.498 c 0 -6.619 -5.381 -12 -12 -12 s -12 5.381 -12 12 s 5.381 12 12 12 c 1.73 0 3.403 -0.361 4.973 -1.078 z m 2.504 -0.577 c -3.325 0 -3.325 -4.988 0 -4.988 s 3.325 4.988 0 4.988 z m -1.465 -13.691 a 1.01 1.01 0 0 1 1.108 0.83 a 0.89 0.89 0 0 1 -0.786 1.065 s -2.911 0.415 -5.27 2.773 c -2.358 2.358 -2.773 5.27 -2.773 5.27 a 0.89 0.89 0 0 1 -1.065 0.785 a 1.011 1.011 0 0 1 -0.83 -1.108 c 0 -0.186 0.46 -3.513 3.28 -6.333 c 2.82 -2.82 6.152 -3.28 6.336 -3.282 z m 1.572 5.177 c 0 0.555 -0.555 1.016 -1.11 1.016 c 0 0 -1.432 0.046 -2.634 1.248 c -1.203 1.203 -1.203 2.59 -1.248 2.635 c -0.001 0.555 -0.464 1.018 -1.016 1.11 a 0.903 0.903 0 0 1 -1.02 -0.924 c 0 -0.095 0.048 -2.359 1.897 -4.207 c 1.849 -1.85 4.113 -1.896 4.207 -1.896 c 0.555 0.001 0.924 0.462 0.924 1.018 z"></path></svg>