<svg xmlns="http://www.w3.org/2000/svg" width="80" height="32"><g fill="none" fill-rule="evenodd"><path d="M15.953 0c8.811 0 15.954 7.143 15.954 15.953 0 8.811-7.143 15.954-15.954 15.954C7.143 31.907 0 24.764 0 15.953 0 7.143 7.142 0 15.953 0m0 7.977a7.977 7.977 0 0 0-.132 15.952h.132c2.686 0 .812-3.417 2.686-5.29 1.854-1.854 5.22-.039 5.29-2.603l.001-.083a7.977 7.977 0 0 0-7.977-7.976" fill="#0D53FF"/><path d="M46.74 7.786h1.219c.797 1.426 1.639 2.555 2.524 3.388h-6.798c1.151-.925 2.17-2.055 3.056-3.388m9.983 3.267c-2.117-.394-4.018-1.932-4.889-3.267h4.535a.226.226 0 0 0 .226-.226V4.958a.226.226 0 0 0-.226-.226h-7.968c.044-.093.103-.24.177-.445a31 31 0 0 0 .313-.774c.003-.008.01-.014.013-.022l.08-.192c.092-.232.08-.333-.164-.333h-3.385a.271.271 0 0 0-.243.15l-.13.26c-.23.487-.469.94-.714 1.356h-6.351a.226.226 0 0 0-.226.226V7.56c0 .125.1.226.226.226h4.332c-1.015 1.348-2.653 2.413-4.873 3.292a.272.272 0 0 0-.173.252v2.806c0 .156.153.269.302.222a20.523 20.523 0 0 0 3.95-1.684v1.183c0 .127.103.23.23.23H52.78a.23.23 0 0 0 .23-.23v-.933c1.077.537 2.297.96 3.66 1.27a.232.232 0 0 0 .281-.225v-2.65a.272.272 0 0 0-.226-.266m8.351 5.857h9.698v-3.385h-9.698v3.385Zm14.698 8.01h-4.676v-4.999h2.977a.226.226 0 0 0 .226-.226V10.74a.226.226 0 0 0-.226-.226h-6.282V8.188h7.693a.226.226 0 0 0 .226-.226v-2.67a.226.226 0 0 0-.226-.227h-7.693V3.347a.226.226 0 0 0-.226-.226h-3.2a.226.226 0 0 0-.226.226v1.718h-7.627a.226.226 0 0 0-.226.226v2.671c0 .125.1.226.226.226h7.627v2.326h-6.365a.226.226 0 0 0-.226.226v8.955c0 .125.101.226.226.226h3.294c0 2.838-2.322 4.612-4.784 5.126a.272.272 0 0 0-.22.265v3.062c0 .14.126.251.265.231 4.985-.71 8.07-4.066 8.327-8.684h2.854v7.873c0 .176.143.32.319.32h7.943a.226.226 0 0 0 .226-.227v-2.741a.226.226 0 0 0-.226-.226Zm-23.161-9.145H37.555a.226.226 0 0 0-.227.226v2.602c0 .125.102.226.227.226h3.37l-1.405 4.826a.226.226 0 0 0 .217.29H51.2l-1.216 4.157a.226.226 0 0 0 .217.29h3.129c.12 0 .226-.08.26-.194l2.09-7.084a.226.226 0 0 0-.216-.29H43.889l.576-1.995h12.148a.226.226 0 0 0 .226-.226v-2.602a.226.226 0 0 0-.226-.226" fill="#151515"/></g></svg>