<?xml version="1.0" encoding="utf-8"?>
<svg version="1.1" id="svg" xmlns="http://www.w3.org/2000/svg" xmlns:xlink="http://www.w3.org/1999/xlink" x="0px" y="0px" viewBox="694 197 2000 400">
<g id="logo" transform="matrix(0.55753644,0,0,0.55753644,68.308135,1050.1262)">
	<path style="fill:#32322A" d="M1408.1-1181.7c-7.5,1-12.7,7.8-11.7,15.3
		c0.7,5.4,4.6,9.9,9.9,11.3c0,0,33.2,11,89.7,15.6c45.4,3.7,96.9-3.2,96.9-3.2c7.5-0.2,13.5-6.5,13.2-14s-6.5-13.5-14-13.2
		c-0.9,0-1.8,0.1-2.6,0.3c0,0-50.4,6.2-91.3,2.9c-54-4.4-83.4-14.3-83.4-14.3C1412.6-1181.7,1410.3-1182,1408.1-1181.7z
		 M1408.1-1249.3c-7.5,1-12.7,7.8-11.7,15.3c0.7,5.4,4.6,9.9,9.9,11.3c0,0,33.2,11,89.7,15.6c45.4,3.7,96.9-3.2,96.9-3.2
		c7.5-0.2,13.5-6.5,13.2-14s-6.5-13.5-14-13.2c-0.9,0-1.8,0.1-2.6,0.3c0,0-50.4,6.2-91.3,2.9c-54-4.4-83.4-14.3-83.4-14.3
		C1412.6-1249.3,1410.3-1249.6,1408.1-1249.3z M1408.1-1316.9c-7.5,1-12.7,7.8-11.7,15.3c0.7,5.4,4.6,9.9,9.9,11.3
		c0,0,33.2,11,89.7,15.6c45.4,3.7,96.9-3.2,96.9-3.2c7.5-0.2,13.5-6.5,13.2-14s-6.5-13.5-14-13.2c-0.9,0-1.8,0.1-2.6,0.3
		c0,0-50.4,6.2-91.3,2.9c-54-4.4-83.4-14.3-83.4-14.3C1412.6-1316.9,1410.3-1317.2,1408.1-1316.9z M1408.1-1384.4
		c-7.5,1-12.7,7.8-11.7,15.3c0.7,5.4,4.6,9.9,9.9,11.3c0,0,33.2,11,89.7,15.6c45.4,3.7,96.9-3.2,96.9-3.2c7.5-0.2,13.5-6.5,13.2-14
		s-6.5-13.5-14-13.2c-0.9,0-1.8,0.1-2.6,0.3c0,0-50.4,6.2-91.3,2.9c-54-4.4-83.4-14.3-83.4-14.3
		C1412.6-1384.5,1410.3-1384.7,1408.1-1384.4z M1313.4-1455.7c-71,0.5-97.5,22.3-97.5,22.3v530.3c0,0,25.8-22.3,109-18.9
		c83.2,3.4,100.3,32.6,202.5,34.6c102.2,2.1,127.9-15.7,127.9-15.7l1.5-540.6c0,0-46,13-135.5,13.7s-111-22.8-193.2-25.5
		C1323-1455.6,1318.1-1455.7,1313.4-1455.7z M1372.8-1421.1c0,0,43,14.2,122.5,18.2c67.2,3.3,134.5-6.6,134.5-6.6v480.5
		c0,0-34.1,17.9-119.3,11.8c-66-4.7-138.7-29.7-138.7-29.7L1372.8-1421.1z M1331.3-1408.6c7.6,0,13.7,6.2,13.7,13.7
		s-6.2,13.7-13.7,13.7c0,0-22.3,0.1-35.8,1.5c-22.8,2.3-38.3,10.6-38.3,10.6c-6.7,3.5-15,1-18.5-5.7s-1-15,5.7-18.5c0,0,0,0,0,0
		c0,0,20.2-10.7,48.4-13.5C1309.1-1408.5,1331.3-1408.6,1331.3-1408.6z M1318.1-1340.8c7.6-0.2,13.3,0,13.3,0
		c7.5,0.9,12.9,7.8,12,15.3c-0.8,6.3-5.7,11.2-12,12c0,0-22.3,0.1-35.8,1.5c-22.8,2.3-38.3,10.6-38.3,10.6c-6.7,3.5-15,0.9-18.5-5.8
		c-3.5-6.7-0.9-15,5.8-18.5c0,0,20.2-10.7,48.4-13.5C1300.9-1340.1,1310.5-1340.6,1318.1-1340.8z M1331.3-1273.3
		c7.6,0,13.7,6.2,13.7,13.7c0,7.6-6.2,13.7-13.7,13.7c0,0-22.3-0.1-35.8,1.2c-22.8,2.3-38.3,10.6-38.3,10.6
		c-6.7,3.5-15,0.9-18.5-5.8c-3.5-6.7-0.9-15,5.8-18.5c0,0,20.2-10.7,48.4-13.5C1309.1-1273.4,1331.3-1273.3,1331.3-1273.3z"/>
</g>
<g id="text">
	<path style="fill:#32322A" d="M1128.6,491.9V470l8.9-0.8c5.2-0.5,7.8-3.1,7.8-7.6V336l-15.4-0.8v-23h73.8
		c20.9,0,36.9,3.9,48.1,11.6c11.2,7.7,16.8,20.5,16.8,38.1c0,12.3-3.2,22.3-9.7,30.3c-6.3,7.9-13.9,13.7-22.7,17.3
		c6.5,2.3,11.6,7.8,15.4,16.5l19.5,42.4l15.4,0.5v23h-66.8V470l7.8-0.8c4.1-0.5,6.2-2.2,6.2-4.9c0-1.1-0.4-2.3-1.1-3.8l-12.7-27
		c-2-4.5-4.2-7.7-6.8-9.5c-2.3-2-5.8-3-10.3-3h-24.6v47l17.6,0.8v23L1128.6,491.9 M1178.3,395.4h23.5c22.2,0,33.2-9.9,33.2-29.7
		c0-11.4-3-18.7-8.9-22.2c-5.8-3.4-15.1-5.1-28.1-5.1h-19.7V395.4"/>
	<path style="fill:#32322A" d="M1356,351.9c13.5,0,24.2,3.3,32.2,10c7.9,6.5,11.9,15.7,11.9,27.6c0,7.9-1.7,15-5.1,21.1
		c-3.4,5.9-7.7,10.6-12.7,14.1c-5,3.4-11.2,6.2-18.4,8.4c-12.1,3.6-25.7,5.4-40.8,5.4c0.5,9.5,3.5,17.3,8.9,23.2
		c5.4,5.8,13.7,8.6,24.9,8.6c11.2,0,22.3-4,33.5-11.9l10.3,21.9c-3.6,3.2-9.7,6.6-18.4,10c-8.5,3.4-18.2,5.1-29.2,5.1
		c-22,0-38.1-6-48.4-18.1c-10.3-12.3-15.4-29-15.4-50.3c0-21.3,5.9-39.1,17.6-53.5C1318.5,359.1,1334.9,351.9,1356,351.9
		 M1343.6,413.8c6.7-1.3,12.8-3.9,18.4-7.8c5.6-4.1,8.4-9,8.4-14.6c0-11-5.4-16.5-16.2-16.5c-10.1,0-17.8,4.1-23.2,12.2
		c-5.4,7.9-8.4,17.5-8.9,28.6C1329.9,415.5,1337.1,414.9,1343.6,413.8"/>
	<path style="fill:#32322A" d="M1529.6,361.4v100.5c0,2.9,0.5,4.9,1.4,5.9c1.1,1.1,2.9,1.7,5.4,1.9l8.6,0.5v21.6h-43v-15.7
		l-0.8-0.3c-9,13-21.4,19.5-37,19.5c-18.4,0-32-5.9-40.8-17.6c-8.8-11.7-13.2-27.7-13.2-48.1c0-24.5,5.9-43.6,17.8-57.3
		c11.9-13.7,29.7-20.5,53.5-20.5C1496.8,351.9,1512.9,355.1,1529.6,361.4 M1498.3,448.9v-70c-5-2.3-12-3.5-20.8-3.5
		c-12.1,0-20.8,4.9-26.2,14.6c-5.4,9.7-8.1,22.6-8.1,38.7c0,29.2,9.4,43.8,28.1,43.8c7.9,0,14.4-2.3,19.5-7
		C1495.7,460.6,1498.3,455.1,1498.3,448.9"/>
	<path style="fill:#32322A" d="M1616.3,351.9c7.7,0,15.1,1.1,22.2,3.2v-27.3c0-4-2.3-6.1-7-6.5l-11.6-0.8v-21.4h50.3v164.3
		c0.2,4.1,2.4,6.2,6.8,6.2l9.5,0.5v21.6h-43.8V476l-0.8-0.3c-8.1,13.2-20.4,19.7-36.8,19.7c-20.5,0-35-6.8-43.2-20.5
		c-7.6-12.4-11.4-27.7-11.4-45.7c0-23.4,5.8-42.2,17.3-56.2C1579.3,358.9,1595.5,351.9,1616.3,351.9 M1638.4,449.8v-70
		c-6.5-2.9-13.3-4.3-20.5-4.3c-11.9,0-20.6,4.8-26.2,14.3c-5.4,9.6-8.1,21.7-8.1,36.5c0,30.3,9.7,45.4,29.2,45.4
		c7.4,0,13.5-2.1,18.4-6.2C1636,461.1,1638.4,455.9,1638.4,449.8"/>
	<path style="fill:#32322A" d="M1791.7,470.6c0,0-12.5,4.7-19.2,4.7s-9.2-3.3-9.2-11.8c0-3.8,0.5-8.8,1.4-14.9l10.2-63.1h32.6
		l2.8-17.7h-32.6l5.7-34.5L1760,338l-4.7,29.8l-23.6,2.4l-2.6,15.4h23.4L1742,451c-0.9,5.4-1.4,10.6-1.4,15.1
		c0,18.7,7.8,28.1,23.9,28.1c13.2,0,31-10.9,31-10.9L1791.7,470.6"/>
	<path style="fill:#32322A" d="M1865,309.8l-43.3,1.2l-2.1,13l19.9,4.7l-26,163.2h22.5l7.8-42.6c0,0,18.7-65,49.4-65
		c9.5,0,12.3,6.9,12.3,15.6c0,3.3-0.5,6.9-0.9,10.4l-13.5,81.6l43.3-2.4l2.1-13l-19.9-3.5l10.6-66.2c0.7-5,1.2-9.7,1.2-14
		c0-17-6.9-28.6-25.8-28.6c-35.9,0-54.9,45.6-55.8,48.2L1865,309.8"/>
	<path style="fill:#32322A" d="M2035,464.7c0,0-21.5,10.6-38.8,10.6c-17.7,0-26-7.8-26-24.6c0-3.1,0.2-6.6,0.7-10.2
		c49,0,83-18.4,83-45.6c0-18.7-15.1-30.7-39-30.7c-37.6,0-68.3,38.5-68.3,87.5c0,26,16.6,42.6,42.6,42.6c27.9,0,53-17.5,53-17.5
		L2035,464.7 M1973,424c6.1-24.8,23.4-42.1,40.7-42.1c12.1,0,17.7,5,17.7,15.4C2031.5,412.9,2006.6,424,1973,424"/>
	<path style="fill:#32322A" d="M2093.7,491.9V470l8.9-0.8c5.2-0.5,7.8-3.1,7.8-7.6V336l-15.4-0.8v-23h74.1
		c26.5,0,47.1,7,61.9,21.1c15,14.1,22.4,34.9,22.4,62.4c0,17.1-2.3,32.1-6.8,44.9c-4.5,12.6-10.6,22.5-18.4,29.7
		c-15.5,14.4-34.8,21.6-57.8,21.6L2093.7,491.9 M2143.4,338.4V466h27.6c15.5,0,27.6-5.6,36.2-16.8c8.6-11.2,13-27.4,13-48.7
		c0-41.4-17.6-62.2-52.7-62.2H2143.4"/>
	<path style="fill:#32322A" d="M2330,472.2c19.6,0,29.5-15.9,29.5-47.6c0-16-2.3-28.2-6.8-36.5c-4.3-8.3-11.7-12.4-22.2-12.4
		c-10.3,0-17.8,4-22.7,11.9c-4.9,7.9-7.3,18.7-7.3,32.4c0,25.4,4.7,41.4,14.1,47.8C2318.8,470.7,2323.9,472.2,2330,472.2
		 M2267.9,423.8c0-13.3,2-24.9,5.9-34.6c4-9.9,9.3-17.5,15.9-22.7c12.8-9.7,26.9-14.6,42.4-14.6c10.8,0,19.9,1.8,27.3,5.4
		c7.6,3.4,13.4,7.5,17.6,12.2c4.3,4.5,7.9,11.2,10.8,20c3.1,8.6,4.6,18.9,4.6,30.8c0,24.9-6,43.7-18.1,56.5
		c-12.1,12.8-27.6,19.2-46.5,19.2c-18.7,0-33.4-6-44.1-18.1C2273.2,465.6,2267.9,447.6,2267.9,423.8"/>
	<path style="fill:#32322A" d="M2438.2,422.5c0,15.3,2.9,27.2,8.6,35.7c5.8,8.5,14.1,12.7,24.9,12.7c11,0,21.8-3.9,32.4-11.6
		l11.6,20.8c-12.8,10.5-28.8,15.7-48.1,15.7c-19.3,0-34.5-6-45.7-18.1c-11-12.3-16.5-30.3-16.5-54.1s6.3-41.6,18.9-53.5
		c12.8-12.1,27.1-18.1,43-18.1c16,0,30.9,3.7,44.6,11.1v35.1l-24.9,1.9v-13c0-4.9-1.8-7.8-5.4-8.9c-3.4-1.3-7-1.9-10.8-1.9
		C2449.1,376.2,2438.2,391.6,2438.2,422.5"/>
	<path style="fill:#32322A" d="M2592.9,376.5c-4.3-1.6-9.6-2.4-15.7-2.4c-6.1,0-11.1,1.4-14.9,4.3c-3.6,2.7-5.4,6.1-5.4,10.3
		c0,4,0.6,7.1,1.9,9.5c1.4,2.2,3.6,4.1,6.5,5.7c4.5,2.3,9.9,4.4,16.2,6.2c6.3,1.6,11,3,14.1,4.1c3.1,0.9,6.8,2.5,11.4,4.9
		c4.7,2.3,8.2,4.9,10.5,7.6c6.3,6.7,9.5,15.2,9.5,25.7c0,13.5-5,24.1-14.9,31.9c-9.7,7.6-22.2,11.4-37.3,11.4
		c-22,0-38.6-2.8-49.7-8.4v-37.6l24.3-1.9v13c0,7.9,7.6,11.9,22.7,11.9s22.7-5.5,22.7-16.5c0-4-1.4-7.2-4.1-9.7
		c-2.5-2.5-5-4.2-7.6-5.1c-2.5-0.9-5.6-1.8-9.2-2.7c-3.4-0.9-6.8-1.8-10.3-2.7c-3.2-0.9-6.8-2.1-10.8-3.5c-3.8-1.6-8-3.9-12.7-6.8
		c-9.2-5.9-13.8-15.9-13.8-29.7c0-14.1,5-24.9,14.9-32.4c9.9-7.6,22.3-11.4,37.3-11.4c15.1,0,30.1,3.6,44.9,10.8v32.4l-24.3,1.9
		v-11.4C2599.1,381.2,2597,378.1,2592.9,376.5"/>
</g>
</svg>
