<svg height="635" viewBox="1 1 169.84099999999998 41.964" width="2500" xmlns="http://www.w3.org/2000/svg"><path d="M64.204 42.601c-3.594-.416-6.499-1.744-8.833-4.037-2.886-2.834-4.418-6.655-4.418-11.021 0-8.776 6.318-15.21 14.92-15.196 2.268.004 4.53.533 6.527 1.529.952.475 2.17 1.286 2.814 1.874.244.223.467.405.495.405s.052-.743.052-1.65v-1.652h3.725v29.38h-3.725v-3.401l-.34.282c-2.498 2.07-4.772 3.078-7.786 3.453-.66.082-2.833.104-3.431.034zm3.435-3.889c4.503-.756 7.625-3.937 8.515-8.677.207-1.099.212-3.864.01-4.947-.236-1.263-.552-2.232-1.077-3.302-1.55-3.158-4.281-5.072-7.92-5.552-1.26-.167-3.1-.06-4.304.249-3.511.901-6.219 3.445-7.445 6.996-.509 1.475-.612 2.159-.612 4.064 0 1.465.027 1.812.197 2.575 1.02 4.557 4.29 7.808 8.644 8.597.904.163 3.01.162 3.992-.003zm-35.925 3.771c-2.49-.261-4.79-1.07-6.757-2.375-1.1-.73-2.82-2.46-3.57-3.59-1.832-2.762-2.711-6.076-2.582-9.737.118-3.328 1.044-6.17 2.842-8.72.262-.373.935-1.137 1.493-1.699 1.995-2.004 4.397-3.273 7.292-3.852 1.166-.233 3.775-.321 4.988-.169 5.588.704 9.774 4.446 11.212 10.025.35 1.359.508 2.516.569 4.182l.053 1.46h-24.69l.056.868c.25 3.859 2.489 7.316 5.832 9.004 1.58.798 3.087 1.145 4.982 1.147 3.25.004 5.705-1 7.75-3.166.511-.541 1.664-2.09 1.863-2.501.025-.051 3.25 2.06 3.25 2.127 0 .205-1.321 1.963-2.05 2.726-2.692 2.82-6.028 4.21-10.354 4.313-.792.02-1.772 0-2.179-.043zm11.662-18.136c-.701-4.414-3.713-7.614-7.959-8.455-.894-.177-3.205-.157-4.106.036-2.14.459-3.925 1.385-5.408 2.807-1.57 1.506-2.616 3.397-3.176 5.739l-.056.233H43.432zm112.014 18.13c-6.487-.604-11.303-5-12.608-11.505-.887-4.427-.064-9.043 2.223-12.455 2.19-3.27 5.311-5.292 9.349-6.062 1.14-.217 4.53-.216 5.608.003 2.694.547 4.922 1.72 6.777 3.57 2.675 2.666 4.102 6.437 4.102 10.834v1.146l-12.298.022-12.297.021.022.678c.09 2.667 1.35 5.456 3.329 7.363 1.534 1.479 3.395 2.415 5.566 2.802.965.171 3.038.17 4.009 0 3.009-.534 5.188-2.013 7.052-4.789.266-.396.515-.711.554-.7.1.026 2.985 1.882 3.108 2 .13.123-.664 1.32-1.593 2.402-2.967 3.449-7.685 5.157-12.903 4.67zm11.64-18.003c0-.128-.074-.541-.164-.918-1.018-4.246-4.016-7.073-8.174-7.71-1.585-.243-3.476-.076-5.08.45-3.469 1.137-6.151 4.012-7.072 7.578-.092.357-.167.69-.167.74 0 .066 2.97.093 10.329.093h10.33l-.001-.233zM1 27.5V12.769H18.611v3.47l-6.922.022-6.921.021-.022 12.976-.021 12.975H1zm85.005-5.927V1h3.81v41.148h-3.81zm10.33 5.884v-14.69h3.725l.004 1.927.004 1.926.314-.38c1.035-1.258 2.102-2.143 3.31-2.746 1.44-.72 2.707-1.034 4.496-1.12 2.064-.097 3.743.223 5.377 1.025 1.733.85 2.98 2.072 4.155 4.073.08.138.13.1.435-.348 1.601-2.345 3.983-3.896 6.967-4.536 1.183-.254 3.782-.28 4.928-.05 2.095.423 3.745 1.274 5.11 2.638 1.453 1.452 2.345 3.201 2.893 5.668l.227 1.025.028 10.14.027 10.138h-3.731v-9.05c0-5.643-.033-9.38-.088-9.927-.348-3.476-2.147-5.988-4.959-6.926a8.064 8.064 0 0 0-3.427-.354c-3.627.393-5.971 2.355-6.79 5.683-.174.706-.178.912-.207 10.647l-.03 9.927h-3.718V33.27c0-5.306-.035-9.307-.087-9.945-.346-4.268-2.689-6.973-6.432-7.428-3.415-.416-6.96 1.578-8.246 4.64-.538 1.277-.507.615-.538 11.6l-.028 10.011h-3.72v-14.69z" fill="#676c73"/></svg>