<svg fill="none" height="571" width="2500" xmlns="http://www.w3.org/2000/svg" viewBox="0 0 560 128"><g fill="#e50136" fill-rule="evenodd"><path d="M560 11.932V0h-23.864v128H560zM459.073 41.22l26.552-32.368L492.886 0h16.603v128h-23.864V46.48l-16.152 19.69-5.025 6.126-9.191 11.204-2.691 3.28h-7.103l-2.691-3.28-9.191-11.204-5.025-6.127-16.152-19.689V128H388.54V0h16.603l7.261 8.852 26.552 32.368 10.059 12.262zM265.507 0H254.66v128h50.441c35.346 0 64-28.654 64-64s-28.654-64-64-64zm13.017 104.136h26.577c22.166 0 40.135-17.97 40.135-40.136s-17.969-40.136-40.135-40.136h-26.577zM230.297 128H130.5V0h99.797v23.864h-75.933v26.577h66.17v23.864h-66.17v29.831h75.933zM23.864 0H66.17c23.963 0 43.389 19.426 43.389 43.39 0 20.052-13.602 36.928-32.084 41.902L113.18 128H82.075L47.613 86.78 33.085 69.402v-6.487h33.084c10.784 0 19.526-8.742 19.526-19.525 0-10.784-8.742-19.526-19.525-19.526H23.864V128H0V0z"/></g></svg>