<svg xmlns="http://www.w3.org/2000/svg" width="70" height="70" fill="none" viewBox="0 0 70 70"><defs><linearGradient id="resharper_svg__a" x1="34.448" x2="64.631" y1="70.146" y2="26.155" gradientUnits="userSpaceOnUse"><stop offset=".016" stop-color="#FF45ED"/><stop offset=".4" stop-color="#DD1265"/><stop offset="1" stop-color="#FDB60D"/></linearGradient><linearGradient id="resharper_svg__b" x1="1.828" x2="48.825" y1="53.428" y2="9.226" gradientUnits="userSpaceOnUse"><stop offset=".016" stop-color="#FF45ED"/><stop offset=".661" stop-color="#DD1265"/></linearGradient><linearGradient id="resharper_svg__c" x1="47.598" x2="48.08" y1="-1.658" y2="26.117" gradientUnits="userSpaceOnUse"><stop offset="0" stop-color="#DD1265"/><stop offset=".055" stop-color="#DF1961"/><stop offset=".701" stop-color="#F46330"/><stop offset="1" stop-color="#FC801D"/></linearGradient></defs><path fill="url(#resharper_svg__a)" d="M51.197 15.72 26.38 47.07 20.782 70h37.666L70 23.067 51.197 15.72Z"/><path fill="url(#resharper_svg__b)" d="M48.986 0H11.613L0 47.07h55.607L48.986 0Z"/><path fill="url(#resharper_svg__c)" d="M50.934 13.316 48.986 0l-4.204 13.316h6.152Z"/><path fill="#000" d="M56 14H14v42h42V14Z"/><path fill="#FFF" d="M34.417 48.65h-15.75v2.683h15.75V48.65ZM36.078 31.36H34.37v-2.877h2.203l.561-3.326h-1.977v-2.876h2.472l.561-3.28h2.967l-.562 3.28h3.259l.56-3.28h2.967l-.561 3.28h1.707v2.877h-2.202l-.562 3.325h1.978v2.877H45.27l-.585 3.37H41.72l.584-3.37h-3.258l-.585 3.37h-2.966l.584-3.37Zm6.72-2.877.561-3.326H40.1l-.561 3.326h3.258ZM19 19h7.187c1.991 0 3.519.532 4.582 1.594a4.86 4.86 0 0 1 1.347 3.593v.046a4.927 4.927 0 0 1-.932 3.11 5.398 5.398 0 0 1-2.437 1.763l3.841 5.615h-4.042l-3.254-4.829H22.44l.02 4.828H19V19Zm6.962 7.635a2.872 2.872 0 0 0 1.966-.606 2.054 2.054 0 0 0 .685-1.617v-.045a2.009 2.009 0 0 0-.72-1.684 3.176 3.176 0 0 0-1.998-.561h-3.436v4.513h3.503Z"/></svg>