<svg xmlns="http://www.w3.org/2000/svg" width="70" height="70" fill="none" viewBox="0 0 70 70"><defs><linearGradient id="resharper-cpp_svg__a" x1="5.126" x2="26.323" y1="17.302" y2="70.918" gradientUnits="userSpaceOnUse"><stop offset=".22" stop-color="#DD1265"/><stop offset=".736" stop-color="#FF45ED"/><stop offset="1" stop-color="#FDB60D"/></linearGradient><linearGradient id="resharper-cpp_svg__b" x1="52.282" x2=".445" y1="73.292" y2="18.152" gradientUnits="userSpaceOnUse"><stop offset=".113" stop-color="#FDB60D"/><stop offset=".509" stop-color="#FF45ED"/><stop offset=".765" stop-color="#FF45ED"/><stop offset="1" stop-color="#FDB60D"/></linearGradient><linearGradient id="resharper-cpp_svg__c" x1="25.5" x2="69.96" y1="-1.93" y2="51.168" gradientUnits="userSpaceOnUse"><stop offset=".175" stop-color="#FDB60D"/><stop offset=".49" stop-color="#FF45ED"/><stop offset=".819" stop-color="#DD1265"/></linearGradient></defs><path fill="url(#resharper-cpp_svg__a)" d="m18.894 15.685-2.062 36.641L11.552 70 0 23.067l18.894-7.382Z"/><path fill="url(#resharper-cpp_svg__b)" d="M18.894 15.685 21.014 0l28.204 70H11.553l5.28-17.674 2.062-36.64Z"/><path fill="url(#resharper-cpp_svg__c)" d="M35.26 47.07H70L58.387 0H21.014L35.26 47.07Z"/><path fill="#000" d="M56 14H14v42h42V14Z"/><path fill="#FFF" d="M34.417 48.65h-15.75v2.683h15.75V48.65ZM19 19h7.29c2.019 0 3.568.54 4.646 1.617a4.929 4.929 0 0 1 1.367 3.644v.046a4.998 4.998 0 0 1-.946 3.155 5.475 5.475 0 0 1-2.47 1.788l3.895 5.695h-4.1l-3.3-4.898h-2.893l.02 4.897H19V19Zm7.062 7.744a2.913 2.913 0 0 0 1.993-.615 2.082 2.082 0 0 0 .695-1.64v-.045a2.036 2.036 0 0 0-.73-1.709 3.22 3.22 0 0 0-2.027-.569h-3.485v4.578h3.554ZM43.872 24.263h-3.615V21.05h3.615V17.46h3.305v3.591h3.614v3.212h-3.614v3.59h-3.305v-3.59ZM36.955 32.962h-3.614v-3.211h3.614V26.16h3.305v3.59h3.614v3.212H40.26v3.592h-3.305v-3.592Z"/></svg>