<svg xmlns="http://www.w3.org/2000/svg" width="70" height="70" fill="none" viewBox="0 0 70 70"><defs><linearGradient id="riderflow_svg__a" x1="16.844" x2="38.664" y1="41.53" y2="64.22" gradientUnits="userSpaceOnUse"><stop offset=".01" stop-color="#087CFA"/><stop offset=".49" stop-color="#903ACA"/><stop offset=".93" stop-color="#DD1265"/></linearGradient><linearGradient id="riderflow_svg__b" x1="42.219" x2="57.684" y1="36.165" y2="8.898" gradientUnits="userSpaceOnUse"><stop offset=".59" stop-color="#087CFA"/><stop offset=".99" stop-color="#0093FF"/></linearGradient><linearGradient id="riderflow_svg__c" x1="30.258" x2="41.726" y1="-.027" y2="22.717" gradientUnits="userSpaceOnUse"><stop offset=".21" stop-color="#087CFA"/><stop offset=".7" stop-color="#DD1265"/></linearGradient><linearGradient id="riderflow_svg__d" x1="15.176" x2="25.577" y1="3.073" y2="38.511" gradientUnits="userSpaceOnUse"><stop stop-color="#087CFA"/><stop offset=".33" stop-color="#903ACA"/><stop offset=".6" stop-color="#DD1265"/></linearGradient><linearGradient id="riderflow_svg__e" x1="81.61" x2="49.892" y1="16.549" y2="52.675" gradientUnits="userSpaceOnUse"><stop offset=".21" stop-color="#087CFA"/><stop offset=".56" stop-color="#903ACA"/><stop offset=".84" stop-color="#DD1265"/></linearGradient><linearGradient id="riderflow_svg__f" x1="58.751" x2="38.795" y1="72.133" y2="45.434" gradientUnits="userSpaceOnUse"><stop offset=".31" stop-color="#FDB60D"/><stop offset="1" stop-color="#DD1265"/></linearGradient></defs><path fill="url(#riderflow_svg__a)" d="M50.198 56.033 24.396 70 0 55.716l44.844-16.757 5.354 17.074Z"/><path fill="url(#riderflow_svg__b)" d="M39.971 0 25.95 41.595l-13.956-7.793L0 55.715l22.395-3.576 28.415-5.015L70 42.826V16.723L39.971 0Z"/><path fill="#087CFA" d="m31.719 24.248-18.681-5.375L11.484 0l15.718 6.606L39.977 0l-8.258 24.248Z"/><path fill="url(#riderflow_svg__c)" d="M32.266 23.155 27.2 6.606 39.976 0l-7.71 23.155Z"/><path fill="url(#riderflow_svg__d)" d="M48.174 40.65 11.501 0 0 26.217 32.38 54.19l15.794-13.54Z"/><path fill="url(#riderflow_svg__e)" d="m70 42.826-21.328 4.922.815-3.517L70 16.724v26.102Z"/><path fill="url(#riderflow_svg__f)" d="M58.794 70 32.38 54.196l15.794-13.547L58.794 70Z"/><path fill="#000" d="M56 14H14v42h42V14Z"/><path fill="#fff" d="M34.417 48.65h-15.75v2.683h15.75V48.65ZM19.27 19.25h7.208c2.007 0 3.562.562 4.597 1.576a4.964 4.964 0 0 1 1.356 3.604v.074a4.902 4.902 0 0 1-3.384 4.891l3.857 5.616h-4.062l-3.383-5.049h-2.721v5.05H19.27V19.25Zm6.982 7.639c1.692 0 2.659-.904 2.659-2.233v-.042c0-1.487-1.051-2.254-2.722-2.254h-3.451v4.529h3.514ZM35.567 19.25h12.01v3.152H39.04v3.357h7.523v3.153H39.04v6.1h-3.473V19.25Z"/></svg>