<svg xmlns="http://www.w3.org/2000/svg" width="70" height="70" fill="none" viewBox="0 0 70 70"><defs><linearGradient id="rubymine_svg__a" x1="44.877" x2="36.032" y1="40.487" y2="17.268" gradientUnits="userSpaceOnUse"><stop offset="0" stop-color="#FE2857"/><stop offset=".056" stop-color="#FE3052"/><stop offset=".325" stop-color="#FD533B"/><stop offset=".58" stop-color="#FC6C2A"/><stop offset=".811" stop-color="#FC7B20"/><stop offset="1" stop-color="#FC801D"/></linearGradient><linearGradient id="rubymine_svg__b" x1="28.02" x2="41.687" y1="7.252" y2="19.779" gradientUnits="userSpaceOnUse"><stop offset="0" stop-color="#6B57FF"/><stop offset="1" stop-color="#FE2857"/></linearGradient><linearGradient id="rubymine_svg__c" x1=".306" x2="45.3" y1="11.212" y2="68.408" gradientUnits="userSpaceOnUse"><stop offset=".001" stop-color="#6B57FF"/><stop offset=".297" stop-color="#FE2857"/><stop offset=".629" stop-color="#FE2857"/><stop offset=".641" stop-color="#FE3052"/><stop offset=".701" stop-color="#FD533B"/><stop offset=".757" stop-color="#FC6C2A"/><stop offset=".808" stop-color="#FC7B20"/><stop offset=".85" stop-color="#FC801D"/></linearGradient></defs><path fill="url(#rubymine_svg__a)" d="m58.188 0-19.98 7.146L22.385 0l-5.177 13.125h-3.354v38.646l48.563.437L70 13.708 58.187 0Z"/><path fill="url(#rubymine_svg__b)" d="M57.604 25.156 25.667 6.125l31.937 37.552v-18.52Z"/><path fill="url(#rubymine_svg__c)" d="m29.167 68.177 26.104-3.5-4.01-7.802-2.407-5.104 2.406-4.193 4.01-8.203-29.676-33.25L0 12.395v36.75L14.73 70l14.29-1.823h.147Z"/><path fill="#000" d="M56 14H14v42h42V14Z"/><path fill="#FFF" d="M34.417 48.65h-15.75v2.683h15.75V48.65ZM34.86 19.25h3.775l4.125 6.642 4.125-6.642h3.775v15.73h-3.495V24.703l-4.405 6.712h-.07l-4.404-6.642V34.98H34.86V19.25ZM19.34 19.25h7.2c2.028 0 3.496.56 4.615 1.608.909.909 1.328 2.097 1.328 3.565v.07c0 1.259-.28 2.307-.909 3.146a5.636 5.636 0 0 1-2.447 1.748l3.846 5.593h-4.055l-3.286-4.824h-2.866v4.824H19.27V19.25h.07Zm6.991 7.62c.839 0 1.538-.21 1.958-.629.489-.42.699-.979.699-1.608v-.07c0-.769-.21-1.328-.7-1.678-.489-.35-1.118-.559-2.027-.559h-3.425v4.544h3.495Z"/></svg>