<svg height="667" width="2500" xmlns="http://www.w3.org/2000/svg" viewBox="0 0 120 32"><path d="M0 0h120v32H0z" fill="none"/><path d="M8 19.651v-1.14h3.994v1.45a1.334 1.334 0 0 0 1.494 1.346 1.3 1.3 0 0 0 1.444-1.007 1.833 1.833 0 0 0-.026-1.113c-.773-1.944-6.055-2.824-6.726-5.854a5.347 5.347 0 0 1-.025-2.02C8.567 8.88 10.705 8 13.359 8c2.113 0 5.025.492 5.025 3.754v1.062h-3.71v-.932a1.275 1.275 0 0 0-1.392-1.347 1.25 1.25 0 0 0-1.365 1.01 2.021 2.021 0 0 0 .026.777c.437 1.734 6.081 2.667 6.7 5.8a6.943 6.943 0 0 1 .025 2.46C18.307 23.068 16.091 24 13.412 24 10.6 24 8 22.99 8 19.651zm48.392-.051v-1.14h3.943v1.424A1.312 1.312 0 0 0 61.8 21.23a1.286 1.286 0 0 0 1.443-.984 1.759 1.759 0 0 0-.025-1.088c-.748-1.915-5.979-2.8-6.648-5.825a5.215 5.215 0 0 1-.026-1.994c.415-2.407 2.556-3.287 5.156-3.287 2.088 0 4.973.518 4.973 3.728v1.036h-3.684v-.906a1.268 1.268 0 0 0-1.365-1.346 1.2 1.2 0 0 0-1.34.984 2.017 2.017 0 0 0 .025.777c.412 1.734 6 2.641 6.623 5.747a6.806 6.806 0 0 1 .025 2.434c-.361 2.486-2.551 3.392-5.2 3.392-2.787.002-5.365-1.011-5.365-4.298zm14.121.545a5.876 5.876 0 0 1-.025-.985V8.44h3.762v11.055a4.111 4.111 0 0 0 .025.57 1.468 1.468 0 0 0 2.835 0 3.97 3.97 0 0 0 .026-.57V8.44H80.9v10.718c0 .285-.026.829-.026.985-.257 2.8-2.448 3.7-5.179 3.7s-4.924-.905-5.182-3.7zm30.974-.156a7.808 7.808 0 0 1-.052-.989v-6.288c0-.259.025-.725.051-.985.335-2.795 2.577-3.675 5.231-3.675 2.629 0 4.947.88 5.206 3.676a7.185 7.185 0 0 1 .025.985v.487h-3.762v-.824a3.1 3.1 0 0 0-.051-.57 1.553 1.553 0 0 0-2.964 0 3.088 3.088 0 0 0-.051.7v6.834a4.17 4.17 0 0 0 .026.57 1.472 1.472 0 0 0 1.571 1.09 1.406 1.406 0 0 0 1.52-1.087 2.09 2.09 0 0 0 .026-.57v-2.178h-1.52V14.99H112V19a7.674 7.674 0 0 1-.052.984c-.257 2.718-2.6 3.676-5.231 3.676s-4.973-.955-5.23-3.673zm-52.438 3.389l-.1-13.825-2.58 13.825h-3.762L40.055 9.553l-.1 13.825h-3.713l.309-14.912h6.056l1.881 11.651 1.881-11.651h6.055l.335 14.912zm-19.79 0l-2.01-13.825-2.062 13.825h-4.019L23.9 8.466h6.623l2.732 14.912zm62.977-.155L88.5 10.822l.206 12.4h-3.66V8.466h5.514l3.5 12.013-.201-12.013h3.685v14.758z"/></svg>