<?xml version="1.0" encoding="UTF-8"?>
<!DOCTYPE svg PUBLIC "-//W3C//DTD SVG 1.1//EN" "http://www.w3.org/Graphics/SVG/1.1/DTD/svg11.dtd">
<!-- Creator: CorelDRAW -->
<svg xmlns="http://www.w3.org/2000/svg" xml:space="preserve" width="256px" height="256px" version="1.1" style="shape-rendering:geometricPrecision; text-rendering:geometricPrecision; image-rendering:optimizeQuality; fill-rule:evenodd; clip-rule:evenodd"
viewBox="0 0 205.79 205.79"
 xmlns:xlink="http://www.w3.org/1999/xlink"
 xmlns:xodm="http://www.corel.com/coreldraw/odm/2003">
 <defs>
  <style type="text/css">
   <![CDATA[
    .fil1 {fill:#FEFEFE}
    .fil0 {fill:#00A2E9}
    .fil2 {fill:black}
   ]]>
  </style>
 </defs>
 <g id="img_x0020_1">
  <metadata id="CorelCorpID_0Corel-Layer"/>
  <path class="fil0" d="M20.58 0l164.63 0c11.32,0 20.58,9.26 20.58,20.58l0 164.63c0,11.32 -9.26,20.58 -20.58,20.58l-164.63 0c-11.32,0 -20.58,-9.26 -20.58,-20.58l0 -164.63c0,-11.32 9.26,-20.58 20.58,-20.58z"/>
  <rect class="fil1" x="54.8" y="10.29" width="96.19" height="185.21"/>
  <g id="_2384011739200">
   <rect class="fil1" x="16.78" y="147.82" width="21.23" height="31.85" rx="5.31" ry="7.96"/>
   <rect class="fil1" x="16.78" y="86.97" width="21.23" height="31.85" rx="5.31" ry="7.96"/>
   <rect class="fil1" x="16.78" y="26.12" width="21.23" height="31.85" rx="5.31" ry="7.96"/>
  </g>
  <g id="_2384011740928">
   <rect class="fil1" x="167.78" y="147.82" width="21.23" height="31.85" rx="5.31" ry="7.96"/>
   <rect class="fil1" x="167.78" y="86.97" width="21.23" height="31.85" rx="5.31" ry="7.96"/>
   <rect class="fil1" x="167.78" y="26.12" width="21.23" height="31.85" rx="5.31" ry="7.96"/>
  </g>
  <path class="fil2" d="M95.19 44.51c-9.76,1.02 -20.5,4.81 -26.15,13.33 -5.92,8.91 -6.33,21.89 -1.84,31.49 10.95,23.42 52.81,25.05 50.77,47.63 -0.48,5.31 -3.25,9.74 -8.47,11.41 -4.58,1.46 -13,1.22 -17.7,0.17 -15.91,-3.53 -21.17,-15.61 -26.46,-6.54 -3.21,5.48 1.05,9.15 5.3,11.93 9.7,6.33 20.77,7.71 32.08,7.63 10.78,-0.07 21.44,-2.3 29.65,-9.73 8.29,-7.51 10.74,-18.81 8.42,-29.55 -4.66,-21.51 -23.66,-28.56 -40.58,-38.13 -4.38,-2.48 -7.75,-4.78 -10.63,-9.04 -3.05,-4.5 -2.92,-10.86 0.37,-15.2 6.08,-8 22.62,-4.35 30.05,-0.03 3.87,2.25 8.15,8.24 12.62,2.75 4.2,-5.17 -0.08,-9.42 -4.37,-12.12 -8.52,-5.37 -23.25,-7.02 -33.06,-6z"/>
 </g>
</svg>
