<svg xmlns="http://www.w3.org/2000/svg" viewBox="4 10.469999999999986 1514.7181913599102 273.97" width="2500" height="600"><linearGradient id="a" gradientUnits="userSpaceOnUse" x1="10.42" x2="217.58" y1="85.19" y2="230.25"><stop offset="0" stop-color="#6d3dec"/><stop offset=".87" stop-color="#4ba8e9"/></linearGradient><path d="M1034 261c-1.9-1.93-4.52-1.55-6.83-1.89-2.52-.37-3.48-1.13-3-3.82 1.42-7.52 2.75-15.05 3.85-22.62.44-3.05 1.6-3.19 4.22-2.38a31 31 0 0 0 15.28.85c5.59-1.08 9.93-3.81 12.79-8.66 6.7-11.38 9.82-21.91 3.69-35.94-19-43.5-36.12-87.85-54-131.88-.37-.9-.66-1.83-1.27-3.51h26.48c8.08 0 8.08 0 11 7.62l40 102.62c1.49-.18 1.38-1.52 1.75-2.48 13.34-34.2 26.73-68.37 39.9-102.63 1.55-4 3.42-5.48 7.87-5.27 9.47.45 19 .14 29.21.14-3.18 7.93-6.17 15.55-9.28 23.13-20.52 50.11-41.3 100.11-61.47 150.35-8.25 20.55-21.76 33.42-44.39 35.44-.34 0-.63.61-1 .93h-4a10.27 10.27 0 0 0-7 0z" fill="#1b1c30"/><path d="M1497.1 136.14c.36-4-1.25-8.23.9-12.14v12z" fill="#666774"/><path d="M1038 261a5.66 5.66 0 0 1 7 0z" fill="#8f8f99"/><g fill="#1b1c30"><path d="M622.84 71.12c10.42-11 22-18.09 35.73-21.5a66.32 66.32 0 0 1 36.92.88c16.3 5.25 27 18.79 27.29 37.33.65 36.47.26 73 .37 109.46 0 2.2-.66 2.82-2.83 2.79-8.83-.1-17.66-.21-26.49 0-3.63.1-3-2-3-4.13v-87.47a71.62 71.62 0 0 0-.87-10.94c-1.85-11.69-9.45-18.93-21.15-20.65-17.49-2.57-31.59 3.74-43.45 16.21a9.57 9.57 0 0 0-2.54 7.22c.08 31.66 0 63.31.16 95 0 4.08-1.22 4.93-5 4.79-8-.27-16-.17-24 0-2.6 0-3.8-.36-3.79-3.45q.15-71 0-141.95c0-2.92.92-3.66 3.71-3.6 8.33.16 16.67.24 25 0 3.53-.11 4.15 1.22 4 4.33-.23 4.85-.06 9.77-.06 15.68zM377.35 91.36a57.46 57.46 0 0 0-33-16.79c-8.91-1.42-17.89-1.65-26.67 1.3a20.11 20.11 0 0 0-8.45 5.1c-5.8 6.1-4.68 14.92 2.7 19.68s16 6.44 24.38 8.38c10.36 2.4 20.78 4.53 30.69 8.57 17.88 7.28 28.67 19.81 28.51 39.76-.16 19.45-10.05 33.41-27.84 39.94-33.49 12.29-65.34 8.36-94.45-13.22-3.24-2.4-3.47-4.3-1.14-7.6 4.3-6.11 8.09-12.59 12.33-19.28a77.7 77.7 0 0 0 29.78 17.39c11.8 3.77 23.76 5 35.86 1.52a26.25 26.25 0 0 0 6.37-2.74c10.16-6.2 10.51-18.87.66-25.54-7.4-5.05-16.08-6.83-24.68-8.83-10.86-2.48-21.78-4.65-32.11-9-15.37-6.49-25.27-17.26-26-34.55s7.05-30.08 21.63-38.92c11.17-6.78 23.61-9 36.37-9 20.37-.06 39.06 5.38 55.36 18.13 2.87 2.24 3.11 3.78 1.19 6.72-3.96 6.06-7.55 12.41-11.49 18.98zM993.1 170.12c2.36 7.51 4.66 14.94 7 22.33.91 2.78-1.34 3.52-2.87 4.53-10 6.54-21.22 7.74-32.64 6.56-21.75-2.24-32.6-14.63-32.73-37q-.23-40.74.06-81.5c0-4-.62-5.61-5-5.26-5.46.45-11 0-16.49.16-2.58.08-3.49-.65-3.42-3.35.17-7.32.21-14.67 0-22-.09-3.11 1.2-3.54 3.82-3.47 5.83.15 11.67-.1 17.5.11 2.83.1 3.65-.75 3.6-3.6-.16-10.83.15-21.67-.17-32.49-.12-3.95 1.16-4.67 4.75-4.55 7.82.28 15.67.26 23.49 0 3.43-.11 4.56.72 4.48 4.33-.25 10.66.07 21.34-.18 32-.09 3.64 1.11 4.43 4.49 4.31 7.16-.24 14.33.06 21.49-.14 3.07-.08 4.48.46 4.34 4-.29 7-.25 14 0 21 .11 3.15-.91 4-4 3.86-7.32-.22-14.67.13-22-.16-3.59-.14-4.36 1-4.34 4.46.15 23.5.09 47 .07 70.5 0 7.14.13 14.43 7.32 18.43 7.5 4.13 14.45 1.22 21.43-3.06zM1498 118c-2-2.48-1.43-5.58-2-8.39-8.72-46.53-46.36-69.19-89-60.17-35.3 7.45-58.88 39.23-58.2 77 .57 31.81 13.66 56.25 43.08 70.16 18.42 8.71 37.94 9 57.63 4.8a80 80 0 0 0 35.18-16.77c2-1.71 2.4-2.91.69-5.2-4.45-6-8.59-12.19-13-18.53a61.4 61.4 0 0 1-34 15.67c-28 3.84-49.49-10.94-54.85-35.38-.8-3.68-.35-4.83 3.78-4.81 35 .16 70 .1 104.93.08 1.64 0 3.28-.2 4.92-.3 1.18-4-.49-8.18.9-12.14zm-35.73-4.5c-12.65-.19-25.3-.08-38-.08s-25.31-.11-38 .07c-3.17 0-3.87-.72-3.46-3.89 2.67-20.6 20.17-35.65 41.59-35.52 22.11.13 38.72 14.47 41.34 35.5.49 3.14-.29 3.96-3.47 3.92zM1320.41 88.9c-17.63-48.57-78.71-53.67-105.66-19.68-.4.5-.85 1-1.68.49 0-4.78-.21-9.62.07-14.43.18-3.24-.72-4.32-4.09-4.21-7.82.25-15.67.32-23.49 0-4.14-.18-5.22 1-5.21 5.17q.23 82.71.1 165.43c0 10.5.12 21-.07 31.49-.06 3.13.9 3.94 3.95 3.86 8.32-.21 16.66-.23 25 0 3.19.09 3.87-.94 3.83-3.94-.17-11.66-.07-23.32-.07-35v-37.74c1.18 1.12 1.59 1.42 1.9 1.8 26.76 33.88 85.69 28.3 104.12-16.74 10.31-25.22 10.56-50.99 1.3-76.5zM1289 148.15c-8 21.49-29.1 31.72-50.9 24.75a52.34 52.34 0 0 1-13-6.24c-8-5.28-14.05-11.28-12.24-22.32 1-6.17.18-12.63.18-19 0-8.33.15-16.66-.08-25a10.23 10.23 0 0 1 3.07-8c13.16-13.24 28.7-19.53 47.11-14.14 17.88 5.23 25.87 19.13 28.9 36.55a63.21 63.21 0 0 1-3.04 33.4zM488.15 47.4c-44.69.14-76.58 32.88-76.41 78.44.17 46.19 32 78.12 77.77 78 44.34-.12 75.55-33.14 75.45-79.86-.09-44.12-32.78-76.71-76.81-76.58zm43 75.6c-.21 17.6-4.09 31-15 41.32-20.65 19.52-54.49 11.9-65.91-14.84-6.42-15-6.57-30.49-.82-45.76 6.63-17.58 21.69-27.84 39.49-27.45 18.22.39 32.8 11.22 39 29 2.23 6.73 3.52 13.53 3.25 17.73zM883.74 101.39c-.26-28.7-14.21-45.71-42.11-51.94a95.42 95.42 0 0 0-30.81-1.38c-18.55 1.93-35.06 8.76-49.15 21.11-1.27 1.11-3.18 1.89-1.65 4.36 4.18 6.76 8.15 13.66 12.32 20.7 14.61-14.07 31.49-20.64 51.58-18.32 15.15 1.75 26.51 11.8 27 24.72.32 7.61.06 15.26.06 23.7-17.09-16.3-37-20.65-58.74-17.23-17.11 2.7-30.56 11.24-37.36 27.94-13.62 33.43 10 68.19 46.64 68.77 18.66.29 35.35-4.95 49.5-19.18 0 4.67.19 8.43-.06 12.16-.18 2.75.86 3.33 3.37 3.29 8.67-.13 17.34-.18 26 0 3 .07 3.5-1.07 3.49-3.73-.04-31.65.18-63.31-.08-94.97zm-47.89 76.24c-9.79 4-20 5.1-30.31 2.52-13.21-3.28-21.28-12.67-21.48-24.73-.21-12.24 7.72-22.21 21.06-25.58 13.56-3.41 26.44-1.15 38.19 6.45 7.46 4.83 7.75 6 7.75 18.66 0 13.48-2.58 17.55-15.21 22.68z"/></g><path d="M4 221.08V94.36q23.55-13.73 47.1-27.44 31-18 62-35.92h1.76q28.73 16.64 57.45 33.28 25.85 15 51.67 30.08v126.72c-2 1.26-3.89 2.61-5.91 3.78q-51.6 29.8-103.21 59.58h-1.76q-21.66-12.6-43.32-25.21Q36.92 240.14 4 221.08zM192 158c0-13.63-.09-27.26.06-40.89 0-3.21-1.12-5.06-3.88-6.64q-35.3-20.18-70.45-40.6a6.38 6.38 0 0 0-7.28 0q-34.95 20.34-70 40.42c-3.21 1.83-4.46 4-4.44 7.67q.2 39.58 0 79.15c0 4 1.21 6.38 4.75 8.39q34.79 19.74 69.34 39.9c2.89 1.68 5.15 1.75 8.07.05q34.83-20.35 69.99-40.4c3-1.7 4-3.75 3.92-7.06-.15-13.34-.08-26.68-.08-39.99z" fill="url(#a)" transform="translate(-4 -31)"/></svg>