<?xml version="1.0" encoding="UTF-8"?>
<!-- Created with Inkscape (http://www.inkscape.org/) -->
<svg width="176.55mm" height="38.056mm" version="1.1" viewBox="0 0 176.55 38.056" xmlns="http://www.w3.org/2000/svg">
 <defs>
  <clipPath id="clipPath109">
   <path transform="translate(-64.823 -525.48)" d="m45.695 510.22h196.01v42.25h-196.01z"/>
  </clipPath>
  <clipPath id="clipPath111">
   <path transform="translate(-45.695 -542.28)" d="m45.695 510.22h196.01v42.25h-196.01z"/>
  </clipPath>
  <clipPath id="clipPath113">
   <path transform="translate(-65.139 -552.46)" d="m45.695 510.22h196.01v42.25h-196.01z"/>
  </clipPath>
  <clipPath id="clipPath115">
   <path transform="translate(-95.861 -532.61)" d="m45.695 510.22h196.01v42.25h-196.01z"/>
  </clipPath>
  <clipPath id="clipPath117">
   <path transform="translate(-101.31 -531.87)" d="m45.695 510.22h196.01v42.25h-196.01z"/>
  </clipPath>
  <clipPath id="clipPath119">
   <path transform="translate(-115.43 -529.82)" d="m45.695 510.22h196.01v42.25h-196.01z"/>
  </clipPath>
  <clipPath id="clipPath121">
   <path transform="translate(-129.3 -527.02)" d="m45.695 510.22h196.01v42.25h-196.01z"/>
  </clipPath>
  <clipPath id="clipPath123">
   <path transform="translate(-133.77 -528.47)" d="m45.695 510.22h196.01v42.25h-196.01z"/>
  </clipPath>
  <clipPath id="clipPath125">
   <path transform="translate(-148.6 -536.61)" d="m45.695 510.22h196.01v42.25h-196.01z"/>
  </clipPath>
  <clipPath id="clipPath127">
   <path transform="translate(-156.93 -531.87)" d="m45.695 510.22h196.01v42.25h-196.01z"/>
  </clipPath>
  <clipPath id="clipPath129">
   <path transform="translate(-172.57 -535.04)" d="m45.695 510.22h196.01v42.25h-196.01z"/>
  </clipPath>
  <clipPath id="clipPath131">
   <path transform="translate(-188.14 -531.07)" d="m45.695 510.22h196.01v42.25h-196.01z"/>
  </clipPath>
  <clipPath id="clipPath133">
   <path transform="translate(-192.03 -528.47)" d="m45.695 510.22h196.01v42.25h-196.01z"/>
  </clipPath>
  <clipPath id="clipPath135">
   <path d="m45.695 510.22h196.01v42.25h-196.01z"/>
  </clipPath>
  <clipPath id="clipPath137">
   <path transform="translate(-206.7 -527.96)" d="m45.695 510.22h196.01v42.25h-196.01z"/>
  </clipPath>
  <clipPath id="clipPath139">
   <path transform="translate(-220.31 -531.07)" d="m45.695 510.22h196.01v42.25h-196.01z"/>
  </clipPath>
  <clipPath id="clipPath141">
   <path transform="translate(-223.72 -536.61)" d="m45.695 510.22h196.01v42.25h-196.01z"/>
  </clipPath>
  <clipPath id="clipPath143">
   <path transform="translate(-232.64 -522.83)" d="m45.695 510.22h196.01v42.25h-196.01z"/>
  </clipPath>
 </defs>
 <g transform="translate(-17.198 -125.15)">
  <path transform="matrix(.90073 0 0 -.90073 34.427 149.46)" d="m0 0v7.432c0.489 0.721 1.793 1.28 2.771 1.28 0.348 0 0.604-0.024 0.814-0.07v2.887c-1.397 0-2.769-0.815-3.585-1.793v1.512h-2.953v-11.248z" clip-path="url(#clipPath109)" fill="#29b473 "/>
  <path transform="matrix(.90073 0 0 -.90073 17.198 134.32)" d="m0 0v-21.377l18.502-10.689 18.498 10.689v20.263l-4.541-2.624v-15.014l-13.957-8.066-13.959 8.066v16.128l13.084 7.56v5.248z" clip-path="url(#clipPath111)" fill="#1b1f2a "/>
  <path transform="matrix(.90073 0 0 -.90073 34.711 125.15)" d="m0 0v-5.245l12.284-7.106 4.542 2.623z" clip-path="url(#clipPath113)" fill="#29b473 "/>
  <g fill="#000000 ">
   <path transform="matrix(.90073 0 0 -.90073 62.384 143.03)" d="m0 0c0 1.839-0.943 2.438-2.368 2.438-1.288 0-2.461-0.782-3.059-1.61v-7.933h-2.069v11.106h2.069v-1.563c0.736 0.896 2.208 1.839 3.932 1.839 2.346 0 3.565-1.242 3.565-3.587v-7.795h-2.07z" clip-path="url(#clipPath115)"/>
   <path transform="matrix(.90073 0 0 -.90073 67.295 143.7)" d="m0 0h6.783c-0.046 1.472-1.034 3.311-3.38 3.311-2.23 0-3.288-1.793-3.403-3.311m3.403 5.013c3.334 0 5.404-2.598 5.404-6.002v-0.506h-8.784c0.161-1.885 1.54-3.449 3.771-3.449 1.173 0 2.46 0.46 3.289 1.311l0.965-1.357c-1.104-1.081-2.667-1.656-4.461-1.656-3.311 0-5.749 2.346-5.749 5.841 0 3.22 2.323 5.818 5.565 5.818" clip-path="url(#clipPath117)"/>
   <path transform="matrix(.90073 0 0 -.90073 80.015 145.54)" d="m0 0-3.127-4.323h-2.346l4.162 5.702-3.909 5.404h2.345l2.875-4.001 2.852 4.001h2.345l-3.932-5.404 4.185-5.702h-2.346z" clip-path="url(#clipPath119)"/>
   <path transform="matrix(.90073 0 0 -.90073 92.506 148.07)" d="m0 0c-0.851-0.92-2.253-1.793-3.955-1.793-2.368 0-3.541 1.195-3.541 3.541v7.841h2.069v-7.151c0-1.84 0.92-2.392 2.346-2.392 1.288 0 2.46 0.736 3.081 1.564v7.979h2.07v-11.107h-2.07z" clip-path="url(#clipPath121)"/>
   <path transform="matrix(.90073 0 0 -.90073 96.527 146.76)" d="m0 0c0.759-0.828 2.23-1.586 3.725-1.586 1.564 0 2.392 0.643 2.392 1.586 0 1.104-1.265 1.472-2.691 1.793-1.885 0.437-4.093 0.943-4.093 3.335 0 1.77 1.518 3.288 4.231 3.288 1.909 0 3.289-0.689 4.231-1.586l-0.92-1.449c-0.644 0.782-1.885 1.357-3.288 1.357-1.402 0-2.276-0.552-2.276-1.449 0-0.966 1.195-1.288 2.575-1.61 1.932-0.437 4.231-0.966 4.231-3.518 0-1.909-1.563-3.403-4.484-3.403-1.862 0-3.495 0.575-4.622 1.724z" clip-path="url(#clipPath123)"/>
  </g>
  <g fill="#1aba73 ">
   <path transform="matrix(.90073 0 0 -.90073 109.89 139.43)" d="m0 0h2.069v-1.702c0.851 1.104 2.162 1.955 3.634 1.955v-2.092c-0.207 0.046-0.437 0.068-0.713 0.068-1.035 0-2.438-0.781-2.921-1.609v-7.726h-2.069z" clip-path="url(#clipPath125)"/>
   <path transform="matrix(.90073 0 0 -.90073 117.39 143.7)" d="m0 0h6.783c-0.046 1.472-1.034 3.311-3.38 3.311-2.23 0-3.288-1.793-3.403-3.311m3.403 5.013c3.334 0 5.404-2.598 5.404-6.002v-0.506h-8.784c0.161-1.885 1.54-3.449 3.771-3.449 1.173 0 2.46 0.46 3.289 1.311l0.965-1.357c-1.104-1.081-2.667-1.656-4.461-1.656-3.311 0-5.749 2.346-5.749 5.841 0 3.22 2.323 5.818 5.565 5.818" clip-path="url(#clipPath127)"/>
   <path transform="matrix(.90073 0 0 -.90073 131.47 140.84)" d="m0 0c-1.265 0-2.53-0.736-3.082-1.633v-4.714c0.552-0.874 1.817-1.632 3.082-1.632 2.069 0 3.334 1.678 3.334 4.001 0 2.299-1.265 3.978-3.334 3.978m-5.151-13.774v15.337h2.069v-1.586c0.805 1.104 2.139 1.862 3.634 1.862 2.897 0 4.944-2.184 4.944-5.817s-2.047-5.841-4.944-5.841c-1.449 0-2.737 0.667-3.634 1.886v-5.841z" clip-path="url(#clipPath129)"/>
   <path transform="matrix(.90073 0 0 -.90073 145.5 144.42)" d="m0 0c0 2.092-1.219 3.978-3.449 3.978-2.208 0-3.449-1.886-3.449-3.978 0-2.116 1.241-4.001 3.449-4.001 2.23 0 3.449 1.885 3.449 4.001m-9.06 0c0 3.196 2.162 5.817 5.611 5.817 3.472 0 5.611-2.621 5.611-5.817 0-3.219-2.139-5.841-5.611-5.841-3.449 0-5.611 2.622-5.611 5.841" clip-path="url(#clipPath131)"/>
   <path transform="matrix(.90073 0 0 -.90073 149 146.76)" d="m0 0c0.759-0.828 2.23-1.586 3.725-1.586 1.564 0 2.392 0.643 2.392 1.586 0 1.104-1.265 1.472-2.691 1.793-1.885 0.437-4.093 0.943-4.093 3.335 0 1.77 1.518 3.288 4.231 3.288 1.909 0 3.289-0.689 4.231-1.586l-0.92-1.449c-0.644 0.782-1.885 1.357-3.288 1.357-1.402 0-2.276-0.552-2.276-1.449 0-0.966 1.195-1.288 2.575-1.61 1.932-0.437 4.231-0.966 4.231-3.518 0-1.909-1.563-3.403-4.484-3.403-1.862 0-3.495 0.575-4.622 1.724z" clip-path="url(#clipPath133)"/>
   <path transform="matrix(.90073 0 0 -.90073 -23.961 622.77)" d="m201.85 536.61h2.069v-11.106h-2.069zm-0.323 3.174c0 0.736 0.622 1.334 1.334 1.334 0.736 0 1.334-0.598 1.334-1.334s-0.598-1.311-1.334-1.311c-0.712 0-1.334 0.575-1.334 1.311" clip-path="url(#clipPath135)"/>
   <path transform="matrix(.90073 0 0 -.90073 162.22 147.22)" d="m0 0v6.83h-1.839v1.816h1.839v3.036h2.07v-3.036h2.253v-1.816h-2.253v-6.37c0-0.782 0.368-1.357 1.08-1.357 0.483 0 0.92 0.207 1.127 0.437l0.529-1.563c-0.437-0.415-1.08-0.713-2.161-0.713-1.748 0-2.645 0.988-2.645 2.736" clip-path="url(#clipPath137)"/>
   <path transform="matrix(.90073 0 0 -.90073 174.48 144.42)" d="m0 0c0 2.092-1.219 3.978-3.449 3.978-2.208 0-3.449-1.886-3.449-3.978 0-2.116 1.241-4.001 3.449-4.001 2.23 0 3.449 1.885 3.449 4.001m-9.06 0c0 3.196 2.162 5.817 5.611 5.817 3.472 0 5.611-2.621 5.611-5.817 0-3.219-2.139-5.841-5.611-5.841-3.449 0-5.611 2.622-5.611 5.841" clip-path="url(#clipPath139)"/>
   <path transform="matrix(.90073 0 0 -.90073 177.55 139.43)" d="m0 0h2.069v-1.702c0.851 1.104 2.162 1.955 3.634 1.955v-2.092c-0.207 0.046-0.437 0.068-0.713 0.068-1.035 0-2.438-0.781-2.921-1.609v-7.726h-2.069z" clip-path="url(#clipPath141)"/>
   <path transform="matrix(.90073 0 0 -.90073 185.59 151.84)" d="m0 0c0.759 0 1.265 0.253 1.609 1.081l0.644 1.472-4.576 11.221h2.208l3.472-8.715 3.472 8.715h2.231l-5.473-13.222c-0.713-1.748-1.932-2.368-3.541-2.391-0.345 0-0.966 0.068-1.288 0.16l0.322 1.863c0.253-0.115 0.644-0.184 0.92-0.184" clip-path="url(#clipPath143)"/>
  </g>
 </g>
</svg>
