<svg height="448" width="2500" xmlns="http://www.w3.org/2000/svg" viewBox="0.996 1 498.004 87.678"><path d="M178.416 88.677c-18.04 0-34.786-5.41-45.964-15.443-8.445-7.58-12.503-17.876-12.503-28.473 0-10.468 4.233-20.835 12.502-28.375C142.832 6.925 161.16 1 178.416 1c19.096 0 34.38 4.81 46.064 15.412 8.313 7.544 12.332 17.865 12.332 28.35 0 10.163-4.265 20.986-12.332 28.472-10.88 10.098-27.978 15.443-46.064 15.443V77.113c9.575 0 18.457-3.306 24.66-9.478 6.16-6.13 9.03-13.665 9.03-22.874 0-8.822-3.096-17.07-9.03-22.92-6.12-6.028-15.214-9.42-24.66-9.42-9.475 0-18.575 3.357-24.7 9.42-5.902 5.848-9.006 14.12-9.006 22.92 0 8.773 3.14 17.04 9.006 22.875 6.13 6.098 15.198 9.478 24.7 9.478v11.564zM46.562 1.042c-9.65 0-20.613 1.805-29.928 5.965C8.037 10.843 1 17.047 1 27.332.996 36.595 6.883 42.02 6.723 41.87c2.504 2.305 6.535 6.23 17.074 8.535 4.71 1.03 14.78 2.612 24.808 3.66 9.954 1.05 19.75 2.048 23.74 3.058 3.17.807 8.495 1.906 8.495 7.88 0 5.95-5.61 7.766-6.585 8.16-.974.385-7.704 3.473-19.802 3.473-8.932 0-19.67-2.686-23.584-4.086-4.512-1.606-9.245-3.73-13.66-9.123-1.098-1.337-2.83-5.014-2.83-8.655H3.43v30.68H15.6v-4.145c0-.472.59-2.413 2.633-1.49 2.542 1.155 10.004 4.126 17.806 5.755 6.397 1.338 10.522 2.297 18.475 2.297 12.976 0 19.947-2.114 24.766-3.49 4.54-1.3 10.15-3.634 14.707-7.268 2.468-1.965 7.88-7.002 7.88-16.145 0-8.776-4.71-14.223-6.367-15.88-2.257-2.258-5.014-4.008-7.887-5.357-2.503-1.178-6.453-2.593-9.685-3.384-6.273-1.54-20.457-3.44-27.24-4.15-7.113-.743-19.452-1.765-24.38-3.29-1.494-.463-4.54-1.914-4.54-5.45 0-2.515 1.393-4.647 4.146-6.37 4.37-2.738 13.197-4.44 22.398-4.44 10.878-.04 20.09 2.447 25.95 5.067 1.993.89 4.325 2.168 6.177 3.68 2.09 1.704 5.024 5.245 6.085 10.184h9.83V4.87H85.378v3.104c0 1.002-1.035 2.304-2.992 1.228-4.912-2.577-18.8-8.137-35.826-8.16m240.536 4.853l53.542 48.32-.55-32.533c-.054-4.266-.84-6.047-5.454-6.047h-10.067V5.903h45.78v9.732h-9.82c-4.706 0-5.003 1.505-5.06 6.047l.83 62.163h-15.678l-61.67-55.04.013 39.062c.054 4.246.253 6.246 4.628 6.246h10.995v9.728h-44.96v-9.727h10.51c3.926 0 3.77-3.743 3.77-6.468V22.052c0-2.943-.413-6.41-6.577-6.41H248.8V5.895zm135.564 68.2c.43 0 2.34-.055 2.71-.168a3.358 3.358 0 0 0 2.106-1.87c.14-.33.21-1.79.21-2.107l.008-15.38c0-.37-.027-.53-.655-1.354-.69-.9-28.045-31.9-29.297-33.265-1.555-1.695-4.285-4.315-8.433-4.315h-9.513V5.9h53.687v9.724h-6.472c-1.497 0-2.492 1.42-1.213 2.998 0 0 18.063 21.607 18.234 21.833.168.23.312.285.542.075.226-.215 18.516-21.71 18.66-21.88.87-1.042.28-3.015-1.595-3.015H455V5.9h44v9.735h-9.83c-3.566 0-5.017.66-7.7 3.693-1.227 1.388-28.874 32.945-29.626 33.8-.394.447-.36 1.07-.36 1.44v15.378c0 .312.07 1.774.21 2.102a3.349 3.349 0 0 0 2.11 1.87c.37.114 2.254.17 2.683.17h10.055v9.734h-53.41v-9.735l9.53.008z"/></svg>