<svg xmlns="http://www.w3.org/2000/svg" width="2500" height="2500" viewBox="0 0 192.756 192.756"><g fill-rule="evenodd" clip-rule="evenodd"><path fill="#fff" d="M0 0h192.756v192.756H0V0z"/><path d="M35.988 137.062c1.103 0 1.96-.674 2.328-1.285.368-.613 4.778-8.576 5.084-9.066.49-.797.735-1.104 1.531-1.104h1.103c.919 0 1.164.43 1.593 1.227.429.734 3.186 5.695 3.492 6.369.49.859.306 1.41-.858 1.41H44.81c-.735 0-1.471.428-1.776.918l-.185.367c-.245.49-.122 1.164.858 1.164H57c.918 0 1.409-.611.918-1.531-.613-1.041-5.452-9.861-5.881-10.598-.551-.918-1.409-1.775-2.879-1.838-1.225-.061-6.677-.061-7.596 0-1.103.062-1.96.674-2.695 1.9-.429.734-4.288 7.717-4.656 8.453-.428.674-.735 1.164-1.593 1.164h-2.205c-.796 0-1.042-.43-1.042-1.531v-8.516c0-.734-.49-1.408-1.47-1.408h-2.389c-.796 0-1.286.795-1.286 1.408v8.332c0 1.348-.245 1.715-1.103 1.715h-1.96c-.919 0-1.348-.184-1.838-1.041-.49-.859-4.778-8.455-5.207-9.129-.367-.674-.98-1.348-2.144-1.348H9.401c-.98 0-1.042.797-.735 1.287 0 0 5.819 10.291 6.31 11.211.551.918 1.593 1.469 2.511 1.469l18.501.001zM64.964 124.506c0-.736-.551-1.41-1.348-1.41h-2.45c-.796 0-1.348.674-1.348 1.348v11.15c0 .918.735 1.469 1.593 1.469h14.457c.796 0 1.287-.49 1.287-1.102v-.246c0-.611-.49-1.102-1.287-1.102h-9.801c-.796 0-1.103-.246-1.103-1.104v-9.003zM184.111 135.594c-.244-.674-4.227-9.434-4.777-10.66-.553-1.164-1.287-1.715-3.002-1.838-1.594-.121-8.332-.061-9.801 0-1.533.062-2.328.857-2.881 2.021-.611 1.104-3.613 8.025-3.98 8.883-.43.797-.49 1.104-.857 1.104-.307 0-.49-.246-.92-.98a723.392 723.392 0 0 1-5.084-9.127c-.43-.92-1.348-1.777-2.941-1.9-1.162-.061-6.125-.061-7.35 0-1.227.062-2.389 1.043-2.941 1.838-.49.857-3.369 6.064-5.084 9.189-.49.797-.551.98-.92.98-.367 0-.551-.307-.979-1.041-.43-.859-3.799-7.535-4.35-8.76-.613-1.287-1.471-2.145-3.062-2.207-1.594-.121-14.887-.121-15.99 0-1.775.123-2.695.92-3.246 2.207-.428.918-3.859 7.779-4.227 8.574-.43.797-.797 1.164-1.225 1.164-.797 0-1.164-.184-1.898-.795-1.41-1.164-3.125-2.512-3.554-3.064-.49-.488-.735-1.102.062-1.898.674-.613 4.778-4.777 5.268-5.268.367-.367.123-.92-.551-.92h-3.125c-.98 0-1.838.367-2.695 1.227-.858.795-3.431 3.49-3.431 3.49-.858.92-1.715 1.227-2.695 1.227h-2.757c-.735 0-1.103-.307-1.103-1.104v-3.309c0-.857-.613-1.531-1.531-1.531h-2.083c-.857 0-1.531.613-1.531 1.531v10.967c0 .857.551 1.469 1.409 1.469h2.389c.796 0 1.348-.551 1.348-1.469v-2.818c0-.857.306-1.225 1.103-1.225h2.695c1.226 0 2.206.611 2.634 1.041 0 0 2.634 2.205 3.37 3.002 1.041 1.041 2.266 1.469 3.429 1.469h6.555c1.043 0 2.021-.428 2.512-1.469.49-1.104 3.859-8.209 4.105-8.639.244-.611.551-1.408 1.592-1.408h1.531c.857 0 .98.734.98 1.471v8.393c0 1.041.857 1.531 1.654 1.531h2.082c.797 0 1.471-.49 1.471-1.471v-8.516c0-.857.184-1.408.857-1.408h1.717c.734 0 1.162.551 1.531 1.471.428.857 3.674 7.719 4.104 8.576.43.795 1.287 1.469 2.572 1.469h5.943c1.408 0 2.326-.674 2.695-1.469.428-.797 4.961-8.945 4.961-8.945.307-.551.553-1.041 1.164-1.041h1.777c.734 0 .979.43 1.225.92.367.611 3.309 6.002 3.676 6.676.49.92.367 1.41-.49 1.41h-5.33c-1.164 0-1.531.428-1.898.918-.061.123-.246.367-.246.49-.184.551.186 1.041.859 1.041h16.846c1.348 0 2.266-.857 2.572-1.469.367-.674 3.615-8.148 3.982-8.883.367-.736.734-1.104 1.469-1.104h3.492c1.104 0 1.287.613 1.594 1.104.428.734 3.613 8.025 3.98 8.883.369.734.98 1.469 2.268 1.469h2.145c.917-.001 1.285-.735.917-1.469zM74.52 56.447c-5.575 1.226-9.495 6.249-9.862 12.497-.307 6.493-2.879 11.884-7.535 12.436-4.472.551-6.738-4.962-7.044-9.312-.245-4.227-2.389-9.679-7.964-8.454-5.207 1.164-7.473 7.658-7.596 12.006-.062 4.35 1.776 10.169 6.799 9.863 3.859-.245 6.738 3.369 6.861 8.882.062 5.329 3.002 11.456 8.822 11.456 6.187.061 9.617-5.207 9.74-12.559.123-6.371 4.043-10.965 8.27-11.394 4.411-.49 8.454 3.37 8.943 10.414.429 7.105 4.043 13.355 13.599 13.355 10.354 0 13.109-7.842 12.926-15.377-.184-7.412 5.453-12.558 12.312-13.538 7.475-.98 15.254-6.616 14.273-17.949-.918-11.149-9.557-14.028-17.396-12.313-9.006 2.021-13.6 8.944-13.477 16.111.121 7.106-3.125 13.354-10.169 14.212-6.8.797-9.924-4.472-10.353-10.72-.428-6.186-4.656-11.025-11.149-9.616zM146.254 105.76c9.434 0 16.846-6.125 15.865-15.927-1.041-9.556-9.371-14.641-18.438-13.722-8.516.858-14.703 6.739-14.09 15.376.675 8.822 7.841 14.273 16.663 14.273z" fill="#e8ae30"/></g></svg>