<svg xmlns="http://www.w3.org/2000/svg" width="2500" height="2500" viewBox="0 0 192.756 192.756"><g fill-rule="evenodd" clip-rule="evenodd"><path fill="#fff" d="M0 0h192.756v192.756H0V0z"/><path d="M38.957 96.752c1.032-.206 2.064-.516 2.993-1.135.929-.516 1.651-1.341 2.167-2.374.619-1.032.826-2.374.722-3.818-.206-1.548-.619-2.787-1.341-3.509-.723-.826-1.548-1.342-2.58-1.548-1.135-.31-2.167-.31-3.2 0-1.857.413-3.303 1.238-4.231 2.477-.929 1.238-1.342 2.58-1.342 4.128.104 1.445-.31 2.683-.929 3.819-.722 1.032-1.754 1.754-3.199 1.96-1.445.104-2.477-.206-3.096-1.135-.723-.825-1.032-1.961-1.135-3.302-.104-1.239-.619-2.271-1.342-3.096-.825-.723-1.857-1.032-3.303-.826a5.163 5.163 0 0 0-2.786 1.858c-.723.825-1.136 1.961-1.136 3.302-.103 1.342-.413 2.477-.929 3.406-.516.928-1.238 1.547-2.167 1.65-.929.104-1.651-.309-2.064-1.135-.516-.826-.826-1.754-.826-2.683l-.413-1.755c-.207-.619-.517-1.032-1.032-1.445-.516-.31-1.032-.413-1.858-.207-.722.104-1.238.517-1.754 1.032a7.814 7.814 0 0 0-.929 1.858 4.777 4.777 0 0 0-.413 1.961l.31 1.857c.104.619.413 1.135.826 1.652a1.907 1.907 0 0 0 1.651.516c.826 0 1.445.309 1.961.928.516.723.722 1.549.826 2.684 0 1.238.31 2.271.929 3.199.619 1.033 1.548 1.549 2.683 1.549 1.342 0 2.271-.516 2.993-1.445.619-.93.929-2.168 1.032-3.611 0-1.445.413-2.479 1.032-3.303.723-.826 1.445-1.342 2.374-1.445.929-.104 1.755.207 2.374.93.723.824 1.135 1.857 1.239 3.301.103 1.549.516 2.787 1.444 3.82.826 1.135 2.271 1.65 4.128 1.65 1.445 0 2.477-.311 3.303-.93.723-.619 1.342-1.342 1.548-2.373.31-.93.516-1.857.413-2.992 0-1.549.516-2.787 1.445-3.717 1.032-1.03 2.167-1.546 3.612-1.753zM43.911 107.072c1.238.93 2.786 1.445 4.644 1.549 1.96-.104 3.612-.619 4.851-1.754 1.239-1.137 1.754-2.787 1.651-4.748-.31-2.064-1.135-3.51-2.581-4.438-1.445-1.033-3.096-1.342-4.954-1.238-1.857.205-3.199.928-4.335 1.961-1.032 1.135-1.548 2.578-1.445 4.334.105 1.858.827 3.303 2.169 4.334zM96.339 106.867l-4.335-7.844-.825-.93c-.413-.207-.826-.412-1.342-.412h-5.573c-.826 0-1.548.516-2.064 1.445l-3.405 6.191-.516.619-.723.207h-1.548c-.62.102-.826-.311-.826-1.033v-6.295c0-.723-.413-1.031-1.136-1.135h-1.754l-.62.412-.31.723v6.09l-.207 1.031-.619.207h-1.445l-.826-.104-.516-.619-3.818-6.709-.62-.723c-.207-.205-.619-.309-1.032-.309h-1.858c-.413 0-.62.104-.62.309v.619l4.748 8.359.825.723 1.032.311h13.727l1.032-.311.619-.619 4.231-7.326.723-.207h.826c.31 0 .516.104.722.207l.413.721 2.581 4.645c.413.723.207 1.033-.62 1.033h-4.128c-.516.102-1.032.309-1.238.723l-.104.309c-.207.207-.207.412 0 .516 0 .207.31.311.619.311h9.805c.413 0 .619-.104.723-.311v-.824h.002zM110.582 106.969c0-.516-.311-.723-.93-.824h-7.328c-.516.102-.824-.207-.721-.826v-6.605l-.311-.723-.723-.309h-1.857c-.311 0-.516.104-.723.309l-.205.619v8.258c0 .412.102.619.309.824l.826.311h10.732c.619-.104.93-.311.93-.826v-.208h.001zM186.336 99.023a2.455 2.455 0 0 0-.826-.93c-.414-.309-.826-.412-1.445-.412h-7.328c-.516 0-.928.205-1.342.412l-.723 1.033-3.303 7.223-.309.207-.619-.723-3.818-6.811-.723-.826c-.414-.311-.826-.516-1.445-.516h-5.469a1.9 1.9 0 0 0-1.24.516l-.928.826-4.129 7.43-.309.104-.311-.207-3.611-7.018-.93-1.135c-.309-.311-.826-.516-1.342-.516h-11.869c-.619 0-1.135.205-1.547.516-.311.207-.619.619-.826 1.135l-3.199 6.295-.826.93-.824-.207-3.303-2.684-.311-.619c0-.205.104-.516.412-.824l3.82-3.818.102-.518c0-.102-.205-.205-.412-.205h-2.373c-.723 0-1.342.309-1.961.928l-2.58 2.58c-.619.619-1.24.93-1.961.93h-2.064c-.516 0-.826-.311-.826-.826v-2.477c0-.723-.412-1.135-1.135-1.135h-1.549c-.619 0-1.031.412-1.135 1.135v8.051c.104.721.412 1.135 1.135 1.135h1.652c.723 0 1.031-.414 1.031-1.135v-2.064c0-.619.311-.93.826-.826h1.961l1.238.207.723.516 2.58 2.168c.723.824 1.65 1.238 2.477 1.135h4.852c.824 0 1.443-.311 1.857-1.135l3.404-7.018c.207-.207.414-.311.826-.414h1.135c.311.104.518.207.621.414l.102.721v6.193c0 .412.104.723.414.928l.824.207h1.549l.723-.207.412-.824v-6.297c-.104-.721.104-1.031.619-1.135h1.24c.516.104.928.414 1.135 1.135l2.992 6.297c.412.721 1.033 1.135 1.961 1.135h4.336c.617 0 1.031-.104 1.34-.311l.723-.824 3.613-6.605.412-.516a.79.79 0 0 1 .516-.207h1.342l.518.207.412.516 2.684 4.85c.309.723.205 1.135-.414 1.033h-3.922l-.928.205-.516.518-.104.412c-.104.412.104.723.619.723h12.488l1.238-.311.619-.824 2.992-6.502c.207-.619.619-.826 1.033-.826h2.58c.412 0 .721.104.824.207l.414.619 2.992 6.502.516.824 1.137.311h1.547l.723-.311c.104-.205.104-.516 0-.824l-3.506-7.846z" fill="#526b8d"/></g></svg>