<svg xmlns="http://www.w3.org/2000/svg" width="2500" height="2500" viewBox="0 0 192.756 192.756"><g fill-rule="evenodd" clip-rule="evenodd"><path fill="#fff" d="M0 0h192.756v192.756H0V0z"/><path d="M25.838 88.124c-.552-1.532-2.206-5.973-11.793-5.973-1.715 0-10.384 0-10.384 6.677 0 3.4 2.879 5.636 8.025 6.341l5.33.735c3.186.397 4.84 1.347 4.84 2.786 0 1.93-2.941 3.094-6.494 3.094-5.881 0-7.535-2.357-8.332-3.98L2.834 99.12c.521 1.686 2.849 6.402 12.405 6.402 5.942 0 10.966-1.961 10.966-7.229 0-3.737-2.94-5.667-7.934-6.433l-5.268-.796c-4.441-.552-4.993-1.562-4.993-2.512 0-2.052 2.971-2.787 5.912-2.787 5.299 0 7.106 1.715 7.811 3.707l4.105-1.348zM36.702 105.521c4.502 0 9.22-2.236 9.22-8.791 0-4.411-2.665-8.76-9.22-8.76-6.555 0-9.22 4.349-9.22 8.76 0 6.555 4.717 8.791 9.22 8.791zm0-3.248c-3.4 0-5.36-2.113-5.36-5.605 0-3.858 2.45-5.451 5.36-5.451 2.879 0 5.36 1.592 5.36 5.451 0 3.492-1.961 5.605-5.36 5.605zM48.136 104.969h3.798V93.637c.95-1.164 2.175-2.419 5.207-2.419 2.543 0 3.523 1.378 3.523 4.625v9.126h3.798V94.433c0-5.023-3.001-6.463-6.432-6.463-3.339 0-4.962 1.439-6.157 2.604v-2.052h-3.737v16.447zM66.9 110.115c.674.246 1.838.49 3.308.49 3.002 0 5.391-1.225 6.861-4.318l8.546-17.766H81.45l-5.575 12.008L70.3 88.521h-4.166l6.585 13.568c.521 1.072.674 1.809.674 2.574 0 1.256-1.042 2.572-4.166 2.572-1.011 0-1.838-.246-2.328-.367v3.247h.001zM109.09 104.969h3.463l7.136-16.876h.061v16.876h3.859V82.702h-5.728l-7.074 16.509-6.953-16.509h-5.852v22.267h3.859V88.093h.063l7.166 16.876zM143.775 88.521h-3.799v11.332c-.949 1.164-2.174 2.42-5.207 2.42-2.541 0-3.521-1.377-3.521-4.625v-9.127h-3.799v10.537c0 5.023 3.002 6.463 6.432 6.463 3.34 0 5.023-1.439 6.158-2.604v2.051h3.736V88.521zM162.631 91.83c-2.48-3.461-6.555-3.89-8.422-3.89-6.402 0-7.75 3.522-7.75 5.238 0 2.512 1.287 4.502 7.504 5.299 4.043.551 4.963.674 4.963 1.93 0 1.439-1.838 2.051-3.859 2.051-2.389 0-4.688-.674-6.004-2.816l-3.217 1.867c1.41 1.746 3.186 4.014 8.854 4.014 2.664 0 8.209-.553 8.209-5.391 0-4.074-4.105-4.749-8.607-5.33-2.268-.306-3.859-.521-3.859-1.808 0-.918.918-1.991 3.676-1.991 3.461 0 4.777 1.807 5.359 2.573l3.153-1.746zM165.262 104.969h3.797V88.521h-3.797v16.448zm0-19.449h3.797v-3.37h-3.797v3.37zM185.939 99.088c-.336 1.471-1.99 3.186-5.268 3.186-3.646 0-5.33-2.633-5.33-5.788 0-2.634 2.053-5.268 5.635-5.268 2.85 0 4.473 1.653 4.84 2.971h3.799c-.275-2.788-2.848-6.249-8.883-6.218-5.85.03-9.25 4.043-9.25 8.362 0 6.615 4.318 9.189 9.588 9.189 6.033 0 8.33-4.135 8.852-6.434h-3.983z"/></g></svg>