<svg xmlns="http://www.w3.org/2000/svg" width="2500" height="2500" viewBox="0 0 192.756 192.756"><g fill-rule="evenodd" clip-rule="evenodd"><path fill="#fff" d="M0 0h192.756v192.756H0V0z"/><path d="M9.558 97.514v-8.869h5.331c.416 1.708 1.821 3.161 4.023 4.152 4.559 2.013 10.247 2.389 15.342 1.01 1.241-.333 2.158-.96 2.601-1.774.537-.967.008-2.052-1.285-2.656-1.026-.47-2.107-.771-3.349-.932a58.013 58.013 0 0 0-4.148-.427l-5.511-.404a34.351 34.351 0 0 1-7.039-1.206c-3.823-1.089-6.349-3.416-6.616-6.095-.27-2.679 1.771-5.194 5.343-6.588 1.833-.697 3.666-1.147 5.75-1.414 5.789-.686 11.398-.157 16.631 1.571.192.066.411.07.611.011.196-.059.337-.172.384-.305l.403-1.136h5.226v8.398h-5.401c-.792-1.865-2.683-3.361-5.366-4.246-3.776-1.234-7.912-1.485-11.982-.725-.885.157-1.645.419-2.338.803-.889.505-1.312 1.242-1.155 1.994.161.756.874 1.391 1.939 1.727 1.653.517 3.271.838 5.088 1.007l7.321.639c2.205.204 4.187.489 6.313.909 2.812.548 5.053 1.731 6.447 3.392 1.395 1.657 1.696 3.509.87 5.319-1.03 2.295-3.396 4.125-6.725 5.194-1.41.434-2.777.729-4.312.92-6.181.834-12.271.211-17.743-1.813a.79.79 0 0 0-.438-.028c-.149.036-.263.106-.317.205l-.771 1.367H9.558zm48.451-11.952c.133 1.786.631 3.396 1.563 5.076.721 1.25 1.907 2.264 3.58 3.055 3.631 1.677 8.617 1.599 12.115-.192 1.735-.901 2.973-1.998 3.776-3.333 1.175-1.97 1.684-3.901 1.598-6.008-.113-1.782-.725-3.393-1.899-5.01-1.653-2.319-5.178-3.815-9.15-3.882-2.303-.02-4.418.404-6.294 1.269-2.354 1.085-3.928 2.585-4.61 4.395-.603 1.559-.822 3.027-.677 4.633v-.003h-.002zm-9.181 4.591c-1.825-3.858-1.571-7.755.756-11.5 1.802-2.789 5.304-4.833 9.8-5.723a50.27 50.27 0 0 1 10.156-.897c3.502 0 6.687.341 9.996 1.069 4.524 1.007 7.967 3.169 9.639 6.048 2.131 3.6 2.346 7.309.631 11.002-.686 1.492-1.79 2.761-3.416 3.92-1.79 1.297-3.89 2.213-6.428 2.809-3.439.787-6.768 1.162-10.423 1.17-3.693.016-7.058-.359-10.528-1.17-2.628-.588-4.813-1.504-6.706-2.809-1.633-1.157-2.757-2.426-3.477-3.919zm41.009-17.7h17.245l20.027 17.885V77.682c.004-.529-.305-1.011-.885-1.387s-1.328-.58-2.15-.58h-3.865v-3.263h18.396v3.263h-2.684c-.846 0-1.617.208-2.213.591s-.912.881-.908 1.426v19.781h-9.412l-21.672-19.232.008 14.022c.016.533.336 1.014.928 1.386.596.372 1.352.572 2.182.568h3.938v3.255H89.837v-3.255h3.196c.799 0 1.527-.192 2.091-.557.568-.364.862-.834.854-1.347V77.435c-.004-.466-.282-.889-.795-1.218-.513-.329-1.175-.501-1.904-.501h-3.443v-3.263h.001zm60.319 25.061v-3.255h3.955c.82 0 1.564-.196 2.146-.564.584-.372.898-.85.902-1.375v-5.17l-9.707-9.804c-1.025-1.034-2.766-1.642-4.676-1.629h-2.449v-3.263h22.029v3.263h-3.596c-.486.003-.92.176-1.148.451-.223.274-.199.603.066.861l6.68 6.424 6.662-6.553c.242-.235.262-.533.055-.78-.207-.25-.604-.403-1.043-.403h-3.85v-3.263h18.068v3.263h-1.84c-1.986-.008-3.793.611-4.881 1.676l-10.191 9.784v5.252c-.008.49.273.94.807 1.289.537.349 1.232.537 1.998.541h4.355v3.255h-24.342z" fill="#cd352c"/><path d="M17.857 118.586h4.152c2.53-.004 4.81-.885 5.848-2.268 1.32-1.721 1.406-3.592.247-5.352-.964-1.473-3.353-2.432-5.993-2.412h-4.253v10.032h-.001zm-9.353 1.758v-1.758h2.037c.458-.004.877-.109 1.207-.303.329-.195.505-.445.513-.725v-7.885c.004-.305-.188-.578-.544-.795-.36-.211-.823-.324-1.328-.32H8.504v-1.768h13.815a49.1 49.1 0 0 1 4.136.186c3.423.281 6.279 1.605 7.603 3.518 1.39 2.016 1.324 4.182-.188 6.164-1.183 1.586-3.388 2.73-6.176 3.201a33.038 33.038 0 0 1-5.625.484H8.504v.001zm29.909 0v-1.758h2.111c.435-.004.831-.102 1.136-.291.309-.184.47-.426.466-.686v-8.131c0-.25-.157-.477-.455-.654-.297-.176-.681-.27-1.101-.266h-2.158v-1.768H51.6v1.764h-2.303c-.415 0-.795.09-1.089.262-.293.178-.451.404-.451.65v8.221c-.004.244.145.463.427.635.282.17.65.264 1.05.264h2.378v1.758H38.413zm38.984 0h-2.895l-.83-1.305c-.732.432-1.504.752-2.429 1.016a18.392 18.392 0 0 1-9.812.027c-2.472-.697-4.312-1.865-5.327-3.381-1.339-1.982-1.363-4.076-.062-6.062.792-1.258 2.143-2.264 4.026-2.992 4.293-1.682 9.835-1.635 14.05.113l.556-.969h2.734v5.148h-3.212c-.02-1.02-.673-1.943-1.884-2.656-1.207-.717-2.761-1.094-4.457-1.094-1.908-.008-3.647.514-4.779 1.43-.889.713-1.426 1.484-1.637 2.367-.353 1.434-.192 2.783.501 4.174.478 1.016 1.559 1.834 3.098 2.344 1.825.592 4.058.461 5.656-.326.756-.363 1.183-.893 1.187-1.473v-.592c.004-.234-.145-.453-.423-.621-.278-.17-.639-.26-1.034-.26h-2.793l-.004-1.703h13.529v1.703h-2.24c-.408 0-.78.094-1.07.266-.29.174-.446.396-.45.639v4.207h.001zm6.279 0v-1.758h2.107c.439-.004.834-.102 1.14-.291.31-.184.47-.426.466-.686v-8.131c0-.25-.16-.477-.458-.654-.294-.176-.682-.27-1.097-.266h-2.158v-1.768h13.188v1.764h-2.307c-.411 0-.791.09-1.085.262-.293.178-.451.404-.451.65v8.221c-.004.244.145.463.427.635.282.17.65.264 1.05.264h2.377v1.758H83.676zm23.238 0v-1.758h2.852c.498 0 .951-.113 1.305-.326.348-.211.533-.484.525-.783v-8.922h-1.936c-1.637.004-3.105.596-3.725 1.5-.455.693-.658 1.371-.635 2.115h-2.922l.004-5.379h24.248v5.379h-3.062c.055-.76-.141-1.457-.615-2.166-.604-.869-2.012-1.441-3.588-1.449h-2.043v8.902c.004.307.199.588.562.803.365.217.83.33 1.344.326h2.773v1.758h-15.087zm30.729-6.164h6.4l-3.057-4.76-3.343 4.76zm-9.35 6.164v-1.758h.537c1.135 0 2.152-.408 2.588-1.035l7.842-10.76h5.672l7.598 10.74c.451.631 1.469 1.043 2.613 1.055h.541v1.758h-13.178v-1.762h2.645c.404 0 .764-.113.99-.314.229-.195.279-.441.135-.666l-.973-1.48h-9.027l-1.113 1.543c-.148.205-.117.439.09.623.209.189.549.299.926.299h2.887v1.758h-10.773v-.001zm32.779 0v-1.758h2.061c.455 0 .869-.102 1.191-.295.324-.191.496-.438.496-.709v-8.186c0-.227-.145-.438-.418-.6-.271-.16-.623-.242-1.008-.242h-2.322v-1.764h13.764v1.764h-2.93c-.412 0-.783.09-1.072.262-.291.172-.447.396-.447.643v9.127h6.74c1.449-.008 2.75-.502 3.381-1.285.49-.639.721-1.277.713-1.979v-.666h2.945v5.688h-23.094z"/></g></svg>