<svg height="2500" viewBox="16.7 19.5 865 1358.5" width="1613" xmlns="http://www.w3.org/2000/svg"><path d="m877 20.6c-4.1 2.3-28 13.4-28.8 13.4-.5 0-1.8 1-3 2.2-1.7 1.9-2.2 4-2.7 12.3-.3 5.5-1.2 19-2 30-2.4 33.5-4.4 62.7-6 90-.8 14.3-2 33.6-2.6 43-3.3 52.6-4.7 147.2-3 201.5 2.6 83.8 13.3 231.6 16.9 235.2.7.7 1.8.5 3.3-.5 1.3-.8 8.1-3.8 15.1-6.8 6.9-2.9 13.5-6 14.6-6.8 1.9-1.6 2-5.2 2.5-307.3.4-231.3.2-306-.7-306.7-.7-.6-2-.5-3.6.5zm-92 43.4c-3.6 1.5-10.1 4.3-14.5 6-10.8 4.4-12.5 6.4-12.5 14.3 0 3.4-.6 13.8-1.5 23.2-3.3 38.3-6.7 85.7-9 126-.8 14.8-2 36-2.6 47-.7 11-1.4 54-1.7 95.5-.4 77.7.1 96.8 4.3 161.5 3.9 59.7 11.4 144.6 13.2 149.2.7 1.8 1.4 1.7 9-1.8 8.1-3.7 12.7-5.8 20.8-9.4 3.3-1.4 7.4-3.3 9.1-4.1l3.1-1.6 1.7-23.6c.9-13 2.3-30.5 3.1-38.7.8-8.3 1.5-18.8 1.6-23.5 0-4.7.5-12.6 1-17.5.5-5 1.3-33.1 1.8-62.5.6-29.4 1.5-74.7 2.2-100.5.6-25.9.9-54.7.5-64-2.8-75.6-5.8-127.4-10.1-171.5-.9-8.5-1.5-17.3-1.5-19.5s-.7-10.5-1.5-18.5c-3.3-30.5-4.5-43.9-5.1-55s-1.4-14.1-3.8-13.9c-.6 0-4 1.3-7.6 2.9zm-83.5 39c-3.3 1.6-8.2 3.9-11 5.1-13.3 5.7-17.3 8-17.9 10.2-.3 1.2-.8 8.9-1.1 17.2-.6 14.7-2.1 35.7-5 68.5-.9 9.1-1.5 18.7-1.5 21.5 0 2.7-.6 13.8-1.5 24.5-7.1 92.1-9.5 198.3-6 268 2.9 58.5 7.6 124.8 11.6 164 .6 5.8 1.4 15.7 1.9 22 1.1 13.1 2.6 23 3.7 24.1.5.4 3.1-.3 5.8-1.6 4.6-2.1 9.9-4.5 21-9.4 14.2-6.3 14.3-6.4 14.9-9.6.2-1.6 1-11.1 1.6-21s1.8-27.7 2.6-39.5 1.4-25.1 1.4-29.5.6-22.9 1.5-41c1.8-39.6 3.4-102 4.2-158 .4-30.3.2-50.3-1-76.5-2.4-50.4-5.8-102.1-9.2-137-.9-8.5-1.5-17.5-1.5-19.9 0-2.5-.7-10.1-1.5-17-3-26.4-3.9-36.1-4.4-51.5-.4-9.3-1-16.1-1.6-16.2-.5-.2-3.7 1-7 2.6zm-88.5 41.6c-13.8 5.8-22 9.4-24 10.4-.9.4-1.6 2.3-1.7 4.6-.2 2.1-1 10.4-1.8 18.4-10.5 99.1-15.5 195.1-15.5 295.5 0 54.8 4.1 137.6 9.5 193.5.9 8.5 1.5 17.3 1.5 19.5 0 3.6.8 11.8 4.1 41.5.6 5.2 1.5 16.2 1.9 24.3.4 8.2 1.2 15.3 1.8 15.9.7.7 6.1-1.4 16.6-6.6 8.6-4.2 16-7.6 16.4-7.6s2-1 3.5-2.3c2.7-2.1 2.8-2.6 3.8-16.1.5-7.7 1.2-14.3 1.5-14.7.3-.5.9-7.3 1.4-15.1.5-7.9 1.4-20.2 1.9-27.3 1.6-18.9 3.8-62.1 5.7-109 2.5-59.5 2.5-184.6.1-223-3.3-53.5-4.7-75.1-5.8-88.5-.6-7.4-1.4-19.8-1.9-27.5-.4-7.7-1.3-19.9-1.9-27-.6-7.2-1.6-19.3-2.2-27-2.1-27-2.7-32.6-3.9-34-1.6-1.9-1.1-2-11 2.1zm-84 39.1c-2.8.9-16.5 6.5-19.6 7.9l-3 1.5-1.8 17.7c-3 31.2-4.5 46.5-5.7 56.7-.6 5.5-1.5 15.2-1.9 21.5s-1.3 16.4-1.9 22.5c-2.1 22-5.4 67.7-8.2 117-.6 11-1.4 43.4-1.7 72-.5 53.6.8 91.1 4.3 132 .9 9.3 1.5 19 1.5 21.5-.1 4.6 1.9 25.9 4.5 50 .8 7.4 1.5 15.1 1.5 17s.6 9.1 1.4 16c1.8 14.3 3.8 32.7 6.2 54.7 1.3 11.5 2 15.3 3.1 15.3 1.2 0 16.9-7.2 29.3-13.4l4.5-2.2 1.7-20.5c6-73.4 9.8-171 10.5-270.4.4-54.7.2-73.5-1.1-96-3.6-61.9-8.1-119.2-15.1-188.5-.8-8-1.7-17.9-2-22.1-.7-10.9-1.4-11.9-6.5-10.2zm-89.9 40.3c-2.4 1.1-4.9 2-5.6 2s-2.3.8-3.5 1.8c-2.1 1.7-2.3 2.6-2.1 9.3.1 4.1-.5 11.7-1.3 16.9s-2.2 14.9-3.1 21.5-2.3 16.3-3 21.5c-6.7 46.1-9.6 67.5-14.6 108-.6 5.2-1.5 13.8-1.9 19s-1.2 14.7-1.9 21c-4 41.7-4.5 54.7-4.5 109.5 0 56 .2 62.1 5 116.5 2.9 34.1 8.8 84.8 11.9 103.1.8 4.7 1.5 9.7 1.5 11s.7 6.4 1.5 11.4c3.8 22.4 4.4 26.5 5 34.9.6 8.8 1.7 12.6 3.5 12.6 1.5 0 16.3-7.2 18.3-8.8 1.2-1.1 1.7-3 1.7-6.6 0-6.2 2.6-31.1 10.5-100.6 10.4-90.2 12.4-120.6 13.2-197.3.4-39.6.2-55-1.1-75.5-2.5-39.9-6.9-86-12.1-127.2-.8-6.3-1.7-13.3-1.9-15.5-.6-6.9-2.7-23.6-4.2-33.7-.8-5.3-1.4-11.7-1.4-14.1s-.5-6.9-1.1-9.8c-.6-3-1.4-11.4-1.7-18.8-.4-7.5-1.1-13.6-1.7-13.7-.5-.2-3 .5-5.4 1.6zm-87.6 41.3c-3.8 1.8-7.5 3.6-8.2 4-.9.6-1.1 11.3-.7 45.5.6 44.7-1.1 93.6-3.5 105.2-.6 2.5-1.7 8.5-2.6 13.5-.9 4.9-2.2 12.4-3 16.5s-2.1 11.3-2.9 16-2.2 12.4-3 17.2c-7.7 43.3-10.2 61.5-11.7 87.3-.8 13.8-.8 22.7 0 32.4.6 7.4 1.1 16.4 1.1 20 0 9.5 4.1 47.1 7.6 68.6 2.6 16.4 4.6 27.9 5.9 35 1.2 6.6 2.4 14.1 6 39.7 1.2 8.4 1.5 21.9 1.5 63.5 0 29 .4 53.4.9 54.2 1.3 2.1 17.8-5.9 18.5-9.1.3-1.2.7-27.5.9-58.3.3-46.2.7-58.2 2.1-68.5.9-6.9 2.4-17.8 3.2-24.3.8-6.4 2.1-17 2.9-23.5 8.7-69.9 12.5-112.5 12.5-139.7 0-29.5-3.5-71.1-9.5-111.5-2-13.5-4.3-30.7-5-36.5-.3-2.8-1-8.6-1.6-13s-1.4-37-1.7-72.4c-.5-41.6-1.1-64.5-1.7-64.7-.5-.1-4.1 1.2-8 2.9zm-83 39.5c-3.3 1.5-6.6 3.1-7.2 3.5-1 .6-1.3 18.8-1.3 85.3 0 70.4-.2 85.6-1.4 90.7-.8 3.4-2.2 9.6-3 13.7-1.9 9.8-4.4 22.9-6.1 31-.7 3.6-2.1 10.3-3 15s-2.3 11.4-3 15c-5.2 25.3-7.5 47.5-7.5 71 0 21.3 1.7 35.1 7.6 63.5 1.7 8.2 3.7 18 5.9 28.5 3.6 17.4 4.8 22.8 6.1 28.1 1.2 4.6 1.4 20.4 1.4 88.4 0 48.2.3 83.2.9 83.8.5.5 4.3-.8 9.5-3.2 4.7-2.2 8.7-4.2 8.8-4.3.1-.2.5-39.2.8-86.8.5-76.5.7-87.3 2.2-93.5 1-3.9 2.4-11.3 3.2-16.5.9-5.2 2.2-13.6 3-18.5 13.8-85.6 13.9-119.4.1-184.5-.7-3.6-2.1-10.3-3-15s-2.2-10.3-2.8-12.5c-.8-2.8-1.3-31.7-1.7-94.5-.4-79.4-.7-90.5-2-90.7-.8-.1-4.2 1-7.5 2.5zm-82.8 38.2c-2.7 1-5.9 2.6-7.3 3.4l-2.4 1.6-.1 134.8v134.7l-3.9 7c-17.4 31.7-18.3 44.5-3.9 56.7 2.8 2.3 5.7 5.5 6.5 7 1.2 2.3 1.4 23.7 1.4 136.7 0 95.4.3 134.2 1.1 134.7 1 .6 13-3.9 15.6-5.9 1-.7 1.3-29.1 1.3-135.6v-134.6l5.5-8.5c10.9-17.2 14.2-26.5 13.2-37.7-.7-7-2.7-10.7-10.5-19.7l-4.9-5.6-.7-11.8c-1.1-19.5-2.6-129.9-2.6-194.9 0-33.6-.3-61.8-.6-62.7-.7-2-1.6-1.9-7.7.4zm-82.9 38.2c-2.5 1.2-5 3-5.5 4.2-.6 1.5-1 597.7-.4 608.8.1 2 2.1 2.3 4.9.9.9-.5 3.6-1.7 6-2.7 2.4-1.1 4.5-2.7 4.7-3.9.3-1.1.4-138.6.3-305.5l-.3-303.5-2.5-.2c-1.4-.1-4.6.8-7.2 1.9zm-74.8 35.1-6.5 3.2-.3 305.1c-.2 276.9-.1 305.2 1.4 305.8 1.3.5 8.5-1.8 13.4-4.3 2.8-1.5 2.3-611.9-.5-612.7-.5-.2-3.9 1.1-7.5 2.9zm279.5 679.7c-32.1 3.2-62 18.2-75.4 38-8.9 13-11.1 20.5-11.1 37.5 0 15.3 1.6 21.8 8.7 34.8 2.4 4.6 14.3 16.7 20.3 20.6 5.7 3.8 15.5 8.7 22.5 11.3 16.8 6.3 28.3 8.1 51.5 8.1 16.3 0 21.2-.4 29.9-2.2 5.7-1.2 11.2-2.6 12.2-3.1 1-.6 2.5-1 3.4-1 2.8 0 20.5-8.9 26.4-13.3 15-11.1 23.1-23.7 26.6-41.7 6.3-31.7-8-60-38.5-76.3-8-4.2-19.7-8.3-31.1-10.7-9.9-2.2-33.6-3.2-45.4-2zm25.5 20.4c9.2 1.3 11.4 2 19 5.5 8.7 4 18 13 22.9 22.1 4.9 9.2 7.1 24.8 5.3 37.6-2.1 14.8-11.8 29.5-24.1 36.7-7 4-10.6 5.4-20.6 7.7-19.7 4.7-40.6-.3-53.5-13-6.7-6.6-10.6-12.8-13.7-22.4-3.2-9.8-3.3-29.3-.2-38.1 7.5-21.3 21-32.4 43.9-36.1 10-1.6 10.1-1.6 21 0zm-262.5-18.4c-26.8 4.5-44 14-51 28-2.5 4.9-2.8 6.6-2.8 15 .1 11.7 2.3 17.2 9.8 24.5 6.4 6.2 18.2 12.2 28.5 14.4 1.9.5 5.3 1.3 7.5 1.9 6.4 1.7 21.9 4 37 5.6 47.8 5.1 48.3 5.2 53 10.8 3.6 4.3 3.4 10.2-.5 15.6-3.2 4.5-6.7 6.3-17.5 9.3-9.4 2.5-37.4 2.7-48.5.3-17-3.6-26-7.3-35.4-14.4-6.4-4.9-8.5-7.7-10.6-14.5l-1.6-5h-17.9v50l10.3.3c9.8.3 10.2.2 10.2-1.8 0-3.5 1.9-6 4.5-6 1.3 0 5.4 1.1 9.2 2.4 23 7.9 40.9 11.1 62.3 11.1 27.4 0 48.1-6.2 61.3-18.4 11.5-10.7 15.5-24.7 10.8-38.3-2.6-7.7-6-12.7-12.6-18.5-12.5-11.2-28-15.3-71-18.8-33.4-2.7-45.9-5.4-49.5-10.6-4.8-6.6-.9-14 10-19.1 8.4-3.9 14.3-4.8 31.2-4.8 27.5 0 45.4 5 58.4 16.4 4.6 4.1 6.4 6.9 9.3 13.9 1.1 2.8 1.1 2.8 9.3 2.5l8.3-.3.3-21c.1-11.6 0-22-.3-23.3-.5-2.1-1.1-2.2-9-2.2-8.4 0-8.5 0-9.1 2.7-.3 1.6-.7 3.4-1 4-.4 1.5-6 1.8-6.9.4-1.3-2.2-14.4-7.4-24-9.5-14.8-3.3-19.5-3.8-35-4.2-12.4-.2-18.5.1-27 1.6zm374.7 6.2c-1.6 1.6-1.6 14 0 15.6.8.8 4.5 1.2 10 1.2 6 0 9.9.5 11.8 1.5l3 1.6v94l-2.5 2.4c-2.2 2.3-3.2 2.5-11.8 2.5-6.9 0-9.8.4-10.6 1.4-.7.9-1.1 4.1-.9 8.3l.3 6.8h80v-17l-11.5-.3c-10.3-.2-11.7-.4-13.2-2.3-1.6-1.9-1.8-5.3-1.8-37.5 0-31.7.2-35.4 1.6-35.4.9 0 6.2 4.2 11.8 9.2 5.6 5.1 13.7 12.4 18.1 16.3 4.3 3.8 8.3 7.5 8.9 8.1.6.5 7.6 6.8 15.6 13.9s14.7 13.1 15 13.4c.3.4 4.3 4 9 8.1 9.4 8.3 13.1 11.6 20.5 18.4 2.8 2.5 5.9 4.9 7 5.1 1.1.3 7.2.4 13.5.3l11.5-.3.5-57.5c.3-31.6.9-58.3 1.4-59.3 1.1-2.2 3.1-2.6 14.1-3l9-.2.3-6c.2-3.2.1-7-.3-8.2l-.5-2.3-38.3.2-38.2.3v16l9 .2c17.4.5 16.5-1.4 16.5 36.3 0 15.9-.4 29-.9 29-1.3 0-7.5-5.1-19-15.8-5.7-5.3-10.9-10.2-11.5-10.7-.6-.6-6.3-5.7-12.6-11.5-6.3-5.7-13.7-12.5-16.5-15.1-2.7-2.5-11-10.1-18.3-16.7l-13.4-12.2h-32.7c-24.1 0-33 .3-33.9 1.2zm229.2.1c-.3.8-.4 4.7-.2 8.8l.3 7.4 10 .6c5.7.3 11.5 1.2 13.5 2.1 3.6 1.6 4.7 2.7 19.5 19.3 4.9 5.5 9.3 10.5 9.9 11.1 1.7 1.8 16.6 18.2 23.9 26.3l6.7 7.5v16.1c0 11.2-.4 16.5-1.2 17.3s-4.9 1.2-11.7 1.2c-5.9 0-11.2.4-11.9.9-.9.5-1.2 3-1 8.7l.3 7.9 44.9.3c35.3.2 45.1 0 45.8-1 1.3-2.2.9-14.4-.5-15.6-.7-.6-6-1.3-11.8-1.4l-10.4-.3-.3-16.7-.2-16.7 11.7-14.2c6.5-7.8 14.7-17.6 18.3-21.9 3.6-4.2 9.9-11.7 14-16.7 10.7-12.9 12.1-13.7 24.4-14.1 5.6-.2 10.7-.9 11.4-1.4 1.2-1.1 1.7-12.3.6-15.2-.5-1.4-4.8-1.6-37.3-1.6-27.2 0-37 .3-37.9 1.2-.7.7-1.2 4-1.2 7.8s.5 7.1 1.2 7.8 3.7 1.2 6.8 1.2c5 0 5.8.3 7 2.5 1.1 2.1 1 2.8-.5 5.2-1 1.5-2.3 3.3-2.9 3.9s-2.9 3.3-5.1 6c-10.8 13.1-22.8 26.5-23.5 26.2s-5.1-5.2-12.5-14.2c-2.2-2.7-4.4-5.4-5-6-3.8-4.3-11.5-13.6-13.4-16.2-3.2-4.4-1.6-7.4 3.7-7.4 5.9 0 6.3-.7 6-9.6l-.3-7.9-45.3-.3c-37.3-.2-45.3 0-45.8 1.1zm-444.4 182.6c-14.9 3.5-27.4 12-33.2 22.6-7.5 13.6-7.7 30-.5 44 2.9 5.7 12.3 14.5 19.1 17.8 9.8 4.8 18.7 6.7 32.1 6.7 13.6 0 19.9-1.6 28.9-7.4 6.6-4.3 9.8-7.9 13.1-14.4 3.4-6.8 2.9-8.4-2.7-8-3.7.3-4.5.7-5.8 3.6-2.3 4.8-6.6 9-12.4 11.9-4.5 2.3-6.3 2.6-16.1 2.7-8.9.1-11.9-.3-15.5-1.9-16.5-7.1-24.3-24.5-19.6-43.5 2.7-10.7 8.1-17.3 17.6-21.7 4.7-2.1 7-2.5 15.8-2.5 9.5 0 10.7.2 16.7 3.1 7.2 3.6 12 8.7 13.6 14.3 1 4 3.9 5.6 7.9 4.3 2-.6 2-1.2 1.8-14.3l-.3-13.7-4.3-.3c-3.7-.3-4.3 0-5.2 2.2l-.9 2.6-6.2-3.1c-12.7-6.5-29.3-8.4-43.9-5zm581 1.1c-19.9 4-30.3 15.4-27 29.7 2.7 12.3 10.8 18.7 28.6 22.7 4 .9 8.9 1.6 11 1.6 2.2.1 9.7.9 16.7 1.9 15 2.1 17.2 3.4 17 10.2-.1 2.2-.8 4.8-1.5 5.6-4.1 5-18.6 9.9-25.5 8.7-12.1-2-23.5-7.5-29.3-14.1-2.2-2.5-4-5.6-4-6.9 0-4.5-4.7-6.7-9.1-4.4-1.7 1-1.9 2.2-1.9 14.8 0 9.4.4 14.2 1.2 15 2 2 8.6 1.5 9.8-.8 1-1.9 4.9-2.7 6.4-1.3 2.6 2.7 23.3 7.2 33 7.3 12.1 0 25.8-4.5 31.9-10.5 5.7-5.8 7.2-9.4 7.1-17.5 0-6.4-.5-8.1-2.8-11.9-7.1-11.3-16-14.9-41.4-17.2-21.1-1.8-28.6-4.9-28-11.3.2-2.2 1.5-3.9 4.5-6.2 3.6-2.7 5.4-3.3 11.9-3.9 9.3-.9 19.3 0 25.8 2.3 5.7 2 12.4 8 15.2 13.7 1.5 3.1 2.6 4.1 4.9 4.3 4.7.6 5.5-1.6 5.5-14.8 0-7.7-.4-12-1.2-12.8-2.1-2.1-6.5-1.4-8.6 1.5l-1.9 2.6-4.5-2.1c-10.6-4.9-16.1-6.3-27.8-6.7-6.3-.2-13.5 0-16 .5zm-791.3 2.6c-1.1 1.2-.8 7.9.5 9.2.7.7 3 1.2 5.3 1.2s4.6.5 5.3 1.2c1.8 1.8 1.7 58.1-.1 59.6-.7.6-3.7 1.2-6.7 1.4l-5.5.3v10h49l.3-5.3.3-5.2h-5.1c-8.7 0-9-.4-9-12.9 0-9 .3-11 1.6-11.5.9-.3 9.7-.6 19.6-.6 19.6 0 29-1.1 35.3-4.2 8.8-4.4 11.5-9.2 11.5-20.8s-2.9-16.8-11.5-20.7c-3.6-1.6-8.3-1.8-47-2.1-23.7-.2-43.4 0-43.8.4zm70.7 11.9c10.3 4.3 9.9 18-.6 22.5-4.3 1.8-6.4 2-20 1.8l-15.3-.3-.3-11.4c-.1-6.3 0-12.1.2-12.8.8-2 31.1-1.8 36 .2zm42.9-10.8c-1.3 2.7-.8 7.4.8 8.4.8.5 3.5.9 6.1.9 3.6 0 5 .4 5.8 1.9 1.6 3 1.4 56.2-.2 58.4-.9 1.1-3.1 1.7-6.8 1.9l-5.5.3v10l24.2.3 24.3.2.6-2.4c.3-1.3.4-3.7.2-5.2-.3-2.8-.6-2.9-5.8-3.2-3.7-.2-5.9-.8-6.7-1.9-1.8-2.3-1.9-57.3-.1-59.1.7-.7 3.3-1.2 5.9-1.2 5.6 0 7.1-1.5 6.7-6.7l-.3-3.8-24.2-.3c-22.3-.2-24.3-.1-25 1.5zm173.2-.7c-1 1.6-.7 29.2.3 30.2.5.5 2.7.8 4.8.6l3.9-.3 1-8.8c1.3-11.2 1.8-11.6 16.6-11.7 8.8 0 10.8.3 11.3 1.6.9 2.4.7 57.7-.3 59.2-.4.8-3.3 1.7-6.2 2l-5.4.7v9h48v-9l-5.8-.5c-3.6-.3-6.2-1.1-6.7-2-.6-.9-.9-13.7-.7-31l.2-29.5 11.6-.3c15-.3 15.6.1 16.3 11.2.2 4.3.9 8.3 1.4 8.8s2.7.8 4.8.6l3.9-.3v-31l-49.2-.3c-32.4-.1-49.4.1-49.8.8zm112.9.1c-1 1.7-1.1 6.1-.1 8.1.6 1.4 2 1.8 5.8 1.8 4.4 0 5.1.3 5.9 2.6.6 1.4 1 13 1 25.8 0 27.2.8 31.4 7 37.6 7.4 7.4 17.6 10.5 34.5 10.5 17.4 0 27.5-3.2 34.3-11.1 5.8-6.5 6.4-10.9 5.6-38.6-.8-26.8-.9-26.4 8.1-27l5-.3v-10h-41v10l5.7.3c8.8.5 8.8.5 8.8 25.9 0 11.6-.5 23.5-1.1 26.3-2.2 10.2-10.4 15.3-24.4 15.3-7.9 0-12.7-1.7-16.6-6-4.3-4.7-4.9-9.2-4.9-34.5 0-26.9 0-26.8 8.1-26.8 5.2 0 6.9-1.3 6.9-5.1 0-6.1.9-5.9-24.5-5.9-16.5 0-23.6.3-24.1 1.1zm120 .2c-.3.8-.4 3-.2 4.9.3 3.2.4 3.3 5.3 3.6 3.2.2 5.5.9 6.3 1.9 1.6 2.2 1.8 56.4.2 59.4-.9 1.5-2.2 1.9-6.6 1.9h-5.5l.3 5.3.3 5.2 23.7.3 23.8.2.6-2.4c.3-1.3.4-3.7.2-5.2-.3-2.8-.6-2.9-5.8-3.2-7.5-.4-8-1.3-8-13.9 0-10.2 0-10.3 2.6-10.9 1.4-.4 8.9-.4 16.6-.2l14.1.4 2.7 3.1c2.4 2.7 2.7 3.9 3.2 13.1.7 11.1 1.9 14 8.1 18.4 2.8 2 4.4 2.3 13.2 2.3 8.4 0 10.4-.3 12.7-2 3.3-2.5 4.9-7.2 5.1-15.5l.2-6.5-4.2-.3c-2.4-.2-4.3 0-4.4.5 0 .4-.1 2.7-.3 5.1-.3 5.3-3.6 9.3-6.4 7.6-1.4-.9-1.8-3.1-2.3-11.3-.6-11.3-2-14.5-7.7-17-1.8-.8-3.2-1.8-3.2-2.2s1.9-1.7 4.3-2.8c4.3-2.1 7.9-5.4 11-10.1 2.2-3.2 2.2-12.8.2-17.7-2.1-5-4.1-7-10-10.2l-5-2.6-42.3-.3c-36.4-.3-42.3-.1-42.8 1.1zm68.8 10.9c8.1 2.4 11.6 12.1 6.8 18.8-3.5 5-8.6 6.1-25.5 5.8l-15-.3-.3-11.4c-.1-6.3 0-12.1.2-12.8.7-1.7 28.1-1.8 33.8-.1zm54.4-10.6c-1 2.6-.7 6.9.6 8.2.7.7 3.2 1.2 5.6 1.2 8.7 0 8.2-1.8 8.2 31.6v29.4l-2.6 1c-1.4.6-4.5 1-6.9 1-3.9 0-4.5.3-5.1 2.5-.3 1.4-.3 3.6 0 5l.6 2.5h49c47.4 0 49-.1 50-1.9.5-1.1 1-7.6 1-14.5 0-13-.8-15.6-4.8-15.6-3.2 0-4.2 1.6-5.2 8.9-1.3 9.2-2.2 10.8-6.8 12.1-4.9 1.3-43.7 1.3-46.3 0-1.7-1-1.9-2.2-1.9-12 0-5.9.3-11.5.6-12.4.5-1.3 2.5-1.6 11.5-1.6 12.2 0 12.9.4 12.9 7.7 0 4.6 1.4 6.3 5.1 6.3 5.5 0 5.9-1.5 5.9-20.5 0-16.2-.1-17.5-1.9-18.5-2.6-1.4-6.4-1.3-7.9.2-.7.7-1.2 3.3-1.2 5.9 0 6.7-2 7.9-13.2 7.9-11.8 0-11.9-.1-11.6-14.4l.3-11.1 24.1-.3c30.3-.3 29-1 30.8 16.4.4 4.3 1.3 5.4 4.5 5.4 4.7 0 5.1-1.3 5.1-16 0-9.2-.4-14-1.2-14.8-.9-.9-13.4-1.2-49.9-1.2-43.5 0-48.8.2-49.3 1.6z"/></svg>