<svg xmlns="http://www.w3.org/2000/svg" width="2500" height="2500" viewBox="0 0 192.756 192.756"><g fill-rule="evenodd" clip-rule="evenodd"><path fill="#fff" d="M0 0h192.756v192.756H0V0z"/><path d="M35.988 139.076c1.103 0 1.96-.674 2.328-1.287s4.778-8.576 5.084-9.066c.49-.797.735-1.102 1.531-1.102h1.103c.919 0 1.164.428 1.593 1.225.429.734 3.186 5.697 3.492 6.371.49.857.306 1.408-.858 1.408H44.81c-.735 0-1.471.43-1.776.92l-.185.367c-.245.49-.122 1.164.858 1.164H57c.918 0 1.409-.613.918-1.531-.613-1.043-5.452-9.863-5.881-10.598-.551-.92-1.409-1.777-2.879-1.838-1.225-.062-6.677-.062-7.596 0-1.103.061-1.96.674-2.695 1.898-.429.734-4.288 7.719-4.656 8.453-.428.674-.735 1.164-1.593 1.164h-2.205c-.796 0-1.042-.428-1.042-1.531v-8.516c0-.734-.49-1.408-1.47-1.408h-2.389c-.796 0-1.286.797-1.286 1.408v8.332c0 1.348-.245 1.715-1.103 1.715h-1.96c-.919 0-1.348-.184-1.838-1.041s-4.778-8.453-5.207-9.127c-.367-.674-.98-1.348-2.144-1.348H9.401c-.98 0-1.042.795-.735 1.285 0 0 5.819 10.293 6.31 11.211.551.918 1.593 1.471 2.511 1.471l18.501.001zM64.964 126.518c0-.734-.551-1.408-1.348-1.408h-2.45c-.796 0-1.348.674-1.348 1.348v11.148c0 .918.735 1.471 1.593 1.471h14.457c.796 0 1.287-.49 1.287-1.104v-.244c0-.613-.49-1.104-1.287-1.104h-9.801c-.796 0-1.103-.244-1.103-1.102v-9.005zM184.111 137.605c-.244-.674-4.227-9.434-4.777-10.658-.553-1.164-1.287-1.717-3.002-1.838-1.594-.123-8.332-.062-9.801 0-1.533.061-2.328.857-2.881 2.021-.611 1.102-3.613 8.023-3.98 8.883-.43.795-.49 1.102-.857 1.102-.307 0-.49-.244-.92-.98a709.226 709.226 0 0 1-5.084-9.127c-.43-.92-1.348-1.777-2.941-1.898-1.162-.062-6.125-.062-7.35 0-1.227.061-2.389 1.041-2.941 1.838-.49.857-3.369 6.064-5.084 9.188-.49.797-.551.98-.92.98-.367 0-.551-.307-.979-1.041-.43-.857-3.799-7.535-4.35-8.76-.613-1.287-1.471-2.145-3.062-2.205-1.594-.123-14.887-.123-15.99 0-1.775.121-2.695.918-3.246 2.205-.428.918-3.859 7.779-4.227 8.576-.43.797-.797 1.164-1.225 1.164-.797 0-1.164-.184-1.898-.797-1.41-1.164-3.125-2.512-3.554-3.062-.49-.49-.735-1.104.062-1.898.674-.613 4.778-4.779 5.268-5.27.367-.367.123-.918-.551-.918h-3.125c-.98 0-1.838.367-2.695 1.225-.858.797-3.431 3.492-3.431 3.492-.858.918-1.715 1.225-2.695 1.225h-2.757c-.735 0-1.103-.307-1.103-1.104v-3.307c0-.858-.613-1.531-1.531-1.531h-2.083c-.857 0-1.531.611-1.531 1.531v10.965c0 .857.551 1.471 1.409 1.471h2.389c.796 0 1.348-.553 1.348-1.471v-2.818c0-.857.306-1.225 1.103-1.225h2.695c1.226 0 2.206.613 2.634 1.041 0 0 2.634 2.205 3.37 3.002 1.041 1.041 2.266 1.471 3.429 1.471h6.555c1.043 0 2.021-.43 2.512-1.471.49-1.104 3.859-8.209 4.105-8.637.244-.613.551-1.41 1.592-1.41h1.531c.857 0 .98.736.98 1.471v8.393c0 1.041.857 1.531 1.654 1.531h2.082c.797 0 1.471-.49 1.471-1.471v-8.514c0-.859.184-1.41.857-1.41h1.717c.734 0 1.162.551 1.531 1.471.428.857 3.674 7.719 4.104 8.576.43.797 1.287 1.471 2.572 1.471h5.943c1.408 0 2.326-.674 2.695-1.471.428-.797 4.961-8.943 4.961-8.943.307-.553.553-1.041 1.164-1.041h1.777c.734 0 .979.428 1.225.918.367.613 3.309 6.004 3.676 6.678.49.918.367 1.408-.49 1.408h-5.33c-1.164 0-1.531.43-1.898.92-.061.121-.246.367-.246.488-.184.553.186 1.043.859 1.043h16.846c1.348 0 2.266-.857 2.572-1.471.367-.674 3.615-8.148 3.982-8.883s.734-1.102 1.469-1.102h3.492c1.104 0 1.287.611 1.594 1.102.428.734 3.613 8.025 3.98 8.883.369.734.98 1.471 2.268 1.471h2.145c.917-.001 1.285-.737.917-1.472zM74.52 58.459c-5.575 1.225-9.495 6.248-9.862 12.497-.307 6.494-2.879 11.884-7.535 12.436-4.472.551-6.738-4.962-7.044-9.312-.245-4.227-2.389-9.678-7.964-8.454-5.207 1.164-7.473 7.657-7.596 12.007-.062 4.35 1.776 10.169 6.799 9.863 3.859-.245 6.738 3.369 6.861 8.883.062 5.328 3.002 11.455 8.822 11.455 6.187.061 9.617-5.207 9.74-12.558.123-6.371 4.043-10.965 8.27-11.395 4.411-.49 8.454 3.37 8.943 10.414.429 7.107 4.043 13.355 13.599 13.355 10.354 0 13.109-7.842 12.926-15.376-.184-7.412 5.453-12.558 12.312-13.538 7.475-.98 15.254-6.616 14.273-17.949-.918-11.149-9.557-14.028-17.396-12.313-9.006 2.021-13.6 8.944-13.477 16.111.121 7.105-3.125 13.354-10.169 14.212-6.8.796-9.924-4.472-10.353-10.72-.428-6.187-4.656-11.027-11.149-9.618zM146.254 107.773c9.434 0 16.846-6.127 15.865-15.928-1.041-9.556-9.371-14.641-18.438-13.722-8.516.857-14.703 6.738-14.09 15.376.675 8.821 7.841 14.274 16.663 14.274z"/></g></svg>