<svg xmlns="http://www.w3.org/2000/svg" width="2500" height="2500" viewBox="0 0 192.744 192.744"><g fill-rule="evenodd" clip-rule="evenodd"><path fill="#fff" d="M0 0h192.744v192.744H0V0z"/><path d="M7.152 91.742c.461 0 .829.399.829.859 0 .43-.368.829-.829.829a.846.846 0 0 1-.829-.829c0-.46.369-.859.829-.859zm3.653-.123a.97.97 0 0 1 .982.982c0 .522-.43.952-.982.952a.957.957 0 0 1-.951-.952c0-.552.43-.982.951-.982zm3.685-.153c.614 0 1.104.491 1.104 1.135a1.1 1.1 0 0 1-1.104 1.105c-.614 0-1.136-.491-1.136-1.105 0-.644.521-1.135 1.136-1.135zm3.653-.154c.706 0 1.289.583 1.289 1.289 0 .675-.583 1.259-1.289 1.259a1.285 1.285 0 0 1-1.259-1.259c0-.705.583-1.289 1.259-1.289zM7.152 87.781c.461 0 .829.369.829.829s-.368.829-.829.829c-.46 0-.829-.368-.829-.829s.369-.829.829-.829zm3.653-.122c.553 0 .982.43.982.952a.97.97 0 0 1-.982.982.963.963 0 0 1-.951-.982c0-.523.43-.952.951-.952zm3.685-.154a1.1 1.1 0 0 1 1.104 1.105c0 .614-.491 1.136-1.104 1.136a1.154 1.154 0 0 1-1.136-1.136c0-.614.521-1.105 1.136-1.105zm3.653-.153c.706 0 1.289.583 1.289 1.259 0 .706-.583 1.289-1.289 1.289-.676 0-1.259-.583-1.259-1.289 0-.676.583-1.259 1.259-1.259zM3.468 83.975c.399 0 .706.307.706.675a.695.695 0 0 1-.706.706.689.689 0 0 1-.676-.706c0-.368.308-.675.676-.675zm3.684-.154c.461 0 .829.368.829.829s-.368.829-.829.829c-.46 0-.829-.369-.829-.829s.369-.829.829-.829zm3.653-.153c.553 0 .982.46.982.982a.97.97 0 0 1-.982.982.963.963 0 0 1-.951-.982c0-.522.43-.982.951-.982zm3.685-.123c.614 0 1.104.491 1.104 1.105s-.491 1.136-1.104 1.136c-.614 0-1.136-.522-1.136-1.136s.521-1.105 1.136-1.105zm3.653-.153c.706 0 1.289.552 1.289 1.258s-.583 1.258-1.289 1.258c-.676 0-1.259-.552-1.259-1.258s.583-1.258 1.259-1.258zM7.152 95.732c.461 0 .829.369.829.829s-.368.829-.829.829c-.46 0-.829-.369-.829-.829s.369-.829.829-.829zm3.653-.153a.97.97 0 0 1 .982.982.99.99 0 0 1-.982.982c-.521 0-.951-.461-.951-.982 0-.552.43-.982.951-.982zm3.685-.153c.614 0 1.104.522 1.104 1.136a1.1 1.1 0 0 1-1.104 1.105c-.614 0-1.136-.491-1.136-1.105s.521-1.136 1.136-1.136zm3.653-.154c.706 0 1.289.583 1.289 1.289 0 .676-.583 1.259-1.289 1.259a1.285 1.285 0 0 1-1.259-1.259c0-.706.583-1.289 1.259-1.289zm3.745-.092c.768 0 1.381.614 1.381 1.381 0 .736-.614 1.351-1.381 1.351a1.363 1.363 0 0 1-1.351-1.351c.001-.767.614-1.381 1.351-1.381zM7.152 99.693c.461 0 .829.368.829.828a.825.825 0 0 1-.829.829.826.826 0 0 1-.829-.829c0-.459.369-.828.829-.828zm3.653-.154a.97.97 0 0 1 .982.982c0 .522-.43.982-.982.982-.521 0-.951-.46-.951-.982 0-.552.43-.982.951-.982zm3.685-.153c.614 0 1.104.522 1.104 1.136a1.1 1.1 0 0 1-1.104 1.105c-.614 0-1.136-.491-1.136-1.105s.521-1.136 1.136-1.136zm3.653-.123c.706 0 1.289.554 1.289 1.259 0 .707-.583 1.259-1.289 1.259a1.264 1.264 0 0 1-1.259-1.259c0-.706.583-1.259 1.259-1.259zm3.745-.122c.768 0 1.381.613 1.381 1.381 0 .737-.614 1.382-1.381 1.382-.737 0-1.351-.645-1.351-1.382.001-.768.614-1.381 1.351-1.381zm3.991-.093c.829 0 1.474.646 1.474 1.474 0 .829-.645 1.474-1.474 1.474a1.455 1.455 0 0 1-1.474-1.474 1.456 1.456 0 0 1 1.474-1.474zm-18.727 4.605c.461 0 .829.368.829.829 0 .46-.368.828-.829.828a.825.825 0 0 1-.829-.828c0-.461.369-.829.829-.829zm3.653-.153c.553 0 .982.461.982.982a.97.97 0 0 1-.982.982.963.963 0 0 1-.951-.982c0-.521.43-.982.951-.982zm3.685-.123a1.1 1.1 0 0 1 1.104 1.105c0 .613-.491 1.136-1.104 1.136a1.154 1.154 0 0 1-1.136-1.136c0-.614.521-1.105 1.136-1.105zm3.653-.153c.706 0 1.289.552 1.289 1.259 0 .706-.583 1.259-1.289 1.259a1.265 1.265 0 0 1-1.259-1.259c0-.708.583-1.259 1.259-1.259zm3.745-.123c.768 0 1.381.614 1.381 1.382s-.614 1.381-1.381 1.381c-.737 0-1.351-.613-1.351-1.381s.614-1.382 1.351-1.382zm3.991-.092c.829 0 1.474.645 1.474 1.474 0 .828-.645 1.474-1.474 1.474a1.456 1.456 0 0 1-1.474-1.474 1.455 1.455 0 0 1 1.474-1.474zm-18.727 4.604c.461 0 .829.369.829.829s-.368.829-.829.829c-.46 0-.829-.369-.829-.829s.369-.829.829-.829zm3.653-.153c.553 0 .982.46.982.982a.97.97 0 0 1-.982.982.963.963 0 0 1-.951-.982c0-.522.43-.982.951-.982zm3.685-.123a1.1 1.1 0 0 1 1.104 1.105c0 .614-.491 1.136-1.104 1.136a1.153 1.153 0 0 1-1.136-1.136c0-.613.521-1.105 1.136-1.105zm3.653-.153c.706 0 1.289.584 1.289 1.259 0 .706-.583 1.259-1.289 1.259a1.265 1.265 0 0 1-1.259-1.259c0-.675.583-1.259 1.259-1.259zm3.745-.092c.768 0 1.381.613 1.381 1.351 0 .768-.614 1.382-1.381 1.382-.737 0-1.351-.614-1.351-1.382a1.363 1.363 0 0 1 1.351-1.351zm-.061-23.854c.768 0 1.412.645 1.412 1.412 0 .798-.645 1.412-1.412 1.412a1.409 1.409 0 0 1-1.412-1.412c0-.768.645-1.412 1.412-1.412zM3.468 87.935a.69.69 0 0 1 .706.676.695.695 0 0 1-.706.706.689.689 0 0 1-.676-.706c0-.369.308-.676.676-.676zm0 3.961c.399 0 .706.307.706.706a.688.688 0 0 1-.706.675.681.681 0 0 1-.676-.675c0-.4.308-.706.676-.706zm0 3.959c.399 0 .706.307.706.706a.69.69 0 0 1-.706.676.682.682 0 0 1-.676-.676.69.69 0 0 1 .676-.706zm0 3.961c.399 0 .706.337.706.705a.689.689 0 0 1-.706.676.682.682 0 0 1-.676-.676c0-.368.308-.705.676-.705zm0 3.991c.399 0 .706.307.706.676a.688.688 0 0 1-.706.675.681.681 0 0 1-.676-.675c0-.37.308-.676.676-.676zm0 3.961c.399 0 .706.307.706.675a.695.695 0 0 1-.706.706.689.689 0 0 1-.676-.706c0-.369.308-.675.676-.675zM54.891 93.062c-2.579.031-4.759.092-7.614-.337-2.21-.338-2.917-1.167-2.917-2.732 0-1.75 3.745-2.978 7.982-2.978 2.548 0 5.035.215 7.245 1.504 1.904 1.074 3.746 1.166 3.807 4.298l3.837.092-.123-9.302h-3.593l-.859 2.241a14.252 14.252 0 0 0-1.658-.89 29.564 29.564 0 0 0-1.781-.675c-1.197-.338-2.363-.583-3.5-.707a20.441 20.441 0 0 0-2.793-.184c-5.557 0-15.596 1.32-15.442 7.153.185 6.938 7.859 7.89 16.486 8.35 3.131.185 7.614.246 7.767 3.807.093 2.303-4.513 3.07-7.122 3.04-4.145 0-9.671-1.198-10.96-2.641-.799-.921-1.381-1.812-1.688-2.64-.338-.86-.553-1.413-.614-1.689H37.79v10.623h4.39l.062-2.364c3.837 1.535 9.179 2.333 13.231 2.333 3.623 0 6.846-.583 9.671-1.719 2.824-1.167 4.605-3.838 4.451-6.693-.336-6.478-9.792-8.013-14.704-7.89zM108.523 92.049c-1.043-2.241-2.979-4.329-5.803-6.202-2.824-1.903-6.63-2.855-11.419-2.855h-.062c-4.636.031-8.35.921-11.113 2.732-2.794 1.811-4.758 3.807-5.925 5.956-.399.798-.707 1.596-.891 2.363s-.276 1.474-.276 2.149c0 .645.062 1.32.246 2.026.153.675.429 1.412.768 2.118 1.043 2.271 3.008 4.328 5.863 6.201 2.824 1.873 6.601 2.824 11.328 2.824h.062c4.789 0 8.595-.951 11.419-2.824s4.76-3.93 5.803-6.201a15.68 15.68 0 0 0 .736-2.118c.154-.706.246-1.382.246-2.026s-.092-1.32-.246-1.996a16.07 16.07 0 0 0-.736-2.147zm-9.578 10.837c-1.535 1.412-3.254 2.303-5.096 2.671-.46.092-.891.153-1.32.185-.43.061-.86.061-1.259.061h-.03c-.276 0-.521 0-.798-.03a8.95 8.95 0 0 1-.891-.062c-2.057-.245-3.96-1.104-5.71-2.579-1.719-1.442-2.609-3.745-2.64-6.938-.03-3.193.952-5.618 2.979-7.215 1.995-1.596 4.359-2.395 7.061-2.395h.03c2.764 0 5.097.798 7.062 2.395 1.965 1.597 2.947 4.021 2.947 7.215-.001 3.038-.768 5.249-2.335 6.692zM175.543 83.852v3.469h.582c.768 0 .922.123 1.383.338s.582.737.215 1.074l-5.557 5.004-5.957-4.482c-.029-.031-.061-.062-.092-.062s-.031-.03-.031-.062c-.092-.092-.215-.214-.307-.337a.623.623 0 0 1-.184-.46c0-.43.215-.706.584-.829.367-.123.859-.185 1.412-.185h.674v-3.469h-15.902v3.469h1.137c.92 0 1.719.092 2.332.276.615.154 1.229.491 1.812.921.123.092.275.184.398.337.123.123.246.215.4.368l8.932 7.89v7.706c0 .307-.152.552-.398.736-.246.215-.613.307-1.074.307h-3.07v3.039h17.285v-3.039h-3.07c-.461 0-.83-.092-1.074-.307a.876.876 0 0 1-.369-.736v-7.737l7.799-7.46c.029-.062.092-.123.121-.153.707-.737 1.475-1.289 2.303-1.627.83-.337 1.996-.522 3.5-.522h.553V83.85h-14.337v.002zM135.324 87.413h3.133c1.32 0 2.088.153 2.303.491.215.307.307.675.307 1.105v11.789h-.369l-15.504-16.854h-13.262v3.469h2.24c1.32 0 2.088.153 2.303.491.215.307.338.675.338 1.105V104.268c0 .43-.123.798-.338 1.104-.215.308-.982.461-2.303.461h-2.24v3.039h15.227v-3.039h-2.209c-1.352 0-2.119-.153-2.334-.461-.215-.307-.307-.675-.307-1.104v-.062-14.583h.307l18.635 19.342h4.451V89.132v-.061-.062c0-.43.094-.798.309-1.105.215-.338.98-.491 2.332-.491h2.67v-3.469h-15.688v3.469h-.001z" fill="#33348e"/></g></svg>