<svg xmlns="http://www.w3.org/2000/svg" width="2461" height="2500" viewBox="0 0 127.474 129.471"><path d="M1.621 64.241c0-34.45 27.927-62.38 62.381-62.38 34.451 0 62.379 27.93 62.379 62.38 0 34.453-27.928 62.38-62.379 62.38-34.454 0-62.381-27.928-62.381-62.38" fill="#397657"/><path d="M3.46 64.241c0-33.434 27.104-60.539 60.541-60.539 33.435 0 60.541 27.105 60.541 60.539 0 33.435-27.106 60.541-60.541 60.541C30.564 124.781 3.46 97.676 3.46 64.241" fill="#fff"/><path d="M5.432 64.241c0-32.345 26.222-58.566 58.57-58.566 32.346 0 58.568 26.221 58.568 58.566 0 32.347-26.223 58.568-58.568 58.568-32.349 0-58.57-26.221-58.57-58.568" fill="#397657"/><path d="M27.798 63.994c0-19.921 16.148-36.069 36.067-36.069s36.066 16.148 36.066 36.069c0 19.918-16.147 36.065-36.066 36.065S27.798 83.912 27.798 63.994M69.568 10.832c.988.886 1.268 2.052 1.217 3.345-.279.914-.785 1.8-1.598 2.435.99.734 1.979 1.496 2.13 2.813.28 1.293-.102 2.458-.837 3.422-1.545 1.748-4.004 1.293-6.236 1.367l-5.893.155-.04-.536-.606-13.382-.025-.292c3.878-.025 8.44-1.028 11.888.673M80.546 12.719c-1.041 3.004-2.408 5.971-3.146 9.139a1.701 1.701 0 0 0 1.294 1.826c.623.343 1.509.407 1.977 0 2.004-2.813 2.955-6.312 4.211-9.469 1.596.559 2.84 1.357 4.387 1.94-1.65 3.499-2.664 7.619-4.946 10.495-1.647 1.445-4.258 1.089-6.234.607-2.257-.81-4.716-2.254-5.4-4.79-.531-1.736 1.877-7.694 3.194-11.254l4.663 1.506" fill="#fff"/><path d="M44.015 29.39l-3.347 2.203c-1.249-.658-1.978-1.102-2.89-1.52l-3.705 3.119c.381.914.867 2.028 1.272 3.042l-3.309 3.699-.266-.583-5.857-13.916 5.349-4.602.431.267c4.197 2.562 8.51 5.583 12.761 8.002l-.439.289M44.851 28.88c-1.757-4.285-3.909-9.29-5.501-13.309 4.032-1.623 9.863-5.615 13.461-1.9.912 1.014 1.039 2.433 1.064 3.726-.226.835-.432 1.674-.988 2.358 1.203 1.481 3.437 3.162 4.982 4.632l-.19.064-4.563 1.007c-1.623-1.305-2.542-2.226-3.954-3.194-.609.074-1.028.431-1.6.684l1.572 3.601-4.283 2.331" fill="#fff"/><path d="M65.614 13.189c.354.378.28 1.166.074 1.597-.657.762-1.874.734-2.888.607.074-.861-.244-1.698-.18-2.584.862.126 2.36-.306 2.994.38M48.883 16.686c.251.634.266 1.666-.274 2.042L46.1 19.792c-.626-1.151-.892-1.94-1.323-2.876 1.165-.431 3.166-2.18 4.106-.23M66.45 18.968c.201.889-.202 1.801-1.065 1.979-.811.125-1.418.05-2.281.075-.127-.914-.201-2.13-.127-2.891 1.165.152 2.917-.481 3.473.837" fill="#397657"/><path d="M100.671 23.913c.863 1.064 1.448 2.382 1.827 3.725-1.065.572-1.876 1.219-2.891 1.674-.251-1.572-1.114-3.169-2.66-3.954-.735-.432-1.827-.508-2.662-.229-1.294.481-2.408 1.597-2.89 2.89-.431 1.242.05 2.458.762 3.421.987 1.116 2.308 1.701 3.799 1.751-.67 1.102-1.036 1.798-1.671 2.662-2.486-.356-4.817-1.725-6.236-4.032-1.217-1.951-1.292-4.942-.227-6.996 1.114-2.257 3.321-3.702 5.701-4.032 2.866-.101 5.451 1.04 7.148 3.12" fill="#fff"/><path d="M34.812 28.171a20.859 20.859 0 0 1-2.28 1.824c-.609-1.445-1.193-2.738-1.826-4.335 1.456.775 2.735 1.673 4.106 2.511" fill="#397657"/><path d="M108.279 32.886c-1.165 1.166-2.711 2.156-3.956 3.271 1.979.43 4.208.354 6.237.684.913 1.32 1.394 2.587 2.282 4.183l-7.453-.531c-1.648 2.585-3.143 5.221-4.564 7.908-.886-1.293-1.569-2.964-2.433-4.409.965-1.953 2.218-4.019 3.184-5.972-1.66 1.028-3.118 2.358-4.808 3.422l-2.633-3.537c3.548-3.042 7.376-5.754 11.103-8.515l.302-.109 2.739 3.605M24.596 31.949c-.673 1.394-1.56 2.344-2.179 3.675l8.669 5.703c-.457 1.292-1.445 2.562-2.283 3.802l-8.897-5.552c-.798 1.052-1.37 2.13-2.169 3.474-1.166-.772-1.99-1.28-2.927-1.95 2.207-3.679 4.298-7.125 6.731-10.942l3.055 1.79" fill="#fff"/><path d="M48.986 65.855a7.08 7.08 0 0 1-.182 1.787c-1.343 2.713-3.522 5.094-3.876 8.215-1.546.986-2.816 2.711-5.02 2.129-.077.582.101 1.467.303 2.127-1.748-.074-2.941 1.217-4.412 1.826-.785-.252-.988-1.268-1.291-1.977 1.722-.582 2.964-2.307 4.942-2.279.229-.637-.128-1.219-.229-1.826-2.46-1.092-6.363 5.398-6.691-.229 2.458-.152 4.03-2.434 6.465-2.662l.074-1.826c-2.763-.279-4.538 2.561-7.3 2.281l-.61-2.432c3.194.201 5.097-2.662 8.139-2.816.404-.531.455-1.318.533-2.053-3.321-.432-5.602 3.246-9.126 2.129 0 0-.12-1.531-.186-2.395h18.467"/><path d="M52.882 65.855c.112 1.35-.218 2.697-1.49 4.07-1.826 2.152-3.675 4.865-2.357 7.758 1.395 3.191 5.78 5.676 3.878 9.656-1.038 2.51-3.524 4.412-3.422 7.377-.658-.279-1.341-.559-1.9-1.064 0-3.777 5.372-6.135 2.812-10.115-.226.785-.277 1.85-.455 2.738-.889 2.307-2.789 4.156-3.5 6.543-1.189-.459-2.433-1.422-3.422-2.436l1.371-.838c-.152-.508-.559-.938-.914-1.369-.889-.125-1.471.457-2.205.686-.634-.559-1.244-1.066-1.749-1.75.455-1.295 4.005-.227 2.204-2.357-1.216-.76-2.432.33-3.497.838l-1.445-1.826c1.242-.76 2.483-1.826 4.028-1.521.381.686.408 1.697 1.142 2.055 2.611-.051 4.462-2.029 6.464-3.576-1.396-2.076-2.534-4.943-1.294-7.453.993-2.516 3.583-4.633 3.7-7.414h2.051"/><path d="M56.597 65.855c.13 1.16-.061 2.35-.871 3.611-1.646 2.234-3.801 4.588-2.814 7.529.938 2.967 4.64 4.766 4.412 8.215-.025 4.08-4.767 6.617-3.423 11.18l-2.357-.762c-.937-4.055 3.372-6.133 3.422-9.885.609-4.312-4.895-5.91-4.565-10.115-.023-3.195 2.79-5.223 4.032-7.91a5.132 5.132 0 0 0 .256-1.863h1.908"/><path d="M69.629 65.855a4.911 4.911 0 0 0 .548 3.08c1.647 2.609 4.538 5.375 2.735 8.748-1.899 2.785-5.068 5.5-3.802 9.123 1.395 3.17 4.31 6.186 2.737 10.117l-2.356.531c1.875-3.83-.937-7.629-2.584-10.951-2.004-4.766 4.308-7.051 4.409-11.408-.024-2.812-3.016-4.41-3.648-6.996-1.294-1.092-2.638.432-4.185.15-1.141.23-2.89-1.572-3.573.381-.812 2.863-4.515 4.969-2.89 8.365 1.547 3.018 5.271 5.223 4.028 9.129-1.114 3.648-4.79 7.123-2.509 11.33-.938-.303-2.688.279-2.662-1.217-1.445-5.096 4.716-8.062 2.813-13.156-.886-3.119-4.918-4.844-4.03-8.596.656-3.088 4.117-5.248 3.631-8.631h11.338"/><path d="M73.294 65.855c-.049.867.126 1.729.685 2.547 1.75 2.84 4.792 5.959 3.043 9.66-1.977 2.965-5.425 5.982-3.5 9.887 1.395 2.332 3.551 4.662 2.969 7.529l-2.283.76c1.521-5.348-5.933-8.494-2.813-13.842 1.927-2.865 5.373-5.553 3.423-9.355-1.166-2.355-3.575-3.75-3.5-6.693l.082-.492h1.894"/><path d="M77.07 65.855a4.212 4.212 0 0 0 .559 2.166c1.648 2.969 4.615 5.781 3.5 9.506-.307 1.143-1.216 2.031-1.445 3.195 1.929 1.598 3.753 3.396 6.312 3.498.912-.582.405-3.168 2.281-1.977l2.737 1.371c-.2.734-.811 1.395-1.367 1.9-1.039-.506-2.053-1.115-3.348-1.066-.382.406-.712.863-.683 1.445.912.15 1.746.531 2.508 1.064-.354.762-1.04 1.242-1.674 1.826l-2.129-.762c-.354.508-1.092 1.041-.834 1.598.48.205 1.014.482 1.367.838-.938 1.014-2.128 1.67-3.271 2.359-.986-3.221-4.234-5.479-3.955-9.203l-.15-.152c-.762.859-.506 2.23-.456 3.344.913 2.332 3.093 4.135 3.423 6.693-.381.658-1.243.785-1.903 1.064.077-4.613-6.919-8.109-2.432-12.775 1.496-2.285 4.005-4.463 3.116-7.607-.912-3.037-4.142-4.922-4.114-8.326h1.958"/><path d="M97.33 65.855c.025.857.104 1.594-.231 2.473-3.473.988-5.754-2.688-9.124-2.133l.379 1.904c3.118.102 5.07 3.092 8.29 2.963-.457.914.203 3.322-1.824 2.359-2.104-.506-3.626-2.359-5.933-2.359-.278.51-.102 1.221-.151 1.826 2.433.381 4.182 2.436 6.614 2.816-.229.836-.457 1.771-1.141 2.281-1.979-.482-3.524-2.258-5.63-2.207l-.377 1.748c2.002.051 3.296 1.826 5.095 2.357.049.738-.608 1.396-.988 2.055-1.596-.48-2.814-1.85-4.639-1.748-.026-.688.38-1.471.226-2.205-2.05.609-3.422-1.293-4.94-2.436-.044-3.738-3.979-6.193-4.187-9.695H97.33"/><path d="M30.52 65.855c-.024-.338-.043-.572-.043-.572 3.144 1.219 5.905-1.038 8.593-2.203.684-.205 1.748.151 2.055-.609-.027-.583 1.038-1.268.152-1.674-3.931-.533-6.541 4.209-10.571 2.054l-.306-.609c.838-11.457 7.302-22.535 18.024-27.986 9.583-5.477 24.287-5.019 33.311 1.369 4.793 2.94 9.38 7.783 11.867 12.702 2.38 4.309 3.472 9.149 3.799 14.296-4.158 3.143-6.946-2.964-11.181-1.597.229.66.356 1.344.84 1.902 3.753-.026 6.337 3.904 10.266 2.355l.003.572H78.768a5.19 5.19 0 0 1 .384-2.243c1.293-2.991.886-6.872-.533-9.661-.431-.734-1.191-1.316-1.902-1.748 1.041 2.207 2.307 4.817 1.674 7.529-.073 2.094-1.306 4.104-1.32 6.123h-1.958l.008-.266c.734-3.55 2.968-7.328 1.142-11.105-.508-1.52-1.646-3.244-3.193-3.878 2.306 2.638 3.218 6.946 1.899 10.497-.665 1.412-1.582 3.091-1.673 4.751H71.4c.785-4.175 3.962-8.125 1.743-12.587-.583-1.318-1.748-2.661-3.041-3.423l-.078.078c2.587 2.51 3.372 6.643 1.978 9.962-.652 1.947-2.081 3.883-2.371 5.97H58.292a4.975 4.975 0 0 0-.207-.875c-1.293-3.651-3.931-7.3-2.359-11.561.432-1.217 1.295-2.257 2.053-3.345-2.51 1.343-3.777 4.183-3.726 7.073-.109 3.141 2.214 5.833 2.544 8.708H54.69c-.152-2.972-2.829-5.291-2.385-8.632.15-2.459.986-4.615 2.583-6.464-2.204.886-3.116 3.422-3.725 5.551-1.057 3.415 1.466 6.485 1.719 9.545h-2.051a4.96 4.96 0 0 0-.351-2.017c-1.368-3.523-1.851-8.287.76-11.406-1.42.381-2.256 2.153-2.738 3.497-1.57 3.44.416 6.628.484 9.926H30.52"/><path d="M65.688 36.46l4.108.229-.076.381-3.042 2.89c.531 1.294 1.064 2.587 1.597 3.877 2.307-1.341 4.514-3.015 7.302-3.194-.254 1.472-1.369 3.019-1.219 4.487 1.725-.481 3.299-1.545 5.175-1.445-1.168 2.156-2.867 4.312-2.969 6.998-2.56-.961-5.197-2.13-8.06-2.585-6.11-1.041-11.993.303-17.039 2.738-.43-2.56-1.671-4.792-3.193-6.921.912-.304 2.027.201 2.967.458.786.226 1.445.758 2.282.912.15-1.521-.735-3.017-1.368-4.412.431-.33 1.115-.078 1.597.077 2.001.759 3.802 1.95 5.628 3.042.937-1.092 1.29-2.664 1.671-4.109l-3.116-2.813v-.303l4.106-.23c.683-1.292 1.14-2.661 1.825-3.954.837 1.141 1.116 2.637 1.824 3.877" fill="#fff"/><path d="M67.133 44.75l-.378.38c-1.902-.202-3.904.05-5.706.078-.202-.203-.606-.508-.229-.762l2.891-2.207c1.193.688 2.459 1.574 3.422 2.511"/><path d="M16.407 45.814c-1.573 1.219-2.688 2.994-2.357 5.021.178.304.354.759.76.835 1.267 0 1.698-1.367 2.28-2.205.685-1.521 2.005-3.17 3.804-3.346 1.546-.1 2.867.304 3.88 1.521 1.546 1.852 1.267 4.843.533 6.999-.687 1.597-1.751 3.217-3.271 4.258l-2.739-1.674c1.496-1.037 3.069-2.738 3.271-4.639 0-.684-.15-1.597-.99-1.674-1.748.508-1.925 2.611-3.116 3.803-.912.939-2.054 1.647-3.5 1.444-1.344-.077-2.486-.912-3.271-1.977-1.496-2.28-.761-5.629.152-7.376.559-.99 1.219-1.978 2.131-2.74.759.433 1.648 1.093 2.433 1.75M115.732 47.795c1.317 2.128 1.827 4.941 1.141 7.528l-2.814-.152c.382-1.699.66-3.828-.532-5.248-.354-.431-.988-.686-1.445-.457-1.546 1.724.13 4.21-.834 6.161-.458.889-1.142 1.953-2.131 2.356-1.599.609-3.576.305-4.793-.912-2.381-2.485-3.498-6.339-1.975-9.583h2.965c-.507 1.27-.859 3.068-.379 4.564.252.634.557 1.445 1.294 1.673 2.433.088.784-3.397 1.367-5.021.229-1.216.887-2.483 2.128-3.042 2.281-1.115 4.945.152 6.008 2.133M41.125 52.584c2.458-.939 5.804-2.56 8.441-.836-.559.785-1.646 1.217-2.435 1.9-1.291 1.267-2.863 2.812-3.8 4.41-3.169-.635-5.706 1.219-8.367 2.283-1.014.201-2.358.303-3.194-.381 2.51-4.134 6.057-7.936 5.171-13.386.279-.482.76-.075 1.064.077 1.954 1.521 2.891 3.626 3.12 5.933M91.167 47.184c-.987 5.171 2.56 8.823 4.943 12.777-2.736 1.826-5.325-.99-7.909-1.674-1.141-.176-2.483-.33-3.576-.152-1.569-2.432-3.674-4.715-6.235-6.083.151-.835 1.317-.889 2.13-.99 2.256-.226 4.233.711 6.084 1.675.355-.835.507-1.775.759-2.661.611-1.496 1.804-3.019 3.35-3.651.328.05.556.406.454.759M70.023 51.901c.078.43.508.811.229 1.293-1.496-.458-3.193-.205-4.639.378-1.294.963-1.091 2.943-.761 4.335l.381.306c.633-.153.66-.963 1.216-1.142.939.229 2.231.56 3.118 0 .785.026.762 1.115.836 1.674-.557 2.941-1.799 6.135-4.79 7.529-1.243.609-2.841.201-4.032-.229-2.94-1.749-4.588-5.222-4.258-8.364.229-.482.584-.863 1.143-.533 1.188.81 2.481-.633 3.573.378 1.317-.583.532-2.203.532-3.42-1.064-1.37-2.89-1.168-4.486-1.066-.711-.432.051-1.115.226-1.597 1.725-2.433 5.022-2.483 7.909-2.129 1.472.38 3.095 1.014 3.803 2.587" fill="#fff"/><path d="M61.201 55.398v.306c-.861-.077-2.254-.939-3.041.151-.506.226-.582-.357-.531-.685a.595.595 0 0 1 .457-.76c1.189-.279 2.533.075 3.115.988M70.252 55.017c-.024.306.051.66-.304.838-.964-.38-2.308-.913-3.271-.151-.559-1.192.99-.939 1.521-1.293.787-.028 1.7-.051 2.054.606" fill="#fff"/><path d="M65.384 59.885c-.455.963-1.926.355-2.738.531-.276-.102-.102-.404-.152-.607.812-.559 2.257-.633 2.89.076M66.6 62.016c-.605.912-1.519 2.051-2.735 1.978-1.371.101-1.674-1.015-2.664-1.674l-.074-.459c1.826.28 3.828-.073 5.473.155"/><path d="M19.22 73.879c1.536-.008 3.01.051 4.596.014l-3.529 2.951c.34 1.242.634 2.67 1.064 4.336l-3.499-2.434c-1.471.672-2.357 1.496-3.877 2.281l1.216-4.184c-1.155-.945-2.446-1.842-3.538-2.805 1.592-.041 2.986.023 4.525-.008.711-1.33 1.028-2.854 1.674-4.184l1.368 4.033M37.245 93.881c.306.734.747 1.316.935 2.418-.81.51-1.834.928-2.76 1.385-.226-1.674-1.698-3.297-3.345-3.729-1.368-.34-2.864.307-3.877 1.523-.838.986-1.092 2.408-.838 3.65.66 1.721 2.485 3.021 4.335 3.021l.532.016a19.51 19.51 0 0 1-1.367 2.744c-3.069-.104-6.161-1.904-7.303-4.871-.988-2.406-.556-5.525.99-7.529 1.876-2.381 4.868-3.041 7.758-2.432 1.948.534 3.774 2.003 4.94 3.804M96.336 92.285l.192.188-4.563 4.248 1.521 1.836c1.292-1.014 2.688-2.092 4.069-3.383.71.596 1.282 1.291 1.952 2.08-1.367 1.303-2.789 2.191-3.979 3.434.507.635.898 1.355 1.671 2.117l4.92-4.057 2.102 2.168c-2.788 2.648-5.829 5.375-8.719 7.49l-8.595-11.104c2.739-2.283 5.045-4.361 7.454-6.77.736.484 1.269 1.116 1.975 1.753M47.969 101.639c1.546 1.977 1.571 5.043.607 7.299-1.075 2.295-3.142 3.754-5.399 4.26-2.735.43-5.322-.455-7.3-2.355-1.748-1.928-2.712-4.691-1.826-7.377.786-2.916 3.625-5.045 6.542-5.4 3.015-.179 5.804 1.215 7.376 3.573" fill="#fff"/><path d="M44.776 103.465c.859 2.002-.129 3.979-1.523 5.398-.886.709-2.047 1.156-3.212.725-.734-.355-1.641-1.004-1.844-1.791-.559-2.027.368-3.928 1.786-5.322.862-.711 2.105-1.115 3.193-.609.66.202 1.395.939 1.6 1.599" fill="#397657"/><path d="M75.045 106.682c-2.133.307-4.17.561-6.201.891.205 1 .114 1.67.267 2.432 1.902-.037 3.563-.375 5.338-.604l.519 3.252a67.964 67.964 0 0 1-5.452.787c.051 1.469.246 3.268.223 4.891-1.495.229-3.109.393-4.656.291l-.912-13.865-.012-.291a159.05 159.05 0 0 0 10.2-1.307c.141 1.04.458 2.241.686 3.523M86.676 100.449l.128.238-5.569 2.793.943 2.189c1.699-.648 3.166-1.252 4.854-2.105.515.773.868 1.6 1.292 2.543-1.531.816-3.116 1.449-4.785 2.182.31.75.466 1.297 1.011 2.5l5.861-2.514 1.411 2.674c-3.42 1.758-7.104 3.52-10.474 4.74l-5.133-13.068c3.269-1.422 6.068-2.771 9.054-4.404.573.668.906 1.426 1.407 2.232M62.08 108.258c-2.121-.355-4.145-.734-6.176-1.039-.113 1.016-.4 1.629-.485 2.398 1.823.543 3.507.727 5.267 1.049l-.495 3.26a68.1 68.1 0 0 1-5.435-.912c-.398 1.414-.756 3.189-1.271 4.729-1.496-.238-3.085-.574-4.527-1.143l3.346-13.484.079-.279c3.372.729 6.826 1.365 10.115 1.857-.184 1.033-.248 2.277-.418 3.564M111.366 73.9c1.533-.006 2.903.035 4.593.016l-3.526 2.951c.343 1.24.634 2.668 1.062 4.336l-3.496-2.436c-1.474.67-2.359 1.496-3.88 2.281l1.217-4.182c-1.154-.943-2.448-1.844-3.534-2.807 1.588-.041 2.983.023 4.521-.008.621-1.385 1.065-2.715 1.676-4.184l1.367 4.033" fill="#fff"/><path d="M127.474 64.735c0 35.734-28.554 64.736-63.736 64.736S0 100.469 0 64.735C0 29.002 28.555 0 63.738 0s63.736 29.002 63.736 64.735z" fill="none"/><path d="M105.153 116.663c1.982 0 3.681 1.541 3.681 3.632 0 2.11-1.698 3.65-3.681 3.65-2.002 0-3.7-1.54-3.7-3.65 0-2.091 1.698-3.632 3.7-3.632zm0 .589c-1.688 0-2.993 1.306-2.993 3.043 0 1.776 1.306 3.062 2.993 3.062 1.669 0 2.974-1.285 2.974-3.062-.001-1.737-1.305-3.043-2.974-3.043zm-.776 5.153h-.647v-4.201h1.609c1.001 0 1.492.373 1.492 1.197 0 .756-.472 1.08-1.1 1.158l1.197 1.846h-.706l-1.119-1.826h-.727v1.826zm0-2.355h.766c.785 0 1.04-.227 1.04-.688 0-.402-.196-.628-.932-.628h-.874v1.316z"/></svg>