<?xml version="1.0" encoding="UTF-8" standalone="no"?>
<svg width="48px" height="48px" viewBox="0 0 48 48" version="1.1" xmlns="http://www.w3.org/2000/svg" xmlns:xlink="http://www.w3.org/1999/xlink">
    <!-- Generator: Sketch 43.2 (39069) - http://www.bohemiancoding.com/sketch -->
    <title>inner_artwork</title>
    <desc>Created with Sketch.</desc>
    <defs></defs>
    <g id="Page-1" stroke="none" stroke-width="1" fill="none" fill-rule="evenodd">
        <g id="Group-3" transform="translate(-6.000000, -6.000000)" fill="#006440">
            <path d="M29.4594387,14.312153 C30.2997519,14.7976258 31.1911001,15.4224026 31.8696418,16.0844988 L31.6030719,16.3529726 C30.2641236,16.2102906 28.8539189,16.3883616 27.5846223,16.4079864 C27.4430722,16.2648218 27.1578857,16.0495923 27.4234927,15.8697518 L29.4594387,14.312153 L29.4594387,14.312153 L29.4594387,14.312153 Z M53.1347333,30.9831097 C53.1525474,31.5889052 53.20936,32.1091236 52.9736037,32.7290746 C50.5274513,33.4263989 48.9206493,30.8304544 46.5471978,31.2219855 L46.8155331,32.5675721 C49.0113248,32.6399587 50.382852,34.7504304 52.6513445,34.6597058 C52.3290854,35.3049118 52.7951414,37.0047101 51.3672831,36.3252412 C49.8851799,35.9682948 48.813604,34.6597058 47.1894693,34.6597058 C46.9935139,35.020352 47.1175708,35.5196587 47.0832265,35.9462571 C48.7965923,36.2156961 50.0288163,37.667128 51.7417007,37.9351193 C51.5805711,38.5251505 51.4208859,39.1857989 50.9384601,39.5456408 C49.5449461,39.2057455 48.4565191,37.951366 46.9729715,37.9872376 L46.7088088,39.2227965 C48.1186926,39.2591507 49.0296204,40.5093478 50.2966701,40.8846321 C50.3314959,41.4058157 49.8667238,41.8715028 49.5990304,42.3367074 C48.4741727,41.9980989 47.6163664,41.0295662 46.3311815,41.1009876 C46.3133673,40.6156757 46.6008007,40.0645723 46.492311,39.5456408 C45.0488854,39.9759389 44.0809845,38.6316392 43.011174,37.8252525 C42.9803604,35.1863586 40.2087392,33.4551927 40.0623745,30.9831097 C40.0342891,30.4902374 40.1092368,29.9640672 40.3332776,29.3986474 C41.2442053,27.2875323 40.9580559,24.5466537 39.9591809,22.5783815 C39.6556988,22.0604151 39.1179048,21.6515112 38.6167019,21.3470049 C39.3499699,22.9046038 40.243565,24.744993 39.7975699,26.6595383 C39.7458929,28.1379945 38.8755685,29.5578979 38.8656183,30.9831097 C38.862248,31.4912637 38.9704167,31.9994177 39.2620227,32.5125583 C40.4233111,34.6088743 42.512539,36.5932325 41.7269521,39.2223139 C41.5109357,40.0298267 40.8677013,40.6542818 40.7072137,41.4761111 C42.0657414,42.6038944 43.3502844,43.8746815 45.1528813,43.9462638 C45.7951528,43.5351078 45.4383888,41.7117697 46.7596834,42.5527412 L48.6889051,43.5199871 C48.548318,44.0376317 48.1159643,44.5015495 47.7243745,44.8580133 C46.9923905,44.500906 46.278381,44.0728599 45.3656879,44.1077663 C45.0965502,44.3939347 44.8649666,44.7151704 44.885509,45.1258437 C45.5277804,45.2318499 46.1169305,45.5035409 46.6534406,45.8799513 C46.4043638,46.4177033 45.9188888,46.7547032 45.4725727,47.1665025 L43.9760256,46.6301982 C43.7261464,46.9885923 43.2071294,47.3651635 43.3892829,47.7584641 C43.7269488,47.9033982 44.1015269,48.0993246 44.3501223,48.3504257 C43.6895552,49.0660879 42.8522913,49.5264667 42.0466434,50.0122612 C41.3526949,47.7388393 39.0662278,46.1448862 39.2625041,43.5158048 L39.1562613,43.4094769 C38.6187883,44.0151115 38.7983739,44.9836442 38.8330393,45.7696019 C39.4762737,47.4163167 41.0105353,48.6882298 41.2432424,50.4940343 C40.9745861,50.9587563 40.3689058,51.0514112 39.9042941,51.2481419 C39.958218,47.9923532 35.0310875,45.5230049 38.1907678,42.2297361 C39.2445295,40.6171234 41.0100539,39.0781842 40.3844731,36.8580066 C39.7422016,34.7143979 37.4704993,33.3861842 37.4905603,30.9831097 L37.494091,30.7957089 C38.0115031,28.2896846 39.5833189,25.6231229 38.2974921,22.9572047 C37.9391232,21.8849178 37.1384505,20.66641 36.0493815,20.2182565 C37.6730347,22.0810051 38.3167506,25.1202773 37.3878482,27.6267842 C36.9197058,28.623789 36.2751875,29.8115728 36.210511,30.9835923 L36.2066593,30.9835923 C36.1721545,31.5956613 36.2968534,32.2043522 36.6908505,32.7815147 C37.9237164,34.7864628 40.0649423,36.988785 38.8331998,39.6016197 C37.4408091,41.6943969 35.0127919,43.8232065 36.3687518,46.5796884 C37.3506151,48.2259207 38.86947,49.868614 38.4597451,51.8923827 L36.852943,52.428687 C37.9241979,48.6539668 32.6746477,46.4360412 34.8722047,42.6600342 C36.2289671,40.6380351 38.65554,38.7408626 37.2819264,36.0572499 C36.4607112,34.3944491 34.7638756,33.410313 34.8174785,31.3323349 L34.875896,30.9834315 C35.4287758,28.0363315 37.6638869,25.2467126 36.1010585,22.0974127 C35.6903706,21.1674861 34.8696369,20.2193825 33.9587092,19.682113 L33.9036619,19.7372877 C35.7256779,21.5088292 36.2800022,24.4235965 35.2976574,26.7666704 C34.8393048,28.1413725 33.8333684,29.5107662 33.6289071,30.983914 C33.5316516,31.6785037 33.6136608,32.3983483 34.0140774,33.1566382 C35.1744029,34.9983143 37.2092255,36.9519483 35.9394474,39.332985 C34.6022646,41.2996486 32.3698817,43.2132287 33.261551,45.7707279 C34.2437352,48.0082783 36.2946065,50.1398225 35.1872419,52.9143207 L33.5292443,53.289605 C34.849897,50.585724 32.8696402,47.9027547 31.7096357,45.5577504 C30.298468,42.1933819 34.7415678,40.5823778 34.8128243,37.5064297 C34.7959731,35.5211064 32.690215,34.3938057 32.2451828,32.5686981 C31.3337736,31.798022 30.3891435,32.8751347 29.299593,32.6751868 C28.4952291,32.837172 27.2597953,31.5654198 26.7796164,32.9439824 C26.207799,34.9650164 23.6027639,36.4508721 24.7476826,38.8479948 C25.8370726,40.9782521 28.4587984,42.5360118 27.5830174,45.2928155 C26.7988749,47.8678483 24.2086047,50.319663 25.8150858,53.289605 C25.1551607,53.0753406 23.9227762,53.4855314 23.9405903,52.4288478 C22.9234198,48.8321987 27.2610792,46.7368478 25.9213286,43.142129 C25.2978342,40.9402894 22.4570428,39.7238727 23.082463,37.075649 C23.5448279,34.8956861 25.9853631,33.3717068 25.643043,30.9837532 C25.6152787,30.7838053 25.5661695,30.5791925 25.4960364,30.3658933 C24.5851086,27.789091 22.726662,25.2116453 23.8343475,22.2042232 C24.1384716,21.3452355 24.7459172,20.6117179 25.2796991,19.8439373 C23.5120884,20.7920409 22.6204192,22.7968282 22.6570103,24.836361 C22.5799763,27.0542865 24.2145427,28.9541936 24.4470893,30.9837532 C24.5385672,31.8028478 24.4047205,32.6415673 23.8343475,33.5312791 C22.6748245,35.1083419 21.1583769,36.7711426 21.8536093,38.847673 C22.5146578,40.9422197 25.1209768,42.2110764 24.9603287,44.6456792 C24.9426751,47.5255401 21.604051,49.3186367 22.5502861,52.539358 L20.8885972,51.9990322 C20.2288326,49.1370268 23.2633326,47.6727262 23.2981584,45.0246633 C23.7276233,41.9794393 19.8526496,40.8495648 20.0851962,37.8810706 C20.0685055,35.6256648 22.0492437,34.1972358 22.9240617,32.3000634 C23.0741177,31.8383977 23.1240293,31.4021477 23.1039684,30.983914 C22.9967626,28.8863111 21.1110331,27.2463523 21.4239839,24.8879968 C21.5292638,23.1523268 22.1184139,21.6309213 23.2435926,20.3255495 C21.6911958,20.950648 21.0498873,22.7418144 20.6210644,24.2452037 C19.8768833,26.6558385 21.6533207,28.8242195 21.831462,30.9840749 C21.9104219,31.9378086 21.6778753,32.8860731 20.7825149,33.8555711 C19.4963671,35.3747246 18.1920842,37.2915219 19.1206656,39.3333067 C20.1039732,41.5861387 23.1931995,43.339664 21.8532883,46.1495512 C21.1222672,47.9214144 19.3718287,49.2626577 19.4437272,51.3555958 C18.9799179,51.1587042 18.498776,50.9624561 18.1046184,50.6055097 C18.1046184,47.9397523 21.8879536,46.2746995 20.0853567,43.465295 C19.9256715,44.0196155 19.8913271,44.7729188 19.7663073,45.3991434 C19.1407265,47.0283245 17.8022598,48.3324094 17.3013779,50.0166044 C16.463793,49.6926342 15.588012,49.0118784 14.8913353,48.2962161 L15.8563473,47.7042546 C15.7491416,47.3456996 15.4639551,47.0418367 15.2145573,46.7376521 C14.5878532,46.6493404 14.1763629,47.0614615 13.6597532,47.2229641 C13.2134372,46.8285375 12.7826884,46.4704651 12.4268873,45.9874052 C12.7472206,45.0729211 15.2501856,45.8291198 13.9821729,44.3255696 C13.1261319,43.7891044 12.2668812,44.5554373 11.5172435,44.9131879 L10.5010359,43.6266367 C11.3758539,43.0903324 12.2484251,42.3370291 13.3365312,42.5530629 C13.604706,43.037088 13.6233226,43.7488896 14.1399322,44.0015993 C15.9791204,43.9657277 17.2822799,42.5714009 18.6921636,41.4794891 C17.7094979,40.0139017 16.9096276,37.9906156 17.7825198,36.2182698 C18.4819248,34.4422243 20.3042618,32.9463953 20.3869129,30.9829489 C20.4055295,30.5360822 20.3360383,30.065891 20.1410459,29.5598282 C19.1774782,27.0721419 18.8374049,23.7100254 20.6765931,21.5081858 C19.6765947,21.7774639 19.0869632,23.0266959 18.7472109,23.9752821 C17.6416116,26.4044157 19.0399403,28.6548348 19.0882471,30.982788 C19.0948271,31.4015043 19.0609642,31.8211858 18.9596965,32.2439235 C18.0131405,34.1584688 16.4795208,35.8383206 16.230444,38.0414471 C15.141054,38.7379671 14.2466565,39.9559924 12.6944202,39.5449973 C12.6398544,39.9561533 12.7648743,40.5828604 12.9072268,41.0485475 C11.6762867,40.9967509 10.8369365,41.9060875 9.80050739,42.3355814 C9.24842997,42.1579929 9.10479354,41.4426524 8.89102403,40.9420588 C10.10415,40.5313855 10.979289,39.312395 12.372161,39.3316981 C12.5336116,38.8820969 12.281646,38.4701367 12.21055,38.0411254 C10.4779256,37.2702885 7.73150096,41.8515563 7.50055927,37.8796229 C9.23189974,37.772169 10.3383014,36.1613257 12.0529512,36.0007883 L12.1041467,34.7142371 C10.1582343,34.5171846 8.90643084,36.5222936 6.96132086,36.3245977 L6.53233744,34.6077483 C8.78237391,34.7486609 10.122927,32.7276269 12.2657578,32.6188861 C12.5504628,32.2436018 12.5848071,31.6887987 12.6396939,31.1703498 C10.3007473,30.8648783 8.69571059,33.462914 6.21328805,32.6739 C6.21328805,32.6739 6.12774815,31.5926049 6.08136722,30.9829489 L6.08473746,30.9829489 C6.06788626,30.7445557 6.0518375,30.5783882 6.0518375,30.5783882 C8.26544328,31.4393062 10.2103928,29.8456749 12.1041467,29.0230413 C12.5857701,28.8785898 13.3368521,29.1290475 13.5528685,28.5927432 C13.5340914,28.1811047 14.2830872,27.6998142 13.6595928,27.4125198 C10.8910208,27.0359486 9.05183263,30.3829444 6.21296707,28.8610562 L6,28.4307581 C6.59059445,20.3435657 11.1410605,12.5248473 18.6921636,8.67725792 C21.7504158,6.92550209 25.5497997,6.0325731 29.3814417,6.00088386 C34.0055716,5.96243853 38.6780082,7.17821177 42.1538491,9.64434296 C45.5292248,11.7195865 48.7579148,15.1396123 50.5101187,18.6114347 C52.1859304,21.6532807 52.9572339,25.0665504 53.1875337,28.7003579 C50.2589555,30.9182835 48.2942661,26.610798 45.3120851,27.5748267 C45.4727332,28.0409964 45.5616433,28.523252 45.902519,28.9168743 C48.5455897,28.8982147 50.3656798,31.6720694 53.1323259,30.5788708 L53.1347333,30.9831097 L53.1347333,30.9831097 L53.1347333,30.9831097 Z M19.4946017,21.0230346 C17.6375995,19.8058137 15.283246,20.9519349 13.5525475,21.6148354 C13.3918994,19.9856542 12.7318138,18.5014071 11.355472,17.4278333 C11.2219463,17.3612376 11.0373855,17.2211293 10.8711203,17.2108343 C10.771618,17.2045608 10.6769303,17.2447756 10.603427,17.3723369 C11.2272424,21.2189611 8.73246226,23.9030564 6.96453061,26.8210408 C7.55319921,27.3032965 8.49895277,27.2312316 9.2129622,27.0895147 C11.0871367,26.3383026 12.872401,25.0308397 15.1039814,25.4789932 C15.7639065,24.3516924 16.8727154,23.2597807 17.7818778,22.3650823 C18.3373255,21.8833092 19.1004441,21.5773552 19.4946017,21.0230346 L19.4946017,21.0230346 L19.4946017,21.0230346 Z M25.1729748,23.4388169 C25.1373465,23.6704541 25.1907889,24.0833794 25.5470714,23.9238072 C26.1013957,23.154418 27.0827775,23.7631089 27.6894207,23.8173184 L27.6894207,23.6008021 C27.3565694,23.0768839 26.6717687,22.8137184 25.9763758,22.8399384 C25.8158882,22.8455685 25.6528328,22.8690539 25.4958759,22.9055689 C25.2631688,22.9573656 25.1012368,23.1708256 25.1729748,23.4388169 L25.1729748,23.4388169 L25.1729748,23.4388169 Z M33.9028595,21.1335449 C33.4043849,20.0237778 32.2617131,19.5746591 31.2248025,19.3063461 C30.7165382,19.243611 30.1890154,19.2011442 29.6658258,19.1961576 C29.5677678,19.1951924 29.4698704,19.1939056 29.3722939,19.1961576 C27.9088073,19.2257557 26.5104786,19.6023269 25.656203,20.8097354 C25.5335905,21.1505959 24.9945126,21.6293127 25.4950734,21.9347841 C26.6199312,21.8627193 27.9035112,21.7213241 28.6533094,22.6888917 C28.6533094,23.5486837 29.2071522,24.6925529 28.2792127,25.1041914 C27.5103165,24.3906204 26.5997098,25.4078934 25.7630878,24.835235 C25.3697326,24.602311 25.1208163,24.8741629 24.9596867,25.2140582 C24.7271402,27.4324663 25.8860213,29.8807422 27.9566326,31.1150142 C28.7958224,31.4183945 29.9238899,31.7069758 30.7996708,31.2765168 C32.9062314,30.2933458 33.7788026,28.0400312 34.1710343,25.9639834 C34.1183944,25.5689134 34.1371714,24.7990417 33.5841311,24.780382 C32.9596737,25.1762563 32.0489065,24.9423671 31.3870555,24.780382 C30.9957867,24.9069781 30.9778121,25.4807626 30.5324589,25.5895034 L30.2610744,25.3725044 C30.0286883,24.3898161 29.8853728,22.9935589 30.7967821,22.3136074 C31.8152365,21.9019689 33.0113508,21.7221284 34.064631,22.0451335 C34.2612284,21.705399 33.9577463,21.4378903 33.9028595,21.1335449 L33.9028595,21.1335449 L33.9028595,21.1335449 Z M32.8280739,22.8980086 C32.7572989,22.899778 32.6884497,22.9033169 32.618798,22.9055689 C32.2447014,23.1557049 31.154509,22.9758644 31.5480246,23.8173184 C32.2268873,23.2790838 33.1731223,23.6562985 33.8515035,23.9238072 C34.1023456,23.7989805 34.0479403,23.548362 34.0644705,23.3323282 C33.8466888,22.9261589 33.3262275,22.8880353 32.8280739,22.8980086 L32.8280739,22.8980086 Z M40.6011314,15.3321606 C39.2796763,15.2618652 38.1731142,16.0137207 36.9588648,16.3539378 C36.8531035,15.3183268 37.6380484,14.2246456 37.8171526,13.1850131 C35.8539075,13.3116092 34.298943,14.4960149 32.6748082,15.4421883 C32.2989462,14.5318865 31.9219608,13.6169198 31.5486666,12.70324 L33.6910158,10.6627421 L33.7459026,10.3939465 L30.8521503,10.2324439 C30.3536757,9.35704857 30.1572389,8.30261703 29.5680888,7.49735627 C29.085984,8.40991006 28.76212,9.37570823 28.2804966,10.2874577 L25.3901145,10.4494429 L25.3901145,10.6627421 L27.5838199,12.6480653 C27.315645,13.6685556 27.0664078,14.7773575 26.4064827,15.548677 C25.1211373,14.7770358 23.8540875,13.9371903 22.4448457,13.4013686 C22.1057354,13.2916627 21.6223466,13.1132699 21.3188645,13.3463548 C21.7645387,14.3308126 22.388675,15.3897482 22.2837161,16.4642871 C21.6942451,16.3555464 21.2309173,15.9767231 20.6770745,15.8174726 C20.0147421,15.6363452 19.2288342,15.2824552 18.5862418,15.4976847 C19.6576572,16.999948 20.5321542,18.5721851 20.8346734,20.3800807 C24.3889928,18.6606576 28.5340671,17.7149668 32.8367402,18.4497713 C34.8535882,18.7714895 36.7081831,19.5949274 38.5115826,20.2732703 C38.5820366,18.3775455 39.7781509,16.8542096 40.6011314,15.3321606 L40.6011314,15.3321606 L40.6011314,15.3321606 Z M46.7047967,25.6406566 C48.5244053,26.1233948 50.3497915,28.1104875 52.2766059,26.8212017 C50.5985474,24.0301351 48.1008785,21.4526894 48.7954689,17.8027959 C48.8681698,17.5536251 48.7075217,17.301398 48.4764195,17.266009 C47.387832,17.7119105 46.5447905,18.786932 46.1140417,19.8436156 C45.9368634,20.4685533 45.8319045,21.1329014 45.5823462,21.7219675 C44.2782238,21.0416943 42.8866356,20.3826545 41.2978082,20.541905 C40.7248674,20.6134873 39.9034917,20.6511284 39.7977304,21.240677 C41.6008088,22.2064752 43.0835539,23.8182836 44.1885112,25.5346504 C44.9578889,25.4088586 45.9013956,25.5163125 46.7047967,25.6406566 L46.7047967,25.6406566 L46.7047967,25.6406566 Z M27.6379042,28.1630885 L27.6892602,28.4865762 C28.3868999,28.9524242 28.6014719,29.7419208 29.5672864,29.6701776 C30.4238088,29.7211699 31.0664013,28.9168743 31.4931379,28.2731161 C30.3340962,28.1127396 28.923731,28.3609452 27.6379042,28.1630885 L27.6379042,28.1630885 L27.6379042,28.1630885 Z M28.6024348,26.7145521 C28.6372606,26.8578776 28.5140061,27.0726245 28.7086776,27.1450111 C29.2800135,27.020667 30.3149982,27.4496783 30.6340476,26.7697268 C30.4112908,26.5195908 30.0476258,26.4060243 29.6659863,26.4060243 C29.2845072,26.4060243 28.8885842,26.5174997 28.6024348,26.7145521 L28.6024348,26.7145521 Z" id="inner_artwork"></path>
        </g>
    </g>
</svg>