<svg width="118" height="118" viewBox="0 0 118 118" fill="none" xmlns="http://www.w3.org/2000/svg">
<circle cx="59" cy="59" r="57.5" fill="white" stroke="#CBCBCB" stroke-width="3"/>
<path d="M59.5145 62.9498C65.9658 62.9498 72.2826 62.5664 77.4604 61.8C81.5668 61.179 82.853 58.1484 81.4581 53.8231L73.7457 29.5215C72.3476 25.0713 68.7697 23 63.8316 23H55.1684C50.2303 23 46.6523 25.0713 45.2544 29.5215L37.5419 53.8231C36.1469 58.1484 37.4332 61.179 41.5397 61.8C46.7174 62.5664 53.0395 62.9498 59.5145 62.9498ZM56.8245 60.9007V93.2057H62.1859V60.9007H56.8245ZM46.3261 95.2486H72.6739C73.9328 95.2486 74.7905 94.3463 74.7905 93.0343C74.7905 90.6048 72.8101 88.9172 69.8281 88.9172H49.172C46.19 88.9172 44.2385 90.6048 44.2385 93.0343C44.2385 94.3463 45.0671 95.2486 46.3261 95.2486Z" fill="#FF2171"/>
</svg>
