<svg xmlns="http://www.w3.org/2000/svg" width="686.002" height="686.003">
  <switch>
    <g>
      <path fill="#FFF" d="M218.321 188.894H461.13v120.255H218.321z"/>
      <g fill="#FFFFFD">
        <path d="M209.73 353.984c1.81 0 3.35.55 3.978 1.325a15.326 15.326 0 019.489 7.027 15.326 15.326 0 019.407-7.006c-1.33-4.35-5.374-7.515-10.159-7.515h-25.429c-4.607 0-8.518 2.938-9.99 7.038h19.241c.776-.524 2.034-.869 3.463-.869z"/>
        <path d="M192.999 369.622c-1.806-.38-3.072-1.255-3.072-2.275 0-1.368 2.273-2.477 5.077-2.477s5.077 1.109 5.077 2.477c0 1.229-1.839 2.242-4.244 2.436 5.331.667 9.966 3.577 12.934 7.76a18.723 18.723 0 0112.269-7.659c.026-1.531.273-3.008.719-4.399-1.854-4.643-6.384-7.927-11.688-7.927h-30.135c-6.775 0-12.285 5.356-12.564 12.063h25.627z"/>
        <path d="M179.708 388.076c6.211 0 11.775 2.784 15.542 7.158a20.539 20.539 0 0110.064-6.393v-.496c0-2.692.582-5.247 1.609-7.562-2.644-4.682-7.659-7.849-13.419-7.849h-36.886c-8.421 0-15.252 6.756-15.397 15.142h38.487zm-4.647-6.194c3.432 0 6.214 1.358 6.214 3.032 0 1.675-2.782 3.032-6.214 3.032-3.432 0-6.214-1.358-6.214-3.032 0-1.675 2.782-3.032 6.214-3.032z"/>
        <path d="M154.432 407.061c-1.087-.589-1.755-1.366-1.755-2.221 0-1.836 3.05-3.324 6.812-3.324s6.812 1.488 6.812 3.324c0 1.112-1.123 2.094-2.843 2.698 5.732 1.191 10.677 4.547 13.951 9.167 3.071-4.335 7.614-7.559 12.899-8.923a20.361 20.361 0 012.763-9.489c-3.09-4-7.919-6.587-13.364-6.587H139.27c-8.811 0-16.038 6.747-16.817 15.355h31.979z"/>
        <path d="M137.895 436.681c9.703 0 18.075 5.781 21.869 14.077a24.17 24.17 0 0113.461-12.556v-8.365c0-3.262.694-6.363 1.935-9.171-3.213-5.711-9.322-9.576-16.341-9.576h-44.872c-10.354 0-18.747 8.393-18.747 18.747v6.844h42.695zm-1.512-14.706c4.175 0 7.559 1.652 7.559 3.689s-3.384 3.689-7.559 3.689c-4.175 0-7.559-1.652-7.559-3.689s3.384-3.689 7.559-3.689z"/>
        <path d="M157.594 460.72c0-.391.011-.78.03-1.167-.607-10.382-9.194-18.62-19.728-18.62H90.534c-10.928 0-19.787 8.859-19.787 19.787v31.532h86.848V460.72zm-43.379-8.298c4.406 0 7.979 1.743 7.979 3.894s-3.572 3.894-7.979 3.894-7.979-1.743-7.979-3.894 3.572-3.894 7.979-3.894zM256.482 354.853c.778-.525 2.035-.87 3.464-.87s2.686.345 3.464.87h3.047c8.434 0 15.296 6.861 15.296 15.296 0-2.328.56-4.528 1.532-6.505v-5.205c0-5.867-4.757-10.624-10.624-10.624h-25.429c-4.607 0-8.518 2.938-9.99 7.038h19.24z"/>
        <path d="M236.322 357.559c-6.78 0-12.293 5.364-12.564 12.077.094-.001.185-.014.279-.014h25.349c-1.806-.38-3.072-1.255-3.072-2.275 0-1.368 2.273-2.477 5.077-2.477s5.077 1.109 5.077 2.477c0 1.021-1.266 1.896-3.072 2.275h7.529c6.254 0 11.786 3.093 15.188 7.818a18.628 18.628 0 012.937-3.289v-4.001c0-6.953-5.637-12.59-12.59-12.59h-30.138z"/>
        <path d="M208.633 388.192c.71-.074 1.43-.116 2.159-.116h40.437c6.966 0 13.122 3.495 16.835 8.817a20.58 20.58 0 014.603-4.769v-3.779c0-2.731.586-5.319 1.615-7.661-2.659-4.627-7.64-7.75-13.359-7.75h-36.886c-8.46 0-15.321 6.818-15.404 15.258zm33.846-.246c-3.432 0-6.214-1.358-6.214-3.032 0-1.675 2.782-3.032 6.214-3.032 3.432 0 6.214 1.358 6.214 3.032 0 1.675-2.782 3.032-6.214 3.032z"/>
        <path d="M193.971 407.157a23.076 23.076 0 012.03-.095h29.953c-1.087-.589-1.755-1.366-1.755-2.221 0-1.836 3.05-3.324 6.812-3.324s6.812 1.488 6.812 3.324c0 .855-.667 1.632-1.755 2.221h4.804c8.219 0 15.433 4.376 19.439 10.92a22.805 22.805 0 014.099-5.063V408.6c0-2.872.592-5.606 1.652-8.09-2.867-5.245-8.433-8.804-14.832-8.804h-40.437c-8.844 0-16.088 6.798-16.822 15.451z"/>
        <path d="M250.908 450.855a24.15 24.15 0 016.154-8.265v-12.753c0-2.504.401-4.912 1.131-7.167-2.815-6.796-9.507-11.58-17.321-11.58H196c-10.354 0-18.747 8.393-18.747 18.747v7.251a24.035 24.035 0 014.38-.407h47.362c9.74 0 18.14 5.826 21.913 14.174zm-32.472-28.88c4.175 0 7.559 1.652 7.559 3.689s-3.384 3.689-7.559 3.689c-4.175 0-7.559-1.652-7.559-3.689s3.384-3.689 7.559-3.689z"/>
        <path d="M248.782 460.72c0-10.928-8.859-19.787-19.787-19.787h-47.362c-10.928 0-19.787 8.859-19.787 19.787v31.532h86.936V460.72zm-43.468-8.298c4.406 0 7.979 1.743 7.979 3.894s-3.572 3.894-7.979 3.894-7.979-1.743-7.979-3.894 3.572-3.894 7.979-3.894zM313.345 354.853c.845-.525 2.209-.87 3.76-.87s2.915.345 3.76.87h8.139c4.621 0 8.775 1.916 11.684 4.951v-1.366c0-1.484.287-2.904.789-4.232-1.776-3.76-5.839-6.391-10.573-6.391h-27.599c-5.386 0-9.896 3.407-11.163 8.007a16.37 16.37 0 015.519-.968h15.684z"/>
        <path d="M284.567 370.813a17.708 17.708 0 016.345-1.191h20.337c-1.879-.38-3.195-1.255-3.195-2.275 0-1.368 2.364-2.477 5.28-2.477 2.916 0 5.28 1.109 5.28 2.477 0 1.021-1.317 1.896-3.195 2.275h11.438c5.531 0 10.484 2.548 13.833 6.549v-11.683c-2.157-4.106-6.573-6.929-11.685-6.929h-31.343c-7.232 0-13.095 5.637-13.095 12.59v.664z"/>
        <path d="M290.911 372.934c-8.294 0-15.017 6.9-15.017 15.411v1.803a20.01 20.01 0 018.84-2.072h40.042c6.333 0 11.995 2.942 15.725 7.541v-7.273c0-.862.077-1.704.187-2.535v-3.473c-2.282-5.526-7.616-9.403-13.833-9.403h-35.944zm17.973 15.012c-3.344 0-6.055-1.358-6.055-3.032 0-1.675 2.711-3.032 6.055-3.032s6.055 1.358 6.055 3.032c0 1.675-2.711 3.032-6.055 3.032z"/>
        <path d="M340.501 415.973V402.882c-2.323-6.512-8.477-11.176-15.725-11.176h-40.042c-9.239 0-16.729 7.564-16.729 16.894v1.611a21.595 21.595 0 0111.232-3.15h20.51c-1.077-.589-1.737-1.366-1.737-2.221 0-1.836 3.02-3.324 6.746-3.324 3.725 0 6.746 1.488 6.746 3.324 0 .855-.661 1.632-1.738 2.221h13.162c7.151 0 13.518 3.499 17.575 8.912z"/>
        <path d="M340.501 447.897v-23.06c-2.133-7.923-9.184-13.748-17.576-13.748h-43.688c-10.081 0-18.253 8.393-18.253 18.747v9.973a23.888 23.888 0 0111.837-3.129h47.362c8.543.001 16.054 4.484 20.318 11.217zm-46.78-22.233c0-2.037 3.295-3.689 7.36-3.689s7.36 1.652 7.36 3.689-3.295 3.689-7.36 3.689-7.36-1.652-7.36-3.689z"/>
        <path d="M339.97 460.72c0-10.928-8.859-19.787-19.787-19.787h-47.362c-10.928 0-19.787 8.859-19.787 19.787v31.532h86.936V460.72zm-43.468-8.298c4.406 0 7.979 1.743 7.979 3.894s-3.572 3.894-7.979 3.894-7.979-1.743-7.979-3.894 3.572-3.894 7.979-3.894zM462.405 362.336a15.323 15.323 0 019.489-7.027c.627-.775 2.167-1.325 3.978-1.325 1.429 0 2.686.345 3.464.87h19.241c-1.472-4.1-5.383-7.038-9.99-7.038h-25.429c-4.785 0-8.829 3.165-10.159 7.515 3.986 1 7.349 3.563 9.406 7.005z"/>
        <path d="M475.531 357.559c-5.304 0-9.834 3.285-11.688 7.927.446 1.391.693 2.868.719 4.399a18.721 18.721 0 0112.269 7.659c2.969-4.183 7.603-7.094 12.934-7.76-2.405-.195-4.244-1.207-4.244-2.436 0-1.368 2.273-2.477 5.077-2.477s5.077 1.109 5.077 2.477c0 1.021-1.266 1.896-3.072 2.275h25.627c-.278-6.707-5.788-12.063-12.564-12.063h-30.135z"/>
        <path d="M492.098 372.934c-5.761 0-10.775 3.167-13.419 7.849a18.597 18.597 0 011.609 7.562v.496a20.539 20.539 0 0110.064 6.393c3.767-4.373 9.331-7.157 15.542-7.157h38.488c-.145-8.386-6.977-15.142-15.397-15.142h-36.887zm18.443 15.012c-3.432 0-6.214-1.358-6.214-3.032 0-1.675 2.782-3.032 6.214-3.032 3.432 0 6.214 1.358 6.214 3.032 0 1.675-2.782 3.032-6.214 3.032z"/>
        <path d="M546.331 391.706h-40.437c-5.445 0-10.275 2.587-13.364 6.587a20.361 20.361 0 012.763 9.489c5.285 1.365 9.828 4.588 12.899 8.923 3.273-4.62 8.218-7.976 13.951-9.167-1.719-.603-2.843-1.586-2.843-2.698 0-1.836 3.05-3.324 6.812-3.324s6.812 1.488 6.812 3.324c0 .855-.667 1.632-1.755 2.221h31.978c-.778-8.608-8.005-15.355-16.816-15.355z"/>
        <path d="M526.783 411.09c-7.02 0-13.129 3.864-16.341 9.576a22.629 22.629 0 011.935 9.171v8.365a24.167 24.167 0 0113.461 12.556c3.794-8.296 12.166-14.077 21.869-14.077h42.695v-6.844c0-10.354-8.393-18.747-18.747-18.747h-44.872zm29.995 14.574c0 2.037-3.384 3.689-7.559 3.689s-7.559-1.652-7.559-3.689 3.384-3.689 7.559-3.689 7.559 1.652 7.559 3.689z"/>
        <path d="M595.068 440.933h-47.362c-10.535 0-19.122 8.239-19.728 18.621.019.386.03.775.03 1.166v31.532h86.848V460.72c-.001-10.928-8.86-19.787-19.788-19.787zm-31.66 15.383c0-2.15 3.572-3.894 7.979-3.894s7.979 1.743 7.979 3.894-3.572 3.894-7.979 3.894c-4.406-.001-7.979-1.744-7.979-3.894zM419.144 354.853h3.047c.778-.525 2.035-.87 3.464-.87 1.429 0 2.686.345 3.464.87h19.241c-1.472-4.1-5.383-7.038-9.99-7.038h-25.429c-5.867 0-10.624 4.757-10.624 10.624v5.205a14.692 14.692 0 011.532 6.505c0-8.434 6.861-15.296 15.295-15.296z"/>
        <path d="M406.554 370.149v4.001a18.739 18.739 0 012.937 3.289c3.402-4.724 8.935-7.818 15.188-7.818h7.529c-1.806-.38-3.072-1.255-3.072-2.275 0-1.368 2.273-2.477 5.077-2.477s5.077 1.109 5.077 2.477c0 1.021-1.266 1.896-3.072 2.275h25.349c.094 0 .185.013.279.014-.271-6.714-5.784-12.077-12.564-12.077h-30.135c-6.956.001-12.593 5.638-12.593 12.591z"/>
        <path d="M461.565 372.934h-36.886c-5.719 0-10.7 3.123-13.359 7.75a18.995 18.995 0 011.615 7.661v3.779a20.578 20.578 0 014.603 4.769c3.712-5.321 9.869-8.817 16.835-8.817h40.437c.729 0 1.449.041 2.159.116-.083-8.44-6.944-15.258-15.404-15.258zm-18.443 15.012c-3.432 0-6.214-1.358-6.214-3.032 0-1.675 2.782-3.032 6.214-3.032s6.214 1.358 6.214 3.032c0 1.675-2.782 3.032-6.214 3.032z"/>
        <path d="M474.809 391.706h-40.437c-6.399 0-11.965 3.559-14.832 8.804a20.565 20.565 0 011.652 8.09v4.318a22.822 22.822 0 014.099 5.063c4.006-6.544 11.22-10.92 19.439-10.92h4.804c-1.087-.589-1.755-1.366-1.755-2.221 0-1.836 3.05-3.324 6.812-3.324s6.812 1.488 6.812 3.324c0 .855-.667 1.632-1.755 2.221h29.953c.684 0 1.36.036 2.03.095-.734-8.652-7.978-15.45-16.822-15.45z"/>
        <path d="M434.693 450.855c3.773-8.348 12.173-14.174 21.913-14.174h47.362c1.496 0 2.958.144 4.38.407v-7.251c0-10.354-8.393-18.747-18.747-18.747h-44.872c-7.814 0-14.506 4.784-17.321 11.58a23.231 23.231 0 011.131 7.167v12.753a24.15 24.15 0 016.154 8.265zm40.032-25.191c0 2.037-3.384 3.689-7.559 3.689s-7.559-1.652-7.559-3.689 3.384-3.689 7.559-3.689 7.559 1.652 7.559 3.689z"/>
        <path d="M523.756 460.72c0-10.928-8.859-19.787-19.787-19.787h-47.362c-10.928 0-19.787 8.859-19.787 19.787v31.532h86.936V460.72zm-51.447-4.404c0-2.15 3.572-3.894 7.979-3.894s7.979 1.743 7.979 3.894-3.572 3.894-7.979 3.894c-4.407-.001-7.979-1.744-7.979-3.894zM343.166 361.987c2.823-4.279 7.781-7.134 13.431-7.134h8.139c.845-.525 2.209-.87 3.76-.87s2.915.345 3.76.87h15.684c1.942 0 3.796.353 5.519.968-1.267-4.599-5.777-8.007-11.163-8.007h-27.599c-6.368 0-11.53 4.757-11.53 10.624v3.549z"/>
        <path d="M387.94 357.559h-31.343c-7.232 0-13.095 5.637-13.095 12.59v7.935c3.264-5.09 8.874-8.462 15.243-8.462h11.438c-1.879-.38-3.195-1.255-3.195-2.275 0-1.368 2.364-2.477 5.28-2.477s5.28 1.109 5.28 2.477c0 1.021-1.317 1.896-3.195 2.275h20.337c2.234 0 4.365.434 6.345 1.191v-.664c0-6.953-5.863-12.59-13.095-12.59z"/>
        <path d="M343.728 388.344v9.202c3.618-5.686 9.922-9.47 17.097-9.47h40.042c3.171 0 6.163.758 8.84 2.072v-1.803c0-8.511-6.723-15.411-15.017-15.411h-35.945c-8.293 0-15.017 6.899-15.017 15.41zm32.99-.398c-3.344 0-6.055-1.358-6.055-3.032 0-1.675 2.711-3.032 6.055-3.032s6.055 1.358 6.055 3.032c0 1.675-2.711 3.032-6.055 3.032z"/>
        <path d="M417.597 410.211V408.6c0-9.33-7.49-16.894-16.729-16.894h-40.042c-9.239 0-16.729 7.564-16.729 16.894v8.827c3.961-6.234 10.807-10.366 18.58-10.366h13.162c-1.077-.589-1.738-1.366-1.738-2.221 0-1.836 3.02-3.324 6.746-3.324 3.726 0 6.746 1.488 6.746 3.324 0 .855-.661 1.632-1.738 2.221h20.51c4.097 0 7.935 1.152 11.232 3.15z"/>
        <path d="M424.617 429.837c0-10.354-8.172-18.747-18.253-18.747h-43.688c-10.081 0-18.253 8.393-18.253 18.747v19.193c4.114-7.36 11.981-12.349 20.995-12.349h47.362c4.302 0 8.34 1.141 11.837 3.129v-9.973zm-47.457-4.173c0-2.037 3.295-3.689 7.36-3.689s7.36 1.652 7.36 3.689-3.295 3.689-7.36 3.689c-4.064 0-7.36-1.652-7.36-3.689z"/>
        <path d="M432.568 460.72c0-10.928-8.859-19.787-19.787-19.787h-47.362c-10.928 0-19.787 8.859-19.787 19.787v31.532h86.936V460.72zm-51.447-4.404c0-2.15 3.572-3.894 7.979-3.894s7.979 1.743 7.979 3.894-3.572 3.894-7.979 3.894c-4.407-.001-7.979-1.744-7.979-3.894z"/>
      </g>
    </g>
  </switch>
</svg>
