<?xml version="1.0" encoding="UTF-8" standalone="no"?>
<svg
   xmlns:dc="http://purl.org/dc/elements/1.1/"
   xmlns:cc="http://creativecommons.org/ns#"
   xmlns:rdf="http://www.w3.org/1999/02/22-rdf-syntax-ns#"
   xmlns:svg="http://www.w3.org/2000/svg"
   xmlns="http://www.w3.org/2000/svg"
   viewBox="0 0 1365.3333 1365.3333"
   height="1365.3333"
   width="1365.3333"
   xml:space="preserve"
   id="svg2"
   version="1.1"><metadata
     id="metadata8"><rdf:RDF><cc:Work
         rdf:about=""><dc:format>image/svg+xml</dc:format><dc:type
           rdf:resource="http://purl.org/dc/dcmitype/StillImage" /></cc:Work></rdf:RDF></metadata><defs
     id="defs6"><linearGradient
       id="linearGradient30"
       spreadMethod="pad"
       gradientTransform="matrix(60.926277,-96.111717,-96.111717,-60.926277,326.76172,559.53088)"
       gradientUnits="userSpaceOnUse"
       y2="0"
       x2="1"
       y1="0"
       x1="0"><stop
         id="stop24"
         offset="0"
         style="stop-opacity:1;stop-color:#d16ae8" /><stop
         id="stop26"
         offset="0.915842"
         style="stop-opacity:1;stop-color:#7e3a9f" /><stop
         id="stop28"
         offset="1"
         style="stop-opacity:1;stop-color:#7e3a9f" /></linearGradient><linearGradient
       id="linearGradient50"
       spreadMethod="pad"
       gradientTransform="matrix(202.50426,0,0,-202.50426,254.5,367.68625)"
       gradientUnits="userSpaceOnUse"
       y2="0"
       x2="1"
       y1="0"
       x1="0"><stop
         id="stop46"
         offset="0"
         style="stop-opacity:1;stop-color:#7891e8" /><stop
         id="stop48"
         offset="1"
         style="stop-opacity:1;stop-color:#54c7f1" /></linearGradient><linearGradient
       id="linearGradient70"
       spreadMethod="pad"
       gradientTransform="matrix(209.8895,205.05423,205.05423,-209.8895,412.90677,178.97844)"
       gradientUnits="userSpaceOnUse"
       y2="0"
       x2="1"
       y1="0"
       x1="0"><stop
         id="stop66"
         offset="0"
         style="stop-opacity:1;stop-color:#87f595" /><stop
         id="stop68"
         offset="1"
         style="stop-opacity:1;stop-color:#54bf00" /></linearGradient><linearGradient
       id="linearGradient90"
       spreadMethod="pad"
       gradientTransform="matrix(-50.820286,156.08359,156.08359,50.820286,742.48096,307.216)"
       gradientUnits="userSpaceOnUse"
       y2="0"
       x2="1"
       y1="0"
       x1="0"><stop
         id="stop86"
         offset="0"
         style="stop-opacity:1;stop-color:#f0e955" /><stop
         id="stop88"
         offset="1"
         style="stop-opacity:1;stop-color:#ffbc00" /></linearGradient><linearGradient
       id="linearGradient110"
       spreadMethod="pad"
       gradientTransform="matrix(-162.25285,28.328081,28.328081,162.25285,784.19562,595.20782)"
       gradientUnits="userSpaceOnUse"
       y2="0"
       x2="1"
       y1="0"
       x1="0"><stop
         id="stop106"
         offset="0"
         style="stop-opacity:1;stop-color:#ffd64f" /><stop
         id="stop108"
         offset="1"
         style="stop-opacity:1;stop-color:#ff6e00" /></linearGradient><linearGradient
       id="linearGradient130"
       spreadMethod="pad"
       gradientTransform="matrix(-117.20619,-196.48975,-196.48975,117.20619,553.96875,771.29474)"
       gradientUnits="userSpaceOnUse"
       y2="0"
       x2="1"
       y1="0"
       x1="0"><stop
         id="stop126"
         offset="0"
         style="stop-opacity:1;stop-color:#ff9d00" /><stop
         id="stop128"
         offset="1"
         style="stop-opacity:1;stop-color:#ff004f" /></linearGradient><clipPath
       id="clipPath140"
       clipPathUnits="userSpaceOnUse"><path
         id="path138"
         d="m 359.55,574.32 34.97,-119.2 8.82,-30.08 0.16,-0.09 v 26.55 116 33 z" /></clipPath><linearGradient
       id="linearGradient156"
       spreadMethod="pad"
       gradientTransform="matrix(10.152651,-90.673363,-90.673363,-10.152651,383.85349,566.61438)"
       gradientUnits="userSpaceOnUse"
       y2="0"
       x2="1"
       y1="0"
       x1="0"><stop
         id="stop150"
         offset="0"
         style="stop-opacity:0;stop-color:#ffffff" /><stop
         id="stop152"
         offset="0.915842"
         style="stop-opacity:1;stop-color:#ffffff" /><stop
         id="stop154"
         offset="1"
         style="stop-opacity:1;stop-color:#ffffff" /></linearGradient><mask
       id="mask158"
       height="1"
       width="1"
       y="0"
       x="0"
       maskUnits="userSpaceOnUse"><g
         id="g168"><g
           id="g166"><g
             id="g164"><g
               id="g162"><path
                 id="path160"
                 style="fill:url(#linearGradient156);stroke:none"
                 d="M -32768,32767 H 32767 V -32768 H -32768 Z" /></g></g></g></g></mask><linearGradient
       id="linearGradient180"
       spreadMethod="pad"
       gradientTransform="matrix(10.152651,-90.673363,-90.673363,-10.152651,383.85349,566.61438)"
       gradientUnits="userSpaceOnUse"
       y2="0"
       x2="1"
       y1="0"
       x1="0"><stop
         id="stop174"
         offset="0"
         style="stop-opacity:1;stop-color:#d16ae8" /><stop
         id="stop176"
         offset="0.915842"
         style="stop-opacity:1;stop-color:#c34aae" /><stop
         id="stop178"
         offset="1"
         style="stop-opacity:1;stop-color:#c34aae" /></linearGradient><clipPath
       id="clipPath190"
       clipPathUnits="userSpaceOnUse"><path
         id="path188"
         d="m 254.65,424.46 241.6,-63.06 29.61,-7.73 0.18,0.099 -22.38,13.001 -100.16,58.18 v -0.45 l -0.16,0.54 -148.84,86.46 z" /></clipPath><linearGradient
       id="linearGradient204"
       spreadMethod="pad"
       gradientTransform="matrix(195.02528,-78.72377,-78.72377,-195.02528,262.68051,464.70816)"
       gradientUnits="userSpaceOnUse"
       y2="0"
       x2="1"
       y1="0"
       x1="0"><stop
         id="stop200"
         offset="0"
         style="stop-opacity:0;stop-color:#ffffff" /><stop
         id="stop202"
         offset="1"
         style="stop-opacity:1;stop-color:#ffffff" /></linearGradient><mask
       id="mask206"
       height="1"
       width="1"
       y="0"
       x="0"
       maskUnits="userSpaceOnUse"><g
         id="g216"><g
           id="g214"><g
             id="g212"><g
               id="g210"><path
                 id="path208"
                 style="fill:url(#linearGradient204);stroke:none"
                 d="M -32768,32767 H 32767 V -32768 H -32768 Z" /></g></g></g></g></mask><linearGradient
       id="linearGradient226"
       spreadMethod="pad"
       gradientTransform="matrix(195.02528,-78.72377,-78.72377,-195.02528,262.68051,464.70816)"
       gradientUnits="userSpaceOnUse"
       y2="0"
       x2="1"
       y1="0"
       x1="0"><stop
         id="stop222"
         offset="0"
         style="stop-opacity:1;stop-color:#7891e8" /><stop
         id="stop224"
         offset="1"
         style="stop-opacity:1;stop-color:#43e8f1" /></linearGradient><clipPath
       id="clipPath236"
       clipPathUnits="userSpaceOnUse"><path
         id="path234"
         d="m 625.54,411.241 -99.5,-57.472 0.46,-0.269 -0.64,0.17 -224.7,-129.79 c 31.55,-0.09 75.48,-0.2 119.46,-0.28 v 0 l 205.79,181.42 21.63,19.07 v 0.14 z" /></clipPath><linearGradient
       id="linearGradient250"
       spreadMethod="pad"
       gradientTransform="matrix(222.29362,166.5681,166.5681,-222.29362,360.62454,223.54112)"
       gradientUnits="userSpaceOnUse"
       y2="0"
       x2="1"
       y1="0"
       x1="0"><stop
         id="stop246"
         offset="0"
         style="stop-opacity:0;stop-color:#ffffff" /><stop
         id="stop248"
         offset="1"
         style="stop-opacity:1;stop-color:#ffffff" /></linearGradient><mask
       id="mask252"
       height="1"
       width="1"
       y="0"
       x="0"
       maskUnits="userSpaceOnUse"><g
         id="g262"><g
           id="g260"><g
             id="g258"><g
               id="g256"><path
                 id="path254"
                 style="fill:url(#linearGradient250);stroke:none"
                 d="M -32768,32767 H 32767 V -32768 H -32768 Z" /></g></g></g></g></mask><linearGradient
       id="linearGradient272"
       spreadMethod="pad"
       gradientTransform="matrix(222.29362,166.5681,166.5681,-222.29362,360.62454,223.54112)"
       gradientUnits="userSpaceOnUse"
       y2="0"
       x2="1"
       y1="0"
       x1="0"><stop
         id="stop268"
         offset="0"
         style="stop-opacity:1;stop-color:#87f595" /><stop
         id="stop270"
         offset="1"
         style="stop-opacity:1;stop-color:#75d800" /></linearGradient><clipPath
       id="clipPath282"
       clipPathUnits="userSpaceOnUse"><path
         id="path280"
         d="m 648.42,542.5 -0.38,-118.27 0.46,0.27 -0.46,-0.41 -0.54,-169.59 0.14,-0.27 c 28.48,14.569 54.07,33.85 75.71,56.8 v 0 l -66.31,228.09 -8.43,28.99 -0.11,0.06 z" /></clipPath><linearGradient
       id="linearGradient296"
       spreadMethod="pad"
       gradientTransform="matrix(-20.730534,177.36681,177.36681,20.730534,687.0899,268.52008)"
       gradientUnits="userSpaceOnUse"
       y2="0"
       x2="1"
       y1="0"
       x1="0"><stop
         id="stop292"
         offset="0"
         style="stop-opacity:0;stop-color:#ffffff" /><stop
         id="stop294"
         offset="1"
         style="stop-opacity:1;stop-color:#ffffff" /></linearGradient><mask
       id="mask298"
       height="1"
       width="1"
       y="0"
       x="0"
       maskUnits="userSpaceOnUse"><g
         id="g308"><g
           id="g306"><g
             id="g304"><g
               id="g302"><path
                 id="path300"
                 style="fill:url(#linearGradient296);stroke:none"
                 d="M -32768,32767 H 32767 V -32768 H -32768 Z" /></g></g></g></g></mask><linearGradient
       id="linearGradient318"
       spreadMethod="pad"
       gradientTransform="matrix(-20.730534,177.36681,177.36681,20.730534,687.0899,268.52008)"
       gradientUnits="userSpaceOnUse"
       y2="0"
       x2="1"
       y1="0"
       x1="0"><stop
         id="stop314"
         offset="0"
         style="stop-opacity:1;stop-color:#fff64f" /><stop
         id="stop316"
         offset="1"
         style="stop-opacity:1;stop-color:#ffdf00" /></linearGradient><clipPath
       id="clipPath328"
       clipPathUnits="userSpaceOnUse"><path
         id="path326"
         d="M 545.65,626.62 648.5,568.17 v 0.33 l 0.11,-0.39 148.56,-84.43 c 0.219,4.41 0.33,8.85 0.33,13.32 v 0 c 0,22.97 -2.88,45.281 -8.3,66.59 v 0 L 551,630.61 526.5,637.5 Z" /></clipPath><linearGradient
       id="linearGradient342"
       spreadMethod="pad"
       gradientTransform="matrix(-183.50366,73.718475,73.718475,183.50366,771.36523,532.40057)"
       gradientUnits="userSpaceOnUse"
       y2="0"
       x2="1"
       y1="0"
       x1="0"><stop
         id="stop338"
         offset="0"
         style="stop-opacity:0;stop-color:#ffffff" /><stop
         id="stop340"
         offset="1"
         style="stop-opacity:1;stop-color:#ffffff" /></linearGradient><mask
       id="mask344"
       height="1"
       width="1"
       y="0"
       x="0"
       maskUnits="userSpaceOnUse"><g
         id="g354"><g
           id="g352"><g
             id="g350"><g
               id="g348"><path
                 id="path346"
                 style="fill:url(#linearGradient342);stroke:none"
                 d="M -32768,32767 H 32767 V -32768 H -32768 Z" /></g></g></g></g></mask><linearGradient
       id="linearGradient364"
       spreadMethod="pad"
       gradientTransform="matrix(-183.50366,73.718475,73.718475,183.50366,771.36523,532.40057)"
       gradientUnits="userSpaceOnUse"
       y2="0"
       x2="1"
       y1="0"
       x1="0"><stop
         id="stop360"
         offset="0"
         style="stop-opacity:1;stop-color:#fff64f" /><stop
         id="stop362"
         offset="1"
         style="stop-opacity:1;stop-color:#ffa700" /></linearGradient><clipPath
       id="clipPath374"
       clipPathUnits="userSpaceOnUse"><path
         id="path372"
         d="m 403.5,567.5 122.77,70.41 149.159,85.55 c -27.579,18.42 -58.699,32.08 -92.149,39.799 v 0 z" /></clipPath><linearGradient
       id="linearGradient388"
       spreadMethod="pad"
       gradientTransform="matrix(-180.40491,-177.51707,-177.51707,180.40491,617.55597,731.74988)"
       gradientUnits="userSpaceOnUse"
       y2="0"
       x2="1"
       y1="0"
       x1="0"><stop
         id="stop384"
         offset="0"
         style="stop-opacity:0.50000763;stop-color:#ffffff" /><stop
         id="stop386"
         offset="1"
         style="stop-opacity:1;stop-color:#ffffff" /></linearGradient><mask
       id="mask390"
       height="1"
       width="1"
       y="0"
       x="0"
       maskUnits="userSpaceOnUse"><g
         id="g400"><g
           id="g398"><g
             id="g396"><g
               id="g394"><path
                 id="path392"
                 style="fill:url(#linearGradient388);stroke:none"
                 d="M -32768,32767 H 32767 V -32768 H -32768 Z" /></g></g></g></g></mask><linearGradient
       id="linearGradient410"
       spreadMethod="pad"
       gradientTransform="matrix(-180.40491,-177.51707,-177.51707,180.40491,617.55597,731.74988)"
       gradientUnits="userSpaceOnUse"
       y2="0"
       x2="1"
       y1="0"
       x1="0"><stop
         id="stop406"
         offset="0"
         style="stop-opacity:1;stop-color:#ff9d00" /><stop
         id="stop408"
         offset="1"
         style="stop-opacity:1;stop-color:#ff4099" /></linearGradient><clipPath
       id="clipPath420"
       clipPathUnits="userSpaceOnUse"><path
         id="path418"
         d="M 254.5,511.75 V 511.5 L 403.01,425.23 319.52,550.48 Z" /></clipPath><linearGradient
       id="linearGradient436"
       spreadMethod="pad"
       gradientTransform="matrix(75.15609,-78.312096,-78.312096,-75.15609,282.37067,535.82416)"
       gradientUnits="userSpaceOnUse"
       y2="0"
       x2="1"
       y1="0"
       x1="0"><stop
         id="stop430"
         offset="0"
         style="stop-opacity:0;stop-color:#ffffff" /><stop
         id="stop432"
         offset="0.915842"
         style="stop-opacity:1;stop-color:#ffffff" /><stop
         id="stop434"
         offset="1"
         style="stop-opacity:1;stop-color:#ffffff" /></linearGradient><mask
       id="mask438"
       height="1"
       width="1"
       y="0"
       x="0"
       maskUnits="userSpaceOnUse"><g
         id="g448"><g
           id="g446"><g
             id="g444"><g
               id="g442"><path
                 id="path440"
                 style="fill:url(#linearGradient436);stroke:none"
                 d="M -32768,32767 H 32767 V -32768 H -32768 Z" /></g></g></g></g></mask><linearGradient
       id="linearGradient460"
       spreadMethod="pad"
       gradientTransform="matrix(75.15609,-78.312096,-78.312096,-75.15609,282.37067,535.82416)"
       gradientUnits="userSpaceOnUse"
       y2="0"
       x2="1"
       y1="0"
       x1="0"><stop
         id="stop454"
         offset="0"
         style="stop-opacity:1;stop-color:#d16ae8" /><stop
         id="stop456"
         offset="0.915842"
         style="stop-opacity:1;stop-color:#611f99" /><stop
         id="stop458"
         offset="1"
         style="stop-opacity:1;stop-color:#611f99" /></linearGradient><clipPath
       id="clipPath470"
       clipPathUnits="userSpaceOnUse"><path
         id="path468"
         d="M 467.04,340.82 254.88,295.58 255,224 c 0,0 18.18,-0.049 46.04,-0.12 v 0 c 0.04,-0.01 0.08,-0.01 0.12,0 v 0 l 223.859,129.3 z" /></clipPath><linearGradient
       id="linearGradient486"
       spreadMethod="pad"
       gradientTransform="matrix(198.33673,67.099754,67.099754,-198.33673,262.57159,254.50363)"
       gradientUnits="userSpaceOnUse"
       y2="0"
       x2="1"
       y1="0"
       x1="0"><stop
         id="stop480"
         offset="0"
         style="stop-opacity:0.50000763;stop-color:#ffffff" /><stop
         id="stop482"
         offset="0.891089"
         style="stop-opacity:1;stop-color:#ffffff" /><stop
         id="stop484"
         offset="1"
         style="stop-opacity:1;stop-color:#ffffff" /></linearGradient><mask
       id="mask488"
       height="1"
       width="1"
       y="0"
       x="0"
       maskUnits="userSpaceOnUse"><g
         id="g498"><g
           id="g496"><g
             id="g494"><g
               id="g492"><path
                 id="path490"
                 style="fill:url(#linearGradient486);stroke:none"
                 d="M -32768,32767 H 32767 V -32768 H -32768 Z" /></g></g></g></g></mask><linearGradient
       id="linearGradient510"
       spreadMethod="pad"
       gradientTransform="matrix(198.33673,67.099754,67.099754,-198.33673,262.57159,254.50363)"
       gradientUnits="userSpaceOnUse"
       y2="0"
       x2="1"
       y1="0"
       x1="0"><stop
         id="stop504"
         offset="0"
         style="stop-opacity:1;stop-color:#7891e8" /><stop
         id="stop506"
         offset="0.891089"
         style="stop-opacity:1;stop-color:#547cf1" /><stop
         id="stop508"
         offset="1"
         style="stop-opacity:1;stop-color:#547cf1" /></linearGradient><clipPath
       id="clipPath520"
       clipPathUnits="userSpaceOnUse"><path
         id="path518"
         d="M 629.41,383.639 555.639,225.79 c 32.812,4.191 63.821,14.01 92.001,28.44 v 0 l -0.14,0.27 0.54,169.009 z" /></clipPath><linearGradient
       id="linearGradient534"
       spreadMethod="pad"
       gradientTransform="matrix(32.211197,121.9457,121.9457,-32.211197,599.09906,230.39056)"
       gradientUnits="userSpaceOnUse"
       y2="0"
       x2="1"
       y1="0"
       x1="0"><stop
         id="stop530"
         offset="0"
         style="stop-opacity:0.50000763;stop-color:#ffffff" /><stop
         id="stop532"
         offset="1"
         style="stop-opacity:1;stop-color:#ffffff" /></linearGradient><mask
       id="mask536"
       height="1"
       width="1"
       y="0"
       x="0"
       maskUnits="userSpaceOnUse"><g
         id="g546"><g
           id="g544"><g
             id="g542"><g
               id="g540"><path
                 id="path538"
                 style="fill:url(#linearGradient534);stroke:none"
                 d="M -32768,32767 H 32767 V -32768 H -32768 Z" /></g></g></g></g></mask><linearGradient
       id="linearGradient556"
       spreadMethod="pad"
       gradientTransform="matrix(32.211197,121.9457,121.9457,-32.211197,599.09906,230.39056)"
       gradientUnits="userSpaceOnUse"
       y2="0"
       x2="1"
       y1="0"
       x1="0"><stop
         id="stop552"
         offset="0"
         style="stop-opacity:1;stop-color:#87f595" /><stop
         id="stop554"
         offset="1"
         style="stop-opacity:1;stop-color:#348d1c" /></linearGradient><clipPath
       id="clipPath566"
       clipPathUnits="userSpaceOnUse"><path
         id="path564"
         d="m 678.41,530.66 101.8,-128.8 c 9.69,25.66 15.559,53.14 16.96,81.77 v 0 0.05 l -148.201,84.23 z" /></clipPath><linearGradient
       id="linearGradient580"
       spreadMethod="pad"
       gradientTransform="matrix(-98.308411,98.693855,98.693855,98.308411,795.00262,436.43253)"
       gradientUnits="userSpaceOnUse"
       y2="0"
       x2="1"
       y1="0"
       x1="0"><stop
         id="stop576"
         offset="0"
         style="stop-opacity:0.50000763;stop-color:#ffffff" /><stop
         id="stop578"
         offset="1"
         style="stop-opacity:1;stop-color:#ffffff" /></linearGradient><mask
       id="mask582"
       height="1"
       width="1"
       y="0"
       x="0"
       maskUnits="userSpaceOnUse"><g
         id="g592"><g
           id="g590"><g
             id="g588"><g
               id="g586"><path
                 id="path584"
                 style="fill:url(#linearGradient580);stroke:none"
                 d="M -32768,32767 H 32767 V -32768 H -32768 Z" /></g></g></g></g></mask><linearGradient
       id="linearGradient602"
       spreadMethod="pad"
       gradientTransform="matrix(-98.308411,98.693855,98.693855,98.308411,795.00262,436.43253)"
       gradientUnits="userSpaceOnUse"
       y2="0"
       x2="1"
       y1="0"
       x1="0"><stop
         id="stop598"
         offset="0"
         style="stop-opacity:1;stop-color:#f0e955" /><stop
         id="stop600"
         offset="1"
         style="stop-opacity:1;stop-color:#e08517" /></linearGradient><clipPath
       id="clipPath612"
       clipPathUnits="userSpaceOnUse"><path
         id="path610"
         d="m 526.27,637.91 0.23,-0.41 44.959,8.38 158.731,29.56 c -16,18.27 -34.41,34.43 -54.751,48.011 v 0 l -0.01,0.009 z" /></clipPath><linearGradient
       id="linearGradient626"
       spreadMethod="pad"
       gradientTransform="matrix(-150.99902,-57.518028,-57.518028,150.99902,713.5332,703.53467)"
       gradientUnits="userSpaceOnUse"
       y2="0"
       x2="1"
       y1="0"
       x1="0"><stop
         id="stop622"
         offset="0"
         style="stop-opacity:0.50000763;stop-color:#ffffff" /><stop
         id="stop624"
         offset="1"
         style="stop-opacity:1;stop-color:#ffffff" /></linearGradient><mask
       id="mask628"
       height="1"
       width="1"
       y="0"
       x="0"
       maskUnits="userSpaceOnUse"><g
         id="g638"><g
           id="g636"><g
             id="g634"><g
               id="g632"><path
                 id="path630"
                 style="fill:url(#linearGradient626);stroke:none"
                 d="M -32768,32767 H 32767 V -32768 H -32768 Z" /></g></g></g></g></mask><linearGradient
       id="linearGradient648"
       spreadMethod="pad"
       gradientTransform="matrix(-150.99902,-57.518028,-57.518028,150.99902,713.5332,703.53467)"
       gradientUnits="userSpaceOnUse"
       y2="0"
       x2="1"
       y1="0"
       x1="0"><stop
         id="stop644"
         offset="0"
         style="stop-opacity:1;stop-color:#ffd64f" /><stop
         id="stop646"
         offset="1"
         style="stop-opacity:1;stop-color:#d82b00" /></linearGradient><clipPath
       id="clipPath658"
       clipPathUnits="userSpaceOnUse"><path
         id="path656"
         d="m 403.5,770.5 v -170 -33 l 60,203 z" /></clipPath><linearGradient
       id="linearGradient672"
       spreadMethod="pad"
       gradientTransform="matrix(-33.433151,-203.30865,-203.30865,33.433151,432.76456,766.02771)"
       gradientUnits="userSpaceOnUse"
       y2="0"
       x2="1"
       y1="0"
       x1="0"><stop
         id="stop668"
         offset="0"
         style="stop-opacity:0;stop-color:#ffffff" /><stop
         id="stop670"
         offset="1"
         style="stop-opacity:1;stop-color:#ffffff" /></linearGradient><mask
       id="mask674"
       height="1"
       width="1"
       y="0"
       x="0"
       maskUnits="userSpaceOnUse"><g
         id="g684"><g
           id="g682"><g
             id="g680"><g
               id="g678"><path
                 id="path676"
                 style="fill:url(#linearGradient672);stroke:none"
                 d="M -32768,32767 H 32767 V -32768 H -32768 Z" /></g></g></g></g></mask><linearGradient
       id="linearGradient694"
       spreadMethod="pad"
       gradientTransform="matrix(-33.433151,-203.30865,-203.30865,33.433151,432.76456,766.02771)"
       gradientUnits="userSpaceOnUse"
       y2="0"
       x2="1"
       y1="0"
       x1="0"><stop
         id="stop690"
         offset="0"
         style="stop-opacity:1;stop-color:#ffa024" /><stop
         id="stop692"
         offset="1"
         style="stop-opacity:1;stop-color:#ab004a" /></linearGradient></defs><g
     transform="matrix(1.3333333,0,0,-1.3333333,0,1365.3333)"
     id="g10"><g
       id="g12"><g
         id="g14"><g
           id="g20"><g
             id="g22"><path
               id="path32"
               style="fill:url(#linearGradient30);stroke:none"
               d="M 359.55,574.32 254.5,511.75 v -0.25 l 148.84,-86.46 0.16,-0.09 v 26.55 116 33 z" /></g></g></g></g><g
       id="g34"><g
         id="g36"><g
           id="g42"><g
             id="g44"><path
               id="path52"
               style="fill:url(#linearGradient50);stroke:none"
               d="M 254.65,424.46 255,224 c 0,0 18.181,-0.049 46.04,-0.12 v 0 c 0.04,-0.01 0.08,-0.01 0.12,0 v 0 l 224.7,129.79 0.18,0.099 -22.38,13.001 -100.16,58.18 v -0.45 l -0.16,0.54 -148.84,86.46 z" /></g></g></g></g><g
       id="g54"><g
         id="g56"><g
           id="g62"><g
             id="g64"><path
               id="path72"
               style="fill:url(#linearGradient70);stroke:none"
               d="m 625.54,411.241 -99.5,-57.472 0.46,-0.269 -0.64,0.17 -224.7,-129.79 c 31.55,-0.09 75.48,-0.2 119.46,-0.28 v 0 c 34.99,-0.06 70.02,-0.1 98.88,-0.1 v 0 c 46.219,0 89.8,11.089 128.14,30.73 v 0 l -0.14,0.27 0.54,169.59 v 0.14 z" /></g></g></g></g><g
       id="g74"><g
         id="g76"><g
           id="g82"><g
             id="g84"><path
               id="path92"
               style="fill:url(#linearGradient90);stroke:none"
               d="m 648.42,542.5 -0.38,-118.27 0.46,0.27 -0.46,-0.41 -0.54,-169.59 0.14,-0.27 c 28.48,14.569 54.07,33.85 75.71,56.8 v 0 c 43.14,45.751 70.57,106.06 73.82,172.6 v 0 0.05 l -148.56,84.43 -0.11,0.06 z" /></g></g></g></g><g
       id="g94"><g
         id="g96"><g
           id="g102"><g
             id="g104"><path
               id="path112"
               style="fill:url(#linearGradient110);stroke:none"
               d="m 526.27,637.91 0.23,-0.41 19.15,-10.88 102.85,-58.45 v 0.33 l 0.11,-0.39 148.56,-84.43 c 0.219,4.41 0.33,8.85 0.33,13.32 v 0 c 0,22.97 -2.88,45.281 -8.3,66.59 v 0 c -16.81,66.1 -58.061,122.67 -113.76,159.861 v 0 l -0.011,0.009 z" /></g></g></g></g><g
       id="g114"><g
         id="g116"><g
           id="g122"><g
             id="g124"><path
               id="path132"
               style="fill:url(#linearGradient130);stroke:none"
               d="m 403.5,770.5 v -170 -33 l 122.77,70.41 149.159,85.55 c -27.579,18.42 -58.699,32.08 -92.149,39.799 v 0 C 562.8,768 541.45,770.5 519.5,770.5 v 0 z" /></g></g></g></g><g
       id="g134"><g
         clip-path="url(#clipPath140)"
         id="g136"><g
           id="g142"><g
             id="g144" /><g
             mask="url(#mask158)"
             id="g170"><g
               id="g172"><path
                 id="path182"
                 style="fill:url(#linearGradient180);stroke:none"
                 d="m 359.55,574.32 34.97,-119.2 8.82,-30.08 0.16,-0.09 v 26.55 116 33 z" /></g></g></g></g></g><g
       id="g184"><g
         clip-path="url(#clipPath190)"
         id="g186"><g
           id="g192"><g
             id="g194" /><g
             mask="url(#mask206)"
             id="g218"><g
               id="g220"><path
                 id="path228"
                 style="fill:url(#linearGradient226);stroke:none"
                 d="m 254.65,424.46 241.6,-63.06 29.61,-7.73 0.18,0.099 -22.38,13.001 -100.16,58.18 v -0.45 l -0.16,0.54 -148.84,86.46 z" /></g></g></g></g></g><g
       id="g230"><g
         clip-path="url(#clipPath236)"
         id="g232"><g
           id="g238"><g
             id="g240" /><g
             mask="url(#mask252)"
             id="g264"><g
               id="g266"><path
                 id="path274"
                 style="fill:url(#linearGradient272);stroke:none"
                 d="m 625.54,411.241 -99.5,-57.472 0.46,-0.269 -0.64,0.17 -224.7,-129.79 c 31.55,-0.09 75.48,-0.2 119.46,-0.28 v 0 l 205.79,181.42 21.63,19.07 v 0.14 z" /></g></g></g></g></g><g
       id="g276"><g
         clip-path="url(#clipPath282)"
         id="g278"><g
           id="g284"><g
             id="g286" /><g
             mask="url(#mask298)"
             id="g310"><g
               id="g312"><path
                 id="path320"
                 style="fill:url(#linearGradient318);stroke:none"
                 d="m 648.42,542.5 -0.38,-118.27 0.46,0.27 -0.46,-0.41 -0.54,-169.59 0.14,-0.27 c 28.48,14.569 54.07,33.85 75.71,56.8 v 0 l -66.31,228.09 -8.43,28.99 -0.11,0.06 z" /></g></g></g></g></g><g
       id="g322"><g
         clip-path="url(#clipPath328)"
         id="g324"><g
           id="g330"><g
             id="g332" /><g
             mask="url(#mask344)"
             id="g356"><g
               id="g358"><path
                 id="path366"
                 style="fill:url(#linearGradient364);stroke:none"
                 d="M 545.65,626.62 648.5,568.17 v 0.33 l 0.11,-0.39 148.56,-84.43 c 0.219,4.41 0.33,8.85 0.33,13.32 v 0 c 0,22.97 -2.88,45.281 -8.3,66.59 v 0 L 551,630.61 526.5,637.5 Z" /></g></g></g></g></g><g
       id="g368"><g
         clip-path="url(#clipPath374)"
         id="g370"><g
           id="g376"><g
             id="g378" /><g
             mask="url(#mask390)"
             id="g402"><g
               id="g404"><path
                 id="path412"
                 style="fill:url(#linearGradient410);stroke:none"
                 d="m 403.5,567.5 122.77,70.41 149.159,85.55 c -27.579,18.42 -58.699,32.08 -92.149,39.799 v 0 z" /></g></g></g></g></g><g
       id="g414"><g
         clip-path="url(#clipPath420)"
         id="g416"><g
           id="g422"><g
             id="g424" /><g
             mask="url(#mask438)"
             id="g450"><g
               id="g452"><path
                 id="path462"
                 style="fill:url(#linearGradient460);stroke:none"
                 d="M 254.5,511.75 V 511.5 L 403.01,425.23 319.52,550.48 Z" /></g></g></g></g></g><g
       id="g464"><g
         clip-path="url(#clipPath470)"
         id="g466"><g
           id="g472"><g
             id="g474" /><g
             mask="url(#mask488)"
             id="g500"><g
               id="g502"><path
                 id="path512"
                 style="fill:url(#linearGradient510);stroke:none"
                 d="M 467.04,340.82 254.88,295.58 255,224 c 0,0 18.18,-0.049 46.04,-0.12 v 0 c 0.04,-0.01 0.08,-0.01 0.12,0 v 0 l 223.859,129.3 z" /></g></g></g></g></g><g
       id="g514"><g
         clip-path="url(#clipPath520)"
         id="g516"><g
           id="g522"><g
             id="g524" /><g
             mask="url(#mask536)"
             id="g548"><g
               id="g550"><path
                 id="path558"
                 style="fill:url(#linearGradient556);stroke:none"
                 d="M 629.41,383.639 555.639,225.79 c 32.812,4.191 63.821,14.01 92.001,28.44 v 0 l -0.14,0.27 0.54,169.009 z" /></g></g></g></g></g><g
       id="g560"><g
         clip-path="url(#clipPath566)"
         id="g562"><g
           id="g568"><g
             id="g570" /><g
             mask="url(#mask582)"
             id="g594"><g
               id="g596"><path
                 id="path604"
                 style="fill:url(#linearGradient602);stroke:none"
                 d="m 678.41,530.66 101.8,-128.8 c 9.69,25.66 15.559,53.14 16.96,81.77 v 0 0.05 l -148.201,84.23 z" /></g></g></g></g></g><g
       id="g606"><g
         clip-path="url(#clipPath612)"
         id="g608"><g
           id="g614"><g
             id="g616" /><g
             mask="url(#mask628)"
             id="g640"><g
               id="g642"><path
                 id="path650"
                 style="fill:url(#linearGradient648);stroke:none"
                 d="m 526.27,637.91 0.23,-0.41 44.959,8.38 158.731,29.56 c -16,18.27 -34.41,34.43 -54.751,48.011 v 0 l -0.01,0.009 z" /></g></g></g></g></g><g
       id="g652"><g
         clip-path="url(#clipPath658)"
         id="g654"><g
           id="g660"><g
             id="g662" /><g
             mask="url(#mask674)"
             id="g686"><g
               id="g688"><path
                 id="path696"
                 style="fill:url(#linearGradient694);stroke:none"
                 d="m 403.5,770.5 v -170 -33 l 60,203 z" /></g></g></g></g></g></g></svg>