<svg enable-background="new 0 0 2499.3 779.6" image-rendering="optimizeQuality" shape-rendering="geometricPrecision" text-rendering="geometricPrecision" viewBox="0 0 2499.3 779.6" xmlns="http://www.w3.org/2000/svg"><g clip-rule="evenodd" fill="#ed3237" fill-rule="evenodd"><path d="m1718.1 468.9h-220.4c-6.4 1.6-3.1.8-7.4 18.3-10.8 45.3-39.3 82.8-84.8 101.5-52.5 21.4-127.8 21.1-178.7-1.5-112.6-50.1-137.5-193.8-98-291.8 19.6-48.8 56.6-86.6 105.4-105.9 51.6-20.5 129.9-18.5 178.2 4.7 44.7 21.6 68.6 59.4 77.9 106.4 2.6 12.9 1.6 11.1 15.4 11 69.7-.8 141.7 2.1 211-.3 3.3-47.3-23.2-114.4-43.2-146.1-24.7-39.1-57.9-71.7-96.6-96.2-91.9-58.3-187.8-75.4-317.6-67-120 7.7-210.6 50.9-273 111.3-136.8 132.7-151.3 409.3.5 552l24.9 22.7c65.6 55.6 161.2 82.5 248.3 89.4 117.7 9.3 233.9-10.5 315.7-64.3 66.4-43.7 136-126.3 142.4-244.5zm-1718.1-225 283 .2.3 507.2 252.8.2.5-507 282.8-.3v-204.4l-818.6-.7zm1853.7 507.3 644 .5c2.3-16 2.1-187.2-.7-195.9l-398.7-.3v-516.2l-244.3-.7c-3.6 18.8-1.1 560.7-1.1 623.7 0 23.1-2.5 68.6 1 89z"/><path d="m1855 749.2h640.4l.7-190.5c-26.8-.2-383 2.5-397.8-1.5-2.1-4.9-2-2.8-2-9v-507.3h-241.3l-.2 708.1z"/></g></svg>