<svg enable-background="new 0 0 2500 1490.7" image-rendering="optimizeQuality" shape-rendering="geometricPrecision" text-rendering="geometricPrecision" viewBox="0 0 2500 1490.7" xmlns="http://www.w3.org/2000/svg"><g clip-rule="evenodd" fill-rule="evenodd"><path d="m0 359.5v1131.2h2500v-1490.7h-2097.1c-60.1 0-111.4 3.5-165.3 25-6.1 2.6-10.5 4.4-16.2 7l-32 15.8c-18.4 9.6-39.9 26.3-56.1 39-19.3 14.9-43 41.2-58.8 61.4-13.6 17.5-26.3 39.5-36.4 59.2-22.3 44.7-38.1 99.5-38.1 152.6z" fill="#eb1c23"/><path d="m1567.4 796.7h-153.9c-4.4 1.3-2.2.4-5.3 12.7-7.5 31.6-27.2 57.9-59.2 70.6-36.8 14.9-89 14.9-124.5-.9-78.5-35.1-95.6-135-68.4-203.4 13.6-34.2 39.5-60.5 73.7-73.7 36-14 90.8-12.7 124.1 3.5 31.1 14.9 47.8 41.7 54.4 74.1 1.8 9.2 1.3 7.9 10.5 7.5 48.7-.4 98.6 1.3 147.3-.4 2.2-32.9-16.2-79.8-30.3-101.7-17.1-27.2-40.3-50-67.5-67.1-64-40.8-131.1-52.6-221.4-46.5-83.7 5.3-146.9 35.5-190.3 77.6-95.6 92.5-105.7 285.4.4 385l17.5 15.8c45.6 38.6 112.2 57.4 173.2 62.3 82 6.6 163.1-7.5 220.1-44.7 46.5-30.7 94.7-88.1 99.1-170.6h.5zm-1197.8-157 197.3.4v353.4h176.7v-353.4l197.3-.4v-142.1l-570.9-.4z" fill="#fffdfd"/><path d="m1662.1 993.5 449 .4c1.8-11.4 1.3-130.7-.4-136.8l-278-.4v-360l-170.6-.4c-2.6 13.2-.9 391.1-.9 434.9.1 16.3-1.7 47.8.9 62.3z" fill="#f8babd"/><path d="m1663 992.2h446.3l.4-132.8c-18.9 0-267 1.8-277.5-.9-1.3-3.5-1.3-1.8-1.3-6.1v-353.9h-168.4v493.7z" fill="#fffdfd"/></g></svg>