<?xml version="1.0" encoding="UTF-8" standalone="no"?>
<!DOCTYPE svg PUBLIC "-//W3C//DTD SVG 1.1//EN" "http://www.w3.org/Graphics/SVG/1.1/DTD/svg11.dtd">
<svg width="100%" height="100%" viewBox="0 0 352 347" version="1.1" xmlns="http://www.w3.org/2000/svg" xmlns:xlink="http://www.w3.org/1999/xlink" xml:space="preserve" xmlns:serif="http://www.serif.com/" style="fill-rule:evenodd;clip-rule:evenodd;">
    <g transform="matrix(0.834123,0,0,0.85468,-39.2038,-34.1872)">
        <rect id="ArtBoard1" x="47" y="40" width="422" height="406" style="fill:none;"/>
        <clipPath id="_clip1">
            <rect id="ArtBoard11" serif:id="ArtBoard1" x="47" y="40" width="422" height="406"/>
        </clipPath>
        <g clip-path="url(#_clip1)">
            <g transform="matrix(1.19886,0,0,1.17003,-59.6989,-59.4524)">
                <path d="M486,31.44C486,31.204 485.806,31.01 485.57,31.01L21.43,31.01C21.194,31.01 21,31.204 21,31.44L21,456.82C21,457.056 21.194,457.25 21.43,457.25L485.57,457.25C485.806,457.25 486,457.056 486,456.82L486,31.44" style="fill:none;fill-rule:nonzero;stroke:rgb(142,141,148);stroke-width:2px;"/>
                <path d="M256.58,145.25C257.947,146.377 259.383,146.473 260.89,145.54C278.6,134.51 271.17,106.57 260.55,93.19C259.557,91.93 258.483,91.857 257.33,92.97C249.37,100.62 245.63,115.46 246.34,126.42C246.813,133.747 250.227,140.023 256.58,145.25" style="fill:none;fill-rule:nonzero;stroke:rgb(135,59,67);stroke-width:2px;"/>
                <path d="M253.29,277.75L252.76,304.77" style="fill:none;fill-rule:nonzero;stroke:rgb(92,67,83);stroke-width:2px;"/>
                <path d="M252.76,304.77L246,296.71" style="fill:none;fill-rule:nonzero;stroke:rgb(88,121,115);stroke-width:2px;"/>
                <path d="M246,296.71C239.84,290.19 232.77,284.89 224.79,280.81C223.77,280.29 223.25,279.37 222.19,278.91" style="fill:none;fill-rule:nonzero;stroke:rgb(141,105,63);stroke-width:2px;"/>
                <path d="M222.19,278.91C217.65,272.71 215.49,267.72 214.08,259.63C213.287,255.13 212.12,250.703 210.58,246.35" style="fill:none;fill-rule:nonzero;stroke:rgb(139,94,46);stroke-width:2px;"/>
                <path d="M210.58,246.35C206.58,238.94 198.53,232.46 189.65,232.7C176.01,233.07 174.24,247.44 179.54,256.99C182.107,261.603 185.55,265.493 189.87,268.66C192.49,270.587 192.25,271.057 189.15,270.07C186.363,269.183 183.67,267.97 181.07,266.43C175.21,262.97 168.5,255.27 164.76,247.84" style="fill:none;fill-rule:nonzero;stroke:rgb(141,105,63);stroke-width:2px;"/>
                <path d="M164.76,247.84C166.66,234.49 177.8,225.55 178.1,211.98" style="fill:none;fill-rule:nonzero;stroke:rgb(139,94,46);stroke-width:2px;"/>
                <path d="M178.1,211.98C180.2,200.35 174.51,183.63 169.08,173.69C167.847,171.43 166.393,171.28 164.72,173.24C148.693,192.06 143.86,213.647 150.22,238C152.12,245.25 156.69,252.44 162.52,257.93C162.807,258.197 163.083,258.47 163.35,258.75C165.523,260.983 165.347,261.187 162.82,259.36C155.893,254.367 148.453,251.563 140.5,250.95C128.247,250.01 116.637,252.247 105.67,257.66C103.37,258.793 103.12,260.093 104.92,261.56C115.25,269.99 126.78,277.41 139.75,280.96" style="fill:none;fill-rule:nonzero;stroke:rgb(141,105,63);stroke-width:2px;"/>
                <path d="M139.75,280.96C152.54,284.4 170.39,281.85 181.87,279.7" style="fill:none;fill-rule:nonzero;stroke:rgb(139,94,46);stroke-width:2px;"/>
                <path d="M181.87,279.7C183.457,279.627 185.983,279.977 189.45,280.75C191.883,281.29 194.287,281.9 196.66,282.58C198.507,283.107 198.503,283.62 196.65,284.12C187.87,286.5 180.4,290.797 174.24,297.01C170.98,300.3 166.82,306.53 167.39,311.57C168.703,323.37 175.783,327.1 188.63,322.76" style="fill:none;fill-rule:nonzero;stroke:rgb(141,105,63);stroke-width:2px;"/>
                <path d="M188.63,322.76C198.15,318.7 205.21,311.55 208.27,301.61C209.8,296.64 211.11,292.91 214.79,289.25" style="fill:none;fill-rule:nonzero;stroke:rgb(139,94,46);stroke-width:2px;"/>
                <path d="M214.79,289.25C215.25,288.723 215.84,288.62 216.56,288.94C226.133,293.193 234.127,299.297 240.54,307.25" style="fill:none;fill-rule:nonzero;stroke:rgb(141,105,63);stroke-width:2px;"/>
                <path d="M240.54,307.25C250.23,320.61 251.66,332.14 251.7,349.76C251.75,370.4 252.65,390.87 252.27,411.63C252.07,422.29 265.46,422.56 265.23,412.35C264.66,386.95 266.18,367.91 266.35,341.57C266.443,326.163 271.923,312.723 282.79,301.25" style="fill:none;fill-rule:nonzero;stroke:rgb(118,127,124);stroke-width:2px;"/>
                <path d="M282.79,301.25C286.98,297.59 297.51,289.44 303,288.96" style="fill:none;fill-rule:nonzero;stroke:rgb(88,121,115);stroke-width:2px;"/>
                <path d="M303,288.96L303.5,289.29" style="fill:none;fill-rule:nonzero;stroke:rgb(27,111,113);stroke-width:2px;"/>
                <path d="M303.5,289.29C309.65,294.41 309.13,301.28 312.71,307.61C317.31,315.73 324.24,321.18 333.5,323.96" style="fill:none;fill-rule:nonzero;stroke:rgb(27,99,103);stroke-width:2px;"/>
                <path d="M333.5,323.96C338.573,325.54 342.993,324.887 346.76,322C354.81,315.82 351.9,305.21 346.05,298.7C339.57,291.487 331.533,286.653 321.94,284.2C320.06,283.72 320.053,283.207 321.92,282.66C327.113,281.14 332.39,280.017 337.75,279.29" style="fill:none;fill-rule:nonzero;stroke:rgb(27,111,113);stroke-width:2px;"/>
                <path d="M337.75,279.29C358.35,283.43 377.95,285.65 396.5,274.54" style="fill:none;fill-rule:nonzero;stroke:rgb(27,99,103);stroke-width:2px;"/>
                <path d="M396.5,274.54C403.413,270.84 409.863,266.44 415.85,261.34C417.21,260.18 417.08,259.157 415.46,258.27C401.48,250.6 383.6,247.84 368.52,253.84C361.97,256.44 355.12,261.84 349.35,266.57C348.71,267.103 348.617,267.06 349.07,266.44C349.103,266.387 349.15,266.337 349.21,266.29C353.75,262.59 358.013,258.59 362,254.29" style="fill:none;fill-rule:nonzero;stroke:rgb(27,111,113);stroke-width:2px;"/>
                <path d="M362,254.29C382.46,230.87 375.64,197.62 357.47,175.26C356.157,173.647 354.9,172.503 353.7,171.83C353.238,171.572 352.644,171.727 352.36,172.18C345.3,183.49 338.84,203.21 343.5,216.29" style="fill:none;fill-rule:nonzero;stroke:rgb(27,111,113);stroke-width:2px;"/>
                <path d="M343.5,216.29C345.307,222.623 348.41,228.673 352.81,234.44C355.57,238.053 356.98,242.323 357.04,247.25" style="fill:none;fill-rule:nonzero;stroke:rgb(27,99,103);stroke-width:2px;"/>
                <path d="M357.04,247.25L354.56,252.8" style="fill:none;fill-rule:nonzero;stroke:rgb(27,111,113);stroke-width:2px;"/>
                <path d="M354.56,252.8C351.487,256.507 348.223,259.993 344.77,263.26C340.897,266.933 336.463,269.467 331.47,270.86C328.837,271.593 328.603,271.123 330.77,269.45C334.697,266.423 338.19,262.94 341.25,259C349.86,247.9 344.63,230.89 328.68,232.89C319.993,233.977 313.537,238.76 309.31,247.24" style="fill:none;fill-rule:nonzero;stroke:rgb(27,111,113);stroke-width:2px;"/>
                <path d="M309.31,247.24C307.917,251.267 306.903,255.41 306.27,259.67C305.81,262.817 305.193,265.31 304.42,267.15C302.8,271.023 300.787,274.793 298.38,278.46" style="fill:none;fill-rule:nonzero;stroke:rgb(27,99,103);stroke-width:2px;"/>
                <path d="M298.38,278.46L284.96,286.5" style="fill:none;fill-rule:nonzero;stroke:rgb(27,111,113);stroke-width:2px;"/>
                <path d="M284.96,286.5C277.253,291.72 270.73,298.243 265.39,306.07" style="fill:none;fill-rule:nonzero;stroke:rgb(88,121,115);stroke-width:2px;"/>
                <path d="M265.39,306.07C265.037,297.023 265.06,288 265.46,279" style="fill:none;fill-rule:nonzero;stroke:rgb(92,67,83);stroke-width:2px;"/>
                <path d="M265.46,279C265.553,271.053 265.74,263.077 266.02,255.07C266.55,240.24 285.16,240.05 294.82,231.76C301.94,225.65 311.21,211.81 306.4,201.97C301.42,191.78 289.02,193.19 281.24,199.28C275.08,204.107 270.52,210.36 267.56,218.04C266.553,220.647 266.04,220.553 266.02,217.76C265.993,215.167 265.98,212.573 265.98,209.98C265.98,194.3 275.72,189.08 287.44,181.93C303.38,172.21 311.73,149.22 313.01,131.7C313.223,128.84 311.96,127.833 309.22,128.68C274.11,139.6 262.35,167.4 259.55,201.73C259.517,202.103 259.483,202.107 259.45,201.74C256.23,167.84 243.4,138.3 207.48,128.86C204.66,128.12 203.373,128.97 203.62,131.41C205.74,152.49 215.25,174.02 235.1,184.24C246.1,189.91 253.83,196.43 254.67,209.57C254.837,212.143 254.863,215.07 254.75,218.35C254.67,220.917 254.157,221.007 253.21,218.62C251.17,213.473 248.333,208.783 244.7,204.55C238.5,197.33 226.42,190.33 217.26,197.16C207.83,204.18 214.98,220.33 221.26,227.52C225.127,231.947 229.223,234.93 233.55,236.47C240.96,239.11 252.5,244.6 252.9,253.31C253.14,258.497 253.27,266.643 253.29,277.75" style="fill:none;fill-rule:nonzero;stroke:rgb(135,59,67);stroke-width:2px;"/>
                <path d="M265.46,279C264.907,279.793 264.2,280.343 263.34,280.65C263.231,280.689 263.116,280.71 263,280.71C262.451,280.71 262,280.258 262,279.71C262,279.706 262,279.703 262,279.7L262,279.24C262.007,278.723 261.609,278.282 261.09,278.23L257.64,277.93C257.628,277.929 257.617,277.928 257.605,277.927C257.057,277.897 256.582,278.318 256.551,278.86C256.551,278.873 256.55,278.887 256.55,278.9L256.44,283.78C256.433,284.053 256.403,284.053 256.35,283.78C256.09,282.38 255.897,282.13 255.77,283.03C255.617,284.11 255.403,284.123 255.13,283.07L254.35,280.09C254.323,279.977 254.313,279.863 254.32,279.75C254.4,278.883 254.057,278.217 253.29,277.75" style="fill:none;fill-rule:nonzero;stroke:rgb(198,99,109);stroke-width:2px;"/>
                <path d="M265.39,306.07L262.04,312.25" style="fill:none;fill-rule:nonzero;stroke:rgb(151,162,156);stroke-width:2px;"/>
                <path d="M262.04,312.25L261.94,292.19C261.94,291.927 261.839,291.675 261.66,291.49C260.527,290.323 259.017,289.823 257.13,289.99C256.634,290.035 256.242,290.447 256.22,290.95L255.5,309.29" style="fill:none;fill-rule:nonzero;stroke:rgb(148,136,148);stroke-width:2px;"/>
                <path d="M255.5,309.29L252.76,304.77" style="fill:none;fill-rule:nonzero;stroke:rgb(151,162,156);stroke-width:2px;"/>
                <path d="M282.79,301.25C283.17,300.29 283.08,299.45 282.52,298.73C282.396,298.574 282.323,298.385 282.31,298.19L282.12,295.68C282.084,295.272 282.308,294.881 282.68,294.7C283.62,294.24 284.083,293.557 284.07,292.65C284.05,291.323 283.513,291.063 282.46,291.87C271.487,300.257 264.237,311.197 260.71,324.69C260.123,326.93 259.653,329 259.3,330.9C258.713,334.013 258.29,333.993 258.03,330.84C257.13,320.053 253.287,310.343 246.5,301.71" style="fill:none;fill-rule:nonzero;stroke:rgb(177,222,198);stroke-width:2px;"/>
                <path d="M255.5,309.29L258.46,316.98C259.1,318.647 259.723,318.64 260.33,316.96L262.04,312.25" style="fill:none;fill-rule:nonzero;stroke:rgb(144,191,180);stroke-width:2px;"/>
                <path d="M396.5,274.54C396.687,273.347 396.303,272.723 395.35,272.67C395.127,272.657 394.925,272.524 394.82,272.32C394.667,272.013 394.42,271.903 394.08,271.99C394.057,271.995 394.033,271.998 394.009,271.998C393.828,271.998 393.679,271.849 393.679,271.668C393.679,271.658 393.679,271.649 393.68,271.64C393.72,271.1 390.09,270.14 387.95,269.53C387.718,269.465 387.515,269.316 387.38,269.11C386.86,268.303 386.417,267.827 386.05,267.68C383.317,266.593 380.983,264.933 379.05,262.7C378.889,262.513 378.661,262.392 378.41,262.36C371.58,261.58 360.45,266.92 354.97,270.71C349.663,274.383 343.923,277.243 337.75,279.29" style="fill:none;fill-rule:nonzero;stroke:rgb(25,184,174);stroke-width:2px;"/>
                <path d="M333.5,323.96C333.84,322.967 333.723,322.577 333.15,322.79C332.994,322.848 332.825,322.855 332.67,322.81L329.03,321.86C328.872,321.815 328.748,321.766 328.75,321.75L328.75,321.46C328.75,321.457 328.75,321.455 328.75,321.452C328.75,321.172 328.52,320.942 328.24,320.942C328.21,320.942 328.18,320.945 328.15,320.95C326.843,321.183 326.38,320.963 326.76,320.29C326.943,319.965 326.932,319.566 326.73,319.26C326.563,319 326.44,318.657 326.36,318.23C325.8,315.31 324.84,311.62 325.86,308.73C326.193,307.783 326.45,306.813 326.63,305.82C326.687,305.5 326.59,305.173 326.37,304.94C326.017,304.58 326,304.233 326.32,303.9C326.484,303.73 326.565,303.499 326.54,303.27C326.353,301.317 325.32,299.737 323.44,298.53C319.21,295.82 307.56,288.78 303.5,289.29" style="fill:none;fill-rule:nonzero;stroke:rgb(25,184,174);stroke-width:2px;"/>
                <path d="M303,288.96C304.56,286.72 311.32,285.06 314,284.29C314.43,284.169 314.73,283.774 314.73,283.327C314.73,283.201 314.706,283.077 314.66,282.96L312.74,278.15C312.556,277.692 312.06,277.436 311.58,277.55C302.82,279.65 294.72,283.247 287.28,288.34C286.654,288.766 285.749,288.587 285.21,287.93C285.103,287.797 285.02,287.32 284.96,286.5" style="fill:none;fill-rule:nonzero;stroke:rgb(85,206,186);stroke-width:2px;"/>
                <path d="M298.38,278.46C308.407,273.653 316.133,266.427 321.56,256.78C321.795,256.36 321.689,255.822 321.31,255.51C318.61,253.34 317.19,252.91 313.27,252.09C310.91,251.603 309.59,249.987 309.31,247.24" style="fill:none;fill-rule:nonzero;stroke:rgb(25,184,174);stroke-width:2px;"/>
                <path d="M178.1,211.98C177.247,211.047 176.24,210.48 175.08,210.28C174.865,210.247 174.645,210.282 174.45,210.38C170.61,212.36 166.607,213.933 162.44,215.1C162.172,215.176 161.948,215.357 161.82,215.6C160.85,217.47 158.09,217.06 157.86,219C156.653,229.167 158.953,238.78 164.76,247.84" style="fill:none;fill-rule:nonzero;stroke:rgb(251,173,67);stroke-width:2px;"/>
                <path d="M210.58,246.35C208.3,248.403 205.91,250.16 203.41,251.62C202.343,252.24 201.44,252.887 200.7,253.56C199.953,254.233 199.217,254.903 198.49,255.57C198.12,255.906 198.056,256.469 198.34,256.88C201.853,261.887 205.51,266.407 209.31,270.44C212.857,274.2 217.15,277.023 222.19,278.91" style="fill:none;fill-rule:nonzero;stroke:rgb(251,173,67);stroke-width:2px;"/>
                <path d="M246,296.71L244.7,297.88C244.308,298.227 244.25,298.825 244.57,299.24L246.5,301.71" style="fill:none;fill-rule:nonzero;stroke:rgb(199,200,136);stroke-width:2px;"/>
                <path d="M246.5,301.71C246.047,302.937 245.54,303.637 244.98,303.81C244.167,304.062 243.516,304.68 243.22,305.48C242.6,307.12 241.707,307.71 240.54,307.25" style="fill:none;fill-rule:nonzero;stroke:rgb(230,206,146);stroke-width:2px;"/>
                <path d="M214.79,289.25C212.47,287.31 192.93,299.07 190.08,301.08C189.833,301.251 189.675,301.523 189.65,301.82L188.6,316.53C188.593,316.683 188.55,316.827 188.47,316.96L186.89,319.65C186.774,319.85 186.593,320.003 186.38,320.08C185.52,320.407 185.283,320.88 185.67,321.5C185.914,321.895 186.408,322.066 186.85,321.91C187.663,321.63 188.257,321.913 188.63,322.76" style="fill:none;fill-rule:nonzero;stroke:rgb(251,173,67);stroke-width:2px;"/>
                <path d="M181.87,279.7C176.443,277.193 171.203,274.33 166.15,271.11C163.517,269.43 160.797,267.887 157.99,266.48C156.71,265.833 155.727,266.14 155.04,267.4C154.34,268.67 154.71,271.75 152.52,272C152.373,272.013 152.237,272.06 152.11,272.14L140.69,279.09C140.444,279.236 140.329,279.537 140.41,279.82C140.543,280.267 140.323,280.647 139.75,280.96" style="fill:none;fill-rule:nonzero;stroke:rgb(251,173,67);stroke-width:2px;"/>
                <path d="M362,254.29C359.96,255.74 355.95,260.14 353.85,260.6C353.277,260.727 352.697,260.797 352.11,260.81C352.103,260.81 352.095,260.81 352.088,260.81C351.539,260.81 351.088,260.359 351.088,259.81C351.088,259.65 351.126,259.492 351.2,259.35L354.56,252.8" style="fill:none;fill-rule:nonzero;stroke:rgb(24,196,184);stroke-width:2px;"/>
                <path d="M357.04,247.25C361.987,238.783 364.13,229.64 363.47,219.82C363.441,219.368 363.105,218.991 362.66,218.91L353.66,217.16C353.5,217.133 353.343,217.14 353.19,217.18C351.643,217.613 350.193,217.473 348.84,216.76C348.707,216.693 348.57,216.653 348.43,216.64C347.117,216.56 345.827,216.293 344.56,215.84C344.307,215.751 344.024,215.827 343.85,216.03C343.763,216.143 343.647,216.23 343.5,216.29" style="fill:none;fill-rule:nonzero;stroke:rgb(25,184,174);stroke-width:2px;"/>
                <path d="M114,228.79C117.81,232.33 130.62,238.74 134.77,232.88" style="fill:none;fill-rule:nonzero;stroke:rgb(139,94,46);stroke-width:2px;"/>
                <path d="M134.77,232.88C136.483,229.26 136.887,225.707 135.98,222.22C131.8,206.17 115.53,197.57 99.81,198.01C98.137,198.057 97.457,198.903 97.77,200.55C99.97,211.943 105.38,221.357 114,228.79" style="fill:none;fill-rule:nonzero;stroke:rgb(141,105,63);stroke-width:2px;"/>
                <path d="M134.77,232.88C131.91,229.52 129.427,225.977 127.32,222.25C127.181,221.997 126.935,221.817 126.65,221.76C124.09,221.227 121.657,221.507 119.35,222.6C117.81,223.333 117.177,224.463 117.45,225.99C117.637,227.023 117.533,227.977 117.14,228.85C116.979,229.208 116.621,229.439 116.228,229.439C115.991,229.439 115.761,229.354 115.58,229.2L115.34,229C115.213,228.893 115.12,228.763 115.06,228.61C114.727,227.757 114.373,227.817 114,228.79" style="fill:none;fill-rule:nonzero;stroke:rgb(251,173,67);stroke-width:2px;"/>
                <path d="M386.63,233.48C396.457,236.54 404.747,234.227 411.5,226.54" style="fill:none;fill-rule:nonzero;stroke:rgb(27,99,103);stroke-width:2px;"/>
                <path d="M411.5,226.54C418.847,219.36 423.76,210.843 426.24,200.99C426.7,199.157 425.983,198.193 424.09,198.1C406.83,197.26 388.61,205.33 385.4,223.67C384.893,226.557 385.303,229.827 386.63,233.48" style="fill:none;fill-rule:nonzero;stroke:rgb(27,111,113);stroke-width:2px;"/>
                <path d="M411.5,226.54C410.873,226.08 410.173,225.847 409.4,225.84C408.957,225.841 408.564,225.551 408.44,225.13C407.2,220.95 401.52,221.5 396.99,221.62C396.692,221.632 396.413,221.779 396.23,222.02C395.463,223.02 394.43,223.647 393.13,223.9C392.811,223.962 392.541,224.179 392.41,224.48C391.13,227.367 389.203,230.367 386.63,233.48" style="fill:none;fill-rule:nonzero;stroke:rgb(25,184,174);stroke-width:2px;"/>
                <path d="M172.7,267.79C172.92,267.997 173.013,267.99 172.98,267.77C172.967,267.648 172.906,267.534 172.81,267.45C168.73,263.923 168.693,264.037 172.7,267.79" style="fill:none;fill-rule:nonzero;stroke:rgb(204,146,104);stroke-width:2px;"/>
            </g>
            <g transform="matrix(1.19886,0,0,1.17003,-59.6989,-59.4524)">
                <path d="M0,6.69C170.667,7.15 341.333,7.19 512,6.81L512,507.15L0,506.94L0,6.69ZM486,31.44C486,31.204 485.806,31.01 485.57,31.01L21.43,31.01C21.194,31.01 21,31.204 21,31.44L21,456.82C21,457.056 21.194,457.25 21.43,457.25L485.57,457.25C485.806,457.25 486,457.056 486,456.82L486,31.44Z" style="fill:white;fill-rule:nonzero;"/>
            </g>
            <g transform="matrix(1.19886,0,0,1.17003,-59.6989,-59.4524)">
                <path d="M256.58,145.25C250.227,140.023 246.813,133.747 246.34,126.42C245.63,115.46 249.37,100.62 257.33,92.97C258.483,91.857 259.557,91.93 260.55,93.19C271.17,106.57 278.6,134.51 260.89,145.54C259.383,146.473 257.947,146.377 256.58,145.25Z" style="fill:rgb(241,91,93);fill-rule:nonzero;"/>
            </g>
            <g transform="matrix(1.19886,0,0,1.17003,-59.6989,-59.4524)">
                <path d="M265.46,279C264.907,279.793 264.2,280.343 263.34,280.65C263.231,280.689 263.116,280.71 263,280.71C262.451,280.71 262,280.258 262,279.71C262,279.706 262,279.703 262,279.7L262,279.24C262.007,278.723 261.609,278.282 261.09,278.23L257.64,277.93C257.628,277.929 257.617,277.928 257.605,277.927C257.057,277.897 256.582,278.318 256.551,278.86C256.551,278.873 256.55,278.887 256.55,278.9L256.44,283.78C256.433,284.053 256.403,284.053 256.35,283.78C256.09,282.38 255.897,282.13 255.77,283.03C255.617,284.11 255.403,284.123 255.13,283.07L254.35,280.09C254.323,279.977 254.313,279.863 254.32,279.75C254.4,278.883 254.057,278.217 253.29,277.75C253.27,266.643 253.14,258.497 252.9,253.31C252.5,244.6 240.96,239.11 233.55,236.47C229.223,234.93 225.127,231.947 221.26,227.52C214.98,220.33 207.83,204.18 217.26,197.16C226.42,190.33 238.5,197.33 244.7,204.55C248.333,208.783 251.17,213.473 253.21,218.62C254.157,221.007 254.67,220.917 254.75,218.35C254.863,215.07 254.837,212.143 254.67,209.57C253.83,196.43 246.1,189.91 235.1,184.24C215.25,174.02 205.74,152.49 203.62,131.41C203.373,128.97 204.66,128.12 207.48,128.86C243.4,138.3 256.23,167.84 259.45,201.74C259.483,202.107 259.517,202.103 259.55,201.73C262.35,167.4 274.11,139.6 309.22,128.68C311.96,127.833 313.223,128.84 313.01,131.7C311.73,149.22 303.38,172.21 287.44,181.93C275.72,189.08 265.98,194.3 265.98,209.98C265.98,212.573 265.993,215.167 266.02,217.76C266.04,220.553 266.553,220.647 267.56,218.04C270.52,210.36 275.08,204.107 281.24,199.28C289.02,193.19 301.42,191.78 306.4,201.97C311.21,211.81 301.94,225.65 294.82,231.76C285.16,240.05 266.55,240.24 266.02,255.07C265.74,263.077 265.553,271.053 265.46,279Z" style="fill:rgb(241,91,93);fill-rule:nonzero;"/>
            </g>
            <g transform="matrix(1.19886,0,0,1.17003,-59.6989,-59.4524)">
                <path d="M178.1,211.98C177.247,211.047 176.24,210.48 175.08,210.28C174.865,210.247 174.645,210.282 174.45,210.38C170.61,212.36 166.607,213.933 162.44,215.1C162.172,215.176 161.948,215.357 161.82,215.6C160.85,217.47 158.09,217.06 157.86,219C156.653,229.167 158.953,238.78 164.76,247.84C168.5,255.27 175.21,262.97 181.07,266.43C183.67,267.97 186.363,269.183 189.15,270.07C192.25,271.057 192.49,270.587 189.87,268.66C185.55,265.493 182.107,261.603 179.54,256.99C174.24,247.44 176.01,233.07 189.65,232.7C198.53,232.46 206.58,238.94 210.58,246.35C208.3,248.403 205.91,250.16 203.41,251.62C202.343,252.24 201.44,252.887 200.7,253.56C199.953,254.233 199.217,254.903 198.49,255.57C198.12,255.906 198.056,256.469 198.34,256.88C201.853,261.887 205.51,266.407 209.31,270.44C212.857,274.2 217.15,277.023 222.19,278.91C223.25,279.37 223.77,280.29 224.79,280.81C232.77,284.89 239.84,290.19 246,296.71L244.7,297.88C244.308,298.227 244.25,298.825 244.57,299.24L246.5,301.71C246.047,302.937 245.54,303.637 244.98,303.81C244.167,304.062 243.516,304.68 243.22,305.48C242.6,307.12 241.707,307.71 240.54,307.25C234.127,299.297 226.133,293.193 216.56,288.94C215.84,288.62 215.25,288.723 214.79,289.25C212.47,287.31 192.93,299.07 190.08,301.08C189.833,301.251 189.675,301.523 189.65,301.82L188.6,316.53C188.593,316.683 188.55,316.827 188.47,316.96L186.89,319.65C186.774,319.85 186.593,320.003 186.38,320.08C185.52,320.407 185.283,320.88 185.67,321.5C185.914,321.895 186.408,322.066 186.85,321.91C187.663,321.63 188.257,321.913 188.63,322.76C175.783,327.1 168.703,323.37 167.39,311.57C166.82,306.53 170.98,300.3 174.24,297.01C180.4,290.797 187.87,286.5 196.65,284.12C198.503,283.62 198.507,283.107 196.66,282.58C194.287,281.9 191.883,281.29 189.45,280.75C185.983,279.977 183.457,279.627 181.87,279.7C176.443,277.193 171.203,274.33 166.15,271.11C163.517,269.43 160.797,267.887 157.99,266.48C156.71,265.833 155.727,266.14 155.04,267.4C154.34,268.67 154.71,271.75 152.52,272C152.373,272.013 152.237,272.06 152.11,272.14L140.69,279.09C140.444,279.236 140.329,279.537 140.41,279.82C140.543,280.267 140.323,280.647 139.75,280.96C126.78,277.41 115.25,269.99 104.92,261.56C103.12,260.093 103.37,258.793 105.67,257.66C116.637,252.247 128.247,250.01 140.5,250.95C148.453,251.563 155.893,254.367 162.82,259.36C165.347,261.187 165.523,260.983 163.35,258.75C163.083,258.47 162.807,258.197 162.52,257.93C156.69,252.44 152.12,245.25 150.22,238C143.86,213.647 148.693,192.06 164.72,173.24C166.393,171.28 167.847,171.43 169.08,173.69C174.51,183.63 180.2,200.35 178.1,211.98ZM172.7,267.79C172.92,267.997 173.013,267.99 172.98,267.77C172.967,267.648 172.906,267.534 172.81,267.45C168.73,263.923 168.693,264.037 172.7,267.79Z" style="fill:rgb(252,184,84);fill-rule:nonzero;"/>
            </g>
            <g transform="matrix(1.19886,0,0,1.17003,-59.6989,-59.4524)">
                <path d="M362,254.29C359.96,255.74 355.95,260.14 353.85,260.6C353.277,260.727 352.697,260.797 352.11,260.81C352.103,260.81 352.095,260.81 352.088,260.81C351.539,260.81 351.088,260.359 351.088,259.81C351.088,259.65 351.126,259.492 351.2,259.35L354.56,252.8L357.04,247.25C361.987,238.783 364.13,229.64 363.47,219.82C363.441,219.368 363.105,218.991 362.66,218.91L353.66,217.16C353.5,217.133 353.343,217.14 353.19,217.18C351.643,217.613 350.193,217.473 348.84,216.76C348.707,216.693 348.57,216.653 348.43,216.64C347.117,216.56 345.827,216.293 344.56,215.84C344.307,215.751 344.024,215.827 343.85,216.03C343.763,216.143 343.647,216.23 343.5,216.29C338.84,203.21 345.3,183.49 352.36,172.18C352.644,171.727 353.238,171.572 353.7,171.83C354.9,172.503 356.157,173.647 357.47,175.26C375.64,197.62 382.46,230.87 362,254.29Z" style="fill:rgb(24,196,184);fill-rule:nonzero;"/>
            </g>
            <g transform="matrix(1.19886,0,0,1.17003,-59.6989,-59.4524)">
                <path d="M134.77,232.88C131.91,229.52 129.427,225.977 127.32,222.25C127.181,221.997 126.935,221.817 126.65,221.76C124.09,221.227 121.657,221.507 119.35,222.6C117.81,223.333 117.177,224.463 117.45,225.99C117.637,227.023 117.533,227.977 117.14,228.85C116.979,229.208 116.621,229.439 116.228,229.439C115.991,229.439 115.761,229.354 115.58,229.2L115.34,229C115.213,228.893 115.12,228.763 115.06,228.61C114.727,227.757 114.373,227.817 114,228.79C105.38,221.357 99.97,211.943 97.77,200.55C97.457,198.903 98.137,198.057 99.81,198.01C115.53,197.57 131.8,206.17 135.98,222.22C136.887,225.707 136.483,229.26 134.77,232.88Z" style="fill:rgb(252,184,84);fill-rule:nonzero;"/>
            </g>
            <g transform="matrix(1.19886,0,0,1.17003,-59.6989,-59.4524)">
                <path d="M411.5,226.54C410.873,226.08 410.173,225.847 409.4,225.84C408.957,225.841 408.564,225.551 408.44,225.13C407.2,220.95 401.52,221.5 396.99,221.62C396.692,221.632 396.413,221.779 396.23,222.02C395.463,223.02 394.43,223.647 393.13,223.9C392.811,223.962 392.541,224.179 392.41,224.48C391.13,227.367 389.203,230.367 386.63,233.48C385.303,229.827 384.893,226.557 385.4,223.67C388.61,205.33 406.83,197.26 424.09,198.1C425.983,198.193 426.7,199.157 426.24,200.99C423.76,210.843 418.847,219.36 411.5,226.54Z" style="fill:rgb(24,196,184);fill-rule:nonzero;"/>
            </g>
            <g transform="matrix(1.19886,0,0,1.17003,-59.6989,-59.4524)">
                <path d="M178.1,211.98C177.8,225.55 166.66,234.49 164.76,247.84C158.953,238.78 156.653,229.167 157.86,219C158.09,217.06 160.85,217.47 161.82,215.6C161.948,215.357 162.172,215.176 162.44,215.1C166.607,213.933 170.61,212.36 174.45,210.38C174.645,210.282 174.865,210.247 175.08,210.28C176.24,210.48 177.247,211.047 178.1,211.98Z" style="fill:rgb(249,162,50);fill-rule:nonzero;"/>
            </g>
            <g transform="matrix(1.19886,0,0,1.17003,-59.6989,-59.4524)">
                <path d="M357.04,247.25C356.98,242.323 355.57,238.053 352.81,234.44C348.41,228.673 345.307,222.623 343.5,216.29C343.647,216.23 343.763,216.143 343.85,216.03C344.024,215.827 344.307,215.751 344.56,215.84C345.827,216.293 347.117,216.56 348.43,216.64C348.57,216.653 348.707,216.693 348.84,216.76C350.193,217.473 351.643,217.613 353.19,217.18C353.343,217.14 353.5,217.133 353.66,217.16L362.66,218.91C363.105,218.991 363.441,219.368 363.47,219.82C364.13,229.64 361.987,238.783 357.04,247.25Z" style="fill:rgb(25,172,164);fill-rule:nonzero;"/>
            </g>
            <g transform="matrix(1.19886,0,0,1.17003,-59.6989,-59.4524)">
                <path d="M134.77,232.88C130.62,238.74 117.81,232.33 114,228.79C114.373,227.817 114.727,227.757 115.06,228.61C115.12,228.763 115.213,228.893 115.34,229L115.58,229.2C115.761,229.354 115.991,229.439 116.228,229.439C116.621,229.439 116.979,229.208 117.14,228.85C117.533,227.977 117.637,227.023 117.45,225.99C117.177,224.463 117.81,223.333 119.35,222.6C121.657,221.507 124.09,221.227 126.65,221.76C126.935,221.817 127.181,221.997 127.32,222.25C129.427,225.977 131.91,229.52 134.77,232.88Z" style="fill:rgb(249,162,50);fill-rule:nonzero;"/>
            </g>
            <g transform="matrix(1.19886,0,0,1.17003,-59.6989,-59.4524)">
                <path d="M411.5,226.54C404.747,234.227 396.457,236.54 386.63,233.48C389.203,230.367 391.13,227.367 392.41,224.48C392.541,224.179 392.811,223.962 393.13,223.9C394.43,223.647 395.463,223.02 396.23,222.02C396.413,221.779 396.692,221.632 396.99,221.62C401.52,221.5 407.2,220.95 408.44,225.13C408.564,225.551 408.957,225.841 409.4,225.84C410.173,225.847 410.873,226.08 411.5,226.54Z" style="fill:rgb(25,172,164);fill-rule:nonzero;"/>
            </g>
            <g transform="matrix(1.19886,0,0,1.17003,-59.6989,-59.4524)">
                <path d="M354.56,252.8L351.2,259.35C351.126,259.492 351.088,259.65 351.088,259.81C351.088,260.359 351.539,260.81 352.088,260.81C352.095,260.81 352.103,260.81 352.11,260.81C352.697,260.797 353.277,260.727 353.85,260.6C355.95,260.14 359.96,255.74 362,254.29C358.013,258.59 353.75,262.59 349.21,266.29C349.15,266.337 349.103,266.387 349.07,266.44C348.617,267.06 348.71,267.103 349.35,266.57C355.12,261.84 361.97,256.44 368.52,253.84C383.6,247.84 401.48,250.6 415.46,258.27C417.08,259.157 417.21,260.18 415.85,261.34C409.863,266.44 403.413,270.84 396.5,274.54C396.687,273.347 396.303,272.723 395.35,272.67C395.127,272.657 394.925,272.524 394.82,272.32C394.667,272.013 394.42,271.903 394.08,271.99C394.057,271.995 394.033,271.998 394.009,271.998C393.828,271.998 393.679,271.849 393.679,271.668C393.679,271.658 393.679,271.649 393.68,271.64C393.72,271.1 390.09,270.14 387.95,269.53C387.718,269.465 387.515,269.316 387.38,269.11C386.86,268.303 386.417,267.827 386.05,267.68C383.317,266.593 380.983,264.933 379.05,262.7C378.889,262.513 378.661,262.392 378.41,262.36C371.58,261.58 360.45,266.92 354.97,270.71C349.663,274.383 343.923,277.243 337.75,279.29C332.39,280.017 327.113,281.14 321.92,282.66C320.053,283.207 320.06,283.72 321.94,284.2C331.533,286.653 339.57,291.487 346.05,298.7C351.9,305.21 354.81,315.82 346.76,322C342.993,324.887 338.573,325.54 333.5,323.96C333.84,322.967 333.723,322.577 333.15,322.79C332.994,322.848 332.825,322.855 332.67,322.81L329.03,321.86C328.872,321.815 328.748,321.766 328.75,321.75L328.75,321.46C328.75,321.457 328.75,321.455 328.75,321.452C328.75,321.172 328.52,320.942 328.24,320.942C328.21,320.942 328.18,320.945 328.15,320.95C326.843,321.183 326.38,320.963 326.76,320.29C326.943,319.965 326.932,319.566 326.73,319.26C326.563,319 326.44,318.657 326.36,318.23C325.8,315.31 324.84,311.62 325.86,308.73C326.193,307.783 326.45,306.813 326.63,305.82C326.687,305.5 326.59,305.173 326.37,304.94C326.017,304.58 326,304.233 326.32,303.9C326.484,303.73 326.565,303.499 326.54,303.27C326.353,301.317 325.32,299.737 323.44,298.53C319.21,295.82 307.56,288.78 303.5,289.29L303,288.96C304.56,286.72 311.32,285.06 314,284.29C314.43,284.169 314.73,283.774 314.73,283.327C314.73,283.201 314.706,283.077 314.66,282.96L312.74,278.15C312.556,277.692 312.06,277.436 311.58,277.55C302.82,279.65 294.72,283.247 287.28,288.34C286.654,288.766 285.749,288.587 285.21,287.93C285.103,287.797 285.02,287.32 284.96,286.5L298.38,278.46C308.407,273.653 316.133,266.427 321.56,256.78C321.795,256.36 321.689,255.822 321.31,255.51C318.61,253.34 317.19,252.91 313.27,252.09C310.91,251.603 309.59,249.987 309.31,247.24C313.537,238.76 319.993,233.977 328.68,232.89C344.63,230.89 349.86,247.9 341.25,259C338.19,262.94 334.697,266.423 330.77,269.45C328.603,271.123 328.837,271.593 331.47,270.86C336.463,269.467 340.897,266.933 344.77,263.26C348.223,259.993 351.487,256.507 354.56,252.8Z" style="fill:rgb(24,196,184);fill-rule:nonzero;"/>
            </g>
            <g transform="matrix(1.19886,0,0,1.17003,-59.6989,-59.4524)">
                <path d="M210.58,246.35C212.12,250.703 213.287,255.13 214.08,259.63C215.49,267.72 217.65,272.71 222.19,278.91C217.15,277.023 212.857,274.2 209.31,270.44C205.51,266.407 201.853,261.887 198.34,256.88C198.056,256.469 198.12,255.906 198.49,255.57C199.217,254.903 199.953,254.233 200.7,253.56C201.44,252.887 202.343,252.24 203.41,251.62C205.91,250.16 208.3,248.403 210.58,246.35Z" style="fill:rgb(249,162,50);fill-rule:nonzero;"/>
            </g>
            <g transform="matrix(1.19886,0,0,1.17003,-59.6989,-59.4524)">
                <path d="M309.31,247.24C309.59,249.987 310.91,251.603 313.27,252.09C317.19,252.91 318.61,253.34 321.31,255.51C321.689,255.822 321.795,256.36 321.56,256.78C316.133,266.427 308.407,273.653 298.38,278.46C300.787,274.793 302.8,271.023 304.42,267.15C305.193,265.31 305.81,262.817 306.27,259.67C306.903,255.41 307.917,251.267 309.31,247.24Z" style="fill:rgb(25,172,164);fill-rule:nonzero;"/>
            </g>
            <g transform="matrix(1.19886,0,0,1.17003,-59.6989,-59.4524)">
                <path d="M396.5,274.54C377.95,285.65 358.35,283.43 337.75,279.29C343.923,277.243 349.663,274.383 354.97,270.71C360.45,266.92 371.58,261.58 378.41,262.36C378.661,262.392 378.889,262.513 379.05,262.7C380.983,264.933 383.317,266.593 386.05,267.68C386.417,267.827 386.86,268.303 387.38,269.11C387.515,269.316 387.718,269.465 387.95,269.53C390.09,270.14 393.72,271.1 393.68,271.64C393.679,271.649 393.679,271.658 393.679,271.668C393.679,271.849 393.828,271.998 394.009,271.998C394.033,271.998 394.057,271.995 394.08,271.99C394.42,271.903 394.667,272.013 394.82,272.32C394.925,272.524 395.127,272.657 395.35,272.67C396.303,272.723 396.687,273.347 396.5,274.54Z" style="fill:rgb(25,172,164);fill-rule:nonzero;"/>
            </g>
            <g transform="matrix(1.19886,0,0,1.17003,-59.6989,-59.4524)">
                <path d="M172.7,267.79C168.693,264.037 168.73,263.923 172.81,267.45C172.906,267.534 172.967,267.648 172.98,267.77C173.013,267.99 172.92,267.997 172.7,267.79Z" style="fill:rgb(155,107,124);fill-rule:nonzero;"/>
            </g>
            <g transform="matrix(1.19886,0,0,1.17003,-59.6989,-59.4524)">
                <path d="M181.87,279.7C170.39,281.85 152.54,284.4 139.75,280.96C140.323,280.647 140.543,280.267 140.41,279.82C140.329,279.537 140.444,279.236 140.69,279.09L152.11,272.14C152.237,272.06 152.373,272.013 152.52,272C154.71,271.75 154.34,268.67 155.04,267.4C155.727,266.14 156.71,265.833 157.99,266.48C160.797,267.887 163.517,269.43 166.15,271.11C171.203,274.33 176.443,277.193 181.87,279.7Z" style="fill:rgb(249,162,50);fill-rule:nonzero;"/>
            </g>
            <g transform="matrix(1.19886,0,0,1.17003,-59.6989,-59.4524)">
                <path d="M265.46,279C265.06,288 265.037,297.023 265.39,306.07L262.04,312.25L261.94,292.19C261.94,291.927 261.839,291.675 261.66,291.49C260.527,290.323 259.017,289.823 257.13,289.99C256.634,290.035 256.242,290.447 256.22,290.95L255.5,309.29L252.76,304.77L253.29,277.75C254.057,278.217 254.4,278.883 254.32,279.75C254.313,279.863 254.323,279.977 254.35,280.09L255.13,283.07C255.403,284.123 255.617,284.11 255.77,283.03C255.897,282.13 256.09,282.38 256.35,283.78C256.403,284.053 256.433,284.053 256.44,283.78L256.55,278.9C256.55,278.887 256.551,278.873 256.551,278.86C256.582,278.318 257.057,277.897 257.605,277.927C257.617,277.928 257.628,277.929 257.64,277.93L261.09,278.23C261.609,278.282 262.007,278.723 262,279.24L262,279.7C262,279.703 262,279.706 262,279.71C262,280.258 262.451,280.71 263,280.71C263.116,280.71 263.231,280.689 263.34,280.65C264.2,280.343 264.907,279.793 265.46,279Z" style="fill:rgb(155,107,124);fill-rule:nonzero;"/>
            </g>
            <g transform="matrix(1.19886,0,0,1.17003,-59.6989,-59.4524)">
                <path d="M303,288.96C297.51,289.44 286.98,297.59 282.79,301.25C283.17,300.29 283.08,299.45 282.52,298.73C282.396,298.574 282.323,298.385 282.31,298.19L282.12,295.68C282.084,295.272 282.308,294.881 282.68,294.7C283.62,294.24 284.083,293.557 284.07,292.65C284.05,291.323 283.513,291.063 282.46,291.87C271.487,300.257 264.237,311.197 260.71,324.69C260.123,326.93 259.653,329 259.3,330.9C258.713,334.013 258.29,333.993 258.03,330.84C257.13,320.053 253.287,310.343 246.5,301.71L244.57,299.24C244.25,298.825 244.308,298.227 244.7,297.88L246,296.71L252.76,304.77L255.5,309.29L258.46,316.98C259.1,318.647 259.723,318.64 260.33,316.96L262.04,312.25L265.39,306.07C270.73,298.243 277.253,291.72 284.96,286.5C285.02,287.32 285.103,287.797 285.21,287.93C285.749,288.587 286.654,288.766 287.28,288.34C294.72,283.247 302.82,279.65 311.58,277.55C312.06,277.436 312.556,277.692 312.74,278.15L314.66,282.96C314.706,283.077 314.73,283.201 314.73,283.327C314.73,283.774 314.43,284.169 314,284.29C311.32,285.06 304.56,286.72 303,288.96Z" style="fill:rgb(146,216,188);fill-rule:nonzero;"/>
            </g>
            <g transform="matrix(1.19886,0,0,1.17003,-59.6989,-59.4524)">
                <path d="M214.79,289.25C211.11,292.91 209.8,296.64 208.27,301.61C205.21,311.55 198.15,318.7 188.63,322.76C188.257,321.913 187.663,321.63 186.85,321.91C186.408,322.066 185.914,321.895 185.67,321.5C185.283,320.88 185.52,320.407 186.38,320.08C186.593,320.003 186.774,319.85 186.89,319.65L188.47,316.96C188.55,316.827 188.593,316.683 188.6,316.53L189.65,301.82C189.675,301.523 189.833,301.251 190.08,301.08C192.93,299.07 212.47,287.31 214.79,289.25Z" style="fill:rgb(249,162,50);fill-rule:nonzero;"/>
            </g>
            <g transform="matrix(1.19886,0,0,1.17003,-59.6989,-59.4524)">
                <path d="M303.5,289.29C307.56,288.78 319.21,295.82 323.44,298.53C325.32,299.737 326.353,301.317 326.54,303.27C326.565,303.499 326.484,303.73 326.32,303.9C326,304.233 326.017,304.58 326.37,304.94C326.59,305.173 326.687,305.5 326.63,305.82C326.45,306.813 326.193,307.783 325.86,308.73C324.84,311.62 325.8,315.31 326.36,318.23C326.44,318.657 326.563,319 326.73,319.26C326.932,319.566 326.943,319.965 326.76,320.29C326.38,320.963 326.843,321.183 328.15,320.95C328.18,320.945 328.21,320.942 328.24,320.942C328.52,320.942 328.75,321.172 328.75,321.452C328.75,321.455 328.75,321.457 328.75,321.46L328.75,321.75C328.748,321.766 328.872,321.815 329.03,321.86L332.67,322.81C332.825,322.855 332.994,322.848 333.15,322.79C333.723,322.577 333.84,322.967 333.5,323.96C324.24,321.18 317.31,315.73 312.71,307.61C309.13,301.28 309.65,294.41 303.5,289.29Z" style="fill:rgb(25,172,164);fill-rule:nonzero;"/>
            </g>
            <g transform="matrix(1.19886,0,0,1.17003,-59.6989,-59.4524)">
                <path d="M262.04,312.25L260.33,316.96C259.723,318.64 259.1,318.647 258.46,316.98L255.5,309.29L256.22,290.95C256.242,290.447 256.634,290.035 257.13,289.99C259.017,289.823 260.527,290.323 261.66,291.49C261.839,291.675 261.94,291.927 261.94,292.19L262.04,312.25Z" style="fill:rgb(141,165,172);fill-rule:nonzero;"/>
            </g>
            <g transform="matrix(1.19886,0,0,1.17003,-59.6989,-59.4524)">
                <path d="M282.79,301.25C271.923,312.723 266.443,326.163 266.35,341.57C266.18,367.91 264.66,386.95 265.23,412.35C265.46,422.56 252.07,422.29 252.27,411.63C252.65,390.87 251.75,370.4 251.7,349.76C251.66,332.14 250.23,320.61 240.54,307.25C241.707,307.71 242.6,307.12 243.22,305.48C243.516,304.68 244.167,304.062 244.98,303.81C245.54,303.637 246.047,302.937 246.5,301.71C253.287,310.343 257.13,320.053 258.03,330.84C258.29,333.993 258.713,334.013 259.3,330.9C259.653,329 260.123,326.93 260.71,324.69C264.237,311.197 271.487,300.257 282.46,291.87C283.513,291.063 284.05,291.323 284.07,292.65C284.083,293.557 283.62,294.24 282.68,294.7C282.308,294.881 282.084,295.272 282.12,295.68L282.31,298.19C282.323,298.385 282.396,298.574 282.52,298.73C283.08,299.45 283.17,300.29 282.79,301.25Z" style="fill:rgb(207,227,207);fill-rule:nonzero;"/>
            </g>
        </g>
    </g>
</svg>
