<svg xmlns="http://www.w3.org/2000/svg" xmlns:xlink="http://www.w3.org/1999/xlink" width="500" zoomAndPan="magnify" viewBox="0 0 375 374.999991" height="500" preserveAspectRatio="xMidYMid meet" version="1.0"><defs><g/><clipPath id="1761bbaa89"><path d="M 0.101562 0 L 375 0 L 375 375 L 0.101562 375 Z M 0.101562 0 " clip-rule="nonzero"/></clipPath><clipPath id="3db8e9a507"><path d="M 57.101562 0 L 318 0 C 333.117188 0 347.617188 6.003906 358.304688 16.695312 C 368.996094 27.382812 375 41.882812 375 57 L 375 318 C 375 333.117188 368.996094 347.617188 358.304688 358.304688 C 347.617188 368.996094 333.117188 375 318 375 L 57.101562 375 C 41.984375 375 27.484375 368.996094 16.796875 358.304688 C 6.105469 347.617188 0.101562 333.117188 0.101562 318 L 0.101562 57 C 0.101562 41.882812 6.105469 27.382812 16.796875 16.695312 C 27.484375 6.003906 41.984375 0 57.101562 0 Z M 57.101562 0 " clip-rule="nonzero"/></clipPath><clipPath id="fb4435a1fb"><path d="M 0.101562 0 L 375 0 L 375 375 L 0.101562 375 Z M 0.101562 0 " clip-rule="nonzero"/></clipPath><clipPath id="573455ae23"><path d="M 57.101562 0 L 318 0 C 333.117188 0 347.617188 6.003906 358.304688 16.695312 C 368.996094 27.382812 375 41.882812 375 57 L 375 318 C 375 333.117188 368.996094 347.617188 358.304688 358.304688 C 347.617188 368.996094 333.117188 375 318 375 L 57.101562 375 C 41.984375 375 27.484375 368.996094 16.796875 358.304688 C 6.105469 347.617188 0.101562 333.117188 0.101562 318 L 0.101562 57 C 0.101562 41.882812 6.105469 27.382812 16.796875 16.695312 C 27.484375 6.003906 41.984375 0 57.101562 0 Z M 57.101562 0 " clip-rule="nonzero"/></clipPath><clipPath id="66023f0a94"><rect x="0" width="375" y="0" height="375"/></clipPath><clipPath id="096103623d"><path d="M 0.101562 0.00390625 L 375 0.00390625 L 375 375 L 0.101562 375 Z M 0.101562 0.00390625 " clip-rule="nonzero"/></clipPath><clipPath id="38e0707f78"><path d="M 57.101562 0.00390625 L 317.996094 0.00390625 C 333.113281 0.00390625 347.613281 6.007812 358.300781 16.695312 C 368.992188 27.386719 374.996094 41.882812 374.996094 57 L 374.996094 318 C 374.996094 333.117188 368.992188 347.613281 358.300781 358.304688 C 347.613281 368.992188 333.113281 374.996094 317.996094 374.996094 L 57.101562 374.996094 C 41.984375 374.996094 27.484375 368.992188 16.796875 358.304688 C 6.105469 347.613281 0.101562 333.117188 0.101562 318 L 0.101562 57 C 0.101562 41.882812 6.105469 27.386719 16.796875 16.695312 C 27.484375 6.007812 41.984375 0.00390625 57.101562 0.00390625 Z M 57.101562 0.00390625 " clip-rule="nonzero"/></clipPath><clipPath id="d42a783983"><rect x="0" width="131" y="0" height="224"/></clipPath><clipPath id="a8ddcf3d5e"><rect x="0" width="115" y="0" height="222"/></clipPath></defs><g clip-path="url(#1761bbaa89)"><g clip-path="url(#3db8e9a507)"><g transform="matrix(1, 0, 0, 1, 0, 0)"><g clip-path="url(#66023f0a94)"><g clip-path="url(#fb4435a1fb)"><g clip-path="url(#573455ae23)"><path fill="#18181b" d="M 0.101562 0 L 375 0 L 375 374.898438 L 0.101562 374.898438 Z M 0.101562 0 " fill-opacity="1" fill-rule="nonzero"/></g></g></g></g></g></g><g clip-path="url(#096103623d)"><g clip-path="url(#38e0707f78)"><path stroke-linecap="butt" transform="matrix(0.75, 0, 0, 0.75, 0.101056, 0.00221852)" fill="none" stroke-linejoin="miter" d="M 76.000681 0.0022503 L 423.860079 0.0022503 C 444.01633 0.0022503 463.349665 8.007459 477.599666 22.25746 C 491.854875 36.512669 499.860084 55.840796 499.860084 75.997047 L 499.860084 423.99707 C 499.860084 444.153321 491.854875 463.481447 477.599666 477.736657 C 463.349665 491.986658 444.01633 499.991866 423.860079 499.991866 L 76.000681 499.991866 C 55.84443 499.991866 36.511095 491.986658 22.261094 477.736657 C 8.005885 463.481447 0.000675892 444.153321 0.000675892 423.99707 L 0.000675892 75.997047 C 0.000675892 55.840796 8.005885 36.512669 22.261094 22.25746 C 36.511095 8.007459 55.84443 0.0022503 76.000681 0.0022503 Z M 76.000681 0.0022503 " stroke="#2e2e30" stroke-width="28" stroke-opacity="1" stroke-miterlimit="4"/></g></g><path stroke-linecap="round" transform="matrix(0.75, -0.000000000000000093, 0.000000000000000093, 0.75, 51.908154, 43.885444)" fill="none" stroke-linejoin="miter" d="M 27.997463 28.001701 L 340.638109 28.001701 " stroke="#e6e6e6" stroke-width="56" stroke-opacity="1" stroke-miterlimit="4"/><path stroke-linecap="round" transform="matrix(0, 0.75, -0.75, 0, 208.892597, 64.889403)" fill="none" stroke-linejoin="miter" d="M 25.001631 24.997423 L 330.152693 24.997423 " stroke="#e6e6e6" stroke-width="50" stroke-opacity="1" stroke-miterlimit="4"/><g transform="matrix(1, 0, 0, 1, 69, 101)"><g clip-path="url(#d42a783983)"><g fill="#14191f" fill-opacity="1"><g transform="translate(6.947029, 160.304978)"><g><path d="M 4.691406 -62.90625 L 68.734375 -87.59375 L 73.878906 -74.238281 L 68.667969 -60.910156 L -4.472656 -89.511719 L -4.472656 -145.9375 L 122 -94.609375 L 122 -54.226562 L -4.472656 -2.894531 L -4.472656 -59.371094 Z M 14.984375 -36.199219 L 9.839844 -49.550781 L 24.148438 -49.550781 L 24.148438 -24.148438 L 9.839844 -24.148438 L 4.457031 -37.410156 L 102.308594 -77.125 L 107.691406 -63.863281 L 93.378906 -63.863281 L 93.378906 -84.972656 L 107.691406 -84.972656 L 102.308594 -71.710938 L 4.457031 -111.421875 L 9.839844 -124.683594 L 24.148438 -124.683594 L 24.148438 -99.28125 L 9.839844 -99.28125 L 15.050781 -112.609375 L 113.421875 -74.140625 Z M 14.984375 -36.199219 "/></g></g></g><g fill="#00bf63" fill-opacity="1"><g transform="translate(6.947029, 160.304978)"><g><path d="M 9.84375 -49.546875 L 73.875 -74.234375 L 9.84375 -99.28125 L 9.84375 -124.6875 L 107.6875 -84.96875 L 107.6875 -63.859375 L 9.84375 -24.15625 Z M 9.84375 -49.546875 "/></g></g></g></g></g><g transform="matrix(1, 0, 0, 1, 180, 153)"><g clip-path="url(#a8ddcf3d5e)"><g fill="#14191f" fill-opacity="1"><g transform="translate(6.111186, 186.861283)"><g><path d="M -3.9375 -86.761719 L 96.0625 -86.761719 L 96.0625 -44.363281 L -3.9375 -44.363281 Z M -3.9375 -86.761719 "/></g></g></g><g fill="#737373" fill-opacity="1"><g transform="translate(6.111186, 186.861283)"><g><path d="M 81.75 -72.453125 L 81.75 -58.671875 L 10.375 -58.671875 L 10.375 -72.453125 Z M 81.75 -72.453125 "/></g></g></g></g></g></svg>