<svg width="3944" height="750" viewBox="0 0 3944 750" fill="none" xmlns="http://www.w3.org/2000/svg">
<g clip-path="url(#clip0_4383_20980)">
<path d="M314.805 154.949H314.865C336.905 77.8991 432.945 40.2891 530.815 40.2891C598.445 40.2891 659.155 61.6991 700.775 95.6891C675.937 96.8603 651.413 101.734 628.015 110.149C661.645 122.649 690.535 141.879 711.945 165.669C695.792 162.889 679.412 161.65 663.025 161.969C703.301 220.312 724.819 289.554 724.705 360.449C724.705 553.749 568.005 710.449 374.705 710.449C184.385 710.449 24.7051 551.099 24.7051 360.449C24.7051 330.339 28.7051 299.249 36.4751 270.089C38.5151 263.969 41.3551 258.099 45.1251 255.949C49.8451 253.259 54.1451 261.279 54.8351 263.889C59.9528 283.059 66.839 301.712 75.4051 319.609C74.6551 279.649 91.7251 243.249 115.205 211.769C130.865 190.779 145.385 171.329 152.085 115.199C152.535 111.429 156.105 108.719 159.715 109.899C210.675 126.579 237.915 211.439 233.685 282.399C261.835 286.429 261.705 257.019 261.705 257.019C252.705 229.359 258.705 177.949 314.705 154.949H314.805Z" fill="url(#paint0_linear_4383_20980)"/>
<path opacity="0.9" d="M713.255 271.32C721.765 463.82 563.515 629.79 370.545 629.79C189.895 629.79 41.8649 490.16 28.4749 312.94C26.086 329.536 24.8297 346.274 24.7148 363.04C26.0848 552.66 185.375 710.45 374.715 710.45C568.015 710.45 724.715 553.75 724.715 360.45C724.715 329.65 720.725 299.78 713.255 271.32Z" fill="url(#paint1_radial_4383_20980)"/>
<path style="mix-blend-mode:screen" d="M366.175 180.459C362.405 173.789 344.995 163.919 337.385 162.199C366.185 69.9491 512.905 41.6291 602.705 57.9491C640.075 64.7491 686.615 85.1091 700.775 95.6891C659.155 61.6991 598.435 40.2891 530.815 40.2891C432.945 40.2891 336.905 77.8991 314.865 154.949H314.705C258.705 177.949 252.705 229.379 261.705 257.029C270.345 224.039 311.455 183.499 366.175 180.459Z" fill="url(#paint2_radial_4383_20980)"/>
<path d="M467.885 116.748C389.265 132.218 363.575 137.278 337.265 162.288C366.815 84.0584 442.245 68.1984 532.125 103.858C510.733 108.268 489.32 112.568 467.885 116.758V116.748Z" fill="url(#paint3_linear_4383_20980)"/>
<path d="M43.7049 259.38C22.2249 347.32 38.8249 450.68 136.405 537.42C107.355 505.65 71.8849 388.35 150.155 304.55C155.425 298.9 164.495 303.05 164.785 310.77C171.235 484.93 311.765 591.3 473.785 571.41C423.585 568.59 257.565 510.44 381.065 487.44C445.615 475.41 546.825 456.56 546.825 365.74C546.825 218.52 432.995 175.48 363.965 181.88C316.725 186.26 274.675 216.24 261.735 257.01C266.705 273.08 246.895 284.33 233.685 282.44C237.925 211.49 210.685 126.58 159.715 109.9C156.115 108.72 152.535 111.43 152.085 115.2C145.385 171.33 130.865 190.78 115.215 211.77C91.7249 243.26 74.6549 279.65 75.4049 319.61C66.839 301.713 59.9528 283.06 54.8349 263.89C54.2649 261.73 51.1349 255.7 47.3549 255.42C45.3049 255.27 44.2149 257.27 43.7049 259.38Z" fill="url(#paint4_radial_4383_20980)"/>
<path style="mix-blend-mode:screen" d="M337.695 496.349C432.735 573.519 623.865 515.659 623.865 328.029C546.705 444.989 448.425 525.669 337.705 496.349H337.695Z" fill="url(#paint5_linear_4383_20980)"/>
<path style="mix-blend-mode:screen" d="M150.155 304.55C151.02 303.583 152.108 302.844 153.326 302.397C154.543 301.951 155.851 301.811 157.135 301.99C87.0755 387.44 143.585 537.51 182.365 574.38C184.535 580.52 145.575 548.59 140.205 541.12C110.705 516.09 68.4255 392.06 150.155 304.55Z" fill="url(#paint6_linear_4383_20980)"/>
<path d="M374.705 503.419C469.765 503.419 546.835 440.54 546.835 362.97C546.835 285.4 469.765 222.52 374.705 222.52C293.605 222.52 202.535 275.28 202.575 365.02C202.615 503.69 349.115 583.47 473.995 571.39C464.615 570.3 406.095 567.19 366.545 522.45C362.975 518.42 356.785 511.38 359.595 506.81C362.395 502.24 370.115 503.41 374.695 503.41L374.705 503.419Z" fill="url(#paint7_linear_4383_20980)"/>
<path opacity="0.6" d="M528.085 299.15L392.045 429.33C379.975 437.91 367.125 438.53 354.445 430.75L221.015 299.63C224.822 293.512 229.101 287.701 233.815 282.25L247.815 295.35C282.855 328.19 311.185 354.72 351.115 388.8C369.135 404.18 374.735 403.88 392.415 388.8C438.095 349.8 471.505 320.3 514.935 281.51C519.775 287.036 524.169 292.938 528.075 299.16L528.085 299.15Z" fill="white"/>
<mask id="mask0_4383_20980" style="mask-type:luminance" maskUnits="userSpaceOnUse" x="202" y="297" width="345" height="276">
<path d="M546.835 362.969C546.835 440.539 469.765 503.419 374.705 503.419C370.115 503.419 362.405 502.239 359.595 506.819C356.785 511.379 362.975 518.419 366.545 522.449C403.705 564.489 457.615 569.779 471.765 571.169L473.995 571.389C349.115 583.469 202.615 503.689 202.575 365.019C202.445 341.93 208.871 319.279 221.105 299.699L355.185 421.479C364.725 430.139 380.795 430.139 390.335 421.479L526.955 297.389C539.655 316.969 546.835 339.289 546.835 362.969Z" fill="white"/>
</mask>
<g mask="url(#mask0_4383_20980)">
<path opacity="0.7" d="M162.705 200.979H597.775V595.449H162.705V200.979Z" fill="url(#paint8_linear_4383_20980)"/>
<g filter="url(#filter0_f_4383_20980)">
<path fill-rule="evenodd" clip-rule="evenodd" d="M334.745 422.298C309.395 395.918 233.475 308.268 233.475 308.268L239.345 308.528L358.205 397.298C367.105 403.768 379.805 403.698 388.625 397.148L505.175 308.648L511.355 308.158C511.355 308.158 437.915 393.728 409.785 421.918C381.655 450.108 360.095 448.678 334.745 422.298Z" fill="#458FCD"/>
</g>
</g>
<path d="M398.855 152.258C417.275 146.458 415.655 128.228 415.655 128.228C415.655 128.228 406.445 117.378 388.195 123.388C371.115 129.018 368.465 141.188 368.465 141.188C368.465 141.188 377.795 158.888 398.855 152.258Z" fill="white"/>
<g clip-path="url(#clip1_4383_20980)">
<path d="M1035.57 279.367H925.57V222.367H1207.57V279.367H1098.07V565.867H1035.57V279.367ZM1400.91 301.367C1419.57 301.367 1436.07 305.701 1450.41 314.367C1465.07 322.701 1476.41 334.534 1484.41 349.867C1492.74 364.867 1496.91 382.034 1496.91 401.367V565.867H1437.41V413.367C1437.41 395.701 1432.41 381.367 1422.41 370.367C1412.41 359.034 1399.41 353.367 1383.41 353.367C1365.74 353.367 1350.74 358.867 1338.41 369.867C1326.41 380.534 1320.41 393.701 1320.41 409.367V565.867H1259.41V216.367H1320.41V342.367C1328.41 330.034 1339.57 320.201 1353.91 312.867C1368.24 305.2 1383.91 301.367 1400.91 301.367ZM1784.9 307.367V565.867H1723.4V531.867C1715.4 544.201 1704.23 554.034 1689.9 561.367C1675.9 568.367 1660.4 571.867 1643.4 571.867C1624.73 571.867 1608.07 567.701 1593.4 559.367C1579.07 550.701 1567.73 538.867 1559.4 523.867C1551.4 508.534 1547.4 491.201 1547.4 471.867V307.367H1606.4V459.867C1606.4 477.534 1611.4 492.034 1621.4 503.367C1631.73 514.367 1644.9 519.867 1660.9 519.867C1678.57 519.867 1693.4 514.534 1705.4 503.867C1717.4 492.867 1723.4 479.534 1723.4 463.867V307.367H1784.9ZM1984.95 301.367C2003.62 301.367 2020.28 305.701 2034.95 314.367C2049.62 322.701 2060.95 334.534 2068.95 349.867C2077.28 364.867 2081.45 382.034 2081.45 401.367V565.867H2021.95V413.367C2021.95 395.701 2016.78 381.367 2006.45 370.367C1996.45 359.034 1983.45 353.367 1967.45 353.367C1949.78 353.367 1934.95 358.867 1922.95 369.867C1910.95 380.534 1904.95 393.701 1904.95 409.367V565.867H1843.95V307.367H1904.95V341.367C1912.95 329.034 1923.95 319.367 1937.95 312.367C1952.28 305.034 1967.95 301.367 1984.95 301.367ZM2392.5 216.367V565.867H2331.5V525.367C2321.5 540.034 2308.67 551.534 2293 559.867C2277.67 567.867 2260.67 571.867 2242 571.867C2219.33 571.867 2199 566.201 2181 554.867C2163 543.201 2148.83 527.034 2138.5 506.367C2128.17 485.701 2123 462.367 2123 436.367C2123 410.367 2128.17 387.201 2138.5 366.867C2148.83 346.201 2163 330.201 2181 318.867C2199 307.201 2219.33 301.367 2242 301.367C2260.67 301.367 2277.67 305.534 2293 313.867C2308.67 321.867 2321.5 333.201 2331.5 347.867V216.367H2392.5ZM2258.5 519.867C2272.5 519.867 2285 516.367 2296 509.367C2307.33 502.034 2316 492.034 2322 479.367C2328.33 466.701 2331.5 452.367 2331.5 436.367C2331.5 412.034 2324.67 392.201 2311 376.867C2297.33 361.201 2279.83 353.367 2258.5 353.367C2236.5 353.367 2218.5 361.201 2204.5 376.867C2190.5 392.201 2183.5 412.034 2183.5 436.367C2183.5 460.701 2190.5 480.701 2204.5 496.367C2218.5 512.034 2236.5 519.867 2258.5 519.867ZM2573.93 522.867C2587.26 522.867 2600.43 520.367 2613.43 515.367C2626.76 510.367 2637.6 503.867 2645.93 495.867L2680.93 531.867C2669.93 543.534 2654.43 553.201 2634.43 560.867C2614.43 568.201 2594.93 571.867 2575.93 571.867C2551.26 571.867 2528.6 566.034 2507.93 554.367C2487.26 542.701 2470.76 526.534 2458.43 505.867C2446.43 485.201 2440.43 461.867 2440.43 435.867C2440.43 410.201 2446.26 387.201 2457.93 366.867C2469.6 346.534 2485.43 330.534 2505.43 318.867C2525.76 307.201 2548.1 301.367 2572.43 301.367C2612.1 301.367 2643.1 315.034 2665.43 342.367C2688.1 369.701 2699.43 407.034 2699.43 454.367H2499.43C2502.76 475.034 2511.1 491.701 2524.43 504.367C2537.76 516.701 2554.26 522.867 2573.93 522.867ZM2573.43 350.367C2555.1 350.367 2539.26 356.201 2525.93 367.867C2512.6 379.201 2503.93 394.534 2499.93 413.867H2640.43C2637.43 394.867 2630.1 379.534 2618.43 367.867C2607.1 356.201 2592.1 350.367 2573.43 350.367ZM2804.05 356.367C2812.38 339.367 2824.72 326.034 2841.05 316.367C2857.38 306.367 2875.88 301.367 2896.55 301.367V353.367C2868.88 353.367 2846.55 360.867 2829.55 375.867C2812.55 390.867 2804.05 410.701 2804.05 435.367V565.867H2743.05V307.367H2804.05V356.367ZM3091.9 301.367C3114.57 301.367 3134.9 307.201 3152.9 318.867C3170.9 330.201 3185.07 346.201 3195.4 366.867C3205.73 387.201 3210.9 410.367 3210.9 436.367C3210.9 462.367 3205.73 485.701 3195.4 506.367C3185.07 527.034 3170.9 543.201 3152.9 554.867C3134.9 566.201 3114.57 571.867 3091.9 571.867C3073.23 571.867 3056.07 567.867 3040.4 559.867C3025.07 551.534 3012.4 540.034 3002.4 525.367V565.867H2941.4V216.367H3002.4V347.867C3012.4 333.201 3025.07 321.867 3040.4 313.867C3056.07 305.534 3073.23 301.367 3091.9 301.367ZM3075.4 519.867C3097.4 519.867 3115.4 512.034 3129.4 496.367C3143.4 480.701 3150.4 460.701 3150.4 436.367C3150.4 412.034 3143.4 392.201 3129.4 376.867C3115.4 361.201 3097.4 353.367 3075.4 353.367C3054.07 353.367 3036.57 361.201 3022.9 376.867C3009.23 392.201 3002.4 412.034 3002.4 436.367C3002.4 452.367 3005.4 466.701 3011.4 479.367C3017.73 492.034 3026.4 502.034 3037.4 509.367C3048.73 516.367 3061.4 519.867 3075.4 519.867ZM3256.84 307.367H3317.84V565.867H3256.84V307.367ZM3287.34 268.367C3277.67 268.367 3269.34 264.867 3262.34 257.867C3255.67 250.867 3252.34 242.701 3252.34 233.367C3252.34 224.034 3255.67 216.034 3262.34 209.367C3269.34 202.367 3277.67 198.867 3287.34 198.867C3296.67 198.867 3304.67 202.367 3311.34 209.367C3318.01 216.034 3321.34 224.034 3321.34 233.367C3321.34 242.701 3318.01 250.867 3311.34 257.867C3304.67 264.867 3296.67 268.367 3287.34 268.367ZM3438.02 356.367C3446.35 339.367 3458.68 326.034 3475.02 316.367C3491.35 306.367 3509.85 301.367 3530.52 301.367V353.367C3502.85 353.367 3480.52 360.867 3463.52 375.867C3446.52 390.867 3438.02 410.701 3438.02 435.367V565.867H3377.02V307.367H3438.02V356.367ZM3819.12 216.367V565.867H3758.12V525.367C3748.12 540.034 3735.29 551.534 3719.62 559.867C3704.29 567.867 3687.29 571.867 3668.62 571.867C3645.95 571.867 3625.62 566.201 3607.62 554.867C3589.62 543.201 3575.45 527.034 3565.12 506.367C3554.79 485.701 3549.62 462.367 3549.62 436.367C3549.62 410.367 3554.79 387.201 3565.12 366.867C3575.45 346.201 3589.62 330.201 3607.62 318.867C3625.62 307.201 3645.95 301.367 3668.62 301.367C3687.29 301.367 3704.29 305.534 3719.62 313.867C3735.29 321.867 3748.12 333.201 3758.12 347.867V216.367H3819.12ZM3685.12 519.867C3699.12 519.867 3711.62 516.367 3722.62 509.367C3733.95 502.034 3742.62 492.034 3748.62 479.367C3754.95 466.701 3758.12 452.367 3758.12 436.367C3758.12 412.034 3751.29 392.201 3737.62 376.867C3723.95 361.201 3706.45 353.367 3685.12 353.367C3663.12 353.367 3645.12 361.201 3631.12 376.867C3617.12 392.201 3610.12 412.034 3610.12 436.367C3610.12 460.701 3617.12 480.701 3631.12 496.367C3645.12 512.034 3663.12 519.867 3685.12 519.867Z" fill="#FAFAFA"/>
<path d="M3885.62 292.691C3890.08 292.691 3894.21 293.812 3897.99 296.052C3901.85 298.292 3904.89 301.347 3907.12 305.217C3909.42 309.019 3910.57 313.16 3910.57 317.64C3910.57 322.121 3909.42 326.296 3907.12 330.166C3904.89 333.968 3901.85 337.023 3897.99 339.331C3894.21 341.571 3890.08 342.691 3885.62 342.691C3881.09 342.691 3876.9 341.571 3873.04 339.331C3869.26 337.023 3866.22 333.968 3863.92 330.166C3861.69 326.296 3860.57 322.121 3860.57 317.64C3860.57 313.16 3861.69 309.019 3863.92 305.217C3866.22 301.347 3869.26 298.292 3873.04 296.052C3876.9 293.812 3881.09 292.691 3885.62 292.691ZM3885.62 339.025C3889.47 339.025 3893.02 338.075 3896.27 336.174C3899.58 334.273 3902.19 331.693 3904.08 328.435C3905.97 325.108 3906.92 321.51 3906.92 317.64C3906.92 313.771 3905.94 310.207 3903.98 306.948C3902.08 303.689 3899.52 301.11 3896.27 299.209C3893.02 297.308 3889.47 296.357 3885.62 296.357C3881.77 296.357 3878.18 297.308 3874.87 299.209C3871.63 301.11 3869.02 303.689 3867.06 306.948C3865.17 310.207 3864.22 313.771 3864.22 317.64C3864.22 321.51 3865.17 325.074 3867.06 328.333C3869.02 331.592 3871.63 334.205 3874.87 336.174C3878.18 338.075 3881.77 339.025 3885.62 339.025ZM3899.11 313.058C3899.11 315.366 3898.5 317.403 3897.28 319.168C3896.13 320.865 3894.55 322.087 3892.52 322.834L3899.62 333.017H3892.01L3885.52 323.75H3880.85V333.017H3873.25V302.467H3887.55C3891 302.467 3893.77 303.452 3895.86 305.421C3898.03 307.321 3899.11 309.867 3899.11 313.058ZM3880.85 316.215H3886.74C3888.02 316.215 3889.07 315.943 3889.88 315.4C3890.69 314.789 3891.1 314.008 3891.1 313.058C3891.1 312.175 3890.69 311.463 3889.88 310.92C3889.07 310.309 3888.02 310.003 3886.74 310.003H3880.85V316.215Z" fill="#FAFAFA"/>
</g>
</g>
<defs>
<filter id="filter0_f_4383_20980" x="201.475" y="276.158" width="341.88" height="198.416" filterUnits="userSpaceOnUse" color-interpolation-filters="sRGB">
<feFlood flood-opacity="0" result="BackgroundImageFix"/>
<feBlend mode="normal" in="SourceGraphic" in2="BackgroundImageFix" result="shape"/>
<feGaussianBlur stdDeviation="16" result="effect1_foregroundBlur_4383_20980"/>
</filter>
<linearGradient id="paint0_linear_4383_20980" x1="146.185" y1="155.649" x2="639.585" y2="615.869" gradientUnits="userSpaceOnUse">
<stop stop-color="#1B91F3"/>
<stop offset="1" stop-color="#0B68CB"/>
</linearGradient>
<radialGradient id="paint1_radial_4383_20980" cx="0" cy="0" r="1" gradientUnits="userSpaceOnUse" gradientTransform="translate(145.275 314) rotate(66.5177) scale(295.96 283.519)">
<stop offset="0.53" stop-color="#0B4186" stop-opacity="0"/>
<stop offset="1" stop-color="#0B4186" stop-opacity="0.45"/>
</radialGradient>
<radialGradient id="paint2_radial_4383_20980" cx="0" cy="0" r="1" gradientUnits="userSpaceOnUse" gradientTransform="translate(383.705 192.449) rotate(-127.997) scale(63.2702 104.698)">
<stop stop-color="#EF3ACC" stop-opacity="0"/>
<stop offset="1" stop-color="#EF3ACC" stop-opacity="0.64"/>
</radialGradient>
<linearGradient id="paint3_linear_4383_20980" x1="283.475" y1="273.458" x2="461.015" y2="75.8184" gradientUnits="userSpaceOnUse">
<stop stop-color="#0F5DB0"/>
<stop offset="1" stop-color="#0F5DB0" stop-opacity="0"/>
</linearGradient>
<radialGradient id="paint4_radial_4383_20980" cx="0" cy="0" r="1" gradientUnits="userSpaceOnUse" gradientTransform="translate(242.705 551.15) rotate(-64.2624) scale(461.716 570.355)">
<stop offset="0.02" stop-color="#094188"/>
<stop offset="0.97" stop-color="#0B4186" stop-opacity="0"/>
</radialGradient>
<linearGradient id="paint5_linear_4383_20980" x1="594.625" y1="416.559" x2="512.075" y2="619.249" gradientUnits="userSpaceOnUse">
<stop stop-color="#E247C4" stop-opacity="0"/>
<stop offset="1" stop-color="#E247C4" stop-opacity="0.64"/>
</linearGradient>
<linearGradient id="paint6_linear_4383_20980" x1="82.7155" y1="234.79" x2="155.445" y2="527.51" gradientUnits="userSpaceOnUse">
<stop offset="0.1" stop-color="#EF3ACC"/>
<stop offset="1" stop-color="#EF3ACC" stop-opacity="0"/>
</linearGradient>
<linearGradient id="paint7_linear_4383_20980" x1="374.705" y1="273.95" x2="374.705" y2="569.949" gradientUnits="userSpaceOnUse">
<stop stop-color="white"/>
<stop offset="0.91" stop-color="#BEE1FE"/>
<stop offset="1" stop-color="#96CEFD"/>
</linearGradient>
<linearGradient id="paint8_linear_4383_20980" x1="380.245" y1="441.449" x2="380.245" y2="565.449" gradientUnits="userSpaceOnUse">
<stop stop-color="#BCE0FD"/>
<stop offset="1" stop-color="#88CCFC"/>
</linearGradient>
<clipPath id="clip0_4383_20980">
<rect width="3944" height="750" fill="white"/>
</clipPath>
<clipPath id="clip1_4383_20980">
<rect width="3317" height="585" fill="white" transform="translate(906.357 82.7891)"/>
</clipPath>
</defs>
</svg>
