<svg xmlns="http://www.w3.org/2000/svg" width="2500" height="2500" viewBox="0 0 192.756 192.756"><g fill-rule="evenodd" clip-rule="evenodd"><path fill="#fff" d="M0 0h192.756v192.756H0V0z"/><path d="M24.037 110.41c-2.514-1.575-4.367-7.01-4.367-13.469 0-.237.001-.471.007-.704l.002.003c-6.994-1.099-12.047-4.11-12.177-7.672l-.02.042c-1.711 2.127-2.688 4.586-2.688 7.206 0 7.71 8.463 14.027 19.198 14.586l.045.008zM1.56 96.378c0-8.626 10.736-15.621 23.979-15.621 13.244 0 23.98 6.995 23.98 15.621 0 8.627-10.736 15.622-23.98 15.622-13.243 0-23.979-6.995-23.979-15.622zm23.98-13.367c2.557 0 4.732 3.879 5.538 9.291l.002-.009c4.975-.774 8.457-2.56 8.457-4.639 0-2.789-6.267-5.048-13.997-5.048-7.729 0-13.996 2.259-13.996 5.048 0 2.079 3.482 3.864 8.456 4.639l.003.009c.806-5.412 2.981-9.291 5.537-9.291zm1.548 27.39c10.735-.559 19.199-6.876 19.199-14.586 0-2.62-.978-5.079-2.688-7.206l-.021-.042c-.129 3.562-5.182 6.573-12.177 7.672l.003-.003c.005.233.007.467.007.704 0 6.459-1.854 11.894-4.367 13.469l.044-.008zM25.54 92.703a37.94 37.94 0 0 0 3.325-.142l-.001.001c-.53-3.468-1.818-5.917-3.323-5.917s-2.792 2.449-3.323 5.917l-.001-.001a38.27 38.27 0 0 0 3.323.142zm0 12.846c1.925 0 3.496-4.006 3.579-9.029l.01.003a39.115 39.115 0 0 1-7.177 0l.01-.003c.083 5.023 1.653 9.029 3.578 9.029zM123.922 96.378c0-6.593 5.346-11.939 11.939-11.939 6.596 0 11.941 5.346 11.941 11.939 0 6.595-5.346 11.939-11.941 11.939-6.593 0-11.939-5.344-11.939-11.939zm11.939 7.561c3.682 0 6.668-3.386 6.668-7.562 0-4.175-2.986-7.561-6.668-7.561s-6.666 3.386-6.666 7.561c0 4.177 2.985 7.562 6.666 7.562zM161.35 89.413v18.362h-5.032V89.413h.018-7.035v-4.151h19.066v4.151h-7.017zM174.453 102.71l-.004.005-1.93 5.061h-5.877l9.289-22.514h6.262l9.287 22.514h-5.875l-1.93-5.061-.006-.005H174.453zm4.609-3.8h3.166l-.002.001-3.143-8.24h-.043l-3.143 8.24-.002-.001h3.167zM68.617 89.413v18.362h-5.031V89.413h.018-7.036v-4.151h19.067v4.151h-7.018zM76.922 96.378c0-6.593 5.346-11.939 11.941-11.939 6.594 0 11.94 5.346 11.94 11.939 0 6.595-5.346 11.939-11.94 11.939-6.595 0-11.941-5.344-11.941-11.939zm11.941 7.561c3.681 0 6.667-3.386 6.667-7.562 0-4.175-2.986-7.561-6.667-7.561-3.682 0-6.667 3.386-6.667 7.561 0 4.177 2.985 7.562 6.667 7.562zM112.361 107.775h2.551v-8.548l8.777-13.965h-5.875l-5.453 9.463-5.451-9.463h-5.875l8.776 13.965v8.548h2.55z" fill="#cc2229"/></g></svg>