<svg viewBox="0 0 72 72" xmlns="http://www.w3.org/2000/svg"><path d="m36 64.0001c15.464 0 28-12.536 28-28s-12.536-28-28-28-28 12.536-28 28 12.536 28 28 28z" fill="#ea5a47"/><path clip-rule="evenodd" d="m49.4735 22.6035c2.9743 2.9913 4.9592 6.9675 5.4225 11.3965h-7.0619c-.9522-5.6754-5.8881-10-11.8341-10-1.6207 0-3.1663.3213-4.5767.9036l-3.7436-5.9897c2.5128-1.226 5.3362-1.9139 8.3203-1.9139 1.6895 0 3.3276.2205 4.8869.6344.0804-.1908.1736-.3787.2798-.5626 1.3807-2.3915 4.4386-3.2108 6.8301-1.8301s3.2108 4.4386 1.8301 6.8301c-.1079.187-.2261.3643-.3534.5317zm-31.8202 18.3542c-.2138.0279-.4319.0423-.6533.0423-2.7614 0-5-2.2386-5-5s2.2386-5 5-5c.2214 0 .4395.0144.6533.0423 1.0832-4.0182 3.4512-7.5093 6.6362-10.0055l3.7434 5.9894c-2.4741 2.1982-4.0329 5.4039-4.0329 8.9738s1.5588 6.7756 4.0329 8.9738l-3.7434 5.9894c-3.185-2.4962-5.553-5.9873-6.6362-10.0055zm31.8313 8.4275c.1303.1704.2511.3512.3612.5419 1.3807 2.3915.5613 5.4494-1.8301 6.8301-2.3915 1.3807-5.4494.5614-6.8302-1.8301-.1068-.1851-.2005-.3741-.2813-.5661-1.5645.4168-3.2084.639-4.9042.639-2.9841 0-5.8075-.6879-8.3203-1.9139l3.7436-5.9897c1.4104.5823 2.956.9036 4.5767.9036 5.946 0 10.8819-4.3246 11.8341-10h7.0619c-.4627 4.4234-2.4432 8.3952-5.4114 11.3852z" fill="#fff" fill-rule="evenodd"/><path d="m54.896 34v1c.2833 0 .5533-.1202.743-.3307.1896-.2105.281-.4916.2516-.7734zm-5.4225-11.3965-.796-.6052c-.3021.3972-.265.9564.0869 1.3103zm-1.6394 11.3965-.9862.1654c.0808.4817.4977.8346.9862.8346zm-16.4108-9.0964-.848.53c.2587.414.7784.5806 1.2296.3943zm-3.7436-5.9897-.4385-.8988c-.2547.1243-.4447.3508-.5228.6232-.0781.2725-.0369.5652.1133.8056zm13.2072-1.2795-.2566.9665c.4818.1279.9842-.1186 1.178-.5779zm.2798-.5626-.866-.5zm6.8301-1.8301-.5.866zm1.8301 6.8301.8661.5zm-32.1736 18.8859.9655-.2603c-.1303-.4835-.5983-.7961-1.0949-.7313zm0-9.9154-.1294.9916c.4966.0648.9646-.2478 1.0949-.7313zm6.6362-10.0055.848-.53c-.1503-.2405-.3957-.4059-.6751-.4549s-.5665.0229-.7897.1978zm3.7434 5.9894.6642.7476c.3647-.324.4424-.8639.1838-1.2776zm0 17.9476.848.53c.2586-.4137.1809-.9536-.1838-1.2776zm-3.7434 5.9894-.6168.787c.2232.175.5103.2469.7897.1979s.5248-.2144.6751-.4549zm25.5563-1.0361.866-.5zm-.3612-.5419-.7097-.7045c-.352.3547-.3882.9148-.0847 1.3118zm-1.4689 7.372.5.8661zm-6.8302-1.8301-.866.5zm-.2813-.5661.9217-.3879c-.1936-.46-.6968-.7069-1.1791-.5784zm-13.2245-1.2749-.848-.53c-.1502.2404-.1914.5331-.1133.8056.0781.2724.2681.4989.5228.6232zm3.7436-5.9897.3816-.9244c-.4512-.1862-.9709-.0196-1.2296.3944zm16.4108-9.0964v-1c-.4885 0-.9054.3528-.9862.8345zm7.0619 0 .9946.104c.0294-.2817-.062-.5628-.2516-.7733-.1897-.2105-.4597-.3307-.743-.3307zm.9946-4.1041c-.4879-4.6638-2.5784-8.8499-5.708-11.9974l-1.4182 1.4101c2.819 2.8351 4.6983 6.6014 5.137 10.7954zm-8.0565 1.1041h7.0619v-2h-7.0619zm-11.8341-10c5.4495 0 9.9752 3.9637 10.8479 9.1654l1.9724-.3309c-1.0316-6.1491-6.3778-10.8345-12.8203-10.8345zm-4.1951.8279c1.2915-.5332 2.7076-.8279 4.1951-.8279v-2c-1.7539 0-3.4291.3479-4.9584.9793zm-4.9732-6.384 3.7436 5.9897 1.696-1.06-3.7436-5.9897zm9.1683-3.4439c-3.1393 0-6.1124.724-8.7588 2.0151l.8769 1.7975c2.3793-1.1608 5.053-1.8126 7.8819-1.8126zm5.1434.6678c-1.6423-.4358-3.3665-.6678-5.1434-.6678v2c1.6022 0 3.154.2091 4.6303.6009zm.6649 1.3552c.0643-.1526.139-.3033.2244-.4512l-1.732-1c-.127.22-.2387.445-.3352.674zm.2244-.4512c1.1046-1.9132 3.5509-2.5687 5.4641-1.4641l1-1.7321c-2.8697-1.6568-6.5393-.6736-8.1961 2.1962zm5.4641-1.4641c1.9132 1.1046 2.5687 3.5509 1.4641 5.4641l1.7321 1c1.6568-2.8698.6736-6.5393-2.1962-8.1962zm1.4641 5.4641c-.0868.1503-.1816.2925-.2834.4265l1.592 1.2105c.1528-.2009.2944-.4134.4235-.637zm-31.9609 20.4282c.2648 0 .5261-.0172.7827-.0507l-.2588-1.9832c-.171.0223-.3459.0339-.5239.0339zm-6-6c0 3.3137 2.6863 6 6 6v-2c-2.2091 0-4-1.7909-4-4zm6-6c-3.3137 0-6 2.6863-6 6h2c0-2.2091 1.7909-4 4-4zm.7827.0507c-.2566-.0335-.5179-.0507-.7827-.0507v2c.178 0 .3529.0116.5239.0339zm.8361 1.2519c1.0256-3.8046 3.2686-7.1126 6.2876-9.4787l-1.2337-1.5742c-3.3511 2.6264-5.8442 6.3005-6.9849 10.5323zm4.8227-9.7358 3.7434 5.9894 1.696-1.06-3.7434-5.9894zm3.9272 4.7119c-2.6786 2.3798-4.3687 5.8538-4.3687 9.7213h2c0-3.2722 1.4275-6.2098 3.6971-8.2262zm-4.3687 9.7213c0 3.8675 1.6901 7.3415 4.3687 9.7213l1.3284-1.4951c-2.2696-2.0164-3.6971-4.954-3.6971-8.2262zm4.1849 8.4438-3.7434 5.9894 1.696 1.06 3.7434-5.9894zm-2.2785 5.7323c-3.019-2.3661-5.262-5.6741-6.2876-9.4787l-1.931.5206c1.1407 4.2318 3.6338 7.9059 6.9849 10.5322zm25.8054-.749c-.1317-.2281-.2764-.4447-.4327-.6492l-1.5889 1.2146c.1042.1363.201.2812.2896.4346zm-2.1961 8.1962c2.8697-1.6569 3.853-5.3264 2.1961-8.1962l-1.732 1c1.1045 1.9132.449 4.3595-1.4641 5.4641zm-8.1962-2.1962c1.6569 2.8698 5.3264 3.853 8.1962 2.1962l-1-1.7321c-1.9132 1.1046-4.3596.4491-5.4641-1.4641zm-.337-.6782c.097.2304.2092.4569.337.6782l1.7321-1c-.0859-.1488-.161-.3004-.2257-.454zm.6643-1.3542c-1.4813.3947-3.0387.6053-4.6468.6053v2c1.7835 0 3.5139-.2337 5.1617-.6727zm-4.6468.6053c-2.8289 0-5.5026-.6519-7.8819-1.8126l-.8769 1.7975c2.6464 1.2911 5.6195 2.0151 8.7588 2.0151zm-7.4723-.3839 3.7436-5.9897-1.696-1.06-3.7436 5.9897zm2.5139-5.5954c1.5293.6314 3.2045.9793 4.9584.9793v-2c-1.4875 0-2.9036-.2947-4.1951-.828zm4.9584.9793c6.4425 0 11.7887-4.6854 12.8203-10.8346l-1.9724-.3309c-.8727 5.2018-5.3984 9.1655-10.8479 9.1655zm11.8341-10h7.0619v-2h-7.0619zm6.0673-1.1041c-.4382 4.1889-2.3133 7.9509-5.1265 10.7848l1.4194 1.409c3.1232-3.1461 5.209-7.3276 5.6963-11.9857z"/><path d="m36 64.0001c15.464 0 28-12.536 28-28s-12.536-28-28-28-28 12.536-28 28 12.536 28 28 28z" fill="none" stroke="#000" stroke-linejoin="round" stroke-width="2"/></svg>