<svg id="图层_1" data-name="图层 1" xmlns="http://www.w3.org/2000/svg" viewBox="0 0 181.41732 181.41732"><defs><style>.cls-1{fill:#00a0e9;}</style></defs><path class="cls-1" d="M27.20866,51.13539V71.11187A5.66518,5.66518,0,0,0,28.868,75.11775l59.18142,59.18142a5.66515,5.66515,0,0,0,4.00588,1.65929h19.97649a5.66517,5.66517,0,0,0,4.00588-9.671L36.87971,47.12951A5.66517,5.66517,0,0,0,27.20866,51.13539Z"/><path class="cls-1" d="M144.5335,47.13363,100.38383,91.2833a5.66758,5.66758,0,0,0,4.00758,9.67516h19.96966a5.66762,5.66762,0,0,0,4.00759-1.66l24.18-24.18a5.66762,5.66762,0,0,0,1.66-4.00759V51.14121A5.66758,5.66758,0,0,0,144.5335,47.13363Z"/></svg>