<svg width="135" height="40" viewBox="0 0 135 40" fill="none" xmlns="http://www.w3.org/2000/svg">
<path d="M52.6136 30.6713L45 13.3489H49.5613L54.7399 26.2668L53.8482 26.5297L59.3012 13.3489H63.7596L55.7345 30.6713H52.6136Z" fill="#212121"/>
<path d="M67.3258 30.6713V13.3489H71.5099V30.6713H67.3258ZM69.3836 9.66751C68.5376 9.66751 67.8746 9.47029 67.3944 9.07585C66.9372 8.6595 66.7085 8.0788 66.7085 7.33375C66.7085 6.63253 66.9486 6.07375 67.4287 5.6574C67.9089 5.21913 68.5605 5 69.3836 5C70.2295 5 70.8811 5.20818 71.3384 5.62453C71.8186 6.01896 72.0586 6.58871 72.0586 7.33375C72.0586 8.01306 71.8186 8.57185 71.3384 9.01011C70.8583 9.44838 70.2067 9.66751 69.3836 9.66751Z" fill="#212121"/>
<path d="M76.8597 30.6713V13.3489H80.9752L81.0438 18.871L80.4951 17.622C80.7466 16.7455 81.181 15.9566 81.7983 15.2554C82.4156 14.5542 83.1244 14.0063 83.9246 13.6119C84.7477 13.1955 85.5937 12.9874 86.4625 12.9874C86.8512 12.9874 87.217 13.0202 87.5599 13.086C87.9257 13.1517 88.223 13.2284 88.4516 13.3161L87.3542 17.7206C87.0798 17.5891 86.7597 17.4905 86.3939 17.4248C86.0509 17.3371 85.6965 17.2933 85.3307 17.2933C84.7363 17.2933 84.1761 17.4029 83.6502 17.622C83.1472 17.8192 82.7014 18.1041 82.3127 18.4766C81.9469 18.8491 81.6497 19.2874 81.421 19.7914C81.1924 20.2735 81.0781 20.8104 81.0781 21.402V30.6713H76.8597Z" fill="#212121"/>
<path d="M98.7553 31C96.949 31 95.3372 30.6165 93.9196 29.8496C92.5021 29.0607 91.3817 27.9869 90.5586 26.6283C89.7584 25.2697 89.3583 23.7248 89.3583 21.9937C89.3583 20.2625 89.7584 18.7177 90.5586 17.359C91.3817 16.0004 92.5021 14.9376 93.9196 14.1707C95.3372 13.3818 96.949 12.9874 98.7553 12.9874C100.539 12.9874 102.139 13.3818 103.557 14.1707C104.974 14.9376 106.083 16.0004 106.883 17.359C107.706 18.7177 108.118 20.2625 108.118 21.9937C108.118 23.7248 107.706 25.2697 106.883 26.6283C106.083 27.9869 104.974 29.0607 103.557 29.8496C102.139 30.6165 100.539 31 98.7553 31ZM98.7553 27.4172C99.7384 27.4172 100.619 27.1871 101.396 26.7269C102.173 26.2448 102.779 25.5984 103.214 24.7876C103.671 23.9549 103.888 23.0236 103.865 21.9937C103.888 20.9418 103.671 20.0105 103.214 19.1997C102.779 18.367 102.173 17.7206 101.396 17.2604C100.619 16.8003 99.7384 16.5702 98.7553 16.5702C97.7721 16.5702 96.8805 16.8112 96.0802 17.2933C95.3029 17.7535 94.697 18.3999 94.2626 19.2326C93.8281 20.0434 93.6109 20.9638 93.6109 21.9937C93.6109 23.0236 93.8281 23.9549 94.2626 24.7876C94.697 25.5984 95.3029 26.2448 96.0802 26.7269C96.8805 27.1871 97.7721 27.4172 98.7553 27.4172Z" fill="#212121"/>
<path d="M111.926 30.6713V6.34766H116.11V30.6713H111.926Z" fill="#212121"/>
<path d="M131.09 30.6713V19.5942C131.09 18.6519 130.759 17.9178 130.096 17.3919C129.456 16.8441 128.621 16.5702 127.592 16.5702C126.632 16.5702 125.763 16.7564 124.986 17.129C124.208 17.4796 123.488 18.0493 122.825 18.8382L120.219 16.3401C121.293 15.2444 122.482 14.4117 123.785 13.842C125.089 13.2722 126.495 12.9874 128.004 12.9874C129.444 12.9874 130.679 13.2065 131.708 13.6448C132.759 14.083 133.571 14.7404 134.143 15.6169C134.714 16.4716 135 17.5234 135 18.7724V30.6713H131.09ZM125.946 31C124.78 31 123.74 30.7809 122.825 30.3426C121.911 29.9043 121.179 29.3017 120.63 28.5348C120.104 27.7459 119.841 26.8255 119.841 25.7737C119.841 24.8534 120.013 24.0535 120.356 23.3742C120.699 22.673 121.202 22.0923 121.865 21.6321C122.551 21.1719 123.397 20.8323 124.403 20.6131C125.432 20.3721 126.609 20.2516 127.935 20.2516H133.114L132.805 23.1441H127.695C127.078 23.1441 126.529 23.1989 126.049 23.3085C125.569 23.418 125.157 23.5824 124.814 23.8015C124.471 24.0206 124.22 24.2836 124.06 24.5904C123.9 24.8753 123.82 25.2259 123.82 25.6422C123.82 26.0805 123.934 26.464 124.163 26.7927C124.391 27.0995 124.7 27.3405 125.089 27.5158C125.477 27.6911 125.935 27.7788 126.46 27.7788C127.215 27.7788 127.924 27.6582 128.587 27.4172C129.273 27.1761 129.879 26.8365 130.404 26.3982C130.93 25.96 131.342 25.4669 131.639 24.9191L132.496 27.1542C132.016 27.9212 131.422 28.5895 130.713 29.1593C130.027 29.729 129.273 30.1783 128.45 30.507C127.649 30.8357 126.815 31 125.946 31Z" fill="#212121"/>
<path d="M0 20C0 10.5719 0 5.85786 2.92893 2.92893C5.85786 0 10.5719 0 20 0C29.4281 0 34.1421 0 37.0711 2.92893C40 5.85786 40 10.5719 40 20C40 29.4281 40 34.1421 37.0711 37.0711C34.1421 40 29.4281 40 20 40C10.5719 40 5.85786 40 2.92893 37.0711C0 34.1421 0 29.4281 0 20Z" fill="url(#paint0_linear_2078_102)"/>
<path fill-rule="evenodd" clip-rule="evenodd" d="M8.69969 14.9465C7.78257 15.4761 7.46834 16.649 7.99784 17.5663C8.52734 18.4837 9.70006 18.7979 10.6172 18.2683L14.5422 16.0017C15.2926 15.5684 16.2521 15.8256 16.6853 16.5761C17.1185 17.3266 16.8614 18.2863 16.1111 18.7196L7.95906 23.4272C7.04194 23.9568 6.72771 25.1298 7.25722 26.0471C7.78672 26.9644 8.95943 27.2787 9.87655 26.7491L18.0286 22.0415C18.7789 21.6082 19.7384 21.8654 20.1717 22.6159C20.6049 23.3664 20.3478 24.3261 19.5974 24.7594L18.3897 25.4568C17.4726 25.9865 17.1584 27.1594 17.6879 28.0767C18.2174 28.994 19.3901 29.3083 20.3072 28.7787L27.5534 24.5942C31.8055 22.1388 33.2624 16.7005 30.8075 12.4475C28.4615 8.38336 23.3923 6.87224 19.2363 8.88875C19.1441 8.9243 19.0535 8.96746 18.9652 9.01844L8.69969 14.9465ZM12.5551 31.0407C12.0256 30.1234 12.3398 28.9505 13.257 28.4208L13.5589 28.2465C14.476 27.7169 15.6487 28.0312 16.1782 28.9485C16.7077 29.8658 16.3935 31.0388 15.4764 31.5684L15.1745 31.7427C14.2573 32.2723 13.0846 31.958 12.5551 31.0407ZM21.1754 19.8216C21.9258 19.3883 22.1829 18.4286 21.7497 17.6781C21.3164 16.9276 20.3569 16.6704 19.6066 17.1037C18.8562 17.5371 18.5991 18.4968 19.0323 19.2473C19.4656 19.9978 20.4251 20.255 21.1754 19.8216ZM25.3728 15.5859C25.806 16.3364 25.5489 17.2961 24.7985 17.7294C24.0482 18.1627 23.0887 17.9056 22.6555 17.155C22.2222 16.4045 22.4793 15.4448 23.2297 15.0115C23.9801 14.5782 24.9396 14.8353 25.3728 15.5859ZM28.4217 15.6372C29.172 15.2038 29.4291 14.2442 28.9959 13.4936C28.5627 12.7431 27.6032 12.4859 26.8528 12.9193C26.1024 13.3526 25.8453 14.3123 26.2786 15.0628C26.7118 15.8133 27.6713 16.0705 28.4217 15.6372Z" fill="white"/>
<defs>
<linearGradient id="paint0_linear_2078_102" x1="5.85786" y1="5.85788" x2="34.1421" y2="34.1421" gradientUnits="userSpaceOnUse">
<stop stop-color="#00A000"/>
<stop offset="1" stop-color="#007000"/>
</linearGradient>
</defs>
</svg>
