<svg xmlns="http://www.w3.org/2000/svg" viewBox="0 0 62.17 17.27" width="2500" height="694"><title>vivo-2</title><path d="M48.82 6.9c.57-.11 4.52 0 5.43 0a11.89 11.89 0 0 1 2.64.1c3.85 1 3.82 7-.35 7.75-.62.11-4.5 0-5.44 0a12.21 12.21 0 0 1-2.64-.11 4 4 0 0 1-2.62-5.23 3.76 3.76 0 0 1 3-2.52zm13.31 4.66a6.42 6.42 0 0 0-2.19-5.69 6.18 6.18 0 0 0-2.66-1.32 20.77 20.77 0 0 0-3.82-.13h-4a6 6 0 0 0-3.17.82 6.53 6.53 0 0 0-.9 10.51c2 1.71 3.94 1.46 6.47 1.46h4a6.21 6.21 0 0 0 6.27-5.65zM24.47 6.15a6.78 6.78 0 0 0 1 1.64l3.15 4.62c.58.91 1.38 2.22 2.06 3.09a3.94 3.94 0 0 0 3.42 1.76 4 4 0 0 0 3.13-2c.68-1 1.37-2 2.09-3.08L43 6.73a1.31 1.31 0 0 0-1.27-2.09 2.26 2.26 0 0 0-1.32 1.26L38.32 9c-.69 1-1.39 2.07-2.09 3.08-.36.52-.68 1-1 1.54s-.76 1.2-1.55 1a2.77 2.77 0 0 1-1.29-1.31l-1-1.54c-.7-1-1.37-2-2.1-3.08s-1.36-2-2.09-3.08a1.53 1.53 0 0 0-1.59-1 1.31 1.31 0 0 0-1.14 1.54zM0 6.12a6 6 0 0 0 1 1.64l4.19 6.16c1 1.56 2 3.42 4.43 3.34 2.2-.08 3.11-1.92 4.23-3.58L17 9.06c.33-.5.69-1 1.05-1.54a2.77 2.77 0 0 0 .8-1.78 1.31 1.31 0 0 0-1.52-1.11A2.12 2.12 0 0 0 16 5.87c-.73 1.07-1.38 2.01-2.1 3.13s-1.38 2-2.1 3c-.37.53-.68 1-1 1.54a1.65 1.65 0 0 1-1.52 1.06 2.55 2.55 0 0 1-1.32-1.31c-1.73-2.47-3.53-5.18-5.24-7.71a1.55 1.55 0 0 0-1.58-1A1.31 1.31 0 0 0 0 6.12zm21.4-1.48c-1.28.27-1.07 1.36-1.07 2.72V15a2.94 2.94 0 0 0 .23 1.69 1.31 1.31 0 0 0 2.33-.34c.12-.4.06-5 .06-5.67V6.85a3 3 0 0 0-.22-1.68 1.28 1.28 0 0 0-1.31-.55zM21.47 0a1.64 1.64 0 0 0-.47.47l-1 .94c-.6.59-.1.86.67 1.59l.47.47c.61.61.84.16 1.64-.64C23.9 1.76 23.86 2 22.13.27a.57.57 0 0 0-.66-.27z" fill="#0072b8" fill-rule="evenodd"/></svg>