<svg xmlns="http://www.w3.org/2000/svg" viewBox="-0.004051804542541504 -0.02500002086162567 36.80405044555664 9.725001335144043"><g xmlns="http://www.w3.org/2000/svg"><g><g><path d="M33.2,2.7H30c-3.3,0-3.6,2.7-3.6,3.5c0,0.8,0.3,3.5,3.6,3.5h3.2c3.3,0,3.6-2.7,3.6-3.5C36.7,5.3,36.4,2.7,33.2,2.7       M33.2,8.1H30c-1.8,0-1.9-1.5-1.9-1.9c0-0.4,0.2-1.9,1.9-1.9h3.2c1.8,0,1.9,1.5,1.9,1.9C35.1,6.6,34.9,8.1,33.2,8.1"/><path d="M25.8,2.8h-1c-0.4,0-0.5,0.1-0.7,0.3C23.9,3.4,21,7.9,21,7.9c-0.1,0.1-0.2,0.2-0.3,0.2c-0.1,0-0.2-0.1-0.3-0.2      c0,0-2.9-4.5-3.1-4.7c-0.2-0.3-0.3-0.3-0.7-0.3h-1c-0.2,0-0.3,0.2-0.2,0.4c0.1,0.2,3.5,5.3,3.5,5.3c0.5,0.8,0.9,1.1,1.8,1.1      c0.9,0,1.3-0.3,1.8-1.1c0,0,3.3-5.1,3.5-5.3C26.1,3,26,2.8,25.8,2.8"/><path d="M12.2,3.3c0-0.3,0.1-0.4,0.4-0.4h0.8c0.3,0,0.4,0.1,0.4,0.4v6c0,0.3-0.1,0.4-0.4,0.4h-0.8c-0.3,0-0.4-0.1-0.4-0.4V3.3z"/><path d="M12.1,1.4c-0.3-0.3-0.3-0.5,0-0.7l0.5-0.5c0.3-0.3,0.5-0.3,0.7,0l0.5,0.5c0.3,0.3,0.3,0.5,0,0.7L13.4,2      c-0.3,0.3-0.5,0.3-0.7,0L12.1,1.4z"/><path d="M10.5,2.8h-1C9.1,2.8,9,2.9,8.8,3.1C8.6,3.4,5.7,7.9,5.7,7.9C5.6,8,5.5,8.1,5.4,8.1C5.3,8.1,5.2,8,5.1,7.9      c0,0-2.9-4.5-3.1-4.7C1.8,2.9,1.7,2.8,1.3,2.8h-1C0,2.8-0.1,3,0.1,3.2c0.1,0.2,3.5,5.3,3.5,5.3c0.5,0.8,0.9,1.1,1.8,1.1      c0.9,0,1.3-0.3,1.8-1.1c0,0,3.3-5.1,3.5-5.3C10.9,3,10.8,2.8,10.5,2.8"/></g></g></g></svg>