<svg xmlns="http://www.w3.org/2000/svg" viewBox="0 0 39.29 39.14" width="2500" height="2490"><title>vivo</title><path fill="#0072b8" fill-rule="evenodd" d="M0 0h39.29v39.14H0V0z"/><path d="M29.44 18.61c.32-.06 2.5 0 3 0a6.64 6.64 0 0 1 1.46.07 2.21 2.21 0 0 1-.19 4.28c-.34.06-2.48 0-3 0a6.76 6.76 0 0 1-1.46-.06 2.22 2.22 0 0 1-1.46-2.9 2.08 2.08 0 0 1 1.64-1.39zm7.35 2.57A3.55 3.55 0 0 0 35.58 18a3.39 3.39 0 0 0-1.47-.73 11.27 11.27 0 0 0-2.11-.03h-2.2a3.3 3.3 0 0 0-1.75.45 3.61 3.61 0 0 0-.5 5.8c1.1.94 2.17.81 3.57.81h2.2a3.43 3.43 0 0 0 3.46-3.12zM16 18.2a3.76 3.76 0 0 0 .54.9l1.72 2.56c.34.5.81 1.22 1.16 1.7a2.17 2.17 0 0 0 1.89 1A2.18 2.18 0 0 0 23 23.21l1.16-1.7 2-3a.73.73 0 0 0-.7-1.16 1.26 1.26 0 0 0-.73.7l-1.15 1.7c-.39.56-.77 1.14-1.16 1.7l-.58.85a.88.88 0 0 1-.86.56 1.53 1.53 0 0 1-.71-.72l-.51-.84-1.16-1.7-1.16-1.7a.84.84 0 0 0-.87-.54.72.72 0 0 0-.57.84zm-13.51 0a3.22 3.22 0 0 0 .51.89l2.31 3.4c.57.86 1.13 1.89 2.45 1.84s1.71-1.06 2.33-2l1.74-2.55.59-.78a1.53 1.53 0 0 0 .45-1 .72.72 0 0 0-.87-.64 1.18 1.18 0 0 0-.7.64c-.39.59-.75 1.11-1.16 1.7S9.39 20.88 9 21.45c-.2.29-.38.56-.58.85a.92.92 0 0 1-.84.59 1.41 1.41 0 0 1-.73-.72c-1-1.36-2-2.86-2.89-4.26a.86.86 0 0 0-.87-.55.72.72 0 0 0-.59.82zm11.81-.83c-.71.15-.6.75-.6 1.5v4.23a1.62 1.62 0 0 0 .12.93.72.72 0 0 0 1.29-.19c.07-.22 0-2.78 0-3.13V18.6a1.64 1.64 0 0 0-.11-.93.7.7 0 0 0-.72-.3zm0-2.54a1 1 0 0 0-.3.23l-.52.52c-.34.34-.06.47.36.9l.31.26c.34.34.46.09.91-.36.62-.61.6-.48-.36-1.44a.32.32 0 0 0-.37-.13z" fill="#fff" fill-rule="evenodd"/></svg>