<svg enable-background="new 0 0 1024 1024" viewBox="0 0 1024 1024" xmlns="http://www.w3.org/2000/svg"><circle cx="512" cy="512" fill="#3f6184" r="512"/><g fill="#fff"><path d="m435 404.2c6.3-3.8 40-21.8 94.3.7 55.9 23.1 90.6 3 94.9.3-13.5-22.2-29.6-41.6-47.4-54.6 1.2-.3 2.4-.7 3.7-1 23.6-6.8 29.6-26.8 30.8-43.9 1.4-19.4 2.4-19.7 6.6-37.1 4-16.8-.5-20.1-4.6-16.7-2.2 1.8-21.7 6.3-33.3 15.3-18.7 14.6-30.2 42.3-35.4 57.6-.1.2-.8 2.4-1 3.1-2.4 5.9-7.3 5.8-7.3 5.8-2.3-.3-4.7-.4-7.1-.4-2.1 0-4.2.1-6.3.3h-.1c-6.2.9-9.6-6.6-10.3-8.4-7.2-20.8-26.7-61.7-70.4-72.7 0 0-7.9-6.1-5.5 4.2 2.3 9.8 7.1 19.8 6 34.2-.5 6.7-4.6 40.9 26.8 58.7 3 1.7 5.6 3.1 8 4.3-15.7 12.6-30.1 30.3-42.4 50.3z"/><path d="m641.4 717c-38.5-23.9-51.5-32.3-50.7-41.4 0 0 0-1.5.4-3.8.9-4.8 3.9-13.1 13.3-17.8.3-.2.6-.3.8-.5 30-17.4 51.9-45.5 59.7-80.5-7.8 19.3-65.5 34.4-135.6 34.4s-127.8-15-135.6-34.4c1.7 7.9 4.2 15.4 7.3 22.5 2.6 14.7 6.1 49.2-10.5 79.4-14.6 26.6-86.7 62.9-193.7 42.1 0 0-4.3-3-5.6-.5-1.9 3.6 5.9 6.6 14 8.7 74.5 19.7 186.9 11.7 222.2-17.4 16.1-13.3 22.3-31.1 23.9-50.4s.4-5 6.7-1.3c1.8 1.1 8.3 5.3 9.4 10.1.9 6.8 1 15.2-2.6 21.1-5 8.4-5.1 9.6 1.5 14.3 4.1 2.9 20.7 15.1 43.8 29 .1 0 .1.1.2.1 4.9 2.9 11.7 10.2 11.7 10.2 10.4 12.1 33.1 36.3 42.9 31.7 4.7-2.1-.2-11.9-.2-11.9s7.8 10.1 11.9 6.6c3.2-2.6-1.9-12.6-1.9-12.6s6.8 5.9 10.8 3.7c4.9-2.7-.7-18.1-39.4-41.6-38.7-23.6-49.2-27.2-50.2-37.7 0 0 0-.5 0-1.4.3-2.3 1.6-7.2 7.2-6.7 8.4 1.4 17 2.1 25.9 2.1 10.1 0 20-.9 29.5-2.7s.5-.1.6-.1c1.1-.1 3.3-.1 3.3 2.6-.4 3.4-1.3 6.9-3.3 9.9-5.7 8.5-3.8 9.7 2.1 15.1 3.7 3.4 20.4 18.1 43.3 32.4 0 0 .1.1.1.1 4.9 2.9 13.3 11 13.3 11 9.5 9.6 27 25.8 36.5 24.8 6.4-.7 1.2-11.8 1.2-11.8s8.1 7.9 12.1 5.5c4.5-2.6-1.9-10.8-1.9-10.8s5.2 2.8 8.9 1.9c4.3-.7 5.3-10.1-33.3-34z"/><path d="m598.4 447.3c-4.6 0-8.5 1.4-11.4 4.1-3 2.8-4.5 6-4.5 9.5v62.8c0 8.4-1.5 14.6-4.4 18.5-2.9 3.7-7.4 5.5-13.9 5.5-6.7 0-11.2-1.8-13.9-5.5-2.8-3.8-4.2-10.1-4.2-18.5v-63.1c0-4.3-2-7.8-5.7-10.2-5-3.2-10.1-4.3-16.2-2.3-1.9.6-3.6 1.4-5.2 2.4-1.7 1-3.1 2.3-4.3 3.9-1.3 1.7-1.9 3.5-1.9 5.5v63.8c0 8.4-1.4 14.7-4.2 18.5-2.7 3.7-7.2 5.5-13.9 5.5s-11.3-1.8-14-5.5c-2.9-3.8-4.3-10.1-4.3-18.5v-62.7c0-3.6-1.5-6.8-4.5-9.5-2.9-2.7-6.9-4.1-11.6-4.1-4.9 0-9 1.4-12.1 4.1-3.2 2.8-4.8 6-4.8 9.6v61.9c0 7.8.8 15.1 2.3 21.9 1.5 6.9 4.2 12.9 8 17.9 3.8 5.1 8.9 9.1 15.3 11.9 6.3 2.8 14.2 4.2 23.4 4.2 9.6 0 17.7-1.8 23.9-5.3 5.3-3 9.7-6.8 13.2-11.6 3.4 4.7 7.7 8.6 12.9 11.5 6.2 3.5 14.4 5.3 24.3 5.3 9.2 0 17.1-1.4 23.3-4.2 6.3-2.8 11.4-6.9 15.2-11.9s6.4-11.1 8-17.9c1.5-6.7 2.3-14.1 2.3-21.9v-61.9c0-3.6-1.6-6.8-4.6-9.6-3.3-2.7-7.4-4.1-12.5-4.1z"/></g></svg>