<?xml version="1.0" encoding="UTF-8"?>
<svg width="1192" height="1192" version="1.1" viewBox="0 0 1192 1192" xmlns="http://www.w3.org/2000/svg">
 <circle cx="596" cy="596" r="566" fill="#ff69b4" stroke="#333" stroke-width="60px" style="paint-order:fill"/>
 <path d="m138.19 962.23q-15.381-8.8e-4 -10.146-22.122 5.0072-21.159 28.127-53.858l228.19-267.36q105.18-123.1 160.59-201.96 55.407-78.863 63.146-111.56 3.6416-15.388-4.7918-23.083-8.4334-7.6947-21.423-10.581-12.989-2.8861-24.953-2.8868-72.634-4e-3 -226.19 100.01-43.345 27.889-82.301 62.511t-74.778 74.053q-69.934 78.862-82.68 132.72-9.7869 41.356 22.345 50.014 11.907 3.8478 28.143 3.8487 30.763 2e-3 65.622-17.308 34.859-17.31 70.286-44.238 27.225-21.158 30.643-21.157 3.4181 2e-4 0.97032 6.7325-9.9067 20.197-33.885 38.469-23.978 18.272-54.851 33.178-30.872 14.906-60.579 23.079-29.706 8.1734-51.069 8.1722-34.181-2e-3 -55.15-19.72-20.97-19.718-11.866-58.188 13.884-58.668 94.811-144.26 77.681-82.708 178.38-147.14 41.408-26.927 94.21-51.45 52.802-24.522 104.41-40.389 51.608-15.866 89.207-15.864 67.507 4e-3 55.672 50.016-14.339 60.591-130.57 208.7-81.378 101.94-208.6 242.36-105.3 116.37-106.16 116.37 2.5636 1.5e-4 105.48-99.057 63.274-61.55 117.92-110.12 54.647-48.567 100.04-85.112 22.269-18.273 54.391-45.681 32.122-27.409 74.952-63.954 37.191-30.775 71.735-55.779 34.544-25.004 58.47-25.003 24.781 1e-3 29.285 13.467-104.56 109.64-210.48 268.32-75.564 113.49-89.448 172.15-8.1936 34.624 4.4006 50.013t39.084 15.391q29.054 2e-3 65.422-18.27 36.369-18.272 74.814-47.123 38.445-28.851 73.3-60.588 124.67-111.56 213.5-241.39 69.415-101.94 83.754-162.54 1.3657-5.7706 2.0764-10.579 0.7108-4.8088 0.7666-8.656-17.945-1e-3 -33.446-21.161-10.086-11.542-7.1276-24.045 2.7311-11.541 13.097-19.235t21.475-7.693q16.236 9.3e-4 20.057 16.351 1.5972 7.6943 9.1202 19.236 5.0153 7.6945 3.2504 11.542 3.0786 8.6562 15.042 8.6569 11.963 6.9e-4 25.376-11.54t26.23-11.54q6.8361 3.9e-4 5.4705 5.771-2.5036 10.579-21.015 20.196-10.138 6.7319-22.557 8.6547-7.0637 0.96137-14.014 1.4419-6.9499 0.48049-13.331-1.4434 1.1501 38.471-3.1743 56.745-18.208 76.941-112.06 199.08-47.038 61.551-101.88 116.37-54.845 54.818-118.35 102.9-126.61 98.094-206.94 98.09-88.015-5e-3 -66.165-92.335 10.242-43.279 39.565-98.58t64.514-110.12l97.258-150.99q-45.337 32.698-73.73 53.374-28.393 20.677-47.615 35.102-19.223 14.426-36.85 29.332-17.627 14.907-42.288 36.064-27.053 24.043-73.526 68.763-46.473 44.72-110.03 111.08l-131.44 136.57q-11.276 11.541-24.661 21.158-13.385 9.617-24.493 9.6164z" fill="#333" stroke-width="8.4726" style="white-space:pre"/>
</svg>
