<svg xmlns="http://www.w3.org/2000/svg" viewBox="0 0 898.96 898.96"><defs><style>.cls-1{fill:#636;stroke:#636;stroke-width:34.45px;}.cls-1,.cls-2{stroke-linecap:round;stroke-linejoin:round;}.cls-2{fill:none;stroke:#fce187;stroke-width:30px;}</style></defs><g id="LOGO_2" data-name="LOGO 2"><circle class="cls-1" cx="449.48" cy="449.48" r="432.22"/><path class="cls-2" d="M547.61,539.06V385.54a98.14,98.14,0,0,0-98.19-98.19h.13a98.14,98.14,0,0,0-98.2,98.19V539.06"/><path class="cls-2" d="M629.79,617V389.84A180.28,180.28,0,0,0,449.41,209.46h.14A180.27,180.27,0,0,0,269.18,389.84V617"/><path class="cls-2" d="M710.17,688.64V398.52c0-144.13-116.63-260.76-260.76-260.76h.14c-144.13,0-260.75,116.63-260.75,260.76V688.64"/><line class="cls-2" x1="449.48" y1="390.81" x2="449.48" y2="731.2"/></g></svg>