<?xml version="1.0" encoding="UTF-8" standalone="no"?>
<svg xmlns="http://www.w3.org/2000/svg" height="150" width="170">
  <path d="M170 20.7c-33 13.7-49 6-63.2-3.6L90.8 73.5c14.3 9.7 31.5 17.7 63.2 3.5l16.3-56.3z" fill="#91c300"/>
  <path d="M63 134.2c-14.3-9.6-30-17.6-63-3.9l16.2-56.6c33-13.6 49-5.9 63.3 3.8L63 134.2z" fill="#00b4f1"/>
  <path d="M82.2 67.3a53.9 53.9 0 0 0-31-11.3c-8.7-.1-19.1 2.4-32.2 7.8L35.2 7.4c33.1-13.7 49-6 63.3 3.7L82.2 67.3z" fill="#f8682c"/>
  <path d="M88 83c14.4 9.6 30.3 17.3 63.3 3.6L135 142.8c-33 13.7-48.9 6-63.2-3.7L88.1 83z" fill="#ffc300"/>
</svg>
