<?xml version="1.0" encoding="utf-8"?>
<svg viewBox="9.449 8.932 132.742 34.405" width="130px" height="34.5px" xmlns="http://www.w3.org/2000/svg">
  <mask id="i08j30ef6a" fill="#fff">
    <path d="M 32.284 17.414 C 32.284 20.379 31.176 23.221 29.199 25.317 C 27.224 27.413 24.546 28.59 21.753 28.59 C 18.96 28.59 16.282 27.413 14.307 25.317 C 12.331 23.221 11.222 20.379 11.222 17.414 L 32.284 17.414 Z"/>
  </mask>
  <mask id="1f1ltfoetb" fill="#fff">
    <path d="M 58.302 17.414 C 58.302 20.379 57.193 23.221 55.217 25.317 C 53.243 27.413 50.564 28.59 47.771 28.59 C 44.978 28.59 42.299 27.413 40.325 25.317 C 38.349 23.221 37.24 20.379 37.24 17.414 L 58.302 17.414 Z"/>
  </mask>
  <path fill="#FFCB00" stroke="#000" stroke-linejoin="round" stroke-width="1.5" d="M 34.762 42.559 C 32.904 36.97 30.427 37.669 23.612 32.779 L 45.294 32.779 C 39.363 37.148 36.002 36.97 34.762 42.559 Z" style=""/>
  <path fill="#FFCB00" stroke="#000" stroke-width="1.5" d="M 51.29 22.941 C 51.29 26.358 49.494 29.569 46.372 31.971 C 43.257 34.371 38.902 35.889 34.044 35.889 C 29.186 35.889 24.83 34.371 21.715 31.971 C 18.594 29.569 16.796 26.358 16.796 22.941 C 16.796 19.523 18.594 16.313 21.715 13.91 C 24.83 11.511 29.185 9.992 34.041 9.992 C 38.902 9.992 43.257 11.511 46.372 13.91 C 49.492 16.313 51.292 19.523 51.292 22.941 Z" style=""/>
  <path fill="#B3D4FF" stroke="#000" stroke-width="3" d="M 32.284 17.414 C 32.284 20.379 31.175 23.22 29.2 25.317 C 27.225 27.413 24.545 28.59 21.753 28.59 C 18.961 28.59 16.283 27.413 14.307 25.317 C 12.331 23.22 11.222 20.379 11.222 17.414 L 32.284 17.414 Z" mask="url(#i08j30ef6a)" style=""/>
  <path fill="#B3D4FF" stroke="#000" stroke-width="3" d="M 58.302 17.414 C 58.302 20.379 57.193 23.22 55.217 25.317 C 53.243 27.413 50.564 28.59 47.772 28.59 C 44.979 28.59 42.3 27.413 40.326 25.317 C 38.35 23.22 37.24 20.379 37.24 17.414 L 58.302 17.414 Z" mask="url(#1f1ltfoetb)" style=""/>
  <path stroke="#000" stroke-width="1.5" d="M 31.045 18.987 C 33.523 16.89 36.002 16.89 38.479 18.987" style=""/>
  <path fill="#FFCB00" d="M 34.993 40.812 C 33.136 35.224 22.373 32.779 24.231 31.383 C 26.089 29.986 44.055 29.289 45.294 30.685 C 46.534 32.082 36.797 34.632 34.993 40.812 Z" style=""/>
  <path fill="#000" d="M 68.909 21.149 C 68.649 22.121 68.367 23.086 68.067 24.045 C 67.779 25.005 67.472 25.97 67.146 26.941 L 64.874 26.941 C 64.637 26.405 64.383 25.766 64.108 25.024 C 63.834 24.281 63.548 23.476 63.246 22.607 C 62.959 21.724 62.659 20.797 62.345 19.825 C 62.044 18.841 61.751 17.85 61.463 16.851 L 64.539 16.851 C 64.644 17.312 64.755 17.818 64.873 18.366 C 65.004 18.904 65.135 19.461 65.265 20.036 C 65.409 20.612 65.552 21.194 65.696 21.782 C 65.853 22.357 66.01 22.914 66.166 23.451 C 66.336 22.888 66.499 22.313 66.656 21.724 C 66.826 21.136 66.983 20.56 67.126 19.997 C 67.282 19.422 67.428 18.873 67.557 18.349 C 67.701 17.811 67.825 17.312 67.929 16.851 L 70.046 16.851 C 70.15 17.312 70.268 17.811 70.398 18.348 L 70.811 19.997 C 70.954 20.561 71.103 21.136 71.26 21.724 C 71.417 22.313 71.581 22.888 71.75 23.451 C 71.907 22.914 72.063 22.357 72.221 21.782 C 72.377 21.194 72.521 20.612 72.651 20.036 C 72.795 19.461 72.926 18.904 73.043 18.367 C 73.174 17.818 73.293 17.312 73.396 16.851 L 76.433 16.851 C 76.145 17.85 75.846 18.84 75.532 19.825 C 75.231 20.797 74.931 21.724 74.63 22.607 C 74.344 23.476 74.056 24.282 73.769 25.024 C 73.494 25.766 73.239 26.406 73.005 26.942 L 70.731 26.942 C 70.405 25.97 70.085 25.005 69.771 24.046 C 69.458 23.086 69.17 22.121 68.909 21.15 Z M 80.924 26.942 L 78.004 26.942 L 78.004 16.851 L 80.924 16.851 L 80.924 26.942 Z M 81.198 13.937 C 81.198 14.46 81.022 14.875 80.668 15.183 C 80.329 15.476 79.925 15.624 79.455 15.624 C 78.984 15.624 78.572 15.476 78.22 15.183 C 77.88 14.875 77.71 14.46 77.71 13.936 C 77.71 13.411 77.88 13.002 78.22 12.708 C 78.572 12.401 78.984 12.248 79.454 12.248 C 79.925 12.248 80.33 12.401 80.668 12.708 C 81.022 13.002 81.198 13.411 81.198 13.936 Z M 86.627 24.889 C 87.163 24.889 87.542 24.838 87.763 24.736 C 87.986 24.634 88.096 24.436 88.096 24.141 C 88.096 23.911 87.953 23.713 87.665 23.547 C 87.379 23.367 86.941 23.169 86.353 22.951 C 85.895 22.786 85.477 22.612 85.098 22.434 C 84.732 22.255 84.419 22.044 84.159 21.801 C 83.896 21.546 83.694 21.245 83.551 20.899 C 83.407 20.554 83.335 20.138 83.335 19.652 C 83.335 18.706 83.694 17.958 84.413 17.408 C 85.132 16.858 86.117 16.582 87.372 16.582 C 87.999 16.582 88.6 16.639 89.174 16.756 C 89.749 16.858 90.206 16.974 90.546 17.101 L 90.036 19.326 C 89.696 19.212 89.325 19.109 88.919 19.019 C 88.528 18.93 88.085 18.885 87.587 18.885 C 86.673 18.885 86.215 19.134 86.215 19.633 C 86.215 19.749 86.234 19.851 86.274 19.94 C 86.314 20.029 86.392 20.12 86.509 20.208 C 86.627 20.285 86.784 20.375 86.979 20.477 C 87.189 20.567 87.45 20.67 87.764 20.783 C 88.404 21.015 88.933 21.245 89.35 21.475 C 89.768 21.692 90.095 21.935 90.331 22.204 C 90.578 22.459 90.749 22.747 90.84 23.067 C 90.943 23.387 90.997 23.758 90.997 24.179 C 90.997 25.177 90.611 25.932 89.841 26.443 C 89.083 26.955 88.006 27.21 86.607 27.21 C 85.693 27.21 84.928 27.134 84.315 26.98 C 83.714 26.827 83.296 26.699 83.061 26.596 L 83.551 24.275 C 84.047 24.467 84.556 24.621 85.079 24.736 C 85.602 24.838 86.118 24.889 86.627 24.889 Z M 92.689 21.973 C 92.689 21.078 92.826 20.298 93.099 19.633 C 93.387 18.955 93.76 18.393 94.216 17.945 C 94.674 17.497 95.196 17.16 95.785 16.928 C 96.385 16.698 96.999 16.582 97.626 16.582 C 99.089 16.582 100.245 17.024 101.095 17.906 C 101.943 18.777 102.367 20.062 102.367 21.762 C 102.367 21.929 102.362 22.115 102.349 22.319 C 102.336 22.51 102.322 22.684 102.309 22.837 L 95.687 22.837 C 95.751 23.425 96.033 23.893 96.529 24.238 C 97.025 24.583 97.691 24.755 98.528 24.755 C 99.064 24.755 99.586 24.71 100.094 24.621 C 100.618 24.519 101.042 24.397 101.369 24.257 L 101.76 26.578 C 101.603 26.653 101.394 26.731 101.133 26.807 C 100.872 26.885 100.578 26.949 100.252 27 C 99.938 27.064 99.599 27.115 99.232 27.153 C 98.867 27.191 98.501 27.21 98.135 27.21 C 97.208 27.21 96.398 27.076 95.706 26.807 C 95.026 26.539 94.459 26.174 94.002 25.715 C 93.557 25.242 93.225 24.685 93.001 24.046 C 92.792 23.406 92.689 22.715 92.689 21.972 Z M 99.546 20.881 C 99.532 20.637 99.487 20.401 99.408 20.171 C 99.343 19.94 99.232 19.735 99.075 19.556 C 98.931 19.378 98.742 19.23 98.507 19.115 C 98.285 19.001 98.004 18.943 97.665 18.943 C 97.338 18.943 97.057 19 96.822 19.115 C 96.587 19.218 96.391 19.358 96.234 19.538 C 96.077 19.717 95.953 19.927 95.862 20.171 C 95.785 20.401 95.724 20.637 95.685 20.881 L 99.546 20.881 Z M 68.302 33.58 C 68.302 32.659 68.178 32.007 67.929 31.623 C 67.695 31.239 67.282 31.048 66.695 31.048 C 66.513 31.048 66.322 31.059 66.127 31.086 C 65.931 31.099 65.742 31.117 65.558 31.143 L 65.558 38.931 L 62.639 38.931 L 62.639 29.186 C 62.887 29.122 63.175 29.059 63.501 28.995 C 63.841 28.919 64.194 28.854 64.56 28.803 C 64.939 28.739 65.323 28.694 65.715 28.669 C 66.108 28.631 66.492 28.611 66.871 28.611 C 67.616 28.611 68.217 28.707 68.674 28.899 C 69.144 29.078 69.529 29.295 69.83 29.551 C 70.248 29.258 70.725 29.026 71.26 28.86 C 71.809 28.694 72.313 28.611 72.768 28.611 C 73.592 28.611 74.264 28.727 74.788 28.956 C 75.324 29.174 75.748 29.487 76.061 29.897 C 76.374 30.305 76.589 30.791 76.708 31.354 C 76.825 31.916 76.884 32.543 76.884 33.234 L 76.884 38.931 L 73.964 38.931 L 73.964 33.58 C 73.964 32.659 73.84 32.007 73.592 31.623 C 73.357 31.239 72.945 31.048 72.358 31.048 C 72.201 31.048 71.979 31.086 71.692 31.162 C 71.417 31.239 71.189 31.335 71.005 31.45 C 71.097 31.745 71.156 32.058 71.182 32.39 C 71.208 32.71 71.221 33.055 71.221 33.426 L 71.221 38.931 L 68.302 38.931 L 68.302 33.58 Z M 83.474 36.936 C 83.761 36.936 84.035 36.93 84.296 36.917 C 84.558 36.905 84.766 36.885 84.923 36.861 L 84.923 34.693 C 84.807 34.666 84.63 34.641 84.394 34.615 C 84.16 34.59 83.944 34.577 83.748 34.577 C 83.474 34.577 83.212 34.597 82.964 34.634 C 82.729 34.659 82.52 34.717 82.336 34.808 C 82.155 34.896 82.01 35.019 81.905 35.172 C 81.802 35.325 81.749 35.517 81.749 35.747 C 81.749 36.195 81.9 36.508 82.2 36.687 C 82.513 36.853 82.938 36.936 83.474 36.936 Z M 83.238 28.573 C 84.101 28.573 84.818 28.669 85.394 28.86 C 85.969 29.052 86.425 29.328 86.766 29.686 C 87.119 30.043 87.367 30.478 87.51 30.99 C 87.654 31.501 87.726 32.071 87.726 32.697 L 87.726 38.643 C 87.307 38.734 86.726 38.836 85.981 38.951 C 85.238 39.078 84.335 39.143 83.278 39.143 C 82.611 39.143 82.004 39.086 81.455 38.969 C 80.92 38.854 80.456 38.669 80.064 38.414 C 79.673 38.145 79.372 37.799 79.162 37.377 C 78.954 36.956 78.849 36.437 78.849 35.824 C 78.849 35.235 78.967 34.737 79.202 34.329 C 79.45 33.918 79.776 33.592 80.182 33.35 C 80.587 33.106 81.05 32.934 81.573 32.83 C 82.095 32.717 82.638 32.659 83.199 32.659 C 83.577 32.659 83.911 32.677 84.199 32.716 C 84.499 32.742 84.741 32.779 84.923 32.83 L 84.923 32.563 C 84.923 32.076 84.773 31.687 84.473 31.393 C 84.172 31.099 83.65 30.951 82.905 30.951 C 82.41 30.951 81.919 30.989 81.436 31.066 C 80.952 31.13 80.535 31.226 80.181 31.354 L 79.809 29.052 C 79.979 29.001 80.188 28.95 80.437 28.899 C 80.698 28.835 80.979 28.784 81.278 28.745 C 81.58 28.694 81.893 28.655 82.221 28.63 C 82.559 28.592 82.899 28.574 83.238 28.574 Z M 96.969 33.963 C 96.969 33.081 96.766 32.378 96.361 31.852 C 95.956 31.316 95.356 31.048 94.559 31.048 C 94.297 31.048 94.056 31.059 93.834 31.086 C 93.611 31.099 93.428 31.117 93.285 31.143 L 93.285 36.304 C 93.468 36.419 93.702 36.515 93.991 36.591 C 94.291 36.668 94.591 36.706 94.892 36.706 C 96.276 36.706 96.969 35.791 96.969 33.963 Z M 99.947 33.886 C 99.947 34.666 99.85 35.376 99.653 36.016 C 99.457 36.655 99.171 37.205 98.792 37.665 C 98.413 38.126 97.941 38.483 97.381 38.74 C 96.818 38.995 96.171 39.123 95.441 39.123 C 95.035 39.123 94.656 39.086 94.304 39.009 C 93.951 38.931 93.611 38.823 93.285 38.682 L 93.285 42.48 L 90.365 42.48 L 90.365 29.186 C 90.627 29.11 90.928 29.04 91.267 28.975 C 91.607 28.899 91.96 28.835 92.326 28.784 C 92.704 28.733 93.083 28.694 93.462 28.669 C 93.853 28.631 94.225 28.611 94.578 28.611 C 95.427 28.611 96.185 28.739 96.851 28.995 C 97.517 29.237 98.079 29.589 98.536 30.05 C 98.994 30.498 99.34 31.048 99.575 31.699 C 99.822 32.352 99.947 33.081 99.947 33.886 Z M 108.794 33.963 C 108.794 33.081 108.592 32.378 108.187 31.852 C 107.782 31.316 107.181 31.048 106.384 31.048 C 106.122 31.048 105.881 31.059 105.659 31.086 C 105.437 31.099 105.255 31.117 105.11 31.143 L 105.11 36.304 C 105.293 36.419 105.528 36.515 105.816 36.591 C 106.117 36.668 106.417 36.706 106.716 36.706 C 108.102 36.706 108.795 35.791 108.795 33.963 Z M 111.772 33.886 C 111.772 34.666 111.674 35.376 111.479 36.016 C 111.283 36.655 110.995 37.205 110.616 37.665 C 110.238 38.126 109.768 38.483 109.205 38.74 C 108.645 38.995 107.998 39.123 107.265 39.123 C 106.861 39.123 106.482 39.086 106.129 39.009 C 105.777 38.931 105.437 38.823 105.109 38.682 L 105.109 42.48 L 102.19 42.48 L 102.19 29.186 C 102.452 29.11 102.752 29.04 103.092 28.975 C 103.431 28.899 103.784 28.835 104.15 28.784 C 104.529 28.733 104.908 28.694 105.287 28.669 C 105.679 28.631 106.051 28.611 106.403 28.611 C 107.252 28.611 108.01 28.739 108.676 28.995 C 109.343 29.237 109.904 29.589 110.362 30.05 C 110.818 30.498 111.165 31.048 111.401 31.699 C 111.649 32.352 111.772 33.081 111.772 33.886 Z M 116.936 38.931 L 114.016 38.931 L 114.016 28.841 L 116.935 28.841 L 116.935 38.931 Z M 117.21 25.926 C 117.21 26.45 117.034 26.865 116.681 27.173 C 116.342 27.466 115.936 27.613 115.467 27.613 C 114.997 27.613 114.585 27.466 114.232 27.173 C 113.891 26.865 113.722 26.45 113.722 25.926 C 113.722 25.402 113.892 24.991 114.232 24.698 C 114.585 24.39 114.997 24.237 115.467 24.237 C 115.936 24.237 116.342 24.39 116.68 24.698 C 117.034 24.991 117.21 25.402 117.21 25.926 Z M 119.68 29.186 C 120.175 29.046 120.816 28.918 121.6 28.803 C 122.384 28.675 123.207 28.611 124.07 28.611 C 124.945 28.611 125.669 28.727 126.244 28.956 C 126.832 29.174 127.296 29.487 127.635 29.897 C 127.974 30.305 128.218 30.791 128.36 31.354 C 128.504 31.916 128.576 32.543 128.576 33.234 L 128.576 38.931 L 125.656 38.931 L 125.656 33.58 C 125.656 32.659 125.533 32.007 125.284 31.623 C 125.036 31.239 124.573 31.048 123.893 31.048 C 123.684 31.048 123.461 31.059 123.227 31.086 C 122.992 31.099 122.783 31.117 122.599 31.143 L 122.599 38.931 L 119.68 38.931 L 119.68 29.186 Z M 133.707 33.56 C 133.707 35.159 134.367 35.958 135.685 35.958 C 135.986 35.958 136.268 35.92 136.528 35.842 C 136.79 35.767 137.011 35.678 137.194 35.574 L 137.194 31.008 C 137.051 30.983 136.881 30.964 136.685 30.952 C 136.489 30.926 136.26 30.913 135.999 30.913 C 135.23 30.913 134.654 31.162 134.275 31.661 C 133.897 32.16 133.707 32.793 133.707 33.56 Z M 140.114 37.665 C 140.114 39.315 139.683 40.537 138.821 41.329 C 137.973 42.134 136.653 42.538 134.863 42.538 C 134.236 42.538 133.61 42.481 132.982 42.365 C 132.355 42.262 131.774 42.123 131.239 41.943 L 131.747 39.545 C 132.205 39.724 132.681 39.865 133.179 39.967 C 133.687 40.069 134.262 40.121 134.902 40.121 C 135.738 40.121 136.326 39.941 136.665 39.584 C 137.018 39.226 137.194 38.765 137.194 38.202 L 137.194 37.838 C 136.881 37.979 136.555 38.087 136.214 38.164 C 135.888 38.228 135.529 38.26 135.137 38.26 C 133.714 38.26 132.622 37.85 131.865 37.032 C 131.107 36.201 130.728 35.044 130.728 33.56 C 130.728 32.819 130.846 32.147 131.081 31.546 C 131.316 30.932 131.656 30.407 132.101 29.974 C 132.557 29.538 133.112 29.207 133.766 28.975 C 134.419 28.733 135.157 28.611 135.98 28.611 C 136.332 28.611 136.691 28.63 137.058 28.668 C 137.436 28.694 137.809 28.733 138.174 28.784 C 138.54 28.835 138.886 28.899 139.213 28.975 C 139.553 29.039 139.853 29.11 140.114 29.186 L 140.114 37.665 Z" style=""/>
</svg>