<svg viewBox="-0.0317380120979629 0 184.28173801209795 226.63000000000005" xmlns="http://www.w3.org/2000/svg" width="2033" height="2500"><path d="M157.36 17.22C141.81 1.73 119.45 0 92.13 0s-49.75 1.75-65.3 17.28S9.71 55.17 9.71 82.49s1.58 49.7 17.13 65.23 37.93 17.11 65.29 17.11 49.74-1.58 65.28-17.11 17.13-37.9 17.13-65.23-1.6-49.74-17.18-65.27zM86.06 113a1 1 0 0 1-1 1H71a1 1 0 0 1-1-1V76.2a1 1 0 0 1 1-1h14a1 1 0 0 1 1 1zm27.52 0a1 1 0 0 1-1 1H99.16a1 1 0 0 1-1-1V81.24c0-5.53-.33-11.23-3.19-14.09-2.45-2.46-7-3-11.81-3.14H58.87a1 1 0 0 0-1 1V113a1 1 0 0 1-1.05 1H43.4a1 1 0 0 1-1-1V51.88a1 1 0 0 1 1-1H82c10.1 0 20.65.46 25.86 5.67s5.69 15.77 5.69 25.88zm27.56 0a1 1 0 0 1-1 1h-13.42a1 1 0 0 1-1-1V51.88a1 1 0 0 1 1-1h13.38a1 1 0 0 1 1 1z" fill="#ff6900"/><g fill="#878787"><path d="M79.91 201.72c-2.75-3.8-7.74-4.95-12.91-4.67a36.48 36.48 0 0 0-9.82 1.74c-.58.22-.51.72-.52 1 0 1-.09 3.6-.09 4.65 0 .47.57.69 1 .52a37 37 0 0 1 8.28-2c3.06-.25 7.22 0 8.37 1.74a7.14 7.14 0 0 1 .64 3.38 53.88 53.88 0 0 0-7.55-.26c-2.19.12-6.39.3-8.86 1.61-2 1.07-3.18 2-3.81 3.85a11.19 11.19 0 0 0-.48 4.63c.37 3.26 1.5 4.88 3 6 2.42 1.78 5.45 2.72 11.74 2.58 8.36-.18 10.56-2.88 11.67-4.8 1.89-3.27 1.56-8.43 1.51-11.6.04-1.27-.15-5.59-2.17-8.37zm-10.72 19.16c-3.08.14-5.36 0-6.82-.71a3.33 3.33 0 0 1-1.75-2.84 2.92 2.92 0 0 1 .44-2.24c1.09-1.41 3.92-1.72 6.83-1.83a54.47 54.47 0 0 1 7.17.41 15.61 15.61 0 0 1-.6 5.21c-.79 1.66-3.6 1.92-5.27 2zM103.73 197.47c-4.22 0-8.44.53-11.11 3.15s-3.69 6.57-3.69 11.4.92 8.71 3.59 11.33 7 3.25 11.21 3.25 8.41-.53 11.07-3.16 3.72-6.59 3.72-11.42-.93-8.68-3.6-11.3-6.98-3.25-11.19-3.25zm6.39 21.53c-1.49 1.7-4.18 2-6.39 2s-4.91-.3-6.39-2-1.59-4-1.59-7 .1-5.22 1.58-6.92 3.87-2 6.4-2 4.9.3 6.39 2 1.58 4 1.58 6.92-.1 5.3-1.58 7zM183.79 198h-6a.47.47 0 0 0-.46.46v27.21a.47.47 0 0 0 .46.46h6a.47.47 0 0 0 .46-.46v-27.23a.47.47 0 0 0-.46-.44zM156 197.52a17.75 17.75 0 0 0-8.25 1.68h-1.1c-1.54-.85-4.25-1.68-8.52-1.68-3.16 0-7 .23-9.42 2.23-2 1.66-2.43 3.87-2.43 8.4v17.49a.46.46 0 0 0 .46.45h6a.46.46 0 0 0 .47-.45v-14.4c0-2.59-.11-5.3.46-6.31.43-.78 1.12-1.66 4.36-1.66 3.86 0 4.77.27 5.38 2a6.64 6.64 0 0 1 .25 1.68v18.71a.46.46 0 0 0 .46.45h6a.46.46 0 0 0 .46-.45v-18.73a5.85 5.85 0 0 1 .25-1.68c.61-1.71 1.52-2 5.38-2 3.24 0 3.92.88 4.36 1.66.56 1 .46 3.72.46 6.31v14.4a.46.46 0 0 0 .46.45h6a.46.46 0 0 0 .47-.45v-16.41c0-4.7-.16-7.11-2.36-9.16-2.5-2.26-6.4-2.53-9.6-2.53zM45.33 198h-6a.47.47 0 0 0-.46.46v27.21a.47.47 0 0 0 .46.46h6a.47.47 0 0 0 .46-.46v-27.23a.47.47 0 0 0-.46-.44zM20.25 211.81l10.6-13.12a.43.43 0 0 0-.34-.7h-7.64a.56.56 0 0 0-.46.23l-7 9.28-6.84-9.28a.56.56 0 0 0-.46-.23H.44a.43.43 0 0 0-.34.7l10.73 13.37L.09 225.4a.44.44 0 0 0 .35.71h7.65a.55.55 0 0 0 .47-.25l7.16-9.24 6.78 9.25a.56.56 0 0 0 .46.24h7.57a.44.44 0 0 0 .34-.71z"/></g><path d="M85 75.18H71a1 1 0 0 0-1 1V113a1 1 0 0 0 1 1h14a1 1 0 0 0 1-1V76.2a1 1 0 0 0-1-1.02zM126.72 114h13.38a1 1 0 0 0 1-1V51.88a1 1 0 0 0-1-1h-13.38a1 1 0 0 0-1 1V113a1 1 0 0 0 1 1z" fill="#fff"/><path d="M43.4 114h13.39a1 1 0 0 0 1.05-1V65a1 1 0 0 1 1-1h24.28c4.77.11 9.36.68 11.81 3.14 2.86 2.86 3.18 8.56 3.19 14.09V113a1 1 0 0 0 1 1h13.38a1 1 0 0 0 1-1V82.41c0-10.11-.47-20.64-5.69-25.88S92.13 50.86 82 50.86H43.4a1 1 0 0 0-1 1V113a1 1 0 0 0 1 1z" fill="#fff"/></svg>