<svg fill="none" height="707" width="2500" xmlns="http://www.w3.org/2000/svg" viewBox="-0.156 -0.373 3675.566 1038.683"><g clip-rule="evenodd" fill-rule="evenodd"><path d="M2123.4 324.104c-.27.243-6.92.711-14.78 1.04-7.86.328-14.61.781-15 1.005s-4.73.713-9.65 1.088c-4.91.374-9.24.871-9.62 1.104-.37.234-3.78.701-7.56 1.039-19.31 1.725-48.85 8.415-65.88 14.92-3.85 1.47-7.81 2.918-8.79 3.218-4.1 1.246-4.47 4.251-5.15 41.79-.73 40.25-.88 39.283 6.11 40.138 2.3.282 6.62-.372 10.83-1.643 15.5-4.675 21.72-6.394 38.03-10.511 20.77-5.241 43.73-10.159 56.47-12.098 21.88-3.329 71.65-2.693 81.84 1.046 2.01.738 6.99 2.097 11.07 3.019 8.52 1.931 15.28 5.122 22.7 10.718 5.42 4.095 8.75 10.152 11.46 20.827 1.76 6.959 1.89 7.846 2.59 18.414l.66 9.91-8.91-.733c-35.32-2.902-75.47-4.071-92.92-2.705l-27.99 2.194c-28.24 2.216-63.24 9.513-80.72 16.832-22.98 9.62-45.1 27.297-51.43 41.092-13.01 28.359-15.74 64.645-7.43 98.5 3.18 12.931 5.88 20.237 10.29 27.794 1.53 2.637 2.79 5.226 2.79 5.754 0 2.884 23.44 23.596 35.01 30.934 3.02 1.915 5.64 3.827 5.82 4.25.18.422.93.768 1.66.768s4.4 1.383 8.16 3.074c3.77 1.69 10.45 4.125 14.85 5.411 4.4 1.285 10.02 3.016 12.5 3.847 2.47.831 11.92 2.78 21 4.331 16.45 2.814 16.62 2.821 62.5 2.829 46.34.008 58.59-.658 75-4.075 22.87-4.764 33.33-7.612 42-11.439 18.17-8.02 22.78-10.76 31.91-18.961 5.81-5.214 13.78-13.428 16.36-16.864 4.79-6.374 15.17-27.883 17.21-35.653 1.15-4.4 2.5-8.746 3-9.657 2.06-3.732 5.59-28.914 6.64-47.343.79-13.83.71-66.235-.13-81-1-17.829-3.31-35.492-6.02-46-4.96-19.259-7.75-27.111-14.19-39.962-16.22-32.359-49.85-59.015-88.78-70.369-6.44-1.879-19.46-4.33-30.5-5.743-2.48-.317-5.63-.787-7-1.045-3.39-.635-55.4-1.642-56.01-1.085zm451.51 5.829c-14.57.739-18.1 1.145-34.5 3.962-14.98 2.573-24.42 5.178-34.94 9.644-7.45 3.161-10.73 4.901-20.62 10.957-1.07.654-4.71 2.839-8.09 4.857-7.18 4.293-20.55 17.765-29.29 29.53-6.91 9.306-19.06 33.183-19.06 37.464 0 .858-.64 2.797-1.42 4.309-2.9 5.592-8.57 32.05-10.64 49.597-1.87 15.838-2.07 21.769-1.67 50.5.59 42.432 2.58 55.225 13.96 89.868 4.26 13.001 9.78 22.96 20.43 36.921 7.18 9.404 21.62 23.655 27.34 26.978 2.47 1.438 4.72 2.879 5 3.201.93 1.097 4.48 3.057 13.5 7.453 9.67 4.719 15.23 6.717 26.7 9.593 4.01 1.008 9.77 2.515 12.8 3.35 16.87 4.652 42.24 6.446 87 6.152 29.54-.194 36.3-.526 47-2.306 21.88-3.64 45.02-10.427 58-17.012 9.81-4.98 14.48-7.62 15.5-8.769.55-.619 4.82-4.242 9.5-8.05 10.59-8.624 15-12.808 15-14.225 0-.605.38-1.099.85-1.099.85 0 10.56-13.878 10.62-15.17.01-.368.93-1.718 2.04-3 1.11-1.281 2.93-3.905 4.06-5.83 2.55-4.361 9.43-21.282 9.43-23.189 0-.776.4-1.839.89-2.361 2.62-2.786 8.94-36.5 11.2-59.704 1.09-11.292.79-63.085-.4-68.746-.29-1.375-.81-5.425-1.16-9-2.6-26.689-10.74-54.965-20.22-70.23-1.27-2.052-2.31-4.046-2.31-4.431 0-.386-2.39-3.882-5.3-7.77-2.92-3.888-6.63-8.869-8.24-11.069-1.62-2.2-5.59-6.475-8.82-9.5-5.73-5.352-17.96-15-19.02-15-.29 0-2.55-1.371-5.04-3.046-6.9-4.66-22.05-11.531-33.85-15.357-10.45-3.387-27.5-6.532-47.23-8.711-11.5-1.27-59.79-1.735-79-.761zm457.36.336c-.2.196-3.96.641-8.36.989-4.4.347-10.93 1.051-14.5 1.564-3.58.513-8.29 1.183-10.47 1.489-9.26 1.297-27.75 7.061-36.03 11.232-8.88 4.475-25.55 16.543-30.59 22.145-5.05 5.617-15.74 25.879-17.74 33.62-2.11 8.192-4.32 22.146-5.14 32.411-1.06 13.46-.81 272.647.27 273.728 1.02 1.012 89.26 1.129 90.27.121.41-.408 1.07-58.908 1.47-130 .4-71.093 1.03-130.835 1.39-132.76 1.45-7.791 4.88-17.537 7.25-20.655 3.29-4.304 10.67-9.569 16.33-11.639 11.53-4.219 24.37-5.529 49.49-5.051 30.51.58 38.62 2.292 48.16 10.165 9.08 7.484 11.77 13.515 13.02 29.18.5 6.325 1.02 66.175 1.15 133s.48 122.921.79 124.657c.52 2.922.91 3.191 5.22 3.614 7.76.761 84.94.285 85.75-.529.42-.418.89-58.243 1.05-128.5.16-70.258.51-130.249.79-133.312.27-3.064 1.23-8.239 2.13-11.5.9-3.262 1.87-6.928 2.15-8.148.84-3.676 9.64-11.656 14.95-13.56 15.94-5.719 56.91-7.122 81.2-2.78 14.43 2.581 26.46 10.88 29.43 20.32 4.89 15.521 5.03 19.084 5.64 151.905.31 68.567.93 125.029 1.37 125.471 1.3 1.301 84.71 1.739 88 .462l2.8-1.089-.45-133.755c-.24-73.566-.72-136.231-1.06-139.256-2.84-25.532-5.67-36.219-13.09-49.512-6.54-11.709-16.06-21.698-28.11-29.508-30.59-19.816-57.33-25.476-116.39-24.641-16.78.237-32.08.687-34 1-1.93.312-5.75.802-8.5 1.087-11.94 1.238-26.91 4.372-40.03 8.383-1.67.509-7.75 3.29-13.5 6.18-9.71 4.872-11.02 5.263-17.97 5.363-7.02.1-8.14-.202-17.5-4.722-15.46-7.465-26.26-10.697-46-13.763-22.83-3.545-27.86-3.873-58.64-3.819-17.4.031-31.8.217-32 .413zm-1492.89 4.676c-3.79.779-6.83 3.527-9.46 8.558-1.1 2.093-2.26 4.03-2.59 4.305s-2.14 2.75-4.03 5.5-4.33 6.077-5.41 7.393c-1.09 1.315-3.78 4.561-5.98 7.212-5.79 6.971-7.86 9.864-10.51 14.645-1.3 2.337-2.73 4.25-3.18 4.25s-.81.576-.81 1.279c0 .704-.9 1.928-2 2.721s-2 1.969-2 2.614-.68 1.431-1.5 1.748c-.83.316-1.5 1.227-1.5 2.023 0 .797-.34 1.598-.75 1.782-1.54.681-19.25 23.006-19.25 24.257 0 .317-.79 1.444-1.75 2.504a69.64 69.64 0 0 0-2.78 3.25c-6.3 8.121-11.55 15.17-14.39 19.302-4.03 5.867-10.33 12.266-10.78 10.94-.17-.506-3.93-5.87-8.35-11.92-9.23-12.64-15.79-21.753-17.95-24.943-.83-1.22-3.35-4.431-5.6-7.137s-6.29-8.295-8.97-12.42-5.37-7.95-5.98-8.5-4.66-5.95-8.99-12-10.18-13.925-13.01-17.5c-2.82-3.575-6.65-8.75-8.5-11.5-1.84-2.75-3.94-5.596-4.66-6.325-2.45-2.494-7.39-10.175-6.59-10.245.44-.039-.1-.457-1.2-.93s-26.33-.891-56.06-.93c-42.94-.056-54.43.198-55.84 1.233-1.59 1.158-1.65 1.802-.59 5.741 1.41 5.249 2.43 6.769 15.1 22.456 5.33 6.6 11.65 14.549 14.04 17.664s7.95 10.153 12.35 15.641c4.4 5.487 8.9 11.23 10 12.761s2.7 3.492 3.55 4.359c3.05 3.084 11.81 13.686 17.09 20.686 2.94 3.91 9.1 11.56 13.68 17 9.94 11.815 10.05 11.945 13.14 16.389 1.34 1.925 2.69 3.725 3 4 .3.275 1.88 2.3 3.51 4.5 1.62 2.2 3.42 4.5 3.99 5.111s2.36 2.788 3.97 4.837 4.26 5.149 5.89 6.889c1.64 1.74 4.81 5.638 7.07 8.663 2.25 3.025 4.33 5.725 4.62 6s2.88 3.351 5.75 6.834c4.49 5.436 5.06 6.579 3.99 8.052-5.99 8.234-13.54 17.714-17.32 21.744-2.51 2.678-5.32 5.995-6.25 7.37-.92 1.374-2.42 3.399-3.33 4.5-5.96 7.252-10.85 13.541-10.85 13.94 0 .258-1.02 1.519-2.25 2.802-2.52 2.606-9.54 11.064-11.58 13.942-.73 1.028-2.86 3.545-4.74 5.593-1.88 2.047-3.43 4.093-3.43 4.544 0 .452-.56 1.385-1.25 2.074-.69.688-2.6 2.984-4.25 5.102-4.27 5.475-8.73 10.755-10.56 12.503-.86.825-3.95 4.65-6.85 8.5-5.66 7.496-11.32 14.416-14.64 17.871-1.13 1.174-2.35 2.921-2.72 3.882s-1.13 1.747-1.7 1.747-1.03.675-1.03 1.5-.36 1.5-.79 1.5-1.59 1.362-2.57 3.026c-.98 1.665-2.77 4.091-3.96 5.393-1.2 1.301-3.5 4.029-5.11 6.061s-4.09 4.995-5.5 6.586c-1.42 1.59-4.37 5.434-6.57 8.542s-5.02 6.739-6.25 8.067c-1.24 1.329-2.25 2.845-2.25 3.37s-.36.955-.79.955c-1.47 0-4.21 5.806-4.21 8.937 0 2.31.59 3.362 2.25 4.027 1.25.501 26.05.819 56.08.718 52.42-.177 53.87-.234 55.28-2.166.8-1.091 3.53-4.321 6.08-7.177 2.54-2.856 6.01-7.182 7.71-9.613 2.89-4.12 10.33-14.095 13.19-17.661.69-.861 3.45-4.265 6.15-7.565 2.69-3.3 7.98-10.275 11.75-15.5s7.43-9.95 8.13-10.5c1.12-.878 3.61-3.952 8.91-11 7.44-9.882 12.98-17.085 13.46-17.5.32-.275 3.09-4.1 6.16-8.5 6.19-8.879 11.96-15.5 13.5-15.5.56 0 2.51 2.31 4.34 5.132 1.83 2.823 5.98 8.479 9.23 12.569 3.25 4.089 8.87 11.792 12.49 17.117 6.67 9.806 9.81 14.058 13.07 17.682 2.65 2.963 10.22 13.323 10.22 14 0 .322 1.91 3.154 4.24 6.293s5.17 7.068 6.32 8.732c1.14 1.664 2.8 3.914 3.69 5 4.09 4.973 8.46 10.661 10.75 13.975 1.37 1.991 2.97 4.155 3.55 4.81 2.25 2.564 7.45 10.603 7.45 11.531 0 .54 1.38 2.146 3.07 3.57l3.08 2.589 52.67-.014c28.97-.007 53.65-.273 54.83-.591 1.66-.446 2.24-1.505 2.54-4.625.23-2.452-.12-4.556-.9-5.337-.71-.71-1.29-1.526-1.29-1.813 0-.288-1.48-2.008-3.28-3.822s-3.93-4.609-4.75-6.211c-.81-1.603-4.41-6.328-8-10.5-3.59-4.173-7.86-9.387-9.5-11.587-6.29-8.478-17.93-23.015-18.68-23.333-.44-.184-.79-.901-.79-1.595s-.95-2.119-2.11-3.167-4.68-5.28-7.82-9.405c-9.08-11.909-14.57-18.95-21.04-27a806.765 806.765 0 0 1-11.72-15c-3.12-4.125-5.96-7.725-6.3-8-.77-.63-12.17-15.618-13.51-17.777-.55-.883-1.97-2.619-3.15-3.858-2.77-2.903-11.35-14.051-11.35-14.744 0-.291-1.02-1.62-2.25-2.951-8-8.61-13.75-16.862-13.75-19.742 0-1.132 1.06-2.456 2.5-3.11 1.37-.626 2.5-1.52 2.5-1.985s1.11-1.814 2.47-2.996 3.71-3.992 5.23-6.243c4.05-6.019 9.03-12.322 15.09-19.094 6.4-7.148 6.87-7.709 11.28-13.5 1.88-2.475 3.72-4.725 4.08-5 .35-.275 2.64-3.2 5.07-6.5s6.19-8.079 8.35-10.619c4.36-5.124 4.91-5.803 11.68-14.381 2.61-3.3 5.35-6.675 6.09-7.5.73-.825 3.76-4.65 6.72-8.5s7.79-9.925 10.74-13.5c2.94-3.575 6.06-7.4 6.93-8.5.86-1.1 3.42-4.095 5.67-6.655s4.55-5.26 5.1-6.001c.55-.74 2.33-3.145 3.96-5.345 3.33-4.483 11.29-14.08 18.93-22.802 5.3-6.049 8.46-12.288 8.55-16.902.05-2.288-.44-2.789-3.19-3.255-4.68-.792-103.08-1.163-106.78-.403zm213.08 1.769c-1.3 2.429-1.02 369.458.28 370.761 1.09 1.089 90.24 1.089 91.33-.001.99-.984.83-370.505-.15-371.492-.37-.371-20.86-.808-45.53-.972-44-.292-44.88-.259-45.93 1.704zm1835.04-1.001c-2.29.4-3.57 1.251-3.89 2.595-.26 1.1-.52 83.996-.59 184.214-.1 168.055.02 182.343 1.54 183.864 1.45 1.454 6.12 1.711 39.5 2.179 20.82.291 40.89.204 44.6-.194l6.75-.722V336.083l-5.61-.659c-6.8-.798-77.5-.55-82.3.289zm-953.88 71.161c28.77 2.982 47.7 10.499 59.89 23.789 14.65 15.978 18.66 30.7 19.91 73.145 1.58 53.758-1.74 83.97-10.9 99-5.81 9.53-19.97 21.6-31.6 26.945-16.58 7.611-28.99 9.555-61.01 9.555-25.19 0-32.24-.776-48.85-5.374-13.02-3.607-24.96-10.389-33.64-19.111-5.25-5.285-12.04-17.818-14.62-27.015-4.49-15.988-7.4-39.369-7.37-59.113.08-43.53 3.84-67.537 13.34-85.055 4.31-7.935 14.58-19.895 19.27-22.421 5.42-2.927 13.41-6.964 16.37-8.279 3.24-1.438 18.94-5.125 26-6.106 8.47-1.176 41.71-1.151 53.21.04zM2191.41 540.93c6.32.435 12.62 1.037 14 1.337 1.37.3 6.32.817 11 1.149 4.67.332 9.4.748 10.5.924s2.34.353 2.77.394c.96.093.02 28.123-1.42 41.928-1.12 10.848-4.5 23.214-7.78 28.53-4.28 6.917-16.52 15.492-24.3 17.013-1.25.245-4.3 1.19-6.77 2.1-8.42 3.098-27.53 4.365-61 4.044-17.33-.166-33.3-.598-35.5-.961-12.6-2.075-25.07-5.988-32.04-10.059-4.85-2.832-12.63-12.459-15.95-19.737-4.33-9.504-5.45-30.108-1.99-36.851 1.5-2.928 7.37-10.674 11.06-14.591 3.5-3.711 19.42-9.903 29.25-11.368 8.62-1.287 30.25-3.817 36.67-4.292 9.14-.675 59.82-.363 71.5.44z" fill="#000"/><path d="M2123.4 324.104c-.27.243-6.92.711-14.78 1.04-7.86.328-14.61.781-15 1.005s-4.73.713-9.65 1.088c-4.91.374-9.24.871-9.62 1.104-.37.234-3.78.701-7.56 1.039-19.31 1.725-48.85 8.415-65.88 14.92-3.85 1.47-7.81 2.918-8.79 3.218-4.1 1.246-4.47 4.251-5.15 41.79-.73 40.25-.88 39.283 6.11 40.138 2.3.282 6.62-.372 10.83-1.643 15.5-4.675 21.72-6.394 38.03-10.511 20.77-5.241 43.73-10.159 56.47-12.098 21.88-3.329 71.65-2.693 81.84 1.046 2.01.738 6.99 2.097 11.07 3.019 8.52 1.931 15.28 5.122 22.7 10.718 5.42 4.095 8.75 10.152 11.46 20.827 1.76 6.959 1.89 7.846 2.59 18.414l.66 9.91-8.91-.733c-35.32-2.902-75.47-4.071-92.92-2.705l-27.99 2.194c-28.24 2.216-63.24 9.513-80.72 16.832-22.98 9.62-45.1 27.297-51.43 41.092-13.01 28.359-15.74 64.645-7.43 98.5 3.18 12.931 5.88 20.237 10.29 27.794 1.53 2.637 2.79 5.226 2.79 5.754 0 2.884 23.44 23.596 35.01 30.934 3.02 1.915 5.64 3.827 5.82 4.25.18.422.93.768 1.66.768s4.4 1.383 8.16 3.074c3.77 1.69 10.45 4.125 14.85 5.411 4.4 1.285 10.02 3.016 12.5 3.847 2.47.831 11.92 2.78 21 4.331 16.45 2.814 16.62 2.821 62.5 2.829 46.34.008 58.59-.658 75-4.075 22.87-4.764 33.33-7.612 42-11.439 18.17-8.02 22.78-10.76 31.91-18.961 5.81-5.214 13.78-13.428 16.36-16.864 4.79-6.374 15.17-27.883 17.21-35.653 1.15-4.4 2.5-8.746 3-9.657 2.06-3.732 5.59-28.914 6.64-47.343.79-13.83.71-66.235-.13-81-1-17.829-3.31-35.492-6.02-46-4.96-19.259-7.75-27.111-14.19-39.962-16.22-32.359-49.85-59.015-88.78-70.369-6.44-1.879-19.46-4.33-30.5-5.743-2.48-.317-5.63-.787-7-1.045-3.39-.635-55.4-1.642-56.01-1.085zm451.51 5.829c-14.57.739-18.1 1.145-34.5 3.962-14.98 2.573-24.42 5.178-34.94 9.644-7.45 3.161-10.73 4.901-20.62 10.957-1.07.654-4.71 2.839-8.09 4.857-7.18 4.293-20.55 17.765-29.29 29.53-6.91 9.306-19.06 33.183-19.06 37.464 0 .858-.64 2.797-1.42 4.309-2.9 5.592-8.57 32.05-10.64 49.597-1.87 15.838-2.07 21.769-1.67 50.5.59 42.432 2.58 55.225 13.96 89.868 4.26 13.001 9.78 22.96 20.43 36.921 7.18 9.404 21.62 23.655 27.34 26.978 2.47 1.438 4.72 2.879 5 3.201.93 1.097 4.48 3.057 13.5 7.453 9.67 4.719 15.23 6.717 26.7 9.593 4.01 1.008 9.77 2.515 12.8 3.35 16.87 4.652 42.24 6.446 87 6.152 29.54-.194 36.3-.526 47-2.306 21.88-3.64 45.02-10.427 58-17.012 9.81-4.98 14.48-7.62 15.5-8.769.55-.619 4.82-4.242 9.5-8.05 10.59-8.624 15-12.808 15-14.225 0-.605.38-1.099.85-1.099.85 0 10.56-13.878 10.62-15.17.01-.368.93-1.718 2.04-3 1.11-1.281 2.93-3.905 4.06-5.83 2.55-4.361 9.43-21.282 9.43-23.189 0-.776.4-1.839.89-2.361 2.62-2.786 8.94-36.5 11.2-59.704 1.09-11.292.79-63.085-.4-68.746-.29-1.375-.81-5.425-1.16-9-2.6-26.689-10.74-54.965-20.22-70.23-1.27-2.052-2.31-4.046-2.31-4.431 0-.386-2.39-3.882-5.3-7.77-2.92-3.888-6.63-8.869-8.24-11.069-1.62-2.2-5.59-6.475-8.82-9.5-5.73-5.352-17.96-15-19.02-15-.29 0-2.55-1.371-5.04-3.046-6.9-4.66-22.05-11.531-33.85-15.357-10.45-3.387-27.5-6.532-47.23-8.711-11.5-1.27-59.79-1.735-79-.761zm457.36.336c-.2.196-3.96.641-8.36.989-4.4.347-10.93 1.051-14.5 1.564-3.58.513-8.29 1.183-10.47 1.489-9.26 1.297-27.75 7.061-36.03 11.232-8.88 4.475-25.55 16.543-30.59 22.145-5.05 5.617-15.74 25.879-17.74 33.62-2.11 8.192-4.32 22.146-5.14 32.411-1.06 13.46-.81 272.647.27 273.728 1.02 1.012 89.26 1.129 90.27.121.41-.408 1.07-58.908 1.47-130 .4-71.093 1.03-130.835 1.39-132.76 1.45-7.791 4.88-17.537 7.25-20.655 3.29-4.304 10.67-9.569 16.33-11.639 11.53-4.219 24.37-5.529 49.49-5.051 30.51.58 38.62 2.292 48.16 10.165 9.08 7.484 11.77 13.515 13.02 29.18.5 6.325 1.02 66.175 1.15 133s.48 122.921.79 124.657c.52 2.922.91 3.191 5.22 3.614 7.76.761 84.94.285 85.75-.529.42-.418.89-58.243 1.05-128.5.16-70.258.51-130.249.79-133.312.27-3.064 1.23-8.239 2.13-11.5.9-3.262 1.87-6.928 2.15-8.148.84-3.676 9.64-11.656 14.95-13.56 15.94-5.719 56.91-7.122 81.2-2.78 14.43 2.581 26.46 10.88 29.43 20.32 4.89 15.521 5.03 19.084 5.64 151.905.31 68.567.93 125.029 1.37 125.471 1.3 1.301 84.71 1.739 88 .462l2.8-1.089-.45-133.755c-.24-73.566-.72-136.231-1.06-139.256-2.84-25.532-5.67-36.219-13.09-49.512-6.54-11.709-16.06-21.698-28.11-29.508-30.59-19.816-57.33-25.476-116.39-24.641-16.78.237-32.08.687-34 1-1.93.312-5.75.802-8.5 1.087-11.94 1.238-26.91 4.372-40.03 8.383-1.67.509-7.75 3.29-13.5 6.18-9.71 4.872-11.02 5.263-17.97 5.363-7.02.1-8.14-.202-17.5-4.722-15.46-7.465-26.26-10.697-46-13.763-22.83-3.545-27.86-3.873-58.64-3.819-17.4.031-31.8.217-32 .413zm-1492.89 4.676c-3.79.779-6.83 3.527-9.46 8.558-1.1 2.093-2.26 4.03-2.59 4.305s-2.14 2.75-4.03 5.5-4.33 6.077-5.41 7.393c-1.09 1.315-3.78 4.561-5.98 7.212-5.79 6.971-7.86 9.864-10.51 14.645-1.3 2.337-2.73 4.25-3.18 4.25s-.81.576-.81 1.279c0 .704-.9 1.928-2 2.721s-2 1.969-2 2.614-.68 1.431-1.5 1.748c-.83.316-1.5 1.227-1.5 2.023 0 .797-.34 1.598-.75 1.782-1.54.681-19.25 23.006-19.25 24.257 0 .317-.79 1.444-1.75 2.504a69.64 69.64 0 0 0-2.78 3.25c-6.3 8.121-11.55 15.17-14.39 19.302-4.03 5.867-10.33 12.266-10.78 10.94-.17-.506-3.93-5.87-8.35-11.92-9.23-12.64-15.79-21.753-17.95-24.943-.83-1.22-3.35-4.431-5.6-7.137s-6.29-8.295-8.97-12.42-5.37-7.95-5.98-8.5-4.66-5.95-8.99-12-10.18-13.925-13.01-17.5c-2.82-3.575-6.65-8.75-8.5-11.5-1.84-2.75-3.94-5.596-4.66-6.325-2.45-2.494-7.39-10.175-6.59-10.245.44-.039-.1-.457-1.2-.93s-26.33-.891-56.06-.93c-42.94-.056-54.43.198-55.84 1.233-1.59 1.158-1.65 1.802-.59 5.741 1.41 5.249 2.43 6.769 15.1 22.456 5.33 6.6 11.65 14.549 14.04 17.664s7.95 10.153 12.35 15.641c4.4 5.487 8.9 11.23 10 12.761s2.7 3.492 3.55 4.359c3.05 3.084 11.81 13.686 17.09 20.686 2.94 3.91 9.1 11.56 13.68 17 9.94 11.815 10.05 11.945 13.14 16.389 1.34 1.925 2.69 3.725 3 4 .3.275 1.88 2.3 3.51 4.5 1.62 2.2 3.42 4.5 3.99 5.111s2.36 2.788 3.97 4.837 4.26 5.149 5.89 6.889c1.64 1.74 4.81 5.638 7.07 8.663 2.25 3.025 4.33 5.725 4.62 6s2.88 3.351 5.75 6.834c4.49 5.436 5.06 6.579 3.99 8.052-5.99 8.234-13.54 17.714-17.32 21.744-2.51 2.678-5.32 5.995-6.25 7.37-.92 1.374-2.42 3.399-3.33 4.5-5.96 7.252-10.85 13.541-10.85 13.94 0 .258-1.02 1.519-2.25 2.802-2.52 2.606-9.54 11.064-11.58 13.942-.73 1.028-2.86 3.545-4.74 5.593-1.88 2.047-3.43 4.093-3.43 4.544 0 .452-.56 1.385-1.25 2.074-.69.688-2.6 2.984-4.25 5.102-4.27 5.475-8.73 10.755-10.56 12.503-.86.825-3.95 4.65-6.85 8.5-5.66 7.496-11.32 14.416-14.64 17.871-1.13 1.174-2.35 2.921-2.72 3.882s-1.13 1.747-1.7 1.747-1.03.675-1.03 1.5-.36 1.5-.79 1.5-1.59 1.362-2.57 3.026c-.98 1.665-2.77 4.091-3.96 5.393-1.2 1.301-3.5 4.029-5.11 6.061s-4.09 4.995-5.5 6.586c-1.42 1.59-4.37 5.434-6.57 8.542s-5.02 6.739-6.25 8.067c-1.24 1.329-2.25 2.845-2.25 3.37s-.36.955-.79.955c-1.47 0-4.21 5.806-4.21 8.937 0 2.31.59 3.362 2.25 4.027 1.25.501 26.05.819 56.08.718 52.42-.177 53.87-.234 55.28-2.166.8-1.091 3.53-4.321 6.08-7.177 2.54-2.856 6.01-7.182 7.71-9.613 2.89-4.12 10.33-14.095 13.19-17.661.69-.861 3.45-4.265 6.15-7.565 2.69-3.3 7.98-10.275 11.75-15.5s7.43-9.95 8.13-10.5c1.12-.878 3.61-3.952 8.91-11 7.44-9.882 12.98-17.085 13.46-17.5.32-.275 3.09-4.1 6.16-8.5 6.19-8.879 11.96-15.5 13.5-15.5.56 0 2.51 2.31 4.34 5.132 1.83 2.823 5.98 8.479 9.23 12.569 3.25 4.089 8.87 11.792 12.49 17.117 6.67 9.806 9.81 14.058 13.07 17.682 2.65 2.963 10.22 13.323 10.22 14 0 .322 1.91 3.154 4.24 6.293s5.17 7.068 6.32 8.732c1.14 1.664 2.8 3.914 3.69 5 4.09 4.973 8.46 10.661 10.75 13.975 1.37 1.991 2.97 4.155 3.55 4.81 2.25 2.564 7.45 10.603 7.45 11.531 0 .54 1.38 2.146 3.07 3.57l3.08 2.589 52.67-.014c28.97-.007 53.65-.273 54.83-.591 1.66-.446 2.24-1.505 2.54-4.625.23-2.452-.12-4.556-.9-5.337-.71-.71-1.29-1.526-1.29-1.813 0-.288-1.48-2.008-3.28-3.822s-3.93-4.609-4.75-6.211c-.81-1.603-4.41-6.328-8-10.5-3.59-4.173-7.86-9.387-9.5-11.587-6.29-8.478-17.93-23.015-18.68-23.333-.44-.184-.79-.901-.79-1.595s-.95-2.119-2.11-3.167-4.68-5.28-7.82-9.405c-9.08-11.909-14.57-18.95-21.04-27a806.765 806.765 0 0 1-11.72-15c-3.12-4.125-5.96-7.725-6.3-8-.77-.63-12.17-15.618-13.51-17.777-.55-.883-1.97-2.619-3.15-3.858-2.77-2.903-11.35-14.051-11.35-14.744 0-.291-1.02-1.62-2.25-2.951-8-8.61-13.75-16.862-13.75-19.742 0-1.132 1.06-2.456 2.5-3.11 1.37-.626 2.5-1.52 2.5-1.985s1.11-1.814 2.47-2.996 3.71-3.992 5.23-6.243c4.05-6.019 9.03-12.322 15.09-19.094 6.4-7.148 6.87-7.709 11.28-13.5 1.88-2.475 3.72-4.725 4.08-5 .35-.275 2.64-3.2 5.07-6.5s6.19-8.079 8.35-10.619c4.36-5.124 4.91-5.803 11.68-14.381 2.61-3.3 5.35-6.675 6.09-7.5.73-.825 3.76-4.65 6.72-8.5s7.79-9.925 10.74-13.5c2.94-3.575 6.06-7.4 6.93-8.5.86-1.1 3.42-4.095 5.67-6.655s4.55-5.26 5.1-6.001c.55-.74 2.33-3.145 3.96-5.345 3.33-4.483 11.29-14.08 18.93-22.802 5.3-6.049 8.46-12.288 8.55-16.902.05-2.288-.44-2.789-3.19-3.255-4.68-.792-103.08-1.163-106.78-.403zm213.08 1.769c-1.3 2.429-1.02 369.458.28 370.761 1.09 1.089 90.24 1.089 91.33-.001.99-.984.83-370.505-.15-371.492-.37-.371-20.86-.808-45.53-.972-44-.292-44.88-.259-45.93 1.704zm1835.04-1.001c-2.29.4-3.57 1.251-3.89 2.595-.26 1.1-.52 83.996-.59 184.214-.1 168.055.02 182.343 1.54 183.864 1.45 1.454 6.12 1.711 39.5 2.179 20.82.291 40.89.204 44.6-.194l6.75-.722V336.083l-5.61-.659c-6.8-.798-77.5-.55-82.3.289zm-953.88 71.161c28.77 2.982 47.7 10.499 59.89 23.789 14.65 15.978 18.66 30.7 19.91 73.145 1.58 53.758-1.74 83.97-10.9 99-5.81 9.53-19.97 21.6-31.6 26.945-16.58 7.611-28.99 9.555-61.01 9.555-25.19 0-32.24-.776-48.85-5.374-13.02-3.607-24.96-10.389-33.64-19.111-5.25-5.285-12.04-17.818-14.62-27.015-4.49-15.988-7.4-39.369-7.37-59.113.08-43.53 3.84-67.537 13.34-85.055 4.31-7.935 14.58-19.895 19.27-22.421 5.42-2.927 13.41-6.964 16.37-8.279 3.24-1.438 18.94-5.125 26-6.106 8.47-1.176 41.71-1.151 53.21.04zM2191.41 540.93c6.32.435 12.62 1.037 14 1.337 1.37.3 6.32.817 11 1.149 4.67.332 9.4.748 10.5.924s2.34.353 2.77.394c.96.093.02 28.123-1.42 41.928-1.12 10.848-4.5 23.214-7.78 28.53-4.28 6.917-16.52 15.492-24.3 17.013-1.25.245-4.3 1.19-6.77 2.1-8.42 3.098-27.53 4.365-61 4.044-17.33-.166-33.3-.598-35.5-.961-12.6-2.075-25.07-5.988-32.04-10.059-4.85-2.832-12.63-12.459-15.95-19.737-4.33-9.504-5.45-30.108-1.99-36.851 1.5-2.928 7.37-10.674 11.06-14.591 3.5-3.711 19.42-9.903 29.25-11.368 8.62-1.287 30.25-3.817 36.67-4.292 9.14-.675 59.82-.363 71.5.44z" fill="#89898a"/><path d="M468.349.145c-.243.213-10.567.671-22.942 1.018-79.126 2.221-161.965 15.061-214 33.17-51.465 17.911-91.883 42.952-126.03 78.084-21.189 21.798-36.763 43.63-50.77 71.169-22.59 44.408-34.005 88.867-44.603 173.722C2.42 418.022-.156 461.96.007 527.808c.196 78.897 6.704 151.132 20.496 227.5 10.482 58.039 30.714 104.389 64.215 147.108 10.668 13.604 11.617 14.685 23.486 26.78 42.431 43.239 93.113 72.114 152.703 86.994 30.318 7.57 76.869 14.41 119.5 17.56 40.983 3.03 97.197 4.56 167.5 4.56 141.406 0 230.223-14.6 301-49.482 31.189-15.371 55.599-32.909 80.605-57.915 36.208-36.209 58.731-73.317 75.928-125.105 19.18-57.728 27.36-108.664 29.56-184 .37-12.375.8-22.745.97-23.045.59-1.067 1.94-69.94 1.94-99.455 0-66.409-3.01-115.658-10.03-164.228-9.06-62.699-20.66-104.444-39.942-143.772-16.552-33.758-34.555-58.661-60.819-84.135-23.661-22.948-49.469-40.865-81.212-56.38-54.005-26.398-112.665-40.53-186.5-44.932-31.212-1.86-34.173-2.012-59-3.025-13.475-.55-29.225-1.243-35-1.539C552.101.613 468.94-.373 468.349.145zm93.201 326.2c25.8 4.263 48 16.223 66.614 35.888 12.544 13.252 20.686 26.803 26.18 43.575 5.171 15.784 5.063 12.067 5.063 174.131 0 149.536-.018 150.887-2 152.869-1.941 1.941-3.333 2-47.389 2-41.759 0-45.558-.14-47.497-1.75l-2.107-1.75-.286-134c-.267-125.829-.395-134.366-2.09-140-6.644-22.078-24.013-39.24-45.631-45.088-5.983-1.619-14.457-1.769-106.5-1.888-55-.071-101.175.254-102.612.723s-3.124 1.976-3.75 3.35c-.835 1.832-1.138 44.269-1.138 159.45 0 155.62-.017 156.97-2 158.953-1.941 1.941-3.333 2-47.277 2-39.362 0-45.568-.203-47.5-1.557l-2.223-1.556V530.251c0-200.294.011-201.454 2.006-203.449 1.992-1.992 3.138-2.005 176.75-1.945 146.519.05 176.14.29 183.387 1.488zm274.402.918l2.455 2.454v399.821l-2.073 2.635-2.072 2.635h-91.71l-2.072-2.635-2.073-2.635V329.717l2.455-2.454 2.454-2.455h90.182zm-356.374 157.2c1.753 1.586 1.829 6.744 1.829 124 0 121.012-.022 122.367-2 124.345-1.944 1.944-3.333 2-50 2s-48.056-.056-50-2c-1.978-1.978-2-3.333-2-124s.022-122.022 2-124c1.945-1.945 3.333-2 50.171-2 43.421 0 48.352.163 50 1.655z" fill="#000"/><path d="M468.349.145c-.243.213-10.567.671-22.942 1.018-79.126 2.221-161.965 15.061-214 33.17-51.465 17.911-91.883 42.952-126.03 78.084-21.189 21.798-36.763 43.63-50.77 71.169-22.59 44.408-34.005 88.867-44.603 173.722C2.42 418.022-.156 461.96.007 527.808c.196 78.897 6.704 151.132 20.496 227.5 10.482 58.039 30.714 104.389 64.215 147.108 10.668 13.604 11.617 14.685 23.486 26.78 42.431 43.239 93.113 72.114 152.703 86.994 30.318 7.57 76.869 14.41 119.5 17.56 40.983 3.03 97.197 4.56 167.5 4.56 141.406 0 230.223-14.6 301-49.482 31.189-15.371 55.599-32.909 80.605-57.915 36.208-36.209 58.731-73.317 75.928-125.105 19.18-57.728 27.36-108.664 29.56-184 .37-12.375.8-22.745.97-23.045.59-1.067 1.94-69.94 1.94-99.455 0-66.409-3.01-115.658-10.03-164.228-9.06-62.699-20.66-104.444-39.942-143.772-16.552-33.758-34.555-58.661-60.819-84.135-23.661-22.948-49.469-40.865-81.212-56.38-54.005-26.398-112.665-40.53-186.5-44.932-31.212-1.86-34.173-2.012-59-3.025-13.475-.55-29.225-1.243-35-1.539C552.101.613 468.94-.373 468.349.145zm93.201 326.2c25.8 4.263 48 16.223 66.614 35.888 12.544 13.252 20.686 26.803 26.18 43.575 5.171 15.784 5.063 12.067 5.063 174.131 0 149.536-.018 150.887-2 152.869-1.941 1.941-3.333 2-47.389 2-41.759 0-45.558-.14-47.497-1.75l-2.107-1.75-.286-134c-.267-125.829-.395-134.366-2.09-140-6.644-22.078-24.013-39.24-45.631-45.088-5.983-1.619-14.457-1.769-106.5-1.888-55-.071-101.175.254-102.612.723s-3.124 1.976-3.75 3.35c-.835 1.832-1.138 44.269-1.138 159.45 0 155.62-.017 156.97-2 158.953-1.941 1.941-3.333 2-47.277 2-39.362 0-45.568-.203-47.5-1.557l-2.223-1.556V530.251c0-200.294.011-201.454 2.006-203.449 1.992-1.992 3.138-2.005 176.75-1.945 146.519.05 176.14.29 183.387 1.488zm274.402.918l2.455 2.454v399.821l-2.073 2.635-2.072 2.635h-91.71l-2.072-2.635-2.073-2.635V329.717l2.455-2.454 2.454-2.455h90.182zm-356.374 157.2c1.753 1.586 1.829 6.744 1.829 124 0 121.012-.022 122.367-2 124.345-1.944 1.944-3.333 2-50 2s-48.056-.056-50-2c-1.978-1.978-2-3.333-2-124s.022-122.022 2-124c1.945-1.945 3.333-2 50.171-2 43.421 0 48.352.163 50 1.655z" fill="#ff6200"/></g><path d="M831.289 322h-86.605c-3.708 0-6.71 3.066-6.71 6.843v410.694c0 3.745 3.002 6.81 6.71 6.81h86.605c3.677 0 6.721-3.065 6.721-6.81V328.843c0-3.777-3.044-6.843-6.721-6.843zM535.582 322H205.69c-3.709 0-6.69 3.066-6.69 6.843v410.694c0 3.745 2.981 6.81 6.69 6.81h86.626c3.687 0 6.743-3.065 6.743-6.81V417.203c0-3.723 2.98-6.81 6.689-6.81h186.6c52.473 0 67.369 41.771 67.369 68.717v260.427c0 3.745 3.013 6.81 6.722 6.81h86.574c3.687 0 6.71-3.065 6.71-6.81V448.19c0-24.034-2.781-58.59-32.616-89.007C595.893 327.431 567.418 322 535.582 322z" fill="#fff"/><path d="M474.902 482.679h-90.945c-3.708 0-6.753 3.065-6.753 6.821v250.07c0 3.733 3.045 6.799 6.753 6.799h90.945c3.677 0 6.69-3.066 6.69-6.799V489.5c0-3.756-3.013-6.821-6.69-6.821z" fill="#fff"/></svg>