<svg height="575" viewBox="1.068 .522 98.042 22.245" width="2500" xmlns="http://www.w3.org/2000/svg"><path d="m43.907.985c-2.3.015-2.316 2.13-2.316 2.13l.046 9.788c0 .077-.046 9.231 9.34 9.216 9.355-.031 9.386-9.14 9.386-9.14l.046-9.848s0-2.13-2.347-2.13c-2.315-.017-2.315 2.099-2.315 2.099l-.031 9.864c.062.062.077 4.585-4.74 4.554-4.8.031-4.785-4.662-4.785-4.662l.047-9.725s-.031-2.131-2.331-2.146zm-12.983.03h-.062a9.547 9.547 0 0 0 -2.47.356c-1.574.463-3.087 1.25-4.199 2.454-2.022 1.853-2.856 4.647-2.794 7.302-.077 2.192.17 4.523 1.405 6.422 1.528 2.64 4.477 4.292 7.518 4.57.185.015.37.015.54.015h.108c.185 0 .37 0 .556-.015 3.041-.278 5.99-1.93 7.518-4.57 1.235-1.899 1.466-4.23 1.405-6.422.061-2.655-.788-5.449-2.795-7.302-1.111-1.204-2.624-1.99-4.198-2.454a9.57 9.57 0 0 0 -2.486-.355h-.046zm-27.2 0c-.973 0-1.946.618-2.3 1.56-.356.926.015 2.007.725 2.686 2.238 2.285 4.57 4.508 6.777 6.823l.03 7.626s-.03 2.393 2.409 2.44c2.393-.031 2.424-2.424 2.424-2.424l.046-7.842 6.854-6.824c.756-.632.787-1.729.51-2.593-.526-1.436-2.61-1.945-3.721-.864-.03.046-6.067 6.035-6.067 6.035l-6.437-6.19a2.049 2.049 0 0 0 -1.25-.432zm27.2 4.694c.432 0 .864.062 1.281.2 1.266.386 2.377 1.297 2.949 2.486.679 1.405.401 4.461.416 4.492.047 1.822-1.235 3.458-2.886 4.184a4.579 4.579 0 0 1 -1.76.34 4.713 4.713 0 0 1 -1.775-.34c-1.637-.726-2.918-2.362-2.887-4.184.03-.03-.247-3.087.432-4.492.556-1.189 1.667-2.1 2.933-2.485.432-.14.865-.201 1.297-.201z" fill="#fd517e"/><path d="m76.911 1.016c-.494.015-.988.2-1.358.602-2.825 2.64-5.511 5.434-8.274 8.12-.371.324-.587.772-.788 1.204l-.015-7.657s.03-2.27-2.47-2.254c-2.486-.015-2.47 2.27-2.47 2.27l.015 16.78s.031 2.068 2.455 2.038c2.362.015 2.439-2.023 2.439-2.023s.108-7.718.062-7.718c.355.617.864 1.127 1.404 1.605 2.1 2.069 4.168 4.168 6.268 6.221.602.587 1.142 1.266 1.883 1.683 1.498.88 3.643-.633 3.335-2.331 0-1.065-.927-1.729-1.606-2.408-1.79-1.79-3.627-3.566-5.418-5.388v-.432c2.038-2.007 4.075-4.014 6.097-6.036.556-.479 1.004-1.111.942-1.883.14-1.374-1.22-2.424-2.5-2.393zm5.681.046c-2.3.016-2.315 2.13-2.315 2.13l.046 9.757c0 .077-.046 9.2 9.355 9.2 9.34-.03 9.37-9.123 9.37-9.123l.062-9.833s0-2.115-2.362-2.115c-2.315-.016-2.315 2.1-2.315 2.1l-.016 9.833c.046.061.062 4.569-4.755 4.538-4.8.031-4.77-4.631-4.77-4.631l.031-9.725s-.015-2.115-2.33-2.13z" fill="#3faefb"/></svg>