<svg viewBox="-2.0020000000000016 -2.015 66.13499999999999 76.03" xmlns="http://www.w3.org/2000/svg" width="2183" height="2500"><linearGradient id="a" x1="28.196%" x2="77.509%" y1="55.804%" y2="29.449%"><stop offset="0" stop-color="#ff8000"/><stop offset="1" stop-color="#ff6400"/></linearGradient><linearGradient id="b" x1="18.255%" x2="96.421%" y1="32.127%" y2="71.916%"><stop offset="0" stop-color="#00c1ff"/><stop offset=".398" stop-color="#09b2ff"/><stop offset="1" stop-color="#2c78ff"/></linearGradient><path d="M21.094 34.665L23.392 36 51.6 52.39 21.154 70.095c-6.746 3.92-15.37 1.596-19.263-5.197-3.893-6.794-1.584-15.479 5.162-19.399l14.001-8.14c.463-.274.774-.78.774-1.359 0-.563-.293-1.056-.734-1.335z" fill="url(#a)"/><path d="M51.6 19.603L21.154 1.905C14.408-2.015 5.784.309 1.891 7.102-2.002 13.896.307 22.581 7.053 26.501l16.344 9.502L51.6 52.397c12.533-7.287 12.533-25.507 0-32.794z" fill="url(#b)"/></svg>