<?xml version="1.0" encoding="UTF-8"?>
<svg width="213px" height="72px" viewBox="0 0 213 72" version="1.1" xmlns="http://www.w3.org/2000/svg" xmlns:xlink="http://www.w3.org/1999/xlink">
    <title>左上角</title>
    <defs>
        <linearGradient x1="28.1955124%" y1="55.8038589%" x2="77.5086329%" y2="29.4493358%" id="linearGradient-1">
            <stop stop-color="#FF8000" offset="0%"></stop>
            <stop stop-color="#FF6400" offset="100%"></stop>
        </linearGradient>
        <linearGradient x1="18.2549194%" y1="32.1265847%" x2="96.4207553%" y2="71.9157027%" id="linearGradient-2">
            <stop stop-color="#00C1FF" offset="0%"></stop>
            <stop stop-color="#09B2FF" offset="39.7530163%"></stop>
            <stop stop-color="#2C78FF" offset="100%"></stop>
        </linearGradient>
    </defs>
    <g id="左上角" stroke="none" stroke-width="1" fill="none" fill-rule="evenodd">
        <g id="编组-3备份" transform="translate(-0, 0)">
            <g id="编组" transform="translate(76.2684, 3.8948)" fill="#FFFFFF">
                <path d="M133.212597,24.179401 L133.212597,24.1733504 L124.985517,24.1733504 L124.985517,16.0517603 L131.738705,16.0517603 L131.738705,16.0457097 C133.682088,16.0457097 135.257685,14.4692466 135.257685,12.5247955 C135.257685,10.5803444 133.682088,9.00333126 131.738705,9.00333126 L124.985517,9.00333126 L124.985517,3.56381862 L124.982768,3.56381862 C124.967375,1.59351482 123.368139,0 121.395069,0 C119.421999,0 117.823312,1.59351482 117.807919,3.56381862 L117.80517,3.56381862 L117.80517,9.00333126 L114.206475,9.00333126 C114.425278,8.12654057 114.843641,6.00332095 114.843641,5.73269296 C114.843641,3.86414969 113.329067,2.34874294 111.46155,2.34874294 C109.871109,2.34874294 108.54675,3.45105696 108.185561,4.93071001 C108.185561,4.93071001 107.264172,9.99508384 105.272961,15.806985 C105.272961,15.806985 105.09429,16.5308599 105.09429,16.9197501 C105.09429,18.7294373 106.559936,20.195889 108.36808,20.195889 C109.800191,20.195889 111.004154,19.2701432 111.448906,17.9885106 C111.448906,17.9885106 111.732029,17.2261318 112.120156,16.0517603 L117.80517,16.0517603 L117.80517,24.1733504 L108.674843,24.179401 C106.73091,24.179401 105.155313,25.7558641 105.155313,27.7003152 C105.155313,29.6447663 106.73091,31.2217794 108.674843,31.2217794 L133.212597,31.2217794 C135.15598,31.2217794 136.731577,29.6447663 136.731577,27.7003152 C136.731577,25.7558641 135.15598,24.179401 133.212597,24.179401 M87.4025223,15.7834976 L89.1150084,15.7834976 L89.1150084,9.39458673 L87.4025223,9.39458673 L87.4025223,15.7834976 Z M81.4041481,57.0295138 C80.5360853,57.0295138 79.8323992,56.3259911 79.8323992,55.4574512 L79.8323992,51.1059511 L96.7565996,51.1059511 C96.7565996,51.1059511 96.7494528,55.4519507 96.7494528,55.4574512 C96.7494528,56.3259911 96.0457667,57.0295138 95.1777039,57.0295138 L81.4041481,57.0295138 Z M81.5305917,26.8720945 C81.5305917,31.323705 80.068244,35.0019354 79.8323992,35.5668438 L79.8323992,23.7175182 C79.8323992,22.8489784 80.5360853,22.1454556 81.4041481,22.1454556 L81.5305917,22.1454556 L81.5305917,26.8720945 Z M89.1380981,37.5272466 C89.2573949,39.5289037 90.9017114,41.1196682 92.9325054,41.1196682 L96.7565996,41.1196682 L96.7565996,44.7439931 L79.8323992,44.7439931 L79.8323992,42.1515749 C80.328278,41.7885374 87.4025223,36.4375839 87.4025223,26.8720945 L87.4025223,22.1454556 L89.1155581,22.1454556 L89.1380981,37.5272466 Z M95.1859502,22.1454556 C96.0529135,22.1454556 96.7549503,22.8478783 96.7565996,23.7147679 L96.7565996,35.5030372 L95.8681959,35.5030372 C95.3816629,35.5030372 94.986939,35.1080964 94.986939,34.621296 L94.986939,22.1454556 L95.1859502,22.1454556 Z M97.5658386,15.7834976 L94.986939,15.7834976 L94.986939,9.39458673 L99.351442,9.39458673 L99.351442,9.38798604 C101.294825,9.38798604 102.870422,7.81207304 102.870422,5.86762192 C102.870422,3.92262074 101.294825,2.34670773 99.351442,2.34670773 L76.9236468,2.34670773 C74.9802637,2.34670773 73.4046665,3.92262074 73.4046665,5.86762192 C73.4046665,7.81207304 74.9802637,9.38798604 76.9236468,9.38798604 C76.9714754,9.38798604 81.5305917,9.39458673 81.5305917,9.39458673 L81.5305917,15.7834976 L79.0231602,15.7834976 C75.9456331,15.7834976 73.453045,18.2609538 73.4123631,21.3302713 L73.4046665,21.3302713 L73.4123631,57.8479985 C73.4541445,60.8546095 75.8527245,63.2776101 78.8450397,63.3738701 C78.8450397,63.3738701 97.533403,63.3914719 97.5658386,63.3914719 C100.504828,63.3914719 102.889114,61.1263376 103.136504,58.2500901 L103.179384,21.3506234 C103.149148,18.2714049 100.650513,15.7834976 97.5658386,15.7834976 L97.5658386,15.7834976 Z M128.438417,55.5981558 C128.438417,56.3825369 127.8029,57.0178526 127.01895,57.0178526 L115.061234,57.0178526 C114.277284,57.0178526 113.641767,56.3825369 113.641767,55.5981558 L113.641767,42.7757795 C113.641767,41.9908483 114.277284,41.3549825 115.061234,41.3549825 L127.01895,41.3549825 C127.8029,41.3549825 128.438417,41.9908483 128.438417,42.7757795 L128.438417,55.5981558 Z M129.996422,34.9957748 L112.083762,34.9957748 C109.44439,35.0793834 107.328933,37.1723499 107.194793,39.8005218 L107.194793,58.5728635 C107.328933,61.2010353 109.44439,63.2934517 112.083762,63.3781605 L129.996422,63.3781605 C132.635794,63.2934517 134.751251,61.2010353 134.885391,58.5728635 L134.885391,39.8005218 C134.751251,37.1723499 132.635794,35.0793834 129.996422,34.9957748 L129.996422,34.9957748 Z M18.2323781,0.733553315 C20.3060531,0.756328231 22.079562,2.34709277 22.0229372,4.45491079 C21.9602652,6.78055134 18.1839997,14.9642978 16.1823426,18.5468184 L16.1823426,60.4578534 C16.1823426,62.5304678 14.5028418,64.2108916 12.4313659,64.2108916 C10.3598899,64.2108916 8.68038915,62.5304678 8.68038915,60.4578534 L8.68038915,29.6739193 C7.56548649,31.0567623 6.8508053,31.8301423 6.8508053,31.8301423 C6.04046678,32.6810804 5.06740086,33.4517101 3.79581809,33.4638113 C1.72214313,33.4836134 0.135550886,31.8136406 0.00525900705,29.7426764 C-0.0849007739,28.3048277 1.014059,27.1469579 1.014059,27.1469579 C10.3400988,16.4604526 13.2625951,7.43676922 14.6622707,3.44280611 C14.6622707,3.44280611 15.5539729,0.705172939 18.2323781,0.733553315 Z M36.0178793,0.0849837903 C38.2828689,0.0849837903 40.1190498,1.92162376 40.1190498,4.18785817 L40.1195996,17.4898841 L60.0322668,17.4898841 C61.9602567,17.4898841 63.5226598,19.0536958 63.5226598,20.9821953 C63.5226598,22.9106948 61.9602567,24.4745065 60.0322668,24.4745065 L50.3851702,24.4745065 L50.3851702,53.2980379 C50.4115585,54.6027728 51.4665378,55.6539316 52.7755039,55.6566818 L56.1790357,55.6566818 C57.5044944,55.6539316 58.5787152,54.5791204 58.5787152,53.2523831 C58.5787152,53.2441323 59.0218175,49.1148552 59.0218175,49.1148552 C59.3071403,47.4476327 60.7496967,46.1753511 62.4979169,46.1753511 C64.4511956,46.1753511 66.0344893,47.759515 66.0344893,49.7133171 C66.0344893,49.7831743 65.8811077,55.271642 64.7233242,57.9086148 L64.5792485,58.1796567 C62.950338,61.1344072 59.8765245,63.1978486 56.3153748,63.3937821 L50.8134292,63.3937821 C46.4340827,63.3937821 42.8832167,59.8420647 42.8832167,55.4592114 L42.8832167,24.4745065 L40.0679226,24.4745065 C39.5631598,46.5095437 27.5977518,59.4282908 25.686517,61.3542661 L25.5763468,61.4642687 C25.5126977,61.5271879 25.4689387,61.5692497 25.4468382,61.5902999 L25.4301523,61.6060972 L25.3987827,61.6345884 C25.161967,61.8467352 23.6270227,63.170305 22.2558683,63.1116029 C19.9930777,63.015343 18.2278152,61.2738628 18.1546978,59.0087286 C18.1077707,57.5406047 19.2767288,56.22455 19.5579545,55.9298379 L19.618145,55.8684537 C29.6555674,44.2187988 31.546174,32.5465914 31.8595343,24.4745065 L22.8116704,24.4745065 C20.8842302,24.4745065 19.3212774,22.9106948 19.3212774,20.9821953 C19.3212774,19.0536958 20.8842302,17.4898841 22.8116704,17.4898841 L31.9172585,17.4898841 L31.9172585,4.18785817 C31.9172585,1.92162376 33.7528897,0.0849837903 36.0178793,0.0849837903 Z M48.7160048,0.728440346 C49.7336009,0.728440346 50.6384972,1.179487 51.2674167,1.88300977 L51.2762127,1.87475892 C51.2762127,1.87475892 53.837388,4.31981037 56.6146379,6.95371736 L57.0325528,7.3499378 C57.3816771,7.68083181 57.7323455,8.01291403 58.0799777,8.34177783 C58.0893235,8.35057874 58.0992191,8.35882959 58.1085649,8.36818056 C58.1146122,8.37423119 58.1201098,8.37973176 58.1261571,8.38523232 C58.7176932,8.99524542 59.0860289,9.8236311 59.0860289,10.7400259 C59.0860289,12.6008684 57.5780516,14.1091244 55.7182312,14.1091244 C54.855666,14.1091244 54.0772133,13.7752398 53.4818288,13.2416847 L53.4735825,13.2499355 C53.4735825,13.2499355 50.8049813,10.906082 47.9833522,8.22920207 L47.5592746,7.82542374 C47.1346782,7.41965042 46.7094687,7.00864619 46.2921361,6.59919759 C46.2893873,6.5964473 46.2866385,6.59424707 46.2838897,6.59204685 C46.2800415,6.58819645 46.2761932,6.58434605 46.2723449,6.58049565 C45.6604678,5.9583813 45.2811371,5.10634317 45.2811371,4.16519583 C45.2811371,2.26639942 46.8188011,0.728440346 48.7160048,0.728440346 Z" id="形状结合"></path>
            </g>
            <g id="icon/这就是街舞备份" fill-rule="nonzero">
                <g id="Group">
                    <path d="M21.0937069,34.6649495 L23.392,35.9999495 L51.6000007,52.3910911 L21.1541299,70.0953337 C14.4083441,74.015598 5.78419185,71.6908538 1.89134535,64.8975567 C-2.00150115,58.1042595 0.306984046,49.4193663 7.05276981,45.499102 L21.0544784,37.3590502 C21.5170507,37.085324 21.8275398,36.5791591 21.8275398,36 C21.8275398,35.4373694 21.5345198,34.9436261 21.0937069,34.6649495 Z" id="形状结合" fill="url(#linearGradient-1)"></path>
                    <path d="M51.6000007,19.603426 L21.1541299,1.90466633 C14.4083441,-2.01559797 5.78419185,0.309146172 1.89134535,7.10244334 C-2.00150115,13.8957405 0.306984046,22.5806337 7.05276981,26.500898 L23.3972806,36.0027414 L51.6000007,52.396574 L51.6000007,52.396574 C64.1333331,45.109817 64.1333331,26.890183 51.6000007,19.603426 L51.6000007,19.603426 Z" id="Path" fill="url(#linearGradient-2)"></path>
                </g>
            </g>
        </g>
    </g>
</svg>