<svg height="24" width="24" xmlns="http://www.w3.org/2000/svg"><g fill="#2980b9" transform="translate(0 -1028.4)"><path d="m12 1039.4c-3.0105 0-5.2407.1-6.7256.2-.4788.1-.9101.3-1.2672.6-.357.3-.6012.7-.7148 1.1-.211.9-.2924 2.2-.2924 4 0 1.9.0814 3.2.2924 4.1.1055.5.3578.8.7148 1.2.3652.3.764.5 1.2347.5 1.493.2 3.7476.3 6.7581.3 3.01 0 5.265-.1 6.758-.3.471 0 .91-.2 1.267-.5.357-.4.569-.7.683-1.2.211-.9.292-2.2.292-4.1 0-1.8-.081-3.1-.292-4-.106-.4-.318-.8-.683-1.1-.357-.3-.796-.5-1.267-.6-1.493-.1-3.748-.2-6.758-.2z" fill="#c0392b"/><path d="m12 1038.4c-3.0105 0-5.2407.1-6.7256.2-.4788.1-.9101.3-1.2672.6-.357.3-.6012.7-.7148 1.1-.211.9-.2924 2.2-.2924 4 0 1.9.0814 3.2.2924 4.1.1055.5.3578.8.7148 1.2.3652.3.764.5 1.2347.5 1.493.2 3.7476.3 6.7581.3 3.01 0 5.265-.1 6.758-.3.471 0 .91-.2 1.267-.5.357-.4.569-.7.683-1.2.211-.9.292-2.2.292-4.1 0-1.8-.081-3.1-.292-4-.106-.4-.318-.8-.683-1.1-.357-.3-.796-.5-1.267-.6-1.493-.1-3.748-.2-6.758-.2z" fill="#e74c3c"/><path d="m6.5 1 1.5 5v3h1v-3l1.5-5h-1l-1 3.3438-1-3.3438zm6 2c-.828 0-1.5.6716-1.5 1.5v3c0 .8284.672 1.5 1.5 1.5s1.5-.6716 1.5-1.5v-3c0-.8284-.672-1.5-1.5-1.5zm2.5 0v.3438 1.6562 2.75c0 .3821.036.664.094.8438.093.277.325.4063.656.4062.359.0001.869-.2232 1.25-.6875v.25.4375h1v-6h-1v4.5.0938c-.216.322-.587.5-.781.5-.13 0-.197-.0852-.219-.25-.007-.015 0-.1591 0-.4063v-2.4375-1.6562-.3438zm-2.5 1c.276 0 .5.2239.5.5v3c0 .2761-.224.5-.5.5s-.5-.2239-.5-.5v-3c0-.2761.224-.5.5-.5z" fill="#202020" transform="translate(0 1028.4)"/><g fill="#ecf0f1"><path d="m4.5 1040.4h4v1h-4z"/><path d="m6 1041.4h1v7h-1z"/><path d="m8 1042.4v.3 1.7 2.7c0 .4.0362.7.0938.9.0934.2.3256.4.6562.4.3594 0 .8691-.3 1.25-.7v.2.5h1v-6h-1v4.5.1c-.2156.3-.5872.5-.7812.5-.1294 0-.1972-.1-.2188-.3-.0072 0 0-.2 0-.4v-2.4-1.7-.3z"/><g transform="translate(0 1028.4)"><path d="m12 12v2 6h1v-.438-.25c.381.465.891.688 1.25.688.331 0 .563-.129.656-.406.058-.18.094-.462.094-.844v-1.75-1.75c0-.382-.036-.664-.094-.844-.093-.277-.325-.406-.656-.406-.359 0-.869.223-1.25.688v-.688-2zm1.781 2.906c.13 0 .197.085.219.25.007.015 0 .159 0 .406v1.438 1.438c0 .247.007.391 0 .406-.022.165-.089.25-.219.25-.194 0-.565-.178-.781-.5v-.094-3.094c.216-.322.587-.5.781-.5z"/><path d="m17.5 14c-.828 0-1.5.672-1.5 1.5v3c0 .828.672 1.5 1.5 1.5s1.5-.672 1.5-1.5v-.5h-1v.5c0 .276-.224.5-.5.5s-.5-.224-.5-.5v-.5-1h1 1v-1.5c0-.828-.672-1.5-1.5-1.5zm0 1c.276 0 .5.224.5.5v.5h-1v-.5c0-.276.224-.5.5-.5z"/></g></g></g></svg>