<svg xmlns="http://www.w3.org/2000/svg" viewBox="0 0 48 48"><g class="style-scope yt-icon"><path fill="red" d="M46.997 12.446a6.011 6.011 0 0 0-4.243-4.243C39.012 7.199 24 7.199 24 7.199S8.99 7.2 5.247 8.203a6.011 6.011 0 0 0-4.244 4.243C0 16.188 0 24 0 24s0 7.812 1.003 11.554a6.01 6.01 0 0 0 4.244 4.244C8.99 40.8 24 40.8 24 40.8s15.012 0 18.754-1.003a6.01 6.01 0 0 0 4.243-4.244C48.001 31.812 48.001 24 48.001 24s-.004-7.812-1.004-11.554z" class="style-scope yt-icon"/><path fill="#fff" d="m19.195 31.2 12.47-7.2-12.47-7.2z" class="style-scope yt-icon"/></g></svg>