<?xml version="1.0" ?><svg height="500" id="svg2" version="1.1" width="500" xmlns="http://www.w3.org/2000/svg" xmlns:cc="http://creativecommons.org/ns#" xmlns:dc="http://purl.org/dc/elements/1.1/" xmlns:inkscape="http://www.inkscape.org/namespaces/inkscape" xmlns:rdf="http://www.w3.org/1999/02/22-rdf-syntax-ns#" xmlns:sodipodi="http://sodipodi.sourceforge.net/DTD/sodipodi-0.dtd" xmlns:svg="http://www.w3.org/2000/svg"><defs id="defs4"/><g id="layer1" transform="translate(0,-552.36218)"><path d="m 0,552.36216 0,500.00004 500,0 0,-500.00004 z" id="rect2989-1" style="fill:#cc181e;fill-opacity:1;stroke:none"/><g id="layer1-9" transform="translate(-549.00515,80.294372)"/><g id="layer1-6" transform="translate(-575.71429,39.999999)"/><g id="layer1-1" transform="translate(-162.09821,1.8080339)"><g id="形状_1_3_" style="enable-background:new" transform="matrix(1.21711,0,0,1.21711,112.82456,368.85377)"><g id="形状_1"><g id="g2991"/></g></g><g id="形状_1_2_" style="enable-background:new" transform="matrix(1.21711,0,0,1.21711,-175.03531,575.68723)"><g id="形状_1_1_"><g id="g2997"/></g></g></g><path d="M 500,246.27232 500,500 l -315.98215,0 -75.75178,-75.75178 -0.40893,-175.67679 90.61193,-22.04433 -23.82539,-23.82539 3.57061,-75.916 -7.85454,-66.810635 26.79687,26.796876 24.58765,-26.803872 43.73645,43.736451 3.81954,-1.79943 32.07244,32.07244 12.68571,-37.686989 21.84455,21.844549 14.16121,-21.798605 z" id="path3778" style="fill:#000000;stroke:#000000;stroke-width:1px;stroke-linecap:butt;stroke-linejoin:miter;stroke-opacity:1;opacity:0.3" transform="translate(0,552.36218)"/><path d="M 147.875 60 C 152.37709 73.23543 157.08701 86.51109 161.59375 99.75 C 168.44628 119.65196 172.71963 134.64213 174.65625 144.875 L 174.65625 202.6875 L 196.03125 202.6875 L 196.03125 144.875 L 221.71875 60 L 200.125 60 L 185.5625 116.03125 L 170.34375 60 L 147.875 60 z M 250.34375 95.0625 C 240.74555 95.0625 233.2626 98.69659 227.9375 105.96875 C 223.83877 111.3415 221.90625 119.66501 221.90625 131.03125 L 221.90625 168.25 C 221.90625 179.55114 223.83877 187.92956 227.9375 193.25 C 233.26376 200.50123 240.74671 204.15625 250.34375 204.15625 C 259.9989 204.15625 267.514 200.50123 272.84375 193.25 C 276.8832 187.92956 278.8125 179.55114 278.8125 168.25 L 278.8125 131.03125 C 278.8125 119.66617 276.8832 111.3415 272.84375 105.96875 C 267.514 98.69659 259.9989 95.0625 250.34375 95.0625 z M 294.65625 96.34375 L 294.65625 180.4375 C 294.65625 187.94331 295.34262 193.02658 296.40625 196.25 C 298.32775 201.63554 302.57968 204.15625 308.78125 204.15625 C 315.80931 204.15625 323.14394 199.88521 330.8125 191.09375 L 330.8125 202.6875 L 350.0625 202.6875 L 350.0625 96.34375 L 330.8125 96.34375 L 330.8125 177.625 C 326.54404 183.65918 322.4773 186.625 318.625 186.625 C 316.0386 186.625 314.55045 185.10779 314.125 182.125 C 313.89323 181.49496 313.875 179.13988 313.875 174.625 L 313.875 96.34375 L 294.65625 96.34375 z M 250.34375 112.40625 C 256.55694 112.40625 259.53125 117.31861 259.53125 127.15625 L 259.53125 171.90625 C 259.53125 181.74622 256.55578 186.625 250.34375 186.625 C 244.13172 186.625 241.15625 181.74622 241.15625 171.90625 L 241.15625 127.15625 C 241.15625 117.31861 244.13172 112.40625 250.34375 112.40625 z M 242.625 220.09375 C 205.6097 220.09375 168.46074 220.36654 131.75 224.46875 C 115.23185 226.31469 101.51551 238.72033 97.65625 255.5 C 92.16497 279.39724 92.09375 305.45967 92.09375 330.0625 L 92.09375 331.84375 C 92.09607 355.92813 92.23262 381.2962 97.59375 404.625 C 101.45302 421.40352 115.2006 433.81145 131.71875 435.65625 C 168.47249 439.76415 205.62919 440 242.6875 440 L 249.84375 440 L 257 440 C 294.05714 440 331.21732 439.76415 367.96875 435.65625 C 384.48688 433.81145 398.23448 421.40352 402.09375 404.625 C 407.50719 381.06487 407.59175 355.39085 407.59375 331.09375 L 407.59375 330.0625 C 407.59375 305.45967 407.64758 279.39724 402.15625 255.5 C 398.29815 238.72033 384.57949 226.31469 368.0625 224.46875 C 331.34944 220.3677 294.20396 220.09375 257.1875 220.09375 L 249.90625 220.09375 L 242.625 220.09375 z M 115.625 259.34375 L 182.125 259.34375 L 182.125 279.21875 L 159.28125 279.21875 L 159.28125 400.5625 L 138.0625 400.5625 L 138.0625 279.21875 L 115.625 279.21875 L 115.625 259.34375 z M 256.21875 259.34375 L 275.28125 259.34375 L 275.28125 305.46875 C 281.43748 297.89204 287.98821 294.0625 295 294.0625 C 302.58951 294.0625 307.66139 298.05739 310.21875 305.9375 C 311.48231 310.17223 312.15625 317.13638 312.15625 327.09375 L 312.15625 368.96875 C 312.15625 378.70759 311.48114 385.72609 310.21875 390.1875 C 307.66139 398.00949 302.58951 402 295 402 C 288.22186 402 281.65137 398.25743 275.28125 390.375 L 275.28125 400.5625 L 256.21875 400.5625 L 256.21875 259.34375 z M 355.6875 294.0625 C 365.25314 294.0625 372.87854 297.64134 378.21875 304.84375 C 382.2117 310.16536 384.09375 318.37966 384.09375 329.625 L 384.09375 351.40625 L 345.96875 351.40625 L 345.96875 370.0625 C 345.96875 379.80134 349.13721 384.6875 355.6875 384.6875 C 360.38837 384.6875 363.1608 382.13316 364.25 377.03125 C 364.4232 375.99203 364.65625 371.74138 364.65625 364.09375 L 384.09375 364.09375 L 384.09375 366.90625 C 384.09375 373.03922 383.86651 377.28576 383.6875 379.1875 C 383.05165 383.42223 381.57254 387.22153 379.25 390.59375 C 373.97953 398.23324 366.14488 402 356.1875 402 C 346.21385 402 338.60716 398.40722 333.09375 391.21875 C 329.04152 385.95294 327 377.68141 327 366.5 L 327 329.625 C 327 318.37966 328.82626 310.16536 332.875 304.84375 C 338.38957 297.64134 345.95678 294.0625 355.6875 294.0625 z M 184.90625 295.34375 L 203.9375 295.34375 L 203.9375 372.8125 C 203.9375 377.28088 203.94831 379.58871 204.125 380.21875 C 204.58882 383.17249 206.0457 384.65625 208.59375 384.65625 C 212.42047 384.65625 216.42384 381.75382 220.65625 375.78125 L 220.65625 295.34375 L 239.71875 295.34375 L 239.71875 400.5625 L 220.65625 400.5625 L 220.65625 389.09375 C 213.0772 397.78756 205.88446 402 198.875 402 C 192.73271 402 188.47005 399.51492 186.5625 394.1875 C 185.52445 391.00012 184.90625 385.98927 184.90625 378.5625 L 184.90625 295.34375 z M 284.78125 311.21875 C 281.64733 311.21875 278.47212 312.69822 275.28125 315.84375 L 275.28125 379.96875 C 278.47212 383.15614 281.64617 384.65625 284.78125 384.65625 C 290.28071 384.65625 293.09375 380.00636 293.09375 370.5 L 293.09375 325.5625 C 293.09375 316.05614 290.28071 311.21875 284.78125 311.21875 z M 355.5625 311.21875 C 349.1854 311.21875 345.96875 316.08064 345.96875 325.8125 L 345.96875 335.53125 L 365.03125 335.53125 L 365.03125 325.8125 C 365.03242 316.07947 361.8745 311.21875 355.5625 311.21875 z " id="rect2989-7" style="opacity:1;fill:#ffffff;fill-opacity:1;stroke:none" transform="translate(0,552.36218)"/></g></svg>