<svg xmlns="http://www.w3.org/2000/svg" width="70" height="70" fill="none" viewBox="0 0 70 70"><defs><linearGradient id="youtrack_svg__a" x1="7.088" x2="64.122" y1="54.736" y2="28.739" gradientUnits="userSpaceOnUse"><stop offset="0" stop-color="#905CFB"/><stop offset=".165" stop-color="#6677F8"/><stop offset=".378" stop-color="#3596F5"/><stop offset=".54" stop-color="#17A9F3"/><stop offset=".632" stop-color="#0CB0F2"/></linearGradient><linearGradient id="youtrack_svg__b" x1="30.319" x2="1.071" y1="28.108" y2="2.276" gradientUnits="userSpaceOnUse"><stop offset="0" stop-color="#905CFB"/><stop offset=".072" stop-color="#A554E6"/><stop offset=".252" stop-color="#D641B5"/><stop offset=".39" stop-color="#F43597"/><stop offset=".468" stop-color="#FF318C"/></linearGradient><linearGradient id="youtrack_svg__c" x1="4.988" x2="74.041" y1="58.67" y2="15.161" gradientUnits="userSpaceOnUse"><stop offset="0" stop-color="#905CFB"/><stop offset=".165" stop-color="#6677F8"/><stop offset=".378" stop-color="#3596F5"/><stop offset=".54" stop-color="#17A9F3"/><stop offset=".632" stop-color="#0CB0F2"/></linearGradient></defs><path fill="url(#youtrack_svg__a)" d="M66.916 47.482c-.2-.2-13.102-12.603-13.102-12.603s9.801-10.402 12.402-13.003c.525-.525 1.41-1.6 2-2.6 3.6-6.102 1.5-13.903-4.6-17.504-4.501-2.6-10.102-2.2-14.103.8-.7.5-1.3 1-1.9 1.6-.3.4-13.903 12.803-25.705 23.606L44.012 41.78 20.808 67.887c-1.4 1-2.8 1.6-4.301 1.9.3 0 1.2.1 1.5 0 4.601-.7 43.208-7.402 45.108-7.802 2.3-.4 4.401-1.8 5.701-3.9 2.2-3.601 1.2-8.102-1.9-10.603Z"/><path fill="url(#youtrack_svg__b)" d="M45.912 30.478c-.4-2.7-1.8-4.901-3.8-6.501-2.101-1.6-18.304-18.404-20.104-20.305-2.8-2.7-6.801-4.2-10.902-3.5C4.105 1.171-.796 7.772.304 14.774c.5 3.5 2.5 6.501 5.1 8.402 2.601 2 23.005 16.003 24.305 17.003 2.1 1.6 4.901 2.5 7.702 2 5.5-1 9.401-6.2 8.501-11.702Z"/><path fill="url(#youtrack_svg__c)" d="M23.008 67.787c.1 0 23.304-26.106 23.304-26.106L22.908 26.877C14.606 34.48 6.905 41.381 5.105 43.081c-1.1 1-2.2 2.3-3 3.7a15.398 15.398 0 0 0 5.6 21.106c3 1.7 9.802 3.8 15.303-.1Z"/><path fill="#000" d="M56 14H14v42h42V14Z"/><path fill="#FFF" d="M34.417 48.65h-15.75v2.683h15.75V48.65ZM24.774 34.73h3.46v-6.27L34.28 19h-3.933l-3.82 6.314L22.774 19H18.73l6.044 9.528v6.202ZM36.414 19v3.19H41.2V34.73h3.46V22.191h4.786V19H36.414Z"/></svg>