<svg width="50" height="50" viewBox="0 0 50 50" fill="none" xmlns="http://www.w3.org/2000/svg">
<g clip-path="url(#clip0_2207_2638)">
<path d="M0 8.33333C0 3.73096 3.73096 0 8.33333 0H41.6667C46.269 0 50 3.73096 50 8.33333V41.6667C50 46.269 46.269 50 41.6667 50H8.33333C3.73096 50 0 46.269 0 41.6667V8.33333Z" fill="url(#paint0_linear_2207_2638)"/>
<path fill-rule="evenodd" clip-rule="evenodd" d="M37.9857 17.7786C40.0186 17.7786 41.6666 16.1306 41.6666 14.0977C41.6666 12.0647 40.0186 10.4167 37.9857 10.4167C35.9527 10.4167 34.3047 12.0647 34.3047 14.0977C34.3047 16.1306 35.9527 17.7786 37.9857 17.7786ZM17.2904 32.6046H30.8282V38.6373H8.33331V38.3612C8.33331 35.1608 9.51941 32.1445 11.6257 29.7621L21.6871 18.6066H8.33331V12.6659H30.8282C30.8282 15.9584 29.4581 19.1588 27.2597 21.623L17.2904 32.6046ZM34.9182 38.6379H41.0532V23.9139C41.0532 21.8792 39.4069 20.2329 37.3722 20.2329H34.9182V38.6379Z" fill="#FAB739"/>
</g>
<defs>
<linearGradient id="paint0_linear_2207_2638" x1="25" y1="0" x2="25" y2="50" gradientUnits="userSpaceOnUse">
<stop stop-color="#515154"/>
<stop offset="1" stop-color="#2B2B2E"/>
</linearGradient>
<clipPath id="clip0_2207_2638">
<rect width="50" height="50" fill="white"/>
</clipPath>
</defs>
</svg>
