<svg xmlns="http://www.w3.org/2000/svg" xmlns:xlink="http://www.w3.org/1999/xlink" fill="none" version="1.1" width="156.21713256835938" height="34" viewBox="0 0 156.21713256835938 34"><defs><clipPath id="master_svg0_1377_93380"><rect x="0" y="0" width="156.21713256835938" height="34" rx="0"/></clipPath></defs><g clip-path="url(#master_svg0_1377_93380)"><g><path d="M37.7161,24.4985C37.5833,20.6005,35.0961,16.3536,30.4117,13.8566C29.989,9.27541,28.249,2.98366,22.0899,0.648836C19.3914,-0.373572,16.3438,-0.206448,13.8762,1.26326C10.4207,3.32283,7.82044,7.51077,7.90401,12.6425C3.97658,15.2821,-0.840538,19.8731,0.127801,26.1451C0.550528,28.8929,2.22669,31.3407,4.78762,32.6483C8.37589,34.4866,13.4634,34.5456,18.0593,31.9109C22.4143,33.8525,28.9764,35.5533,34.1622,31.6111C36.438,29.8858,37.8095,27.2708,37.7161,24.4936M16.6191,3.36707C22.4684,3.32774,25.0048,9.76695,25.2604,14.8593Q25.2604,14.879,25.2604,14.9183C25.2948,15.6556,25.28,16.3585,25.226,17.0172C25.1719,18.2657,25.0441,19.9173,24.759,21.6033L22.7633,20.4531C22.3947,20.2417,22.1882,19.8436,22.1882,19.4159C22.1882,19.411,22.1882,19.4012,22.1882,19.3963C22.1882,18.133,21.4853,17.0369,20.4531,16.4716C20.0992,16.275,19.8927,15.8867,19.8927,15.4836L19.8927,13.5715C19.8927,12.9521,20.0549,12.3475,20.3597,11.8068C20.7185,11.1728,20.4777,10.3765,19.8141,10.0324L15.4639,7.76637C14.8003,7.42229,13.9696,7.65331,13.6108,8.29232L12.613,10.0471C12.5294,10.0815,11.1433,10.6616,9.31965,11.7479C9.50152,9.73254,10.5485,3.40639,16.6141,3.36706M5.31358,29.3254C2.94926,25.4668,5.37748,21.2936,8.73471,18.364Q9.18693,17.9118,10.17,17.2237C11.045,16.5945,11.9396,16.0489,12.8047,15.6212C14.1171,14.9183,15.7785,14.1564,17.8184,13.424L17.8184,15.4836C17.8184,15.8867,17.612,16.275,17.2581,16.4716C16.2258,17.0369,15.5229,18.133,15.5229,19.3963C15.5229,19.4012,15.5229,19.411,15.5229,19.4159C15.5229,19.8436,15.3165,20.2417,14.9478,20.4531L13.3945,21.3526C12.6867,21.7606,11.8904,21.9867,11.0745,22.0064C10.3175,22.026,9.72271,22.6257,9.74237,23.3483L9.87018,28.0867C9.88984,28.8093,10.5141,29.3795,11.2711,29.3598L13.3601,29.3107C13.4339,29.3648,14.648,30.22,16.5404,31.1933C14.6283,32.0486,8.38572,34.3441,5.31358,29.3303M34.4424,25.7224C31.6848,30.3724,25.0883,29.5663,20.3794,27.4527Q20.0205,27.3003,19.4503,27.0053C19.0079,26.7792,18.5852,26.5384,18.192,26.2926C17.0319,25.5848,15.5917,24.5575,14.3186,23.2106L15.9899,22.2472C16.3487,22.0408,16.796,22.0408,17.1499,22.257C17.6464,22.5569,18.2313,22.7289,18.8556,22.7289C19.4798,22.7289,20.0599,22.5569,20.5612,22.257C20.9201,22.0457,21.3624,22.0408,21.7213,22.2472L23.6039,23.3335C24.1446,23.6432,24.5968,24.0807,24.931,24.6017C25.3243,25.2161,26.1648,25.4128,26.8087,25.0343L31.0311,22.5618C31.675,22.1833,31.8765,21.3772,31.4833,20.7628L30.3921,19.0571C30.4019,18.9686,30.5739,17.5333,30.5002,15.4787C32.2304,16.6338,37.426,20.6694,34.4326,25.7224" fill="#4E4CFF" fill-opacity="1"/></g><g><g><path d="M48.97753439453125,29.011139083862304L48.97753439453125,17.238639083862303C48.97753439453125,16.948639083862304,48.74159439453125,16.707839083862304,48.44666439453125,16.707839083862304L44.15058439453125,16.707839083862304C43.26089439453125,16.707839083862304,42.53832839453125,15.985239083862306,42.53832839453125,15.095539083862304L42.53832839453125,15.036539083862305C42.53832839453125,14.146839083862305,43.26089439453125,13.424289083862305,44.15058439453125,13.424289083862305L65.27710439453125,13.424289083862305C65.89640439453125,13.424289083862305,66.39780439453125,13.930539083862305,66.38310439453124,14.549939083862304L66.13240439453125,28.067339083862304C66.12250439453125,28.671939083862306,65.63100439453125,29.153639083862306,65.02640439453126,29.153639083862306L60.13060439453125,29.153639083862306C59.24090439453125,29.153639083862306,58.518404394531245,28.431039083862306,58.518404394531245,27.541439083862304L58.518404394531245,27.482439083862303C58.518404394531245,26.592739083862305,59.24090439453125,25.870139083862306,60.13060439453125,25.870139083862306L62.39660439453125,25.870139083862306C62.68670439453125,25.870139083862306,62.91770439453125,25.639139083862304,62.927504394531255,25.354039083862304L63.094604394531245,17.248539083862305C63.09950439453125,16.953539083862303,62.86360439453125,16.707839083862304,62.563804394531246,16.707839083862304L52.90500439453125,16.707839083862304C52.61490439453125,16.707839083862304,52.37410439453125,16.943739083862305,52.37410439453125,17.238639083862303L52.37410439453125,29.011139083862304C52.37410439453125,29.900839083862305,51.65152439453125,30.623339083862305,50.76183439453125,30.623339083862305L50.57996439453125,30.623339083862305C49.69027439453125,30.623339083862305,48.96770439453125,29.900839083862305,48.96770439453125,29.011139083862304L48.97753439453125,29.011139083862304ZM57.95310439453125,9.919589083862306L57.95310439453125,9.491949083862306C57.95310439453125,9.344489083862305,57.83510439453125,9.226519083862303,57.68770439453125,9.226519083862303L51.86289439453125,9.226519083862303C51.715424394531254,9.226519083862303,51.59745439453125,9.344489083862305,51.59745439453125,9.491949083862306L51.59745439453125,9.919589083862306C51.59745439453125,10.809279083862304,50.87489439453125,11.531849083862305,49.98519439453125,11.531849083862305L49.86722439453125,11.531849083862305C48.97753439453125,11.531849083862305,48.25497439453125,10.809289083862303,48.25497439453125,9.919589083862306L48.25497439453125,9.491949083862306C48.25497439453125,9.344489083862305,48.137004394531246,9.226519083862303,47.98953439453125,9.226519083862303L43.79176439453125,9.226519083862303C42.90207239453125,9.226519083862303,42.17950439453125,8.503949083862306,42.17950439453125,7.614259083862304C42.17950439453125,6.724559083862305,42.90207239453125,6.001999083862305,43.79176439453125,6.001999083862305L47.98953439453125,6.001999083862305C48.137004394531246,6.001999083862305,48.25497439453125,5.884029083862305,48.25497439453125,5.736559083862304L48.25497439453125,5.397399083862305C48.25497439453125,4.507707083862305,48.97753439453125,3.7851390838623047,49.86722439453125,3.7851390838623047L49.98519439453125,3.7851390838623047C50.87489439453125,3.7851390838623047,51.59745439453125,4.507707083862305,51.59745439453125,5.397399083862305L51.59745439453125,5.736559083862304C51.59745439453125,5.884029083862305,51.715424394531254,6.001999083862305,51.86289439453125,6.001999083862305L57.68770439453125,6.001999083862305C57.83510439453125,6.001999083862305,57.95310439453125,5.884029083862305,57.95310439453125,5.736559083862304L57.95310439453125,5.397399083862305C57.95310439453125,4.507707083862305,58.67570439453125,3.7851390838623047,59.56540439453125,3.7851390838623047L59.688204394531255,3.7851390838623047C60.577904394531245,3.7851390838623047,61.300504394531245,4.507707083862305,61.300504394531245,5.397399083862305L61.300504394531245,5.736559083862304C61.300504394531245,5.884029083862305,61.418504394531254,6.001999083862305,61.565904394531245,6.001999083862305L65.76370439453125,6.001999083862305C66.65340439453125,6.001999083862305,67.37600439453125,6.7245690838623045,67.37600439453125,7.614259083862304C67.37600439453125,8.503949083862306,66.65340439453125,9.226519083862303,65.76370439453125,9.226519083862303L61.565904394531245,9.226519083862303C61.418504394531254,9.226519083862303,61.300504394531245,9.344489083862305,61.300504394531245,9.491949083862306L61.300504394531245,9.919589083862306C61.300504394531245,10.809279083862304,60.577904394531245,11.531849083862305,59.688204394531255,11.531849083862305L59.56540439453125,11.531849083862305C58.67570439453125,11.531849083862305,57.95310439453125,10.809289083862303,57.95310439453125,9.919589083862306Z" fill="#1D2129" fill-opacity="1"/></g><g><path d="M73.59356173828125,21.160951193237306L73.59356173828125,12.927621193237306C73.59356173828125,12.308281193237304,74.09493173828125,11.806901193237305,74.71427173828125,11.806901193237305L80.29328173828125,11.806901193237305C80.44075173828125,11.806901193237305,80.55871173828125,11.688931193237305,80.55871173828125,11.541471193237305L80.55871173828125,5.333291193237304C80.55871173828125,4.394442193237305,81.32058173828125,3.6325511932373047,82.25948173828125,3.6325511932373047C83.19828173828125,3.6325511932373047,83.96018173828125,4.394442193237305,83.96018173828125,5.333291193237304L83.96018173828125,5.603641193237305C83.96018173828125,5.751101193237305,84.07818173828124,5.869071193237305,84.22558173828125,5.869071193237305L94.55788173828125,5.869071193237305C95.41318173828125,5.869071193237305,96.11108173828126,6.562141193237305,96.11108173828126,7.422341193237305C96.11108173828126,8.277631193237305,95.41808173828124,8.975621193237306,94.55788173828125,8.975621193237306L84.22558173828125,8.975621193237306C84.07818173828124,8.975621193237306,83.96018173828125,9.093591193237305,83.96018173828125,9.241051193237304L83.96018173828125,11.546391193237305C83.96018173828125,11.693851193237304,84.07818173828124,11.811821193237305,84.22558173828125,11.811821193237305L93.57478173828125,11.811821193237305C94.19408173828126,11.811821193237305,94.69548173828125,12.313191193237305,94.69548173828125,12.932541193237304L94.69548173828125,21.165851193237305C94.69548173828125,21.785251193237304,94.19408173828126,22.286551193237305,93.57478173828125,22.286551193237305L74.71919173828125,22.286551193237305C74.09985173828125,22.286551193237305,73.59848173828125,21.785251193237304,73.59848173828125,21.165851193237305L73.59356173828125,21.160951193237306ZM77.46691173828125,19.268551193237304L90.81718173828125,19.268551193237304C91.10718173828124,19.268551193237304,91.34808173828125,19.032551193237303,91.34808173828125,18.737651193237305L91.34808173828125,15.562251193237305C91.34808173828125,15.272251193237304,91.11218173828125,15.031451193237304,90.81718173828125,15.031451193237304L77.46691173828125,15.031451193237304C77.17691173828125,15.031451193237304,76.93605173828125,15.267351193237305,76.93605173828125,15.562251193237305L76.93605173828125,18.737651193237305C76.93605173828125,19.027651193237304,77.17199173828125,19.268551193237304,77.46691173828125,19.268551193237304ZM96.09638173828125,30.721451193237304C95.18698173828125,31.026251193237304,94.20398173828124,30.534651193237305,93.89918173828124,29.625351193237304L92.80308173828125,26.336951193237304C92.49828173828125,25.427551193237306,92.98988173828126,24.444451193237306,93.89918173828124,24.139751193237306C94.80858173828125,23.834951193237305,95.79158173828125,24.326451193237304,96.09638173828125,25.235851193237306L97.19248173828124,28.524251193237305C97.49728173828125,29.433651193237306,97.00568173828125,30.416751193237303,96.09638173828125,30.721451193237304ZM88.46268173828125,30.775551193237305L88.40868173828125,30.785351193237304C87.47968173828124,30.947551193237306,86.59488173828125,30.323351193237304,86.43758173828125,29.389351193237303L85.87718173828125,26.140251193237305C85.71498173828125,25.211251193237306,86.33928173828124,24.326451193237304,87.27318173828125,24.169151193237305L87.32728173828124,24.159351193237306C88.25628173828125,23.997151193237304,89.14108173828126,24.621451193237306,89.29838173828125,25.555351193237303L89.85868173828125,28.804451193237306C90.02088173828125,29.733451193237304,89.39668173828125,30.618251193237306,88.46268173828125,30.775551193237305ZM72.18774173828125,30.721451193237304C73.09710173828125,31.026251193237304,74.08019173828124,30.534651193237305,74.38494173828126,29.625351193237304L75.48108173828125,26.336951193237304C75.78583173828125,25.427551193237306,75.29429173828125,24.444451193237306,74.38494173828126,24.139751193237306C73.47558173828125,23.834951193237305,72.49250173828125,24.326451193237304,72.18774173828125,25.235851193237306L71.09160833828125,28.524251193237305C70.78685473828125,29.433651193237306,71.27839673828124,30.416751193237303,72.18774173828125,30.721451193237304ZM79.82140173828125,30.775551193237305L79.87547173828125,30.785351193237304C80.80448173828125,30.947551193237306,81.68928173828125,30.323351193237304,81.84658173828124,29.389351193237303L82.40688173828124,26.140251193237305C82.56908173828126,25.211251193237306,81.94488173828125,24.326451193237304,81.01098173828125,24.169151193237305L80.95686173828125,24.159351193237306C80.02785173828124,23.997151193237304,79.14307173828125,24.621451193237306,78.98578173828125,25.555351193237303L78.42542173828124,28.804451193237306C78.26321173828126,29.733451193237304,78.88747173828125,30.618251193237306,79.82140173828125,30.775551193237305Z" fill="#1D2129" fill-opacity="1"/></g><g><path d="M108.06602486328126,29.054814474487305L108.06602486328126,28.961414474487306C108.06602486328126,28.061814474487306,108.79350486328124,27.334414474487303,109.69302486328125,27.334414474487303L111.90988486328125,27.334414474487303C112.19988486328126,27.334414474487303,112.44078486328125,27.098414474487306,112.44078486328125,26.803514474487304L112.44078486328125,5.681924474487305C112.44078486328125,4.782397474487305,113.16818486328125,4.054914474487305,114.06778486328125,4.054914474487305L114.22008486328124,4.054914474487305C115.11968486328125,4.054914474487305,115.84708486328125,4.782397474487305,115.84708486328125,5.681924474487305L115.84708486328125,29.054814474487305C115.84708486328125,29.954314474487305,115.11968486328125,30.681814474487304,114.22008486328124,30.681814474487304L109.69794486328125,30.681814474487304C108.79841486328125,30.681814474487304,108.07093486328125,29.954314474487305,108.07093486328125,29.054814474487305L108.06602486328126,29.054814474487305ZM123.44638486328125,24.920914474487304C122.81228486328125,20.172614474487304,121.84398486328125,15.404614474487305,120.56108486328125,10.710404474487305C120.28088486328124,9.678164474487303,121.06238486328125,8.665584474487304,122.12908486328125,8.665584474487304L122.18808486328125,8.665584474487304C122.92538486328125,8.665584474487304,123.57908486328125,9.162044474487304,123.76098486328125,9.879694474487305C125.03898486328126,14.804914474487305,126.01218486328125,19.700714474487306,126.66598486328125,24.483414474487304C126.79868486328125,25.461614474487305,126.04668486328126,26.336514474487306,125.05368486328125,26.336514474487306C124.23778486328125,26.336514474487306,123.55448486328125,25.727014474487305,123.44638486328125,24.916014474487305L123.44638486328125,24.920914474487304ZM100.67813856328125,23.928014474487306C102.24616486328125,19.258314474487307,103.38162486328125,14.519814474487305,104.07469486328125,9.801044474487306C104.19267486328125,8.994914474487306,104.87099486328125,8.395234474487305,105.68204486328125,8.395234474487305L105.86391486328125,8.395234474487305C106.86174486328125,8.395234474487305,107.61380486328125,9.280014474487306,107.47126486328125,10.268014474487305C106.74869486328124,15.242414474487305,105.63780486328125,20.157814474487306,104.15826486328125,24.930714474487306C103.94690486328125,25.609014474487303,103.31280486328124,26.066214474487303,102.60498486328125,26.066214474487303L102.22158486328125,26.066214474487303C101.11069886328124,26.066214474487303,100.32913986328126,24.979914474487305,100.68305126328126,23.923114474487306L100.67813856328125,23.928014474487306Z" fill="#1D2129" fill-opacity="1"/></g><g><path d="M129.68393217578125,28.740534005737306L129.68393217578125,28.681534005737305C129.68393217578125,27.806634005737305,130.39175417578124,27.098734005737306,131.26669517578125,27.098734005737306L140.91075517578125,27.098734005737306C141.05825517578126,27.098734005737306,141.17615517578125,26.980834005737304,141.17615517578125,26.833334005737306L141.17615517578125,22.640434005737305C141.17615517578125,22.493034005737304,141.05825517578126,22.375034005737305,140.91075517578125,22.375034005737305L133.51305517578126,22.375034005737305C132.63810517578125,22.375034005737305,131.93028517578125,21.667234005737306,131.93028517578125,20.792234005737306C131.93028517578125,19.917334005737306,132.63810517578125,19.209534005737304,133.51305517578126,19.209534005737304L140.91075517578125,19.209534005737304C141.05825517578126,19.209534005737304,141.17615517578125,19.091534005737305,141.17615517578125,18.944034005737304L141.17615517578125,16.835334005737305C141.17615517578125,16.687934005737304,141.05825517578126,16.569934005737302,140.91075517578125,16.569934005737302L132.67250517578125,16.569934005737302C131.79755517578124,16.569934005737302,131.08973517578124,15.862134005737305,131.08973517578124,14.987134005737305C131.08973517578124,14.112234005737305,131.79755517578124,13.404384005737304,132.67250517578125,13.404384005737304L153.08135517578125,13.404384005737304C153.95625517578125,13.404384005737304,154.66415517578125,14.112234005737305,154.66415517578125,14.987134005737305C154.66415517578125,15.862134005737305,153.95625517578125,16.569934005737302,153.08135517578125,16.569934005737302L144.84305517578125,16.569934005737302C144.69565517578124,16.569934005737302,144.57765517578125,16.687934005737304,144.57765517578125,16.835334005737305L144.57765517578125,18.944034005737304C144.57765517578125,19.091534005737305,144.69565517578124,19.209534005737304,144.84305517578125,19.209534005737304L152.24075517578126,19.209534005737304C153.11575517578126,19.209534005737304,153.82355517578125,19.917334005737306,153.82355517578125,20.792234005737306C153.82355517578125,21.667234005737306,153.11575517578126,22.375034005737305,152.24075517578126,22.375034005737305L144.84305517578125,22.375034005737305C144.69565517578124,22.375034005737305,144.57765517578125,22.493034005737304,144.57765517578125,22.640434005737305L144.57765517578125,26.833334005737306C144.57765517578125,26.980834005737304,144.69565517578124,27.098734005737306,144.84305517578125,27.098734005737306L149.17355517578125,27.098734005737306C149.35545517578126,27.098734005737306,149.48325517578124,26.916934005737303,149.42425517578124,26.744834005737303L149.21785517578124,26.169734005737304C148.84425517578126,25.137534005737304,149.60615517578125,24.046234005737304,150.70715517578125,24.046234005737304C151.37075517578126,24.046234005737304,151.96555517578125,24.464134005737304,152.19655517578124,25.088334005737305L152.80115517578125,26.749734005737306C152.87485517578125,26.961134005737303,153.07645517578123,27.098734005737306,153.29765517578124,27.098734005737306L154.49695517578124,27.098734005737306C155.37195517578124,27.098734005737306,156.07975517578126,27.806534005737305,156.07975517578126,28.681534005737305L156.07975517578126,28.740534005737306C156.07975517578126,29.615434005737306,155.37195517578124,30.323234005737305,154.49695517578124,30.323234005737305L131.27652517578125,30.323234005737305C130.40158017578125,30.323234005737305,129.69375717578126,29.615434005737306,129.69375717578126,28.740534005737306L129.68393217578125,28.740534005737306ZM152.87495517578125,10.292924005737305L152.87495517578125,9.614594005737304C152.87495517578125,9.467134005737304,152.75695517578126,9.349164005737304,152.60945517578125,9.349164005737304L133.13947517578126,9.349164005737304C132.99201517578126,9.349164005737304,132.87403517578124,9.467134005737304,132.87403517578124,9.614594005737304L132.87403517578124,10.292924005737305C132.87403517578124,11.217024005737304,132.12689517578124,11.964164005737304,131.20279517578126,11.964164005737304C130.27869417578125,11.964164005737304,129.53155517578125,11.217024005737304,129.53155517578125,10.292924005737305L129.53155517578125,8.803544005737304C129.53155517578125,7.343664005737304,130.71617517578125,6.159044005737305,132.17605517578124,6.159044005737305L140.90585517578126,6.159044005737305C141.05335517578126,6.159044005737305,141.17125517578125,6.041074005737305,141.17125517578125,5.893614005737305L141.17125517578125,5.338174005737304C141.17125517578125,4.399325005737305,141.93315517578125,3.6374340057373047,142.87205517578124,3.6374340057373047C143.81085517578126,3.6374340057373047,144.57275517578125,4.399325005737305,144.57275517578125,5.338174005737304L144.57275517578125,5.893614005737305C144.57275517578125,6.041074005737305,144.69075517578125,6.159044005737305,144.83815517578125,6.159044005737305L153.56795517578126,6.159044005737305C155.02785517578124,6.159044005737305,156.21245517578126,7.343664005737304,156.21245517578126,8.803544005737304L156.21245517578126,10.292924005737305C156.21245517578126,11.217024005737304,155.46535517578124,11.964164005737304,154.54125517578126,11.964164005737304C153.61715517578125,11.964164005737304,152.87005517578126,11.217024005737304,152.87005517578126,10.292924005737305L152.87495517578125,10.292924005737305Z" fill="#1D2129" fill-opacity="1"/></g></g></g></svg>